<svg width="83" height="42" viewBox="0 0 83 42" fill="none" xmlns="http://www.w3.org/2000/svg">
<rect x="1" y="0.5" width="81" height="41" rx="5.5" stroke="#E5E7EB"/>
<rect x="1.5" y="1" width="80" height="40" rx="5" fill="white"/>
<path fill-rule="evenodd" clip-rule="evenodd" d="M22.5264 14.864C23.4665 14.9433 24.4066 14.3882 24.9941 13.6844C25.5719 12.9607 25.9538 11.9893 25.8559 10.998C25.0235 11.0377 23.9953 11.5532 23.4077 12.2768C22.8691 12.9013 22.4089 13.9124 22.5264 14.864ZM33.7095 27.6295V12.1775H39.4381C42.3954 12.1775 44.4617 14.2391 44.4617 17.2522C44.4617 20.2653 42.3563 22.3467 39.3598 22.3467H36.0793V27.6295H33.7095ZM25.846 15.0518C25.0178 15.0036 24.2621 15.3039 23.6517 15.5465C23.2589 15.7026 22.9263 15.8348 22.6732 15.8348C22.3892 15.8348 22.0429 15.6956 21.654 15.5392C21.1444 15.3343 20.5618 15.1001 19.9509 15.1113C18.5506 15.1311 17.2482 15.9339 16.5333 17.2125C15.0644 19.7697 16.1514 23.5559 17.5713 25.6373C18.2666 26.668 19.0989 27.798 20.1957 27.7583C20.6782 27.7399 21.0253 27.5908 21.3845 27.4365C21.798 27.2589 22.2276 27.0744 22.8984 27.0744C23.546 27.0744 23.9568 27.2541 24.3511 27.4266C24.7261 27.5906 25.0862 27.7481 25.6208 27.7385C26.7567 27.7187 27.4715 26.7077 28.1668 25.6769C28.9171 24.5706 29.2468 23.4909 29.2969 23.327L29.3027 23.3081C29.3016 23.3069 29.2923 23.3026 29.2761 23.295L29.2759 23.295L29.2759 23.295C29.0251 23.1788 27.108 22.2905 27.0896 19.9084C27.0712 17.9091 28.6102 16.8961 28.8525 16.7366C28.8672 16.7269 28.8772 16.7204 28.8817 16.717C27.9024 15.2501 26.3748 15.0915 25.846 15.0518ZM48.7901 27.7484C50.2785 27.7484 51.6593 26.9852 52.286 25.776H52.3349V27.6295H54.5285V19.9382C54.5285 17.7081 52.7658 16.2709 50.0533 16.2709C47.5366 16.2709 45.676 17.7279 45.6075 19.73H47.7423C47.9185 18.7785 48.7901 18.1541 49.9847 18.1541C51.434 18.1541 52.2468 18.838 52.2468 20.0968V20.9491L49.2895 21.1276C46.5378 21.296 45.0493 22.4359 45.0493 24.4182C45.0493 26.4203 46.5867 27.7484 48.7901 27.7484ZM49.4264 25.9152C48.1632 25.9152 47.3602 25.3006 47.3602 24.3589C47.3602 23.3875 48.1338 22.8224 49.6125 22.7332L52.2467 22.5647V23.437C52.2467 24.8843 51.0324 25.9152 49.4264 25.9152ZM61.8042 28.2341C60.8543 30.9399 59.7674 31.8319 57.4563 31.8319C57.2801 31.8319 56.6925 31.8121 56.5554 31.7725V29.919C56.7023 29.9388 57.0646 29.9587 57.2507 29.9587C58.2985 29.9587 58.886 29.5126 59.2484 28.353L59.4638 27.6691L55.4489 16.4196H57.9264L60.7173 25.5481H60.7662L63.5571 16.4196H65.966L61.8042 28.2341ZM36.079 14.1994H38.8112C40.8676 14.1994 42.0427 15.3097 42.0427 17.2624C42.0427 19.2152 40.8676 20.3353 38.8014 20.3353H36.079V14.1994Z" fill="black"/>
</svg>
