<svg width="56" height="80" viewBox="0 0 56 80" fill="none" xmlns="http://www.w3.org/2000/svg">
<path d="M56.0001 79.2472C56.0001 79.2749 43.4631 79.2952 28.0013 79.2952C12.5394 79.2952 0 79.2768 0 79.2472C0 79.2177 12.5345 79.1992 28.0013 79.1992C43.4681 79.1992 56.0001 79.2232 56.0001 79.2472Z" fill="#051321"/>
<path d="M22.8031 1.13281H1.53711V42.6985H22.8031V1.13281Z" fill="#E2E4E6"/>
<path d="M21.7333 2.33984H2.38672V41.4617H21.7333V2.33984Z" fill="#F7F8F9"/>
<path d="M23.7021 43.0754L22.8037 42.7006V0.429688H23.7021V43.0754Z" fill="#F7F8F9"/>
<path d="M7.13086 27.6117L12.1557 22.5288C12.7914 21.8855 13.6241 21.1919 14.4426 21.5087C14.8368 21.6614 15.1333 22.0284 15.5186 22.2023C16.291 22.552 17.1717 22.0477 17.7647 21.4083C18.3578 20.7688 18.8301 19.9651 19.5403 19.5014C20.2505 19.0378 21.3744 19.0957 21.7296 19.9187V25.4499L14.4267 28.8501L7.13086 27.6117Z" fill="#F7F8F9"/>
<path d="M2.38672 24.4303C4.23863 23.6112 6.08522 24.3086 7.40979 25.9372C7.69033 26.2792 7.94246 26.6752 8.32598 26.8646C8.84623 27.1215 9.44459 26.9283 10.011 26.8646C10.7889 26.7811 11.5729 26.9332 12.2764 27.3041C12.9798 27.6751 13.5754 28.2504 13.9971 28.9665L7.81462 32.2624L2.38672 32.218V24.4303Z" fill="#F7F8F9"/>
<path d="M21.7294 24.4598C20.5096 23.8184 19.4371 24.5931 18.3114 25.4142C17.1857 26.2353 16.1399 27.2863 14.8207 27.6166C13.9329 27.8369 12.9936 27.7152 12.1413 28.0455C10.4048 28.7178 9.40162 31.1173 7.56036 31.2313C6.56072 31.2931 5.66583 30.6343 4.77272 30.1398C3.87961 29.6452 3.17471 29.1738 2.38281 29.8384V41.4609H21.7294V24.4598Z" fill="#E2E4E6"/>
<path d="M22.1541 13.5938H2.38672V14.011H22.1541V13.5938Z" fill="#F7F8F9"/>
<path d="M22.1541 22.9102H2.38672V23.3275H22.1541V22.9102Z" fill="#F7F8F9"/>
<path d="M22.1541 32.2266H2.38672V32.6439H22.1541V32.2266Z" fill="#F7F8F9"/>
<path d="M11.5732 13.8018L11.5732 42.5703H12.5516L12.5516 13.8018H11.5732Z" fill="#F7F8F9"/>
<path d="M6.55637 2.33984H6.11426V13.8021H6.55637V2.33984Z" fill="#F7F8F9"/>
<path d="M10.3747 2.33984H9.93262V13.8021H10.3747V2.33984Z" fill="#F7F8F9"/>
<path d="M14.1941 2.33984H13.752V13.8021H14.1941V2.33984Z" fill="#F7F8F9"/>
<path d="M18.0124 2.33984H17.5703V13.8021H18.0124V2.33984Z" fill="#F7F8F9"/>
<path d="M1.53888 0.429688H0.638672V42.9575H1.53888V0.429688Z" fill="#F7F8F9"/>
<path d="M23.7033 0H0.638672V1.13405H23.7033V0Z" fill="#F7F8F9"/>
<path d="M24.311 43.2148H0V44.2716H24.311V43.2148Z" fill="#F7F8F9"/>
<path d="M22.8036 42.6992L24.311 43.215H0L1.53764 42.6992H22.8036Z" fill="#E2E4E6"/>
<path d="M4.57937 65.6495C3.91 65.308 3.15778 65.2085 2.43271 65.3655C2.04209 65.435 1.63726 65.5587 1.36737 65.8813C1.09748 66.2039 1.05309 66.7603 1.35672 67.0405C1.55222 67.188 1.78908 67.2564 2.0261 67.2336C2.59429 67.2336 3.22284 67.1177 3.67738 67.4887C3.93484 67.7012 4.10707 68.0528 4.41779 68.1571C4.57224 68.1966 4.7343 68.1802 4.87944 68.1105C5.02458 68.0408 5.14488 67.9215 5.22212 67.7707C5.3691 67.4607 5.4015 67.1013 5.31268 66.7661C5.27893 66.5307 5.19504 66.3071 5.06771 66.1132C4.94039 65.9193 4.77315 65.7605 4.57937 65.6495Z" fill="#E2E4E6"/>
<path d="M6.07593 62.5058C5.67643 63.1278 4.90051 62.9211 4.54007 62.5425C4.17963 62.1638 4.02871 61.6151 3.89021 61.0916C3.57416 59.8957 3.25456 58.6399 3.48893 57.4209C3.546 57.0518 3.69526 56.7069 3.9204 56.424C4.03426 56.2845 4.17982 56.18 4.34249 56.121C4.50516 56.062 4.67923 56.0506 4.84724 56.0878C5.23964 56.1999 5.48289 56.6172 5.65868 57.0152C6.17906 58.186 6.45264 59.4684 6.45946 60.7689C6.45946 61.3736 6.39553 62.0073 6.08304 62.5077" fill="#E2E4E6"/>
<path d="M7.17011 63.3974C6.7351 62.8372 6.65342 62.0219 6.84696 61.3206C7.06532 60.6228 7.45676 60.0044 7.97799 59.5336C8.5715 58.9604 9.26208 58.5188 10.011 58.2334C10.2998 58.1061 10.6106 58.0488 10.9219 58.0653C11.0773 58.0753 11.2281 58.1264 11.3611 58.2143C11.4942 58.3022 11.6055 58.4241 11.6854 58.5695C11.8984 59.0119 11.6854 59.5471 11.4741 59.9856C11.0839 60.7572 10.6387 61.4943 10.1424 62.19C9.74468 62.7502 9.28836 63.3008 8.67934 63.5539C8.07032 63.807 7.43644 63.778 7.11862 63.3182" fill="#E2E4E6"/>
<path d="M6.10422 71.8672C6.0833 71.7748 6.07139 71.6803 6.06871 71.5851C6.04918 71.3804 6.0261 71.1234 5.99946 70.8124C5.96404 70.4335 5.91071 70.057 5.83966 69.6841C5.74732 69.2295 5.62144 68.7837 5.46324 68.3511C5.30835 67.9191 5.09792 67.5132 4.83824 67.1455C4.62679 66.8465 4.35691 66.6024 4.04812 66.4307C3.83872 66.3171 3.61391 66.2408 3.38228 66.2047C3.29486 66.2004 3.20803 66.1868 3.12305 66.1641C3.21038 66.1536 3.2985 66.1536 3.38583 66.1641C3.62601 66.1827 3.86117 66.2482 4.08008 66.3573C4.40586 66.5247 4.69151 66.772 4.91459 67.0798C5.18552 67.4521 5.40394 67.8662 5.56267 68.3086C5.72261 68.747 5.84795 69.1994 5.93732 69.6609C6.00411 70.0388 6.04977 70.4207 6.07404 70.8046C6.09712 71.1311 6.106 71.3958 6.10955 71.5774C6.11732 71.6739 6.11553 71.7711 6.10422 71.8672Z" fill="#F7F8F9"/>
<path d="M6.05575 71.2765C6.05047 71.2329 6.05047 71.1887 6.05575 71.1451V70.7703C6.05575 70.4457 6.05575 69.9763 6.04155 69.3967C6.01491 68.2375 5.92258 66.9856 5.74503 65.2256C5.56747 63.57 5.35085 61.6419 5.1147 60.3958C5.06321 60.1099 5.01172 59.8529 4.96378 59.623C4.91584 59.3931 4.87678 59.2038 4.83949 59.0434C4.8022 58.8831 4.78089 58.7749 4.75959 58.6802C4.74779 58.6381 4.74064 58.5947 4.73828 58.5508C4.7567 58.5892 4.77043 58.6302 4.77912 58.6725L4.88033 59.0318C4.92472 59.1864 4.9691 59.3796 5.0206 59.6114C5.07209 59.8432 5.13246 60.0905 5.1875 60.3842C5.48258 61.8655 5.70425 63.363 5.85156 64.8702C6.02912 66.636 6.10902 68.2433 6.11612 69.4064C6.11612 69.9859 6.11612 70.4593 6.09836 70.7838C6.08949 70.9365 6.08238 71.0601 6.07706 71.1567C6.07317 71.1972 6.06604 71.2373 6.05575 71.2765Z" fill="#F7F8F9"/>
<path d="M6.04692 68.1784C6.03644 68.0499 6.03644 67.9206 6.04692 67.792C6.06689 67.4373 6.10363 67.0839 6.15701 66.7333C6.2358 66.2121 6.34132 65.6961 6.47306 65.1878C6.62881 64.5657 6.82765 63.9573 7.06787 63.3679C7.4798 62.278 8.06996 61.2785 8.8097 60.4178C8.93802 60.2704 9.07503 60.1323 9.21986 60.0044C9.282 59.9464 9.33882 59.8884 9.39741 59.8421L9.55721 59.7223C9.65349 59.645 9.75432 59.5747 9.85906 59.5117C9.51137 59.8119 9.18053 60.1345 8.86829 60.4777C8.1527 61.3408 7.57802 62.3307 7.16908 63.4046C6.93231 63.9924 6.73298 64.5972 6.57249 65.2148C6.43639 65.717 6.32379 66.2264 6.23513 66.741C6.16056 67.1815 6.11794 67.5409 6.09131 67.7901C6.08493 67.9205 6.0701 68.0503 6.04692 68.1784Z" fill="#F7F8F9"/>
<path d="M8.80006 73.6445L8.5142 77.8987H3.49112L3.20703 73.6445H8.80006Z" fill="#F7F8F9"/>
<path d="M9.28337 71.9688H2.60547V73.6457H9.28337V71.9688Z" fill="#F7F8F9"/>
<path d="M9.28462 77.7344V78.2H8.97212H2.7168V77.7344H9.28462Z" fill="#E2E4E6"/>
<path d="M8.6637 79.0164L8.97265 78.1992H2.95703L3.3157 79.0164H8.6637Z" fill="#F7F8F9"/>
<path d="M3.29883 75.0365C3.29883 75.0365 3.29883 75.05 3.32191 75.0751C3.34499 75.1002 3.3663 75.1408 3.39826 75.1833L3.68945 75.591L3.70366 75.6103L3.71609 75.591L4.43519 74.5091H4.39258C4.60742 74.8375 4.84535 75.2046 5.1028 75.5987L5.12589 75.6335L5.14897 75.6006L5.98881 74.5149H5.94087L5.98703 74.5786L6.7381 75.6025L6.76296 75.6373L6.78604 75.6006L7.49626 74.511H7.45365L8.32723 75.5929L8.34143 75.6122L8.35386 75.591L8.6273 75.0906L8.69655 74.9573C8.70597 74.9432 8.71317 74.9275 8.71786 74.9109C8.70711 74.924 8.6976 74.9383 8.68945 74.9534L8.61132 75.0809L8.32546 75.5716H8.35209L7.49449 74.4782L7.47318 74.4511L7.45365 74.4801L6.74343 75.5658H6.79137L6.04385 74.54L5.99769 74.4782L5.97283 74.4453L5.94797 74.4762L5.11168 75.5658H5.15785L4.44762 74.4801L4.42631 74.4492L4.40501 74.4801L3.69478 75.5736H3.71964L3.41602 75.1756L3.33434 75.0732C3.32479 75.0586 3.31273 75.0461 3.29883 75.0365Z" fill="#F7F8F9"/>
<path d="M3.13672 73.6168C3.13672 73.6361 4.3956 73.6497 5.94744 73.6497C7.49928 73.6497 8.76881 73.6361 8.76881 73.6168C8.76881 73.5975 7.50994 73.582 5.95632 73.582C4.4027 73.582 3.13672 73.6071 3.13672 73.6168Z" fill="#F7F8F9"/>
<path d="M2.88086 78.2457C2.88086 78.2631 4.24982 78.2786 5.93661 78.2786C7.6234 78.2786 8.99058 78.2631 8.99058 78.2457C8.99058 78.2283 7.6234 78.2109 5.93661 78.2109C4.24982 78.2109 2.88086 78.2303 2.88086 78.2457Z" fill="#F7F8F9"/>
<path d="M12.7042 73.4164L12.445 77.371C12.445 77.371 16.0582 78.6964 16.076 79.4324L9.00391 79.4517L9.18146 73.2695L12.7042 73.4164Z" fill="#7539FF"/>
<g opacity="0.6">
<path d="M10.2671 76.957C10.1985 76.9774 10.1391 77.0245 10.1002 77.0893C10.0613 77.154 10.0455 77.2321 10.0558 77.3086C10.072 77.3838 10.1139 77.4493 10.1729 77.4921C10.2319 77.5348 10.3037 77.5514 10.3736 77.5385C10.4462 77.5184 10.5094 77.4698 10.551 77.402C10.5927 77.3343 10.6098 77.2521 10.5991 77.1715C10.5745 77.0955 10.5237 77.0329 10.4574 76.9969C10.3912 76.9608 10.3147 76.9542 10.244 76.9783" fill="white"/>
</g>
<g opacity="0.6">
<path d="M9.00293 79.4561L9.02069 78.832L15.8495 79.0735C15.9214 79.1145 15.9829 79.1743 16.0285 79.2474C16.074 79.3206 16.1022 79.4049 16.1105 79.4928L9.00293 79.4561Z" fill="white"/>
</g>
<path d="M12.5607 77.3404C12.5607 77.3771 12.3831 77.3887 12.2055 77.5027C12.028 77.6167 11.9374 77.7712 11.9055 77.7558C11.8735 77.7403 11.9339 77.5239 12.1452 77.3887C12.3565 77.2535 12.5749 77.3056 12.5607 77.3404Z" fill="#051321"/>
<path d="M13.2848 77.6998C13.2848 77.7365 13.141 77.7944 13.0185 77.949C12.896 78.1035 12.8569 78.2697 12.8232 78.2677C12.7895 78.2658 12.7735 78.0514 12.928 77.862C13.0824 77.6727 13.2848 77.665 13.2848 77.6998Z" fill="#051321"/>
<path d="M13.6795 78.6822C13.6475 78.6822 13.6067 78.5006 13.7008 78.2959C13.7949 78.0911 13.96 78.0176 13.9742 78.0505C13.9884 78.0833 13.8837 78.1877 13.8091 78.3557C13.7345 78.5238 13.7132 78.6803 13.6795 78.6822Z" fill="#051321"/>
<path d="M12.5286 76.4302C12.5126 76.4631 12.3511 76.4051 12.1593 76.4128C11.9675 76.4205 11.8042 76.4804 11.7935 76.4476C11.7829 76.4148 11.9267 76.2872 12.1575 76.2815C12.3883 76.2757 12.5464 76.3974 12.5286 76.4302Z" fill="#051321"/>
<g opacity="0.3">
<path d="M12.519 76.259L12.4711 76.9873L9.07617 76.825L9.09393 76.1875L12.519 76.259Z" fill="#262626"/>
</g>
<path d="M12.5749 75.626C12.4574 75.6557 12.3347 75.6503 12.2197 75.6105C12.0932 75.5811 11.9703 75.535 11.854 75.4734C11.7847 75.4362 11.7177 75.3943 11.6533 75.3478C11.6151 75.3217 11.5804 75.2898 11.5504 75.2531C11.5316 75.2251 11.5215 75.1912 11.5215 75.1565C11.5215 75.1218 11.5316 75.088 11.5504 75.0599C11.5677 75.034 11.5908 75.0131 11.6175 74.9993C11.6441 74.9854 11.6736 74.9791 11.7031 74.9807C11.7483 74.9821 11.7932 74.9906 11.8362 75.0058C11.9111 75.0279 11.9837 75.0583 12.0528 75.0966C12.1706 75.1596 12.2785 75.2424 12.3724 75.342C12.5305 75.512 12.582 75.655 12.5695 75.6627C12.5571 75.6704 12.4772 75.5526 12.3156 75.4116C12.2213 75.3283 12.1175 75.2588 12.0067 75.2048C11.9417 75.1739 11.8747 75.1488 11.806 75.1295C11.7315 75.1044 11.6675 75.1024 11.6462 75.1295C11.6249 75.1565 11.6462 75.1488 11.6462 75.1739C11.6688 75.2001 11.6945 75.2228 11.7226 75.2415C11.7794 75.2867 11.8387 75.328 11.9001 75.3652C12.0079 75.4286 12.1208 75.481 12.2375 75.5217C12.3519 75.5484 12.4646 75.5833 12.5749 75.626Z" fill="#051321"/>
<path d="M12.5194 75.6839C12.4558 75.5718 12.4271 75.4403 12.4377 75.3091C12.4363 75.1659 12.4573 75.0235 12.4998 74.8879C12.5261 74.8083 12.5587 74.7314 12.5975 74.658C12.6174 74.6066 12.6494 74.5617 12.6902 74.5278C12.731 74.4939 12.7792 74.4722 12.8301 74.4648C12.8616 74.4669 12.8918 74.4788 12.9173 74.499C12.9428 74.5192 12.9624 74.5469 12.9739 74.5788C12.9904 74.624 13.0011 74.6715 13.0059 74.7199C13.0155 74.8068 13.0125 74.8948 12.997 74.9807C12.9724 75.1221 12.9163 75.2548 12.8336 75.3671C12.6898 75.5603 12.5442 75.5989 12.5407 75.5873C12.5371 75.5757 12.6525 75.5004 12.7644 75.313C12.8293 75.2044 12.8717 75.0818 12.8887 74.9536C12.8985 74.88 12.8985 74.8051 12.8887 74.7315C12.8887 74.6503 12.8549 74.5827 12.8265 74.5904C12.7981 74.5982 12.7289 74.6464 12.6987 74.7121C12.6614 74.777 12.6298 74.8455 12.6046 74.9169C12.5601 75.0406 12.5325 75.1708 12.5229 75.3033C12.5069 75.5371 12.5389 75.68 12.5194 75.6839Z" fill="#051321"/>
<path d="M20.0561 74.0782L19.456 77.6697C19.456 77.6697 22.6395 79.2771 22.5881 79.9513L16.125 79.1921L16.8352 73.5547L20.0561 74.0782Z" fill="#7539FF"/>
<g opacity="0.6">
<path d="M17.5031 77.0469C17.4382 77.0578 17.3793 77.0944 17.3377 77.1496C17.296 77.2049 17.2747 77.2749 17.2776 77.3463C17.2852 77.417 17.3174 77.4819 17.3676 77.5275C17.4178 77.5732 17.4822 77.5961 17.5475 77.5917C17.6158 77.5799 17.6778 77.541 17.7214 77.4825C17.765 77.424 17.7871 77.35 17.7837 77.2748C17.7691 77.202 17.7291 77.1381 17.6722 77.0967C17.6152 77.0552 17.5457 77.0395 17.4783 77.0527" fill="white"/>
</g>
<g opacity="0.6">
<path d="M16.125 79.193L16.1978 78.625L22.4247 79.591C22.4871 79.6359 22.5381 79.697 22.5732 79.7689C22.6082 79.8408 22.6262 79.9211 22.6253 80.0025L16.125 79.193Z" fill="white"/>
</g>
<path d="M19.5641 77.6417C19.5641 77.6765 19.399 77.6668 19.2303 77.7518C19.0616 77.8368 18.9587 77.9682 18.932 77.945C18.9054 77.9218 18.9782 77.7364 19.1842 77.6359C19.3901 77.5354 19.5748 77.6127 19.5641 77.6417Z" fill="#051321"/>
<path d="M20.209 78.0534C20.209 78.0882 20.067 78.123 19.9409 78.2466C19.8148 78.3703 19.7633 78.5229 19.7332 78.5152C19.703 78.5074 19.7083 78.3123 19.8681 78.1578C20.0279 78.0032 20.209 78.0206 20.209 78.0534Z" fill="#051321"/>
<path d="M20.4664 78.9956C20.4362 78.9956 20.4167 78.8198 20.5214 78.644C20.6262 78.4682 20.7842 78.418 20.7949 78.4508C20.8055 78.4837 20.699 78.5687 20.6173 78.7136C20.5356 78.8585 20.4983 78.9956 20.4664 78.9956Z" fill="#051321"/>
<path d="M19.618 76.8075C19.602 76.8365 19.4635 76.767 19.2842 76.7515C19.1049 76.7361 18.9575 76.7766 18.9451 76.7515C18.9326 76.7264 19.0818 76.6182 19.3002 76.6395C19.5186 76.6607 19.6375 76.7824 19.618 76.8075Z" fill="#051321"/>
<g opacity="0.3">
<path d="M19.7143 76.1061L19.5527 77.1011L16.4473 76.5679L16.5201 75.9883L19.7143 76.1061Z" fill="#262626"/>
</g>
<path d="M19.728 76.0817C19.6177 76.0954 19.5061 76.0767 19.4048 76.0276C19.291 75.9873 19.1825 75.9315 19.0817 75.8614C19.0195 75.8211 18.9602 75.7759 18.9041 75.7262C18.8708 75.6982 18.8415 75.665 18.8171 75.6276C18.7997 75.6002 18.7913 75.5672 18.7932 75.5339C18.7952 75.5006 18.8073 75.469 18.8278 75.4441C18.8468 75.4232 18.8699 75.4072 18.8955 75.3975C18.921 75.3878 18.9483 75.3846 18.9751 75.3881C19.0163 75.3937 19.0564 75.4061 19.0941 75.4248C19.2735 75.5018 19.4318 75.6275 19.554 75.7899C19.6325 75.8761 19.6856 75.9857 19.7067 76.1048C19.6907 76.1145 19.6321 75.9966 19.4954 75.8479C19.4167 75.7621 19.3284 75.6875 19.2326 75.6257C19.176 75.5897 19.1166 75.5593 19.055 75.5349C18.9893 75.504 18.9307 75.4943 18.9094 75.5253C18.8881 75.5562 18.9006 75.5407 18.9094 75.5658C18.9278 75.5926 18.9493 75.6166 18.9733 75.6373C19.0248 75.6856 19.0781 75.73 19.1296 75.7706C19.2227 75.8394 19.3214 75.8989 19.4243 75.9483C19.5286 75.9841 19.6301 76.0286 19.728 76.0817Z" fill="#051321"/>
<path d="M19.676 76.1231C19.6273 76.0132 19.613 75.8891 19.6351 75.7695C19.6475 75.639 19.6799 75.5116 19.731 75.3928C19.7617 75.3246 19.7986 75.2599 19.8411 75.1996C19.865 75.1564 19.8985 75.1205 19.9385 75.0952C19.9786 75.0698 20.0238 75.0559 20.0701 75.0547C20.0989 75.06 20.1256 75.0741 20.1473 75.0953C20.169 75.1165 20.1847 75.144 20.1926 75.1745C20.2035 75.2179 20.2089 75.2628 20.2086 75.3078C20.2101 75.3884 20.1993 75.4687 20.1767 75.5454C20.144 75.6729 20.083 75.7896 19.9991 75.8854C19.8482 76.0477 19.7115 76.067 19.7097 76.0554C19.7079 76.0438 19.8216 75.9878 19.9405 75.8294C20.0092 75.737 20.0588 75.6296 20.0861 75.5145C20.1015 75.4515 20.1087 75.3865 20.1074 75.3213C20.1074 75.244 20.0897 75.1803 20.063 75.1841C20.0364 75.188 19.9689 75.2266 19.9352 75.2807C19.895 75.3365 19.8593 75.3959 19.8287 75.4585C19.7779 75.5663 19.7415 75.6815 19.7203 75.8004C19.676 75.9859 19.6973 76.1192 19.676 76.1231Z" fill="#051321"/>
<path d="M20.1219 76.5639L22.6574 60.1289L17.4852 60.8804L16.2725 75.9476L20.1219 76.5639Z" fill="#051321"/>
<path d="M15.3157 43.0109L8.66442 42.7539L8.51172 76.3446L13.0483 76.4373L15.5501 50.2692L15.3157 43.0109Z" fill="#051321"/>
<path d="M18.5917 42.3242L22.6577 60.129L17.5654 61.6842L15.1507 52.7644L13.3271 44.2349L18.5917 42.3242Z" fill="#051321"/>
<path d="M15.9299 47.8555C15.9346 47.8914 15.9346 47.9278 15.9299 47.9637C15.921 48.0467 15.9104 48.1569 15.8962 48.2728C15.8624 48.5548 15.8163 48.9393 15.7595 49.4088C15.6405 50.3747 15.4789 51.6962 15.2996 53.1509C15.1203 54.6057 14.9764 55.9406 14.8841 56.9008C14.8362 57.3819 14.8024 57.7702 14.7811 58.0387C14.7722 58.1643 14.7634 58.2667 14.7563 58.3498C14.7552 58.3864 14.7498 58.4228 14.7403 58.458C14.7376 58.4213 14.7376 58.3845 14.7403 58.3478C14.7403 58.2667 14.7403 58.1547 14.7403 58.0368C14.7509 57.7663 14.774 57.3761 14.8131 56.8931C14.8894 55.9271 15.0279 54.6018 15.2037 53.1393C15.3795 51.6769 15.5588 50.3535 15.6902 49.3991C15.7577 48.9316 15.8145 48.549 15.8553 48.267C15.8766 48.1433 15.8926 48.0429 15.9068 47.9617C15.9107 47.9254 15.9184 47.8898 15.9299 47.8555Z" fill="#5D6772"/>
<path d="M9.39604 43.5547C9.4209 43.5547 9.5221 50.8961 9.62154 59.9376C9.72097 68.979 9.78134 76.3243 9.7547 76.3243C9.72807 76.3243 9.62864 68.9829 9.52921 59.9395C9.42977 50.8961 9.37828 43.5547 9.39604 43.5547Z" fill="white"/>
<path d="M10.318 43.7461C10.3429 43.7461 10.3731 50.9986 10.3855 59.9435C10.3979 68.8884 10.3855 76.1428 10.3589 76.1428C10.3322 76.1428 10.3038 68.8923 10.2932 59.9435C10.2825 50.9947 10.2932 43.7461 10.318 43.7461Z" fill="white"/>
<path d="M15.822 44.2801C15.8874 44.2447 15.9587 44.2243 16.0315 44.2202C16.2297 44.195 16.4306 44.2215 16.6175 44.2975C16.7484 44.3476 16.869 44.425 16.9726 44.5254C17.0041 44.5585 17.0273 44.5997 17.0401 44.6452C17.0463 44.6713 17.0475 44.6985 17.0436 44.7251C17.0396 44.7518 17.0305 44.7772 17.017 44.7998C16.9887 44.839 16.9529 44.8713 16.9122 44.8943C16.8714 44.9172 16.8267 44.9305 16.7808 44.9331C16.5951 44.951 16.4084 44.9125 16.2416 44.8217C16.0748 44.731 15.9345 44.5916 15.8362 44.4192L15.8256 44.3999H15.9055C15.8214 44.5823 15.7164 44.7523 15.593 44.906C15.5341 44.9816 15.4617 45.0434 15.3802 45.0875C15.2987 45.1317 15.2098 45.1574 15.1189 45.163C15.0281 45.1602 14.9419 45.1186 14.8792 45.0471C14.85 45.012 14.8287 44.9699 14.817 44.9243C14.8053 44.8787 14.8035 44.8308 14.8117 44.7843C14.8486 44.6319 14.9392 44.5013 15.0639 44.4211C15.2326 44.3038 15.4302 44.2451 15.6303 44.253C15.7025 44.2501 15.7743 44.266 15.8398 44.2994C15.8398 44.2994 15.7634 44.2878 15.6303 44.2994C15.4392 44.3061 15.2541 44.3732 15.0976 44.4926C14.9907 44.5645 14.9137 44.6788 14.8828 44.8114C14.8765 44.8457 14.8779 44.8812 14.8868 44.9148C14.8958 44.9484 14.9121 44.9792 14.9342 45.0046C14.982 45.0551 15.0452 45.0847 15.1118 45.0876C15.1904 45.08 15.2669 45.0554 15.3367 45.0152C15.4065 44.9751 15.4683 44.9202 15.5184 44.8539C15.6349 44.7077 15.7339 44.546 15.8131 44.3728L15.8522 44.2975L15.8948 44.3709V44.3883C15.9848 44.5446 16.1121 44.6713 16.2632 44.7551C16.4142 44.8388 16.5833 44.8762 16.7524 44.8635C16.7861 44.8618 16.8191 44.853 16.8495 44.8374C16.88 44.8218 16.9073 44.7998 16.93 44.7727C16.9437 44.7451 16.948 44.7131 16.9422 44.6823C16.9363 44.6516 16.9207 44.6241 16.898 44.6046C16.8018 44.5101 16.6904 44.4354 16.5695 44.3844C16.3917 44.3056 16.2002 44.27 16.0085 44.2801C15.8984 44.2666 15.8238 44.2878 15.822 44.2801Z" fill="#5D6772"/>
<path d="M11.7575 44.8712C11.6842 45.2308 11.5518 45.5731 11.3669 45.8817C11.2092 46.2074 10.9994 46.4998 10.7472 46.7452C10.7259 46.7259 11.01 46.3588 11.2799 45.8314C11.5498 45.304 11.7309 44.8616 11.7575 44.8712Z" fill="#5D6772"/>
<path d="M19.3401 45.5134C19.0362 45.3735 18.7569 45.1774 18.5145 44.9338C18.2531 44.7202 18.0278 44.4587 17.8486 44.1611C17.8682 44.1398 18.1629 44.4914 18.5748 44.8643C18.9868 45.2372 19.3543 45.4883 19.3401 45.5134Z" fill="#5D6772"/>
<path d="M11.7515 23.5176C11.4323 23.4075 11.0912 23.3962 10.7663 23.4849C10.4415 23.5736 10.1457 23.7588 9.91205 24.0199C9.77377 24.2142 9.61792 24.3928 9.44685 24.5532C9.02781 24.8719 8.43655 24.729 7.9749 24.9685C7.74482 25.1028 7.56123 25.315 7.45197 25.5729C7.34271 25.8309 7.31373 26.1206 7.36944 26.3982C7.43442 26.6734 7.56323 26.926 7.74353 27.1316C7.92383 27.3373 8.14961 27.4892 8.39927 27.5728C8.90478 27.7323 9.44684 27.6807 9.91915 27.4279C10.3873 27.1759 10.7974 26.8127 11.1194 26.3653C11.7089 25.5925 12.1084 24.5821 12.0072 23.5775" fill="#7539FF"/>
<path d="M11.6468 23.5664L11.0982 25.0868L7.8418 27.2931L9.42915 38.4984C9.42915 38.4984 8.09215 40.9307 8.11879 42.7235V42.7371C8.12095 42.8559 8.16059 42.9702 8.23107 43.061C8.30155 43.1517 8.39857 43.2134 8.50586 43.2355C9.51793 43.4577 12.8578 44.1261 15.1145 43.8885C17.7086 43.6258 18.7899 43.1679 18.7899 43.1679L19.145 41.5026L18.7065 40.0768L18.1063 28.7266C18.1063 28.7266 17.8737 26.7947 17.4742 26.2769L16.3255 25.311L15.704 24.1093L11.6468 23.5664Z" fill="#7539FF"/>
<path d="M16.5225 25.4805C17.8328 25.9519 19.1059 26.6049 19.1379 29.4081C19.1698 32.2114 19.3687 38.5481 19.3687 38.5481L17.0445 37.389L16.5225 27.1052V25.4805Z" fill="#7539FF"/>
<g opacity="0.3">
<path d="M8.44336 40.8511C9.04107 41.0187 9.65132 41.128 10.2669 41.1776C10.8604 41.2235 11.454 41.0898 11.9821 40.7912C12.3427 40.5427 12.6799 40.256 12.9888 39.9354C13.85 39.1259 14.8265 38.4787 15.7995 37.8354L17.3674 36.7979C17.5046 36.7193 17.6254 36.6108 17.7225 36.4791C17.7702 36.4125 17.7985 36.3318 17.8039 36.2475C17.8093 36.1632 17.7914 36.079 17.7527 36.0058C17.7077 35.9473 17.6488 35.9032 17.5825 35.8783C17.5161 35.8535 17.4448 35.8488 17.3762 35.8648C17.2392 35.8971 17.1091 35.9575 16.9927 36.0425L15.2811 37.1302C13.1841 38.4613 11.0197 39.8195 8.62269 40.2213L8.44336 40.8511Z" fill="#262626"/>
</g>
<path d="M10.6902 35.3597C10.703 35.3191 10.7272 35.284 10.7594 35.2592L11.0808 35.0081C11.107 34.9889 11.1281 34.9626 11.1418 34.9317C11.1555 34.9008 11.1614 34.8665 11.1589 34.8323L11.0719 33.1998V33.1843C11.0719 33.0027 11.1465 29.4209 10.7736 28.2482C10.4185 27.1122 9.50765 26.4921 7.8688 27.1335C7.72849 27.2795 7.59739 27.4357 7.4764 27.601C7.15997 28.1629 6.98315 28.8047 6.96326 29.4634L6.84608 33.3137C6.84608 33.3137 6.52115 36.8647 6.47498 37.3457C6.3578 38.5435 6.7573 40.4832 7.69302 40.63C8.11561 40.6938 10.8518 40.0755 11.3933 39.9133C11.5568 39.7909 11.6883 39.6245 11.775 39.4303L12.1177 35.7596C12.1216 35.7161 12.1173 35.6721 12.105 35.6305C12.0928 35.5889 12.0728 35.5504 12.0463 35.5175C12.0199 35.4845 11.9876 35.4578 11.9513 35.439C11.915 35.4202 11.8756 35.4096 11.8354 35.408L10.6902 35.3597Z" fill="#7539FF"/>
<path d="M11.1699 30.1758C11.1821 30.2478 11.188 30.3209 11.1877 30.3941C11.1877 30.5525 11.2001 30.7534 11.209 30.9911C11.2232 31.4953 11.2374 32.1927 11.248 32.9636C11.248 33.35 11.248 33.7132 11.2587 34.0493C11.286 34.352 11.2317 34.6568 11.1024 34.9264C11.0007 35.0977 10.864 35.2412 10.7029 35.3457C10.6491 35.3869 10.589 35.4177 10.5254 35.4365C10.5254 35.4365 10.5875 35.3978 10.6923 35.3167C10.8412 35.2059 10.9666 35.0616 11.0598 34.8936C11.1755 34.6318 11.221 34.3399 11.1912 34.0513C11.1912 33.7151 11.1788 33.348 11.1735 32.9655C11.1628 32.1927 11.1575 31.4972 11.1593 30.993C11.1593 30.7534 11.1593 30.5544 11.1593 30.3941C11.1546 30.3211 11.1582 30.2478 11.1699 30.1758Z" fill="#051321"/>
<path d="M9.33034 37.1015C9.32778 36.9955 9.34406 36.8899 9.37828 36.7905C9.4455 36.5463 9.55256 36.3173 9.69433 36.1143C9.8382 35.9088 10.0195 35.7377 10.227 35.612C10.3079 35.5519 10.4001 35.5123 10.4969 35.4961C10.2192 35.6709 9.97209 35.8979 9.76713 36.1665C9.58245 36.4547 9.43545 36.7694 9.33034 37.1015Z" fill="#051321"/>
<path d="M8.69336 36.2475C8.73904 36.1458 8.80304 36.0551 8.88157 35.9809C9.06074 35.7886 9.27317 35.6369 9.50657 35.5346C9.73952 35.4328 9.98888 35.3828 10.2399 35.3878C10.3439 35.3821 10.4479 35.3998 10.5453 35.4399C10.4444 35.4504 10.3429 35.4536 10.2417 35.4496C9.7541 35.4764 9.28892 35.6805 8.92063 36.0292C8.84932 36.1072 8.7734 36.1802 8.69336 36.2475Z" fill="#051321"/>
<g opacity="0.3">
<path d="M10.4859 35.3923C10.0923 35.2527 9.67206 35.228 9.26701 35.3206C8.86195 35.4131 8.48632 35.6197 8.17762 35.9197C8.0995 35.997 8.02138 36.1129 8.05156 36.2114C8.06514 36.2513 8.08922 36.286 8.1208 36.311C8.15238 36.3361 8.19006 36.3505 8.22912 36.3524C8.30586 36.3568 8.38248 36.3416 8.45284 36.308C8.79899 36.1412 9.13365 35.9475 9.45426 35.7284C9.77797 35.5055 10.1588 35.4012 10.5409 35.4309" fill="#262626"/>
</g>
<path d="M18.4648 34.4492C18.8626 36.329 19.413 38.1798 19.5817 40.1001C19.658 40.9637 19.6403 41.8949 19.1999 42.6117C19.033 42.8973 18.7963 43.1267 18.5163 43.2743" fill="#7539FF"/>
<path d="M18.1295 28.6523C18.1375 28.6818 18.1411 28.7125 18.1401 28.7431C18.1401 28.8146 18.149 28.9016 18.1543 29.004C18.1543 29.2474 18.1774 29.5719 18.1916 29.9699C18.2236 30.7813 18.268 31.9019 18.3479 33.1344C18.4278 34.367 18.5432 35.4837 18.6426 36.2854C18.6923 36.6873 18.7349 37.0138 18.7669 37.2379L18.8006 37.4968C18.8053 37.5268 18.8053 37.5575 18.8006 37.5876C18.7889 37.5594 18.7811 37.5294 18.7775 37.4987C18.7633 37.4292 18.7474 37.3461 18.7261 37.2437C18.6834 37.0215 18.6319 36.6969 18.5734 36.297C18.4562 35.4933 18.3337 34.3786 18.2502 33.1422C18.1667 31.9057 18.1366 30.7833 18.1224 29.9719C18.1224 29.5662 18.1117 29.2377 18.1135 29.0059C18.1135 28.9016 18.1135 28.8127 18.1135 28.7431C18.1145 28.7122 18.1199 28.6815 18.1295 28.6523Z" fill="#051321"/>
<path d="M10.8336 24.7188C10.8336 24.7188 10.7928 24.769 10.7093 24.8463C10.6259 24.9235 10.5016 25.0395 10.3542 25.1592C10.0417 25.4162 9.59783 25.7523 9.11133 26.1252C8.62482 26.4981 8.19513 26.8535 7.89684 27.126C7.59854 27.3984 7.42276 27.578 7.41211 27.5664C7.44198 27.5136 7.47843 27.4655 7.52042 27.4235C7.59499 27.3365 7.70863 27.2148 7.85423 27.0719C8.23639 26.703 8.63838 26.3591 9.05806 26.0421C9.54634 25.6693 9.99378 25.3428 10.3152 25.1013C10.4808 24.9626 10.6539 24.8349 10.8336 24.7188Z" fill="#051321"/>
<path d="M12.0797 35.6659L12.8787 35.3008V39.0449L11.4902 39.6129L12.0797 35.6659Z" fill="#7539FF"/>
<path d="M10.1133 35.6804C10.1848 35.6559 10.2587 35.6404 10.3335 35.634L10.9336 35.549L11.3509 35.4949L11.5817 35.4659C11.6662 35.4518 11.7519 35.4466 11.8374 35.4505C11.8872 35.4533 11.9357 35.4681 11.9797 35.4938C12.0236 35.5195 12.0617 35.5555 12.0913 35.5992C12.1423 35.6936 12.1647 35.8031 12.1552 35.9122C12.1374 36.1228 12.0966 36.3198 12.0682 36.5304C11.9439 37.3689 11.848 38.132 11.761 38.6826C11.7184 38.9569 11.6793 39.1791 11.6509 39.3317C11.6417 39.4125 11.6232 39.4917 11.5959 39.5674C11.5955 39.4864 11.6021 39.4056 11.6154 39.3259C11.6367 39.1521 11.6633 38.9395 11.6971 38.6729C11.7663 38.1204 11.8516 37.3553 11.9776 36.515C12.0043 36.3063 12.0486 36.0957 12.0646 35.9083C12.0742 35.8202 12.0581 35.7309 12.0185 35.6533C11.9961 35.6209 11.9676 35.5943 11.9347 35.5753C11.9019 35.5562 11.8656 35.5453 11.8285 35.5432C11.6711 35.5439 11.514 35.5555 11.358 35.578L10.9407 35.6205L10.337 35.6746C10.2628 35.6841 10.1879 35.6861 10.1133 35.6804Z" fill="#051321"/>
<path d="M12.8299 36.1758C12.7075 36.2967 12.5654 36.3917 12.4109 36.4559C12.2694 36.5511 12.1128 36.6166 11.9492 36.6491C12.0725 36.5284 12.2151 36.4334 12.37 36.369C12.511 36.2742 12.667 36.2087 12.8299 36.1758Z" fill="#051321"/>
<path d="M12.8789 37.7852C12.7053 37.8988 12.5215 37.9926 12.3303 38.0653C12.1495 38.172 11.9508 38.2377 11.7461 38.2585C11.9197 38.1449 12.1035 38.051 12.2947 37.9784C12.4759 37.8727 12.6744 37.8071 12.8789 37.7852Z" fill="#051321"/>
<path d="M11.6543 39.5446C11.7584 39.4803 11.8678 39.4266 11.981 39.3842C12.1923 39.2896 12.4977 39.1582 12.8688 38.9978L12.8439 39.0384C12.8439 38.5612 12.8439 38.0048 12.8439 37.4059C12.8439 36.5848 12.8439 35.8391 12.8564 35.2943L12.9025 35.3272L12.3113 35.5802C12.2402 35.6136 12.1665 35.6401 12.0911 35.6594C12.1552 35.6114 12.2244 35.5719 12.2971 35.5416L12.8777 35.2615L12.9221 35.2383V35.2943C12.9221 35.8391 12.9345 36.5848 12.9345 37.4059C12.9345 38.0048 12.9345 38.5651 12.9345 39.0384V39.0674L12.9096 39.079C12.5385 39.2239 12.2314 39.3437 12.0218 39.4248C11.9026 39.4759 11.7797 39.516 11.6543 39.5446Z" fill="#051321"/>
<path d="M15.0257 25.7779C14.9877 25.8074 14.945 25.8291 14.8997 25.8417C14.7793 25.8877 14.654 25.9169 14.5268 25.9286C14.106 25.9627 13.6842 25.8789 13.3017 25.6852C12.9243 25.4913 12.5716 25.2452 12.2523 24.953C12.1129 24.8428 11.9833 24.7186 11.8652 24.582C12.0141 24.6751 12.1555 24.7818 12.2878 24.9008C12.6137 25.1709 12.9641 25.4039 13.3336 25.5963C13.7042 25.7832 14.1096 25.8738 14.5179 25.861C14.6884 25.8431 14.858 25.8154 15.0257 25.7779Z" fill="#051321"/>
<path d="M15.4152 25.3557C15.433 25.375 15.4028 25.4446 15.3477 25.5141C15.2927 25.5837 15.2306 25.6242 15.211 25.6049C15.1915 25.5856 15.2217 25.5161 15.2785 25.4465C15.3353 25.377 15.3886 25.3383 15.4152 25.3557Z" fill="#051321"/>
<path d="M14.7346 39.0079C14.7346 39.0079 14.7346 39.062 14.7133 39.1566C14.6839 39.2889 14.6441 39.4182 14.5943 39.543C14.4301 39.9606 14.191 40.3383 13.891 40.6541C13.591 40.9699 13.2361 41.2174 12.8471 41.3822C12.7318 41.4311 12.613 41.4698 12.492 41.4981C12.4032 41.5155 12.3553 41.5233 12.3535 41.5155C12.3518 41.5078 12.5417 41.4518 12.8276 41.3223C13.5748 40.9615 14.1779 40.3204 14.5268 39.516C14.6689 39.2088 14.7186 39.004 14.7346 39.0079Z" fill="#051321"/>
<path d="M17.9586 38.2617C17.8376 38.3217 17.7107 38.3664 17.5804 38.395C17.3425 38.4626 17.0122 38.5457 16.6447 38.6211C16.2772 38.6964 15.9345 38.7505 15.6966 38.7814C15.5655 38.8081 15.4318 38.8166 15.2988 38.8065C15.4245 38.7602 15.5542 38.7279 15.6859 38.7099L16.627 38.5167L17.5662 38.3235C17.6943 38.2862 17.826 38.2655 17.9586 38.2617Z" fill="#051321"/>
<path d="M21.678 30.9393L20.602 31.4822L20.0977 32.0386C20.0977 32.0386 21.2714 31.8879 21.3033 32.1024C21.3353 32.3168 21.3389 32.5602 21.2607 32.6279C21.1872 32.7087 21.1228 32.7989 21.069 32.8964C21.069 32.8964 21.3513 33.2384 21.2465 33.4142C21.1765 33.5252 21.1171 33.6436 21.069 33.7677L20.9021 33.7522C20.9021 33.7522 20.9198 34.4168 20.792 34.5076C20.7138 34.58 20.6171 34.6245 20.515 34.6351C20.3384 34.6632 20.1606 34.6813 19.9823 34.6892L19.7888 34.6699C19.7888 34.6699 18.782 36.0493 18.4216 36.0223C18.0612 35.9952 17.3971 35.9759 17.3971 35.9759C15.8083 37.6471 13.8699 38.873 11.749 39.5481L12.0065 36.3526L12.042 35.7731L17.5889 33.6016L19.5615 31.2079L20.4848 30.7152L21.8289 30.3945C21.8578 30.4912 21.8589 30.5953 21.8319 30.6927C21.8049 30.7901 21.7512 30.8761 21.678 30.9393Z" fill="#F7AC94"/>
<path d="M17.3945 35.9698H17.5969L18.1776 35.9852H18.3764C18.4458 35.993 18.5156 35.9761 18.5753 35.9369C18.7153 35.8454 18.8447 35.7357 18.9606 35.6104C19.247 35.3076 19.5151 34.985 19.7631 34.6445L19.7738 34.6309H19.7898L19.9815 34.6483C20.0987 34.6483 20.2195 34.6329 20.3366 34.6174C20.3962 34.6119 20.4555 34.6029 20.5142 34.5904C20.5736 34.5822 20.631 34.5611 20.6829 34.5285L20.7646 34.4687C20.7829 34.4488 20.7964 34.4242 20.8036 34.3972C20.8234 34.3307 20.8365 34.262 20.8427 34.1924C20.8555 34.0441 20.8602 33.895 20.8569 33.7461V33.6997H20.8995L21.0664 33.7152L21.0291 33.7403C21.0561 33.6654 21.0876 33.5925 21.1232 33.522C21.1534 33.4505 21.2173 33.3752 21.2209 33.3288C21.2196 33.2532 21.1987 33.1795 21.1605 33.1163C21.1246 33.0469 21.0818 32.9821 21.0327 32.9231L21.0131 32.898L21.0273 32.8709C21.0715 32.7942 21.1201 32.7206 21.1729 32.6507C21.1889 32.6333 21.2031 32.6159 21.2209 32.5985C21.2332 32.5885 21.243 32.5752 21.2493 32.5599C21.2628 32.5229 21.2706 32.4837 21.2724 32.444C21.2803 32.356 21.2803 32.2673 21.2724 32.1793L21.2635 32.1117C21.2635 32.1001 21.2635 32.0982 21.2457 32.0866C21.2123 32.068 21.1763 32.0556 21.1392 32.0499C20.793 32.019 20.4447 32.0293 20.1005 32.0808L19.9886 32.0924L20.0668 32.0054L20.0863 31.9861L20.5728 31.449L21.6488 30.9081C21.7172 30.8493 21.7673 30.7689 21.7921 30.6779C21.8169 30.587 21.8152 30.4899 21.7873 30.4L21.8317 30.427L20.4858 30.7458L19.5607 31.2346L19.5696 31.2249L18.1207 32.9637L17.7195 33.437L17.6129 33.5587L17.5739 33.5993C17.5739 33.5993 17.5827 33.5819 17.6058 33.5529L17.7053 33.4235L18.0941 32.9386C18.4368 32.5155 18.9251 31.9146 19.5234 31.1824L20.445 30.6878H20.4538L21.7962 30.3633H21.8317L21.8405 30.3981C21.8757 30.5043 21.8792 30.62 21.8506 30.7285C21.8219 30.8371 21.7624 30.9331 21.6807 31.0028L20.6065 31.5437H20.6172L20.1307 32.0808L20.1129 32.1001L20.0792 32.0267C20.2567 32.0035 20.4343 31.988 20.6119 31.9784C20.7895 31.9666 20.9678 31.9724 21.1445 31.9958C21.192 32.0031 21.2378 32.0202 21.2795 32.046C21.2936 32.055 21.3057 32.0673 21.3149 32.082C21.3241 32.0967 21.3302 32.1134 21.3327 32.131L21.3416 32.2006C21.3505 32.295 21.3505 32.3901 21.3416 32.4846C21.3382 32.5344 21.3274 32.5833 21.3097 32.6295C21.2985 32.6556 21.2821 32.6787 21.2617 32.6971C21.2478 32.7103 21.2348 32.7245 21.2227 32.7396C21.1765 32.7986 21.1343 32.8612 21.0966 32.927V32.8767C21.1495 32.9428 21.1959 33.0147 21.2351 33.0912C21.2796 33.1695 21.303 33.2599 21.3026 33.352C21.2952 33.399 21.2776 33.4434 21.2511 33.4814C21.2315 33.5143 21.2138 33.5471 21.196 33.5819C21.162 33.6497 21.1312 33.7193 21.1037 33.7905L21.093 33.8195H21.0664L20.8888 33.8021L20.9297 33.7616C20.9327 33.9138 20.9268 34.0661 20.9119 34.2175C20.9048 34.2936 20.8905 34.3687 20.8693 34.4416C20.8567 34.4839 20.8333 34.5214 20.8018 34.5498L20.7202 34.6097C20.6603 34.648 20.5938 34.6724 20.5249 34.6812C20.462 34.6939 20.3986 34.7029 20.3349 34.7082C20.2106 34.7217 20.0881 34.7295 19.9709 34.7353L19.7791 34.7159L19.8058 34.7044C19.5538 35.046 19.2809 35.3687 18.989 35.6703C18.8692 35.7978 18.7349 35.9082 18.5895 35.9988C18.5543 36.0176 18.5174 36.0324 18.4794 36.0432C18.4423 36.0489 18.4046 36.0489 18.3675 36.0432L18.1687 36.0316L17.5916 35.9968L17.4407 35.9852L17.3945 35.9698Z" fill="#F7AC94"/>
<path d="M21.0752 32.8701C21.0752 32.8798 21.0078 32.8334 20.8977 32.7928C20.7546 32.7421 20.6031 32.7263 20.4538 32.7464C20.3032 32.7692 20.1547 32.8061 20.0099 32.8566C19.8945 32.8952 19.8323 32.9145 19.8181 32.9029C19.8039 32.8913 19.8785 32.8508 19.9957 32.7986C20.141 32.7289 20.2946 32.6821 20.452 32.6595C20.6111 32.6383 20.7724 32.6643 20.919 32.7349C21.0326 32.7947 21.0823 32.8624 21.0752 32.8701Z" fill="#F7AC94"/>
<path d="M20.907 33.7863C20.9046 33.7564 20.8963 33.7273 20.8824 33.7013C20.8686 33.6753 20.8497 33.6528 20.8271 33.6357C20.6945 33.5846 20.5524 33.57 20.4134 33.5932C20.2099 33.6277 20.0109 33.688 19.8203 33.7728C19.9777 33.6081 20.1862 33.5137 20.4045 33.5081C20.4882 33.4973 20.5729 33.4973 20.6566 33.5081C20.7291 33.5128 20.7991 33.5388 20.859 33.5835C20.8796 33.6007 20.8964 33.6226 20.9084 33.6476C20.9204 33.6726 20.9271 33.7002 20.9283 33.7284C20.9194 33.7709 20.9194 33.7883 20.907 33.7863Z" fill="#F7AC94"/>
<path d="M20.3659 34.2637C20.3659 34.2752 20.3179 34.2984 20.2327 34.3081C20.1279 34.312 20.0238 34.3275 19.922 34.3545C19.8769 34.3665 19.8366 34.3937 19.8066 34.4323C19.7766 34.4708 19.7586 34.5186 19.7551 34.5689C19.7551 34.65 19.7977 34.6868 19.7906 34.6983C19.7835 34.7099 19.7178 34.6829 19.6982 34.5766C19.6889 34.5144 19.7022 34.4506 19.7355 34.3989C19.7754 34.339 19.8311 34.2938 19.8953 34.2695C20.0048 34.2382 20.1187 34.2304 20.2309 34.2463C20.3126 34.2521 20.3623 34.2521 20.3659 34.2637Z" fill="#F7AC94"/>
<path d="M11.5569 17.667L11.7469 23.7429L13.7249 25.1552C13.9066 25.2847 14.1152 25.3625 14.3317 25.3815C14.5482 25.4005 14.7656 25.3601 14.964 25.264C15.1624 25.1679 15.3355 25.0191 15.4674 24.8313C15.5992 24.6435 15.6857 24.4228 15.7188 24.1892V23.4628C15.7188 23.4628 17.3062 23.2851 17.4074 21.5734C17.4571 20.7407 17.4305 19.0135 17.3896 17.4583C17.3698 16.6336 17.0557 15.8497 16.5138 15.2727C15.9719 14.6957 15.2448 14.371 14.4866 14.3672C14.0926 14.3653 13.7023 14.4502 13.3393 14.6168C12.9763 14.7834 12.6481 15.0283 12.3743 15.3366C12.1006 15.6449 11.887 16.0103 11.7466 16.4108C11.6061 16.8113 11.5416 17.2386 11.5569 17.667Z" fill="#F7AC94"/>
<path d="M15.7235 23.4625C14.9958 23.4357 14.2919 23.1741 13.7012 22.7109C13.7012 22.7109 14.1273 23.9706 15.7058 23.9068L15.7235 23.4625Z" fill="#F7AC94"/>
<path d="M17.0125 18.6831C17.0098 18.7468 16.9843 18.8068 16.9415 18.8505C16.8988 18.8941 16.8421 18.9179 16.7835 18.9168C16.7547 18.9176 16.7261 18.9121 16.6993 18.9007C16.6726 18.8894 16.6481 18.8723 16.6275 18.8505C16.6068 18.8288 16.5903 18.8028 16.579 18.774C16.5677 18.7453 16.5618 18.7143 16.5615 18.6831C16.5643 18.6193 16.5897 18.5593 16.6325 18.5157C16.6753 18.472 16.732 18.4482 16.7906 18.4493C16.8193 18.4485 16.8479 18.454 16.8747 18.4654C16.9015 18.4767 16.9259 18.4938 16.9466 18.5156C16.9672 18.5373 16.9837 18.5633 16.995 18.5921C17.0063 18.6209 17.0123 18.6518 17.0125 18.6831Z" fill="#051321"/>
<path d="M17.014 18.3337C16.9856 18.3627 16.8205 18.2159 16.579 18.2023C16.3375 18.1888 16.1529 18.3125 16.128 18.2777C16.1031 18.2429 16.1475 18.2062 16.2274 18.1502C16.334 18.0791 16.4577 18.0448 16.5825 18.0516C16.7087 18.0565 16.8299 18.1067 16.927 18.1946C17.014 18.2603 17.0264 18.3202 17.014 18.3337Z" fill="#051321"/>
<path d="M14.6367 18.6636C14.6344 18.7273 14.6094 18.7875 14.567 18.8315C14.5246 18.8755 14.4681 18.8998 14.4094 18.8993C14.3806 18.9001 14.3518 18.8945 14.3249 18.883C14.298 18.8715 14.2735 18.8543 14.2528 18.8323C14.2321 18.8104 14.2157 18.7841 14.2045 18.7551C14.1933 18.7262 14.1875 18.695 14.1875 18.6636C14.1903 18.5999 14.2157 18.5398 14.2585 18.4962C14.3012 18.4525 14.3579 18.4287 14.4165 18.4298C14.4453 18.4288 14.4739 18.4341 14.5007 18.4454C14.5275 18.4567 14.5519 18.4738 14.5725 18.4956C14.593 18.5174 14.6093 18.5436 14.6204 18.5724C14.6314 18.6013 14.637 18.6323 14.6367 18.6636Z" fill="#051321"/>
<path d="M14.6312 18.2439C14.601 18.2748 14.4377 18.1279 14.1962 18.1144C13.9547 18.1009 13.77 18.2226 13.7452 18.1898C13.7203 18.1569 13.7647 18.1183 13.8446 18.0603C13.9511 17.9893 14.0749 17.9549 14.1997 17.9618C14.3256 17.9684 14.4462 18.0185 14.5442 18.1048C14.6223 18.1704 14.6454 18.2303 14.6312 18.2439Z" fill="#051321"/>
<path d="M15.4143 20.2513C15.5436 20.2146 15.6766 20.1958 15.8102 20.1952C15.8724 20.1952 15.9328 20.1817 15.9452 20.1373C15.9534 20.0677 15.9422 19.9971 15.9132 19.9344L15.7552 19.4128C15.5368 18.669 15.3806 18.0604 15.4001 18.0508C15.5808 18.4803 15.7298 18.9247 15.8458 19.38L15.9967 19.9035C16.0311 19.9873 16.038 20.0814 16.0162 20.1701C16.0059 20.1933 15.991 20.2136 15.9726 20.2296C15.9542 20.2457 15.9327 20.257 15.9097 20.2629C15.8743 20.2682 15.8385 20.2682 15.8031 20.2629C15.6735 20.2751 15.5431 20.2712 15.4143 20.2513Z" fill="#051321"/>
<path d="M14.7423 17.215C14.7156 17.2845 14.4759 17.2362 14.1901 17.2575C13.9042 17.2787 13.6698 17.3502 13.6361 17.2845C13.6201 17.2517 13.6627 17.1879 13.7586 17.1223C13.8863 17.0435 14.0292 16.9985 14.1759 16.9909C14.3217 16.9793 14.468 17.0065 14.602 17.0701C14.705 17.1223 14.7547 17.1802 14.7423 17.215Z" fill="#051321"/>
<path d="M16.9594 17.5654C16.9132 17.6234 16.7499 17.5519 16.5492 17.5384C16.3486 17.5249 16.1764 17.5577 16.1409 17.492C16.1249 17.4611 16.1551 17.4031 16.2314 17.351C16.3343 17.2889 16.4516 17.2613 16.5688 17.2716C16.686 17.282 16.7978 17.3297 16.8902 17.4089C16.9576 17.4746 16.9789 17.5384 16.9594 17.5654Z" fill="#051321"/>
<path d="M12.0907 19.1102C12.0641 19.0967 11.0254 18.7006 11.0023 19.8733C10.9792 21.046 12.0677 20.8393 12.0677 20.7949C12.0677 20.7504 12.0907 19.1102 12.0907 19.1102Z" fill="#F7AC94"/>
<path d="M11.7507 20.3441C11.7507 20.3441 11.7312 20.3576 11.6992 20.3731C11.654 20.3918 11.6041 20.3918 11.5589 20.3731C11.4899 20.3235 11.4344 20.2547 11.3981 20.1738C11.3619 20.0929 11.3463 20.003 11.353 19.9133C11.3518 19.8127 11.3713 19.713 11.4098 19.6215C11.4208 19.5851 11.4399 19.5522 11.4652 19.5256C11.4906 19.499 11.5215 19.4796 11.5554 19.4689C11.5768 19.4632 11.5994 19.4659 11.6192 19.4765C11.639 19.4871 11.6548 19.5049 11.6637 19.5269C11.6779 19.5597 11.6637 19.5829 11.6761 19.5848C11.6886 19.5868 11.6992 19.5655 11.6921 19.5172C11.6868 19.4883 11.6724 19.4623 11.6513 19.4438C11.6222 19.4186 11.5852 19.4068 11.5483 19.411C11.5037 19.4196 11.4619 19.4404 11.4268 19.4715C11.3917 19.5026 11.3645 19.543 11.3476 19.5887C11.3003 19.6898 11.276 19.8018 11.2766 19.9152C11.2698 20.0193 11.2913 20.1234 11.3383 20.2144C11.3853 20.3054 11.4559 20.3794 11.5412 20.4272C11.5707 20.4381 11.6021 20.4413 11.6329 20.4367C11.6638 20.432 11.6932 20.4194 11.7187 20.4001C11.7472 20.3711 11.7543 20.346 11.7507 20.3441Z" fill="#F7AC94"/>
<path d="M15.6134 20.8974C15.5622 20.8482 15.499 20.8161 15.4314 20.8051C15.3638 20.794 15.2947 20.8044 15.2324 20.835C15.1702 20.8656 15.1173 20.9151 15.0802 20.9776C15.0432 21.04 15.0234 21.1128 15.0234 21.1872C15.0234 21.2615 15.0432 21.3343 15.0802 21.3968C15.1173 21.4592 15.1702 21.5087 15.2324 21.5393C15.2947 21.5699 15.3638 21.5803 15.4314 21.5693C15.499 21.5582 15.5622 21.5261 15.6134 21.477" fill="#F7AC94"/>
<path d="M15.5095 21.5138C15.5095 21.5138 15.4492 21.591 15.3107 21.5775C15.2297 21.5672 15.1545 21.527 15.0976 21.4635C15.0636 21.4223 15.0381 21.3736 15.023 21.3207C15.0078 21.2678 15.0033 21.2119 15.0097 21.157C15.0161 21.102 15.0332 21.0492 15.0601 21.0021C15.0869 20.9549 15.1227 20.9147 15.1651 20.8839C15.2348 20.838 15.3169 20.8196 15.3977 20.8318C15.5344 20.855 15.5752 20.9438 15.5752 20.9477C15.5752 20.9516 15.506 20.9052 15.3977 20.9033C15.3343 20.9014 15.2721 20.9218 15.2201 20.9612C15.19 20.9859 15.1647 21.0168 15.1457 21.0523C15.1267 21.0878 15.1145 21.127 15.1097 21.1677C15.1049 21.2084 15.1076 21.2497 15.1178 21.2893C15.1279 21.3288 15.1452 21.3657 15.1686 21.3978C15.2107 21.4501 15.2665 21.4872 15.3284 21.5041C15.4314 21.5311 15.5042 21.4983 15.5095 21.5138Z" fill="#051321"/>
<path d="M16.5776 15.5717C16.7552 15.4654 16.2225 14.8414 15.7875 14.625C15.1288 14.3005 14.122 14.0995 13.5148 14.2869C12.7832 14.511 12.0943 14.8221 11.7268 15.5466C11.3592 16.271 11.2989 17.2274 11.3202 18.0581C11.3202 18.3112 11.3912 18.997 11.5119 19.0666C11.7143 19.1806 11.9239 19.1883 11.9114 19.5534C11.9073 19.6191 11.9152 19.6851 11.9347 19.7474C11.9542 19.8098 11.9849 19.8673 12.0251 19.9166C12.2257 20.1485 12.4707 19.9301 12.5844 19.7118C12.8241 19.2462 12.8525 18.6879 12.8738 18.1528C12.907 17.7732 12.8836 17.3902 12.8045 17.0187C12.7513 16.8255 12.6643 16.6323 12.627 16.4391C12.5998 16.3397 12.5926 16.235 12.6061 16.1323C12.6196 16.0296 12.6534 15.9313 12.7051 15.8441C12.7314 15.8079 12.7611 15.7748 12.7939 15.7456C12.9469 15.6006 13.1327 15.5025 13.3321 15.4614C13.5315 15.4203 13.7373 15.4377 13.9285 15.5118C14.5446 15.7494 15.5975 16.1049 15.8816 15.8769C16.0785 15.736 16.246 15.5517 16.3734 15.336L16.5776 15.5717Z" fill="#5D6772"/>
<path d="M16.2757 14.6836C15.5228 14.3127 14.3722 14.0831 13.6782 14.2972C12.8422 14.5534 12.0548 14.9089 11.6348 15.7369L12.8523 15.9577C13.0272 15.7919 13.2395 15.6799 13.4674 15.6329C13.6953 15.5859 13.9305 15.6058 14.149 15.6905C14.8532 15.9621 16.0565 16.3684 16.3812 16.1078C16.6062 15.9467 16.7977 15.7361 16.9433 15.4896L17.1929 15.7744C17.3796 15.6441 16.7729 14.9309 16.2757 14.6836Z" fill="#051321"/>
<path d="M12.6357 16.04C12.4586 16.0675 12.2786 16.063 12.103 16.0264C11.9209 16.0222 11.7407 15.9843 11.5703 15.9144C11.7471 15.8845 11.9274 15.8884 12.103 15.926C12.2854 15.9291 12.4658 15.9677 12.6357 16.04Z" fill="#051321"/>
<path d="M15.0046 34.3706C14.9689 34.2114 14.961 34.0462 14.9815 33.8838C15.0344 33.4409 15.1789 33.0169 15.4041 32.6435C15.6633 32.1566 16.0806 31.6582 16.4019 31.0148C16.4833 30.8511 16.551 30.6798 16.6043 30.5029C16.6298 30.4114 16.6476 30.3177 16.6576 30.2227C16.6639 30.1849 16.6576 30.1459 16.6399 30.1126C16.6257 30.0894 16.6008 30.0817 16.5582 30.0875C16.1891 30.1633 15.8359 30.312 15.5159 30.5261C15.1786 30.7366 14.8625 30.9723 14.534 31.1636C14.4524 31.2138 14.3707 31.2583 14.2855 31.3008C14.195 31.3536 14.0891 31.3654 13.9907 31.3336C13.9426 31.31 13.9022 31.2712 13.8746 31.2223C13.8471 31.1734 13.8337 31.1166 13.8362 31.0593C13.8388 30.9589 13.8587 30.86 13.8948 30.7675C14.1578 30.1771 14.4488 29.6019 14.7666 29.0443C15.0365 28.569 15.2727 28.1961 15.4413 27.943C15.5248 27.8175 15.5923 27.7189 15.6384 27.6552C15.6602 27.6203 15.6852 27.588 15.713 27.5586C15.6974 27.597 15.6777 27.6333 15.6544 27.6668L15.4769 27.9662C15.3188 28.2251 15.0916 28.6018 14.8288 29.081C14.566 29.5601 14.2677 30.1435 13.9801 30.8023C13.949 30.8832 13.9322 30.9697 13.9303 31.0573C13.9269 31.097 13.9347 31.1368 13.9528 31.1714C13.971 31.2059 13.9984 31.2336 14.0316 31.2505C14.1683 31.3027 14.3405 31.1675 14.4985 31.0844C14.8199 30.8912 15.136 30.6574 15.4786 30.4449C15.8088 30.224 16.1735 30.0714 16.5546 29.9948C16.5853 29.9888 16.6169 29.9918 16.6462 30.0033C16.6755 30.0148 16.7015 30.0345 16.7215 30.0605C16.7507 30.1132 16.7626 30.1752 16.7553 30.2363C16.7403 30.336 16.7178 30.4343 16.6878 30.5299C16.6326 30.7125 16.5619 30.8891 16.4765 31.0573C16.1427 31.7123 15.7219 32.203 15.4591 32.6782C15.2343 33.0418 15.0836 33.4535 15.017 33.8857C15.0006 34.0467 14.9965 34.2089 15.0046 34.3706Z" fill="white"/>
<path d="M37.2993 24.7105L35.9232 22.1835C36.5224 21.0933 36.7322 19.8014 36.5126 18.5538C36.293 17.3062 35.6594 16.19 34.7325 15.4178C33.8055 14.6456 32.6499 14.2712 31.4857 14.366C30.3216 14.4608 29.23 15.0181 28.4191 15.9319C27.6081 16.8456 27.1342 18.052 27.0878 19.3212C27.0413 20.5905 27.4254 21.834 28.167 22.8151C28.9087 23.7961 29.956 24.4461 31.1095 24.6414C32.2631 24.8367 33.4424 24.5635 34.4229 23.874V23.8913L37.2993 24.7105Z" fill="white"/>
<path d="M37.2988 24.7118L34.4295 23.939H34.4508C33.7095 24.4504 32.8532 24.7298 31.9756 24.7466C31.4558 24.7493 30.9386 24.6665 30.4415 24.5012C29.8995 24.3144 29.393 24.0225 28.9465 23.6396C27.944 22.7868 27.2933 21.5362 27.1372 20.1621C27.0334 19.2102 27.1707 18.2455 27.5343 17.3724C27.898 16.4994 28.4741 15.7511 29.2004 15.2086C29.3549 15.1042 29.5076 14.996 29.6674 14.9033L29.9124 14.7758L30.0332 14.7121L30.1592 14.6618C30.8161 14.3865 31.52 14.2699 32.2224 14.3199C32.8695 14.365 33.5013 14.5532 34.0792 14.8731C34.6572 15.193 35.169 15.6378 35.5836 16.1803C35.9553 16.6649 36.2424 17.2195 36.4305 17.8167C36.6014 18.3591 36.6907 18.928 36.6951 19.5013C36.7004 20.4547 36.4625 21.391 36.0079 22.2061V22.1771L37.2988 24.7079L35.9635 22.1964V22.1829V22.1693C36.4012 21.3637 36.6278 20.443 36.6187 19.5071C36.6107 18.942 36.5202 18.3818 36.3506 17.8476C36.0478 16.8972 35.4939 16.0654 34.7582 15.4563C34.0225 14.8473 33.1379 14.4882 32.2153 14.4242C31.5272 14.3757 30.8377 14.4911 30.1947 14.7623L30.0704 14.8106L29.9515 14.8743L29.7118 14.998C29.5555 15.0888 29.4064 15.1912 29.2537 15.2974C28.957 15.522 28.6837 15.7812 28.4387 16.0702C27.9748 16.6137 27.626 17.2612 27.4168 17.9671C27.2076 18.6731 27.143 19.4203 27.2278 20.1563C27.3386 21.1293 27.7019 22.0478 28.2751 22.8043C28.8484 23.5608 29.6079 24.1239 30.4646 24.4278C30.9537 24.5908 31.4623 24.6741 31.9738 24.6751C32.8396 24.6658 33.6864 24.3985 34.4223 23.9023H34.433H34.4437L37.2988 24.7118Z" fill="#051321"/>
<path d="M31.5052 17.2147L31.6561 19.817C31.6641 19.9186 31.7055 20.0135 31.7727 20.0845C31.8399 20.1555 31.9284 20.1977 32.0219 20.2034C32.1215 20.21 32.2195 20.1745 32.2956 20.1043C32.3717 20.0341 32.4199 19.9346 32.4303 19.8267L32.6966 17.207C32.7014 17.1603 32.697 17.113 32.6837 17.0683C32.6704 17.0236 32.6484 16.9825 32.6194 16.9478C32.5903 16.913 32.5548 16.8855 32.5151 16.8668C32.4755 16.8482 32.4326 16.8391 32.3894 16.8399H31.8053C31.7622 16.8406 31.7197 16.8512 31.6807 16.871C31.6416 16.8907 31.6068 16.9192 31.5785 16.9545C31.5502 16.9899 31.529 17.0313 31.5164 17.0761C31.5038 17.121 31.5 17.1682 31.5052 17.2147Z" fill="#7539FF"/>
<path d="M32.657 21.684C32.6205 21.8033 32.5523 21.9082 32.461 21.9853C32.3697 22.0624 32.2595 22.1083 32.1442 22.1173C32.029 22.1262 31.9139 22.0977 31.8135 22.0355C31.7131 21.9732 31.6319 21.88 31.5802 21.7675C31.5285 21.6551 31.5087 21.5285 31.5231 21.4037C31.5376 21.279 31.5858 21.1617 31.6615 21.0667C31.7372 20.9718 31.8371 20.9034 31.9486 20.8702C32.06 20.837 32.178 20.8405 32.2877 20.8803C32.4345 20.9337 32.556 21.0483 32.6252 21.199C32.6945 21.3497 32.7059 21.5242 32.657 21.684Z" fill="#7539FF"/>
<path d="M37.9742 30.8865L25.6064 30.1836L25.3101 36.357L37.6778 37.0599L37.9742 30.8865Z" fill="#7539FF"/>
<path d="M27.3159 33.5475C27.3346 33.0669 27.6869 32.7382 28.1438 32.7586C28.2577 32.7584 28.3703 32.7863 28.473 32.8401C28.5757 32.8939 28.6659 32.9723 28.7368 33.0695L28.5101 33.278C28.4676 33.2167 28.4131 33.1666 28.3505 33.1313C28.288 33.096 28.2189 33.0764 28.1484 33.0739C28.0266 33.073 27.9092 33.1236 27.8209 33.2151C27.7327 33.3065 27.6806 33.4317 27.6755 33.5641C27.6704 33.6966 27.7128 33.826 27.7937 33.9252C27.8747 34.0243 27.9878 34.0854 28.1093 34.0955C28.1798 34.0996 28.2503 34.0862 28.3155 34.0565C28.3806 34.0268 28.4387 33.9814 28.4855 33.9239L28.6953 34.1521C28.6172 34.2432 28.521 34.3138 28.4141 34.3585C28.3072 34.4032 28.1924 34.4209 28.0783 34.4102C27.6232 34.3892 27.2972 34.0294 27.3159 33.5475Z" fill="white"/>
<path d="M29.8661 34.1179L29.1855 34.0868L29.0423 34.4231L28.6941 34.4078L29.4057 32.8389L29.7417 32.8548L30.337 34.4816L29.9806 34.465L29.8661 34.1179ZM29.7697 33.8325L29.5611 33.2101L29.3052 33.8115L29.7697 33.8325Z" fill="white"/>
<path d="M31.8954 32.9543L31.8318 34.5493L31.5537 34.5366L30.859 33.534L30.8222 34.5035L30.4862 34.4876L30.5493 32.8932L30.8303 32.9066L31.5204 33.9117L31.5607 32.9384L31.8954 32.9543Z" fill="white"/>
<path d="M32.1192 33.7656C32.1379 33.285 32.4908 32.9557 32.9471 32.9766C33.061 32.9769 33.1734 33.005 33.276 33.059C33.3785 33.1129 33.4686 33.1912 33.5396 33.2882L33.3129 33.4967C33.2703 33.4355 33.2156 33.3855 33.1529 33.3503C33.0903 33.3151 33.0211 33.2956 32.9506 33.2932C32.8288 33.2923 32.7114 33.3429 32.6231 33.4344C32.5349 33.5258 32.4828 33.651 32.4777 33.7835C32.4726 33.9159 32.515 34.0454 32.5959 34.1445C32.6769 34.2436 32.79 34.3047 32.9115 34.3148C32.9822 34.3189 33.0528 34.3055 33.1181 34.2757C33.1833 34.2458 33.2415 34.2003 33.2883 34.1426L33.4981 34.3708C33.4201 34.4618 33.324 34.5324 33.2172 34.577C33.1104 34.6216 32.9957 34.6391 32.8817 34.6282C32.4271 34.6066 32.1011 34.2468 32.1192 33.7656Z" fill="white"/>
<path d="M34.8654 34.3922L34.8549 34.6885L33.7162 34.6345L33.7804 33.0388L34.8894 33.0897L34.8777 33.3859L34.107 33.3509L34.0936 33.6974L34.7743 33.7286L34.7637 34.0159L34.0796 33.9848L34.0667 34.3522L34.8654 34.3922Z" fill="white"/>
<path d="M35.1846 33.1031L35.5229 33.1165L35.4727 34.4121L36.2065 34.4477L36.1954 34.7484L35.1198 34.6994L35.1846 33.1031Z" fill="white"/>
</svg>
