<svg width="24" height="25" viewBox="0 0 24 25" fill="none" xmlns="http://www.w3.org/2000/svg">
<path d="M20.6953 3.29783C20.6203 3.30721 18.9328 3.50409 16.9453 3.73377C13.0875 4.18377 6.67031 4.92908 4.05469 5.23377C2.25938 5.44471 2.08125 5.49627 1.66406 5.90877C1.42031 6.15252 1.38281 6.35877 1.54688 6.5369C1.70156 6.70565 1.95469 6.67752 2.17969 6.47127C2.39062 6.27909 2.54063 6.19471 2.74219 6.15252C2.82188 6.13846 4.24219 5.96971 5.90625 5.77283C7.57031 5.58065 11.6438 5.10721 14.9625 4.71815C20.8406 4.03377 20.9953 4.01971 21.2344 4.09002C21.525 4.1744 21.825 4.4369 21.9422 4.6994C22.0078 4.84002 22.1813 6.1994 22.6406 10.1322C22.9734 13.0103 23.25 15.4853 23.25 15.626C23.25 15.7619 23.2172 15.9541 23.175 16.0525C23.0344 16.39 22.6641 16.6806 22.2984 16.7369C22.2047 16.751 22.05 16.7744 21.9609 16.7885L21.7969 16.8166V16.5822C21.7969 16.4556 21.7828 16.315 21.7688 16.2728C21.7219 16.1556 21.4781 16.0525 21.3234 16.0853C21.0469 16.1463 21.0469 16.1416 21.0469 18.1525C21.0469 20.1306 21.0375 20.215 20.7938 20.5385C20.7328 20.6181 20.5688 20.7447 20.4328 20.8197L20.1797 20.9603L10.9922 20.9744C0.7875 20.9885 1.49531 21.0072 1.125 20.6744C1.02656 20.5853 0.895313 20.4119 0.834375 20.29L0.726562 20.0697V14.5619C0.726562 9.61658 0.735938 9.03533 0.801563 8.89002C0.923438 8.62752 1.12969 8.41658 1.38281 8.2994L1.61719 8.1869H10.8984C19.8 8.1869 20.1891 8.19158 20.3672 8.27596C20.6063 8.38377 20.9203 8.73534 20.9906 8.9744C21.0328 9.10565 21.0469 9.9869 21.0469 12.1197V15.0822L21.1641 15.1947C21.3141 15.3494 21.5297 15.3494 21.6797 15.1947L21.7969 15.0822V12.0635C21.7969 9.15721 21.7922 9.03065 21.7031 8.73065C21.5484 8.22908 21.2203 7.85408 20.7188 7.61034L20.4141 7.46033H10.875H1.33594L1.05469 7.59627C0.69375 7.7744 0.314063 8.15877 0.15 8.50096L0.0234375 8.77283V14.5619V20.351L0.173438 20.6603C0.445313 21.2088 0.965625 21.5885 1.57969 21.6869C1.96406 21.7525 19.8 21.7478 20.2031 21.6869C20.8359 21.5838 21.3469 21.1994 21.6234 20.6181L21.7734 20.3041L21.7875 18.9353L21.8016 17.5666L22.0219 17.5385C22.7812 17.4447 23.1047 17.3135 23.4609 16.9666C23.5922 16.8353 23.7469 16.6103 23.8313 16.4369C24.075 15.926 24.075 15.9306 23.3906 10.0619C23.0531 7.16033 22.7531 4.71346 22.725 4.6244C22.5422 4.04315 22.1063 3.58846 21.5391 3.39158C21.3234 3.31659 20.9016 3.26971 20.6953 3.29783Z" fill="#051321"/>
<path d="M17.7797 10.1326C17.6063 10.2545 17.6063 10.428 17.7703 10.8358C17.925 11.2295 18.0422 11.778 18.0422 12.1248C18.0422 12.4717 17.925 13.0201 17.7703 13.4139C17.6063 13.8217 17.6063 13.9951 17.7797 14.117C17.9391 14.2248 18.1313 14.2061 18.2766 14.0561C18.436 13.8967 18.675 13.1842 18.75 12.6405C18.8672 11.8155 18.6188 10.5498 18.2672 10.1655C18.1547 10.0436 17.9297 10.0295 17.7797 10.1326Z" fill="#051321"/>
<path d="M16.5235 10.7596C16.2797 10.8627 16.2469 11.0736 16.4063 11.4955C16.5563 11.8799 16.5516 12.3627 16.3969 12.7939C16.2704 13.1408 16.275 13.2908 16.4157 13.4174C16.5282 13.5205 16.8047 13.5205 16.9219 13.4127C17.1516 13.2017 17.3297 12.3346 17.2547 11.7861C17.2032 11.3971 17.0438 10.9471 16.9266 10.8392C16.8282 10.7502 16.6407 10.7127 16.5235 10.7596Z" fill="#051321"/>
<path d="M15.061 11.524C14.9766 11.6178 14.9672 11.6928 14.9719 12.1287C14.9766 12.5506 14.9907 12.6444 15.0657 12.7287C15.1735 12.8459 15.4032 12.86 15.5485 12.7569C15.8297 12.56 15.8297 11.6881 15.5485 11.4912C15.3985 11.3881 15.1735 11.4022 15.061 11.524Z" fill="#051321"/>
<path d="M2.88281 11.6703C2.62969 11.7922 2.41406 12.0078 2.31094 12.2516C2.26875 12.3641 2.25 12.6781 2.25 13.4469C2.25 14.6281 2.27813 14.7453 2.62969 15.0453C2.92031 15.2937 3.0375 15.3125 4.53281 15.3125H5.8875L6.13125 15.1906C6.26719 15.125 6.43125 14.9984 6.49219 14.9187C6.71719 14.6234 6.75 14.4359 6.75 13.4422C6.75 12.3922 6.7125 12.1953 6.44063 11.9187C6.11719 11.5859 6.13594 11.5859 4.54688 11.5719C3.12656 11.5625 3.11719 11.5625 2.88281 11.6703ZM5.77969 12.3641C5.84531 12.3922 5.92031 12.4672 5.94844 12.5328C6.01875 12.6875 6.01875 14.2062 5.94375 14.3422C5.83125 14.5531 5.80313 14.5578 4.48594 14.5625H3.22969L3.11719 14.4453C3 14.3328 3 14.3234 3 13.4375C3 12.5516 3 12.5422 3.11719 12.4297L3.22969 12.3125H4.44844C5.24063 12.3125 5.70938 12.3312 5.77969 12.3641Z" fill="#051321"/>
<path d="M3.87188 13.1609C3.77813 13.2359 3.75 13.2969 3.75 13.4375C3.75 13.5781 3.77813 13.6391 3.87188 13.7141C3.97969 13.7984 4.06406 13.8125 4.5 13.8125C5.11406 13.8125 5.22656 13.7562 5.22656 13.4375C5.22656 13.1187 5.11406 13.0625 4.5 13.0625C4.06406 13.0625 3.97969 13.0766 3.87188 13.1609Z" fill="#051321"/>
<path d="M2.45155 16.4844C2.24061 16.5688 2.17967 16.9297 2.34373 17.0938C2.4328 17.1828 2.49842 17.1875 4.1203 17.1875H5.8078L5.90155 17.0656C6.06092 16.8641 5.99998 16.5875 5.77967 16.4891C5.64373 16.4281 2.60623 16.4234 2.45155 16.4844Z" fill="#051321"/>
<path d="M6.9609 16.4891C6.73121 16.6203 6.68434 16.8547 6.8484 17.0656L6.94215 17.1875H8.62028H10.2984L10.3968 17.0797C10.5234 16.9438 10.5281 16.7188 10.4109 16.5734L10.3218 16.4609L8.6859 16.4516C7.55621 16.4422 7.02653 16.4563 6.9609 16.4891Z" fill="#051321"/>
<path d="M11.3813 16.5781C11.2641 16.7 11.2454 16.7469 11.2688 16.8734C11.3298 17.1922 11.311 17.1875 13.1532 17.1875C14.7516 17.1875 14.8173 17.1828 14.9063 17.0937C15.061 16.9391 15.0469 16.6953 14.8782 16.5406C14.761 16.4375 14.7563 16.4375 13.1438 16.4375H11.5219L11.3813 16.5781Z" fill="#051321"/>
<path d="M16.0313 16.4703C15.7875 16.5594 15.7078 16.9109 15.8906 17.0938C15.9797 17.1828 16.0453 17.1875 17.6672 17.1875H19.3547L19.4485 17.0656C19.6078 16.8641 19.5469 16.5875 19.3266 16.4891C19.2094 16.4375 16.1719 16.4187 16.0313 16.4703Z" fill="#051321"/>
<path d="M2.49849 18.3453C2.25943 18.3922 2.16568 18.7906 2.3438 18.9688C2.43755 19.0625 2.49849 19.0625 6.37505 19.0625C10.2516 19.0625 10.3125 19.0625 10.4063 18.9688C10.5047 18.8703 10.5282 18.6453 10.4532 18.5C10.3547 18.3172 10.2376 18.3125 6.3563 18.3172C4.28911 18.3219 2.55474 18.3359 2.49849 18.3453Z" fill="#051321"/>
</svg>
