<svg width="157" height="30" viewBox="0 0 157 30" fill="none" xmlns="http://www.w3.org/2000/svg">
<mask id="path-1-outside-1_558_352753" maskUnits="userSpaceOnUse" x="0" y="0" width="157" height="30" fill="black">
<rect fill="white" width="157" height="30"/>
<path d="M14.9862 28.36C13.1142 28.36 11.3862 28.036 9.80216 27.388C8.21816 26.716 6.83816 25.78 5.66216 24.58C4.51016 23.38 3.61016 21.964 2.96216 20.332C2.31416 18.676 1.99016 16.876 1.99016 14.932C1.99016 12.988 2.30216 11.212 2.92616 9.604C3.57416 7.996 4.47416 6.604 5.62616 5.428C6.80216 4.228 8.18216 3.316 9.76616 2.692C11.3502 2.044 13.0902 1.72 14.9862 1.72C17.1222 1.72 19.0422 2.14 20.7462 2.98C22.4742 3.796 23.8782 4.96 24.9582 6.472C26.0622 7.96 26.7342 9.712 26.9742 11.728H21.5742C21.2622 9.88 20.5062 8.488 19.3062 7.552C18.1062 6.592 16.6782 6.112 15.0222 6.112C13.5582 6.112 12.2622 6.46 11.1342 7.156C10.0302 7.852 9.16616 8.86 8.54216 10.18C7.91816 11.476 7.60616 13.048 7.60616 14.896C7.60616 16.768 7.91816 18.388 8.54216 19.756C9.19016 21.1 10.0782 22.144 11.2062 22.888C12.3342 23.608 13.6302 23.968 15.0942 23.968C16.6542 23.968 18.0342 23.5 19.2342 22.564C20.4342 21.628 21.2142 20.236 21.5742 18.388H27.0462C26.7342 20.404 26.0262 22.168 24.9222 23.68C23.8182 25.168 22.4142 26.32 20.7102 27.136C19.0062 27.952 17.0982 28.36 14.9862 28.36ZM29.7538 28V9.64H35.1538V28H29.7538ZM29.5738 7.192V1.36H35.3338V7.192H29.5738ZM39.4569 28V9.64H44.7489V13.96H44.8569V28H39.4569ZM52.2369 28V16.624C52.2369 15.616 51.9729 14.86 51.4449 14.356C50.9409 13.852 50.1969 13.6 49.2129 13.6C48.3729 13.6 47.6169 13.792 46.9449 14.176C46.2969 14.56 45.7809 15.088 45.3969 15.76C45.0369 16.432 44.8569 17.224 44.8569 18.136L44.3889 13.708C44.9889 12.364 45.8649 11.296 47.0169 10.504C48.1929 9.688 49.6329 9.28 51.3369 9.28C53.3769 9.28 54.9369 9.856 56.0169 11.008C57.0969 12.136 57.6369 13.66 57.6369 15.58V28H52.2369ZM70.3859 28.36C68.3459 28.36 66.5699 27.964 65.0579 27.172C63.5459 26.356 62.3699 25.228 61.5299 23.788C60.7139 22.348 60.3059 20.692 60.3059 18.82C60.3059 16.924 60.7139 15.268 61.5299 13.852C62.3699 12.412 63.5339 11.296 65.0219 10.504C66.5099 9.688 68.2379 9.28 70.2059 9.28C72.1019 9.28 73.7459 9.664 75.1379 10.432C76.5299 11.2 77.6099 12.268 78.3779 13.636C79.1459 15.004 79.5299 16.612 79.5299 18.46C79.5299 18.844 79.5179 19.204 79.4939 19.54C79.4699 19.852 79.4339 20.152 79.3859 20.44H63.4739V16.876H75.0299L74.0939 17.524C74.0939 16.036 73.7339 14.944 73.0139 14.248C72.3179 13.528 71.3579 13.168 70.1339 13.168C68.7179 13.168 67.6139 13.648 66.8219 14.608C66.0539 15.568 65.6699 17.008 65.6699 18.928C65.6699 20.8 66.0539 22.192 66.8219 23.104C67.6139 24.016 68.7899 24.472 70.3499 24.472C71.2139 24.472 71.9579 24.328 72.5819 24.04C73.2059 23.752 73.6739 23.284 73.9859 22.636H79.0619C78.4619 24.412 77.4299 25.816 75.9659 26.848C74.5259 27.856 72.6659 28.36 70.3859 28.36ZM82.0578 28V2.08H94.3698C96.2898 2.08 97.9338 2.416 99.3018 3.088C100.694 3.76 101.762 4.696 102.506 5.896C103.274 7.096 103.658 8.5 103.658 10.108C103.658 11.716 103.274 13.132 102.506 14.356C101.738 15.58 100.658 16.54 99.2658 17.236C97.8978 17.908 96.2658 18.244 94.3698 18.244H86.4498V13.996H94.0818C95.3538 13.996 96.3378 13.648 97.0338 12.952C97.7538 12.232 98.1138 11.296 98.1138 10.144C98.1138 8.992 97.7538 8.068 97.0338 7.372C96.3378 6.676 95.3538 6.328 94.0818 6.328H87.6018V28H82.0578ZM106.605 28V2.08H112.005V28H106.605ZM124.948 28.36C122.908 28.36 121.132 27.964 119.62 27.172C118.108 26.356 116.932 25.228 116.092 23.788C115.276 22.348 114.868 20.692 114.868 18.82C114.868 16.924 115.276 15.268 116.092 13.852C116.932 12.412 118.096 11.296 119.584 10.504C121.072 9.688 122.8 9.28 124.768 9.28C126.664 9.28 128.308 9.664 129.7 10.432C131.092 11.2 132.172 12.268 132.94 13.636C133.708 15.004 134.092 16.612 134.092 18.46C134.092 18.844 134.08 19.204 134.056 19.54C134.032 19.852 133.996 20.152 133.948 20.44H118.036V16.876H129.592L128.656 17.524C128.656 16.036 128.296 14.944 127.576 14.248C126.88 13.528 125.92 13.168 124.696 13.168C123.28 13.168 122.176 13.648 121.384 14.608C120.616 15.568 120.232 17.008 120.232 18.928C120.232 20.8 120.616 22.192 121.384 23.104C122.176 24.016 123.352 24.472 124.912 24.472C125.776 24.472 126.52 24.328 127.144 24.04C127.768 23.752 128.236 23.284 128.548 22.636H133.624C133.024 24.412 131.992 25.816 130.528 26.848C129.088 27.856 127.228 28.36 124.948 28.36ZM148.071 28L142.635 19.936L134.823 9.64H140.871L145.731 16.876L154.119 28H148.071ZM143.067 16.588L147.927 9.64H153.831L145.623 20.368L143.067 16.588ZM145.155 20.656L139.935 28H134.067L142.599 16.876L145.155 20.656Z"/>
</mask>
<path d="M9.80216 27.388L9.41157 28.3087L9.42352 28.3135L9.80216 27.388ZM5.66216 24.58L4.94073 25.2726L4.94794 25.2799L5.66216 24.58ZM2.96216 20.332L2.0309 20.6964L2.03274 20.701L2.96216 20.332ZM2.92616 9.604L1.99856 9.23019L1.99389 9.24222L2.92616 9.604ZM5.62616 5.428L4.91194 4.72807L4.9118 4.72822L5.62616 5.428ZM9.76616 2.692L10.1327 3.62249L10.1448 3.61755L9.76616 2.692ZM20.7462 2.98L20.304 3.87694L20.3115 3.88066L20.3191 3.88425L20.7462 2.98ZM24.9582 6.472L24.1444 7.05324L24.1497 7.06059L24.1551 7.06785L24.9582 6.472ZM26.9742 11.728V12.728H28.1003L27.9671 11.6098L26.9742 11.728ZM21.5742 11.728L20.5881 11.8945L20.7288 12.728H21.5742V11.728ZM19.3062 7.552L18.6814 8.33293L18.6911 8.3405L19.3062 7.552ZM11.1342 7.156L10.609 6.30492L10.6009 6.31007L11.1342 7.156ZM8.54216 10.18L9.44318 10.6138L9.44623 10.6074L8.54216 10.18ZM8.54216 19.756L7.63234 20.171L7.63676 20.1807L7.64139 20.1903L8.54216 19.756ZM11.2062 22.888L10.6556 23.7228L10.6618 23.7269L10.6681 23.7309L11.2062 22.888ZM19.2342 22.564L18.6191 21.7755H18.6191L19.2342 22.564ZM21.5742 18.388V17.388H20.7502L20.5926 18.1968L21.5742 18.388ZM27.0462 18.388L28.0344 18.5409L28.2128 17.388H27.0462V18.388ZM24.9222 23.68L25.7253 24.2759L25.7298 24.2697L24.9222 23.68ZM20.7102 27.136L20.2783 26.2341L20.7102 27.136ZM14.9862 27.36C13.2318 27.36 11.6338 27.0569 10.1808 26.4625L9.42352 28.3135C11.1385 29.0151 12.9966 29.36 14.9862 29.36V27.36ZM10.1927 26.4674C8.72709 25.8456 7.45783 24.9836 6.37637 23.8801L4.94794 25.2799C6.21848 26.5764 7.70922 27.5864 9.41161 28.3086L10.1927 26.4674ZM6.38354 23.8875C5.32609 22.7859 4.49451 21.4815 3.89157 19.963L2.03274 20.701C2.7258 22.4465 3.69423 23.9741 4.94077 25.2725L6.38354 23.8875ZM3.8934 19.9676C3.2949 18.4381 2.99016 16.763 2.99016 14.932H0.990156C0.990156 16.989 1.33342 18.9139 2.03091 20.6964L3.8934 19.9676ZM2.99016 14.932C2.99016 13.0961 3.28451 11.4447 3.85842 9.96577L1.99389 9.24222C1.3198 10.9793 0.990156 12.8799 0.990156 14.932H2.99016ZM3.85368 9.97778C4.45532 8.48481 5.28507 7.20521 6.34052 6.12778L4.9118 4.72822C3.66324 6.00279 2.69299 7.50719 1.99864 9.23022L3.85368 9.97778ZM6.34037 6.12793C7.41663 5.02971 8.6777 4.19558 10.1327 3.62241L9.39963 1.76159C7.68661 2.43642 6.18769 3.42629 4.91194 4.72807L6.34037 6.12793ZM10.1448 3.61755C11.5963 3.02376 13.206 2.72 14.9862 2.72V0.719999C12.9743 0.719999 11.104 1.06424 9.38752 1.76645L10.1448 3.61755ZM14.9862 2.72C16.988 2.72 18.7538 3.11275 20.304 3.87694L21.1883 2.08306C19.3305 1.16724 17.2563 0.719999 14.9862 0.719999V2.72ZM20.3191 3.88425C21.8974 4.62952 23.1666 5.68422 24.1444 7.05324L25.7719 5.89076C24.5898 4.23578 23.0509 2.96248 21.1732 2.07575L20.3191 3.88425ZM24.1551 7.06785C25.1455 8.40275 25.7597 9.98623 25.9812 11.8462L27.9671 11.6098C27.7086 9.43777 26.9788 7.51725 25.7613 5.87615L24.1551 7.06785ZM26.9742 10.728H21.5742V12.728H26.9742V10.728ZM22.5602 11.5615C22.2167 9.52685 21.3613 7.88679 19.9212 6.7635L18.6911 8.3405C19.651 9.08921 20.3076 10.2332 20.5881 11.8945L22.5602 11.5615ZM19.9309 6.77113C18.5394 5.65793 16.8864 5.112 15.0222 5.112V7.112C16.4699 7.112 17.673 7.52607 18.6815 8.33287L19.9309 6.77113ZM15.0222 5.112C13.3927 5.112 11.9111 5.50158 10.609 6.30496L11.6593 8.00703C12.6132 7.41842 13.7236 7.112 15.0222 7.112V5.112ZM10.6009 6.31007C9.31735 7.11924 8.33341 8.28175 7.63808 9.75262L9.44623 10.6074C9.99891 9.43825 10.743 8.58476 11.6675 8.00192L10.6009 6.31007ZM7.64116 9.74618C6.93618 11.2104 6.60616 12.9391 6.60616 14.896H8.60616C8.60616 13.1569 8.90014 11.7416 9.44316 10.6138L7.64116 9.74618ZM6.60616 14.896C6.60616 16.8771 6.93622 18.6449 7.63234 20.171L9.45198 19.341C8.9001 18.1311 8.60616 16.6589 8.60616 14.896H6.60616ZM7.64139 20.1903C8.3594 21.6795 9.36144 22.8692 10.6556 23.7228L11.7568 22.0532C10.7949 21.4188 10.0209 20.5205 9.44293 19.3217L7.64139 20.1903ZM10.6681 23.7309C11.9718 24.5631 13.4581 24.968 15.0942 24.968V22.968C13.8022 22.968 12.6965 22.6529 11.7442 22.0451L10.6681 23.7309ZM15.0942 24.968C16.871 24.968 18.4688 24.4292 19.8492 23.3525L18.6191 21.7755C17.5995 22.5708 16.4373 22.968 15.0942 22.968V24.968ZM19.8492 23.3525C21.2815 22.2353 22.1609 20.6057 22.5557 18.5792L20.5926 18.1968C20.2674 19.8663 19.5868 21.0207 18.6191 21.7755L19.8492 23.3525ZM21.5742 19.388H27.0462V17.388H21.5742V19.388ZM26.0579 18.2351C25.7681 20.1076 25.116 21.7187 24.1145 23.0903L25.7298 24.2697C26.9363 22.6173 27.7002 20.7004 28.0344 18.5409L26.0579 18.2351ZM24.1191 23.0842C23.114 24.4388 21.8385 25.4869 20.2783 26.2341L21.1421 28.0379C22.9898 27.1531 24.5223 25.8972 25.7253 24.2758L24.1191 23.0842ZM20.2783 26.2341C18.7242 26.9783 16.9664 27.36 14.9862 27.36V29.36C17.2299 29.36 19.2881 28.9257 21.1421 28.0379L20.2783 26.2341ZM29.7537 28H28.7537V29H29.7537V28ZM29.7537 9.64V8.64H28.7537V9.64H29.7537ZM35.1538 9.64H36.1538V8.64H35.1538V9.64ZM35.1538 28V29H36.1538V28H35.1538ZM29.5737 7.192H28.5737V8.192H29.5737V7.192ZM29.5737 1.36V0.36H28.5737V1.36H29.5737ZM35.3338 1.36H36.3338V0.36H35.3338V1.36ZM35.3338 7.192V8.192H36.3338V7.192H35.3338ZM30.7537 28V9.64H28.7537V28H30.7537ZM29.7537 10.64H35.1538V8.64H29.7537V10.64ZM34.1538 9.64V28H36.1538V9.64H34.1538ZM35.1538 27H29.7537V29H35.1538V27ZM30.5737 7.192V1.36H28.5737V7.192H30.5737ZM29.5737 2.36H35.3338V0.36H29.5737V2.36ZM34.3338 1.36V7.192H36.3338V1.36H34.3338ZM35.3338 6.192H29.5737V8.192H35.3338V6.192ZM39.4569 28H38.4569V29H39.4569V28ZM39.4569 9.64V8.64H38.4569V9.64H39.4569ZM44.7489 9.64H45.7489V8.64H44.7489V9.64ZM44.7489 13.96H43.7489V14.96H44.7489V13.96ZM44.8569 13.96H45.8569V12.96H44.8569V13.96ZM44.8569 28V29H45.8569V28H44.8569ZM52.2369 28H51.2369V29H52.2369V28ZM51.4449 14.356L50.7378 15.0631L50.746 15.0713L50.7544 15.0794L51.4449 14.356ZM46.9449 14.176L46.4487 13.3078L46.4419 13.3117L46.4351 13.3157L46.9449 14.176ZM45.3969 15.76L44.5286 15.2639L44.5219 15.2757L44.5154 15.2878L45.3969 15.76ZM44.8569 18.136L43.8624 18.2411L45.8569 18.136H44.8569ZM44.3889 13.708L43.4757 13.3003L43.3662 13.5458L43.3944 13.8131L44.3889 13.708ZM47.0169 10.504L47.5834 11.328L47.587 11.3256L47.0169 10.504ZM56.0169 11.008L55.2873 11.692L55.2946 11.6996L56.0169 11.008ZM57.6369 28V29H58.6369V28H57.6369ZM40.4569 28V9.64H38.4569V28H40.4569ZM39.4569 10.64H44.7489V8.64H39.4569V10.64ZM43.7489 9.64V13.96H45.7489V9.64H43.7489ZM44.7489 14.96H44.8569V12.96H44.7489V14.96ZM43.8569 13.96V28H45.8569V13.96H43.8569ZM44.8569 27H39.4569V29H44.8569V27ZM53.2369 28V16.624H51.2369V28H53.2369ZM53.2369 16.624C53.2369 15.4497 52.927 14.3883 52.1353 13.6326L50.7544 15.0794C51.0188 15.3317 51.2369 15.7823 51.2369 16.624H53.2369ZM52.152 13.6489C51.3984 12.8953 50.3591 12.6 49.2129 12.6V14.6C50.0346 14.6 50.4833 14.8087 50.7378 15.0631L52.152 13.6489ZM49.2129 12.6C48.2141 12.6 47.2846 12.8301 46.4487 13.3078L47.441 15.0442C47.9492 14.7539 48.5316 14.6 49.2129 14.6V12.6ZM46.4351 13.3157C45.6338 13.7905 44.9961 14.4458 44.5286 15.2639L46.2651 16.2561C46.5657 15.7302 46.9599 15.3295 47.4547 15.0363L46.4351 13.3157ZM44.5154 15.2878C44.0637 16.131 43.8569 17.0914 43.8569 18.136H45.8569C45.8569 17.3566 46.0101 16.733 46.2784 16.2322L44.5154 15.2878ZM45.8513 18.0309L45.3833 13.6029L43.3944 13.8131L43.8624 18.2411L45.8513 18.0309ZM45.302 14.1157C45.8311 12.9304 46.5912 12.0102 47.5834 11.328L46.4503 9.67996C45.1385 10.5818 44.1466 11.7976 43.4757 13.3003L45.302 14.1157ZM47.587 11.3256C48.5657 10.6465 49.797 10.28 51.3369 10.28V8.28C49.4688 8.28 47.8201 8.72952 46.4468 9.68241L47.587 11.3256ZM51.3369 10.28C53.1856 10.28 54.4477 10.7963 55.2873 11.6919L56.7464 10.3241C55.4261 8.91572 53.5681 8.28 51.3369 8.28V10.28ZM55.2946 11.6996C56.1574 12.6008 56.6369 13.8553 56.6369 15.58H58.6369C58.6369 13.4647 58.0363 11.6712 56.7392 10.3164L55.2946 11.6996ZM56.6369 15.58V28H58.6369V15.58H56.6369ZM57.6369 27H52.2369V29H57.6369V27ZM65.0579 27.172L64.583 28.0521L64.5939 28.0578L65.0579 27.172ZM61.5299 23.788L60.6598 24.2811L60.6662 24.2919L61.5299 23.788ZM61.5299 13.852L60.6661 13.3481L60.6635 13.3527L61.5299 13.852ZM65.0219 10.504L65.4918 11.3868L65.5028 11.3808L65.0219 10.504ZM79.4939 19.54L80.491 19.6167L80.4914 19.6112L79.4939 19.54ZM79.3859 20.44V21.44H80.2331L80.3723 20.6044L79.3859 20.44ZM63.4739 20.44H62.4739V21.44H63.4739V20.44ZM63.4739 16.876V15.876H62.4739V16.876H63.4739ZM75.0299 16.876L75.5992 17.6982L78.2312 15.876H75.0299V16.876ZM74.0939 17.524H73.0939V19.4326L74.6631 18.3462L74.0939 17.524ZM73.0139 14.248L72.295 14.943L72.3067 14.9552L72.3189 14.967L73.0139 14.248ZM66.8219 14.608L66.0506 13.9716L66.0458 13.9774L66.0411 13.9833L66.8219 14.608ZM66.8219 23.104L66.057 23.7481L66.0619 23.7539L66.0669 23.7597L66.8219 23.104ZM72.5819 24.04L73.001 24.948L72.5819 24.04ZM73.9859 22.636V21.636H73.3575L73.0849 22.2022L73.9859 22.636ZM79.0619 22.636L80.0093 22.9561L80.4553 21.636H79.0619V22.636ZM75.9659 26.848L76.5394 27.6672L76.5421 27.6653L75.9659 26.848ZM70.3859 27.36C68.4762 27.36 66.8654 26.9899 65.5219 26.2862L64.5939 28.0578C66.2745 28.9381 68.2157 29.36 70.3859 29.36V27.36ZM65.5329 26.292C64.1774 25.5604 63.1382 24.5604 62.3937 23.2841L60.6662 24.2919C61.6017 25.8956 62.9145 27.1516 64.583 28.052L65.5329 26.292ZM62.4 23.295C61.6798 22.0242 61.3059 20.5422 61.3059 18.82H59.3059C59.3059 20.8418 59.748 22.6718 60.6599 24.281L62.4 23.295ZM61.3059 18.82C61.3059 17.0709 61.681 15.5926 62.3964 14.3513L60.6635 13.3527C59.7468 14.9434 59.3059 16.7771 59.3059 18.82H61.3059ZM62.3937 14.3559C63.139 13.0782 64.1658 12.0925 65.4918 11.3867L64.5521 9.62125C62.9021 10.4995 61.6008 11.7458 60.6662 13.3481L62.3937 14.3559ZM65.5028 11.3808C66.8214 10.6577 68.379 10.28 70.2059 10.28V8.28C68.0969 8.28 66.1985 8.7183 64.5411 9.62719L65.5028 11.3808ZM70.2059 10.28C71.9655 10.28 73.4369 10.6356 74.6549 11.3076L75.621 9.55642C74.055 8.69242 72.2384 8.28 70.2059 8.28V10.28ZM74.6549 11.3076C75.8861 11.9869 76.8304 12.9222 77.506 14.1255L79.2499 13.1465C78.3895 11.6138 77.1738 10.4131 75.621 9.55642L74.6549 11.3076ZM77.506 14.1255C78.1762 15.3194 78.5299 16.7528 78.5299 18.46H80.5299C80.5299 16.4712 80.1157 14.6886 79.2499 13.1465L77.506 14.1255ZM78.5299 18.46C78.5299 18.8234 78.5186 19.1595 78.4965 19.4688L80.4914 19.6112C80.5173 19.2485 80.5299 18.8646 80.5299 18.46H78.5299ZM78.4969 19.4633C78.475 19.748 78.4424 20.0186 78.3995 20.2756L80.3723 20.6044C80.4255 20.2854 80.4649 19.956 80.491 19.6167L78.4969 19.4633ZM79.3859 19.44H63.4739V21.44H79.3859V19.44ZM64.4739 20.44V16.876H62.4739V20.44H64.4739ZM63.4739 17.876H75.0299V15.876H63.4739V17.876ZM74.4607 16.0538L73.5247 16.7018L74.6631 18.3462L75.5992 17.6982L74.4607 16.0538ZM75.0939 17.524C75.0939 15.8963 74.7015 14.4885 73.709 13.529L72.3189 14.967C72.7664 15.3995 73.0939 16.1757 73.0939 17.524H75.0939ZM73.7329 13.553C72.808 12.5961 71.5646 12.168 70.1339 12.168V14.168C71.1513 14.168 71.8279 14.4599 72.295 14.943L73.7329 13.553ZM70.1339 12.168C68.4656 12.168 67.0601 12.7479 66.0506 13.9716L67.5933 15.2444C68.1678 14.5481 68.9702 14.168 70.1339 14.168V12.168ZM66.0411 13.9833C65.0709 15.196 64.6699 16.9012 64.6699 18.928H66.6699C66.6699 17.1148 67.0369 15.94 67.6028 15.2327L66.0411 13.9833ZM64.6699 18.928C64.6699 20.9085 65.0716 22.5779 66.057 23.7481L67.5868 22.4599C67.0363 21.8061 66.6699 20.6915 66.6699 18.928H64.6699ZM66.0669 23.7597C67.1009 24.9504 68.5905 25.472 70.3499 25.472V23.472C68.9893 23.472 68.1269 23.0816 67.577 22.4483L66.0669 23.7597ZM70.3499 25.472C71.3225 25.472 72.2164 25.3101 73.001 24.948L72.1629 23.132C71.6995 23.3459 71.1053 23.472 70.3499 23.472V25.472ZM73.001 24.948C73.8462 24.5579 74.4793 23.9165 74.8869 23.0698L73.0849 22.2022C72.8686 22.6515 72.5657 22.9461 72.1629 23.132L73.001 24.948ZM73.9859 23.636H79.0619V21.636H73.9859V23.636ZM78.1145 22.3159C77.5791 23.901 76.672 25.1268 75.3898 26.0307L76.5421 27.6653C78.1879 26.5052 79.3448 24.923 80.0093 22.9561L78.1145 22.3159ZM75.3925 26.0288C74.1642 26.8886 72.5214 27.36 70.3859 27.36V29.36C72.8105 29.36 74.8877 28.8234 76.5394 27.6672L75.3925 26.0288ZM82.0578 28H81.0578V29H82.0578V28ZM82.0578 2.08V1.08H81.0578V2.08H82.0578ZM99.3018 3.088L98.8609 3.98557L98.8671 3.98855L99.3018 3.088ZM102.506 5.896L101.656 6.42294L101.66 6.42902L101.664 6.43505L102.506 5.896ZM99.2658 17.236L99.7067 18.1336L99.713 18.1304L99.2658 17.236ZM86.4498 18.244H85.4498V19.244H86.4498V18.244ZM86.4498 13.996V12.996H85.4498V13.996H86.4498ZM97.0338 12.952L97.7409 13.6591L97.0338 12.952ZM97.0338 7.372L96.3267 8.07911L96.3327 8.0851L96.3388 8.09099L97.0338 7.372ZM87.6018 6.328V5.328H86.6018V6.328H87.6018ZM87.6018 28V29H88.6018V28H87.6018ZM83.0578 28V2.08H81.0578V28H83.0578ZM82.0578 3.08H94.3698V1.08H82.0578V3.08ZM94.3698 3.08C96.1756 3.08 97.661 3.39614 98.8609 3.98555L99.7427 2.19044C98.2066 1.43586 96.404 1.08 94.3698 1.08V3.08ZM98.8671 3.98855C100.105 4.58609 101.021 5.39955 101.656 6.42294L103.356 5.36906C102.502 3.99245 101.283 2.93391 99.7366 2.18745L98.8671 3.98855ZM101.664 6.43505C102.316 7.45406 102.658 8.66576 102.658 10.108H104.658C104.658 8.33424 104.232 6.73794 103.348 5.35695L101.664 6.43505ZM102.658 10.108C102.658 11.5499 102.316 12.7773 101.659 13.8245L103.353 14.8875C104.232 13.4867 104.658 11.8821 104.658 10.108H102.658ZM101.659 13.8245C100.996 14.8812 100.06 15.721 98.8186 16.3416L99.713 18.1304C101.256 17.359 102.48 16.2788 103.353 14.8875L101.659 13.8245ZM98.8249 16.3384C97.6235 16.9286 96.1494 17.244 94.3698 17.244V19.244C96.3822 19.244 98.1722 18.8874 99.7067 18.1336L98.8249 16.3384ZM94.3698 17.244H86.4498V19.244H94.3698V17.244ZM87.4498 18.244V13.996H85.4498V18.244H87.4498ZM86.4498 14.996H94.0818V12.996H86.4498V14.996ZM94.0818 14.996C95.5381 14.996 96.807 14.593 97.7409 13.6591L96.3267 12.2449C95.8686 12.703 95.1696 12.996 94.0818 12.996V14.996ZM97.7409 13.6591C98.6737 12.7263 99.1138 11.5232 99.1138 10.144H97.1138C97.1138 11.0688 96.8339 11.7377 96.3267 12.2449L97.7409 13.6591ZM99.1138 10.144C99.1138 8.76535 98.6735 7.56623 97.7288 6.65301L96.3388 8.09099C96.8341 8.56977 97.1138 9.21865 97.1138 10.144H99.1138ZM97.7409 6.66489C96.807 5.73096 95.5381 5.328 94.0818 5.328V7.328C95.1696 7.328 95.8686 7.62104 96.3267 8.07911L97.7409 6.66489ZM94.0818 5.328H87.6018V7.328H94.0818V5.328ZM86.6018 6.328V28H88.6018V6.328H86.6018ZM87.6018 27H82.0578V29H87.6018V27ZM106.605 28H105.605V29H106.605V28ZM106.605 2.08V1.08H105.605V2.08H106.605ZM112.005 2.08H113.005V1.08H112.005V2.08ZM112.005 28V29H113.005V28H112.005ZM107.605 28V2.08H105.605V28H107.605ZM106.605 3.08H112.005V1.08H106.605V3.08ZM111.005 2.08V28H113.005V2.08H111.005ZM112.005 27H106.605V29H112.005V27ZM119.62 27.172L119.145 28.0521L119.156 28.0578L119.62 27.172ZM116.092 23.788L115.222 24.2811L115.229 24.2919L116.092 23.788ZM116.092 13.852L115.229 13.3481L115.226 13.3527L116.092 13.852ZM119.584 10.504L120.054 11.3868L120.065 11.3808L119.584 10.504ZM134.056 19.54L135.054 19.6167L135.054 19.6112L134.056 19.54ZM133.948 20.44V21.44H134.796L134.935 20.6044L133.948 20.44ZM118.036 20.44H117.036V21.44H118.036V20.44ZM118.036 16.876V15.876H117.036V16.876H118.036ZM129.592 16.876L130.162 17.6982L132.794 15.876H129.592V16.876ZM128.656 17.524H127.656V19.4326L129.226 18.3462L128.656 17.524ZM127.576 14.248L126.857 14.943L126.869 14.9552L126.881 14.967L127.576 14.248ZM121.384 14.608L120.613 13.9716L120.608 13.9774L120.604 13.9833L121.384 14.608ZM121.384 23.104L120.62 23.7481L120.624 23.7539L120.629 23.7597L121.384 23.104ZM127.144 24.04L127.563 24.948L127.144 24.04ZM128.548 22.636V21.636H127.92L127.647 22.2022L128.548 22.636ZM133.624 22.636L134.572 22.9561L135.018 21.636H133.624V22.636ZM130.528 26.848L131.102 27.6672L131.105 27.6653L130.528 26.848ZM124.948 27.36C123.039 27.36 121.428 26.9899 120.084 26.2862L119.156 28.0578C120.837 28.9381 122.778 29.36 124.948 29.36V27.36ZM120.095 26.292C118.74 25.5604 117.701 24.5604 116.956 23.2841L115.229 24.2919C116.164 25.8956 117.477 27.1516 119.146 28.052L120.095 26.292ZM116.962 23.295C116.242 22.0242 115.868 20.5422 115.868 18.82H113.868C113.868 20.8418 114.311 22.6718 115.222 24.281L116.962 23.295ZM115.868 18.82C115.868 17.0709 116.244 15.5926 116.959 14.3513L115.226 13.3527C114.309 14.9434 113.868 16.7771 113.868 18.82H115.868ZM116.956 14.3559C117.702 13.0782 118.728 12.0925 120.054 11.3867L119.115 9.62125C117.465 10.4995 116.163 11.7458 115.229 13.3481L116.956 14.3559ZM120.065 11.3808C121.384 10.6577 122.941 10.28 124.768 10.28V8.28C122.659 8.28 120.761 8.7183 119.104 9.62719L120.065 11.3808ZM124.768 10.28C126.528 10.28 127.999 10.6356 129.217 11.3076L130.184 9.55642C128.618 8.69242 126.801 8.28 124.768 8.28V10.28ZM129.217 11.3076C130.449 11.9869 131.393 12.9222 132.068 14.1255L133.812 13.1465C132.952 11.6138 131.736 10.4131 130.184 9.55642L129.217 11.3076ZM132.068 14.1255C132.739 15.3194 133.092 16.7528 133.092 18.46H135.092C135.092 16.4712 134.678 14.6886 133.812 13.1465L132.068 14.1255ZM133.092 18.46C133.092 18.8234 133.081 19.1595 133.059 19.4688L135.054 19.6112C135.08 19.2485 135.092 18.8646 135.092 18.46H133.092ZM133.059 19.4633C133.037 19.748 133.005 20.0186 132.962 20.2756L134.935 20.6044C134.988 20.2854 135.027 19.956 135.053 19.6167L133.059 19.4633ZM133.948 19.44H118.036V21.44H133.948V19.44ZM119.036 20.44V16.876H117.036V20.44H119.036ZM118.036 17.876H129.592V15.876H118.036V17.876ZM129.023 16.0538L128.087 16.7018L129.226 18.3462L130.162 17.6982L129.023 16.0538ZM129.656 17.524C129.656 15.8963 129.264 14.4885 128.271 13.529L126.881 14.967C127.329 15.3995 127.656 16.1757 127.656 17.524H129.656ZM128.295 13.553C127.37 12.5961 126.127 12.168 124.696 12.168V14.168C125.714 14.168 126.39 14.4599 126.857 14.943L128.295 13.553ZM124.696 12.168C123.028 12.168 121.623 12.7479 120.613 13.9716L122.156 15.2444C122.73 14.5481 123.533 14.168 124.696 14.168V12.168ZM120.604 13.9833C119.633 15.196 119.232 16.9012 119.232 18.928H121.232C121.232 17.1148 121.599 15.94 122.165 15.2327L120.604 13.9833ZM119.232 18.928C119.232 20.9085 119.634 22.5779 120.62 23.7481L122.149 22.4599C121.599 21.8061 121.232 20.6915 121.232 18.928H119.232ZM120.629 23.7597C121.663 24.9504 123.153 25.472 124.912 25.472V23.472C123.552 23.472 122.689 23.0816 122.139 22.4483L120.629 23.7597ZM124.912 25.472C125.885 25.472 126.779 25.3101 127.563 24.948L126.725 23.132C126.262 23.3459 125.668 23.472 124.912 23.472V25.472ZM127.563 24.948C128.409 24.5579 129.042 23.9165 129.449 23.0698L127.647 22.2022C127.431 22.6515 127.128 22.9461 126.725 23.132L127.563 24.948ZM128.548 23.636H133.624V21.636H128.548V23.636ZM132.677 22.3159C132.142 23.901 131.235 25.1268 129.952 26.0307L131.105 27.6653C132.75 26.5052 133.907 24.923 134.572 22.9561L132.677 22.3159ZM129.955 26.0288C128.727 26.8886 127.084 27.36 124.948 27.36V29.36C127.373 29.36 129.45 28.8234 131.102 27.6672L129.955 26.0288ZM148.071 28L147.242 28.559L147.539 29H148.071V28ZM142.635 19.936L143.464 19.377L143.449 19.3538L143.432 19.3316L142.635 19.936ZM134.823 9.64V8.64H132.809L134.026 10.2444L134.823 9.64ZM140.871 9.64L141.701 9.08244L141.404 8.64H140.871V9.64ZM145.731 16.876L144.901 17.4336L144.916 17.4562L144.933 17.4781L145.731 16.876ZM154.119 28V29H156.126L154.918 27.3979L154.119 28ZM143.067 16.588L142.248 16.0148L141.853 16.5784L142.239 17.1481L143.067 16.588ZM147.927 9.64V8.64H147.406L147.108 9.06682L147.927 9.64ZM153.831 9.64L154.625 10.2476L155.855 8.64H153.831V9.64ZM145.623 20.368L144.795 20.9282L145.573 22.0792L146.417 20.9756L145.623 20.368ZM145.155 20.656L145.97 21.2353L146.372 20.6702L145.984 20.0958L145.155 20.656ZM139.935 28V29H140.451L140.75 28.5793L139.935 28ZM134.067 28L133.274 27.3914L132.04 29H134.067V28ZM142.599 16.876L143.428 16.3158L142.65 15.1663L141.806 16.2674L142.599 16.876ZM148.9 27.441L143.464 19.377L141.806 20.495L147.242 28.559L148.9 27.441ZM143.432 19.3316L135.62 9.03555L134.026 10.2444L141.838 20.5404L143.432 19.3316ZM134.823 10.64H140.871V8.64H134.823V10.64ZM140.041 10.1976L144.901 17.4336L146.561 16.3184L141.701 9.08244L140.041 10.1976ZM144.933 17.4781L153.321 28.6021L154.918 27.3979L146.53 16.2739L144.933 17.4781ZM154.119 27H148.071V29H154.119V27ZM143.887 17.1612L148.747 10.2132L147.108 9.06682L142.248 16.0148L143.887 17.1612ZM147.927 10.64H153.831V8.64H147.927V10.64ZM153.037 9.03235L144.829 19.7604L146.417 20.9756L154.625 10.2476L153.037 9.03235ZM146.452 19.8078L143.896 16.0278L142.239 17.1481L144.795 20.9282L146.452 19.8078ZM144.34 20.0767L139.12 27.4207L140.75 28.5793L145.97 21.2353L144.34 20.0767ZM139.935 27H134.067V29H139.935V27ZM134.861 28.6086L143.393 17.4846L141.806 16.2674L133.274 27.3914L134.861 28.6086ZM141.771 17.4361L144.327 21.2162L145.984 20.0958L143.428 16.3158L141.771 17.4361Z" fill="#5D6772" mask="url(#path-1-outside-1_558_352753)"/>
</svg>
