<svg width="24" height="24" viewBox="0 0 24 24" fill="none" xmlns="http://www.w3.org/2000/svg">
<path fill-rule="evenodd" clip-rule="evenodd" d="M13.5654 23.9111C13.5654 24 13.5654 24 13.5654 24C26.9621 22.1161 26.8304 2.07264 13.5654 0C13.5654 0.0888901 13.5654 0.0888901 13.5654 0.0888901C13.5654 0.977779 13.6543 1.77778 13.8321 2.66667C23.5108 4.83944 23.5912 19.2748 13.7432 21.2444C13.6543 22.1333 13.5654 23.0222 13.5654 23.9111Z" fill="#5BD0F4"/>
<path fill-rule="evenodd" clip-rule="evenodd" d="M10.0986 24L10.0986 23.9111C10.0986 23.0222 10.0097 22.2222 9.83193 21.3333C0.235559 19.179 0.0306739 4.8447 9.83193 2.84444C10.0097 2.04444 10.0986 1.15555 10.0986 0.266664L10.0986 0.177778C-3.38071 1.86269 -3.23039 22.1256 10.0986 24Z" fill="#5BD0F4"/>
<path fill-rule="evenodd" clip-rule="evenodd" d="M11.7877 2.13385C11.2543 6.04496 9.20989 9.60052 6.00989 12.0005C9.20989 14.4005 11.2543 17.9561 11.7877 21.8672C12.321 17.9561 14.4543 14.3116 17.6543 12.0005C14.4543 9.60052 12.321 6.04496 11.7877 2.13385Z" fill="#283D74"/>
</svg>
