<svg width="24" height="24" viewBox="0 0 24 24" fill="none" xmlns="http://www.w3.org/2000/svg">
<path d="M11.52 20.1257C10.4147 21.876 8.46313 23.0386 6.24 23.0386C2.79374 23.0386 0 20.2449 0 16.7986C0 13.3523 2.79374 10.5586 6.24 10.5586C8.52531 10.5586 10.441 11.8173 11.52 13.5858C10.2889 15.6143 10.1991 18.1814 11.52 20.1257Z" fill="#61459C"/>
<path d="M17.7526 10.5586C19.8227 10.5684 21.8428 11.6073 23.0209 13.4927C24.8471 16.4153 23.9583 20.2649 21.0357 22.0912C18.1132 23.9174 14.2635 23.0286 12.4372 20.1061C11.2262 18.168 11.2785 15.8764 12.2064 14.0242C14.5791 13.9932 16.8037 12.709 17.7526 10.5586Z" fill="#442781"/>
<path d="M6.42648 9.52487C5.48666 7.68039 5.48454 5.40875 6.62052 3.49776C8.38149 0.535385 12.2105 -0.438546 15.1729 1.32242C18.1353 3.0834 19.1092 6.91242 17.3482 9.8748C16.1805 11.8392 14.1197 12.8428 12.0481 12.8666C10.9335 10.7719 8.77267 9.38294 6.42648 9.52487Z" fill="#FF8124"/>
</svg>
