<svg width="24" height="24" viewBox="0 0 24 24" fill="none" xmlns="http://www.w3.org/2000/svg">
<g clip-path="url(#clip0_502_319880)">
<path d="M14.8742 1.15596L12.572 0.539062L10.6318 7.77979L8.88025 1.24281L6.57794 1.85971L8.47043 8.92242L3.75669 4.20871L2.07131 5.89409L7.24169 11.0645L0.802805 9.3392L0.185913 11.6414L7.2212 13.5266C7.14066 13.1791 7.09804 12.8172 7.09804 12.4452C7.09804 9.81247 9.23228 7.67823 11.865 7.67823C14.4978 7.67823 16.632 9.81247 16.632 12.4452C16.632 12.8148 16.5899 13.1745 16.5104 13.5199L22.9042 15.2331L23.521 12.9308L16.4578 11.0382L22.8971 9.3128L22.2801 7.01056L15.2172 8.90305L19.9309 4.18936L18.2455 2.50398L13.1469 7.60265L14.8742 1.15596Z" fill="#FF4405"/>
<path d="M16.5036 13.5467C16.3063 14.3812 15.8895 15.1309 15.3177 15.7315L19.9497 20.3636L21.6351 18.6782L16.5036 13.5467Z" fill="#FF4405"/>
<path d="M15.271 15.7799C14.6923 16.371 13.961 16.8121 13.1409 17.0394L14.8264 23.3297L17.1286 22.7128L15.271 15.7799Z" fill="#FF4405"/>
<path d="M13.0549 17.0624C12.6744 17.1602 12.2756 17.2122 11.8646 17.2122C11.4243 17.2122 10.9979 17.1525 10.5932 17.0407L8.90613 23.3368L11.2084 23.9536L13.0549 17.0624Z" fill="#FF4405"/>
<path d="M10.5117 17.0175C9.70418 16.7789 8.98588 16.3322 8.41901 15.7395L3.7756 20.3829L5.46098 22.0683L10.5117 17.0175Z" fill="#FF4405"/>
<path d="M8.38074 15.6984C7.82359 15.1019 7.41776 14.3623 7.22459 13.5406L0.809937 15.2595L1.42682 17.5617L8.38074 15.6984Z" fill="#FF4405"/>
</g>
<defs>
<clipPath id="clip0_502_319880">
<rect width="24" height="24" fill="white"/>
</clipPath>
</defs>
</svg>
