<svg width="24" height="24" viewBox="0 0 24 24" fill="none" xmlns="http://www.w3.org/2000/svg">
<path d="M22.8156 9.50973L20.9439 7.78104C18.4643 9.7241 15.1874 10.7018 11.9999 10.4292C8.97611 10.1847 6.13575 8.81913 4.24019 6.6875L0 10.6035C1.66641 11.957 3.60953 12.9984 5.66706 13.6434C11.6414 15.5945 18.7226 13.9402 22.8156 9.51V9.50973Z" fill="#FA5E00"/>
<path d="M18.3326 17.0435C12.3583 15.0924 5.2771 16.7468 1.18433 21.1769L3.05611 22.9056C5.53567 20.9625 8.81262 19.9848 12.0001 20.2574C15.0239 20.5019 17.8642 21.8675 19.7598 23.9991L24 20.0831C22.3336 18.7296 20.3905 17.6882 18.3329 17.0432L18.3326 17.0435Z" fill="#FA5E00"/>
<path d="M11.7502 7.97985C13.9593 7.97985 15.7502 6.19343 15.7502 3.98992C15.7502 1.78641 13.9593 0 11.7502 0C9.54117 0 7.75024 1.78641 7.75024 3.98992C7.75024 6.19343 9.54117 7.97985 11.7502 7.97985Z" fill="#FA5E00"/>
</svg>
