<svg width="24" height="24" viewBox="0 0 24 24" fill="none" xmlns="http://www.w3.org/2000/svg">
<path d="M13.1339 19.1932V22.7156C13.1339 23.5476 13.8982 24.1541 14.6965 23.9679C20.0254 22.725 24 17.8782 24 12.0872C24 11.5978 23.9711 11.1152 23.9155 10.6412C23.7909 9.57952 22.5062 9.13818 21.7619 9.89438L13.5051 18.2835C13.2674 18.5248 13.1339 18.8521 13.1339 19.1936V19.1932Z" fill="#37B557"/>
<path d="M10.3915 0.00392514C9.43502 0.134524 8.51485 0.379587 7.64368 0.725224C7.36589 0.835183 7.29142 1.20033 7.50208 1.41425L10.1615 4.11592C10.4215 4.38012 10.866 4.19285 10.866 3.81945V0.418991C10.866 0.162672 10.6419 -0.0302258 10.3915 0.00392514Z" fill="#37B557"/>
<path d="M14.2038 14.3144L22.0439 6.34856C22.2504 6.13878 22.2943 5.81866 22.1396 5.57022C21.6338 4.75923 21.0366 4.01354 20.3626 3.34741C19.6519 2.64525 18.4825 2.65764 17.7818 3.36955L13.3214 7.90149C13.201 8.02383 13.1339 8.18633 13.1339 8.35596V13.864C13.1339 14.4314 13.8091 14.7155 14.2038 14.3144Z" fill="#37B557"/>
<path d="M10.6786 7.90121L6.21823 3.36927C5.51758 2.65773 4.34818 2.64535 3.6375 3.34713C2.96348 4.01326 2.36624 4.75895 1.86043 5.56994C1.70572 5.818 1.74971 6.1385 1.95612 6.34828L9.79628 14.3141C10.191 14.7153 10.8661 14.4312 10.8661 13.8637V8.35568C10.8661 8.18643 10.799 8.02355 10.6786 7.90121Z" fill="#37B557"/>
<path d="M13.1339 0.418991V3.81945C13.1339 4.19285 13.5784 4.38012 13.8384 4.11592L16.4978 1.41425C16.7085 1.19996 16.634 0.835183 16.3562 0.725224C15.4851 0.379587 14.5649 0.134524 13.6085 0.00392514C13.3585 -0.0302258 13.1339 0.162672 13.1339 0.418991Z" fill="#37B557"/>
<path d="M10.495 18.2797L2.23812 9.89057C1.49388 9.13437 0.209499 9.57532 0.0844943 10.6374C0.0289369 11.1114 0 11.594 0 12.0834C0 17.8748 3.97467 22.7212 9.30356 23.9641C10.1018 24.1503 10.8661 23.5442 10.8661 22.7118V19.1894C10.8661 18.8482 10.7326 18.521 10.495 18.2797Z" fill="#37B557"/>
</svg>
