<svg width="24" height="25" viewBox="0 0 24 25" fill="none" xmlns="http://www.w3.org/2000/svg">
<circle cx="12" cy="12.1367" r="11.5" stroke="#6927DA"/>
<path d="M16.6604 16.7965C14.3694 19.0875 11.763 20.595 9.42087 21.1972C7.06616 21.8027 5.07713 21.4767 3.86821 20.2678C2.65929 19.0588 2.33324 17.0698 2.93873 14.7151C3.541 12.373 5.04844 9.76658 7.33946 7.47555C9.63049 5.18453 12.2369 3.67709 14.579 3.07482C16.9337 2.46932 18.9227 2.79538 20.1317 4.0043C21.3406 5.21322 21.6666 7.20225 21.0611 9.55696C20.4589 11.8991 18.9514 14.5055 16.6604 16.7965Z" stroke="#6927DA"/>
<path d="M16.6604 7.47484C18.9514 9.76586 20.4589 12.3722 21.0611 14.7144C21.6666 17.0691 21.3406 19.0581 20.1316 20.267C18.9227 21.476 16.9337 21.802 14.579 21.1965C12.2369 20.5943 9.63047 19.0868 7.33944 16.7958C5.04842 14.5048 3.54098 11.8984 2.93871 9.55625C2.33322 7.20154 2.65927 5.21251 3.86819 4.00359C5.07711 2.79467 7.06614 2.46861 9.42086 3.07411C11.763 3.67637 14.3694 5.18382 16.6604 7.47484Z" stroke="#6927DA"/>
</svg>
