<svg width="24" height="24" viewBox="0 0 24 24" fill="none" xmlns="http://www.w3.org/2000/svg">
<path fill-rule="evenodd" clip-rule="evenodd" d="M12.2354 23.3084C17.2236 23.3084 21.6472 20.0143 23.0589 15.2143C19.133 15.8686 14.9002 14.2423 12.2354 11.3555C9.57063 14.2423 5.33781 15.8686 1.41187 15.2143C2.91775 20.1084 7.24716 23.3084 12.2354 23.3084Z" fill="#057475"/>
<path fill-rule="evenodd" clip-rule="evenodd" d="M23.5294 12.862C23.5294 7.58573 20.7235 2.74675 15.4353 1.19141C15.921 4.10538 15.0837 7.28343 13.553 9.75611C16.0833 12.407 19.9349 13.7606 23.5294 12.862Z" fill="#69C5C5"/>
<path fill-rule="evenodd" clip-rule="evenodd" d="M10.8236 9.66199C9.25498 7.24868 8.46208 4.06665 8.94128 1.19141C3.6959 2.76502 0.941284 7.63041 0.941284 12.862C4.51932 13.7565 8.41149 12.436 10.8236 9.66199Z" fill="#69C5C5"/>
<path fill-rule="evenodd" clip-rule="evenodd" d="M12.2352 7.68346C12.9882 6.27169 13.3647 4.67169 13.3647 2.97757C13.3647 2.22463 13.2705 1.47169 13.0823 0.71875C12.8 0.71875 12.5176 0.71875 12.2352 0.71875C11.9529 0.71875 11.6705 0.71875 11.3882 0.71875C11.2 1.47169 11.1058 2.22463 11.1058 2.97757C11.1058 4.67169 11.5764 6.27169 12.2352 7.68346Z" fill="#057475"/>
</svg>
