<svg width="25" height="25" viewBox="0 0 25 25" fill="none" xmlns="http://www.w3.org/2000/svg">
<path d="M7.53173 16.6672C4.93539 16.6672 0.880493 17.04 0.880493 13.2953C0.880493 11.3905 2.26602 9.73828 4.25239 9.73828C10.7317 9.73828 15.9813 14.9879 15.9813 21.4672C15.9813 23.3259 14.4904 24.892 12.6094 24.892C8.9217 24.892 9.23752 20.9598 9.23752 18.3862C9.23752 17.4341 8.47058 16.6672 7.53173 16.6672Z" fill="url(#paint0_linear_502_319875)"/>
<path d="M16.669 7.53015C16.669 4.9338 17.0419 0.878906 13.2971 0.878906C11.3923 0.878906 9.74011 2.26444 9.74011 4.25081C9.74011 10.7301 14.9897 15.9797 21.469 15.9797C23.3278 15.9797 24.8938 14.4888 24.8938 12.6078C24.8938 8.92012 20.9616 9.23593 18.388 9.23593C17.436 9.23593 16.669 8.46899 16.669 7.53015Z" fill="url(#paint1_linear_502_319875)"/>
<defs>
<linearGradient id="paint0_linear_502_319875" x1="1.54165" y1="10.3994" x2="15.4921" y2="25.8044" gradientUnits="userSpaceOnUse">
<stop stop-color="#DD7E7E"/>
<stop offset="0.280911" stop-color="#CDCF79"/>
<stop offset="0.665142" stop-color="#55C0AD"/>
<stop offset="1" stop-color="#E087EF"/>
</linearGradient>
<linearGradient id="paint1_linear_502_319875" x1="8.21945" y1="-0.906217" x2="27.7236" y2="11.4574" gradientUnits="userSpaceOnUse">
<stop stop-color="#DD7E7E"/>
<stop offset="0.394309" stop-color="#CDCF79"/>
<stop offset="0.631704" stop-color="#55C0AD"/>
<stop offset="1" stop-color="#E087EF"/>
<stop offset="1" stop-color="#E087EF"/>
</linearGradient>
</defs>
</svg>
