<svg width="24" height="25" viewBox="0 0 24 25" fill="none" xmlns="http://www.w3.org/2000/svg">
<path fill-rule="evenodd" clip-rule="evenodd" d="M13.5654 24.4111C13.5654 24.5 13.5654 24.5 13.5654 24.5C26.9621 22.6161 26.8304 2.57264 13.5654 0.5C13.5654 0.58889 13.5654 0.58889 13.5654 0.58889C13.5654 1.47778 13.6543 2.27778 13.8321 3.16667C23.5108 5.33944 23.5912 19.7748 13.7432 21.7444C13.6543 22.6333 13.5654 23.5222 13.5654 24.4111Z" fill="#5BD0F4"/>
<path fill-rule="evenodd" clip-rule="evenodd" d="M10.0986 24.5L10.0986 24.4111C10.0986 23.5222 10.0097 22.7222 9.83193 21.8333C0.235559 19.679 0.0306739 5.3447 9.83193 3.34444C10.0097 2.54444 10.0986 1.65555 10.0986 0.766664L10.0986 0.677778C-3.38071 2.36269 -3.23039 22.6256 10.0986 24.5Z" fill="#5BD0F4"/>
<path fill-rule="evenodd" clip-rule="evenodd" d="M11.7875 2.63385C11.2542 6.54496 9.20976 10.1005 6.00977 12.5005C9.20977 14.9005 11.2542 18.4561 11.7875 22.3672C12.3209 18.4561 14.4542 14.8116 17.6542 12.5005C14.4542 10.1005 12.3209 6.54496 11.7875 2.63385Z" fill="#283D74"/>
</svg>
