<svg width="24" height="24" viewBox="0 0 24 24" fill="none" xmlns="http://www.w3.org/2000/svg">
<path d="M16.0056 6.87515C20.2162 6.90423 23.6835 10.4265 23.6254 14.6177C23.5704 18.7927 20.116 22.2084 15.9442 22.2181C11.7562 22.2278 8.25979 18.7023 8.28888 14.5046C8.31796 10.2649 11.7756 6.84929 16.0056 6.87515ZM21.7899 14.5531C21.7963 11.2958 19.1595 8.65244 15.9183 8.66537C12.7386 8.6783 10.1211 11.3055 10.0888 14.5175C10.0532 17.6876 12.7095 20.3729 15.8828 20.3826C19.1756 20.3955 21.7834 17.8233 21.7899 14.5531Z" fill="#FB9A13"/>
<path d="M11.1065 23.4513C6.74408 22.5109 3.38014 18.0838 3.24442 13.4144C3.10223 8.57689 6.39832 4.10779 11.0807 2.7829C15.3688 1.5711 20.5973 3.32255 22.4328 6.65094C17.5417 2.09897 9.80978 2.74781 6.19797 8.54781C3.4997 12.8812 4.18154 20.0001 11.1065 23.4513Z" fill="#FB9A13"/>
<path d="M9.32777 24C4.35461 22.928 0.519754 17.8812 0.365033 12.558C0.202945 7.04337 3.96044 1.94865 9.2983 0.438278C14.1867 -0.943155 20.1472 1.05348 22.2396 4.84781C16.6638 -0.341385 7.84948 0.398279 3.73205 7.01021C0.656055 11.9502 1.43334 20.0657 9.32777 24Z" fill="#FB9A13"/>
<path d="M22.2551 8.34816C17.3821 4.02448 11.4782 5.84055 8.96089 9.34668C7.32578 11.6281 6.85075 14.1389 7.55844 16.8307C8.25644 19.4773 9.98849 21.3192 12.6544 22.6441C9.03521 22.0107 6.12045 18.4238 5.78114 14.4976C5.43538 10.4615 8.05932 6.49008 11.9758 5.1264C15.7469 3.8112 20.1676 5.17811 22.2551 8.34816Z" fill="#FB9A13"/>
<path d="M15.9572 17.47C17.5723 17.47 18.8816 16.1607 18.8816 14.5456C18.8816 12.9304 17.5723 11.6211 15.9572 11.6211C14.342 11.6211 13.0327 12.9304 13.0327 14.5456C13.0327 16.1607 14.342 17.47 15.9572 17.47Z" fill="#FB9A13"/>
</svg>
