<svg width="14" height="14" viewBox="0 0 14 14" fill="none" xmlns="http://www.w3.org/2000/svg">
<path d="M13.3726 6.15646L12.4659 5.10313C12.2926 4.90313 12.1526 4.52979 12.1526 4.26313V3.12979C12.1526 2.42313 11.5726 1.84312 10.8659 1.84312H9.7326C9.4726 1.84312 9.0926 1.70312 8.8926 1.52979L7.83927 0.623125C7.37927 0.229792 6.62594 0.229792 6.15927 0.623125L5.1126 1.53646C4.9126 1.70312 4.5326 1.84312 4.2726 1.84312H3.11927C2.4126 1.84312 1.8326 2.42313 1.8326 3.12979V4.26979C1.8326 4.52979 1.6926 4.90313 1.52594 5.10313L0.625937 6.16313C0.239271 6.62313 0.239271 7.36979 0.625937 7.82979L1.52594 8.88979C1.6926 9.08979 1.8326 9.46313 1.8326 9.72313V10.8631C1.8326 11.5698 2.4126 12.1498 3.11927 12.1498H4.2726C4.5326 12.1498 4.9126 12.2898 5.1126 12.4631L6.16594 13.3698C6.62594 13.7631 7.37927 13.7631 7.84594 13.3698L8.89927 12.4631C9.09927 12.2898 9.4726 12.1498 9.73927 12.1498H10.8726C11.5793 12.1498 12.1593 11.5698 12.1593 10.8631V9.72979C12.1593 9.46979 12.2993 9.08979 12.4726 8.88979L13.3793 7.83646C13.7659 7.37646 13.7659 6.61646 13.3726 6.15646ZM9.7726 5.73646L6.5526 8.95646C6.45927 9.04979 6.3326 9.10312 6.19927 9.10312C6.06594 9.10312 5.93927 9.04979 5.84594 8.95646L4.2326 7.34313C4.03927 7.14979 4.03927 6.82979 4.2326 6.63646C4.42594 6.44312 4.74594 6.44312 4.93927 6.63646L6.19927 7.89646L9.06594 5.02979C9.25927 4.83646 9.57927 4.83646 9.7726 5.02979C9.96594 5.22313 9.96594 5.54312 9.7726 5.73646Z" fill="#27AE60"/>
</svg>
