<svg width="122" height="142" viewBox="0 0 122 142" fill="none" xmlns="http://www.w3.org/2000/svg">
<path d="M84.0347 89.398C84.0347 89.398 81.178 91.8014 80.5978 93.3879C80.0176 94.9741 78.9016 96.9932 78.9016 96.9932L81.3566 100.214L82.1154 99.7331C82.1154 99.7331 84.2133 96.6086 84.749 93.4358C85.2845 90.2631 84.3919 88.821 84.0347 89.398Z" fill="#FFC005" stroke="#1D1D1D" stroke-miterlimit="10" stroke-linejoin="round"/>
<path d="M80.7576 109.367C80.7576 109.367 79.0954 121.435 79.4033 127.004C79.7111 132.574 80.9425 140.995 80.9425 140.995H101.69C101.69 140.995 103.722 128.463 103.722 121.037C103.722 113.611 103.784 112.086 103.784 112.086C103.784 112.086 98.0579 113.279 94.918 113.014C91.7778 112.749 80.7576 109.367 80.7576 109.367Z" fill="#D8DCF6" stroke="#1D1D1D" stroke-miterlimit="10" stroke-linejoin="round"/>
<path d="M82.1726 121.102L83.4653 122.627L85.0659 140.927" stroke="#1D1D1D" stroke-miterlimit="10" stroke-linejoin="round"/>
<path d="M92.5976 114.809C92.5976 114.809 92.5155 116.862 93.4391 118.122C94.3626 119.382 95.7786 119.78 95.7786 119.78" stroke="#1D1D1D" stroke-miterlimit="10" stroke-linejoin="round"/>
<path d="M96.3264 126.746L96.3954 140.794" stroke="#1D1D1D" stroke-miterlimit="10" stroke-linejoin="round"/>
<path d="M96.2717 115.797L96.3174 125.123" stroke="#1D1D1D" stroke-miterlimit="10" stroke-linejoin="round"/>
<path d="M82.1464 118.469L81.9883 119.91" stroke="#1D1D1D" stroke-miterlimit="10" stroke-linejoin="round"/>
<path d="M82.7901 112.617L82.2664 117.391" stroke="#1D1D1D" stroke-miterlimit="10" stroke-linejoin="round"/>
<path d="M90.2425 76.9637C90.2425 76.9637 88.2427 79.656 87.3855 81.656C86.5284 83.656 83.5289 88.1941 83.029 91.4248C82.529 94.6555 81.8863 99.2707 81.8863 99.2707C81.8863 99.2707 80.172 109.886 80.5292 110.655C80.8863 111.424 88.8854 114.116 92.5992 114.808C96.313 115.501 99.2415 115.578 100.955 114.808C102.67 114.039 105.526 113.116 105.241 111.578C104.955 110.039 104.598 108.424 104.598 108.424C104.598 108.424 103.955 90.5017 103.955 88.8096C103.955 87.1176 103.884 79.9639 102.67 77.0411C101.455 74.1183 100.884 73.4258 100.884 73.4258L90.2425 76.9637Z" fill="#FFC005" stroke="#1D1D1D" stroke-miterlimit="10" stroke-linejoin="round"/>
<path d="M92.3846 72.582L89.7423 73.5819L87.8137 78.0433L90.242 76.9664L91.1706 77.6586L93.5276 75.4281L92.3846 72.582Z" fill="white" stroke="#1D1D1D" stroke-miterlimit="10" stroke-linejoin="round"/>
<path d="M91.3269 51.6588C91.3269 51.6588 89.6274 53.8378 89.2227 55.1453C88.8181 56.4527 88.5752 57.5856 87.1994 58.1959C85.8237 58.8059 84.7715 58.6317 84.7715 59.4163C84.7715 60.2008 85.9855 61.2466 85.9855 61.2466C85.9855 61.2466 85.7425 65.9531 86.0663 67.3476C86.3901 68.7422 87.1186 69.0909 87.6041 69.0909C88.0896 69.0909 91.0031 68.7422 91.0031 68.7422L92.7835 74.2332L99.9862 71.0954L99.2577 66.7373C99.2577 66.7373 101.038 63.6866 101.2 62.205C101.362 60.7234 100.067 56.1911 97.3156 53.8378C94.5642 51.4842 92.4597 51.0484 91.3269 51.6588Z" fill="white" stroke="#1D1D1D" stroke-miterlimit="10" stroke-linejoin="round"/>
<path d="M87.478 62.9473C87.478 62.9473 88.8081 63.5291 90.1381 62.4102" stroke="#1D1D1D" stroke-miterlimit="10" stroke-linejoin="round"/>
<path d="M91.0029 68.7409L93.7114 68.3164L91.4668 70.0176L91.0029 68.7409Z" fill="#1D1D1D" stroke="#1D1D1D" stroke-miterlimit="10" stroke-linejoin="round"/>
<path d="M92.0062 58.2525C91.601 59.8119 90.2959 60.7816 89.0913 60.4183C87.8866 60.055 87.2384 58.4967 87.6437 56.9373C88.0489 55.378 89.354 54.4083 90.559 54.7716C91.7633 55.1348 92.4115 56.6932 92.0062 58.2525Z" stroke="#1D1D1D" stroke-miterlimit="10" stroke-linejoin="round"/>
<path d="M92.0073 58.5586L96.6678 60.1124" stroke="#1D1D1D" stroke-miterlimit="10" stroke-linejoin="round"/>
<path d="M89.9178 57.8217C89.8039 58.2365 89.5868 58.5331 89.4326 58.4842C89.2784 58.4353 89.2459 58.0591 89.3595 57.6443C89.4735 57.2295 89.6906 56.9329 89.8448 56.9818C89.999 57.0307 90.0318 57.4066 89.9178 57.8217Z" fill="#1D1D1D"/>
<path d="M89.9297 55.2466C89.9297 55.2466 90.761 55.202 91.1349 55.9182" stroke="#1D1D1D" stroke-miterlimit="10" stroke-linejoin="round"/>
<path d="M97.6384 46.782C97.6384 46.782 96.6673 44.2543 93.0254 44.8646C89.3835 45.4746 89.7881 51.3143 91.0021 53.3189C92.2161 55.3234 95.2104 57.5025 95.2104 57.5025C95.2104 57.5025 95.3722 58.6357 95.696 59.507C96.0197 60.3786 96.667 60.117 96.667 60.117C96.667 60.117 97.8001 61.3373 98.2857 63.6035C98.7712 65.8696 97.881 67.2642 100.309 67.7871C102.737 68.31 104.194 67.4384 104.76 66.0438C105.326 64.6493 105.731 63.5164 105.812 63.1677C105.893 62.819 109.858 59.9428 109.292 55.4976C108.725 51.0524 105.893 48.0892 102.898 47.0433C99.904 45.9975 97.6384 46.782 97.6384 46.782Z" fill="#1D1D1D" stroke="#1D1D1D" stroke-miterlimit="10" stroke-linejoin="round"/>
<path d="M95.6152 61.3286C95.6152 61.3286 97.6385 57.755 98.6905 59.324C99.7427 60.8928 99.6615 62.7231 98.2858 63.5947C96.9101 64.4663 95.777 64.3792 95.777 64.3792" fill="white"/>
<path d="M95.6152 61.3286C95.6152 61.3286 97.6385 57.755 98.6905 59.324C99.7427 60.8928 99.6615 62.7231 98.2858 63.5947C96.9101 64.4663 95.777 64.3792 95.777 64.3792" stroke="#1D1D1D" stroke-miterlimit="10" stroke-linejoin="round"/>
<path d="M107.513 50.9606C107.513 50.9606 105.328 49.479 106.299 45.2954C107.27 41.1118 110.588 40.4144 110.426 41.5477C110.264 42.6806 109.374 44.0751 109.374 44.0751C109.374 44.0751 115.524 40.7631 118.114 43.1164C120.704 45.4696 121.189 51.3965 119.571 53.3139C117.952 55.2313 113.339 54.3597 113.339 54.3597C113.339 54.3597 115.039 55.58 113.339 55.9284C111.64 56.2775 107.998 53.401 107.513 50.9606Z" fill="#1D1D1D" stroke="#1D1D1D" stroke-miterlimit="10" stroke-linejoin="round"/>
<path d="M100.17 69.8867L90.7422 74.2711L90.9565 79.7323L101.67 73.5788L100.17 69.8867Z" fill="white" stroke="#1D1D1D" stroke-miterlimit="10" stroke-linejoin="round"/>
<path d="M95.3837 79.345C95.3837 79.345 94.5266 79.9605 93.1695 83.7293C91.8124 87.4984 89.4557 101.267 89.3842 101.728C89.3126 102.19 86.0272 104.267 85.2417 104.497C84.4561 104.728 73.9572 104.113 73.9572 104.113C73.9572 104.113 73.1716 104.344 73.1716 105.651C73.1716 106.958 73.386 107.651 73.8144 107.959C74.2428 108.266 75.5999 108.035 75.5999 108.035C75.5999 108.035 86.0988 112.804 89.527 113.035C92.9551 113.266 97.2404 113.651 99.3831 109.266C101.526 104.882 104.24 91.9592 104.24 85.8824C104.24 79.8057 103.525 75.5752 99.7399 76.6521" fill="#FFC005"/>
<path d="M95.3837 79.345C95.3837 79.345 94.5266 79.9605 93.1695 83.7293C91.8124 87.4984 89.4557 101.267 89.3842 101.728C89.3126 102.19 86.0272 104.267 85.2417 104.497C84.4561 104.728 73.9572 104.113 73.9572 104.113C73.9572 104.113 73.1716 104.344 73.1716 105.651C73.1716 106.958 73.386 107.651 73.8144 107.959C74.2428 108.266 75.5999 108.035 75.5999 108.035C75.5999 108.035 86.0988 112.804 89.527 113.035C92.9551 113.266 97.2404 113.651 99.3831 109.266C101.526 104.882 104.24 91.9592 104.24 85.8824C104.24 79.8057 103.525 75.5752 99.7399 76.6521" stroke="#1D1D1D" stroke-miterlimit="10" stroke-linejoin="round"/>
<path d="M89.8838 101.806C89.8838 101.806 91.3121 99.4984 91.7408 96.6523" stroke="#1D1D1D" stroke-miterlimit="10" stroke-linejoin="round"/>
<path d="M75.3767 100.403C75.3767 100.403 78.3227 101.413 78.9029 101.413C79.4831 101.413 80.1974 100.596 80.5098 99.6822C80.8222 98.7688 81.2536 98.8478 81.0302 98.367C80.8071 97.8861 79.4699 96.4226 78.8897 96.615C78.3094 96.8073 77.6083 97.9515 77.4746 98.1439C77.3405 98.3362 75.3767 100.403 75.3767 100.403Z" fill="white" stroke="#1D1D1D" stroke-miterlimit="10" stroke-linejoin="round"/>
<path d="M75.4667 96.7969C75.4667 96.7969 73.5919 96.893 73.5026 97.1333C73.4133 97.3735 72.9224 100.306 73.1455 100.691C73.3685 101.075 73.5919 101.075 73.815 100.547C74.0381 100.018 74.4397 98.1911 74.4397 98.1911L75.4216 98.047L75.4667 96.7969Z" fill="white" stroke="#1D1D1D" stroke-miterlimit="10" stroke-linejoin="round"/>
<path d="M75.3329 95.6943C75.3329 95.6943 74.4848 97.4249 74.4403 98.1939C74.3958 98.9629 74.5296 101.174 74.7975 101.318C75.0653 101.462 75.5118 101.511 75.5563 101.222C75.6008 100.934 75.5563 99.0111 75.5563 99.0111C75.5563 99.0111 76.4044 97.1364 76.5382 96.5115C76.6719 95.8866 75.6453 95.3097 75.3329 95.6943Z" fill="white" stroke="#1D1D1D" stroke-miterlimit="10" stroke-linejoin="round"/>
<path d="M76.5385 96.5095C76.5385 96.5095 75.4225 98.5765 75.5566 99.0091C75.6904 99.4417 75.5121 101.509 75.6904 101.653C75.869 101.797 76.1368 101.797 76.3599 101.557C76.583 101.317 76.583 100.596 76.6723 100.307C76.7616 100.019 76.806 98.9612 76.806 98.9612C76.806 98.9612 78.3237 97.6152 78.3682 96.8459C78.413 96.077 77.0739 95.7405 76.5385 96.5095Z" fill="white" stroke="#1D1D1D" stroke-miterlimit="10" stroke-linejoin="round"/>
<path d="M79.5723 96.5586C79.5723 96.5586 80.6883 97.4237 81.0006 98.0969C81.313 98.7697 81.5808 99.4911 81.3578 100.212C81.1347 100.933 79.7509 101.558 79.6171 102.375C79.4833 103.193 78.6797 103.096 78.6797 102.231C78.6797 101.366 79.483 99.3949 79.483 99.3949" fill="white"/>
<path d="M79.5723 96.5586C79.5723 96.5586 80.6883 97.4237 81.0006 98.0969C81.313 98.7697 81.5808 99.4911 81.3578 100.212C81.1347 100.933 79.7509 101.558 79.6171 102.375C79.4833 103.193 78.6797 103.096 78.6797 102.231C78.6797 101.366 79.483 99.3949 79.483 99.3949" stroke="#1D1D1D" stroke-miterlimit="10" stroke-linejoin="round"/>
<path d="M79.5282 98.1481L77.832 100.504C77.832 100.504 77.6982 101.657 77.4303 101.994C77.1625 102.33 76.7608 102.33 76.5377 102.09C76.3147 101.85 76.9842 99.494 76.8056 98.9653C76.627 98.4366 78.3677 96.85 78.3677 96.85C78.3677 96.85 78.6356 96.2251 79.171 96.3692C79.7068 96.5133 79.885 97.3305 79.885 97.3305" fill="white"/>
<path d="M79.5282 98.1481L77.832 100.504C77.832 100.504 77.6982 101.657 77.4303 101.994C77.1625 102.33 76.7608 102.33 76.5377 102.09C76.3147 101.85 76.9842 99.494 76.8056 98.9653C76.627 98.4366 78.3677 96.85 78.3677 96.85C78.3677 96.85 78.6356 96.2251 79.171 96.3692C79.7068 96.5133 79.885 97.3305 79.885 97.3305" stroke="#1D1D1D" stroke-miterlimit="10" stroke-linejoin="round"/>
<path d="M59.1846 85.4531L62.6702 101.639L75.6992 104.716L72.5564 87.3608L59.1846 85.4531Z" fill="#D8DCF6" stroke="#1D1D1D" stroke-miterlimit="10" stroke-linejoin="round"/>
<path d="M75.6978 104.715L85.2415 104.5L75.2976 102.191L75.6978 104.715Z" fill="#1D1D1D" stroke="#1D1D1D" stroke-miterlimit="10" stroke-linejoin="round"/>
<path d="M63.4585 101.129C63.4585 101.129 63.9049 103.484 64.1728 103.821C64.4407 104.157 66.2707 104.446 66.2707 104.446L63.4585 101.129Z" fill="white" stroke="#1D1D1D" stroke-miterlimit="10" stroke-linejoin="round"/>
<path d="M66.94 104.682C66.94 104.682 65.11 103.817 64.9315 103.672C64.7529 103.528 63.5031 101.509 63.4583 101.124C63.4138 100.74 63.7262 100.692 64.1278 100.932C64.5295 101.172 65.2438 102.23 65.2438 102.23L65.9578 103.432L66.94 104.682Z" fill="white" stroke="#1D1D1D" stroke-miterlimit="10" stroke-linejoin="round"/>
<path d="M67.7891 102.903C67.7891 102.903 67.1659 102.942 66.7625 102.422C66.1245 101.601 65.5629 100.036 65.2893 99.6821C64.8429 99.1051 64.7536 100.451 65.1108 101.364C65.4679 102.278 65.8248 103.624 66.4498 104.105C67.0745 104.585 68.3246 106.075 68.7707 106.172C69.2172 106.268 73.145 106.124 73.145 106.124C73.145 106.124 73.0112 105.499 73.145 105.018C73.2788 104.537 73.4574 104.201 73.4574 104.201L67.7891 102.903Z" fill="white" stroke="#1D1D1D" stroke-miterlimit="10" stroke-linejoin="round"/>
<path d="M69.0815 105.548C69.0815 105.548 67.9656 103.866 67.9656 103.433C67.9656 103 68.1442 99.491 68.6351 99.8274C69.126 100.164 69.1708 100.837 69.1708 101.558C69.1708 102.279 69.3046 103.385 69.3046 103.385L70.0634 104.298" fill="white"/>
<path d="M69.0815 105.548C69.0815 105.548 67.9656 103.866 67.9656 103.433C67.9656 103 68.1442 99.491 68.6351 99.8274C69.126 100.164 69.1708 100.837 69.1708 101.558C69.1708 102.279 69.3046 103.385 69.3046 103.385L70.0634 104.298" stroke="#1D1D1D" stroke-miterlimit="10" stroke-linejoin="round"/>
<path d="M4.89209 35.2656V51.7371" stroke="#1D1D1D" stroke-miterlimit="10" stroke-linejoin="round"/>
<path d="M3.57983 49.0703H38.2464" stroke="#1D1D1D" stroke-miterlimit="10" stroke-linejoin="round"/>
<path d="M3.75989 47.8672H4.96665" stroke="#1D1D1D" stroke-miterlimit="10" stroke-linejoin="round"/>
<path d="M3.75989 46.3281H4.96665" stroke="#1D1D1D" stroke-miterlimit="10" stroke-linejoin="round"/>
<path d="M3.76001 44.7812H4.96677" stroke="#1D1D1D" stroke-miterlimit="10" stroke-linejoin="round"/>
<path d="M3.75989 43.2422H4.96665" stroke="#1D1D1D" stroke-miterlimit="10" stroke-linejoin="round"/>
<path d="M3.75989 41.6953H4.96665" stroke="#1D1D1D" stroke-miterlimit="10" stroke-linejoin="round"/>
<path d="M3.75989 40.1523H4.96665" stroke="#1D1D1D" stroke-miterlimit="10" stroke-linejoin="round"/>
<path d="M3.75989 38.6094H4.96665" stroke="#1D1D1D" stroke-miterlimit="10" stroke-linejoin="round"/>
<path d="M3.75989 37.0664H4.96665" stroke="#1D1D1D" stroke-miterlimit="10" stroke-linejoin="round"/>
<path d="M4.81421 49.1671L10.5459 37.8771L11.9036 39.8266L17.5598 33.0039L19.8221 40.1514L20.9534 38.3644L24.1964 47.2989L29.4753 35.928L33.925 47.1367L34.9054 44.1313L37.168 48.9233L4.81421 49.1671Z" fill="#D8DCF6" stroke="#1D1D1D" stroke-miterlimit="10" stroke-linejoin="round"/>
<path d="M4.81433 49.1686L8.58524 44.4579L10.3199 45.5138L15.2973 37.4727L19.1437 45.676L21.7078 42.4272L24.121 45.1074L29.2493 38.8536L34.981 47.2191L36.0368 46.0823L37.1681 48.9248L4.81433 49.1686Z" fill="#FFC005" stroke="#1D1D1D" stroke-miterlimit="10" stroke-linejoin="round"/>
<path d="M8.6533 72.0742H5.90637V82.2199H8.6533V72.0742Z" fill="#D8DCF6" stroke="#1D1D1D" stroke-miterlimit="10" stroke-linejoin="round"/>
<path d="M12.1175 73.0586H9.37061V82.2168H12.1175V73.0586Z" fill="#FFC005" stroke="#1D1D1D" stroke-miterlimit="10" stroke-linejoin="round"/>
<path d="M15.5806 71.9609H12.8336V82.2164H15.5806V71.9609Z" fill="#D8DCF6" stroke="#1D1D1D" stroke-miterlimit="10" stroke-linejoin="round"/>
<path d="M19.0447 68.6758H16.2977V82.2228H19.0447V68.6758Z" fill="#FFC005" stroke="#1D1D1D" stroke-miterlimit="10" stroke-linejoin="round"/>
<path d="M22.5104 65.3828H19.7634V82.2214H22.5104V65.3828Z" fill="#D8DCF6" stroke="#1D1D1D" stroke-miterlimit="10" stroke-linejoin="round"/>
<path d="M21.3783 62.0781L18.7011 62.4382L19.2432 63.2097L10.3912 70.4265L6.43656 69.076L6.16418 70.002L10.5634 71.5044L19.7876 63.9839L20.3297 64.7552L21.3783 62.0781Z" fill="#1D1D1D"/>
<path d="M50.8531 23.5273H45.4497V25.8829H50.8531V23.5273Z" fill="white" stroke="#1D1D1D" stroke-miterlimit="10" stroke-linejoin="round"/>
<path d="M56.3848 27.5469H45.4497V29.9024H56.3848V27.5469Z" fill="#D8DCF6" stroke="#1D1D1D" stroke-miterlimit="10" stroke-linejoin="round"/>
<path d="M68.8637 31.5625H45.4497V33.918H68.8637V31.5625Z" fill="#FFC005" stroke="#1D1D1D" stroke-miterlimit="10" stroke-linejoin="round"/>
<path d="M44.5368 66.9648C40.8233 66.9648 37.8127 70.2069 37.8127 74.2066C37.8127 78.2059 40.823 81.4479 44.5368 81.4479C48.2503 81.4479 51.2606 78.2059 51.2606 74.2066C51.2606 70.2072 48.2503 66.9648 44.5368 66.9648ZM44.5368 76.3231C43.4515 76.3231 42.5715 75.3754 42.5715 74.2066C42.5715 73.0377 43.4515 72.09 44.5368 72.09C45.6221 72.09 46.5021 73.0377 46.5021 74.2066C46.5021 75.3754 45.6221 76.3231 44.5368 76.3231Z" fill="#FFC005" stroke="#1D1D1D" stroke-miterlimit="10" stroke-linejoin="round"/>
<path d="M44.5371 81.4503C46.8373 81.4503 48.8669 80.2057 50.0791 78.3083L46.1895 75.3516C45.8398 75.9366 45.231 76.3255 44.5368 76.3255C44.0946 76.3255 43.6878 76.1662 43.3595 75.901L40.4836 79.9868C41.611 80.9051 43.0147 81.4503 44.5371 81.4503Z" fill="white" stroke="#1D1D1D" stroke-miterlimit="10" stroke-linejoin="round"/>
<path d="M45.4242 67.0312L44.8337 72.1182C45.7783 72.2723 46.5032 73.1478 46.5032 74.2082C46.5032 74.6294 46.3874 75.0209 46.1905 75.3508L50.0802 78.3076C50.8252 77.142 51.262 75.7303 51.262 74.2082C51.2617 70.5326 48.7186 67.4988 45.4242 67.0312Z" fill="#D8DCF6" stroke="#1D1D1D" stroke-miterlimit="10" stroke-linejoin="round"/>
<path d="M33.8182 63.0156H37.4205" stroke="#1D1D1D" stroke-miterlimit="10" stroke-linejoin="round"/>
<path d="M33.8185 64.5391H37.4207" stroke="#1D1D1D" stroke-miterlimit="10" stroke-linejoin="round"/>
<path d="M33.8185 66.0625H37.4207" stroke="#1D1D1D" stroke-miterlimit="10" stroke-linejoin="round"/>
<path d="M38.7072 64.125H42.6954V69.1129" stroke="#1D1D1D" stroke-miterlimit="10" stroke-linejoin="round"/>
<path d="M59.2649 44.0039C55.5514 44.0039 52.5411 47.2459 52.5411 51.2453C52.5411 55.2446 55.5514 58.487 59.2649 58.487C62.9784 58.487 65.989 55.245 65.989 51.2453C65.9887 47.2459 62.9784 44.0039 59.2649 44.0039ZM59.2649 53.3619C58.1796 53.3619 57.2996 52.4145 57.2996 51.2453C57.2996 50.0764 58.1796 49.1287 59.2649 49.1287C60.3502 49.1287 61.2302 50.0764 61.2302 51.2453C61.2299 52.4145 60.3502 53.3619 59.2649 53.3619Z" fill="#FFC005" stroke="#1D1D1D" stroke-miterlimit="10" stroke-linejoin="round"/>
<path d="M61.2204 51.4453C61.1678 52.0543 60.8753 52.5866 60.4463 52.9354L63.312 57.0296C64.7803 55.8358 65.7787 54.0084 65.9582 51.9252L61.2204 51.4453Z" fill="white" stroke="#1D1D1D" stroke-miterlimit="10" stroke-linejoin="round"/>
<path d="M59.2651 44.0039V49.1291C60.3504 49.1291 61.2304 50.0768 61.2304 51.2456C61.2304 51.3123 61.2268 51.3784 61.2211 51.4438L65.9588 51.9236C65.9781 51.7002 65.9892 51.4745 65.9892 51.2459C65.9889 47.2459 62.9786 44.0039 59.2651 44.0039Z" fill="#D8DCF6" stroke="#1D1D1D" stroke-miterlimit="10" stroke-linejoin="round"/>
<path d="M65.1885 62.0898H68.7904" stroke="#1D1D1D" stroke-miterlimit="10" stroke-linejoin="round"/>
<path d="M65.1885 63.6133H68.7904" stroke="#1D1D1D" stroke-miterlimit="10" stroke-linejoin="round"/>
<path d="M65.1885 65.1367H68.7904" stroke="#1D1D1D" stroke-miterlimit="10" stroke-linejoin="round"/>
<path d="M64.0317 54.4648H66.9909V62.0854" stroke="#1D1D1D" stroke-miterlimit="10" stroke-linejoin="round"/>
<path d="M64.3356 140.992H0.245483" stroke="#1D1D1D" stroke-miterlimit="10" stroke-linejoin="round"/>
<path d="M121.235 140.992H66.5857" stroke="#1D1D1D" stroke-miterlimit="10" stroke-linejoin="round"/>
<path d="M13.3648 118.544C14.0659 118.873 15.7804 118.832 15.7819 118.832C15.7997 118.831 15.4133 117.623 15.3809 117.55C15.0048 116.702 13.8149 115.303 12.8468 115.443C12.1493 115.545 11.7615 116.297 11.919 117.004C12.0799 117.726 12.7677 118.263 13.3648 118.544Z" fill="#8148FF"/>
<path d="M13.957 123.89C14.6842 124.004 16.2145 123.526 16.3362 123.487C16.5779 124.41 16.8954 125.335 17.2643 126.253C17.4747 126.778 17.702 127.299 17.9356 127.819C17.7961 127.599 17.6698 127.403 17.6494 127.378C17.0785 126.667 15.5879 125.656 14.689 126.067C14.0408 126.364 13.8514 127.199 14.1767 127.836C14.5086 128.487 15.3041 128.809 15.9487 128.91C16.6029 129.013 17.9152 128.634 18.2612 128.528C18.3529 128.727 18.4422 128.926 18.5348 129.124C18.9779 130.074 19.4238 131.02 19.835 131.963C19.98 132.295 20.1113 132.628 20.2442 132.96C20.1201 132.765 20.0139 132.601 19.9953 132.578C19.4247 131.867 17.9341 130.856 17.0346 131.267C16.3867 131.563 16.197 132.399 16.5223 133.036C16.8545 133.687 17.6497 134.009 18.2946 134.11C18.919 134.208 20.133 133.87 20.5449 133.747C20.6711 134.091 20.7983 134.437 20.9062 134.777C20.9751 135.011 21.0565 135.231 21.1134 135.47C21.1747 135.706 21.2348 135.94 21.2946 136.171C21.3948 136.62 21.5006 137.083 21.5881 137.524C21.6509 137.831 21.7059 138.124 21.7618 138.419C21.6211 138.087 21.3328 137.442 21.3028 137.391C20.8386 136.596 19.5073 135.353 18.5606 135.613C17.8788 135.8 17.5736 136.595 17.8057 137.278C18.0426 137.975 18.7831 138.423 19.4063 138.628C20.0924 138.854 21.6112 138.648 21.8009 138.62C21.892 139.109 21.9762 139.585 22.0489 140.036C22.1037 140.37 22.1533 140.691 22.199 140.999H22.8072C22.7497 140.656 22.6869 140.297 22.6178 139.922C22.5273 139.425 22.4211 138.897 22.3078 138.355C22.422 138.306 23.0696 138.023 23.6438 137.678C24.1438 138.261 25.4251 138.944 25.5908 139.031C25.4164 139.492 25.2426 139.94 25.0725 140.359C24.9829 140.581 24.8957 140.791 24.8091 140.999H25.4522C25.5033 140.868 25.5538 140.739 25.6058 140.602C25.7847 140.134 25.9672 139.629 26.15 139.11C26.3336 139.151 27.8371 139.48 28.5379 139.31C29.1735 139.155 29.9431 138.768 30.2278 138.091C30.5062 137.429 30.257 136.612 29.5896 136.371C28.6636 136.035 27.25 137.168 26.7323 137.924C26.7016 137.969 26.4202 138.492 26.248 138.826C26.3216 138.613 26.3953 138.407 26.4686 138.188C26.6165 137.754 26.7521 137.316 26.8994 136.846C26.9632 136.616 27.0278 136.384 27.0931 136.149C27.1622 135.918 27.2079 135.665 27.2671 135.421C27.3931 134.851 27.495 134.267 27.5855 133.677C27.9385 133.815 29.1987 134.288 29.8517 134.238C30.5017 134.189 31.3167 133.932 31.6931 133.309C32.0617 132.7 31.93 131.852 31.3047 131.504C30.4365 131.022 28.8801 131.911 28.2616 132.574C28.2232 132.615 27.829 133.144 27.618 133.44C27.6697 133.084 27.7232 132.73 27.7647 132.369C27.8849 131.325 27.9763 130.266 28.0722 129.208C28.1014 128.885 28.1342 128.563 28.1657 128.24C28.2908 128.291 29.7775 128.887 30.5089 128.831C31.1589 128.782 31.9742 128.525 32.3503 127.903C32.7189 127.293 32.5872 126.445 31.9619 126.098C31.0937 125.616 29.5372 126.505 28.9191 127.167C28.8725 127.217 28.3067 127.98 28.1714 128.181C28.2412 127.471 28.3167 126.763 28.4177 126.069C28.5554 125.111 28.74 124.179 28.9808 123.29C29.0388 123.314 30.5883 123.944 31.3372 123.887C31.9871 123.838 32.8025 123.581 33.1789 122.958C33.5475 122.349 33.4161 121.5 32.7905 121.153C31.9222 120.671 30.3658 121.56 29.7474 122.223C29.699 122.275 29.0905 123.095 28.9901 123.252C29.0045 123.2 29.0141 123.143 29.0292 123.091C29.2973 122.146 29.6674 121.267 30.051 120.462C30.2732 119.994 30.5101 119.559 30.7491 119.143C31.0266 119.292 32.301 119.958 32.9802 119.988C33.6313 120.016 34.468 119.857 34.9051 119.283C35.3336 118.72 35.2894 117.862 34.7031 117.443C33.8893 116.86 32.2517 117.56 31.5693 118.145C31.5323 118.177 31.1884 118.546 30.9415 118.818C31.0519 118.632 31.1628 118.438 31.2722 118.261C31.6808 117.599 32.093 117.019 32.4619 116.508C32.6738 116.22 32.8707 115.964 33.0574 115.726C33.4004 115.72 34.7828 115.674 35.3871 115.369C35.9766 115.071 36.6513 114.514 36.7938 113.788C36.9333 113.076 36.5268 112.336 35.8272 112.255C34.8558 112.142 33.7017 113.576 33.3469 114.434C33.3163 114.508 32.9603 115.727 32.9784 115.727C32.9784 115.727 32.9949 115.727 32.9991 115.727C32.8151 115.952 32.6206 116.195 32.4129 116.466C32.0328 116.969 31.6077 117.54 31.1844 118.196C30.7593 118.85 30.315 119.574 29.9103 120.382C29.5039 121.191 29.1152 122.064 28.8223 123.02C28.819 123.03 28.8169 123.042 28.8136 123.053C28.8187 122.745 28.8061 121.883 28.798 121.817C28.6858 120.885 27.9607 119.155 26.9999 118.964C26.3078 118.826 25.7218 119.41 25.6665 120.135C25.6103 120.875 26.1085 121.616 26.5946 122.084C27.1427 122.611 28.6636 123.121 28.785 123.162C28.5139 124.075 28.3046 125.035 28.1423 126.02C28.0491 126.583 27.9712 127.153 27.9003 127.726C27.8967 127.459 27.8916 127.22 27.8873 127.187C27.7752 126.255 27.0501 124.526 26.0895 124.335C25.3975 124.197 24.8112 124.781 24.7562 125.506C24.6997 126.246 25.1981 126.987 25.684 127.454C26.177 127.929 27.4659 128.392 27.8083 128.51C27.783 128.73 27.7557 128.949 27.7313 129.169C27.6141 130.225 27.5016 131.279 27.3615 132.31C27.3125 132.673 27.2518 133.028 27.192 133.384C27.1884 133.148 27.1839 132.948 27.1802 132.918C27.0681 131.986 26.343 130.257 25.3827 130.066C24.6904 129.928 24.1044 130.512 24.0491 131.237C23.9926 131.976 24.4913 132.718 24.9772 133.185C25.4477 133.638 26.6337 134.077 27.0401 134.219C26.9689 134.582 26.8979 134.945 26.8138 135.293C26.7512 135.53 26.7061 135.761 26.6313 135.995C26.5615 136.228 26.4924 136.458 26.4241 136.687C26.2771 137.121 26.1283 137.57 25.9756 137.99C25.8713 138.283 25.7666 138.56 25.6623 138.839C25.7149 138.479 25.8048 137.77 25.806 137.71C25.8193 137.086 25.6136 136.071 25.2038 135.358C25.2062 135.266 25.2014 135.174 25.1879 135.083C25.0809 134.364 24.4544 133.831 23.7743 134.026C22.8303 134.297 22.2317 136.082 22.1869 137.02C22.1842 137.075 22.2179 137.679 22.245 138.06C22.1972 137.839 22.1536 137.623 22.1022 137.396C22.0033 136.947 21.892 136.501 21.7742 136.021C21.7098 135.791 21.6446 135.559 21.5787 135.325C21.518 135.092 21.4263 134.853 21.3506 134.614C21.1639 134.064 20.9498 133.517 20.7228 132.97C21.0884 132.876 22.3815 132.521 22.9007 132.092C23.4178 131.665 23.9658 130.966 23.961 130.224C23.9562 129.496 23.4123 128.867 22.7125 128.949C21.7411 129.062 20.8984 130.729 20.7219 131.649C20.7111 131.706 20.6534 132.382 20.6284 132.754C20.4895 132.427 20.3527 132.099 20.2021 131.773C19.7683 130.831 19.3017 129.893 18.8399 128.954C18.6983 128.667 18.5606 128.379 18.4214 128.091C18.5519 128.059 20.0975 127.673 20.6789 127.192C21.1957 126.765 21.7441 126.066 21.7393 125.324C21.7345 124.597 21.1903 123.967 20.4907 124.049C19.5194 124.163 18.6767 125.829 18.5002 126.749C18.487 126.818 18.4055 127.791 18.3959 128.039C18.0901 127.405 17.7907 126.769 17.5189 126.131C17.1431 125.25 16.8196 124.363 16.5653 123.479C16.626 123.464 18.2408 123.069 18.8363 122.576C19.3534 122.149 19.9015 121.45 19.8967 120.708C19.8919 119.98 19.348 119.351 18.6481 119.433C17.6771 119.546 16.8341 121.213 16.6579 122.133C16.6441 122.205 16.5569 123.251 16.5539 123.442C16.5388 123.389 16.5178 123.336 16.5034 123.284C16.243 122.336 16.1011 121.383 16.0091 120.483C15.9547 119.961 15.9298 119.458 15.9156 118.969C16.2235 118.928 17.6281 118.727 18.2095 118.348C18.7669 117.984 19.3832 117.354 19.4538 116.616C19.523 115.893 19.0465 115.203 18.343 115.201C17.3662 115.199 16.3585 116.756 16.0894 117.649C16.0747 117.698 15.9767 118.21 15.9105 118.584C15.9072 118.362 15.9 118.134 15.9009 117.922C15.9024 117.127 15.949 116.398 15.9953 115.754C16.0245 115.387 16.0572 115.056 16.0915 114.747C16.3741 114.538 17.5039 113.679 17.8514 113.065C18.1906 112.466 18.468 111.602 18.2149 110.911C17.9669 110.234 17.2487 109.858 16.6236 110.206C15.7557 110.689 15.5275 112.571 15.6709 113.498C15.6835 113.578 16.0112 114.806 16.0263 114.795C16.0263 114.795 16.0401 114.785 16.0431 114.783C16.0049 115.079 15.9673 115.398 15.9325 115.747C15.8729 116.392 15.8113 117.121 15.7942 117.92C15.7749 118.718 15.7746 119.586 15.8513 120.5C15.927 121.416 16.0497 122.375 16.295 123.346C16.2977 123.357 16.3019 123.368 16.3049 123.379C16.1513 123.119 15.6989 122.408 15.6583 122.357C15.0877 121.647 13.5968 120.635 12.6979 121.047C12.05 121.343 11.8603 122.178 12.1856 122.816C12.5172 123.467 13.3124 123.788 13.957 123.89Z" fill="#8148FF"/>
<path d="M30.7081 118.946C30.7232 118.956 31.0199 117.718 31.0304 117.638C31.1507 116.708 30.8753 114.834 29.9956 114.376C29.3619 114.046 28.6536 114.443 28.4227 115.126C28.1867 115.824 28.4858 116.68 28.84 117.269C29.2554 117.961 30.7069 118.945 30.7081 118.946Z" fill="#8148FF"/>
<path d="M12.2487 91.4808C12.2487 91.4808 19.1279 96.1426 30.5843 96.3631C40.5778 96.5554 45.4148 93.6456 50.9579 91.4805" stroke="#1D1D1D" stroke-width="4" stroke-linejoin="round"/>
<path d="M51.0505 94.2009L54.2472 90.3498L49.5521 89.293L51.0505 94.2009Z" fill="#1D1D1D"/>
<path d="M37.6238 37.125C39.1781 42.7944 41.447 48.2346 44.5222 53.1409C49.5101 61.0985 56.7573 66.5364 63.347 72.8145C65.9003 75.2471 67.5719 78.7482 68.5471 81.352" stroke="#1D1D1D" stroke-width="4" stroke-linejoin="round"/>
<path d="M66.0151 81.5042L69.6466 84.879L70.5452 79.8047L66.0151 81.5042Z" fill="#1D1D1D"/>
<path d="M33.9707 12.0938C34.3143 17.4193 34.9216 22.7404 35.733 28.0083" stroke="#1D1D1D" stroke-width="4" stroke-linejoin="round"/>
<path d="M33.2664 27.7113L36.3509 31.6673L37.9903 26.8125L33.2664 27.7113Z" fill="#1D1D1D"/>
<path d="M77.5849 45.3945C75.7973 53.6199 75.4558 59.6853 75.5776 63.3314" stroke="#1D1D1D" stroke-width="4" stroke-linejoin="round"/>
<path d="M73.1599 62.8641L76.0058 67.0224L77.9271 62.2891L73.1599 62.8641Z" fill="#1D1D1D"/>
<path d="M89.8764 21.8008C89.8764 21.8008 83.3327 26.4027 79.4229 38.3535" stroke="#1D1D1D" stroke-width="4" stroke-linejoin="round"/>
<path d="M77.3862 36.8555L78.4027 41.9039L81.9544 38.4323L77.3862 36.8555Z" fill="#1D1D1D"/>
<path d="M17.3666 52.25C17.3666 52.25 20.1297 55.074 24.0104 56.5816C25.4547 57.1427 26.9118 57.415 28.3035 57.856" stroke="#1D1D1D" stroke-width="4" stroke-linejoin="round"/>
<path d="M26.6603 59.9873L31.429 59.4327L28.5991 55.2617L26.6603 59.9873Z" fill="#1D1D1D"/>
<path d="M80.4617 5.82016C75.1404 11.7904 71.9136 21.1283 72.928 27.8396C74.3599 37.3135 77.6333 22.3314 89.4989 16.3826C101.364 10.4341 99.7281 2.06234 94.8181 0.519199C89.4667 -1.16285 84.3925 1.4096 80.4617 5.82016Z" fill="#8148FF"/>
<path d="M53.0833 95.2578C53.0833 95.2578 45.7186 100.766 39.1719 101.867C32.6255 102.969 26.0788 102.308 26.2835 106.715C26.4879 111.122 32.4207 110.681 38.3535 108.257C44.2863 105.833 53.0833 95.2578 53.0833 95.2578Z" fill="#8148FF"/>
<path d="M18.7202 14.5856C17.6418 15.6188 17.2381 17.5372 17.6908 19.2442C18.9183 23.871 26.897 29.3792 26.897 29.3792C26.897 29.3792 27.1014 26.9557 25.2603 20.1255C24.7703 18.3072 23.9537 14.9479 22.0561 14.1501C20.6362 13.5531 19.5013 13.837 18.7202 14.5856Z" fill="#8148FF"/>
<path d="M105.003 26.3319C104.938 26.3565 104.872 26.3821 104.808 26.4083C103.151 27.0753 101.669 28.1584 100.26 29.3104C99.1026 30.2575 97.0111 31.7595 96.9404 33.4075C98.3546 33.6491 99.9694 32.738 101.397 32.4168C103.104 32.0324 104.865 31.9868 106.571 31.5989C108.277 31.211 109.999 30.4109 111.021 28.8885C111.304 28.4663 111.534 27.9512 111.443 27.4399C111.318 26.7337 110.643 26.3099 110.007 26.092C108.388 25.5374 106.61 25.7245 105.003 26.3319Z" fill="#8148FF"/>
<path d="M6.74655 104.733C8.38485 104.733 9.71295 103.303 9.71295 101.539C9.71295 99.7741 8.38485 98.3438 6.74655 98.3438C5.10825 98.3438 3.78015 99.7741 3.78015 101.539C3.78015 103.303 5.10825 104.733 6.74655 104.733Z" fill="#D9D9D9"/>
<path d="M33.6487 88.0986C33.6487 88.7679 33.1448 89.3105 32.5234 89.3105C31.9019 89.3105 31.3981 88.7679 31.3981 88.0986C31.3981 87.4294 31.9019 86.8867 32.5234 86.8867C33.1448 86.8867 33.6487 87.4294 33.6487 88.0986Z" fill="#D9D9D9"/>
<path d="M7.46249 61.4385C7.46249 62.1077 6.95862 62.6504 6.3372 62.6504C5.71579 62.6504 5.21191 62.1077 5.21191 61.4385C5.21191 60.7692 5.71579 60.2266 6.3372 60.2266C6.95862 60.2266 7.46249 60.7692 7.46249 61.4385Z" fill="#D9D9D9"/>
<path d="M45.1057 46.3471C45.7836 46.3471 46.3332 45.7553 46.3332 45.0251C46.3332 44.295 45.7836 43.7031 45.1057 43.7031C44.4277 43.7031 43.8782 44.295 43.8782 45.0251C43.8782 45.7553 44.4277 46.3471 45.1057 46.3471Z" fill="#D9D9D9"/>
<path d="M61.8021 17.7578C62.167 16.1002 61.2151 14.4378 59.676 14.0448C58.1369 13.6518 56.5933 14.6769 56.2284 16.3346C55.8635 17.9922 56.8153 19.6545 58.3545 20.0476C59.8936 20.4406 61.4372 19.4154 61.8021 17.7578Z" fill="#D9D9D9"/>
<path d="M73.5406 42.0493C73.5406 42.8403 72.9453 43.4814 72.2108 43.4814C71.4764 43.4814 70.8811 42.8403 70.8811 42.0493C70.8811 41.2583 71.4764 40.6172 72.2108 40.6172C72.9453 40.6172 73.5406 41.2583 73.5406 42.0493Z" fill="#D9D9D9"/>
<path d="M76.0987 78.2959C77.1721 78.2959 78.0423 77.3587 78.0423 76.2026C78.0423 75.0465 77.1721 74.1094 76.0987 74.1094C75.0252 74.1094 74.155 75.0465 74.155 76.2026C74.155 77.3587 75.0252 78.2959 76.0987 78.2959Z" fill="#D9D9D9"/>
</svg>
