<svg width="212" height="140" viewBox="0 0 212 140" fill="none" xmlns="http://www.w3.org/2000/svg">
<path d="M12.8535 115.516H196.451" stroke="#051321" stroke-miterlimit="10" stroke-linecap="round" stroke-linejoin="round"/>
<path d="M169.093 130.685C184.203 130.685 196.452 129.143 196.452 127.241C196.452 125.339 184.203 123.797 169.093 123.797C153.983 123.797 141.733 125.339 141.733 127.241C141.733 129.143 153.983 130.685 169.093 130.685Z" fill="#051321" stroke="#051321" stroke-width="2.5" stroke-miterlimit="10" stroke-linecap="round" stroke-linejoin="round"/>
<path d="M41.6189 130.685C56.729 130.685 68.9781 129.143 68.9781 127.241C68.9781 125.339 56.729 123.797 41.6189 123.797C26.5089 123.797 14.2598 125.339 14.2598 127.241C14.2598 129.143 26.5089 130.685 41.6189 130.685Z" fill="#051321" stroke="#051321" stroke-width="2.5" stroke-miterlimit="10" stroke-linecap="round" stroke-linejoin="round"/>
<path d="M164.998 62.9922H84.2373V65.7866H107.524L102.628 118.225H104.405L111.05 65.7866H140.738L147.383 118.225H149.16L144.264 65.7866H164.998V62.9922Z" fill="white" stroke="#051321" stroke-miterlimit="10" stroke-linecap="round" stroke-linejoin="round"/>
<path d="M151.355 23.072H105.39V13.86C105.39 12.0036 106.888 10.5 108.737 10.5H148.01C149.859 10.5 151.357 12.0036 151.357 13.86V23.072H151.355Z" fill="white" stroke="#051321" stroke-miterlimit="10" stroke-linecap="round" stroke-linejoin="round"/>
<path d="M113.741 15.8047V22.9139" stroke="#051321" stroke-miterlimit="10" stroke-linecap="round" stroke-linejoin="round"/>
<path d="M121.376 15.8047V22.9139" stroke="#051321" stroke-miterlimit="10" stroke-linecap="round" stroke-linejoin="round"/>
<path d="M129.011 15.8047V22.9139" stroke="#051321" stroke-miterlimit="10" stroke-linecap="round" stroke-linejoin="round"/>
<path d="M136.646 15.8047V22.9139" stroke="#051321" stroke-miterlimit="10" stroke-linecap="round" stroke-linejoin="round"/>
<path d="M144.28 15.8047V22.9139" stroke="#051321" stroke-miterlimit="10" stroke-linecap="round" stroke-linejoin="round"/>
<path d="M108.151 19.4391H105.264V15.8047H103.652C102.38 15.8047 101.348 16.8407 101.348 18.1175V23.0707H108.151V19.4391Z" fill="white" stroke="#051321" stroke-miterlimit="10" stroke-linecap="round" stroke-linejoin="round"/>
<path d="M148.473 19.4391H151.36V15.8047H152.972C154.244 15.8047 155.276 16.8407 155.276 18.1175V23.0707H148.473V19.4391Z" fill="white" stroke="#051321" stroke-miterlimit="10" stroke-linecap="round" stroke-linejoin="round"/>
<path d="M158.152 62.9933H92.7808C91.2299 62.9933 89.9746 61.7305 89.9746 60.1765V25.7309C89.9746 24.1741 91.2327 22.9141 92.7808 22.9141H158.152C159.703 22.9141 160.958 24.1769 160.958 25.7309V60.1765C160.958 61.7333 159.7 62.9933 158.152 62.9933Z" fill="white" stroke="#051321" stroke-miterlimit="10" stroke-linecap="round" stroke-linejoin="round"/>
<path d="M153.625 39.6046V31.6386C153.625 30.3786 152.607 29.3594 151.355 29.3594H100.745C99.49 29.3594 98.4746 30.3814 98.4746 31.6386V39.6046H153.625Z" fill="white" stroke="#051321" stroke-miterlimit="10" stroke-linecap="round" stroke-linejoin="round"/>
<path d="M136.177 39.5078H153.511C153.511 39.5078 154.668 49.3778 149.669 53.6674C145.951 56.8566 139.541 55.815 139.541 55.815L136.177 39.5078Z" fill="#F7F8F9" stroke="#051321" stroke-miterlimit="10" stroke-linecap="round" stroke-linejoin="round"/>
<path d="M112.38 31.6641L131.63 31.7929C138.464 31.5969 143.82 37.6393 142.83 44.4321L142.305 48.0273C142.054 49.7437 142.551 51.4853 143.664 52.8097C145.357 54.8201 148.445 54.8257 150.141 52.8153L151.907 50.7237C148.835 56.7297 141.51 57.5473 134.453 57.2645L123.354 56.9005C123.192 56.8949 123.03 56.8865 122.868 56.8753C116.921 56.4553 112.377 51.3509 112.377 45.3673V31.6641H112.38Z" fill="#7539FF" stroke="#051321" stroke-miterlimit="10" stroke-linecap="round" stroke-linejoin="round"/>
<path d="M125.683 99.1007C114.341 99.0251 89.4953 98.9019 82.7308 99.2407C112.402 78.6103 60.8502 57.9771 76.3066 37.3467C79.1463 33.5555 83.6764 31.4219 88.4018 31.4695L131.733 31.9063C104.204 51.0499 149.198 71.8007 138.891 91.3251C136.319 96.1943 131.173 99.1371 125.683 99.1007Z" fill="white"/>
<path d="M125.683 99.1007C114.341 99.0251 89.4953 98.9019 82.7308 99.2407C112.402 78.6103 60.8502 57.9771 76.3066 37.3467C79.1463 33.5555 83.6764 31.4219 88.4018 31.4695L131.733 31.9063C104.204 51.0499 149.198 71.8007 138.891 91.3251C136.319 96.1943 131.173 99.1371 125.683 99.1007Z" stroke="#051321" stroke-miterlimit="10" stroke-linecap="round" stroke-linejoin="round"/>
<path d="M130.668 85.3984C128.771 85.3984 118.86 85.3984 116.963 85.3984" stroke="#051321" stroke-miterlimit="10" stroke-linecap="round" stroke-linejoin="round"/>
<path d="M134.799 85.3984C133.814 85.3984 132.829 85.3984 131.845 85.3984" stroke="#051321" stroke-miterlimit="10" stroke-linecap="round" stroke-linejoin="round"/>
<path d="M129.374 87.5625C127.477 87.5625 117.566 87.5625 115.669 87.5625" stroke="#051321" stroke-miterlimit="10" stroke-linecap="round" stroke-linejoin="round"/>
<path d="M133.508 87.5625C132.523 87.5625 131.538 87.5625 130.554 87.5625" stroke="#051321" stroke-miterlimit="10" stroke-linecap="round" stroke-linejoin="round"/>
<path d="M128.361 90.1797C126.464 90.1797 116.553 90.1797 114.656 90.1797" stroke="#051321" stroke-miterlimit="10" stroke-linecap="round" stroke-linejoin="round"/>
<path d="M132.492 90.1797C131.507 90.1797 130.523 90.1797 129.538 90.1797" stroke="#051321" stroke-miterlimit="10" stroke-linecap="round" stroke-linejoin="round"/>
<path d="M125.374 34.9794C124.846 35.3882 124.347 35.825 123.878 36.2898C123.7 36.469 123.524 36.6538 123.351 36.847H95.2194C95.2194 36.847 92.7786 37.2362 90.0003 39.6106C89.13 40.3554 88.229 41.5398 87.5539 42.5674H76.873C77.138 41.8394 78.8034 39.0814 80.3683 37.743C83.1438 35.3658 85.5874 34.9766 85.5874 34.9766H125.374V34.9794Z" fill="#7539FF" stroke="#051321" stroke-miterlimit="10" stroke-linecap="round" stroke-linejoin="round"/>
<path d="M120.034 93.4375H72.1445C72.3398 93.6923 72.5462 93.9499 72.761 94.2047C75.3441 97.2483 79.1628 99.3511 83.1462 99.3231C94.1172 99.2475 126.824 99.0599 126.824 99.0599C123.674 98.1751 121.499 95.9211 120.034 93.4375Z" fill="#7539FF" stroke="#051321" stroke-miterlimit="10" stroke-linecap="round" stroke-linejoin="round"/>
<path d="M134.903 79.7407C131.137 70.0023 120.805 60.1211 118.83 50.4219H77.6514C79.8606 60.1939 90.7814 69.9687 94.6588 79.7407H134.903Z" fill="#F7F8F9" stroke="#051321" stroke-miterlimit="10" stroke-linecap="round" stroke-linejoin="round"/>
<path d="M84.5078 57.8828H98.034" stroke="#051321" stroke-miterlimit="10" stroke-linecap="round" stroke-linejoin="round"/>
<path d="M101.864 57.8828H108.751" stroke="#051321" stroke-miterlimit="10" stroke-linecap="round" stroke-linejoin="round"/>
<path d="M113.22 57.8828H117.616" stroke="#051321" stroke-miterlimit="10" stroke-linecap="round" stroke-linejoin="round"/>
<path d="M87.5068 62.7266H100.458" stroke="#051321" stroke-miterlimit="10" stroke-linecap="round" stroke-linejoin="round"/>
<path d="M104.288 62.7266H111.173" stroke="#051321" stroke-miterlimit="10" stroke-linecap="round" stroke-linejoin="round"/>
<path d="M115.645 62.7266H120.041" stroke="#051321" stroke-miterlimit="10" stroke-linecap="round" stroke-linejoin="round"/>
<path d="M91.2695 66.6641H103.992" stroke="#051321" stroke-miterlimit="10" stroke-linecap="round" stroke-linejoin="round"/>
<path d="M107.822 66.6641H114.709" stroke="#051321" stroke-miterlimit="10" stroke-linecap="round" stroke-linejoin="round"/>
<path d="M119.178 66.6641H123.574" stroke="#051321" stroke-miterlimit="10" stroke-linecap="round" stroke-linejoin="round"/>
<path d="M94.4219 70.6094H106.299" stroke="#051321" stroke-miterlimit="10" stroke-linecap="round" stroke-linejoin="round"/>
<path d="M110.13 70.6094H117.014" stroke="#051321" stroke-miterlimit="10" stroke-linecap="round" stroke-linejoin="round"/>
<path d="M121.485 70.6094H125.882" stroke="#051321" stroke-miterlimit="10" stroke-linecap="round" stroke-linejoin="round"/>
<path d="M97.3418 74.875H109.403" stroke="#051321" stroke-miterlimit="10" stroke-linecap="round" stroke-linejoin="round"/>
<path d="M113.233 74.875H120.118" stroke="#051321" stroke-miterlimit="10" stroke-linecap="round" stroke-linejoin="round"/>
<path d="M124.59 74.875H128.986" stroke="#051321" stroke-miterlimit="10" stroke-linecap="round" stroke-linejoin="round"/>
<path d="M119.563 53.3081C119.22 52.3477 118.941 51.3873 118.745 50.4297H77.5645C77.782 51.3901 78.0833 52.3505 78.4543 53.3081H119.563Z" fill="#7539FF" stroke="#051321" stroke-miterlimit="10" stroke-linecap="round" stroke-linejoin="round"/>
<path d="M96.0749 39.0391L95.3413 42.9199H94.5156L95.2493 39.0391H96.0749Z" fill="#051321"/>
<path d="M96.6074 42.9199L97.3411 39.0391H98.3118L98.8223 40.5203C98.9757 41.0159 99.0817 41.4191 99.1737 41.8447H99.1905C99.2072 41.4471 99.2602 41.0215 99.369 40.4503L99.634 39.0391H100.404L99.6758 42.9199H98.8223L98.2839 41.3715C98.111 40.8479 98.0077 40.4951 97.9045 40.0191L97.8878 40.0247C97.8432 40.3999 97.7511 40.9515 97.6367 41.5619L97.3829 42.9199H96.6074Z" fill="#051321"/>
<path d="M101.727 42.9199L101.244 39.0391H102.098L102.271 40.8871C102.31 41.2959 102.34 41.6767 102.363 42.0799H102.374C102.516 41.6991 102.7 41.2847 102.89 40.8815L103.757 39.0391H104.681L102.684 42.9199H101.727Z" fill="#051321"/>
<path d="M108.575 40.5922C108.575 41.3006 108.329 41.9866 107.886 42.4234C107.523 42.7734 107.038 42.9834 106.457 42.9834C105.453 42.9834 104.89 42.2694 104.89 41.365C104.89 40.6622 105.149 39.965 105.601 39.5282C105.964 39.1838 106.457 38.9766 107.012 38.9766C108.036 38.9738 108.575 39.6654 108.575 40.5922ZM106.251 39.9594C105.941 40.2646 105.768 40.8694 105.768 41.337C105.768 41.883 106.014 42.2918 106.577 42.2918C106.817 42.2918 107.049 42.1826 107.224 42.009C107.528 41.7038 107.696 41.0654 107.696 40.6146C107.696 40.1302 107.523 39.6654 106.915 39.6654C106.658 39.6654 106.429 39.7746 106.251 39.9594Z" fill="#051321"/>
<path d="M110.806 39.0391L110.073 42.9199H109.247L109.981 39.0391H110.806Z" fill="#051321"/>
<path d="M114.178 42.8098C113.972 42.9022 113.62 42.9778 113.157 42.9778C112.136 42.9778 111.447 42.3562 111.447 41.3314C111.447 40.4606 111.838 39.783 112.424 39.391C112.825 39.1082 113.302 38.9766 113.846 38.9766C114.265 38.9766 114.58 39.0746 114.689 39.1446L114.465 39.8194C114.351 39.7606 114.097 39.6934 113.765 39.6934C113.433 39.6934 113.118 39.797 112.881 39.993C112.555 40.259 112.348 40.7014 112.348 41.2418C112.348 41.8578 112.691 42.2722 113.375 42.2722C113.645 42.2722 113.913 42.2274 114.108 42.1462L114.178 42.8098Z" fill="#051321"/>
<path d="M117.562 41.2735H116.184L116.005 42.2115H117.548L117.417 42.9199H115.046L115.78 39.0391H118.07L117.933 39.7475H116.474L116.312 40.5763H117.69L117.562 41.2735Z" fill="#051321"/>
<path d="M83.9775 37.3359H88.6694" stroke="#051321" stroke-miterlimit="10" stroke-linecap="round" stroke-linejoin="round"/>
<path d="M113.418 45.9766C114.804 45.9766 116.191 45.9766 117.577 45.9766" stroke="#051321" stroke-miterlimit="10" stroke-linecap="round" stroke-linejoin="round"/>
<path d="M108.315 45.9766C109.515 45.9766 110.717 45.9766 111.917 45.9766" stroke="#051321" stroke-miterlimit="10" stroke-linecap="round" stroke-linejoin="round"/>
<path d="M104.533 45.9766C105.253 45.9766 105.975 45.9766 106.695 45.9766" stroke="#051321" stroke-miterlimit="10" stroke-linecap="round" stroke-linejoin="round"/>
<path d="M103.992 47.5156C105.889 47.5156 115.8 47.5156 117.697 47.5156" stroke="#051321" stroke-miterlimit="10" stroke-linecap="round" stroke-linejoin="round"/>
<path d="M99.8584 47.5156C100.843 47.5156 101.828 47.5156 102.812 47.5156" stroke="#051321" stroke-miterlimit="10" stroke-linecap="round" stroke-linejoin="round"/>
<path d="M81.8887 39.1406H86.5834" stroke="#051321" stroke-miterlimit="10" stroke-linecap="round" stroke-linejoin="round"/>
<path d="M96.6784 27.384C96.6784 28.0084 96.1735 28.518 95.5487 28.518C94.9266 28.518 94.4189 28.0112 94.4189 27.384C94.4189 26.7568 94.9238 26.25 95.5487 26.25C96.1735 26.2528 96.6784 26.7596 96.6784 27.384Z" fill="#051321"/>
<path d="M83.0295 30.2109C81.7157 30.3789 80.2121 30.8325 78.915 31.6613" stroke="#051321" stroke-miterlimit="10" stroke-linecap="round" stroke-linejoin="round"/>
<path d="M82.6471 28.5938C81.8298 28.731 81.0153 28.9745 80.251 29.2993" stroke="#051321" stroke-miterlimit="10" stroke-linecap="round" stroke-linejoin="round"/>
<path d="M69.413 115.362H45.4403C44.7624 115.362 44.2129 114.81 44.2129 114.13V97.8336C44.2129 97.1532 44.7624 96.6016 45.4403 96.6016H69.4158C70.0936 96.6016 70.6432 97.1532 70.6432 97.8336V114.13C70.6404 114.81 70.0908 115.362 69.413 115.362Z" fill="white" stroke="#051321" stroke-miterlimit="10" stroke-linecap="round" stroke-linejoin="round"/>
<path d="M59.2202 96.6016H55.0723V102.308H59.2202V96.6016Z" fill="white" stroke="#051321" stroke-miterlimit="10" stroke-linecap="round" stroke-linejoin="round"/>
<path d="M42.997 115.362H19.0242C18.3464 115.362 17.7969 114.81 17.7969 114.13V97.8336C17.7969 97.1532 18.3464 96.6016 19.0242 96.6016H42.9998C43.6776 96.6016 44.2271 97.1532 44.2271 97.8336V114.13C44.2243 114.81 43.6748 115.362 42.997 115.362Z" fill="white" stroke="#051321" stroke-miterlimit="10" stroke-linecap="round" stroke-linejoin="round"/>
<path d="M32.7905 96.6094H28.6426V102.316H32.7905V96.6094Z" fill="white" stroke="#051321" stroke-miterlimit="10" stroke-linecap="round" stroke-linejoin="round"/>
<path d="M42.997 96.5725H19.0242C18.3464 96.5725 17.7969 96.0209 17.7969 95.3405V79.0445C17.7969 78.3641 18.3464 77.8125 19.0242 77.8125H42.9998C43.6776 77.8125 44.2271 78.3641 44.2271 79.0445V95.3405C44.2243 96.0209 43.6748 96.5725 42.997 96.5725Z" fill="white" stroke="#051321" stroke-miterlimit="10" stroke-linecap="round" stroke-linejoin="round"/>
<path d="M32.7905 77.8125H28.6426V83.5189H32.7905V77.8125Z" fill="white" stroke="#051321" stroke-miterlimit="10" stroke-linecap="round" stroke-linejoin="round"/>
<path d="M42.997 77.7834H19.0242C18.3464 77.7834 17.7969 77.2318 17.7969 76.5514V60.2554C17.7969 59.575 18.3464 59.0234 19.0242 59.0234H42.9998C43.6776 59.0234 44.2271 59.575 44.2271 60.2554V76.5514C44.2243 77.2318 43.6748 77.7834 42.997 77.7834Z" fill="white" stroke="#051321" stroke-miterlimit="10" stroke-linecap="round" stroke-linejoin="round"/>
<path d="M32.7905 59.0156H28.6426V64.722H32.7905V59.0156Z" fill="white" stroke="#051321" stroke-miterlimit="10" stroke-linecap="round" stroke-linejoin="round"/>
<path d="M63.3486 110.562V113.278" stroke="#051321" stroke-miterlimit="10" stroke-linecap="round" stroke-linejoin="round"/>
<path d="M64.6963 110.562V113.278" stroke="#051321" stroke-miterlimit="10" stroke-linecap="round" stroke-linejoin="round"/>
<path d="M66.043 110.562V113.278" stroke="#051321" stroke-miterlimit="10" stroke-linecap="round" stroke-linejoin="round"/>
<path d="M67.3936 110.562V113.278" stroke="#051321" stroke-miterlimit="10" stroke-linecap="round" stroke-linejoin="round"/>
<path d="M38.0098 110.562V113.278" stroke="#051321" stroke-miterlimit="10" stroke-linecap="round" stroke-linejoin="round"/>
<path d="M39.3604 110.562V113.278" stroke="#051321" stroke-miterlimit="10" stroke-linecap="round" stroke-linejoin="round"/>
<path d="M40.707 110.562V113.278" stroke="#051321" stroke-miterlimit="10" stroke-linecap="round" stroke-linejoin="round"/>
<path d="M42.0547 110.562V113.278" stroke="#051321" stroke-miterlimit="10" stroke-linecap="round" stroke-linejoin="round"/>
<path d="M61.7315 24.3694V23.2046C60.9114 23.1682 60.1192 22.947 59.6533 22.6782L60.0187 21.2418C60.532 21.5246 61.2545 21.7822 62.0467 21.7822C62.7441 21.7822 63.2211 21.5134 63.2211 21.0206C63.2211 20.553 62.8305 20.259 61.924 19.9538C60.6157 19.5114 59.7231 18.8982 59.7231 17.7082C59.7231 16.6274 60.4818 15.7818 61.7901 15.5242V14.3594H62.9895V15.4402C63.8096 15.4766 64.3592 15.6502 64.7608 15.8462L64.4066 17.2322C64.0886 17.0978 63.5251 16.815 62.6464 16.815C61.8514 16.815 61.5948 17.1594 61.5948 17.501C61.5948 17.907 62.0216 18.1646 63.0621 18.5566C64.5182 19.0718 65.104 19.7466 65.104 20.8526C65.104 21.9446 64.3341 22.877 62.9282 23.1234V24.375H61.7315V24.3694Z" stroke="white" stroke-miterlimit="10" stroke-linecap="round" stroke-linejoin="round"/>
<path d="M197.004 15.7344H177.77C176.708 15.7344 175.843 16.5996 175.843 17.6692V29.8184C175.843 30.8852 176.705 31.7532 177.77 31.7532H183.952L183.319 36.2136C183.26 36.6224 183.709 36.908 184.055 36.6812L191.534 31.7532H197.004C198.067 31.7532 198.931 30.888 198.931 29.8184V17.6692C198.928 16.5996 198.067 15.7344 197.004 15.7344Z" fill="white" stroke="#051321" stroke-miterlimit="10" stroke-linecap="round" stroke-linejoin="round"/>
<path d="M180.038 29.0904H194.655C195.193 29.0904 195.628 28.6536 195.628 28.1132V19.5788C195.628 19.0384 195.193 18.6016 194.655 18.6016H180.038C179.5 18.6016 179.064 19.0384 179.064 19.5788V28.1132C179.064 28.6536 179.5 29.0904 180.038 29.0904Z" fill="#7539FF" stroke="#051321" stroke-miterlimit="10" stroke-linecap="round" stroke-linejoin="round"/>
<path d="M195.628 24.4844H179.064V26.8644H195.628V24.4844Z" fill="white" stroke="#051321" stroke-miterlimit="10" stroke-linecap="round" stroke-linejoin="round"/>
<path d="M180.537 20.8438H184.601" stroke="#051321" stroke-miterlimit="10" stroke-linecap="round" stroke-linejoin="round"/>
<path d="M193.689 21.2949C193.689 21.8549 193.238 22.3085 192.68 22.3085C192.122 22.3085 191.67 21.8549 191.67 21.2949C191.67 20.7349 192.122 20.2812 192.68 20.2812C193.238 20.2813 193.689 20.7349 193.689 21.2949Z" stroke="#051321" stroke-miterlimit="10" stroke-linecap="round" stroke-linejoin="round"/>
<path d="M20.0037 8.23438H37.2817C38.3445 8.23438 39.2092 9.09958 39.2092 10.1692V26.5212C39.2092 27.588 38.3473 28.456 37.2817 28.456H31.9371L32.5703 32.9164C32.6289 33.3252 32.1798 33.6108 31.8339 33.384L24.3553 28.456H20.0037C18.9409 28.456 18.0762 27.5908 18.0762 26.5212V10.1692C18.0762 9.10238 18.9409 8.23438 20.0037 8.23438Z" fill="white" stroke="#051321" stroke-miterlimit="10" stroke-linecap="round" stroke-linejoin="round"/>
<path d="M25.0167 25.5046H32.3251C33.5804 25.5046 34.5958 24.4854 34.5958 23.2254V13.2714C34.5958 12.0114 33.5804 10.9922 32.3251 10.9922H25.0167C23.7615 10.9922 22.7461 12.0114 22.7461 13.2714V23.2254C22.7461 24.4854 23.7643 25.5046 25.0167 25.5046Z" fill="#7539FF"/>
<path d="M24.7209 15.2045H32.3362C32.5286 15.2045 32.6821 15.0477 32.6821 14.8573V13.2613C32.6821 13.0681 32.5258 12.9141 32.3362 12.9141H24.7209C24.5284 12.9141 24.375 13.0709 24.375 13.2613V14.8573C24.375 15.0477 24.5284 15.2045 24.7209 15.2045Z" fill="white"/>
<path d="M29.7616 19.5085H32.0992C32.4227 19.5085 32.6849 19.2453 32.6849 18.9205V17.0333C32.6849 16.7085 32.4227 16.4453 32.0992 16.4453H29.7616C29.438 16.4453 29.1758 16.7085 29.1758 17.0333V18.9205C29.1758 19.2453 29.438 19.5085 29.7616 19.5085Z" fill="white"/>
<path d="M24.9579 19.5085H27.2954C27.619 19.5085 27.8812 19.2453 27.8812 18.9205V17.0333C27.8812 16.7085 27.619 16.4453 27.2954 16.4453H24.9579C24.6343 16.4453 24.3721 16.7085 24.3721 17.0333V18.9205C24.3749 19.2453 24.6343 19.5085 24.9579 19.5085Z" fill="white"/>
<path d="M29.7616 23.9694H32.0992C32.4227 23.9694 32.6849 23.7062 32.6849 23.3814V21.4942C32.6849 21.1694 32.4227 20.9062 32.0992 20.9062H29.7616C29.438 20.9062 29.1758 21.1694 29.1758 21.4942V23.3814C29.1758 23.7062 29.438 23.9694 29.7616 23.9694Z" fill="white"/>
<path d="M24.9579 23.9694H27.2954C27.619 23.9694 27.8812 23.7062 27.8812 23.3814V21.4942C27.8812 21.1694 27.619 20.9062 27.2954 20.9062H24.9579C24.6343 20.9062 24.3721 21.1694 24.3721 21.4942V23.3814C24.3749 23.7062 24.6343 23.9694 24.9579 23.9694Z" fill="white"/>
<path d="M112.38 31.6641L131.63 31.7929C138.464 31.5969 143.82 37.6393 142.83 44.4321L142.305 48.0273C142.054 49.7437 142.551 51.4853 143.664 52.8097C145.357 54.8201 148.445 54.8257 150.141 52.8153L151.907 50.7237C148.835 56.7297 141.51 57.5473 134.453 57.2645L123.354 56.9005C123.192 56.8949 123.03 56.8865 122.868 56.8753C116.921 56.4553 112.377 51.3509 112.377 45.3673V31.6641H112.38Z" fill="#EEF4FF" stroke="#051321" stroke-miterlimit="10" stroke-linecap="round" stroke-linejoin="round"/>
<path d="M166.2 121.508H157.461L148.811 128.169H165.846L166.2 121.508Z" fill="#7539FF" stroke="#051321" stroke-miterlimit="10" stroke-linecap="round" stroke-linejoin="round"/>
<path d="M185.668 121.508H176.931L168.278 128.169H185.314L185.668 121.508Z" fill="#7539FF" stroke="#051321" stroke-miterlimit="10" stroke-linecap="round" stroke-linejoin="round"/>
<path d="M156.928 74.2551C157.188 73.6531 156.964 73.2331 156.964 73.2331H168.147L168.122 73.8547L173.74 69.3047C173.74 69.3047 180.937 70.6739 181.372 71.1639C185.026 75.2715 183.082 89.8371 182.948 96.6635C182.94 97.0219 183.785 99.2339 184.678 101.468C185.584 103.736 185.76 106.108 185.718 108.521C185.674 110.974 186.234 113.399 187.317 115.6L187.763 116.507C188.153 117.299 188.318 118.198 188.165 119.069C188.148 119.156 188.131 119.243 188.109 119.327L188.22 122.351L184.212 123.123C182.388 123.476 178.301 124.235 176.513 123.731L172.535 122.698L171.269 118.335C170.976 115.88 171.249 113.245 170.652 110.845L168.337 101.53L167.185 92.1695L166.85 100.116L167.428 101.549C168.778 104.904 168.368 109.023 167.718 112.733C167.428 114.382 167.704 116.095 168.543 117.585C169.299 118.926 169.246 120.581 168.49 121.922L168.097 122.619L165.804 122.633C164.934 122.639 164.069 122.748 163.227 122.955L161.693 123.336C159.31 123.927 156.8 123.703 154.56 122.701C154.56 122.701 153.779 122.351 153.974 114.452C154.1 109.353 152.747 102.317 152.671 98.4583C152.529 91.6291 155.879 76.6799 156.928 74.2551Z" fill="#EEF4FF"/>
<path d="M170.061 73.2331L170.036 73.8547L175.28 69.6071C174.377 69.4251 173.743 69.3047 173.743 69.3047L168.893 73.2331H170.061Z" fill="white"/>
<path d="M178.424 123.73L174.446 122.697L173.18 118.335C172.887 115.879 173.16 113.244 172.563 110.845L170.781 105.079L167.47 91.6562C167.47 91.6562 168.092 101.596 170.145 108.82L170.647 110.845C171.244 113.244 170.968 115.879 171.263 118.335L172.53 122.697L176.508 123.73C177.158 123.912 178.112 123.926 179.146 123.856C178.884 123.831 178.636 123.789 178.424 123.73Z" fill="white"/>
<path d="M156.468 122.696C156.468 122.696 155.69 122.346 155.882 114.448C156.008 109.349 154.655 102.312 154.577 98.454C154.443 91.6276 157.793 76.6812 158.845 74.2564C159.104 73.6544 158.881 73.2344 158.881 73.2344H156.967C156.967 73.2344 157.19 73.6544 156.931 74.2564C155.882 76.6812 152.529 91.6304 152.663 98.454C152.738 102.312 154.091 109.346 153.966 114.448C153.773 122.346 154.552 122.696 154.552 122.696C156.264 123.464 158.136 123.774 159.988 123.615C158.78 123.508 157.589 123.2 156.468 122.696Z" fill="white"/>
<path d="M156.928 74.2551C157.188 73.6531 156.964 73.2331 156.964 73.2331H168.147L168.122 73.8547L173.74 69.3047C173.74 69.3047 180.937 70.6739 181.372 71.1639C185.026 75.2715 183.082 89.8371 182.948 96.6635C182.94 97.0219 183.785 99.2339 184.678 101.468C185.584 103.736 185.76 106.108 185.718 108.521C185.674 110.974 186.234 113.399 187.317 115.6L187.763 116.507C188.153 117.299 188.318 118.198 188.165 119.069C188.148 119.156 188.131 119.243 188.109 119.327L188.22 122.351L184.212 123.123C182.388 123.476 178.301 124.235 176.513 123.731L172.535 122.698L171.269 118.335C170.976 115.88 171.249 113.245 170.652 110.845L168.337 101.53L167.185 92.1695L166.85 100.116L167.428 101.549C168.778 104.904 168.368 109.023 167.718 112.733C167.428 114.382 167.704 116.095 168.544 117.585C169.299 118.926 169.246 120.581 168.49 121.922L168.097 122.619L165.804 122.633C164.934 122.639 164.069 122.748 163.227 122.955L161.693 123.336C159.31 123.927 156.8 123.703 154.56 122.701C154.56 122.701 153.779 122.351 153.974 114.452C154.1 109.353 152.747 102.317 152.671 98.4583C152.529 91.6291 155.879 76.6799 156.928 74.2551Z" stroke="#051321" stroke-miterlimit="10" stroke-linecap="round" stroke-linejoin="round"/>
<path d="M191.57 59.8678C190.848 58.0814 189.486 53.425 189.191 51.4342C189.18 51.3642 189.171 51.2914 189.16 51.2158C189.029 50.219 188.449 49.2782 187.991 48.4158C187.944 48.3262 187.894 48.2394 187.846 48.1498C187.743 47.965 187.634 47.7858 187.514 47.6122C187.425 47.4834 187.339 47.3546 187.244 47.2286C187.152 47.1026 187.057 46.9822 186.956 46.8618C186.954 46.8534 186.948 46.8506 186.945 46.845C186.87 46.7554 186.792 46.6658 186.714 46.5762C186.633 46.4838 186.546 46.3914 186.463 46.3018C186.376 46.2122 186.29 46.1226 186.2 46.0358C185.763 45.599 185.28 45.207 184.775 44.8626C184.574 44.7226 184.368 44.591 184.159 44.4678C184.159 44.465 184.159 44.465 184.156 44.465C183.947 44.3418 183.74 44.227 183.525 44.1234C183.425 44.073 181.757 43.5018 181.656 43.4514C181.648 43.4486 181.642 43.4458 181.637 43.443C181.425 43.345 181.216 43.2582 181.001 43.1798C180.666 43.0538 180.329 42.9474 179.991 42.8662C179.902 42.8438 179.815 42.8242 179.726 42.8046C179.698 42.799 179.67 42.7906 179.637 42.785C179.536 42.7654 179.43 42.7458 179.327 42.729C179.218 42.7094 179.11 42.6954 178.998 42.6842C178.92 42.673 178.842 42.6674 178.761 42.659C178.725 42.6534 178.688 42.6534 178.655 42.6506C178.566 42.6422 178.471 42.6394 178.379 42.6366C178.183 42.631 177.988 42.6338 177.799 42.6478C177.743 42.6506 177.687 42.6534 177.631 42.659C177.623 42.659 177.617 42.659 177.612 42.6618C177.536 42.6674 177.464 42.673 177.391 42.6842C177.288 42.6954 177.185 42.715 177.084 42.7318C175.896 42.9474 172.055 42.1186 172.055 42.1186L169.031 40.7578C169.031 40.7578 169.003 40.7746 168.948 40.797C168.306 41.0994 164.166 43.0398 163.151 43.0902C163.006 43.0986 162.861 43.107 162.721 43.1126C162.579 43.121 162.44 43.1322 162.3 43.1406C162.016 43.1602 161.74 43.1826 161.472 43.2106C161.31 43.2274 161.151 43.2442 160.995 43.2638C160.886 43.275 160.774 43.289 160.668 43.3058C160.56 43.3198 160.451 43.3338 160.345 43.3506C160.099 43.3842 159.859 43.4234 159.628 43.4682C159.514 43.4878 159.399 43.5102 159.288 43.5326C158.88 43.6138 158.493 43.709 158.124 43.8154C158.055 43.835 157.985 43.8546 157.918 43.877C157.748 43.9302 157.58 43.9834 157.419 44.0422C157.324 44.0758 157.232 44.1094 157.14 44.1458C156.964 44.2102 156.799 44.283 156.635 44.3558C156.54 44.3978 156.448 44.4426 156.353 44.493C156.272 44.5322 156.189 44.5742 156.11 44.619C155.871 44.745 155.645 44.8822 155.427 45.0334C155.354 45.0838 155.287 45.1342 155.215 45.1846C155.009 45.333 154.816 45.4954 154.635 45.6718C154.573 45.7306 154.518 45.7866 154.459 45.8454C154.453 45.8482 154.453 45.851 154.453 45.851C154.398 45.907 154.347 45.963 154.294 46.0218C154.18 46.1478 154.074 46.2766 153.974 46.4082C153.413 47.1446 153.017 48.0154 152.769 49.0402C152.763 49.0598 152.757 49.0822 152.749 49.1018C152.746 49.1046 152.746 49.1074 152.746 49.1074C152.487 49.799 150.244 50.8798 149.689 52.9546L148.911 51.6974V51.6946C148.598 50.975 147.957 49.211 147.937 49.3426C147.923 49.449 144.623 51.2774 142.473 52.5066V57.2582C142.473 57.2582 142.581 59.3274 142.654 59.599C144.074 65.0562 148.596 71.653 154.027 67.5874C156.239 65.9326 157.776 63.6142 158.484 61.0914C158.509 60.9906 158.534 60.8954 158.557 60.8002C158.551 60.8226 158.548 60.8506 158.543 60.873C158.186 62.8414 158.841 66.515 157.48 69.4242C155.656 73.3246 155.539 75.4442 158.791 75.8362L164.557 75.6934C165.592 75.6682 166.627 75.7438 167.648 75.923L168.18 76.0154C169.02 76.161 169.874 76.2198 170.727 76.1806C174.13 76.0322 176.493 75.4834 177.662 75.1446C178.264 74.971 178.892 74.929 179.511 75.0158L181.785 75.3434C184.058 75.671 184.527 74.201 185.054 71.9582C185.054 71.9582 189.026 71.6894 190.295 70.8214C191.3 70.1354 192.016 69.0854 192.24 67.887C192.764 65.1402 192.279 61.6234 191.57 59.8678Z" fill="#7539FF"/>
<path d="M157.96 71.0149C159.318 68.1057 158.409 64.1409 158.766 62.1725C158.771 62.1501 158.4 61.9541 159.034 62.3909C158.953 62.3349 158.986 62.5813 158.961 62.6821C158.813 63.2113 158.626 63.7293 158.406 64.2361C158.378 65.9161 158.25 67.7949 157.485 69.4301C156.23 72.1181 155.784 73.9605 156.69 74.9741C156.738 73.9605 157.198 72.6445 157.96 71.0149Z" fill="white"/>
<path d="M192.039 61.4474C191.903 60.8398 191.744 60.3022 191.568 59.871C191.331 59.2802 191.021 58.3758 190.703 57.3594C191.169 58.975 191.682 60.5626 192.039 61.4474Z" fill="white"/>
<path d="M189.16 51.2158C189.029 50.219 188.449 49.2782 187.991 48.4158C187.944 48.3262 187.894 48.2394 187.846 48.1498C187.743 47.965 187.634 47.7858 187.514 47.6122C187.425 47.4834 187.339 47.3546 187.244 47.2286C187.152 47.1026 187.057 46.9822 186.957 46.8618C186.954 46.8534 186.948 46.8506 186.945 46.845C186.87 46.7554 186.792 46.6658 186.714 46.5762C186.633 46.4838 186.546 46.3914 186.463 46.3018C186.376 46.2122 186.29 46.1226 186.201 46.0358C185.763 45.599 185.28 45.207 184.775 44.8626C184.574 44.7226 184.368 44.591 184.159 44.4678C184.159 44.465 184.159 44.465 184.156 44.465C183.947 44.3418 183.74 44.227 183.525 44.1234C183.425 44.073 181.757 43.5018 181.657 43.4514C181.648 43.4486 181.643 43.4458 181.637 43.443C181.425 43.345 181.216 43.2582 181.004 43.1798C180.669 43.0538 180.332 42.9474 179.994 42.8662C179.905 42.8438 179.818 42.8242 179.729 42.8046C179.701 42.799 179.673 42.7906 179.64 42.785C179.539 42.7654 179.433 42.7458 179.33 42.729C179.221 42.7094 179.113 42.6954 179.001 42.6842C178.923 42.673 178.845 42.6674 178.764 42.659C178.728 42.6534 178.691 42.6534 178.658 42.6506C178.569 42.6422 178.474 42.6394 178.382 42.6366C178.186 42.631 177.991 42.6338 177.801 42.6478C177.746 42.6506 177.69 42.6534 177.634 42.659C177.626 42.659 177.62 42.659 177.615 42.6618C177.539 42.6674 177.467 42.673 177.394 42.6842C177.291 42.6954 177.188 42.715 177.087 42.7318C175.899 42.9474 172.058 42.1186 172.058 42.1186L169.034 40.7578C169.034 40.7578 169.006 40.7746 168.95 40.797C168.309 41.0994 164.169 43.0398 163.154 43.0902C163.009 43.0986 162.864 43.107 162.724 43.1126C162.582 43.121 162.443 43.1322 162.303 43.1406C162.019 43.1602 161.742 43.1826 161.475 43.2106C161.313 43.2274 161.154 43.2442 160.998 43.2638C160.889 43.275 160.777 43.289 160.671 43.3058C160.563 43.3198 160.454 43.3338 160.348 43.3506C160.102 43.3842 159.862 43.4234 159.631 43.4682C159.516 43.4878 159.402 43.5102 159.291 43.5326C158.883 43.6138 158.496 43.709 158.127 43.8154C158.058 43.835 157.988 43.8546 157.921 43.877C157.751 43.9302 157.583 43.9834 157.422 44.0422C157.327 44.0758 157.235 44.1094 157.143 44.1458C156.967 44.2102 156.802 44.283 156.638 44.3558C156.543 44.3978 156.451 44.4426 156.356 44.493C156.275 44.5322 156.191 44.5742 156.113 44.619C155.873 44.745 155.647 44.8822 155.43 45.0334C155.357 45.0838 155.29 45.1342 155.218 45.1846C155.011 45.333 154.819 45.4954 154.635 45.6718C154.576 45.7306 154.518 45.7866 154.459 45.8454C154.454 45.8482 154.454 45.851 154.454 45.851C154.398 45.907 154.348 45.963 154.295 46.0218C154.18 46.1478 154.074 46.2766 153.974 46.4082C153.413 47.1446 153.017 48.0154 152.769 49.0402C152.763 49.0598 152.758 49.0822 152.752 49.1018C152.749 49.1046 152.749 49.1074 152.749 49.1074C152.49 49.799 150.247 50.8798 149.692 52.9546L148.914 51.6974V51.6946C148.601 50.975 147.96 49.211 147.94 49.3426C147.926 49.449 144.626 51.2774 142.476 52.5066V54.3238C142.632 54.3126 142.791 54.3154 142.95 54.3238V54.0914C145.1 52.8622 148.4 51.0338 148.414 50.9274C148.434 50.7958 149.075 52.5598 149.388 53.2794V53.2822L150.166 54.5394C150.718 52.4646 152.961 51.381 153.223 50.6922C153.223 50.6922 153.223 50.6894 153.226 50.6866C153.235 50.667 153.24 50.6446 153.246 50.625C153.494 49.6002 153.89 48.7294 154.451 47.993C154.551 47.8586 154.657 47.7326 154.772 47.6066C154.825 47.5478 154.875 47.4918 154.931 47.4358C154.931 47.4358 154.931 47.433 154.936 47.4302C154.995 47.3714 155.051 47.3154 155.112 47.2566C155.293 47.0802 155.488 46.9178 155.692 46.7694C155.762 46.7162 155.832 46.6686 155.904 46.6182C156.122 46.4698 156.348 46.3298 156.588 46.2038C156.666 46.159 156.749 46.117 156.83 46.0778C156.925 46.0274 157.017 45.9826 157.112 45.9406C157.277 45.8678 157.444 45.7978 157.617 45.7306C157.709 45.6942 157.801 45.6606 157.896 45.627C158.058 45.5682 158.225 45.515 158.395 45.4618C158.462 45.4422 158.532 45.4198 158.602 45.4002C158.97 45.2938 159.357 45.1986 159.765 45.1174C159.876 45.095 159.991 45.0726 160.105 45.053C160.337 45.0082 160.576 44.969 160.822 44.9354C160.928 44.9186 161.037 44.9046 161.146 44.8906C161.252 44.8738 161.363 44.8598 161.472 44.8486C161.628 44.829 161.787 44.8122 161.949 44.7954C162.217 44.7674 162.493 44.7422 162.777 44.7254C162.917 44.7142 163.056 44.7058 163.199 44.6974C163.338 44.689 163.483 44.6806 163.628 44.675C164.646 44.6246 168.783 42.6842 169.425 42.3818C169.48 42.3594 169.508 42.3426 169.508 42.3426L172.532 43.7034C172.532 43.7034 176.373 44.5322 177.562 44.3166C177.662 44.2998 177.765 44.283 177.868 44.269C177.941 44.2578 178.013 44.2522 178.089 44.2466C178.094 44.2466 178.1 44.2438 178.108 44.2438C178.164 44.2382 178.22 44.2354 178.276 44.2326C178.465 44.2214 178.661 44.2186 178.856 44.2214C178.948 44.2242 179.04 44.2298 179.132 44.2354C179.168 44.2382 179.202 44.2382 179.238 44.2438C179.319 44.2522 179.397 44.2578 179.475 44.269C179.584 44.2802 179.693 44.2942 179.804 44.3138C179.908 44.3278 180.011 44.3474 180.114 44.3698C180.145 44.3754 180.173 44.381 180.203 44.3894C180.29 44.409 180.379 44.4286 180.468 44.451C180.806 44.535 181.143 44.6386 181.478 44.7646C181.69 44.8402 181.899 44.9298 182.114 45.0278C182.12 45.0278 182.125 45.0334 182.134 45.0362C182.234 45.0866 183.902 45.6578 184.002 45.7082C184.217 45.8118 184.424 45.9266 184.633 46.0498C184.636 46.0498 184.636 46.0498 184.636 46.0526C184.845 46.1758 185.051 46.3074 185.252 46.4474C185.757 46.7946 186.24 47.1866 186.678 47.6206C186.767 47.7102 186.853 47.797 186.94 47.8866C187.023 47.9762 187.107 48.0686 187.191 48.161C187.269 48.2506 187.344 48.3402 187.422 48.4298C187.425 48.4354 187.434 48.4382 187.434 48.4466C187.534 48.567 187.629 48.6902 187.721 48.8134C187.813 48.9394 187.902 49.0682 187.991 49.197C188.111 49.3706 188.22 49.5498 188.323 49.7346C188.374 49.8242 188.424 49.911 188.468 50.0006C188.7 50.4374 188.965 50.8966 189.185 51.3726C189.174 51.3222 189.166 51.269 189.16 51.2158Z" fill="white"/>
<path d="M191.57 59.8678C190.848 58.0814 189.486 53.425 189.191 51.4342C189.18 51.3642 189.171 51.2914 189.16 51.2158C189.029 50.219 188.449 49.2782 187.991 48.4158C187.944 48.3262 187.894 48.2394 187.846 48.1498C187.743 47.965 187.634 47.7858 187.514 47.6122C187.425 47.4834 187.339 47.3546 187.244 47.2286C187.152 47.1026 187.057 46.9822 186.956 46.8618C186.954 46.8534 186.948 46.8506 186.945 46.845C186.87 46.7554 186.792 46.6658 186.714 46.5762C186.633 46.4838 186.546 46.3914 186.463 46.3018C186.376 46.2122 186.29 46.1226 186.2 46.0358C185.763 45.599 185.28 45.207 184.775 44.8626C184.574 44.7226 184.368 44.591 184.159 44.4678C184.159 44.465 184.159 44.465 184.156 44.465C183.947 44.3418 183.74 44.227 183.525 44.1234C183.425 44.073 181.757 43.5018 181.656 43.4514C181.648 43.4486 181.642 43.4458 181.637 43.443C181.425 43.345 181.216 43.2582 181.001 43.1798C180.666 43.0538 180.329 42.9474 179.991 42.8662C179.902 42.8438 179.815 42.8242 179.726 42.8046C179.698 42.799 179.67 42.7906 179.637 42.785C179.536 42.7654 179.43 42.7458 179.327 42.729C179.218 42.7094 179.11 42.6954 178.998 42.6842C178.92 42.673 178.842 42.6674 178.761 42.659C178.725 42.6534 178.688 42.6534 178.655 42.6506C178.566 42.6422 178.471 42.6394 178.379 42.6366C178.183 42.631 177.988 42.6338 177.799 42.6478C177.743 42.6506 177.687 42.6534 177.631 42.659C177.623 42.659 177.617 42.659 177.612 42.6618C177.536 42.6674 177.464 42.673 177.391 42.6842C177.288 42.6954 177.185 42.715 177.084 42.7318C175.896 42.9474 172.055 42.1186 172.055 42.1186L169.031 40.7578C169.031 40.7578 169.003 40.7746 168.948 40.797C168.306 41.0994 164.166 43.0398 163.151 43.0902C163.006 43.0986 162.861 43.107 162.721 43.1126C162.579 43.121 162.44 43.1322 162.3 43.1406C162.016 43.1602 161.74 43.1826 161.472 43.2106C161.31 43.2274 161.151 43.2442 160.995 43.2638C160.886 43.275 160.774 43.289 160.668 43.3058C160.56 43.3198 160.451 43.3338 160.345 43.3506C160.099 43.3842 159.859 43.4234 159.628 43.4682C159.514 43.4878 159.399 43.5102 159.288 43.5326C158.88 43.6138 158.493 43.709 158.124 43.8154C158.055 43.835 157.985 43.8546 157.918 43.877C157.748 43.9302 157.58 43.9834 157.419 44.0422C157.324 44.0758 157.232 44.1094 157.14 44.1458C156.964 44.2102 156.799 44.283 156.635 44.3558C156.54 44.3978 156.448 44.4426 156.353 44.493C156.272 44.5322 156.189 44.5742 156.11 44.619C155.871 44.745 155.645 44.8822 155.427 45.0334C155.354 45.0838 155.287 45.1342 155.215 45.1846C155.009 45.333 154.816 45.4954 154.635 45.6718C154.573 45.7306 154.518 45.7866 154.459 45.8454C154.453 45.8482 154.453 45.851 154.453 45.851C154.398 45.907 154.347 45.963 154.294 46.0218C154.18 46.1478 154.074 46.2766 153.974 46.4082C153.413 47.1446 153.017 48.0154 152.769 49.0402C152.763 49.0598 152.757 49.0822 152.749 49.1018C152.746 49.1046 152.746 49.1074 152.746 49.1074C152.487 49.799 150.244 50.8798 149.689 52.9546L148.911 51.6974V51.6946C148.598 50.975 147.957 49.211 147.937 49.3426C147.923 49.449 144.623 51.2774 142.473 52.5066V57.2582C142.473 57.2582 142.581 59.3274 142.654 59.599C144.074 65.0562 148.596 71.653 154.027 67.5874C156.239 65.9326 157.776 63.6142 158.484 61.0914C158.509 60.9906 158.534 60.8954 158.557 60.8002C158.551 60.8226 158.548 60.8506 158.543 60.873C158.186 62.8414 158.841 66.515 157.48 69.4242C155.656 73.3246 155.539 75.4442 158.791 75.8362L164.557 75.6934C165.592 75.6682 166.627 75.7438 167.648 75.923L168.18 76.0154C169.02 76.161 169.874 76.2198 170.727 76.1806C174.13 76.0322 176.493 75.4834 177.662 75.1446C178.264 74.971 178.892 74.929 179.511 75.0158L181.785 75.3434C184.058 75.671 184.527 74.201 185.054 71.9582C185.054 71.9582 189.026 71.6894 190.295 70.8214C191.3 70.1354 192.016 69.0854 192.24 67.887C192.764 65.1402 192.279 61.6234 191.57 59.8678Z" stroke="#051321" stroke-miterlimit="10" stroke-linecap="round" stroke-linejoin="round"/>
<path d="M167.174 43.6971C167.467 44.7443 168.594 45.0747 169.835 44.5707C169.986 44.5091 170.136 44.4335 170.292 44.3495C170.337 44.3215 170.384 44.2963 170.432 44.2683C170.538 44.2039 170.647 44.1311 170.744 44.0583C172.016 43.1231 172.775 41.5719 172.463 40.4519C172.276 39.7827 171.749 39.4019 171.071 39.3487C171.037 39.3459 171.004 39.3458 170.97 39.3458C170.923 39.3431 170.873 39.3431 170.825 39.3458C170.329 39.3599 169.768 39.5335 169.207 39.8779C167.746 40.7739 166.833 42.4847 167.174 43.6971Z" fill="#051321" stroke="#051321" stroke-miterlimit="10" stroke-linecap="round" stroke-linejoin="round"/>
<path d="M167.104 42.8082C168.635 43.9338 170.786 43.609 172.273 42.153C172.451 41.9766 172.622 41.7806 172.781 41.5734C172.825 41.509 172.875 41.4446 172.923 41.3774C173.026 41.2262 173.127 41.061 173.213 40.9042C174.315 38.8882 173.961 36.4326 172.32 35.2258C171.341 34.5062 170.108 34.3746 168.965 34.7554C168.909 34.7722 168.853 34.7946 168.797 34.8198C168.719 34.8478 168.641 34.8814 168.563 34.915C167.779 35.2594 167.054 35.8474 166.499 36.6538C165.062 38.7482 165.33 41.5034 167.104 42.8082Z" fill="#F8F5FF"/>
<path d="M166.499 36.6538C167.054 35.8474 167.776 35.2594 168.563 34.915C168.641 34.8814 168.719 34.8478 168.797 34.8198C168.853 34.7946 168.909 34.775 168.965 34.7554C170.111 34.3746 171.341 34.5062 172.32 35.2258C172.337 35.237 172.351 35.2538 172.368 35.265C171.584 34.985 170.722 34.9906 169.902 35.2622C169.846 35.279 169.79 35.3014 169.735 35.3266C169.656 35.3546 169.578 35.3882 169.5 35.4218C168.714 35.7662 167.991 36.3542 167.436 37.1606C166.011 39.241 166.264 41.9682 168.002 43.2842C167.687 43.1722 167.383 43.0154 167.104 42.8082C165.33 41.5062 165.062 38.751 166.499 36.6538Z" fill="white"/>
<path d="M167.104 42.8082C168.635 43.9338 170.786 43.609 172.273 42.153C172.451 41.9766 172.622 41.7806 172.781 41.5734C172.825 41.509 172.875 41.4446 172.923 41.3774C173.026 41.2262 173.127 41.061 173.213 40.9042C174.315 38.8882 173.961 36.4326 172.32 35.2258C171.341 34.5062 170.108 34.3746 168.965 34.7554C168.909 34.7722 168.853 34.7946 168.797 34.8198C168.719 34.8478 168.641 34.8814 168.563 34.915C167.779 35.2594 167.054 35.8474 166.499 36.6538C165.062 38.7482 165.33 41.5034 167.104 42.8082Z" stroke="#051321" stroke-miterlimit="10" stroke-linecap="round" stroke-linejoin="round"/>
<path d="M170.164 37.4443C170.206 37.4639 171.057 38.0967 170.901 38.8667C170.689 39.9027 170.825 40.7959 172.633 41.4763C172.739 41.4427 172.811 41.4203 172.917 41.3867C173.023 41.2327 173.127 41.0647 173.216 40.9023C174.318 38.8863 173.963 36.4307 172.323 35.2239C172.32 35.2211 172.318 35.2211 172.315 35.2183C172.658 34.9411 172.837 34.4735 172.689 33.9975C172.566 33.5999 172.214 33.2947 171.804 33.2275C171.774 33.2219 171.743 33.2191 171.712 33.2163C171.389 33.1883 171.16 32.9223 171.104 32.6003C171.082 32.4687 171.012 32.3483 170.94 32.2055C170.527 31.3823 169.096 31.3151 168.385 32.6199C167.16 34.8627 168.73 36.7779 170.164 37.4443Z" fill="#051321" stroke="#051321" stroke-miterlimit="10" stroke-linecap="round" stroke-linejoin="round"/>
<path d="M159.489 54.3125C159.503 54.5253 159.525 54.7465 159.556 54.9705C159.756 56.4293 159.282 57.0117 159.282 57.0117" fill="#F8F5FF"/>
<path d="M159.489 54.3125C159.503 54.5253 159.525 54.7465 159.556 54.9705C159.756 56.4293 159.282 57.0117 159.282 57.0117" stroke="#051321" stroke-miterlimit="10" stroke-linecap="round" stroke-linejoin="round"/>
<path d="M158.01 62.6185C158.548 60.8797 159.011 58.9001 159.522 56.0469" stroke="#051321" stroke-miterlimit="10" stroke-linecap="round" stroke-linejoin="round"/>
<path d="M159.282 56.8364C158.858 56.2624 158.771 55.9404 158.537 55.2656" stroke="#051321" stroke-miterlimit="10" stroke-linecap="round" stroke-linejoin="round"/>
<path d="M184.203 60.6185H176.513C176.513 60.6185 176.58 59.7225 176.605 58.8125C178.239 59.8345 182.064 59.4677 184.159 60.2489L184.203 60.6185Z" fill="white"/>
<path d="M176.513 58.7578C176.543 58.7774 176.574 58.7998 176.605 58.8138C178.239 59.8358 182.064 59.469 184.159 60.2502C184.432 60.351 184.675 60.4742 184.881 60.6198" stroke="#051321" stroke-miterlimit="10" stroke-linecap="round" stroke-linejoin="round"/>
<path d="M178.51 45.1745C178.78 44.8805 179.098 44.6341 179.439 44.4297" stroke="#051321" stroke-miterlimit="10" stroke-linecap="round" stroke-linejoin="round"/>
<path d="M166.875 45.6406C167.564 46.307 168.593 46.3686 169.419 45.929" stroke="#051321" stroke-miterlimit="10" stroke-linecap="round" stroke-linejoin="round"/>
<path d="M190.834 51.8628C190.691 49.5752 189.743 46.6632 187.386 45.1484" stroke="#051321" stroke-miterlimit="10" stroke-linecap="round" stroke-linejoin="round"/>
<path d="M192.114 51.5616C192.03 50.7328 191.841 49.9012 191.567 49.1172" stroke="#051321" stroke-miterlimit="10" stroke-linecap="round" stroke-linejoin="round"/>
<path d="M161.854 61.25C161.854 61.25 163.028 63.4032 165.862 64.1872" stroke="#051321" stroke-miterlimit="10" stroke-linecap="round" stroke-linejoin="round"/>
<path d="M179.224 56.5637C178.939 56.4069 178.102 55.6173 177.302 54.3125" stroke="#051321" stroke-miterlimit="10" stroke-linecap="round" stroke-linejoin="round"/>
<path d="M167.201 28.995C167.497 28.9558 167.676 29.3394 167.455 29.541C166.917 30.0338 166.088 30.8794 165.899 31.5766C165.614 32.6294 164.986 32.6014 164.858 32.0358C164.73 31.4702 165.617 29.8042 166.49 29.2638C166.758 29.0986 166.998 29.0202 167.201 28.995Z" fill="#051321" stroke="#051321" stroke-miterlimit="10" stroke-linecap="round" stroke-linejoin="round"/>
<path d="M165.603 33.7777C165.505 33.9429 165.302 33.9961 165.148 33.8953C164.995 33.7945 164.947 33.5761 165.045 33.4109C165.143 33.2457 165.346 33.1925 165.5 33.2933C165.653 33.3969 165.698 33.6125 165.603 33.7777Z" fill="#051321" stroke="#051321" stroke-miterlimit="10" stroke-linecap="round" stroke-linejoin="round"/>
<path d="M147.94 49.3438L148.666 51.5586C148.666 51.5586 149.692 52.9557 150.576 54.2829C150.599 54.3025 150.624 54.3221 150.646 54.3445C151.455 55.1145 151.988 57.8137 152.663 58.2953C153.684 59.0261 153.966 60.0621 153.966 60.0621" stroke="#051321" stroke-miterlimit="10" stroke-linecap="round" stroke-linejoin="round"/>
<path d="M154.878 59.3077C154.878 58.7505 153.888 58.2969 152.66 58.2969" stroke="#051321" stroke-miterlimit="10" stroke-linecap="round" stroke-linejoin="round"/>
<path d="M148.81 51.9844C147.209 53.3928 144.604 54.9244 142.606 55.6524" stroke="#051321" stroke-miterlimit="10" stroke-linecap="round" stroke-linejoin="round"/>
<path d="M178.259 53.4375C178.055 54.7927 178.917 56.0191 179.609 57.0971C180.217 58.0463 180.384 58.2115 180.588 59.3259" stroke="#051321" stroke-miterlimit="10" stroke-linecap="round" stroke-linejoin="round"/>
<path d="M187.67 71.6477C186.825 71.6505 184.086 72.2917 180.588 70.5361C179.581 70.0293 178.513 69.2677 177.645 68.7833C176.214 67.9853 174.437 67.5513 173.963 67.5709" stroke="#051321" stroke-miterlimit="10" stroke-linecap="round" stroke-linejoin="round"/>
<path d="M152.685 49.2266L152.141 50.5762" stroke="#051321" stroke-miterlimit="10" stroke-linecap="round" stroke-linejoin="round"/>
<path d="M161.854 74.25C161.854 74.2864 164.526 74.4628 167.393 75.9244" stroke="#051321" stroke-miterlimit="10" stroke-linecap="round" stroke-linejoin="round"/>
<path d="M170.088 67.9248L158.239 67.1744C157.622 67.1352 157.154 66.6004 157.193 65.9816L156.442 51.1304C156.481 50.5116 157.014 50.0412 157.631 50.0804L169.48 50.8308C170.097 50.87 170.565 51.4048 170.526 52.0236L171.277 66.8748C171.238 67.4936 170.705 67.964 170.088 67.9248Z" fill="#051321" stroke="#051321" stroke-miterlimit="10" stroke-linecap="round" stroke-linejoin="round"/>
<path d="M163.14 56.1291C163.812 56.1291 164.356 55.5825 164.356 54.9083C164.356 54.2341 163.812 53.6875 163.14 53.6875C162.468 53.6875 161.924 54.2341 161.924 54.9083C161.924 55.5825 162.468 56.1291 163.14 56.1291Z" fill="white" stroke="#051321" stroke-miterlimit="10" stroke-linecap="round" stroke-linejoin="round"/>
<path d="M174.833 57.6751C174.833 57.6751 173.23 56.4235 171.757 55.8019C171.447 55.6703 171.171 55.564 170.914 55.4688C170.917 56.2136 171.087 58.7951 171.087 58.7951C171.087 58.7951 170.881 58.8008 170.532 58.7587C170.527 58.7587 170.518 58.7615 170.513 58.7615C170.468 58.7615 170.426 58.7531 170.384 58.7391C169.921 58.6747 169.268 58.5319 168.538 58.2211C167.798 57.9075 166.261 56.9555 165.519 57.2719C164.646 57.6443 164.897 58.4871 165.405 59.1423C165.483 59.2431 164.167 59.2263 164.989 60.9147C165.319 61.5895 165.74 62.0347 165.74 62.0347C165.74 62.0347 164.816 63.5719 167.851 65.2575C171.282 67.1643 174.022 67.5003 174.022 67.5003C175.146 65.616 175.882 63.4739 176.181 61.2255L176.507 58.7559L174.833 57.6751Z" fill="#F8F5FF" stroke="#051321" stroke-miterlimit="10" stroke-linecap="round" stroke-linejoin="round"/>
<path d="M168.939 61.1252C167.821 60.7612 166.033 59.8008 165.263 59" stroke="#051321" stroke-miterlimit="10" stroke-linecap="round" stroke-linejoin="round"/>
<path d="M168.565 63.487C167.525 63.0222 165.43 61.8882 164.97 60.8438" stroke="#051321" stroke-miterlimit="10" stroke-linecap="round" stroke-linejoin="round"/>
<path d="M165.263 57.4174C165.91 57.3474 166.78 58.403 166.917 59.6882" stroke="#051321" stroke-miterlimit="10" stroke-linecap="round" stroke-linejoin="round"/>
<path d="M167.182 92.1641C167.182 90.2517 167.121 88.2889 166.702 86.4157C166.32 84.7077 165.338 83.3245 164.51 81.8125" stroke="#051321" stroke-miterlimit="10" stroke-linecap="round" stroke-linejoin="round"/>
<path d="M162.624 97.375C163.04 98.4866 164.114 99.3266 165.246 99.6038" stroke="#051321" stroke-miterlimit="10" stroke-linecap="round" stroke-linejoin="round"/>
<path d="M166.767 117.054C167.414 115.422 167.595 112.594 167.595 112.594" stroke="#051321" stroke-miterlimit="10" stroke-linecap="round" stroke-linejoin="round"/>
<path d="M170.878 112.148C171.118 113.887 172.351 116.438 172.351 116.438" stroke="#051321" stroke-miterlimit="10" stroke-linecap="round" stroke-linejoin="round"/>
<path d="M164.42 97.4062C164.657 97.6695 164.939 97.8963 165.237 98.0867" stroke="#051321" stroke-miterlimit="10" stroke-linecap="round" stroke-linejoin="round"/>
<path d="M147.421 49.6884C147.421 49.6884 145.881 45.1748 144.579 43.7244C143.276 42.2768 139.711 41.4452 139.711 42.6464C139.711 43.8476 141.926 44.9564 142.166 45.5808C142.406 46.2052 141.82 48.1176 142.35 49.2124C142.98 50.5144 142.59 52.298 142.59 52.298L147.421 49.6884Z" fill="#F8F5FF" stroke="#051321" stroke-miterlimit="10" stroke-linecap="round" stroke-linejoin="round"/>
<path d="M142.428 42.4219C142.428 42.8139 142.163 44.0963 139.711 42.6515" stroke="#051321" stroke-miterlimit="10" stroke-linecap="round" stroke-linejoin="round"/>
<path d="M153.432 69.3672C153.432 69.3672 151.683 71.2796 148.98 70.2128" stroke="#051321" stroke-miterlimit="10" stroke-linecap="round" stroke-linejoin="round"/>
<path d="M152.079 71.5781C151.407 71.8469 150.662 71.9225 149.948 71.8077" stroke="#051321" stroke-miterlimit="10" stroke-linecap="round" stroke-linejoin="round"/>
<path d="M178.262 77.6562C178.262 79.1515 180.014 80.3639 182.181 80.3639" stroke="#051321" stroke-miterlimit="10" stroke-linecap="round" stroke-linejoin="round"/>
<path d="M125.683 99.1085C114.341 99.0329 89.4953 98.9097 82.7308 99.2485C112.402 78.6181 60.8502 57.9849 76.3066 37.3545C79.1463 33.5633 83.6764 31.4297 88.4018 31.4773L131.733 31.9141C104.204 51.0577 149.198 71.8085 138.891 91.3329C136.319 96.2021 131.173 99.1449 125.683 99.1085Z" fill="white" stroke="#051321" stroke-miterlimit="10" stroke-linecap="round" stroke-linejoin="round"/>
<path d="M82.7277 99.2485C83.5562 99.2065 84.6608 99.1729 85.9747 99.1449C112.173 78.8981 62.8109 58.6485 77.98 38.4017C80.8197 34.6105 85.3498 32.4769 90.0752 32.5245L130.338 32.9305C130.779 32.5917 131.242 32.2529 131.728 31.9141L88.3959 31.4773C83.6706 31.4297 79.1405 33.5633 76.3008 37.3545C60.8471 57.9849 112.399 78.6181 82.7277 99.2485Z" fill="white"/>
<path d="M125.683 99.1085C114.341 99.0329 89.4953 98.9097 82.7308 99.2485C112.402 78.6181 60.8502 57.9849 76.3066 37.3545C79.1463 33.5633 83.6764 31.4297 88.4018 31.4773L131.733 31.9141C104.204 51.0577 149.198 71.8085 138.891 91.3329C136.319 96.2021 131.173 99.1449 125.683 99.1085Z" stroke="#051321" stroke-miterlimit="10" stroke-linecap="round" stroke-linejoin="round"/>
<path d="M130.668 85.4062C128.771 85.4062 118.86 85.4062 116.963 85.4062" stroke="#051321" stroke-miterlimit="10" stroke-linecap="round" stroke-linejoin="round"/>
<path d="M134.799 85.4062C133.814 85.4062 132.829 85.4062 131.845 85.4062" stroke="#051321" stroke-miterlimit="10" stroke-linecap="round" stroke-linejoin="round"/>
<path d="M129.374 87.5625C127.477 87.5625 117.566 87.5625 115.669 87.5625" stroke="#051321" stroke-miterlimit="10" stroke-linecap="round" stroke-linejoin="round"/>
<path d="M133.508 87.5625C132.523 87.5625 131.538 87.5625 130.554 87.5625" stroke="#051321" stroke-miterlimit="10" stroke-linecap="round" stroke-linejoin="round"/>
<path d="M128.361 90.1875C126.464 90.1875 116.553 90.1875 114.656 90.1875" stroke="#051321" stroke-miterlimit="10" stroke-linecap="round" stroke-linejoin="round"/>
<path d="M132.492 90.1875C131.507 90.1875 130.523 90.1875 129.538 90.1875" stroke="#051321" stroke-miterlimit="10" stroke-linecap="round" stroke-linejoin="round"/>
<path d="M125.374 34.9872C124.846 35.396 124.347 35.8328 123.878 36.2976C123.7 36.4768 123.524 36.6616 123.351 36.8548H95.2194C95.2194 36.8548 92.7786 37.244 90.0003 39.6184C89.13 40.3632 88.229 41.5476 87.5539 42.5752H76.873C77.138 41.8472 78.8034 39.0892 80.3683 37.7508C83.1438 35.3736 85.5874 34.9844 85.5874 34.9844H125.374V34.9872Z" fill="#7539FF" stroke="#051321" stroke-miterlimit="10" stroke-linecap="round" stroke-linejoin="round"/>
<path d="M120.034 93.4453H72.1445C72.3398 93.7001 72.5462 93.9577 72.761 94.2125C75.3441 97.2561 79.1628 99.3589 83.1462 99.3309C94.1172 99.2553 126.824 99.0677 126.824 99.0677C123.674 98.1829 121.499 95.9289 120.034 93.4453Z" fill="#7539FF" stroke="#051321" stroke-miterlimit="10" stroke-linecap="round" stroke-linejoin="round"/>
<path d="M134.903 79.7485C131.137 70.0101 120.805 60.1289 118.83 50.4297H77.6514C79.8606 60.2017 90.7814 69.9765 94.6588 79.7485H134.903Z" fill="#F7F8F9" stroke="#051321" stroke-miterlimit="10" stroke-linecap="round" stroke-linejoin="round"/>
<path d="M84.5078 57.8906H98.034" stroke="#051321" stroke-miterlimit="10" stroke-linecap="round" stroke-linejoin="round"/>
<path d="M101.864 57.8906H108.751" stroke="#051321" stroke-miterlimit="10" stroke-linecap="round" stroke-linejoin="round"/>
<path d="M113.22 57.8906H117.616" stroke="#051321" stroke-miterlimit="10" stroke-linecap="round" stroke-linejoin="round"/>
<path d="M87.5068 62.7344H100.458" stroke="#051321" stroke-miterlimit="10" stroke-linecap="round" stroke-linejoin="round"/>
<path d="M104.288 62.7344H111.173" stroke="#051321" stroke-miterlimit="10" stroke-linecap="round" stroke-linejoin="round"/>
<path d="M115.645 62.7344H120.041" stroke="#051321" stroke-miterlimit="10" stroke-linecap="round" stroke-linejoin="round"/>
<path d="M91.2695 66.6719H103.992" stroke="#051321" stroke-miterlimit="10" stroke-linecap="round" stroke-linejoin="round"/>
<path d="M107.822 66.6719H114.709" stroke="#051321" stroke-miterlimit="10" stroke-linecap="round" stroke-linejoin="round"/>
<path d="M119.178 66.6719H123.574" stroke="#051321" stroke-miterlimit="10" stroke-linecap="round" stroke-linejoin="round"/>
<path d="M94.4219 70.6172H106.299" stroke="#051321" stroke-miterlimit="10" stroke-linecap="round" stroke-linejoin="round"/>
<path d="M110.13 70.6172H117.014" stroke="#051321" stroke-miterlimit="10" stroke-linecap="round" stroke-linejoin="round"/>
<path d="M121.485 70.6172H125.882" stroke="#051321" stroke-miterlimit="10" stroke-linecap="round" stroke-linejoin="round"/>
<path d="M97.3418 74.875H109.403" stroke="#051321" stroke-miterlimit="10" stroke-linecap="round" stroke-linejoin="round"/>
<path d="M113.233 74.875H120.118" stroke="#051321" stroke-miterlimit="10" stroke-linecap="round" stroke-linejoin="round"/>
<path d="M124.59 74.875H128.986" stroke="#051321" stroke-miterlimit="10" stroke-linecap="round" stroke-linejoin="round"/>
<path d="M119.563 53.3159C119.22 52.3555 118.941 51.3951 118.745 50.4375H77.5645C77.782 51.3979 78.0833 52.3583 78.4543 53.3159H119.563Z" fill="#7539FF" stroke="#051321" stroke-miterlimit="10" stroke-linecap="round" stroke-linejoin="round"/>
<path d="M96.0749 39.0469L95.3413 42.9277H94.5156L95.2493 39.0469H96.0749Z" fill="#051321"/>
<path d="M96.6074 42.9277L97.3411 39.0469H98.3118L98.8223 40.5281C98.9757 41.0237 99.0817 41.4269 99.1737 41.8525H99.1905C99.2072 41.4549 99.2602 41.0293 99.369 40.4581L99.634 39.0469H100.404L99.6758 42.9277H98.8223L98.2839 41.3793C98.111 40.8557 98.0077 40.5029 97.9045 40.0269L97.8878 40.0325C97.8432 40.4077 97.7511 40.9593 97.6367 41.5697L97.3829 42.9277H96.6074Z" fill="#051321"/>
<path d="M101.727 42.9277L101.244 39.0469H102.098L102.271 40.8949C102.31 41.3037 102.34 41.6845 102.363 42.0877H102.374C102.516 41.7069 102.7 41.2925 102.89 40.8893L103.757 39.0469H104.681L102.684 42.9277H101.727Z" fill="#051321"/>
<path d="M108.575 40.6C108.575 41.3084 108.329 41.9944 107.886 42.4312C107.523 42.7812 107.038 42.9912 106.457 42.9912C105.453 42.9912 104.89 42.2772 104.89 41.3728C104.89 40.67 105.149 39.9728 105.601 39.536C105.964 39.1916 106.457 38.9844 107.012 38.9844C108.036 38.9816 108.575 39.6732 108.575 40.6ZM106.251 39.9672C105.941 40.2724 105.768 40.8772 105.768 41.3448C105.768 41.8908 106.014 42.2996 106.577 42.2996C106.817 42.2996 107.049 42.1904 107.224 42.0168C107.528 41.7116 107.696 41.0732 107.696 40.6224C107.696 40.138 107.523 39.6732 106.915 39.6732C106.658 39.6732 106.429 39.7824 106.251 39.9672Z" fill="#051321"/>
<path d="M110.806 39.0469L110.073 42.9277H109.247L109.981 39.0469H110.806Z" fill="#051321"/>
<path d="M114.178 42.8176C113.972 42.91 113.62 42.9856 113.157 42.9856C112.136 42.9856 111.447 42.364 111.447 41.3392C111.447 40.4684 111.838 39.7908 112.424 39.3988C112.825 39.116 113.302 38.9844 113.846 38.9844C114.265 38.9844 114.58 39.0824 114.689 39.1524L114.465 39.8272C114.351 39.7684 114.097 39.7012 113.765 39.7012C113.433 39.7012 113.118 39.8048 112.881 40.0008C112.555 40.2668 112.348 40.7092 112.348 41.2496C112.348 41.8656 112.691 42.28 113.375 42.28C113.645 42.28 113.913 42.2352 114.108 42.154L114.178 42.8176Z" fill="#051321"/>
<path d="M117.562 41.2813H116.184L116.005 42.2193H117.548L117.417 42.9277H115.046L115.78 39.0469H118.07L117.933 39.7553H116.474L116.312 40.5841H117.69L117.562 41.2813Z" fill="#051321"/>
<path d="M83.9775 37.3438H88.6694" stroke="#051321" stroke-miterlimit="10" stroke-linecap="round" stroke-linejoin="round"/>
<path d="M113.418 45.9844C114.804 45.9844 116.191 45.9844 117.577 45.9844" stroke="#051321" stroke-miterlimit="10" stroke-linecap="round" stroke-linejoin="round"/>
<path d="M108.315 45.9844C109.515 45.9844 110.717 45.9844 111.917 45.9844" stroke="#051321" stroke-miterlimit="10" stroke-linecap="round" stroke-linejoin="round"/>
<path d="M104.533 45.9844C105.253 45.9844 105.975 45.9844 106.695 45.9844" stroke="#051321" stroke-miterlimit="10" stroke-linecap="round" stroke-linejoin="round"/>
<path d="M103.992 47.5234C105.889 47.5234 115.8 47.5234 117.697 47.5234" stroke="#051321" stroke-miterlimit="10" stroke-linecap="round" stroke-linejoin="round"/>
<path d="M99.8584 47.5234C100.843 47.5234 101.828 47.5234 102.812 47.5234" stroke="#051321" stroke-miterlimit="10" stroke-linecap="round" stroke-linejoin="round"/>
<path d="M81.8877 39.1484H86.5824" stroke="#051321" stroke-miterlimit="10" stroke-linecap="round" stroke-linejoin="round"/>
<path d="M51.1201 119.977H59.8595L68.5097 126.635H51.4772L51.1201 119.977Z" fill="#7539FF" stroke="#051321" stroke-miterlimit="10" stroke-linecap="round" stroke-linejoin="round"/>
<path d="M21.6774 101.977L24.1545 110.391L20.2408 120.605L15.415 104.205L21.6774 101.977Z" fill="#7539FF" stroke="#051321" stroke-miterlimit="10" stroke-linecap="round" stroke-linejoin="round"/>
<path d="M60.3927 72.7144C60.1333 72.1124 41.5303 70.0768 38.3838 71.152C37.4075 71.4852 32.8662 76.9004 34.6264 85.6C34.6989 85.9528 33.717 93.7032 33.717 93.7032C31.3041 94.0196 29.8787 93.4148 27.8033 94.6356C25.6945 95.876 24.0989 98.4856 23.3123 98.8804C23.2342 98.9196 23.1561 98.9616 23.0807 99.0064L20.1602 99.754L20.5563 103.834C20.7376 105.69 21.1672 109.837 22.1546 111.419L24.2691 114.955V114.675L29.0921 111.419C31.3683 110.752 33.5217 108.941 35.8984 108.288L43.6252 104.416C45.7982 103.327 47.3938 101.347 47.9991 98.984L50.1414 90.6288L50.4762 98.5752L49.8987 100.009C48.5486 103.363 48.9587 107.482 49.6086 111.192C49.8987 112.841 49.6226 114.555 48.7829 116.044C48.027 117.386 48.08 119.04 48.8359 120.382L49.2293 121.079L51.5222 121.093C52.3925 121.098 53.2573 121.208 54.0997 121.415L55.6339 121.796C58.0161 122.386 60.5266 122.162 62.7666 121.16C62.7666 121.16 63.5476 120.81 63.3524 112.911C63.2268 107.812 64.5797 100.776 64.6551 96.9176C64.7917 90.0884 61.4416 75.142 60.3927 72.7144Z" fill="#EEF4FF"/>
<path d="M60.8141 73.9375C60.4041 74.5059 60.3734 74.9455 59.6035 75.1499C60.9899 80.2963 63.2159 91.3255 63.1071 96.9143C63.0318 100.773 61.6789 107.806 61.8044 112.908C61.9411 118.485 61.0345 120.297 60.8169 120.882C60.8114 121.21 60.7695 121.535 60.6886 121.848C61.3999 121.689 62.0973 121.459 62.7696 121.157C62.7696 121.157 63.5478 120.807 63.3554 112.908C63.2298 107.809 64.5827 100.773 64.6608 96.9143C64.778 90.8383 62.1364 78.3223 60.8141 73.9375Z" fill="white"/>
<path d="M48.3255 97.6982L50.1387 88.7578L45.8847 98.9834C45.2794 101.344 43.6838 103.326 41.5108 104.415L33.784 108.288C31.4073 108.94 29.2539 110.752 26.9776 111.418L23.541 113.739L24.2663 114.955V114.675L29.0893 111.418C31.3655 110.752 33.519 108.94 35.8956 108.288L43.6224 104.415C45.7954 103.326 47.391 101.347 47.9963 98.9834L48.3255 97.6982Z" fill="white"/>
<path d="M60.3927 72.7144C60.1333 72.1124 41.5303 70.0768 38.3838 71.152C37.4075 71.4852 32.8662 76.9004 34.6264 85.6C34.6989 85.9528 33.717 93.7032 33.717 93.7032C31.3041 94.0196 29.8787 93.4148 27.8033 94.6356C25.6945 95.876 24.0989 98.4856 23.3123 98.8804C23.2342 98.9196 23.1561 98.9616 23.0807 99.0064L20.1602 99.754L20.5563 103.834C20.7376 105.69 21.1672 109.837 22.1546 111.419L24.2691 114.955V114.675L29.0921 111.419C31.3683 110.752 33.5217 108.941 35.8984 108.288L43.6252 104.416C45.7982 103.327 47.3938 101.347 47.9991 98.984L50.1414 90.6288L50.4762 98.5752L49.8987 100.009C48.5486 103.363 48.9587 107.482 49.6086 111.192C49.8987 112.841 49.6226 114.555 48.7829 116.044C48.027 117.386 48.08 119.04 48.8359 120.382L49.2293 121.079L51.5222 121.093C52.3925 121.098 53.2573 121.208 54.0997 121.415L55.6339 121.796C58.0161 122.386 60.5266 122.162 62.7666 121.16C62.7666 121.16 63.5476 120.81 63.3524 112.911C63.2268 107.812 64.5797 100.776 64.6551 96.9176C64.7917 90.0884 61.4416 75.142 60.3927 72.7144Z" stroke="#051321" stroke-miterlimit="10" stroke-linecap="round" stroke-linejoin="round"/>
<path d="M63.3551 110.195L61.4053 117.417" stroke="#051321" stroke-miterlimit="10" stroke-linecap="round" stroke-linejoin="round"/>
<path d="M75.699 54.4328C75.699 54.4328 74.7338 57.804 74.6641 58.0756C73.685 61.8444 71.2275 66.1508 68.0112 67.1224C66.569 67.5592 64.9735 67.324 63.2914 66.064C61.0794 64.4092 59.8185 63.4936 59.1128 60.968C59.0877 60.87 59.0626 60.772 59.0403 60.6796C59.0458 60.702 59.0486 60.7272 59.0542 60.7524C59.4085 62.7208 59.2606 65.028 60.6219 67.9372C61.3276 69.4464 61.4866 70.8296 61.4169 71.9552C61.3137 73.6268 60.0305 74.9848 58.3764 75.1836C54.3344 75.6736 49.821 75.962 45.9688 75.6512C42.0914 75.3348 37.6506 74.9988 35.5975 74.982C34.1358 74.968 34.306 73.0808 32.7327 72.5852C31.6699 72.252 29.6531 71.4204 29.0171 70.9192C28.0213 70.138 26.7521 69.0348 26.3727 68.2256C25.8539 67.1196 25.8985 65.644 26.0938 64.44C26.6628 60.9428 28.1161 53.3016 28.4118 51.3108C29.7452 43.5016 36.6715 44.6076 42.2086 42.0344C43.4471 41.4604 45.2658 40.5952 45.2658 40.5952L48.2868 39.2344C48.2868 39.2344 48.3175 39.2512 48.3705 39.2736C49.0121 39.5788 51.7569 42.3592 52.7723 42.4068C57.0374 42.6364 62.0417 43.5016 63.177 48.424C63.4393 49.1156 65.682 50.1964 66.2343 52.2712L68.4073 50.174V50.1712C68.7197 49.4516 69.3613 47.6876 69.3808 47.8164C69.3948 47.9256 72.3154 50.3532 74.466 51.5852L74.9849 52.7864L75.699 54.4328Z" fill="#EEF4FF"/>
<path d="M44.5545 64.8428L44.0551 66.1924L44.2281 65.8368C44.2281 65.8368 40.9254 64.6804 39.5362 64.0588C38.1498 63.4344 36.4873 62.4852 36.4873 62.4852L36.6212 62.1884C36.8332 62.1828 37.0647 62.2024 37.3186 62.2472C37.8653 62.3368 38.4929 62.53 39.154 62.7736C41.0063 63.4512 43.1346 64.5152 44.5545 64.8428Z" fill="white"/>
<path d="M59.6148 64.881C59.1964 64.279 58.8672 63.5762 58.6106 62.6662C58.5855 62.5654 58.5604 62.4702 58.5381 62.375C58.5437 62.3974 58.5465 62.4254 58.552 62.4478C58.9091 64.4162 58.7612 66.7262 60.1197 69.6354C60.8003 71.0942 60.9705 72.4298 60.9203 73.533C61.202 73.0654 61.3806 72.5306 61.414 71.9566C61.4838 70.831 61.3248 69.4478 60.619 67.9386C60.1058 66.8382 59.8073 65.8246 59.6148 64.881Z" fill="white"/>
<path d="M66.1533 52.0248C65.4978 50.1096 63.428 49.0848 63.1769 48.4212C62.0416 43.4988 57.0373 42.6364 52.7722 42.4068C51.754 42.3564 49.012 39.576 48.3704 39.2736C48.3146 39.2512 48.2867 39.2344 48.2867 39.2344L45.2629 40.5952C45.2629 40.5952 43.4442 41.4576 42.2057 42.0344C36.7801 44.5572 30.0212 43.5492 28.501 50.8572C30.6684 45.3916 36.7439 46.0356 41.7091 43.7284C42.9449 43.1544 44.7664 42.2892 44.7664 42.2892L47.7902 40.9284C47.7902 40.9284 47.8181 40.9452 47.8739 40.9676C48.5154 41.27 51.2575 44.0504 52.2757 44.1008C56.5408 44.3304 61.5451 45.1956 62.6804 50.1152C62.9036 50.706 64.5689 51.5824 65.3946 53.1196C65.6317 52.7472 65.8939 52.3832 66.1533 52.0248Z" fill="white"/>
<path d="M75.6985 54.4329L75.5507 54.0885L74.4684 51.5853C72.3177 50.3561 69.3971 47.9257 69.3832 47.8193C69.3692 47.7269 69.0428 48.5893 68.7416 49.3537C68.8308 49.4041 68.895 49.4825 68.9313 49.5721C69.3106 49.9641 71.9718 52.1397 73.9691 53.2821C73.9691 53.2821 74.4907 53.5705 74.6664 53.7105C74.6748 53.7189 74.686 53.7245 74.6943 53.7329C73.8993 56.2949 72.4879 60.7413 71.8853 61.8865C71.4 62.8105 69.5394 65.2129 68.0107 67.1253C71.227 66.1537 73.6845 61.8473 74.6636 58.0785C74.7306 57.8237 75.5869 54.8277 75.6874 54.4721C75.693 54.4469 75.6985 54.4329 75.6985 54.4329Z" fill="white"/>
<path d="M28.4111 51.3108C29.7445 43.5016 36.6708 44.6076 42.2079 42.0344C43.4436 41.4604 45.2651 40.5952 45.2651 40.5952L48.2889 39.2344C48.2889 39.2344 48.3168 39.2512 48.3726 39.2736C49.0142 39.576 51.7562 42.3564 52.7744 42.4068C57.0395 42.6364 62.0438 43.5016 63.1791 48.4212C63.4386 49.1128 65.6813 50.1936 66.2364 52.2684L68.4094 50.1712V50.1684C68.7218 49.4488 69.3634 47.6848 69.3829 47.8164C69.3969 47.9228 72.3174 50.3532 74.4681 51.5824L75.7011 54.4328C75.7011 54.4328 74.7359 57.804 74.6662 58.0728C73.2463 63.53 68.7246 70.1268 63.2935 66.0612C61.0814 64.4064 59.8234 63.4908 59.1149 60.9652C59.0898 60.8644 59.0647 60.7692 59.0423 60.674C59.0479 60.6964 59.0507 60.7244 59.0563 60.7468C59.4133 62.7152 59.2655 65.0252 60.624 67.9344C61.3297 69.4436 61.4887 70.8268 61.419 71.9524C61.3158 73.6212 60.0326 74.982 58.3784 75.1808C54.3337 75.668 49.8231 75.9592 45.9709 75.6456C42.0935 75.3292 37.6527 74.9932 35.5968 74.9764C34.1379 74.9624 34.3081 73.0752 32.7348 72.5824C31.672 72.2492 29.6552 71.4148 29.0192 70.9164C28.0234 70.1352 26.7542 69.032 26.3748 68.22C25.8588 67.1168 25.9006 65.6384 26.0959 64.4344C26.6593 60.9428 28.1154 53.3016 28.4111 51.3108Z" stroke="#051321" stroke-miterlimit="10" stroke-linecap="round" stroke-linejoin="round"/>
<path d="M41.5747 63.7578C40.0656 65.6254 38.9164 71.6174 39.371 73.0146" stroke="#051321" stroke-miterlimit="10" stroke-linecap="round" stroke-linejoin="round"/>
<path d="M50.15 42.1658C49.8571 43.213 48.7302 43.5434 47.4889 43.0394C47.3382 42.9778 47.1876 42.9022 47.0314 42.8182C46.9868 42.7902 46.9394 42.765 46.8919 42.737C46.7859 42.6726 46.6771 42.5998 46.5795 42.527C45.3075 41.5918 44.5488 40.0406 44.8612 38.9206C45.0481 38.2514 45.5753 37.8706 46.2531 37.8174C46.2866 37.8146 46.3201 37.8146 46.3536 37.8146C46.401 37.8118 46.4512 37.8118 46.4986 37.8146C46.9951 37.8286 47.5558 38.0022 48.1165 38.3466C49.5782 39.2454 50.4876 40.9534 50.15 42.1658Z" fill="#051321" stroke="#051321" stroke-miterlimit="10" stroke-linecap="round" stroke-linejoin="round"/>
<path d="M49.7453 41.4688C48.0828 42.39 45.9907 41.7908 44.702 40.1556C44.5485 39.9568 44.4035 39.7412 44.2724 39.5144C44.2361 39.4444 44.1943 39.3744 44.158 39.3016C44.0743 39.1364 43.9962 38.9628 43.9293 38.7948C43.0952 36.6528 43.7591 34.2644 45.5388 33.2788C46.6016 32.6908 47.8401 32.7188 48.928 33.2424C48.981 33.2676 49.0312 33.2956 49.0842 33.3264C49.1568 33.3628 49.2321 33.4076 49.3046 33.4524C50.0382 33.8948 50.6826 34.5724 51.1289 35.4432C52.2893 37.7056 51.6729 40.402 49.7453 41.4688Z" fill="#D5D5D5"/>
<path d="M51.1314 35.4432C50.6823 34.5724 50.0407 33.8948 49.3071 33.4524C49.2345 33.4076 49.1592 33.3656 49.0867 33.3264C49.0337 33.2956 48.9835 33.2676 48.9305 33.2424C47.8426 32.7188 46.6041 32.6908 45.5413 33.2788C45.5218 33.29 45.5078 33.3012 45.4883 33.3124C46.3028 33.136 47.1564 33.2508 47.9346 33.626C47.9876 33.6512 48.0379 33.6792 48.0909 33.71C48.1634 33.7464 48.2387 33.7912 48.3112 33.836C49.0449 34.2784 49.6892 34.956 50.1355 35.8268C51.2848 38.0724 50.6851 40.7436 48.7938 41.8272C49.1202 41.7572 49.441 41.6396 49.745 41.4716C51.6725 40.402 52.289 37.7056 51.1314 35.4432Z" fill="white"/>
<path d="M49.7458 41.4695C48.0833 42.3907 45.994 41.7915 44.7025 40.1563C44.549 39.9575 44.4068 39.7419 44.2729 39.5151C44.2394 39.4479 44.2004 39.3835 44.1641 39.3135C44.1613 39.3051 44.1557 39.2995 44.1529 39.2911C44.072 39.1287 43.9939 38.9607 43.9298 38.7955C43.8879 38.6863 43.8489 38.5743 43.8154 38.4651C43.1655 36.4127 43.8517 34.2147 45.5393 33.2795C45.5421 33.2767 45.5449 33.2767 45.5477 33.2739C46.6077 32.6915 47.8434 32.7195 48.9285 33.2431C48.9815 33.2683 49.0345 33.2963 49.0847 33.3271C49.16 33.3663 49.2326 33.4083 49.3079 33.4531C49.4557 33.5427 49.6036 33.6435 49.743 33.7555C50.0136 33.9627 50.2647 34.2035 50.4934 34.4779L50.5018 34.4863C50.5018 34.4891 50.5018 34.4891 50.5018 34.4891C50.7389 34.7747 50.9509 35.0939 51.1322 35.4439C52.2898 37.7063 51.6734 40.4027 49.7458 41.4695Z" stroke="#051321" stroke-miterlimit="10" stroke-linecap="round" stroke-linejoin="round"/>
<path d="M49.7425 33.7555C49.2711 34.7719 48.2809 35.4747 47.3938 35.7547C47.352 35.7687 46.4259 36.2895 46.4844 37.0735C46.5625 38.1263 46.3115 38.9943 44.4342 39.4395C44.3338 39.3919 44.264 39.3611 44.1636 39.3135C44.1608 39.3051 44.1552 39.2995 44.1524 39.2911C44.0688 39.1287 43.9934 38.9579 43.9293 38.7955C43.0952 36.6535 43.7591 34.2651 45.5388 33.2795C45.5416 33.2767 45.5444 33.2767 45.5472 33.2739C46.6072 32.6915 47.8429 32.7195 48.928 33.2431C48.981 33.2683 49.034 33.2963 49.0842 33.3271C49.1595 33.3663 49.2321 33.4083 49.3074 33.4531C49.4552 33.5427 49.6031 33.6435 49.7425 33.7555Z" fill="#051321" stroke="#051321" stroke-miterlimit="10" stroke-linecap="round" stroke-linejoin="round"/>
<path d="M50.4934 34.4779C50.34 34.5255 49.8714 34.6823 48.6021 35.1247C45.7429 36.1243 44.4347 39.4395 44.4347 39.4395C44.4347 39.4395 44.139 39.0671 43.8154 38.4651C43.1655 36.4127 43.8517 34.2147 45.5393 33.2795C45.5421 33.2767 45.5449 33.2767 45.5477 33.2739C46.6077 32.6915 47.8434 32.7195 48.9285 33.2431C48.9815 33.2683 49.0345 33.2963 49.0847 33.3271C49.16 33.3663 49.2326 33.4083 49.3079 33.4531C49.4557 33.5427 49.6036 33.6435 49.743 33.7555C50.0136 33.9627 50.2647 34.2035 50.4934 34.4779Z" fill="#7539FF"/>
<path d="M47.8564 33.8031C47.9094 33.8283 47.9624 33.8563 48.0127 33.8871C48.088 33.9263 48.1605 33.9683 48.2358 34.0131C48.3837 34.1027 48.5315 34.2035 48.671 34.3155C48.8886 34.4835 49.0894 34.6767 49.2819 34.8895C50.0462 34.6235 50.3698 34.5171 50.4925 34.4779C50.2638 34.2035 50.0127 33.9627 49.7421 33.7555C49.6027 33.6435 49.4548 33.5427 49.307 33.4531C49.2317 33.4083 49.1591 33.3663 49.0838 33.3271C49.0336 33.2963 48.9806 33.2683 48.9276 33.2431C47.8425 32.7195 46.6068 32.6915 45.5468 33.2739C45.544 33.2767 45.5412 33.2767 45.5384 33.2795C45.3822 33.3663 45.2371 33.4671 45.0977 33.5735C46.0014 33.2879 46.9778 33.3803 47.8564 33.8031Z" fill="white"/>
<path d="M50.4934 34.4779C50.34 34.5255 49.8714 34.6823 48.6021 35.1247C45.7429 36.1243 44.4347 39.4395 44.4347 39.4395C44.4347 39.4395 44.139 39.0671 43.8154 38.4651C43.1655 36.4127 43.8517 34.2147 45.5393 33.2795C45.5421 33.2767 45.5449 33.2767 45.5477 33.2739C46.6077 32.6915 47.8434 32.7195 48.9285 33.2431C48.9815 33.2683 49.0345 33.2963 49.0847 33.3271C49.16 33.3663 49.2326 33.4083 49.3079 33.4531C49.4557 33.5427 49.6036 33.6435 49.743 33.7555C50.0136 33.9627 50.2647 34.2035 50.4934 34.4779Z" stroke="#051321" stroke-miterlimit="10" stroke-linecap="round" stroke-linejoin="round"/>
<path d="M51.7145 35.9887C51.7145 35.9887 53.8651 35.0283 53.098 34.1043C52.052 32.8471 47.3936 35.7563 47.3936 35.7563C47.3936 35.7563 50.7967 34.4907 51.3546 35.4287C51.6949 35.9999 51.7145 35.9887 51.7145 35.9887Z" fill="#7539FF" stroke="#051321" stroke-miterlimit="10" stroke-linecap="round" stroke-linejoin="round"/>
<path d="M58.1107 54.1797C58.0967 54.3925 58.0744 54.6137 58.0437 54.8377C57.8429 56.2965 58.3171 56.8789 58.3171 56.8789" fill="#F8F5FF"/>
<path d="M58.1107 54.1797C58.0967 54.3925 58.0744 54.6137 58.0437 54.8377C57.8429 56.2965 58.3171 56.8789 58.3171 56.8789" stroke="#051321" stroke-miterlimit="10" stroke-linecap="round" stroke-linejoin="round"/>
<path d="M59.589 62.4857C59.0507 60.7469 58.5876 58.7673 58.0771 55.9141" stroke="#051321" stroke-miterlimit="10" stroke-linecap="round" stroke-linejoin="round"/>
<path d="M58.3174 56.7036C58.7414 56.1296 58.8279 55.8076 59.0622 55.1328" stroke="#051321" stroke-miterlimit="10" stroke-linecap="round" stroke-linejoin="round"/>
<path d="M39.09 45.0417C38.8194 44.7477 38.5014 44.5013 38.1611 44.2969" stroke="#051321" stroke-miterlimit="10" stroke-linecap="round" stroke-linejoin="round"/>
<path d="M50.4454 44.1094C49.7564 44.7758 48.7271 44.8374 47.9014 44.3978" stroke="#051321" stroke-miterlimit="10" stroke-linecap="round" stroke-linejoin="round"/>
<path d="M26.7656 51.7279C26.8549 50.2999 27.2594 48.6283 28.1213 47.2031" stroke="#051321" stroke-miterlimit="10" stroke-linecap="round" stroke-linejoin="round"/>
<path d="M25.4854 51.4288C25.569 50.6 25.7587 49.7684 26.0321 48.9844" stroke="#051321" stroke-miterlimit="10" stroke-linecap="round" stroke-linejoin="round"/>
<path d="M55.7458 61.125C55.7458 61.125 54.5714 63.2782 51.7373 64.0622" stroke="#051321" stroke-miterlimit="10" stroke-linecap="round" stroke-linejoin="round"/>
<path d="M38.376 56.4309C38.6605 56.2741 39.4973 55.4845 40.2979 54.1797" stroke="#051321" stroke-miterlimit="10" stroke-linecap="round" stroke-linejoin="round"/>
<path d="M42.5015 30.9738C42.5127 31.2734 42.9199 31.3882 43.0817 31.1362C43.4778 30.5202 44.1752 29.5626 44.8279 29.263C45.8154 28.8094 45.6843 28.1906 45.1069 28.157C44.5295 28.1234 43.0399 29.2742 42.6494 30.2262C42.5322 30.5174 42.4959 30.7666 42.5015 30.9738Z" fill="#051321" stroke="#051321" stroke-miterlimit="10" stroke-linecap="round" stroke-linejoin="round"/>
<path d="M46.945 28.608C47.0928 28.4848 47.1096 28.2748 46.984 28.1404C46.8585 28.0032 46.6381 27.9948 46.4903 28.118C46.3425 28.2412 46.3257 28.4512 46.4512 28.5856C46.5768 28.7228 46.7971 28.7312 46.945 28.608Z" fill="#051321" stroke="#051321" stroke-miterlimit="10" stroke-linecap="round" stroke-linejoin="round"/>
<path d="M51.4773 75.5642C51.4773 75.5642 53.243 73.0806 51.7144 67.503C50.805 64.1794 51.6223 55.1634 51.0226 51.991C50.4228 48.8158 48.858 44.949 48.805 44.1034C48.752 43.2578 48.752 43.2578 48.752 43.2578" stroke="#051321" stroke-miterlimit="10" stroke-linecap="round" stroke-linejoin="round"/>
<path d="M69.3801 47.8125C68.6493 50.1281 66.4177 51.5281 65.0229 53.7681C64.744 54.3281 65.0229 54.8881 64.9839 55.3473" stroke="#051321" stroke-miterlimit="10" stroke-linecap="round" stroke-linejoin="round"/>
<path d="M68.5098 50.4531C70.1109 51.8615 73.2602 54.4011 75.2575 55.1291" stroke="#051321" stroke-miterlimit="10" stroke-linecap="round" stroke-linejoin="round"/>
<path d="M39.3435 53.3047C39.5471 54.6599 38.6852 55.8863 37.9934 56.9643C37.3853 57.9135 38.0576 61.3883 37.3184 62.2423" stroke="#051321" stroke-miterlimit="10" stroke-linecap="round" stroke-linejoin="round"/>
<path d="M28.2217 70.2656C28.9469 70.6996 30.9833 72.6484 34.8829 72.9228C36.0071 73.0012 37.3126 72.8892 38.3056 72.9172C39.9431 72.962 41.692 73.4912 42.0909 73.7516" stroke="#051321" stroke-miterlimit="10" stroke-linecap="round" stroke-linejoin="round"/>
<path d="M63.2412 48.5312L63.7852 49.878" stroke="#051321" stroke-miterlimit="10" stroke-linecap="round" stroke-linejoin="round"/>
<path d="M63.8072 51.9195V68.2155C63.8072 68.8959 63.2577 69.4475 62.5798 69.4475L42.875 69.4027C42.9029 69.2767 42.9224 69.1871 42.9224 69.1787C42.9224 68.6971 44.6379 64.8555 44.6379 64.8555C43.2181 64.5503 41.0423 63.4583 39.1538 62.7667C38.4927 62.5231 37.8651 62.3299 37.3184 62.2403L37.3769 51.9195C37.3769 51.2391 37.9265 50.6875 38.6043 50.6875H62.5798C63.2577 50.6875 63.8072 51.2391 63.8072 51.9195Z" fill="#7539FF" stroke="#051321" stroke-miterlimit="10" stroke-linecap="round" stroke-linejoin="round"/>
<path d="M52.6665 50.6797H48.5186V56.3861H52.6665V50.6797Z" fill="white" stroke="#051321" stroke-miterlimit="10" stroke-linecap="round" stroke-linejoin="round"/>
<path d="M44.0356 66.238C44.2281 65.7732 44.4345 65.3168 44.6381 64.8576C41.9658 64.2556 39.2879 62.0156 36.4873 62.1892" stroke="#051321" stroke-miterlimit="10" stroke-linecap="round" stroke-linejoin="round"/>
<path d="M46.633 64.7843C46.633 64.7843 48.6498 64.5267 50.2314 64.7423C50.5634 64.7871 50.8563 64.8347 51.1269 64.8851C54.2037 65.3611 49.2942 67.6627 49.2942 67.6627C49.2942 67.6627 49.4699 67.7719 49.7907 67.9147C49.7963 67.9175 49.8019 67.9231 49.8074 67.9259C49.8465 67.9483 49.8883 67.9623 49.9302 67.9735C50.3626 68.1527 50.9958 68.3627 51.7824 68.4691C52.5774 68.5783 54.3822 68.5391 54.862 69.1915C55.4254 69.9587 54.7839 70.5551 54.0112 70.8603C53.8912 70.9079 55.0349 71.5659 53.47 72.5963C52.8424 73.0107 52.2566 73.1787 52.2566 73.1787C52.2566 73.1787 52.2733 74.9707 48.806 74.8755C44.884 74.7691 42.3568 73.6575 42.3568 73.6575C42.3428 71.4623 42.7919 69.2391 43.6734 67.1531L44.6413 64.8599L46.633 64.7843Z" fill="#D5D5D5"/>
<path d="M45.7152 65.7783C45.7152 65.7783 47.732 65.5207 49.3136 65.7363C49.6455 65.7811 49.9384 65.8287 50.209 65.8791C51.0235 66.0051 51.2746 66.2599 51.2104 66.5623C52.1449 65.8987 52.7558 65.1371 51.1267 64.8851C50.859 64.8375 50.5661 64.7899 50.2313 64.7423C48.6497 64.5267 46.6329 64.7843 46.6329 64.7843L44.6384 64.8599L44.2256 65.8343L45.7152 65.7783Z" fill="white"/>
<path d="M54.8588 69.189C54.379 68.5394 52.5742 68.5758 51.7792 68.4666C50.9926 68.3602 50.3594 68.1502 49.927 67.971C49.8852 67.9598 49.5783 67.3662 49.5421 67.3438C49.5365 67.341 49.4277 67.6014 49.4221 67.5986C49.4138 67.5958 49.3022 67.663 49.2938 67.6602C48.5936 68.0886 48.1836 68.0914 48.1836 68.0914C48.1836 68.0914 48.5518 68.7634 48.8726 68.9062C48.8782 68.909 48.8838 68.9146 48.8893 68.9174C48.9284 68.9398 48.9702 68.9538 49.0121 68.965C49.4444 69.1442 50.0776 69.3542 50.8643 69.4606C51.6593 69.5698 53.4641 69.5306 53.9439 70.183C54.1056 70.4014 54.1642 70.6086 54.1531 70.7962C54.856 70.477 55.386 69.9086 54.8588 69.189Z" fill="white"/>
<path d="M53.0911 71.8472C53.013 71.878 53.4704 72.1692 53.3672 72.6536C53.4007 72.634 53.4342 72.6144 53.4676 72.592C54.6197 71.8304 54.3017 71.2732 54.1036 71.0156C53.9669 71.3796 53.5541 71.6652 53.0911 71.8472Z" fill="white"/>
<path d="M46.633 64.7843C46.633 64.7843 48.6498 64.5267 50.2314 64.7423C50.5634 64.7871 50.8563 64.8347 51.1269 64.8851C54.2037 65.3611 49.2942 67.6627 49.2942 67.6627C49.2942 67.6627 49.4699 67.7719 49.7907 67.9147C49.7963 67.9175 49.8019 67.9231 49.8074 67.9259C49.8465 67.9483 49.8883 67.9623 49.9302 67.9735C50.3626 68.1527 50.9958 68.3627 51.7824 68.4691C52.5774 68.5783 54.3822 68.5391 54.862 69.1915C55.4254 69.9587 54.7839 70.5551 54.0112 70.8603C53.8912 70.9079 55.0349 71.5659 53.47 72.5963C52.8424 73.0107 52.2566 73.1787 52.2566 73.1787C52.2566 73.1787 52.2733 74.9707 48.806 74.8755C44.884 74.7691 42.3568 73.6575 42.3568 73.6575C42.3428 71.4623 42.7919 69.2391 43.6734 67.1531L44.6413 64.8599L46.633 64.7843Z" stroke="#051321" stroke-miterlimit="10" stroke-linecap="round" stroke-linejoin="round"/>
<path d="M49.9609 70.7578C51.1074 71.0154 53.1354 71.0994 54.2037 70.8054" stroke="#051321" stroke-miterlimit="10" stroke-linecap="round" stroke-linejoin="round"/>
<path d="M49.0869 72.9893C50.2194 73.1181 52.5989 73.2105 53.5222 72.5469" stroke="#051321" stroke-miterlimit="10" stroke-linecap="round" stroke-linejoin="round"/>
<path d="M55.0034 69.4491C54.4818 69.0599 53.1958 69.5247 52.4287 70.5607" stroke="#051321" stroke-miterlimit="10" stroke-linecap="round" stroke-linejoin="round"/>
<path d="M57.8076 64.8828V67.5988" stroke="#051321" stroke-miterlimit="10" stroke-linecap="round" stroke-linejoin="round"/>
<path d="M59.1553 64.8828V67.5988" stroke="#051321" stroke-miterlimit="10" stroke-linecap="round" stroke-linejoin="round"/>
<path d="M60.5049 64.8828V67.5988" stroke="#051321" stroke-miterlimit="10" stroke-linecap="round" stroke-linejoin="round"/>
<path d="M61.8525 64.8828V67.5988" stroke="#051321" stroke-miterlimit="10" stroke-linecap="round" stroke-linejoin="round"/>
<path d="M50.1387 90.6329C50.1387 88.7205 50.2 86.7577 50.6185 84.8845C51.0006 83.1765 51.9825 81.7933 52.811 80.2812" stroke="#051321" stroke-miterlimit="10" stroke-linecap="round" stroke-linejoin="round"/>
<path d="M54.6963 95.8438C54.2807 96.9554 53.2067 97.7953 52.0742 98.0725" stroke="#051321" stroke-miterlimit="10" stroke-linecap="round" stroke-linejoin="round"/>
<path d="M50.5541 115.515C49.9069 113.885 49.7256 111.055 49.7256 111.055" stroke="#051321" stroke-miterlimit="10" stroke-linecap="round" stroke-linejoin="round"/>
<path d="M37.2173 107.625C35.5882 108.266 30.2129 108.728 30.2129 108.728" stroke="#051321" stroke-miterlimit="10" stroke-linecap="round" stroke-linejoin="round"/>
<path d="M52.9003 95.8672C52.6632 96.1304 52.3815 96.3572 52.083 96.5476" stroke="#051321" stroke-miterlimit="10" stroke-linecap="round" stroke-linejoin="round"/>
<path d="M69.8994 48.1493C69.8994 48.1493 71.4392 43.6357 72.7419 42.1853C74.0446 40.7377 77.6095 39.9061 77.6095 41.1073C77.6095 42.3085 75.3947 43.4173 75.1548 44.0417C74.9149 44.6661 75.5007 46.5785 74.9707 47.6733C74.3403 48.9753 74.0892 51.1705 74.0892 51.1705C72.7726 50.5377 71.5619 49.7089 70.4964 48.7065L69.8994 48.1493Z" fill="#D5D5D5" stroke="#051321" stroke-miterlimit="10" stroke-linecap="round" stroke-linejoin="round"/>
<path d="M74.8926 40.8828C74.8926 41.2748 75.1576 42.5572 77.6095 41.1124" stroke="#051321" stroke-miterlimit="10" stroke-linecap="round" stroke-linejoin="round"/>
<path d="M50.5008 34.4805C50.5008 34.4805 50.5008 34.4805 50.5008 34.4777C50.5008 34.4749 50.498 34.4721 50.498 34.4693C50.6403 34.4273 50.5008 34.4805 50.5008 34.4805Z" fill="#EEF4FF" stroke="#051321" stroke-miterlimit="10" stroke-linecap="round" stroke-linejoin="round"/>
</svg>
