<svg width="100" height="86" viewBox="0 0 100 86" fill="none" xmlns="http://www.w3.org/2000/svg">
<path d="M50 85.5211C77.6142 85.5211 100 71.5358 100 54.284C100 37.0322 77.6142 23.0469 50 23.0469C22.3858 23.0469 0 37.0322 0 54.284C0 71.5358 22.3858 85.5211 50 85.5211Z" fill="#F7F8F9"/>
<path d="M86.193 64.7348C90.5366 64.7348 94.0578 62.5731 94.0578 59.9065C94.0578 57.2398 90.5366 55.0781 86.193 55.0781C81.8493 55.0781 78.3281 57.2398 78.3281 59.9065C78.3281 62.5731 81.8493 64.7348 86.193 64.7348Z" fill="#E2E4E6"/>
<path d="M49.6987 77.224C56.1598 77.224 61.3975 74.0084 61.3975 70.0417C61.3975 66.075 56.1598 62.8594 49.6987 62.8594C43.2377 62.8594 38 66.075 38 70.0417C38 74.0084 43.2377 77.224 49.6987 77.224Z" fill="#E2E4E6"/>
<path d="M93.4006 45.5156H78.9727L80.2304 59.0644C80.3079 59.9316 80.8865 60.7853 81.966 61.4474C84.2948 62.8785 88.0679 62.8785 90.3968 61.4474C91.4763 60.7786 92.0528 59.9316 92.1324 59.0644L93.4006 45.5156Z" fill="#5D6772"/>
<path d="M86.1884 49.7002C90.1789 49.7002 93.4139 47.7141 93.4139 45.2641C93.4139 42.8142 90.1789 40.8281 86.1884 40.8281C82.1979 40.8281 78.9629 42.8142 78.9629 45.2641C78.9629 47.7141 82.1979 49.7002 86.1884 49.7002Z" fill="#45505C"/>
<path d="M86.1874 49.069C84.3595 49.069 82.6512 48.6388 81.3662 47.8564C80.1945 47.1364 79.5488 46.2157 79.5488 45.2661C79.5488 44.3165 80.1945 43.3958 81.3662 42.6758C82.6428 41.8934 84.3512 41.4609 86.1874 41.4609C88.0237 41.4609 89.7236 41.8934 90.9981 42.6758C92.172 43.3958 92.8176 44.3165 92.8176 45.2661C92.8176 46.2157 92.172 47.1364 90.9981 47.8564C89.7236 48.6388 88.0153 49.069 86.1874 49.069Z" fill="#5D6772"/>
<path opacity="0.1" d="M91.1477 46.1613C90.7871 45.8737 90.1457 46.1345 89.89 45.7333C89.8103 45.6062 89.7956 45.4346 89.6803 45.3365C89.345 45.0422 88.8419 45.8403 88.4855 45.5594C88.3556 45.4591 88.322 45.2451 88.1774 45.176C88.0705 45.1269 87.9489 45.176 87.8336 45.176C87.7097 45.1535 87.5939 45.0956 87.4986 45.0084C87.4033 44.9212 87.3322 44.8081 87.2928 44.6811C87.2172 44.4257 87.1048 44.1843 86.9595 43.9656C86.8345 43.821 86.6634 43.7312 86.4795 43.7137C86.0267 43.6713 85.6557 44.0636 85.3517 44.4225C85.3035 44.4805 85.2532 44.5384 85.205 44.5986C85.1189 44.714 85.0129 44.8108 84.8927 44.884C84.8294 44.9233 84.7541 44.9345 84.6831 44.9152C84.6454 44.8986 84.6112 44.8741 84.5828 44.843C84.5543 44.812 84.5321 44.7751 84.5175 44.7346C84.3896 44.4404 84.419 43.9878 84.1234 43.9054C84.0437 43.8831 83.9494 43.8942 83.8865 43.8363C83.8236 43.7783 83.8257 43.6914 83.7817 43.6267C83.7501 43.5902 83.7115 43.5613 83.6684 43.5421C83.6254 43.5228 83.5789 43.5137 83.5323 43.5153C82.9244 43.4662 82.3878 43.9009 81.9161 44.3111C81.6625 44.1327 81.6352 43.7382 81.7317 43.4194C81.9748 42.6481 82.7399 42.2224 83.4568 41.937C83.7922 41.8033 84.1339 41.6851 84.4776 41.5781C83.3827 41.7272 82.3239 42.094 81.3564 42.6593C80.1847 43.3793 79.5391 44.2999 79.5391 45.2495C79.5391 46.1992 80.1847 47.1198 81.3564 47.8398C82.633 48.6222 84.3414 49.0525 86.1776 49.0525C88.0139 49.0525 89.7139 48.6222 90.9884 47.8398L91.0638 47.7908C91.1351 47.6325 91.2001 47.472 91.2567 47.307C91.4013 46.9281 91.46 46.4132 91.1477 46.1613Z" fill="#051321"/>
<path d="M82.7935 60.4567C82.4766 60.3279 82.1696 60.1728 81.8754 59.993C81.7664 59.9261 81.6658 59.8593 81.5652 59.7879C81.3626 59.5827 81.2418 59.3027 81.2277 59.0055L80.5129 49.8905C80.4877 49.5851 80.6177 49.4647 80.8147 49.6052C80.9307 49.6884 81.0523 49.7686 81.1795 49.8459C81.5439 50.0691 81.9253 50.2592 82.3198 50.4143C82.4609 50.4764 82.5838 50.5776 82.6756 50.7074C82.7674 50.8372 82.8248 50.9908 82.8417 51.1522L83.261 60.0799C83.2725 60.1437 83.267 60.2096 83.2452 60.2702C83.2233 60.3308 83.186 60.3836 83.1374 60.4228C83.0887 60.462 83.0307 60.486 82.97 60.492C82.9092 60.4979 82.8481 60.4857 82.7935 60.4567Z" fill="#45505C"/>
<path d="M87.2999 51.6205L87.1573 60.4836C87.154 60.6355 87.0977 60.7806 86.9992 60.8906C86.9008 61.0007 86.7673 61.0678 86.6249 61.0788C86.3356 61.0922 86.0422 61.0922 85.7508 61.0788C85.6087 61.0672 85.4758 60.9999 85.3777 60.8899C85.2797 60.7799 85.2237 60.6351 85.2205 60.4836L85.0842 51.6205C85.0822 51.5495 85.0943 51.4789 85.1198 51.4132C85.1453 51.3476 85.1835 51.2884 85.232 51.2395C85.2805 51.1907 85.3381 51.1533 85.4012 51.1299C85.4642 51.1064 85.5312 51.0974 85.5978 51.1034C85.9937 51.1257 86.3904 51.1257 86.7863 51.1034C86.8528 51.0974 86.9198 51.1064 86.9829 51.1299C87.0459 51.1533 87.1036 51.1907 87.1521 51.2395C87.2006 51.2884 87.2388 51.3476 87.2643 51.4132C87.2897 51.4789 87.3019 51.5495 87.2999 51.6205Z" fill="#45505C"/>
<path d="M91.8751 49.8944L91.152 59.0161C91.1357 59.3138 91.0145 59.594 90.8124 59.8008C90.7139 59.8699 90.6028 59.939 90.5021 60.0036C90.2102 60.1802 89.9061 60.333 89.5924 60.4606C89.5379 60.49 89.4768 60.5027 89.4159 60.4971C89.355 60.4914 89.2969 60.4678 89.248 60.4288C89.1991 60.3898 89.1615 60.3371 89.1394 60.2765C89.1172 60.2159 89.1115 60.15 89.1229 60.0861L89.5421 51.1561C89.559 50.9947 89.6164 50.8411 89.7082 50.7113C89.8 50.5815 89.9229 50.4803 90.064 50.4183C90.4565 50.2625 90.8365 50.0732 91.2002 49.8521C91.328 49.774 91.4517 49.6916 91.5691 49.6068C91.7661 49.4642 91.8982 49.5823 91.8751 49.8944Z" fill="#45505C"/>
<path d="M79.9727 46.5624C80.3459 47.097 80.8245 47.5383 81.375 47.8553C82.6516 48.6378 84.3599 49.068 86.1962 49.068C88.0324 49.068 89.7324 48.6378 91.0069 47.8553C91.3793 47.6319 91.7231 47.3585 92.0298 47.0417C92.0053 46.9086 91.9622 46.7801 91.902 46.6605C91.8383 46.5312 91.7458 46.4205 91.6325 46.3381C91.5192 46.2557 91.3886 46.2041 91.2522 46.1879C91.095 46.1879 90.9398 46.2258 90.7847 46.2169C90.7067 46.2209 90.6296 46.1981 90.5647 46.1519C90.4998 46.1058 90.4506 46.0387 90.4242 45.9606C90.4095 45.887 90.4242 45.809 90.4137 45.7377C90.3781 45.5437 90.1475 45.4612 89.963 45.4969C89.7786 45.5326 89.6172 45.6463 89.4369 45.6953C89.3492 45.7292 89.2532 45.7299 89.165 45.6974C89.0769 45.665 89.0019 45.6013 88.9527 45.517C88.917 45.4233 88.9296 45.3119 88.8793 45.2249C88.7787 45.0444 88.481 45.0845 88.3825 44.9017C88.3049 44.7568 88.4014 44.583 88.4244 44.4202C88.4324 44.2821 88.4013 44.1446 88.3352 44.0254C88.2691 43.9063 88.1709 43.8108 88.0534 43.7515C87.8174 43.6379 87.562 43.5772 87.303 43.5731C87.0253 43.5132 86.7367 43.5565 86.4855 43.6958C86.2423 43.8741 86.1522 44.2018 86.0369 44.4893C85.9216 44.7769 85.7078 45.0778 85.408 45.0756C85.4002 44.9455 85.3592 44.82 85.2894 44.7128C85.2196 44.6056 85.1236 44.5206 85.0119 44.467C84.8751 44.4182 84.7349 44.381 84.5926 44.3556C84.1629 44.2307 83.7542 43.8496 83.3349 43.9722C83.1573 44.0383 82.9966 44.1475 82.8654 44.2909L82.1653 44.9441C81.9947 45.0765 81.8625 45.2573 81.7838 45.4657C81.7695 45.5579 81.7441 45.6478 81.7083 45.7332C81.5762 45.9561 81.3016 45.8669 81.0983 45.8714C80.8197 45.8506 80.5437 45.9395 80.3227 46.1211C80.1779 46.2401 80.0586 46.3906 79.9727 46.5624Z" fill="#7539FF"/>
<path opacity="0.1" d="M90.9992 47.8526C91.3716 47.6292 91.7154 47.3557 92.0221 47.039C92.0125 46.993 92.0006 46.9476 91.9865 46.903C91.7414 47.1174 91.4533 47.2691 91.1444 47.3464C90.8355 47.4237 90.514 47.4245 90.2047 47.3488C90.0025 47.2715 89.7906 47.2264 89.5759 47.2151C89.467 47.2126 89.361 47.252 89.2774 47.3262C89.1937 47.4004 89.1382 47.5042 89.121 47.6186C89.1285 47.6485 89.1285 47.68 89.121 47.71C89.1105 47.7253 89.097 47.738 89.0815 47.7472C89.0659 47.7564 89.0486 47.762 89.0309 47.7635C88.4817 47.8905 87.857 47.5405 87.3707 47.8459C87.2147 47.9818 87.0461 48.1006 86.8676 48.2004C86.6493 48.2457 86.423 48.2128 86.2241 48.1067C86.1643 48.0891 86.109 48.0571 86.0627 48.0131C85.9789 47.9217 85.9809 47.7768 85.916 47.6721C85.8568 47.5967 85.7813 47.5378 85.6959 47.5004C85.4138 47.3137 85.0869 47.2177 84.7547 47.224C84.5567 47.2632 84.3718 47.3569 84.2184 47.4958C84.0651 47.6346 83.9486 47.8137 83.8806 48.0154C83.1071 47.7278 82.5474 46.767 81.732 46.8584C81.6607 46.5909 81.9605 46.3881 82.212 46.3078C82.4636 46.2276 82.7759 46.1027 82.7864 45.8241C82.7864 45.7082 82.7361 45.6012 82.7487 45.4808C82.7675 45.3203 82.9184 45.1776 82.8723 45.0216C82.8408 44.9539 82.799 44.8921 82.7487 44.8388C82.679 44.7365 82.6504 44.6091 82.669 44.4844L82.189 44.9302C82.0184 45.0627 81.8862 45.2434 81.8075 45.4518C81.7932 45.5441 81.7678 45.634 81.732 45.7193C81.5999 45.9422 81.3253 45.8531 81.122 45.8575C80.8434 45.8368 80.5674 45.9256 80.3464 46.1072C80.1996 46.227 80.0788 46.3791 79.9922 46.553C80.3654 47.0876 80.844 47.5289 81.3945 47.8459C82.6711 48.6284 84.3795 49.0586 86.2157 49.0586C88.052 49.0586 89.7247 48.6351 90.9992 47.8526Z" fill="#051321"/>
<path d="M32.5382 36.9041C32.5404 36.8537 32.5539 36.8046 32.5775 36.7608C32.601 36.717 32.6341 36.6798 32.6738 36.6523L39.651 32.3702C39.6934 32.3477 39.7402 32.3359 39.7877 32.3359C39.8351 32.3359 39.8819 32.3477 39.9243 32.3702L40.0771 32.4664C40.1169 32.4935 40.15 32.5303 40.174 32.5736C40.1979 32.617 40.2119 32.6657 40.2148 32.7158V38.4031C40.2122 38.4537 40.1984 38.5028 40.1744 38.5466C40.1505 38.5904 40.1171 38.6275 40.0771 38.6549L33.0999 42.9392C33.0579 42.9618 33.0114 42.9735 32.9644 42.9735C32.9173 42.9735 32.8708 42.9618 32.8288 42.9392L32.6738 42.8431C32.6344 42.8158 32.6015 42.779 32.5779 42.7356C32.5544 42.6923 32.5408 42.6436 32.5382 42.5936V36.9041Z" fill="#7539FF"/>
<path opacity="0.4" d="M32.5768 36.7635L32.9642 36.9924L40.1738 32.5661C40.1509 32.5213 40.1176 32.4834 40.077 32.4563L39.9242 32.3624C39.8817 32.3399 39.835 32.3281 39.7875 32.3281C39.7401 32.3281 39.6933 32.3399 39.6509 32.3624L32.6737 36.6468C32.6332 36.677 32.6 36.717 32.5768 36.7635Z" fill="white"/>
<path opacity="0.2" d="M32.5385 36.9048V42.5921C32.5411 42.6421 32.5547 42.6908 32.5783 42.7341C32.6018 42.7775 32.6347 42.8143 32.6741 42.8416L32.8291 42.9377L32.8657 42.956L32.9216 42.9698C32.9573 42.9755 32.9936 42.9755 33.0292 42.9698H33.0551C33.0606 42.9717 33.0667 42.9717 33.0723 42.9698C33.0622 42.9748 33.0512 42.9775 33.04 42.9775C33.0288 42.9775 33.0178 42.9748 33.0077 42.9698C32.9928 42.9596 32.9809 42.9452 32.9733 42.9282C32.9657 42.9112 32.9627 42.8923 32.9647 42.8736V37.1772C32.9631 37.1513 32.9691 37.1256 32.9818 37.1034C32.9945 37.0813 33.0133 37.0639 33.0357 37.0536L32.9647 37.0101L32.5773 36.7812C32.5564 36.8191 32.5432 36.8612 32.5385 36.9048Z" fill="#051321"/>
<path opacity="0.2" d="M32.9651 37.0006L36.1933 38.2845C36.3063 38.3276 36.4298 38.3284 36.5432 38.2868C36.6567 38.2452 36.7534 38.1637 36.8174 38.0557L37.3361 37.2089L40.1984 32.5469L37.4329 37.2523L40.207 38.3967C40.204 38.4485 40.1892 38.4987 40.164 38.5431L37.4329 37.2661L36.8282 38.2914C36.7616 38.4055 36.6585 38.4901 36.5379 38.5296C36.4172 38.5692 36.2872 38.561 36.1718 38.5065L35.7414 38.3051L33.006 42.9511C32.9911 42.9409 32.9792 42.9265 32.9716 42.9096C32.964 42.8926 32.961 42.8737 32.963 42.855V42.7611L35.7285 38.2983L32.9651 37.0006Z" fill="#051321"/>
<path d="M38.9209 26.0998L42.1211 19.9571C42.1211 19.9571 45.6786 15.2333 44.2862 13.2742C42.388 13.0888 40.7093 13.4413 39.1211 16.7072C37.337 20.3484 36.489 22.985 35.5615 25.3583C35.3054 26.0151 35.3312 29.249 35.3915 31.6956C35.4302 33.2976 35.3398 35.0347 35.3398 35.0347L36.545 34.2955C36.8207 34.126 37.1326 34.0346 37.451 34.03H37.7523C38.0509 34.3623 38.2721 34.7644 38.398 35.2041C38.5895 36.1195 39.0608 36.4033 39.3148 36.1882C39.4374 36.0829 39.53 35.5428 39.2438 34.2611C39.0113 33.2083 38.1096 32.1785 38.228 31.3729L38.9209 26.0998Z" fill="#F7AC94"/>
<path d="M44.2852 13.2742C44.2852 13.2742 43.0757 12.9858 42.1675 13.3108C41.2593 13.6358 40.6222 14.0134 39.6516 15.5514C38.681 17.0894 36.5289 22.4586 36.5289 22.4586C36.5289 22.4586 36.7893 23.937 39.9723 24.468L43.1445 19.037L44.2852 13.2742Z" fill="#5D6772"/>
<path d="M49.2461 11.5574L48.6069 15.8441L44.6083 15.6175L45.1807 10.6328L49.2461 11.5574Z" fill="#F7AC94"/>
<path d="M51.9327 6.29688C51.9327 6.29688 52.8861 7.83485 52.7764 7.9859C52.6666 8.13695 51.9672 8.27427 51.9672 8.27427L51.9327 6.29688Z" fill="#F7AC94"/>
<path d="M49.288 2.04496C51.2249 2.47751 51.7737 3.37924 51.9567 6.63599C52.1461 10.0392 51.8189 11.1103 51.3993 11.568C51.1152 11.877 49.5377 11.9342 48.7414 11.7008C47.745 11.4078 45.4939 10.5564 44.4372 8.84682C43.1975 6.83281 42.8726 4.10245 44.2004 2.9833C46.0706 1.40642 48.5047 1.86873 49.288 2.04496Z" fill="#F7AC94"/>
<path d="M49.2109 11.7958C48.8671 11.7286 48.5278 11.6376 48.1951 11.5234C48.4504 11.826 48.7896 12.0344 49.1636 12.1185L49.2109 11.7958Z" fill="#F7AC94"/>
<path d="M52.3454 3.30872C52.1965 3.46425 52.0311 3.60095 51.8526 3.7161C51.5946 3.89309 51.3257 4.05137 51.0477 4.18985C50.7757 4.29411 50.5134 4.42513 50.2643 4.58121C49.9135 4.84669 49.8683 5.19686 49.8597 5.62483C49.8597 5.90405 49.8597 6.25192 49.8597 6.62955C49.8597 7.19485 49.5154 7.62283 49.3497 6.85842C49.3497 6.85842 49.0441 5.60195 48.0476 5.75986C47.0512 5.91778 46.9716 7.11246 47.4364 8.04851C47.727 8.61839 48.5017 8.46963 48.5017 8.46963C48.5291 8.99676 48.4503 9.52402 48.2707 10.0162C48.091 10.5083 47.8147 10.9541 47.4601 11.3236C47.4601 11.3236 46.6918 11.5707 45.1229 11.216C44.1588 10.9871 43.2334 9.86799 42.6609 8.51082C41.4492 5.64085 41.3696 3.05697 43.0913 2.28341C43.2785 0.960566 44.2578 0.367806 45.3726 0.0954571C47.0426 -0.311922 48.6007 0.740856 50.2557 0.349497C50.5276 0.288305 50.7963 0.21191 51.0606 0.120632C51.1624 0.0701024 51.2784 0.0619382 51.3856 0.0977462C51.4445 0.139912 51.4906 0.199295 51.5185 0.268735C51.5464 0.338175 51.5548 0.414707 51.5427 0.489105C51.5305 0.659311 51.48 0.823897 51.3953 0.968914C51.3107 1.11393 51.1944 1.23511 51.0563 1.32217C51.0907 1.30158 51.2522 1.34735 51.2952 1.34964C51.3877 1.34964 51.4803 1.34964 51.5728 1.36108C51.7542 1.35769 51.9352 1.34393 52.1152 1.31988C52.2397 1.29918 52.3667 1.30384 52.4896 1.33362C52.6248 1.38915 52.7396 1.48943 52.8171 1.61965C52.8946 1.74987 52.9307 1.90314 52.92 2.05683C52.8922 2.36322 52.7898 2.65663 52.6231 2.90821C52.5633 3.01464 52.4964 3.11637 52.4229 3.2126C52.3885 3.25151 52.367 3.27668 52.3454 3.30872Z" fill="#5D6772"/>
<path d="M43.0479 2.73769L41.8943 2.01447C41.9845 1.8518 42.1318 1.73389 42.3037 1.68668C42.4756 1.63946 42.6581 1.66682 42.8111 1.76272C42.9641 1.85863 43.075 2.01522 43.1194 2.19807C43.1638 2.38091 43.138 2.57502 43.0479 2.73769Z" fill="#5D6772"/>
<path d="M41.9735 66.4233L41.9541 66.7002C41.9079 67.0627 41.8992 67.4296 41.9283 67.7942C41.9563 68.0459 42.0251 68.3869 42.2447 68.5242C42.48 68.6674 42.7338 68.773 42.9979 68.8378C43.5823 68.9904 44.1982 68.9258 44.7433 68.6547C45.1952 68.4258 45.5503 68.0551 46.0345 67.9086C46.5406 67.7749 47.0559 67.6846 47.5755 67.6385C47.8057 67.6184 48.0336 67.574 48.2555 67.5058C48.4248 67.4441 48.5889 67.3675 48.7462 67.2769C49.2943 67.0006 49.7885 66.6171 50.2032 66.1463C50.4619 65.8309 50.6405 65.4504 50.7219 65.0409C50.7671 64.8006 50.8596 64.1048 50.4808 64.1254C48.6257 64.2147 46.7899 64.6381 44.9327 64.6152C44.8119 64.6091 44.6909 64.6145 44.5711 64.6312C44.3442 64.682 44.1313 64.7877 43.9491 64.9402C43.8719 65.0112 43.7799 65.0617 43.6808 65.0875C43.5817 65.1134 43.4782 65.1139 43.3788 65.089C43.0598 65.0352 42.7344 65.0398 42.4168 65.1027C42.3489 65.1118 42.2839 65.1372 42.2265 65.1768C42.1691 65.2164 42.1209 65.2693 42.0854 65.3316C42.0695 65.3795 42.0601 65.4296 42.0574 65.4803C42.0316 65.7847 42.0015 66.1074 41.9735 66.4233Z" fill="#5D6772"/>
<path d="M42.1683 64.0618L42.263 65.5494C42.3534 66.1147 44.1676 66.4649 44.5421 65.4602L44.7207 63.7734L42.1683 64.0618Z" fill="#F7AC94"/>
<path d="M49.0552 69.9476C49.0552 69.9476 48.84 70.7212 48.7195 71.3963C48.6291 71.9319 48.5043 72.8267 48.6851 73.2272C48.8659 73.6277 49.561 73.8681 50.622 73.8337C51.3107 73.8108 52.3932 74.2915 53.1378 74.7011C53.8825 75.1108 55.4879 75.2756 56.2885 75.1589C57.2333 75.017 58.1996 74.4105 58.3438 73.9894C58.488 73.5682 58.2749 73.1426 56.026 72.1859C56.0044 72.1859 52.9032 71.1858 51.797 69.9453L49.0552 69.9476Z" fill="#5D6772"/>
<path d="M49.0445 68.9912C49.0445 68.9912 49.0617 69.6458 49.0682 70.0211C49.0746 70.3965 49.4986 70.9366 50.5747 70.8771C51.3301 70.829 51.853 70.6002 51.8078 69.9387L51.7885 68.9844L49.0445 68.9912Z" fill="#F7AC94"/>
<path d="M41.4298 52.6416C41.7483 49.7464 41.9872 48.0895 41.9872 48.0895C41.9872 48.0895 41.9334 44.0591 41.7096 40.308C41.4707 36.248 41.5245 31.1351 41.4298 30.1236C41.4298 30.1236 53.6969 27.3383 53.7959 32.0414C53.9121 37.5067 53.5807 48.8149 53.4967 50.2865C53.3934 52.3463 53.3891 54.5045 53.0663 57.8574C52.7413 61.1691 51.7966 68.9917 51.7966 68.9917C50.4041 69.8362 49.0505 68.9917 49.0505 68.9917C49.0505 68.9917 47.9851 59.6082 48.026 57.2349C48.0525 55.5065 48.208 53.7831 48.4909 52.0808L47.5246 41.473C47.5246 41.473 47.1458 44.7526 47.0425 46.8192C46.9392 48.8859 46.6745 50.1492 46.1946 53.9942C45.7771 57.3333 44.7204 64.3755 44.7204 64.3755C44.319 64.6169 43.8623 64.7346 43.4015 64.7152C42.9407 64.6958 42.4942 64.5401 42.112 64.2656C42.112 64.2656 41.1113 55.5367 41.4298 52.6416Z" fill="#7539FF"/>
<path opacity="0.15" d="M42.8518 36.5391C42.8518 36.5391 43.7019 38.029 46.2801 39.1229L46.9989 41.6839L47.0764 46.1857C47.1754 44.7347 47.326 43.151 47.5176 41.4734L47.227 38.8346C47.227 38.8346 44.3798 37.9168 42.8518 36.5391Z" fill="#051321"/>
<path d="M40.9589 16.0184C41.4517 14.1554 42.6074 13.3315 43.8922 13.2445C44.2194 13.2217 44.8822 13.2445 44.8822 13.2445C44.7918 14.0341 47.0795 14.5926 48.8593 14.1463C49.3952 14.2973 50.284 14.5102 50.7317 14.6681C52.01 15.1258 53.5445 16.8217 53.7446 21.2594C53.7446 21.2594 53.9469 30.7962 53.8845 33.5655C50.7252 34.9844 47.6757 35.1675 45.8356 34.7784C42.0027 33.9843 41.3721 32.238 41.3721 32.238C41.3721 32.238 41.4087 29.8144 41.5507 25.9488C40.9008 20.4607 40.7458 16.8286 40.9589 16.0184Z" fill="#45505C"/>
<path d="M67.7622 13.4373C67.7702 13.4155 67.774 13.3923 67.7734 13.369C67.7728 13.3456 67.7679 13.3226 67.7588 13.3013C67.7498 13.2801 67.7369 13.2609 67.7209 13.2449C67.7048 13.229 67.686 13.2166 67.6654 13.2085L59.8446 9.86245C59.7244 9.83021 59.5977 9.83984 59.483 9.88992L59.2463 9.99519C59.1335 10.0431 59.0399 10.1313 58.9816 10.2447L57.0598 15.6047C57.0515 15.6264 57.0475 15.6497 57.0479 15.6731C57.0484 15.6966 57.0533 15.7197 57.0623 15.7411C57.0714 15.7624 57.0844 15.7816 57.1006 15.7975C57.1168 15.8134 57.1358 15.8257 57.1566 15.8335L64.9796 19.1795C65.0997 19.2118 65.2265 19.2022 65.3411 19.1521L65.5778 19.0468C65.6912 18.9988 65.7854 18.9107 65.8447 18.7973L67.7622 13.4373Z" fill="#7539FF"/>
<path opacity="0.4" d="M67.7578 13.3086L67.1617 13.5718L59.0826 10.1137C59.1316 10.0685 59.1868 10.0315 59.2462 10.0038L59.4829 9.89856C59.5973 9.84733 59.7244 9.83768 59.8445 9.87109L67.6653 13.2171C67.7058 13.2342 67.7388 13.2669 67.7578 13.3086Z" fill="white"/>
<path opacity="0.2" d="M67.7615 13.4393L65.8397 18.7993C65.7804 18.9127 65.6862 19.0008 65.5728 19.0488L65.3361 19.1541L65.2802 19.1747L65.2027 19.193C65.1554 19.1974 65.1079 19.1974 65.0606 19.193H65.0284H65.009C65.037 19.2022 65.067 19.2022 65.0951 19.193C65.1153 19.1851 65.1337 19.1726 65.1489 19.1564C65.1641 19.1402 65.1759 19.1207 65.1833 19.0992L67.1052 13.7414C67.1104 13.7308 67.1132 13.719 67.1134 13.707C67.1135 13.695 67.1109 13.6831 67.1059 13.6724C67.1008 13.6616 67.0934 13.6523 67.0843 13.6452C67.0752 13.6381 67.0647 13.6335 67.0535 13.6316L67.1611 13.5835L67.7572 13.3203C67.772 13.3582 67.7735 13.4004 67.7615 13.4393Z" fill="#051321"/>
<path opacity="0.2" d="M67.1621 13.5725L62.4382 15.1013C62.1003 15.2112 61.7926 15.1517 61.6828 14.9571L61.2804 14.2133L59.0551 10.0938L61.1319 14.2431L57.0579 15.6163C57.0418 15.6581 57.0418 15.7049 57.0579 15.7467L61.1297 14.2637L61.5838 15.1791C61.6871 15.3874 62.0293 15.4446 62.3844 15.3164L63.03 15.0876L65.0961 19.1934C65.1163 19.1855 65.1347 19.173 65.1499 19.1568C65.1651 19.1406 65.1769 19.1211 65.1843 19.0996L65.2166 19.0103L63.043 15.0693L67.1621 13.5725Z" fill="#051321"/>
<path d="M54.4569 17.7835C55.9096 19.7655 57.9433 22.553 59.0926 24.2054C59.919 23.3609 62.9298 20.3353 63.2397 19.857C63.5862 19.326 63.5711 18.5983 63.8573 17.8201C64.0898 17.1839 64.6149 16.3989 64.7505 16.0739C64.998 15.4788 65.5425 15.1836 65.5511 16.0533C65.5511 16.7765 65.2282 17.637 65.2648 17.8018C65.2821 17.8728 65.5511 17.7286 65.8438 17.4356C65.9729 17.3047 66.0897 17.1606 66.1924 17.0054L66.8036 16.1242L67.234 14.9456C67.234 14.9456 67.404 14.9707 67.6193 15.5154C68.2391 17.0855 68.1573 18.8042 66.9629 20.1889C66.2548 21.0105 65.0625 22.1342 63.8251 23.7134C62.5876 25.2926 60.2676 28.0252 59.2776 28.6317C58.3867 29.1764 57.2998 28.3159 56.0495 26.9701C54.2955 25.0911 51.5838 21.9351 51.5838 21.9351C51.5838 21.9351 49.5608 18.287 50.7402 14.6641C52.2187 14.7236 52.6018 15.2545 54.4569 17.7835Z" fill="#F7AC94"/>
<path d="M50.2569 14.5234C50.2569 14.5234 51.6837 14.6218 52.5919 15.1139C52.8351 15.2467 53.5324 16.0523 54.1953 16.9952C55.4865 18.8467 57.7656 22.0554 57.7656 22.0554C57.7656 22.0554 57.7226 25.097 54.9184 25.9461C54.9184 25.9461 52.1099 22.8816 51.3545 21.9341C50.3709 20.7028 49.4111 17.041 50.2569 14.5234Z" fill="#5D6772"/>
</svg>
