<svg width="86" height="22" viewBox="0 0 86 22" fill="none" xmlns="http://www.w3.org/2000/svg">
<g clip-path="url(#clip0_739_305210)">
<path d="M13.9998 11.3484C13.9998 7.45819 10.8655 4.30469 6.9998 4.30469C3.1323 4.30556 -0.00195312 7.45819 -0.00195312 11.3493C-0.00195312 14.8642 2.5583 17.7779 5.9043 18.3064V13.3846H4.12805V11.3493H5.90605V9.79619C5.90605 8.03131 6.95167 7.05656 8.5503 7.05656C9.3168 7.05656 10.1174 7.19394 10.1174 7.19394V8.92644H9.23455C8.36567 8.92644 8.09442 9.46981 8.09442 10.0272V11.3484H10.0352L9.72542 13.3837H8.09355V18.3056C11.4395 17.7771 13.9998 14.8633 13.9998 11.3484Z" fill="#2F80ED"/>
</g>
<path d="M23.036 16.8047V6.72469H24.52V16.8047H23.036ZM23.764 12.6187V11.4007H29.308V12.6187H23.764ZM23.764 7.94269V6.72469H29.686V7.94269H23.764ZM35.1296 16.8047C35.0829 16.6274 35.0503 16.4314 35.0316 16.2167C35.0223 16.002 35.0176 15.7407 35.0176 15.4327H34.9476V12.0307C34.9476 11.5734 34.8309 11.2327 34.5976 11.0087C34.3736 10.7754 34.0143 10.6587 33.5196 10.6587C33.0436 10.6587 32.6609 10.752 32.3716 10.9387C32.0916 11.1254 31.9283 11.3914 31.8816 11.7367H30.4956C30.5609 11.0647 30.8643 10.528 31.4056 10.1267C31.9469 9.72535 32.6703 9.52469 33.5756 9.52469C34.5089 9.52469 35.2089 9.74402 35.6756 10.1827C36.1423 10.612 36.3756 11.2467 36.3756 12.0867V15.4327C36.3756 15.6474 36.3896 15.8667 36.4176 16.0907C36.4456 16.3147 36.4876 16.5527 36.5436 16.8047H35.1296ZM32.6656 16.9447C31.9376 16.9447 31.3589 16.7674 30.9296 16.4127C30.5003 16.0487 30.2856 15.5587 30.2856 14.9427C30.2856 14.308 30.5096 13.8087 30.9576 13.4447C31.4149 13.0714 32.0683 12.8194 32.9176 12.6887L35.2696 12.3107V13.3327L33.1416 13.6687C32.6656 13.7434 32.3063 13.8694 32.0636 14.0467C31.8303 14.224 31.7136 14.4807 31.7136 14.8167C31.7136 15.1434 31.8209 15.3907 32.0356 15.5587C32.2596 15.7174 32.5816 15.7967 33.0016 15.7967C33.5616 15.7967 34.0236 15.6614 34.3876 15.3907C34.7609 15.12 34.9476 14.7794 34.9476 14.3687L35.1296 15.4047C34.9616 15.8994 34.6629 16.282 34.2336 16.5527C33.8043 16.814 33.2816 16.9447 32.6656 16.9447ZM41.2615 16.9447C40.5802 16.9447 39.9735 16.786 39.4415 16.4687C38.9095 16.142 38.4895 15.6987 38.1815 15.1387C37.8828 14.5787 37.7335 13.9394 37.7335 13.2207C37.7335 12.502 37.8828 11.8674 38.1815 11.3167C38.4895 10.7567 38.9095 10.318 39.4415 10.0007C39.9735 9.68335 40.5755 9.52469 41.2475 9.52469C41.8168 9.52469 42.3255 9.63202 42.7735 9.84669C43.2215 10.0614 43.5902 10.36 43.8795 10.7427C44.1688 11.1254 44.3555 11.578 44.4395 12.1007H43.0675C42.9742 11.6807 42.7688 11.3447 42.4515 11.0927C42.1435 10.8407 41.7515 10.7147 41.2755 10.7147C40.8648 10.7147 40.5055 10.8174 40.1975 11.0227C39.8895 11.228 39.6515 11.5174 39.4835 11.8907C39.3155 12.264 39.2315 12.7074 39.2315 13.2207C39.2315 13.7247 39.3155 14.168 39.4835 14.5507C39.6515 14.9334 39.8895 15.232 40.1975 15.4467C40.5055 15.652 40.8695 15.7547 41.2895 15.7547C41.7468 15.7547 42.1342 15.6334 42.4515 15.3907C42.7782 15.1387 42.9882 14.8027 43.0815 14.3827H44.4535C44.3602 14.896 44.1642 15.344 43.8655 15.7267C43.5762 16.1094 43.2075 16.408 42.7595 16.6227C42.3115 16.8374 41.8122 16.9447 41.2615 16.9447ZM48.9477 16.9447C48.229 16.9447 47.5944 16.786 47.0437 16.4687C46.5024 16.1514 46.0777 15.7127 45.7697 15.1527C45.4617 14.5927 45.3077 13.9487 45.3077 13.2207C45.3077 12.4834 45.457 11.8394 45.7557 11.2887C46.0637 10.7287 46.493 10.2947 47.0437 9.98669C47.5944 9.67869 48.2244 9.52469 48.9337 9.52469C49.6244 9.52469 50.2217 9.67402 50.7257 9.97269C51.239 10.262 51.631 10.668 51.9017 11.1907C52.1817 11.7134 52.3217 12.334 52.3217 13.0527C52.3217 13.1647 52.317 13.272 52.3077 13.3747C52.3077 13.468 52.2984 13.566 52.2797 13.6687H46.2877V12.5767H51.2577L50.8937 13.0107C50.8937 12.2454 50.721 11.662 50.3757 11.2607C50.0304 10.8594 49.5497 10.6587 48.9337 10.6587C48.271 10.6587 47.7437 10.8874 47.3517 11.3447C46.969 11.7927 46.7777 12.418 46.7777 13.2207C46.7777 14.0327 46.969 14.6674 47.3517 15.1247C47.7437 15.582 48.285 15.8107 48.9757 15.8107C49.3957 15.8107 49.7597 15.7267 50.0677 15.5587C50.3757 15.3814 50.6044 15.1247 50.7537 14.7887H52.1257C51.8924 15.4607 51.4957 15.988 50.9357 16.3707C50.385 16.7534 49.7224 16.9447 48.9477 16.9447ZM57.6191 16.9307C56.9471 16.9307 56.3871 16.772 55.9391 16.4547C55.4911 16.128 55.1971 15.6754 55.0571 15.0967L55.1971 15.0687V16.8047H53.8111V6.72469H55.2671V11.3027L55.1131 11.2607C55.2717 10.7194 55.5797 10.2947 56.0371 9.98669C56.5037 9.67869 57.0637 9.52469 57.7171 9.52469C58.3611 9.52469 58.9164 9.67869 59.3831 9.98669C59.8591 10.2947 60.2231 10.724 60.4751 11.2747C60.7364 11.8254 60.8671 12.4694 60.8671 13.2067C60.8671 13.9534 60.7317 14.6067 60.4611 15.1667C60.1904 15.7267 59.8124 16.1607 59.3271 16.4687C58.8417 16.7767 58.2724 16.9307 57.6191 16.9307ZM57.3111 15.7267C57.9457 15.7267 58.4497 15.5027 58.8231 15.0547C59.1964 14.6067 59.3831 13.9907 59.3831 13.2067C59.3831 12.432 59.1964 11.83 58.8231 11.4007C58.4497 10.962 57.9411 10.7427 57.2971 10.7427C56.6624 10.7427 56.1537 10.9667 55.7711 11.4147C55.3977 11.8534 55.2111 12.4647 55.2111 13.2487C55.2111 14.014 55.3977 14.6207 55.7711 15.0687C56.1537 15.5074 56.6671 15.7267 57.3111 15.7267ZM65.546 16.9447C64.818 16.9447 64.1787 16.786 63.628 16.4687C63.0773 16.142 62.648 15.6987 62.34 15.1387C62.032 14.5694 61.878 13.9254 61.878 13.2067C61.878 12.4787 62.032 11.8394 62.34 11.2887C62.6573 10.738 63.0867 10.3087 63.628 10.0007C64.1787 9.68335 64.818 9.52469 65.546 9.52469C66.2833 9.52469 66.9273 9.68335 67.478 10.0007C68.0287 10.3087 68.4533 10.738 68.752 11.2887C69.06 11.8394 69.214 12.4787 69.214 13.2067C69.214 13.9254 69.06 14.5694 68.752 15.1387C68.4533 15.6987 68.0287 16.142 67.478 16.4687C66.9273 16.786 66.2833 16.9447 65.546 16.9447ZM65.546 15.7547C65.9847 15.7547 66.3627 15.6474 66.68 15.4327C67.0067 15.218 67.2633 14.9194 67.45 14.5367C67.6367 14.154 67.73 13.706 67.73 13.1927C67.73 12.4274 67.5247 11.8254 67.114 11.3867C66.7127 10.9387 66.19 10.7147 65.546 10.7147C64.9113 10.7147 64.3887 10.9387 63.978 11.3867C63.5767 11.8347 63.376 12.4367 63.376 13.1927C63.376 13.706 63.4647 14.154 63.642 14.5367C63.8287 14.9194 64.0853 15.218 64.412 15.4327C64.748 15.6474 65.126 15.7547 65.546 15.7547ZM73.8175 16.9447C73.0895 16.9447 72.4502 16.786 71.8995 16.4687C71.3488 16.142 70.9195 15.6987 70.6115 15.1387C70.3035 14.5694 70.1495 13.9254 70.1495 13.2067C70.1495 12.4787 70.3035 11.8394 70.6115 11.2887C70.9288 10.738 71.3582 10.3087 71.8995 10.0007C72.4502 9.68335 73.0895 9.52469 73.8175 9.52469C74.5548 9.52469 75.1988 9.68335 75.7495 10.0007C76.3002 10.3087 76.7248 10.738 77.0235 11.2887C77.3315 11.8394 77.4855 12.4787 77.4855 13.2067C77.4855 13.9254 77.3315 14.5694 77.0235 15.1387C76.7248 15.6987 76.3002 16.142 75.7495 16.4687C75.1988 16.786 74.5548 16.9447 73.8175 16.9447ZM73.8175 15.7547C74.2562 15.7547 74.6342 15.6474 74.9515 15.4327C75.2782 15.218 75.5348 14.9194 75.7215 14.5367C75.9082 14.154 76.0015 13.706 76.0015 13.1927C76.0015 12.4274 75.7962 11.8254 75.3855 11.3867C74.9842 10.9387 74.4615 10.7147 73.8175 10.7147C73.1828 10.7147 72.6602 10.9387 72.2495 11.3867C71.8482 11.8347 71.6475 12.4367 71.6475 13.1927C71.6475 13.706 71.7362 14.154 71.9135 14.5367C72.1002 14.9194 72.3568 15.218 72.6835 15.4327C73.0195 15.6474 73.3975 15.7547 73.8175 15.7547ZM78.981 16.8047V6.54269H80.437V16.8047H78.981ZM83.615 16.8047L80.101 13.0947L83.503 9.66469H85.337L81.473 13.4167L81.543 12.7587L85.477 16.8047H83.615Z" fill="#051321"/>
<defs>
<clipPath id="clip0_739_305210">
<rect y="4.30469" width="14" height="14" rx="7" fill="white"/>
</clipPath>
</defs>
</svg>
