<svg width="14" height="10" viewBox="0 0 14 10" fill="none" xmlns="http://www.w3.org/2000/svg">
<g clip-path="url(#clip0_143_14714)">
<path d="M0 0H13.9727V10H0V0Z" fill="white"/>
<path d="M0 0H13.9727V3.33333H0V0ZM0 6.66667H13.9727V10H0V6.66667Z" fill="#338AF3"/>
<path d="M6.99982 6.16731C7.6027 6.16731 8.09144 5.64366 8.09144 4.99772C8.09144 4.35177 7.6027 3.82812 6.99982 3.82812C6.39694 3.82812 5.9082 4.35177 5.9082 4.99772C5.9082 5.64366 6.39694 6.16731 6.99982 6.16731Z" fill="#FFDA44"/>
<path fill-rule="evenodd" clip-rule="evenodd" d="M6.99969 3.90401C6.43448 3.90401 5.9763 4.39493 5.9763 5.0005C5.9763 5.60608 6.43448 6.09699 6.99969 6.09699C7.56489 6.09699 8.02308 5.60608 8.02308 5.0005C8.02308 4.39493 7.56489 3.90401 6.99969 3.90401ZM5.83984 5.0005C5.83984 4.31418 6.35912 3.75781 6.99969 3.75781C7.64025 3.75781 8.15953 4.31418 8.15953 5.0005C8.15953 5.68682 7.64025 6.24319 6.99969 6.24319C6.35912 6.24319 5.83984 5.68682 5.83984 5.0005Z" fill="#D6AB00"/>
</g>
<defs>
<clipPath id="clip0_143_14714">
<rect width="14" height="10" fill="white"/>
</clipPath>
</defs>
</svg>
