<svg width="14" height="10" viewBox="0 0 14 10" fill="none" xmlns="http://www.w3.org/2000/svg">
<g clip-path="url(#clip0_143_14781)">
<path d="M0 0H14V10H0V0Z" fill="#E30A17"/>
<path d="M7.08727 3.46876C6.72976 3.19098 6.29584 3.04186 5.85101 3.04478C4.73756 3.04478 3.83697 3.94537 3.83697 5.0594C3.83697 6.17344 4.74029 7.07402 5.85101 7.07402C6.31767 7.07402 6.74886 6.91613 7.08727 6.65005C6.26855 7.7787 4.74847 7.98338 3.69506 7.10326C2.64165 6.22315 2.45062 4.59742 3.27206 3.46876C4.0935 2.34011 5.61085 2.13543 6.66426 3.01554C6.82255 3.14712 6.96446 3.30209 7.08727 3.46876ZM8.17615 5.39274L7.6822 6.03309L7.71495 5.20268L6.99448 4.89858L7.73951 4.67636L7.78863 3.84888L8.21436 4.54186L8.96485 4.33426L8.48726 4.97753L8.90481 5.67636L8.17615 5.39274Z" fill="white"/>
</g>
<defs>
<clipPath id="clip0_143_14781">
<rect width="14" height="10" fill="white"/>
</clipPath>
</defs>
</svg>
