<svg width="14" height="10" viewBox="0 0 14 10" fill="none" xmlns="http://www.w3.org/2000/svg">
<g clip-path="url(#clip0_143_14721)">
<path d="M0.47168 0H13.5274V10H0.47168V0Z" fill="#181A93"/>
<path d="M0 0H14V3.33333H0V0Z" fill="#FFA44A"/>
<path d="M0 6.66406H14V9.9974H0V6.66406Z" fill="#1A9F0B"/>
<path d="M0 3.33594H14V6.66927H0V3.33594Z" fill="white"/>
<path d="M6.99974 6C7.51521 6 7.93307 5.55228 7.93307 5C7.93307 4.44772 7.51521 4 6.99974 4C6.48427 4 6.06641 4.44772 6.06641 5C6.06641 5.55228 6.48427 6 6.99974 6Z" fill="white"/>
<path d="M7.0003 6.33073C6.31531 6.33073 5.75586 5.73131 5.75586 4.9974C5.75586 4.26348 6.31531 3.66406 7.0003 3.66406C7.68529 3.66406 8.24475 4.26348 8.24475 4.9974C8.24475 5.73131 7.68529 6.33073 7.0003 6.33073ZM7.0003 5.9974C7.49699 5.9974 7.93364 5.52956 7.93364 4.9974C7.93364 4.46523 7.49972 3.9974 7.0003 3.9974C6.50089 3.9974 6.06697 4.46523 6.06697 4.9974C6.06697 5.52956 6.50362 5.9974 7.0003 5.9974Z" fill="#181A93"/>
<path d="M7.00015 5.66927C7.3438 5.66927 7.62237 5.37079 7.62237 5.0026C7.62237 4.63441 7.3438 4.33594 7.00015 4.33594C6.65651 4.33594 6.37793 4.63441 6.37793 5.0026C6.37793 5.37079 6.65651 5.66927 7.00015 5.66927Z" fill="#181A93"/>
</g>
<defs>
<clipPath id="clip0_143_14721">
<rect width="14" height="10" fill="white"/>
</clipPath>
</defs>
</svg>
