<svg width="14" height="10" viewBox="0 0 14 10" fill="none" xmlns="http://www.w3.org/2000/svg">
<g clip-path="url(#clip0_143_14683)">
<path d="M0 0H14V10.0001H0V0Z" fill="white"/>
<path d="M7.875 0H6.125V4.06248H0V5.93749H6.125V9.99997H7.875V5.93749H14V4.06248H7.875V0Z" fill="#D80027"/>
<path d="M10.7673 6.74219L13.9997 8.66629V6.74219H10.7673ZM8.52148 6.74219L13.9997 10.003V9.08096L10.0706 6.74219H8.52148ZM12.5405 10.003L8.52148 7.61055V10.003H12.5405Z" fill="#0052B4"/>
<path d="M8.52148 6.74219L13.9997 10.003V9.08096L10.0706 6.74219H8.52148Z" fill="white"/>
<path d="M8.52148 6.74219L13.9997 10.003V9.08096L10.0706 6.74219H8.52148Z" fill="#D80027"/>
<path d="M2.47026 6.74219L0 8.2126V6.74219H2.47026ZM5.47827 7.15686V10.0031H0.69702L5.47827 7.15686Z" fill="#0052B4"/>
<path d="M3.92911 6.74219L0 9.08096V10.003L5.47827 6.74219H3.92911Z" fill="#D80027"/>
<path d="M3.23244 3.26086L0 1.33676V3.26086H3.23244ZM5.47827 3.26086L0 0V0.922091L3.92911 3.26086H5.47827ZM1.45923 0L5.47827 2.3925V0H1.45923Z" fill="#0052B4"/>
<path d="M5.47827 3.26086L0 0V0.922091L3.92911 3.26086H5.47827Z" fill="white"/>
<path d="M5.47827 3.26086L0 0V0.922091L3.92911 3.26086H5.47827Z" fill="#D80027"/>
<path d="M11.5295 3.26089L13.9997 1.79048V3.26089H11.5295ZM8.52148 2.84622V0H13.3027L8.52148 2.84622Z" fill="#0052B4"/>
<path d="M10.0706 3.26086L13.9997 0.922091V0L8.52148 3.26086H10.0706Z" fill="#D80027"/>
</g>
<defs>
<clipPath id="clip0_143_14683">
<rect width="14" height="10" fill="white"/>
</clipPath>
</defs>
</svg>
