<svg width="14" height="10" viewBox="0 0 14 10" fill="none" xmlns="http://www.w3.org/2000/svg">
<g clip-path="url(#clip0_143_14668)">
<path d="M0 0H14V10H0V0Z" fill="white"/>
<path d="M0 0H14V0.769006H0V0ZM0 1.53801H14V2.30702H0V1.53801ZM0 3.07602H14V3.84503H0V3.07602ZM0 4.61404H14V5.38304H0V4.61404ZM0 6.15497H14V6.92398H0V6.15497ZM0 7.69298H14V8.46199H0V7.69298ZM0 9.23099H14V10H0V9.23099Z" fill="#D80027"/>
<path d="M0 0H7V5.38304H0V0Z" fill="#2E52B2"/>
<path d="M1.30432 4.05793L1.19516 3.68366L1.07508 4.05793H0.714844L1.00685 4.28308L0.89769 4.65735L1.19516 4.42635L1.48443 4.65735L1.37254 4.28308L1.67001 4.05793H1.30432ZM2.84077 4.05793L2.72888 3.68366L2.61426 4.05793H2.25402L2.54603 4.28308L2.43687 4.65735L2.72888 4.42635L3.02362 4.65735L2.91445 4.28308L3.20646 4.05793H2.84077ZM4.38268 4.05793L4.26533 3.68366L4.15617 4.05793H3.78775L4.08794 4.28308L3.97332 4.65735L4.26533 4.42635L4.56553 4.65735L4.45091 4.28308L4.74291 4.05793H4.38268ZM5.9164 4.05793L5.80724 3.68366L5.69262 4.05793H5.32966L5.6244 4.28308L5.51523 4.65735L5.80724 4.42635L6.10198 4.65735L5.98463 4.28308L6.28482 4.05793H5.9164ZM2.72888 2.19828L2.61426 2.57255H2.25402L2.54603 2.80355L2.43687 3.17197L2.72888 2.9439L3.02362 3.17197L2.91445 2.80355L3.20646 2.57255H2.84077L2.72888 2.19828ZM1.19516 2.19828L1.07508 2.57255H0.714844L1.00685 2.80355L0.89769 3.17197L1.19516 2.9439L1.48443 3.17197L1.37254 2.80355L1.67001 2.57255H1.30432L1.19516 2.19828ZM4.26533 2.19828L4.15617 2.57255H3.78775L4.08794 2.80355L3.97332 3.17197L4.26533 2.9439L4.56553 3.17197L4.45091 2.80355L4.74291 2.57255H4.38268L4.26533 2.19828ZM5.80724 2.19828L5.69262 2.57255H5.32966L5.6244 2.80355L5.51523 3.17197L5.80724 2.9439L6.10198 3.17197L5.98463 2.80355L6.28482 2.57255H5.9164L5.80724 2.19828ZM1.19516 0.71875L1.07508 1.08717H0.714844L1.00685 1.31817L0.89769 1.68951L1.19516 1.45852L1.48443 1.68951L1.37254 1.31817L1.67001 1.08717H1.30432L1.19516 0.71875ZM2.72888 0.71875L2.61426 1.08717H2.25402L2.54603 1.31817L2.43687 1.68951L2.72888 1.45852L3.02362 1.68951L2.91445 1.31817L3.20646 1.08717H2.84077L2.72888 0.71875ZM4.26533 0.71875L4.15617 1.08717H3.78775L4.08794 1.31817L3.97332 1.68951L4.26533 1.45852L4.56553 1.68951L4.45091 1.31817L4.74291 1.08717H4.38268L4.26533 0.71875ZM5.80724 0.71875L5.69262 1.08717H5.32966L5.6244 1.31817L5.51523 1.68951L5.80724 1.45852L6.10198 1.68951L5.98463 1.31817L6.28482 1.08717H5.9164L5.80724 0.71875Z" fill="white"/>
</g>
<defs>
<clipPath id="clip0_143_14668">
<rect width="14" height="10" fill="white"/>
</clipPath>
</defs>
</svg>
