<svg width="14" height="10" viewBox="0 0 14 10" fill="none" xmlns="http://www.w3.org/2000/svg">
<g clip-path="url(#clip0_143_14753)">
<path d="M0 0H14V10H0V0Z" fill="#10338C"/>
<path d="M6.06377 4.98776C6.07196 4.97898 6.07742 4.97021 6.08561 4.96144C6.08015 4.97021 6.07196 4.97898 6.06377 4.98776ZM5.13044 6.2129L5.43064 6.88249L6.10471 6.71583L5.80451 7.38249L6.34759 7.84448L5.67079 8.00822L5.67352 8.75091L5.13044 8.286L4.59009 8.75091L4.59282 8.00822L3.91602 7.84448L4.4591 7.38249L4.15617 6.71583L4.83297 6.88249L5.13044 6.2129ZM10.5312 7.04624L10.6731 7.36495L10.9952 7.286L10.8505 7.60472L11.1098 7.82401L10.7878 7.90004V8.25676L10.5312 8.03454L10.272 8.25676L10.2747 7.90004L9.95266 7.82401L10.2119 7.60472L10.0673 7.286L10.3893 7.36495L10.5312 7.04624ZM9.2049 3.65442L9.34682 3.97314L9.66884 3.89419L9.5242 4.2129L9.78346 4.4322L9.46144 4.51115V4.86495L9.2049 4.64273L8.94565 4.86495L8.94837 4.51115L8.62362 4.4322L8.88288 4.2129L8.73824 3.89419L9.06027 3.97314L9.2049 3.65442ZM10.5312 1.71875L10.6731 2.03746L10.9952 1.95852L10.8505 2.27723L11.1098 2.49653L10.7878 2.57548V2.92928L10.5312 2.70705L10.272 2.92928L10.2747 2.57548L9.95266 2.49653L10.2119 2.27723L10.0673 1.95852L10.3893 2.03746L10.5312 1.71875ZM11.6911 3.17197L11.833 3.49068L12.155 3.41173L12.0104 3.73045L12.2696 3.94974L11.9476 4.02577V4.38249L11.6911 4.16027L11.4318 4.38249V4.02577L11.1098 3.94974L11.369 3.73045L11.2244 3.41173L11.5464 3.49068L11.6911 3.17197ZM10.8614 4.86495L10.9733 5.23629H11.3363L11.0416 5.46436L11.1562 5.83571L10.8614 5.60471L10.5667 5.83571L10.6786 5.46436L10.3866 5.23629H10.7495L10.8614 4.86495Z" fill="white"/>
<path d="M6.95315 0V0.894737L5.72235 1.62865H6.95315V3.36257H5.34029L6.95315 4.32164V4.99123H6.2245L4.21865 3.79532V4.99123H2.7013V3.57018L0.316115 4.99123H-0.0332031V4.09649L1.20033 3.36257H-0.0332031V1.62865H1.57966L-0.0332031 0.666667V0H0.695452L2.7013 1.19298V0H4.21865V1.42105L6.60656 0H6.95315Z" fill="white"/>
<path d="M3.89662 0H3.02333V2.02632H-0.0332031V2.96199H3.02333V4.99123H3.89662V2.96199H6.95315V2.02632H3.89662V0Z" fill="#D80027"/>
<path d="M4.21875 3.35938L6.95325 4.98803V4.52604L4.9938 3.35938H4.21875Z" fill="#0052B4"/>
<path d="M4.21875 3.35938L6.95325 4.98803V4.52604L4.9938 3.35938H4.21875Z" fill="white"/>
<path d="M4.21865 3.35938L6.95315 4.98803V4.52604L4.9937 3.35938H4.21865ZM1.92898 3.35938L-0.0332031 4.52604V4.98803L2.7013 3.35938H1.92898Z" fill="#D80027"/>
<path d="M2.7013 1.62865L-0.0332031 0V0.459064L1.92898 1.62865H2.7013Z" fill="#0052B4"/>
<path d="M2.7013 1.62865L-0.0332031 0V0.459064L1.92898 1.62865H2.7013Z" fill="white"/>
<path d="M2.7013 1.62865L-0.0332031 0V0.459064L1.92898 1.62865H2.7013ZM4.9937 1.62865L6.95315 0.459064V0L4.21865 1.62865H4.9937Z" fill="#D80027"/>
</g>
<defs>
<clipPath id="clip0_143_14753">
<rect width="14" height="10" fill="white"/>
</clipPath>
</defs>
</svg>
