<svg width="14" height="10" viewBox="0 0 14 10" fill="none" xmlns="http://www.w3.org/2000/svg">
<g clip-path="url(#clip0_143_14737)">
<path d="M0 0H14V10.0001H0V0Z" fill="#0052B4"/>
<path d="M11.6296 4.34494L11.7222 4.65045H12.022L11.7794 4.83924L11.8721 5.14472L11.6296 4.95593L11.387 5.14472L11.4796 4.83924L11.2371 4.65045H11.5369L11.6296 4.34494ZM10.5579 6.54432L10.6969 7.00258H11.1465L10.7827 7.2858L10.9217 7.744L10.5579 7.46079L10.1941 7.744L10.333 7.2858L9.96923 7.00258H10.4189L10.5579 6.54432ZM10.5984 2.94531L10.7142 3.32723H11.0889L10.7857 3.56318L10.9015 3.94504L10.5984 3.70902L10.2952 3.94504L10.411 3.56318L10.1078 3.32723H10.4825L10.5984 2.94531ZM9.56717 4.33164L9.70613 4.78988H10.1558L9.79199 5.07306L9.93101 5.53129L9.56717 5.24811L9.20336 5.53129L9.34232 5.07306L8.97852 4.78988H9.42818L9.56717 4.33164Z" fill="#D80027"/>
<path d="M7 0V0.89543L5.76466 1.63043H7V3.36947H5.38363L7 4.33175V4.9999H6.2702L4.26087 3.80382V4.9999H2.73913V3.57686L0.348496 4.9999H0V4.10479L1.23506 3.36947H0V1.63043H1.6161L0 0.668497V0H0.729531L2.73913 1.19643V0H4.26087V1.42304L6.65153 0H7Z" fill="white"/>
<path d="M3.9375 0H3.0625V2.03127H0V2.96877H3.0625V5.00004H3.9375V2.96877H7V2.03127H3.9375V0Z" fill="#D80027"/>
<path d="M4.26074 3.36719L6.99987 4.99768V4.53657L5.03531 3.36719H4.26074Z" fill="#0052B4"/>
<path d="M4.26074 3.36719L6.99987 4.99768V4.53657L5.03531 3.36719H4.26074Z" fill="white"/>
<path d="M4.26087 3.36719L7 4.99768V4.53657L5.03543 3.36719H4.26087ZM1.96454 3.36719L0 4.53657V4.99768L2.73913 3.36719H1.96454Z" fill="#D80027"/>
<path d="M2.73913 1.63046L0 0V0.461075L1.96457 1.63046H2.73913Z" fill="#0052B4"/>
<path d="M2.73913 1.63046L0 0V0.461075L1.96457 1.63046H2.73913Z" fill="white"/>
<path d="M2.73913 1.63046L0 0V0.461075L1.96457 1.63046H2.73913ZM5.03546 1.63046L7 0.461075V0L4.26087 1.63046H5.03546Z" fill="#D80027"/>
</g>
<defs>
<clipPath id="clip0_143_14737">
<rect width="14" height="10" fill="white"/>
</clipPath>
</defs>
</svg>
