<svg width="14" height="10" viewBox="0 0 14 10" fill="none" xmlns="http://www.w3.org/2000/svg">
<g clip-path="url(#clip0_143_14774)">
<path d="M0 0H14V10H0V0Z" fill="#009B3A"/>
<path d="M6.99996 0.5625L12.5918 4.9894L6.99996 9.41338L1.38086 4.9894L6.99996 0.5625Z" fill="#FEDF00"/>
<path d="M6.99982 7.35019C8.21161 7.35019 9.19397 6.29767 9.19397 4.99931C9.19397 3.70096 8.21161 2.64844 6.99982 2.64844C5.78802 2.64844 4.80566 3.70096 4.80566 4.99931C4.80566 6.29767 5.78802 7.35019 6.99982 7.35019Z" fill="white"/>
<path d="M5.8922 4.84823C5.51286 4.84823 5.14444 4.90963 4.79785 5.02367C4.81423 6.30729 5.78849 7.34238 6.98927 7.34238C7.73157 7.34238 8.38927 6.94472 8.78499 6.33946C8.10545 5.43302 7.06023 4.84823 5.8922 4.84823ZM9.13976 5.44179C9.16432 5.2956 9.1807 5.14647 9.1807 4.9915C9.1807 3.69326 8.19824 2.64062 6.98655 2.64062C6.08323 2.64062 5.30818 3.22834 4.96978 4.06168C5.26725 3.99735 5.5729 3.96226 5.88674 3.96226C7.16393 3.96519 8.31559 4.53244 9.13976 5.44179Z" fill="#002776"/>
</g>
<defs>
<clipPath id="clip0_143_14774">
<rect width="14" height="10" fill="white"/>
</clipPath>
</defs>
</svg>
