<svg width="21" height="24" viewBox="0 0 21 24" fill="none" xmlns="http://www.w3.org/2000/svg">
<g clip-path="url(#clip0_514_332851)">
<path d="M14.8867 2.86203V20.8519C14.8867 22.8665 16.219 23.9866 17.6331 23.9866C18.941 23.9866 20.3795 23.0326 20.3795 20.8519V2.99831C20.3795 1.15418 19.0717 0 17.6331 0C16.1945 0 14.8867 1.27343 14.8867 2.86203Z" fill="#F8AB00"/>
<path d="M7.69336 11.9929V20.8515C7.69336 22.8661 9.02569 23.9862 10.4398 23.9862C11.7476 23.9862 13.1862 23.0322 13.1862 20.8515V12.1292C13.1862 10.285 11.8783 9.13086 10.4398 9.13086C9.00118 9.13086 7.69336 10.4043 7.69336 11.9929Z" fill="#E37300"/>
<path d="M5.99279 21.1247C5.99279 22.7047 4.76264 23.9867 3.24639 23.9867C1.73016 23.9867 0.5 22.7047 0.5 21.1247C0.5 19.5446 1.73016 18.2627 3.24639 18.2627C4.76264 18.2627 5.99279 19.5446 5.99279 21.1247Z" fill="#E37300"/>
</g>
<defs>
<clipPath id="clip0_514_332851">
<rect width="20" height="24" fill="white" transform="translate(0.5)"/>
</clipPath>
</defs>
</svg>
