<svg width="70" height="22" viewBox="0 0 70 22" fill="none" xmlns="http://www.w3.org/2000/svg">
<g clip-path="url(#clip0_739_305216)">
<path d="M13.8641 11.4693C13.8641 10.9934 13.8256 10.515 13.7432 10.0469H7.14062V12.7424H10.9216C10.7647 13.6118 10.2606 14.3809 9.52241 14.8696V16.6186H11.7782C13.1028 15.3994 13.8641 13.599 13.8641 11.4693Z" fill="#4285F4"/>
<path d="M7.13916 18.3071C9.02709 18.3071 10.6192 17.6872 11.7793 16.6172L9.52351 14.8682C8.89591 15.2951 8.0857 15.5369 7.14174 15.5369C5.31554 15.5369 3.76713 14.3049 3.21155 12.6484H0.883789V14.4515C2.0721 16.8153 4.49246 18.3071 7.13916 18.3071Z" fill="#27AE60"/>
<path d="M3.21044 12.6473C2.91722 11.7779 2.91722 10.8365 3.21044 9.96711V8.16406H0.885251C-0.107584 10.142 -0.107584 12.4723 0.885251 14.4503L3.21044 12.6473Z" fill="#FBBC04"/>
<path d="M7.13916 7.07532C8.13714 7.05989 9.10168 7.43542 9.82445 8.12474L11.823 6.12621C10.5575 4.9379 8.87791 4.28458 7.13916 4.30516C4.49246 4.30516 2.0721 5.79698 0.883789 8.16333L3.20898 9.96637C3.76198 8.30736 5.31296 7.07532 7.13916 7.07532Z" fill="#EA4335"/>
</g>
<path d="M27.726 16.9447C26.6713 16.9447 25.7613 16.7347 24.996 16.3147C24.2307 15.8854 23.638 15.288 23.218 14.5227C22.8073 13.7574 22.602 12.8567 22.602 11.8207C22.602 10.794 22.8073 9.88869 23.218 9.10469C23.638 8.31135 24.2167 7.69535 24.954 7.25669C25.6913 6.80869 26.5407 6.58469 27.502 6.58469C28.2673 6.58469 28.958 6.72935 29.574 7.01869C30.1993 7.29869 30.708 7.69069 31.1 8.19469C31.5013 8.69869 31.7393 9.28202 31.814 9.94469H30.33C30.2367 9.30069 29.938 8.79202 29.434 8.41869C28.93 8.03602 28.3 7.84469 27.544 7.84469C26.8533 7.84469 26.2513 8.00802 25.738 8.33469C25.2247 8.66135 24.8233 9.11869 24.534 9.70669C24.254 10.2947 24.114 10.99 24.114 11.7927C24.114 12.6047 24.2587 13.3047 24.548 13.8927C24.8373 14.4714 25.2573 14.9194 25.808 15.2367C26.368 15.5447 27.04 15.6987 27.824 15.6987C28.384 15.6987 28.8787 15.6194 29.308 15.4607C29.7373 15.302 30.1107 15.0687 30.428 14.7607L31.87 15.3067C31.3473 15.848 30.7453 16.2587 30.064 16.5387C29.3827 16.8094 28.6033 16.9447 27.726 16.9447ZM30.386 15.3067V12.2127L30.82 12.6467H27.81V11.4147H31.87V15.3067H30.386ZM36.8351 16.9447C36.1071 16.9447 35.4677 16.786 34.9171 16.4687C34.3664 16.142 33.9371 15.6987 33.6291 15.1387C33.3211 14.5694 33.1671 13.9254 33.1671 13.2067C33.1671 12.4787 33.3211 11.8394 33.6291 11.2887C33.9464 10.738 34.3757 10.3087 34.9171 10.0007C35.4677 9.68335 36.1071 9.52469 36.8351 9.52469C37.5724 9.52469 38.2164 9.68335 38.7671 10.0007C39.3177 10.3087 39.7424 10.738 40.0411 11.2887C40.3491 11.8394 40.5031 12.4787 40.5031 13.2067C40.5031 13.9254 40.3491 14.5694 40.0411 15.1387C39.7424 15.6987 39.3177 16.142 38.7671 16.4687C38.2164 16.786 37.5724 16.9447 36.8351 16.9447ZM36.8351 15.7547C37.2737 15.7547 37.6517 15.6474 37.9691 15.4327C38.2957 15.218 38.5524 14.9194 38.7391 14.5367C38.9257 14.154 39.0191 13.706 39.0191 13.1927C39.0191 12.4274 38.8137 11.8254 38.4031 11.3867C38.0017 10.9387 37.4791 10.7147 36.8351 10.7147C36.2004 10.7147 35.6777 10.9387 35.2671 11.3867C34.8657 11.8347 34.6651 12.4367 34.6651 13.1927C34.6651 13.706 34.7537 14.154 34.9311 14.5367C35.1177 14.9194 35.3744 15.218 35.7011 15.4327C36.0371 15.6474 36.4151 15.7547 36.8351 15.7547ZM45.1066 16.9447C44.3786 16.9447 43.7392 16.786 43.1886 16.4687C42.6379 16.142 42.2086 15.6987 41.9006 15.1387C41.5926 14.5694 41.4386 13.9254 41.4386 13.2067C41.4386 12.4787 41.5926 11.8394 41.9006 11.2887C42.2179 10.738 42.6472 10.3087 43.1886 10.0007C43.7392 9.68335 44.3786 9.52469 45.1066 9.52469C45.8439 9.52469 46.4879 9.68335 47.0386 10.0007C47.5892 10.3087 48.0139 10.738 48.3126 11.2887C48.6206 11.8394 48.7746 12.4787 48.7746 13.2067C48.7746 13.9254 48.6206 14.5694 48.3126 15.1387C48.0139 15.6987 47.5892 16.142 47.0386 16.4687C46.4879 16.786 45.8439 16.9447 45.1066 16.9447ZM45.1066 15.7547C45.5452 15.7547 45.9232 15.6474 46.2406 15.4327C46.5672 15.218 46.8239 14.9194 47.0106 14.5367C47.1972 14.154 47.2906 13.706 47.2906 13.1927C47.2906 12.4274 47.0852 11.8254 46.6746 11.3867C46.2732 10.9387 45.7506 10.7147 45.1066 10.7147C44.4719 10.7147 43.9492 10.9387 43.5386 11.3867C43.1372 11.8347 42.9366 12.4367 42.9366 13.1927C42.9366 13.706 43.0252 14.154 43.2026 14.5367C43.3892 14.9194 43.6459 15.218 43.9726 15.4327C44.3086 15.6474 44.6866 15.7547 45.1066 15.7547ZM53.2934 19.8147C52.3974 19.8147 51.6554 19.6094 51.0674 19.1987C50.4887 18.7974 50.1387 18.2607 50.0174 17.5887H51.3894C51.4827 17.8967 51.6881 18.1394 52.0054 18.3167C52.3321 18.494 52.7661 18.5827 53.3074 18.5827C54.0074 18.5827 54.5301 18.41 54.8754 18.0647C55.2207 17.7194 55.3934 17.206 55.3934 16.5247V14.9847L55.5194 15.0127C55.3794 15.554 55.0761 15.9834 54.6094 16.3007C54.1427 16.6087 53.5827 16.7627 52.9294 16.7627C52.3041 16.7627 51.7534 16.6134 51.2774 16.3147C50.8014 16.016 50.4327 15.6007 50.1714 15.0687C49.9101 14.5274 49.7794 13.8974 49.7794 13.1787C49.7794 12.4507 49.9147 11.8114 50.1854 11.2607C50.4561 10.71 50.8341 10.2854 51.3194 9.98669C51.8141 9.68802 52.3881 9.53869 53.0414 9.53869C53.7134 9.53869 54.2687 9.70202 54.7074 10.0287C55.1554 10.346 55.4401 10.7987 55.5614 11.3867L55.4494 11.4007V9.66469H56.8354V16.5107C56.8354 17.5374 56.5181 18.3447 55.8834 18.9327C55.2581 19.5207 54.3947 19.8147 53.2934 19.8147ZM53.3634 15.5867C53.9887 15.5867 54.4881 15.3674 54.8614 14.9287C55.2441 14.49 55.4354 13.888 55.4354 13.1227C55.4354 12.376 55.2441 11.788 54.8614 11.3587C54.4881 10.9294 53.9841 10.7147 53.3494 10.7147C52.7147 10.7147 52.2107 10.934 51.8374 11.3727C51.4641 11.802 51.2774 12.3994 51.2774 13.1647C51.2774 13.9114 51.4641 14.504 51.8374 14.9427C52.2201 15.372 52.7287 15.5867 53.3634 15.5867ZM58.8833 16.8047V6.72469H60.3393V16.8047H58.8833ZM65.4633 16.9447C64.7447 16.9447 64.11 16.786 63.5593 16.4687C63.018 16.1514 62.5933 15.7127 62.2853 15.1527C61.9773 14.5927 61.8233 13.9487 61.8233 13.2207C61.8233 12.4834 61.9727 11.8394 62.2713 11.2887C62.5793 10.7287 63.0087 10.2947 63.5593 9.98669C64.11 9.67869 64.74 9.52469 65.4493 9.52469C66.14 9.52469 66.7373 9.67402 67.2413 9.97269C67.7547 10.262 68.1467 10.668 68.4173 11.1907C68.6973 11.7134 68.8373 12.334 68.8373 13.0527C68.8373 13.1647 68.8327 13.272 68.8233 13.3747C68.8233 13.468 68.814 13.566 68.7953 13.6687H62.8033V12.5767H67.7733L67.4093 13.0107C67.4093 12.2454 67.2367 11.662 66.8913 11.2607C66.546 10.8594 66.0653 10.6587 65.4493 10.6587C64.7867 10.6587 64.2593 10.8874 63.8673 11.3447C63.4847 11.7927 63.2933 12.418 63.2933 13.2207C63.2933 14.0327 63.4847 14.6674 63.8673 15.1247C64.2593 15.582 64.8007 15.8107 65.4913 15.8107C65.9113 15.8107 66.2753 15.7267 66.5833 15.5587C66.8913 15.3814 67.12 15.1247 67.2693 14.7887H68.6413C68.408 15.4607 68.0113 15.988 67.4513 16.3707C66.9007 16.7534 66.238 16.9447 65.4633 16.9447Z" fill="#051321"/>
<defs>
<clipPath id="clip0_739_305216">
<rect width="14" height="14" fill="white" transform="translate(0 4.30469)"/>
</clipPath>
</defs>
</svg>
