<svg width="18" height="18" viewBox="0 0 18 18" fill="none" xmlns="http://www.w3.org/2000/svg">
<path d="M6.18916 9.09664C6.18916 7.48822 7.49347 6.18399 9.10286 6.18399C10.7123 6.18399 12.0173 7.48822 12.0173 9.09664C12.0173 10.7051 10.7123 12.0093 9.10286 12.0093C7.49347 12.0093 6.18916 10.7051 6.18916 9.09664ZM4.61369 9.09664C4.61369 11.5745 6.62349 13.5831 9.10286 13.5831C11.5822 13.5831 13.592 11.5745 13.592 9.09664C13.592 6.61875 11.5822 4.61016 9.10286 4.61016C6.62349 4.61016 4.61369 6.61875 4.61369 9.09664ZM12.7207 4.43227C12.7206 4.63964 12.782 4.84237 12.8972 5.01484C13.0124 5.18731 13.1762 5.32176 13.3679 5.40119C13.5596 5.48062 13.7705 5.50147 13.974 5.4611C14.1775 5.42072 14.3645 5.32094 14.5113 5.17437C14.6581 5.02779 14.7581 4.84102 14.7986 4.63765C14.8392 4.43428 14.8185 4.22346 14.7392 4.03184C14.6598 3.84023 14.5254 3.67643 14.353 3.56115C14.1805 3.44587 13.9777 3.3843 13.7702 3.38422H13.7698C13.4916 3.38435 13.2249 3.49479 13.0282 3.6913C12.8315 3.88781 12.7209 4.15431 12.7207 4.43227ZM5.57089 16.2086C4.71853 16.1698 4.25524 16.0279 3.94737 15.908C3.5392 15.7492 3.24797 15.5601 2.94177 15.2545C2.63557 14.9489 2.44603 14.6581 2.28783 14.2502C2.16781 13.9426 2.02583 13.4795 1.98709 12.6276C1.9447 11.7066 1.93624 11.43 1.93624 9.09671C1.93624 6.76344 1.9454 6.48756 1.98709 5.56581C2.0259 4.71396 2.16893 4.25172 2.28783 3.94326C2.44673 3.53534 2.63599 3.24428 2.94177 2.93827C3.24755 2.63225 3.5385 2.44283 3.94737 2.28472C4.2551 2.16477 4.71853 2.02288 5.57089 1.98416C6.49242 1.9418 6.76924 1.93334 9.10286 1.93334C11.4365 1.93334 11.7136 1.9425 12.6359 1.98416C13.4882 2.02295 13.9508 2.16589 14.2594 2.28472C14.6676 2.44283 14.9588 2.63267 15.265 2.93827C15.5712 3.24386 15.76 3.53534 15.9189 3.94326C16.039 4.25081 16.1809 4.71396 16.2197 5.56581C16.2621 6.48756 16.2705 6.76344 16.2705 9.09671C16.2705 11.43 16.2621 11.7059 16.2197 12.6276C16.1809 13.4795 16.0382 13.9425 15.9189 14.2502C15.76 14.6581 15.5708 14.9491 15.265 15.2545C14.9592 15.5598 14.6676 15.7492 14.2594 15.908C13.9517 16.028 13.4882 16.1698 12.6359 16.2086C11.7144 16.2509 11.4375 16.2594 9.10286 16.2594C6.76819 16.2594 6.49214 16.2509 5.57089 16.2086ZM5.4985 0.412288C4.56781 0.454646 3.93184 0.602131 3.37645 0.818117C2.80126 1.04116 2.31434 1.3404 1.82776 1.82591C1.34119 2.31142 1.04255 2.79882 0.819368 3.37366C0.603253 3.92907 0.45568 4.56431 0.413296 5.49444C0.370213 6.42604 0.360352 6.72388 0.360352 9.09664C0.360352 11.4694 0.370213 11.7672 0.413296 12.6988C0.45568 13.629 0.603253 14.2642 0.819368 14.8196C1.04255 15.3941 1.34126 15.8821 1.82776 16.3674C2.31427 16.8527 2.80126 17.1515 3.37645 17.3752C3.93289 17.5912 4.56781 17.7386 5.4985 17.781C6.43115 17.8234 6.72867 17.8339 9.10286 17.8339C11.477 17.8339 11.7751 17.8241 12.7072 17.781C13.638 17.7386 14.2735 17.5912 14.8293 17.3752C15.4041 17.1515 15.8914 16.8529 16.378 16.3674C16.8645 15.8819 17.1625 15.3941 17.3864 14.8196C17.6025 14.2642 17.7507 13.629 17.7924 12.6988C17.8348 11.7665 17.8447 11.4694 17.8447 9.09664C17.8447 6.72388 17.8348 6.42604 17.7924 5.49444C17.75 4.56424 17.6025 3.92872 17.3864 3.37366C17.1625 2.79917 16.8638 2.31219 16.378 1.82591C15.8922 1.33963 15.4041 1.04116 14.83 0.818117C14.2735 0.602131 13.6379 0.453947 12.7079 0.412288C11.7758 0.36993 11.4777 0.359375 9.10356 0.359375C6.72937 0.359375 6.43115 0.369231 5.4985 0.412288Z" fill="white"/>
</svg>
