<svg width="18" height="18" viewBox="0 0 18 18" fill="none" xmlns="http://www.w3.org/2000/svg">
<path fill-rule="evenodd" clip-rule="evenodd" d="M1.6526 0.359375C0.939133 0.359375 0.360352 0.920535 0.360352 1.61188V16.5923C0.360352 17.2837 0.939201 17.8444 1.6526 17.8444H16.5531C17.2669 17.8444 17.8454 17.2836 17.8454 16.5921V1.61188C17.8454 0.920535 17.2669 0.359375 16.5531 0.359375H1.6526ZM5.67374 7.12026V14.9921H3.05727V7.12026H5.67374ZM5.8462 4.68582C5.8462 5.44122 5.27828 6.04569 4.36605 6.04569L4.34891 6.04562C3.47076 6.04562 2.90305 5.44116 2.90305 4.68575C2.90305 3.9132 3.48791 3.32561 4.3834 3.32561C5.27828 3.32561 5.82912 3.9132 5.8462 4.68582ZM9.73825 14.9921H7.12199C7.12199 14.9921 7.15628 7.85901 7.12213 7.12054H9.73846V8.23476C10.0863 7.6985 10.7087 6.93572 12.0965 6.93572C13.8179 6.93572 15.1085 8.06084 15.1085 10.4786V14.9921H12.4924V10.7813C12.4924 9.72301 12.1135 9.0012 11.167 9.0012C10.444 9.0012 10.0135 9.48798 9.82445 9.95823C9.75533 10.126 9.73825 10.3616 9.73825 10.5966V14.9921Z" fill="white"/>
</svg>
