<svg width="24" height="24" viewBox="0 0 24 24" fill="none" xmlns="http://www.w3.org/2000/svg">
<g clip-path="url(#clip0_521_519236)">
<path d="M2.15703 3.00501C1.50547 3.07532 0.891406 3.42688 0.488281 3.95657C0.0382812 4.54719 0.0289062 4.58938 0.0101562 6.21126L-0.00390625 7.61751L2.70078 9.64251C4.19141 10.7581 5.41484 11.6675 5.42422 11.6581C5.42891 11.6488 5.43828 10.055 5.43828 8.10969V4.58001L4.63203 3.97532C3.75547 3.32376 3.53516 3.18782 3.14141 3.08001C2.80391 2.98626 2.52734 2.96751 2.15703 3.00501Z" fill="#EC1515"/>
<path d="M21.2578 3.00488C20.6672 3.06113 20.4797 3.15957 19.3969 3.97051L18.5391 4.61738L18.5625 8.14707L18.5859 11.6768L21.2953 9.64707L24 7.61738V6.32363C24 5.27832 23.9859 4.98301 23.925 4.77676C23.5781 3.6002 22.5 2.88301 21.2578 3.00488Z" fill="#ECC115"/>
<path d="M5.48438 8.20762L5.48906 11.7889L8.71406 14.2029C10.4906 15.5295 11.9766 16.6123 12.0188 16.6123C12.0609 16.6076 13.5375 15.5201 15.3047 14.1982L18.5156 11.7889V8.20762C18.5156 5.35293 18.5016 4.64043 18.4594 4.67324C18.4266 4.70137 16.9594 5.79824 15.2016 7.12012L12 9.51543L8.80313 7.12012C7.04063 5.79824 5.57344 4.70137 5.54531 4.67324C5.49844 4.64043 5.48438 5.35293 5.48438 8.20762Z" fill="#EC4040"/>
<path d="M21.2484 9.73125L18.5156 11.775V16.4109V21.0469H20.4047C22.4016 21.0469 22.7531 21.0187 23.0906 20.8594C23.3578 20.7281 23.7234 20.3578 23.8641 20.0766L23.9766 19.8516L23.9906 15.4922C23.9953 13.0922 23.9953 10.3547 23.9906 9.40781L23.9766 7.68281L21.2484 9.73125Z" fill="#159640"/>
<path d="M0 13.6922C0 18.3 0.0140625 19.7437 0.05625 19.8703C0.159375 20.1656 0.4125 20.5219 0.642188 20.6906C1.09219 21.0187 1.14375 21.0234 3.42188 21.0234H5.46094L5.475 16.4016L5.48438 11.7797L2.80313 9.76406C1.32656 8.65781 0.0890625 7.73906 0.0609375 7.71562C0.0140625 7.6875 0 8.89687 0 13.6922Z" fill="#1596EC"/>
</g>
<defs>
<clipPath id="clip0_521_519236">
<rect width="24" height="24" fill="white"/>
</clipPath>
</defs>
</svg>
