<svg width="293" height="36" viewBox="0 0 293 36" fill="none" xmlns="http://www.w3.org/2000/svg">
<mask id="path-1-outside-1_558_352891" maskUnits="userSpaceOnUse" x="0" y="0" width="294" height="36" fill="black">
<rect fill="white" width="294" height="36"/>
<path d="M1.87813 27V1.08H10.5181L17.7181 26.064H14.5861L21.7861 1.08H30.4621V27H24.9901V2.628H25.9261L18.9061 27H13.1821L6.23413 2.844H7.13413V27H1.87813ZM43.1181 27.36C41.1021 27.36 39.3261 26.964 37.7901 26.172C36.2781 25.356 35.0901 24.228 34.2261 22.788C33.3861 21.324 32.9661 19.644 32.9661 17.748C32.9661 15.852 33.3861 14.196 34.2261 12.78C35.0901 11.364 36.2781 10.26 37.7901 9.468C39.3261 8.676 41.1021 8.28 43.1181 8.28C45.1581 8.28 46.9341 8.676 48.4461 9.468C49.9821 10.26 51.1701 11.364 52.0101 12.78C52.8501 14.196 53.2701 15.852 53.2701 17.748C53.2701 19.644 52.8381 21.324 51.9741 22.788C51.1341 24.228 49.9461 25.356 48.4101 26.172C46.8981 26.964 45.1341 27.36 43.1181 27.36ZM43.1181 23.112C43.9581 23.112 44.7141 22.896 45.3861 22.464C46.0821 22.032 46.6341 21.42 47.0421 20.628C47.4501 19.812 47.6541 18.84 47.6541 17.712C47.6541 16.056 47.2101 14.784 46.3221 13.896C45.4581 12.984 44.3901 12.528 43.1181 12.528C41.8461 12.528 40.7661 12.984 39.8781 13.896C39.0141 14.808 38.5821 16.08 38.5821 17.712C38.5821 18.84 38.7861 19.812 39.1941 20.628C39.6021 21.42 40.1421 22.032 40.8141 22.464C41.5101 22.896 42.2781 23.112 43.1181 23.112ZM56.1327 27V8.64H61.4247V12.96H61.5327V27H56.1327ZM68.9127 27V15.624C68.9127 14.616 68.6487 13.86 68.1207 13.356C67.6167 12.852 66.8727 12.6 65.8887 12.6C65.0487 12.6 64.2927 12.792 63.6207 13.176C62.9727 13.56 62.4567 14.088 62.0727 14.76C61.7127 15.432 61.5327 16.224 61.5327 17.136L61.0647 12.708C61.6647 11.364 62.5407 10.296 63.6927 9.504C64.8687 8.688 66.3087 8.28 68.0127 8.28C70.0527 8.28 71.6127 8.856 72.6927 10.008C73.7727 11.136 74.3127 12.66 74.3127 14.58V27H68.9127ZM87.0617 27.36C85.0217 27.36 83.2457 26.964 81.7337 26.172C80.2217 25.356 79.0457 24.228 78.2057 22.788C77.3897 21.348 76.9817 19.692 76.9817 17.82C76.9817 15.924 77.3897 14.268 78.2057 12.852C79.0457 11.412 80.2097 10.296 81.6977 9.504C83.1857 8.688 84.9137 8.28 86.8817 8.28C88.7777 8.28 90.4217 8.664 91.8137 9.432C93.2057 10.2 94.2857 11.268 95.0537 12.636C95.8217 14.004 96.2057 15.612 96.2057 17.46C96.2057 17.844 96.1937 18.204 96.1697 18.54C96.1457 18.852 96.1097 19.152 96.0617 19.44H80.1497V15.876H91.7057L90.7697 16.524C90.7697 15.036 90.4097 13.944 89.6897 13.248C88.9937 12.528 88.0337 12.168 86.8097 12.168C85.3937 12.168 84.2897 12.648 83.4977 13.608C82.7297 14.568 82.3457 16.008 82.3457 17.928C82.3457 19.8 82.7297 21.192 83.4977 22.104C84.2897 23.016 85.4657 23.472 87.0257 23.472C87.8897 23.472 88.6337 23.328 89.2577 23.04C89.8817 22.752 90.3497 22.284 90.6617 21.636H95.7377C95.1377 23.412 94.1057 24.816 92.6417 25.848C91.2017 26.856 89.3417 27.36 87.0617 27.36ZM99.5023 34.38L104.578 23.148L105.514 21.6L110.266 8.64H116.026L104.902 34.38H99.5023ZM103.39 26.64L96.3342 8.64H102.166L107.962 25.056L103.39 26.64ZM124.609 27V1.08H130.153V27H124.609ZM127.201 27V22.752H143.905V27H127.201ZM127.201 15.84V11.664H142.645V15.84H127.201ZM127.201 5.328V1.08H143.473V5.328H127.201ZM159.509 27L154.073 18.936L146.261 8.64H152.309L157.169 15.876L165.557 27H159.509ZM154.505 15.588L159.365 8.64H165.269L157.061 19.368L154.505 15.588ZM156.593 19.656L151.373 27H145.505L154.037 15.876L156.593 19.656ZM175.367 27.36C173.447 27.36 171.755 26.952 170.291 26.136C168.827 25.32 167.675 24.192 166.835 22.752C166.019 21.312 165.611 19.668 165.611 17.82C165.611 15.972 166.019 14.328 166.835 12.888C167.675 11.448 168.827 10.32 170.291 9.504C171.755 8.688 173.447 8.28 175.367 8.28C176.975 8.28 178.415 8.58 179.687 9.18C180.983 9.756 182.039 10.56 182.855 11.592C183.695 12.624 184.235 13.836 184.475 15.228H179.255C178.991 14.34 178.511 13.668 177.815 13.212C177.143 12.756 176.351 12.528 175.439 12.528C174.575 12.528 173.819 12.744 173.171 13.176C172.547 13.608 172.067 14.22 171.731 15.012C171.395 15.804 171.227 16.74 171.227 17.82C171.227 18.9 171.395 19.836 171.731 20.628C172.067 21.42 172.547 22.032 173.171 22.464C173.819 22.896 174.575 23.112 175.439 23.112C176.351 23.112 177.143 22.884 177.815 22.428C178.511 21.972 178.991 21.3 179.255 20.412H184.475C184.235 21.804 183.695 23.016 182.855 24.048C182.039 25.08 180.983 25.896 179.687 26.496C178.415 27.072 176.975 27.36 175.367 27.36ZM187.265 27V1.08H192.665V27H187.265ZM200.045 27V15.624C200.045 14.616 199.781 13.86 199.253 13.356C198.749 12.852 198.005 12.6 197.021 12.6C196.181 12.6 195.425 12.792 194.753 13.176C194.105 13.56 193.589 14.088 193.205 14.76C192.845 15.432 192.665 16.224 192.665 17.136L192.197 12.708C192.797 11.364 193.673 10.296 194.825 9.504C196.001 8.688 197.441 8.28 199.145 8.28C201.185 8.28 202.745 8.856 203.825 10.008C204.905 11.136 205.445 12.66 205.445 14.58V27H200.045ZM220.654 27C220.51 26.472 220.402 25.908 220.33 25.308C220.282 24.708 220.258 24.012 220.258 23.22H220.114V14.544C220.114 13.8 219.862 13.224 219.358 12.816C218.878 12.384 218.158 12.168 217.198 12.168C216.286 12.168 215.554 12.324 215.002 12.636C214.474 12.948 214.126 13.404 213.958 14.004H208.81C209.05 12.348 209.902 10.98 211.366 9.9C212.83 8.82 214.834 8.28 217.378 8.28C220.018 8.28 222.034 8.868 223.426 10.044C224.818 11.22 225.514 12.912 225.514 15.12V23.22C225.514 23.82 225.55 24.432 225.622 25.056C225.718 25.656 225.862 26.304 226.054 27H220.654ZM214.246 27.36C212.422 27.36 210.97 26.904 209.89 25.992C208.81 25.056 208.27 23.82 208.27 22.284C208.27 20.58 208.906 19.212 210.178 18.18C211.474 17.124 213.274 16.44 215.578 16.128L220.942 15.372V18.504L216.478 19.188C215.518 19.332 214.81 19.596 214.354 19.98C213.898 20.364 213.67 20.892 213.67 21.564C213.67 22.164 213.886 22.62 214.318 22.932C214.75 23.244 215.326 23.4 216.046 23.4C217.174 23.4 218.134 23.1 218.926 22.5C219.718 21.876 220.114 21.156 220.114 20.34L220.618 23.22C220.09 24.588 219.286 25.62 218.206 26.316C217.126 27.012 215.806 27.36 214.246 27.36ZM229.664 27V8.64H234.956V12.96H235.064V27H229.664ZM242.444 27V15.624C242.444 14.616 242.18 13.86 241.652 13.356C241.148 12.852 240.404 12.6 239.42 12.6C238.58 12.6 237.824 12.792 237.152 13.176C236.504 13.56 235.988 14.088 235.604 14.76C235.244 15.432 235.064 16.224 235.064 17.136L234.596 12.708C235.196 11.364 236.072 10.296 237.224 9.504C238.4 8.688 239.84 8.28 241.544 8.28C243.584 8.28 245.144 8.856 246.224 10.008C247.304 11.136 247.844 12.66 247.844 14.58V27H242.444ZM260.343 34.74C257.799 34.74 255.723 34.2 254.115 33.12C252.531 32.04 251.595 30.576 251.307 28.728H256.419C256.611 29.184 257.019 29.532 257.643 29.772C258.291 30.012 259.107 30.132 260.091 30.132C261.723 30.132 262.911 29.82 263.655 29.196C264.399 28.572 264.771 27.6 264.771 26.28V22.284L265.059 22.356C264.819 23.7 264.123 24.768 262.971 25.56C261.819 26.328 260.391 26.712 258.687 26.712C257.055 26.712 255.627 26.34 254.403 25.596C253.203 24.828 252.267 23.76 251.595 22.392C250.923 21.024 250.587 19.416 250.587 17.568C250.587 15.696 250.935 14.064 251.631 12.672C252.327 11.28 253.299 10.2 254.547 9.432C255.819 8.664 257.295 8.28 258.975 8.28C260.703 8.28 262.107 8.688 263.187 9.504C264.291 10.32 264.939 11.436 265.131 12.852L264.879 12.888V8.64H270.171V26.208C270.171 28.848 269.295 30.924 267.543 32.436C265.791 33.972 263.391 34.74 260.343 34.74ZM260.559 22.572C261.831 22.572 262.863 22.14 263.655 21.276C264.447 20.388 264.843 19.128 264.843 17.496C264.843 15.864 264.435 14.616 263.619 13.752C262.827 12.864 261.783 12.42 260.487 12.42C259.239 12.42 258.207 12.864 257.391 13.752C256.599 14.64 256.203 15.9 256.203 17.532C256.203 19.164 256.599 20.412 257.391 21.276C258.207 22.14 259.263 22.572 260.559 22.572ZM283.128 27.36C281.088 27.36 279.312 26.964 277.8 26.172C276.288 25.356 275.112 24.228 274.272 22.788C273.456 21.348 273.048 19.692 273.048 17.82C273.048 15.924 273.456 14.268 274.272 12.852C275.112 11.412 276.276 10.296 277.764 9.504C279.252 8.688 280.98 8.28 282.948 8.28C284.844 8.28 286.488 8.664 287.88 9.432C289.272 10.2 290.352 11.268 291.12 12.636C291.888 14.004 292.272 15.612 292.272 17.46C292.272 17.844 292.26 18.204 292.236 18.54C292.212 18.852 292.176 19.152 292.128 19.44H276.216V15.876H287.772L286.836 16.524C286.836 15.036 286.476 13.944 285.756 13.248C285.06 12.528 284.1 12.168 282.876 12.168C281.46 12.168 280.356 12.648 279.564 13.608C278.796 14.568 278.412 16.008 278.412 17.928C278.412 19.8 278.796 21.192 279.564 22.104C280.356 23.016 281.532 23.472 283.092 23.472C283.956 23.472 284.7 23.328 285.324 23.04C285.948 22.752 286.416 22.284 286.728 21.636H291.804C291.204 23.412 290.172 24.816 288.708 25.848C287.268 26.856 285.408 27.36 283.128 27.36Z"/>
</mask>
<path d="M1.87813 27H0.878125V28H1.87813V27ZM1.87813 1.08V0.079999H0.878125V1.08H1.87813ZM10.5181 1.08L11.479 0.803084L11.2706 0.079999H10.5181V1.08ZM17.7181 26.064V27.064H19.047L18.679 25.7871L17.7181 26.064ZM14.5861 26.064L13.6252 25.7871L13.2572 27.064H14.5861V26.064ZM21.7861 1.08V0.079999H21.0336L20.8252 0.803084L21.7861 1.08ZM30.4621 1.08H31.4621V0.079999H30.4621V1.08ZM30.4621 27V28H31.4621V27H30.4621ZM24.9901 27H23.9901V28H24.9901V27ZM24.9901 2.628V1.628H23.9901V2.628H24.9901ZM25.9261 2.628L26.8871 2.90478L27.2548 1.628H25.9261V2.628ZM18.9061 27V28H19.6587L19.8671 27.2768L18.9061 27ZM13.1821 27L12.2211 27.2764L12.4292 28H13.1821V27ZM6.23413 2.844V1.844H4.90595L5.27309 3.12042L6.23413 2.844ZM7.13413 2.844H8.13413V1.844H7.13413V2.844ZM7.13413 27V28H8.13413V27H7.13413ZM2.87812 27V1.08H0.878125V27H2.87812ZM1.87813 2.08H10.5181V0.079999H1.87813V2.08ZM9.55723 1.35691L16.7572 26.3409L18.679 25.7871L11.479 0.803084L9.55723 1.35691ZM17.7181 25.064H14.5861V27.064H17.7181V25.064ZM15.547 26.3409L22.747 1.35691L20.8252 0.803084L13.6252 25.7871L15.547 26.3409ZM21.7861 2.08H30.4621V0.079999H21.7861V2.08ZM29.4621 1.08V27H31.4621V1.08H29.4621ZM30.4621 26H24.9901V28H30.4621V26ZM25.9901 27V2.628H23.9901V27H25.9901ZM24.9901 3.628H25.9261V1.628H24.9901V3.628ZM24.9652 2.35122L17.9452 26.7232L19.8671 27.2768L26.8871 2.90478L24.9652 2.35122ZM18.9061 26H13.1821V28H18.9061V26ZM14.1432 26.7236L7.19516 2.56758L5.27309 3.12042L12.2211 27.2764L14.1432 26.7236ZM6.23413 3.844H7.13413V1.844H6.23413V3.844ZM6.13413 2.844V27H8.13413V2.844H6.13413ZM7.13413 26H1.87813V28H7.13413V26ZM37.7901 26.172L37.3152 27.052L37.3234 27.0565L37.3318 27.0608L37.7901 26.172ZM34.2261 22.788L33.3587 23.2857L33.3636 23.2941L33.3686 23.3025L34.2261 22.788ZM34.2261 12.78L33.3724 12.2591L33.366 12.2698L34.2261 12.78ZM37.7901 9.468L37.3318 8.57918L37.3261 8.58217L37.7901 9.468ZM48.4461 9.468L47.9821 10.3538L47.9878 10.3568L48.4461 9.468ZM52.0101 12.78L51.15 13.2902L52.0101 12.78ZM51.9741 22.788L51.1129 22.2797L51.1103 22.2841L51.9741 22.788ZM48.4101 26.172L48.8741 27.0578L48.8792 27.0551L48.4101 26.172ZM45.3861 22.464L44.8587 21.6144L44.852 21.6185L44.8453 21.6228L45.3861 22.464ZM47.0421 20.628L47.9311 21.086L47.9365 21.0752L47.0421 20.628ZM46.3221 13.896L45.5961 14.5837L45.6054 14.5936L45.615 14.6031L46.3221 13.896ZM39.8781 13.896L39.1616 13.1983L39.1521 13.2083L39.8781 13.896ZM39.1941 20.628L38.2996 21.0752L38.3051 21.086L39.1941 20.628ZM40.8141 22.464L40.2733 23.3052L40.28 23.3095L40.2867 23.3136L40.8141 22.464ZM43.1181 26.36C41.235 26.36 39.6208 25.9908 38.2484 25.2832L37.3318 27.0608C39.0314 27.9371 40.9692 28.36 43.1181 28.36V26.36ZM38.265 25.292C36.9072 24.5592 35.853 23.5558 35.0836 22.2735L33.3686 23.3025C34.3272 24.9002 35.649 26.1528 37.3152 27.052L38.265 25.292ZM35.0935 22.2903C34.3507 20.9958 33.9661 19.4914 33.9661 17.748H31.9661C31.9661 19.7966 32.4215 21.6522 33.3587 23.2857L35.0935 22.2903ZM33.9661 17.748C33.9661 16.0039 34.3509 14.5296 35.0861 13.2902L33.366 12.2698C32.4213 13.8624 31.9661 15.7001 31.9661 17.748H33.9661ZM35.0797 13.3009C35.8465 12.0442 36.8978 11.0643 38.2541 10.3538L37.3261 8.58217C35.6584 9.45571 34.3337 10.6838 33.3725 12.2591L35.0797 13.3009ZM38.2484 10.3568C39.6208 9.64915 41.235 9.28 43.1181 9.28V7.28C40.9692 7.28 39.0314 7.70285 37.3318 8.5792L38.2484 10.3568ZM43.1181 9.28C45.0278 9.28 46.6387 9.65014 47.9821 10.3538L48.9101 8.58217C47.2295 7.70186 45.2884 7.28 43.1181 7.28V9.28ZM47.9878 10.3568C49.3657 11.0673 50.4106 12.0438 51.15 13.2902L52.8701 12.2698C51.9295 10.6842 50.5985 9.45272 48.9044 8.5792L47.9878 10.3568ZM51.15 13.2902C51.8853 14.5296 52.2701 16.0039 52.2701 17.748H54.2701C54.2701 15.7001 53.8149 13.8624 52.8701 12.2698L51.15 13.2902ZM52.2701 17.748C52.2701 19.4864 51.8759 20.9869 51.1129 22.2797L52.8353 23.2963C53.8003 21.6611 54.2701 19.8016 54.2701 17.748H52.2701ZM51.1103 22.2841C50.3682 23.5563 49.3202 24.5562 47.9409 25.2889L48.8792 27.0551C50.572 26.1558 51.9 24.8997 52.8379 23.2919L51.1103 22.2841ZM47.9461 25.2862C46.6011 25.9907 45.0017 26.36 43.1181 26.36V28.36C45.2665 28.36 47.1951 27.9373 48.8741 27.0578L47.9461 25.2862ZM43.1181 24.112C44.1395 24.112 45.085 23.8463 45.9269 23.3052L44.8453 21.6228C44.3431 21.9457 43.7767 22.112 43.1181 22.112V24.112ZM45.9135 23.3136C46.7766 22.7779 47.4477 22.0243 47.9311 21.086L46.1531 20.17C45.8205 20.8157 45.3876 21.2861 44.8587 21.6144L45.9135 23.3136ZM47.9365 21.0752C48.4284 20.0914 48.6541 18.9593 48.6541 17.712H46.6541C46.6541 18.7207 46.4718 19.5326 46.1477 20.1808L47.9365 21.0752ZM48.6541 17.712C48.6541 15.8784 48.1588 14.3184 47.0292 13.1889L45.615 14.6031C46.2614 15.2496 46.6541 16.2336 46.6541 17.712H48.6541ZM47.048 13.2083C45.9925 12.0941 44.6608 11.528 43.1181 11.528V13.528C44.1194 13.528 44.9237 13.8739 45.5961 14.5837L47.048 13.2083ZM43.1181 11.528C41.576 11.528 40.2377 12.0932 39.1616 13.1984L40.5946 14.5936C41.2945 13.8748 42.1161 13.528 43.1181 13.528V11.528ZM39.1521 13.2083C38.0644 14.3564 37.5821 15.9033 37.5821 17.712H39.5821C39.5821 16.2567 39.9638 15.2596 40.604 14.5837L39.1521 13.2083ZM37.5821 17.712C37.5821 18.9593 37.8078 20.0914 38.2997 21.0752L40.0885 20.1808C39.7644 19.5326 39.5821 18.7207 39.5821 17.712H37.5821ZM38.3051 21.086C38.7841 22.0157 39.4371 22.7676 40.2733 23.3052L41.3549 21.6228C40.847 21.2964 40.4201 20.8243 40.0831 20.17L38.3051 21.086ZM40.2867 23.3136C41.1453 23.8465 42.0967 24.112 43.1181 24.112V22.112C42.4595 22.112 41.8749 21.9455 41.3415 21.6144L40.2867 23.3136ZM56.1327 27H55.1327V28H56.1327V27ZM56.1327 8.64V7.64H55.1327V8.64H56.1327ZM61.4247 8.64H62.4247V7.64H61.4247V8.64ZM61.4247 12.96H60.4247V13.96H61.4247V12.96ZM61.5327 12.96H62.5327V11.96H61.5327V12.96ZM61.5327 27V28H62.5327V27H61.5327ZM68.9127 27H67.9127V28H68.9127V27ZM68.1207 13.356L67.4136 14.0631L67.4218 14.0713L67.4302 14.0794L68.1207 13.356ZM63.6207 13.176L63.1245 12.3078L63.1177 12.3117L63.1109 12.3157L63.6207 13.176ZM62.0727 14.76L61.2044 14.2639L61.1976 14.2757L61.1912 14.2878L62.0727 14.76ZM61.5327 17.136L60.5382 17.2411L62.5327 17.136H61.5327ZM61.0647 12.708L60.1515 12.3003L60.0419 12.5458L60.0702 12.8131L61.0647 12.708ZM63.6927 9.504L64.2592 10.328L64.2627 10.3256L63.6927 9.504ZM72.6927 10.008L71.9631 10.692L71.9704 10.6996L72.6927 10.008ZM74.3127 27V28H75.3127V27H74.3127ZM57.1327 27V8.64H55.1327V27H57.1327ZM56.1327 9.64H61.4247V7.64H56.1327V9.64ZM60.4247 8.64V12.96H62.4247V8.64H60.4247ZM61.4247 13.96H61.5327V11.96H61.4247V13.96ZM60.5327 12.96V27H62.5327V12.96H60.5327ZM61.5327 26H56.1327V28H61.5327V26ZM69.9127 27V15.624H67.9127V27H69.9127ZM69.9127 15.624C69.9127 14.4497 69.6027 13.3883 68.8111 12.6326L67.4302 14.0794C67.6946 14.3317 67.9127 14.7823 67.9127 15.624H69.9127ZM68.8278 12.6489C68.0742 11.8953 67.0349 11.6 65.8887 11.6V13.6C66.7104 13.6 67.1591 13.8087 67.4136 14.0631L68.8278 12.6489ZM65.8887 11.6C64.8899 11.6 63.9604 11.8301 63.1245 12.3078L64.1168 14.0442C64.625 13.7539 65.2074 13.6 65.8887 13.6V11.6ZM63.1109 12.3157C62.3096 12.7905 61.6719 13.4458 61.2044 14.2639L62.9409 15.2561C63.2414 14.7302 63.6357 14.3295 64.1305 14.0363L63.1109 12.3157ZM61.1912 14.2878C60.7395 15.131 60.5327 16.0914 60.5327 17.136H62.5327C62.5327 16.3566 62.6859 15.733 62.9541 15.2322L61.1912 14.2878ZM62.5271 17.0309L62.0591 12.6029L60.0702 12.8131L60.5382 17.2411L62.5271 17.0309ZM61.9778 13.1157C62.5069 11.9304 63.267 11.0102 64.2592 10.328L63.1261 8.67996C61.8143 9.58183 60.8224 10.7976 60.1515 12.3003L61.9778 13.1157ZM64.2627 10.3256C65.2415 9.64647 66.4728 9.28 68.0127 9.28V7.28C66.1445 7.28 64.4958 7.72952 63.1226 8.68241L64.2627 10.3256ZM68.0127 9.28C69.8614 9.28 71.1234 9.79628 71.9631 10.6919L73.4222 9.32406C72.1019 7.91572 70.2439 7.28 68.0127 7.28V9.28ZM71.9704 10.6996C72.8332 11.6008 73.3127 12.8553 73.3127 14.58H75.3127C75.3127 12.4647 74.7121 10.6712 73.415 9.31643L71.9704 10.6996ZM73.3127 14.58V27H75.3127V14.58H73.3127ZM74.3127 26H68.9127V28H74.3127V26ZM81.7337 26.172L81.2588 27.0521L81.2697 27.0578L81.7337 26.172ZM78.2057 22.788L77.3356 23.2811L77.3419 23.2919L78.2057 22.788ZM78.2057 12.852L77.3419 12.3481L77.3393 12.3527L78.2057 12.852ZM81.6977 9.504L82.1676 10.3868L82.1786 10.3808L81.6977 9.504ZM96.1697 18.54L97.1668 18.6167L97.1672 18.6112L96.1697 18.54ZM96.0617 19.44V20.44H96.9088L97.0481 19.6044L96.0617 19.44ZM80.1497 19.44H79.1497V20.44H80.1497V19.44ZM80.1497 15.876V14.876H79.1497V15.876H80.1497ZM91.7057 15.876L92.2749 16.6982L94.907 14.876H91.7057V15.876ZM90.7697 16.524H89.7697V18.4326L91.3389 17.3462L90.7697 16.524ZM89.6897 13.248L88.9707 13.943L88.9825 13.9552L88.9947 13.967L89.6897 13.248ZM83.4977 13.608L82.7263 12.9716L82.7216 12.9774L82.7169 12.9833L83.4977 13.608ZM83.4977 22.104L82.7328 22.7481L82.7377 22.7539L82.7427 22.7597L83.4977 22.104ZM89.2577 23.04L89.6768 23.948L89.2577 23.04ZM90.6617 21.636V20.636H90.0333L89.7607 21.2022L90.6617 21.636ZM95.7377 21.636L96.6851 21.9561L97.1311 20.636H95.7377V21.636ZM92.6417 25.848L93.2152 26.6672L93.2179 26.6653L92.6417 25.848ZM87.0617 26.36C85.152 26.36 83.5411 25.9899 82.1977 25.2862L81.2697 27.0578C82.9503 27.9381 84.8915 28.36 87.0617 28.36V26.36ZM82.2086 25.292C80.8532 24.5604 79.814 23.5604 79.0695 22.2841L77.3419 23.2919C78.2775 24.8956 79.5903 26.1516 81.2588 27.052L82.2086 25.292ZM79.0757 22.295C78.3556 21.0242 77.9817 19.5422 77.9817 17.82H75.9817C75.9817 19.8418 76.4238 21.6718 77.3357 23.281L79.0757 22.295ZM77.9817 17.82C77.9817 16.0709 78.3568 14.5926 79.0722 13.3513L77.3393 12.3527C76.4226 13.9434 75.9817 15.7771 75.9817 17.82H77.9817ZM79.0695 13.3559C79.8148 12.0782 80.8416 11.0925 82.1676 10.3867L81.2279 8.62125C79.5779 9.49949 78.2766 10.7458 77.3419 12.3481L79.0695 13.3559ZM82.1786 10.3808C83.4972 9.6577 85.0548 9.28 86.8817 9.28V7.28C84.7727 7.28 82.8743 7.7183 81.2169 8.62719L82.1786 10.3808ZM86.8817 9.28C88.6413 9.28 90.1126 9.63558 91.3306 10.3076L92.2968 8.55642C90.7308 7.69242 88.9142 7.28 86.8817 7.28V9.28ZM91.3306 10.3076C92.5619 10.9869 93.5062 11.9222 94.1817 13.1255L95.9257 12.1465C95.0653 10.6138 93.8495 9.41311 92.2968 8.55642L91.3306 10.3076ZM94.1817 13.1255C94.852 14.3194 95.2057 15.7528 95.2057 17.46H97.2057C97.2057 15.4712 96.7915 13.6886 95.9257 12.1465L94.1817 13.1255ZM95.2057 17.46C95.2057 17.8234 95.1944 18.1595 95.1723 18.4688L97.1672 18.6112C97.1931 18.2485 97.2057 17.8646 97.2057 17.46H95.2057ZM95.1727 18.4633C95.1508 18.748 95.1181 19.0186 95.0753 19.2756L97.0481 19.6044C97.1013 19.2854 97.1407 18.956 97.1668 18.6167L95.1727 18.4633ZM96.0617 18.44H80.1497V20.44H96.0617V18.44ZM81.1497 19.44V15.876H79.1497V19.44H81.1497ZM80.1497 16.876H91.7057V14.876H80.1497V16.876ZM91.1365 15.0538L90.2005 15.7018L91.3389 17.3462L92.2749 16.6982L91.1365 15.0538ZM91.7697 16.524C91.7697 14.8963 91.3773 13.4885 90.3847 12.529L88.9947 13.967C89.4421 14.3995 89.7697 15.1757 89.7697 16.524H91.7697ZM90.4087 12.553C89.4838 11.5961 88.2403 11.168 86.8097 11.168V13.168C87.8271 13.168 88.5037 13.4599 88.9707 13.943L90.4087 12.553ZM86.8097 11.168C85.1414 11.168 83.7359 11.7479 82.7263 12.9716L84.2691 14.2444C84.8436 13.5481 85.646 13.168 86.8097 13.168V11.168ZM82.7169 12.9833C81.7467 14.196 81.3457 15.9012 81.3457 17.928H83.3457C83.3457 16.1148 83.7127 14.94 84.2786 14.2327L82.7169 12.9833ZM81.3457 17.928C81.3457 19.9085 81.7474 21.5779 82.7328 22.7481L84.2626 21.4599C83.7121 20.8061 83.3457 19.6915 83.3457 17.928H81.3457ZM82.7427 22.7597C83.7767 23.9504 85.2663 24.472 87.0257 24.472V22.472C85.6651 22.472 84.8027 22.0816 84.2528 21.4483L82.7427 22.7597ZM87.0257 24.472C87.9983 24.472 88.8922 24.3101 89.6768 23.948L88.8387 22.132C88.3753 22.3459 87.7811 22.472 87.0257 22.472V24.472ZM89.6768 23.948C90.522 23.5579 91.1551 22.9165 91.5627 22.0698L89.7607 21.2022C89.5444 21.6515 89.2415 21.9461 88.8387 22.132L89.6768 23.948ZM90.6617 22.636H95.7377V20.636H90.6617V22.636ZM94.7903 21.3159C94.2548 22.901 93.3478 24.1268 92.0656 25.0307L93.2179 26.6653C94.8636 25.5052 96.0206 23.923 96.6851 21.9561L94.7903 21.3159ZM92.0683 25.0288C90.84 25.8886 89.1972 26.36 87.0617 26.36V28.36C89.4863 28.36 91.5635 27.8234 93.2152 26.6672L92.0683 25.0288ZM99.5023 34.38L98.591 33.9682L97.9529 35.38H99.5023V34.38ZM104.578 23.148L103.723 22.6306L103.692 22.6817L103.667 22.7362L104.578 23.148ZM105.514 21.6L106.37 22.1174L106.42 22.0348L106.453 21.9443L105.514 21.6ZM110.266 8.64V7.64H109.568L109.327 8.29574L110.266 8.64ZM116.026 8.64L116.944 9.03671L117.548 7.64H116.026V8.64ZM104.902 34.38V35.38H105.559L105.82 34.7767L104.902 34.38ZM103.39 26.64L102.459 27.005L102.81 27.8994L103.718 27.5849L103.39 26.64ZM96.3343 8.64V7.64H94.8682L95.4032 9.00496L96.3343 8.64ZM102.166 8.64L103.109 8.30707L102.874 7.64H102.166V8.64ZM107.962 25.056L108.29 26.0009L109.24 25.6716L108.905 24.7231L107.962 25.056ZM100.414 34.7918L105.49 23.5598L103.667 22.7362L98.591 33.9682L100.414 34.7918ZM105.434 23.6654L106.37 22.1174L104.659 21.0826L103.723 22.6306L105.434 23.6654ZM106.453 21.9443L111.205 8.98425L109.327 8.29574L104.575 21.2557L106.453 21.9443ZM110.266 9.64H116.026V7.64H110.266V9.64ZM115.108 8.24329L103.984 33.9833L105.82 34.7767L116.944 9.03671L115.108 8.24329ZM104.902 33.38H99.5023V35.38H104.902V33.38ZM104.321 26.275L97.2653 8.27504L95.4032 9.00496L102.459 27.005L104.321 26.275ZM96.3343 9.64H102.166V7.64H96.3343V9.64ZM101.223 8.97293L107.019 25.3889L108.905 24.7231L103.109 8.30707L101.223 8.97293ZM107.635 24.1111L103.063 25.6951L103.718 27.5849L108.29 26.0009L107.635 24.1111ZM124.609 27H123.609V28H124.609V27ZM124.609 1.08V0.079999H123.609V1.08H124.609ZM130.153 1.08H131.153V0.079999H130.153V1.08ZM130.153 27V28H131.153V27H130.153ZM127.201 27H126.201V28H127.201V27ZM127.201 22.752V21.752H126.201V22.752H127.201ZM143.905 22.752H144.905V21.752H143.905V22.752ZM143.905 27V28H144.905V27H143.905ZM127.201 15.84H126.201V16.84H127.201V15.84ZM127.201 11.664V10.664H126.201V11.664H127.201ZM142.645 11.664H143.645V10.664H142.645V11.664ZM142.645 15.84V16.84H143.645V15.84H142.645ZM127.201 5.328H126.201V6.328H127.201V5.328ZM127.201 1.08V0.079999H126.201V1.08H127.201ZM143.473 1.08H144.473V0.079999H143.473V1.08ZM143.473 5.328V6.328H144.473V5.328H143.473ZM125.609 27V1.08H123.609V27H125.609ZM124.609 2.08H130.153V0.079999H124.609V2.08ZM129.153 1.08V27H131.153V1.08H129.153ZM130.153 26H124.609V28H130.153V26ZM128.201 27V22.752H126.201V27H128.201ZM127.201 23.752H143.905V21.752H127.201V23.752ZM142.905 22.752V27H144.905V22.752H142.905ZM143.905 26H127.201V28H143.905V26ZM128.201 15.84V11.664H126.201V15.84H128.201ZM127.201 12.664H142.645V10.664H127.201V12.664ZM141.645 11.664V15.84H143.645V11.664H141.645ZM142.645 14.84H127.201V16.84H142.645V14.84ZM128.201 5.328V1.08H126.201V5.328H128.201ZM127.201 2.08H143.473V0.079999H127.201V2.08ZM142.473 1.08V5.328H144.473V1.08H142.473ZM143.473 4.328H127.201V6.328H143.473V4.328ZM159.509 27L158.679 27.559L158.977 28H159.509V27ZM154.073 18.936L154.902 18.377L154.886 18.3538L154.869 18.3316L154.073 18.936ZM146.261 8.64V7.64H144.247L145.464 9.24445L146.261 8.64ZM152.309 8.64L153.139 8.08244L152.842 7.64H152.309V8.64ZM157.169 15.876L156.338 16.4336L156.354 16.4562L156.37 16.4781L157.169 15.876ZM165.557 27V28H167.563L166.355 26.3979L165.557 27ZM154.505 15.588L153.685 15.0148L153.291 15.5784L153.676 16.1481L154.505 15.588ZM159.365 8.64V7.64H158.844L158.545 8.06682L159.365 8.64ZM165.269 8.64L166.063 9.24765L167.293 7.64H165.269V8.64ZM157.061 19.368L156.232 19.9282L157.011 21.0792L157.855 19.9756L157.061 19.368ZM156.593 19.656L157.408 20.2353L157.809 19.6702L157.421 19.0958L156.593 19.656ZM151.373 27V28H151.889L152.188 27.5793L151.373 27ZM145.505 27L144.711 26.3914L143.477 28H145.505V27ZM154.037 15.876L154.865 15.3158L154.088 14.1663L153.243 15.2674L154.037 15.876ZM160.338 26.441L154.902 18.377L153.243 19.495L158.679 27.559L160.338 26.441ZM154.869 18.3316L147.057 8.03555L145.464 9.24445L153.276 19.5404L154.869 18.3316ZM146.261 9.64H152.309V7.64H146.261V9.64ZM151.478 9.19755L156.338 16.4336L157.999 15.3184L153.139 8.08244L151.478 9.19755ZM156.37 16.4781L164.758 27.6021L166.355 26.3979L157.967 15.2739L156.37 16.4781ZM165.557 26H159.509V28H165.557V26ZM155.324 16.1612L160.184 9.21317L158.545 8.06682L153.685 15.0148L155.324 16.1612ZM159.365 9.64H165.269V7.64H159.365V9.64ZM164.474 8.03235L156.266 18.7604L157.855 19.9756L166.063 9.24765L164.474 8.03235ZM157.889 18.8078L155.333 15.0278L153.676 16.1481L156.232 19.9282L157.889 18.8078ZM155.778 19.0767L150.558 26.4207L152.188 27.5793L157.408 20.2353L155.778 19.0767ZM151.373 26H145.505V28H151.373V26ZM146.298 27.6086L154.83 16.4846L153.243 15.2674L144.711 26.3914L146.298 27.6086ZM153.208 16.4361L155.764 20.2162L157.421 19.0958L154.865 15.3158L153.208 16.4361ZM170.291 26.136L169.804 27.0095L170.291 26.136ZM166.835 22.752L165.965 23.2451L165.971 23.2559L166.835 22.752ZM166.835 12.888L165.971 12.3841L165.965 12.395L166.835 12.888ZM179.687 9.18L179.26 10.0844L179.27 10.0892L179.28 10.0938L179.687 9.18ZM182.855 11.592L182.07 12.2122L182.075 12.2178L182.079 12.2233L182.855 11.592ZM184.475 15.228V16.228H185.662L185.46 15.0581L184.475 15.228ZM179.255 15.228L178.296 15.513L178.509 16.228H179.255V15.228ZM177.815 13.212L177.253 14.0395L177.26 14.044L177.267 14.0485L177.815 13.212ZM173.171 13.176L172.616 12.344L172.609 12.3488L172.601 12.3538L173.171 13.176ZM171.731 15.012L172.651 15.4025L171.731 15.012ZM171.731 20.628L170.81 21.0185L171.731 20.628ZM173.171 22.464L172.601 23.2862L172.609 23.2912L172.616 23.2961L173.171 22.464ZM177.815 22.428L177.267 21.5915L177.26 21.596L177.253 21.6005L177.815 22.428ZM179.255 20.412V19.412H178.509L178.296 20.127L179.255 20.412ZM184.475 20.412L185.46 20.5819L185.662 19.412H184.475V20.412ZM182.855 24.048L182.079 23.4167L182.075 23.4222L182.07 23.4278L182.855 24.048ZM179.687 26.496L180.099 27.407L180.107 27.4035L179.687 26.496ZM175.367 26.36C173.592 26.36 172.072 25.9841 170.777 25.2625L169.804 27.0095C171.437 27.9199 173.301 28.36 175.367 28.36V26.36ZM170.777 25.2625C169.469 24.5332 168.448 23.5325 167.698 22.2481L165.971 23.2559C166.902 24.8515 168.184 26.1068 169.804 27.0095L170.777 25.2625ZM167.705 22.259C166.983 20.9863 166.611 19.5158 166.611 17.82H164.611C164.611 19.8202 165.054 21.6377 165.965 23.245L167.705 22.259ZM166.611 17.82C166.611 16.1242 166.983 14.6537 167.705 13.381L165.965 12.395C165.054 14.0023 164.611 15.8198 164.611 17.82H166.611ZM167.698 13.3919C168.448 12.1075 169.469 11.1068 170.777 10.3775L169.804 8.63052C168.184 9.53324 166.902 10.7885 165.971 12.3841L167.698 13.3919ZM170.777 10.3775C172.072 9.65587 173.592 9.28 175.367 9.28V7.28C173.301 7.28 171.437 7.72013 169.804 8.63052L170.777 10.3775ZM175.367 9.28C176.848 9.28 178.139 9.5558 179.26 10.0844L180.113 8.27557C178.69 7.60419 177.101 7.28 175.367 7.28V9.28ZM179.28 10.0938C180.44 10.6093 181.362 11.3171 182.07 12.2122L183.639 10.9718C182.715 9.80293 181.525 8.90271 180.093 8.26619L179.28 10.0938ZM182.079 12.2233C182.804 13.1138 183.276 14.1644 183.489 15.3979L185.46 15.0581C185.193 13.5076 184.585 12.1342 183.63 10.9607L182.079 12.2233ZM184.475 14.228H179.255V16.228H184.475V14.228ZM180.213 14.943C179.89 13.8559 179.279 12.9759 178.363 12.3755L177.267 14.0485C177.742 14.3601 178.091 14.8241 178.296 15.513L180.213 14.943ZM178.376 12.3845C177.519 11.8026 176.525 11.528 175.439 11.528V13.528C176.176 13.528 176.767 13.7094 177.253 14.0395L178.376 12.3845ZM175.439 11.528C174.4 11.528 173.446 11.7906 172.616 12.344L173.725 14.0081C174.191 13.6974 174.75 13.528 175.439 13.528V11.528ZM172.601 12.3538C171.802 12.9074 171.21 13.6791 170.81 14.6215L172.651 15.4025C172.923 14.7609 173.292 14.3086 173.74 13.9982L172.601 12.3538ZM170.81 14.6215C170.41 15.5642 170.227 16.6389 170.227 17.82H172.227C172.227 16.8411 172.379 16.0438 172.651 15.4025L170.81 14.6215ZM170.227 17.82C170.227 19.0011 170.41 20.0758 170.81 21.0185L172.651 20.2374C172.379 19.5962 172.227 18.7989 172.227 17.82H170.227ZM170.81 21.0185C171.21 21.9609 171.802 22.7326 172.601 23.2862L173.74 21.6418C173.292 21.3314 172.923 20.8791 172.651 20.2374L170.81 21.0185ZM172.616 23.2961C173.446 23.8494 174.4 24.112 175.439 24.112V22.112C174.75 22.112 174.191 21.9426 173.725 21.632L172.616 23.2961ZM175.439 24.112C176.525 24.112 177.519 23.8374 178.376 23.2555L177.253 21.6005C176.767 21.9306 176.176 22.112 175.439 22.112V24.112ZM178.363 23.2645C179.279 22.6641 179.89 21.7841 180.213 20.697L178.296 20.127C178.091 20.8159 177.742 21.2799 177.267 21.5915L178.363 23.2645ZM179.255 21.412H184.475V19.412H179.255V21.412ZM183.489 20.2421C183.276 21.4756 182.804 22.5262 182.079 23.4167L183.63 24.6793C184.585 23.5058 185.193 22.1324 185.46 20.5819L183.489 20.2421ZM182.07 23.4278C181.36 24.3265 180.433 25.0486 179.266 25.5885L180.107 27.4035C181.533 26.7434 182.718 25.8335 183.639 24.6682L182.07 23.4278ZM179.274 25.585C178.15 26.0941 176.854 26.36 175.367 26.36V28.36C177.095 28.36 178.679 28.0499 180.099 27.407L179.274 25.585ZM187.265 27H186.265V28H187.265V27ZM187.265 1.08V0.079999H186.265V1.08H187.265ZM192.665 1.08H193.665V0.079999H192.665V1.08ZM192.665 27V28H193.665V27H192.665ZM200.045 27H199.045V28H200.045V27ZM199.253 13.356L198.546 14.0631L198.555 14.0713L198.563 14.0794L199.253 13.356ZM194.753 13.176L194.257 12.3078L194.25 12.3117L194.244 12.3157L194.753 13.176ZM193.205 14.76L192.337 14.2639L192.33 14.2757L192.324 14.2878L193.205 14.76ZM192.665 17.136L191.671 17.2411L193.665 17.136H192.665ZM192.197 12.708L191.284 12.3003L191.175 12.5458L191.203 12.8131L192.197 12.708ZM194.825 9.504L195.392 10.328L195.396 10.3256L194.825 9.504ZM203.825 10.008L203.096 10.692L203.103 10.6996L203.825 10.008ZM205.445 27V28H206.445V27H205.445ZM188.265 27V1.08H186.265V27H188.265ZM187.265 2.08H192.665V0.079999H187.265V2.08ZM191.665 1.08V27H193.665V1.08H191.665ZM192.665 26H187.265V28H192.665V26ZM201.045 27V15.624H199.045V27H201.045ZM201.045 15.624C201.045 14.4497 200.736 13.3883 199.944 12.6326L198.563 14.0794C198.827 14.3317 199.045 14.7823 199.045 15.624H201.045ZM199.961 12.6489C199.207 11.8953 198.168 11.6 197.021 11.6V13.6C197.843 13.6 198.292 13.8087 198.546 14.0631L199.961 12.6489ZM197.021 11.6C196.023 11.6 195.093 11.8301 194.257 12.3078L195.25 14.0442C195.758 13.7539 196.34 13.6 197.021 13.6V11.6ZM194.244 12.3157C193.442 12.7905 192.805 13.4458 192.337 14.2639L194.074 15.2561C194.374 14.7302 194.768 14.3295 195.263 14.0363L194.244 12.3157ZM192.324 14.2878C191.872 15.131 191.665 16.0914 191.665 17.136H193.665C193.665 16.3566 193.819 15.733 194.087 15.2322L192.324 14.2878ZM193.66 17.0309L193.192 12.6029L191.203 12.8131L191.671 17.2411L193.66 17.0309ZM193.111 13.1157C193.64 11.9304 194.4 11.0102 195.392 10.328L194.259 8.67996C192.947 9.58183 191.955 10.7976 191.284 12.3003L193.111 13.1157ZM195.396 10.3256C196.374 9.64647 197.606 9.28 199.145 9.28V7.28C197.277 7.28 195.629 7.72952 194.255 8.68241L195.396 10.3256ZM199.145 9.28C200.994 9.28 202.256 9.79628 203.096 10.6919L204.555 9.32406C203.235 7.91572 201.377 7.28 199.145 7.28V9.28ZM203.103 10.6996C203.966 11.6008 204.445 12.8553 204.445 14.58H206.445C206.445 12.4647 205.845 10.6712 204.548 9.31643L203.103 10.6996ZM204.445 14.58V27H206.445V14.58H204.445ZM205.445 26H200.045V28H205.445V26ZM220.654 27L219.689 27.2631L219.89 28H220.654V27ZM220.329 25.308L219.333 25.3877L219.334 25.4075L219.337 25.4271L220.329 25.308ZM220.258 23.22H221.258V22.22H220.258V23.22ZM220.113 23.22H219.113V24.22H220.113V23.22ZM219.357 12.816L218.689 13.5593L218.708 13.5768L218.728 13.5932L219.357 12.816ZM215.001 12.636L214.509 11.7654L214.501 11.7702L214.493 11.7751L215.001 12.636ZM213.958 14.004V15.004H214.716L214.92 14.2736L213.958 14.004ZM208.809 14.004L207.82 13.8606L207.654 15.004H208.809V14.004ZM211.365 9.9L210.772 9.09528L211.365 9.9ZM223.426 10.044L222.78 10.8079L223.426 10.044ZM225.622 25.056L224.628 25.1706L224.631 25.1924L224.634 25.214L225.622 25.056ZM226.053 27V28H227.367L227.017 26.7341L226.053 27ZM209.889 25.992L209.235 26.7478L209.244 26.756L209.889 25.992ZM210.178 18.18L210.808 18.9566L210.809 18.9552L210.178 18.18ZM215.577 16.128L215.712 17.119L215.717 17.1182L215.577 16.128ZM220.941 15.372H221.941V14.2212L220.802 14.3818L220.941 15.372ZM220.941 18.504L221.093 19.4925L221.941 19.3624V18.504H220.941ZM216.477 19.188L216.626 20.1769L216.629 20.1765L216.477 19.188ZM214.354 19.98L214.998 20.7449L214.354 19.98ZM214.318 22.932L214.903 22.1213L214.318 22.932ZM218.926 22.5L219.529 23.2971L219.537 23.2914L219.544 23.2855L218.926 22.5ZM220.113 20.34L221.099 20.1676L219.113 20.34H220.113ZM220.618 23.22L221.55 23.5801L221.65 23.3211L221.603 23.0476L220.618 23.22ZM218.206 26.316L218.747 27.1566L218.206 26.316ZM221.618 26.7369C221.488 26.2607 221.389 25.7452 221.322 25.1889L219.337 25.4271C219.414 26.0708 219.531 26.6833 219.689 27.2631L221.618 26.7369ZM221.326 25.2283C221.281 24.6615 221.258 23.9931 221.258 23.22H219.258C219.258 24.0308 219.282 24.7545 219.333 25.3877L221.326 25.2283ZM220.258 22.22H220.113V24.22H220.258V22.22ZM221.113 23.22V14.544H219.113V23.22H221.113ZM221.113 14.544C221.113 13.5482 220.762 12.666 219.987 12.0388L218.728 13.5932C218.961 13.782 219.113 14.0518 219.113 14.544H221.113ZM220.026 12.0727C219.291 11.4109 218.287 11.168 217.197 11.168V13.168C218.028 13.168 218.464 13.3571 218.689 13.5593L220.026 12.0727ZM217.197 11.168C216.184 11.168 215.263 11.3394 214.509 11.7654L215.494 13.5066C215.844 13.3086 216.387 13.168 217.197 13.168V11.168ZM214.493 11.7751C213.739 12.2206 213.231 12.8905 212.995 13.7344L214.92 14.2736C215.02 13.9175 215.208 13.6754 215.51 13.4969L214.493 11.7751ZM213.958 13.004H208.809V15.004H213.958V13.004ZM209.799 14.1474C209.997 12.7804 210.689 11.6413 211.959 10.7047L210.772 9.09528C209.113 10.3186 208.102 11.9156 207.82 13.8606L209.799 14.1474ZM211.959 10.7047C213.195 9.79325 214.964 9.28 217.378 9.28V7.28C214.703 7.28 212.464 7.84675 210.772 9.09528L211.959 10.7047ZM217.378 9.28C219.885 9.28 221.635 9.84004 222.78 10.8079L224.071 9.28011C222.432 7.89596 220.15 7.28 217.378 7.28V9.28ZM222.78 10.8079C223.9 11.7538 224.514 13.138 224.514 15.12H226.514C226.514 12.686 225.735 10.6862 224.071 9.28011L222.78 10.8079ZM224.514 15.12V23.22H226.514V15.12H224.514ZM224.514 23.22C224.514 23.86 224.552 24.5103 224.628 25.1706L226.615 24.9414C226.547 24.3537 226.514 23.78 226.514 23.22H224.514ZM224.634 25.214C224.737 25.8564 224.889 26.5408 225.09 27.2659L227.017 26.7341C226.834 26.0672 226.698 25.4556 226.609 24.898L224.634 25.214ZM226.053 26H220.654V28H226.053V26ZM214.245 26.36C212.588 26.36 211.387 25.9479 210.535 25.228L209.244 26.756C210.552 27.8601 212.255 28.36 214.245 28.36V26.36ZM210.544 25.2363C209.701 24.5058 209.27 23.5545 209.27 22.284H207.27C207.27 24.0855 207.918 25.6062 209.235 26.7477L210.544 25.2363ZM209.27 22.284C209.27 20.8673 209.78 19.79 210.808 18.9566L209.547 17.4034C208.031 18.634 207.27 20.2927 207.27 22.284H209.27ZM210.809 18.9552C211.917 18.0525 213.522 17.4155 215.712 17.119L215.443 15.137C213.025 15.4645 211.03 16.1955 209.546 17.4048L210.809 18.9552ZM215.717 17.1182L221.081 16.3622L220.802 14.3818L215.438 15.1378L215.717 17.1182ZM219.941 15.372V18.504H221.941V15.372H219.941ZM220.79 17.5155L216.326 18.1995L216.629 20.1765L221.093 19.4925L220.79 17.5155ZM216.329 18.1991C215.29 18.355 214.37 18.659 213.709 19.2151L214.998 20.7449C215.249 20.533 215.745 20.309 216.626 20.1769L216.329 18.1991ZM213.709 19.2151C212.997 19.8147 212.669 20.6392 212.669 21.564H214.669C214.669 21.1448 214.798 20.9133 214.998 20.7449L213.709 19.2151ZM212.669 21.564C212.669 22.4384 213.004 23.2169 213.732 23.7427L214.903 22.1213C214.767 22.0231 214.669 21.8896 214.669 21.564H212.669ZM213.732 23.7427C214.385 24.2144 215.188 24.4 216.046 24.4V22.4C215.463 22.4 215.114 22.2736 214.903 22.1213L213.732 23.7427ZM216.046 24.4C217.361 24.4 218.54 24.0462 219.529 23.2971L218.322 21.7029C217.727 22.1538 216.986 22.4 216.046 22.4V24.4ZM219.544 23.2855C220.514 22.5212 221.113 21.5341 221.113 20.34H219.113C219.113 20.7779 218.921 21.2308 218.307 21.7145L219.544 23.2855ZM219.128 20.5124L219.632 23.3924L221.603 23.0476L221.099 20.1676L219.128 20.5124ZM219.685 22.8599C219.222 24.0594 218.541 24.9099 217.664 25.4754L218.747 27.1566C220.03 26.3301 220.957 25.1166 221.55 23.5801L219.685 22.8599ZM217.664 25.4754C216.777 26.047 215.655 26.36 214.245 26.36V28.36C215.956 28.36 217.474 27.977 218.747 27.1566L217.664 25.4754ZM229.664 27H228.664V28H229.664V27ZM229.664 8.64V7.64H228.664V8.64H229.664ZM234.956 8.64H235.956V7.64H234.956V8.64ZM234.956 12.96H233.956V13.96H234.956V12.96ZM235.064 12.96H236.064V11.96H235.064V12.96ZM235.064 27V28H236.064V27H235.064ZM242.444 27H241.444V28H242.444V27ZM241.652 13.356L240.945 14.0631L240.953 14.0713L240.961 14.0794L241.652 13.356ZM237.152 13.176L236.656 12.3078L236.649 12.3117L236.642 12.3157L237.152 13.176ZM235.604 14.76L234.736 14.2639L234.729 14.2757L234.722 14.2878L235.604 14.76ZM235.064 17.136L234.069 17.2411L236.064 17.136H235.064ZM234.596 12.708L233.683 12.3003L233.573 12.5458L233.601 12.8131L234.596 12.708ZM237.224 9.504L237.79 10.328L237.794 10.3256L237.224 9.504ZM246.224 10.008L245.494 10.692L245.502 10.6996L246.224 10.008ZM247.844 27V28H248.844V27H247.844ZM230.664 27V8.64H228.664V27H230.664ZM229.664 9.64H234.956V7.64H229.664V9.64ZM233.956 8.64V12.96H235.956V8.64H233.956ZM234.956 13.96H235.064V11.96H234.956V13.96ZM234.064 12.96V27H236.064V12.96H234.064ZM235.064 26H229.664V28H235.064V26ZM243.444 27V15.624H241.444V27H243.444ZM243.444 15.624C243.444 14.4497 243.134 13.3883 242.342 12.6326L240.961 14.0794C241.226 14.3317 241.444 14.7823 241.444 15.624H243.444ZM242.359 12.6489C241.605 11.8953 240.566 11.6 239.42 11.6V13.6C240.242 13.6 240.69 13.8087 240.945 14.0631L242.359 12.6489ZM239.42 11.6C238.421 11.6 237.492 11.8301 236.656 12.3078L237.648 14.0442C238.156 13.7539 238.739 13.6 239.42 13.6V11.6ZM236.642 12.3157C235.841 12.7905 235.203 13.4458 234.736 14.2639L236.472 15.2561C236.773 14.7302 237.167 14.3295 237.662 14.0363L236.642 12.3157ZM234.722 14.2878C234.271 15.131 234.064 16.0914 234.064 17.136H236.064C236.064 16.3566 236.217 15.733 236.485 15.2322L234.722 14.2878ZM236.058 17.0309L235.59 12.6029L233.601 12.8131L234.069 17.2411L236.058 17.0309ZM235.509 13.1157C236.038 11.9304 236.798 11.0102 237.79 10.328L236.657 8.67996C235.346 9.58183 234.354 10.7976 233.683 12.3003L235.509 13.1157ZM237.794 10.3256C238.773 9.64647 240.004 9.28 241.544 9.28V7.28C239.676 7.28 238.027 7.72952 236.654 8.68241L237.794 10.3256ZM241.544 9.28C243.393 9.28 244.655 9.79628 245.494 10.6919L246.953 9.32406C245.633 7.91572 243.775 7.28 241.544 7.28V9.28ZM245.502 10.6996C246.364 11.6008 246.844 12.8553 246.844 14.58H248.844C248.844 12.4647 248.243 10.6712 246.946 9.31643L245.502 10.6996ZM246.844 14.58V27H248.844V14.58H246.844ZM247.844 26H242.444V28H247.844V26ZM254.115 33.12L253.551 33.9462L253.557 33.9501L254.115 33.12ZM251.307 28.728V27.728H250.139L250.319 28.882L251.307 28.728ZM256.419 28.728L257.34 28.3399L257.083 27.728H256.419V28.728ZM257.643 29.772L257.284 30.7054L257.295 30.7097L257.643 29.772ZM263.655 29.196L264.297 29.9622L263.655 29.196ZM264.771 22.284L265.013 21.3139L263.771 21.0032V22.284H264.771ZM265.059 22.356L266.043 22.5318L266.207 21.6124L265.301 21.3859L265.059 22.356ZM262.971 25.56L263.525 26.3921L263.531 26.3881L263.537 26.384L262.971 25.56ZM254.403 25.596L253.864 26.4383L253.873 26.4445L253.883 26.4505L254.403 25.596ZM251.595 22.392L250.697 22.8329L251.595 22.392ZM251.631 12.672L250.736 12.2248L251.631 12.672ZM254.547 9.432L254.03 8.5759L254.023 8.58034L254.547 9.432ZM263.187 9.504L262.584 10.3019L262.592 10.3082L263.187 9.504ZM265.131 12.852L265.272 13.8419L266.255 13.7015L266.122 12.7176L265.131 12.852ZM264.879 12.888H263.879V14.041L265.02 13.8779L264.879 12.888ZM264.879 8.64V7.64H263.879V8.64H264.879ZM270.171 8.64H271.171V7.64H270.171V8.64ZM267.543 32.436L266.889 31.6789L266.883 31.6841L267.543 32.436ZM263.655 21.276L264.392 21.9518L264.401 21.9416L263.655 21.276ZM263.619 13.752L262.872 14.4176L262.882 14.4283L262.892 14.4386L263.619 13.752ZM257.391 13.752L256.654 13.0754L256.649 13.0808L256.644 13.0864L257.391 13.752ZM257.391 21.276L256.654 21.9517L256.659 21.9572L256.664 21.9626L257.391 21.276ZM260.343 33.74C257.936 33.74 256.071 33.2293 254.672 32.2899L253.557 33.9501C255.374 35.1707 257.661 35.74 260.343 35.74V33.74ZM254.678 32.2938C253.316 31.3651 252.539 30.1412 252.295 28.574L250.319 28.882C250.65 31.0108 251.745 32.7149 253.551 33.9462L254.678 32.2938ZM251.307 29.728H256.419V27.728H251.307V29.728ZM255.497 29.1161C255.828 29.9012 256.498 30.4032 257.284 30.7053L258.002 28.8387C257.539 28.6608 257.394 28.4668 257.34 28.3399L255.497 29.1161ZM257.295 30.7097C258.091 31.0044 259.034 31.132 260.091 31.132V29.132C259.179 29.132 258.49 29.0196 257.99 28.8343L257.295 30.7097ZM260.091 31.132C261.811 31.132 263.286 30.8105 264.297 29.9622L263.012 28.4298C262.535 28.8295 261.635 29.132 260.091 29.132V31.132ZM264.297 29.9622C265.342 29.0863 265.771 27.7835 265.771 26.28H263.771C263.771 27.4165 263.456 28.0577 263.012 28.4298L264.297 29.9622ZM265.771 26.28V22.284H263.771V26.28H265.771ZM264.528 23.2541L264.816 23.3261L265.301 21.3859L265.013 21.3139L264.528 23.2541ZM264.074 22.1802C263.883 23.2539 263.342 24.0914 262.404 24.736L263.537 26.384C264.904 25.4446 265.755 24.1461 266.043 22.5318L264.074 22.1802ZM262.416 24.728C261.463 25.3635 260.239 25.712 258.687 25.712V27.712C260.542 27.712 262.175 27.2925 263.525 26.3921L262.416 24.728ZM258.687 25.712C257.212 25.712 255.969 25.3776 254.922 24.7415L253.883 26.4505C255.285 27.3024 256.898 27.712 258.687 27.712V25.712ZM254.942 24.7537C253.906 24.0912 253.089 23.167 252.492 21.9511L250.697 22.8329C251.444 24.353 252.499 25.5648 253.864 26.4383L254.942 24.7537ZM252.492 21.9511C251.9 20.7464 251.587 19.2951 251.587 17.568H249.587C249.587 19.5369 249.945 21.3016 250.697 22.8329L252.492 21.9511ZM251.587 17.568C251.587 15.8201 251.911 14.347 252.525 13.1192L250.736 12.2248C249.958 13.781 249.587 15.5719 249.587 17.568H251.587ZM252.525 13.1192C253.143 11.8831 253.991 10.9478 255.071 10.2837L254.023 8.58034C252.606 9.45215 251.51 10.6769 250.736 12.2248L252.525 13.1192ZM255.064 10.2881C256.16 9.62607 257.452 9.28 258.975 9.28V7.28C257.137 7.28 255.477 7.70193 254.03 8.57593L255.064 10.2881ZM258.975 9.28C260.546 9.28 261.72 9.64944 262.584 10.3019L263.789 8.70613C262.493 7.72655 260.86 7.28 258.975 7.28V9.28ZM262.592 10.3082C263.469 10.9564 263.982 11.8258 264.14 12.9864L266.122 12.7176C265.895 11.0462 265.112 9.68358 263.781 8.69982L262.592 10.3082ZM264.989 11.862L264.737 11.8981L265.02 13.8779L265.272 13.8419L264.989 11.862ZM265.879 12.888V8.64H263.879V12.888H265.879ZM264.879 9.64H270.171V7.64H264.879V9.64ZM269.171 8.64V26.208H271.171V8.64H269.171ZM269.171 26.208C269.171 28.6028 268.389 30.3848 266.889 31.6789L268.196 33.1931C270.2 31.4632 271.171 29.0932 271.171 26.208H269.171ZM266.883 31.6841C265.364 33.0162 263.224 33.74 260.343 33.74V35.74C263.557 35.74 266.217 34.9278 268.202 33.1879L266.883 31.6841ZM260.559 23.572C262.084 23.572 263.393 23.0413 264.392 21.9517L262.918 20.6003C262.332 21.2387 261.577 21.572 260.559 21.572V23.572ZM264.401 21.9416C265.409 20.8119 265.843 19.2818 265.843 17.496H263.843C263.843 18.9742 263.485 19.9641 262.908 20.6104L264.401 21.9416ZM265.843 17.496C265.843 15.7052 265.394 14.175 264.346 13.0654L262.892 14.4386C263.476 15.057 263.843 16.0228 263.843 17.496H265.843ZM264.365 13.0864C263.365 11.9652 262.039 11.42 260.487 11.42V13.42C261.526 13.42 262.288 13.7628 262.872 14.4176L264.365 13.0864ZM260.487 11.42C258.97 11.42 257.667 11.9733 256.654 13.0754L258.127 14.4286C258.746 13.7547 259.508 13.42 260.487 13.42V11.42ZM256.644 13.0864C255.637 14.2161 255.203 15.7462 255.203 17.532H257.203C257.203 16.0538 257.561 15.0639 258.137 14.4176L256.644 13.0864ZM255.203 17.532C255.203 19.3156 255.636 20.8416 256.654 21.9517L258.128 20.6003C257.561 19.9824 257.203 19.0124 257.203 17.532H255.203ZM256.664 21.9626C257.687 23.0459 259.015 23.572 260.559 23.572V21.572C259.51 21.572 258.727 21.2341 258.118 20.5894L256.664 21.9626ZM277.8 26.172L277.325 27.0521L277.336 27.0578L277.8 26.172ZM274.272 22.788L273.402 23.2811L273.408 23.2919L274.272 22.788ZM274.272 12.852L273.408 12.3481L273.406 12.3527L274.272 12.852ZM277.764 9.504L278.234 10.3868L278.245 10.3808L277.764 9.504ZM292.236 18.54L293.233 18.6167L293.234 18.6112L292.236 18.54ZM292.128 19.44V20.44H292.975L293.115 19.6044L292.128 19.44ZM276.216 19.44H275.216V20.44H276.216V19.44ZM276.216 15.876V14.876H275.216V15.876H276.216ZM287.772 15.876L288.341 16.6982L290.973 14.876H287.772V15.876ZM286.836 16.524H285.836V18.4326L287.405 17.3462L286.836 16.524ZM285.756 13.248L285.037 13.943L285.049 13.9552L285.061 13.967L285.756 13.248ZM279.564 13.608L278.793 12.9716L278.788 12.9774L278.783 12.9833L279.564 13.608ZM279.564 22.104L278.799 22.7481L278.804 22.7539L278.809 22.7597L279.564 22.104ZM285.324 23.04L285.743 23.948L285.324 23.04ZM286.728 21.636V20.636H286.1L285.827 21.2022L286.728 21.636ZM291.804 21.636L292.752 21.9561L293.197 20.636H291.804V21.636ZM288.708 25.848L289.282 26.6672L289.284 26.6653L288.708 25.848ZM283.128 26.36C281.218 26.36 279.608 25.9899 278.264 25.2862L277.336 27.0578C279.017 27.9381 280.958 28.36 283.128 28.36V26.36ZM278.275 25.292C276.92 24.5604 275.88 23.5604 275.136 22.2841L273.408 23.2919C274.344 24.8956 275.657 26.1516 277.325 27.052L278.275 25.292ZM275.142 22.295C274.422 21.0242 274.048 19.5422 274.048 17.82H272.048C272.048 19.8418 272.49 21.6718 273.402 23.281L275.142 22.295ZM274.048 17.82C274.048 16.0709 274.423 14.5926 275.139 13.3513L273.406 12.3527C272.489 13.9434 272.048 15.7771 272.048 17.82H274.048ZM275.136 13.3559C275.881 12.0782 276.908 11.0925 278.234 10.3867L277.294 8.62125C275.644 9.49949 274.343 10.7458 273.408 12.3481L275.136 13.3559ZM278.245 10.3808C279.564 9.6577 281.121 9.28 282.948 9.28V7.28C280.839 7.28 278.941 7.7183 277.283 8.62719L278.245 10.3808ZM282.948 9.28C284.708 9.28 286.179 9.63558 287.397 10.3076L288.363 8.55642C286.797 7.69242 284.981 7.28 282.948 7.28V9.28ZM287.397 10.3076C288.628 10.9869 289.573 11.9222 290.248 13.1255L291.992 12.1465C291.132 10.6138 289.916 9.41311 288.363 8.55642L287.397 10.3076ZM290.248 13.1255C290.918 14.3194 291.272 15.7528 291.272 17.46H293.272C293.272 15.4712 292.858 13.6886 291.992 12.1465L290.248 13.1255ZM291.272 17.46C291.272 17.8234 291.261 18.1595 291.239 18.4688L293.234 18.6112C293.259 18.2485 293.272 17.8646 293.272 17.46H291.272ZM291.239 18.4633C291.217 18.748 291.185 19.0186 291.142 19.2756L293.115 19.6044C293.168 19.2854 293.207 18.956 293.233 18.6167L291.239 18.4633ZM292.128 18.44H276.216V20.44H292.128V18.44ZM277.216 19.44V15.876H275.216V19.44H277.216ZM276.216 16.876H287.772V14.876H276.216V16.876ZM287.203 15.0538L286.267 15.7018L287.405 17.3462L288.341 16.6982L287.203 15.0538ZM287.836 16.524C287.836 14.8963 287.444 13.4885 286.451 12.529L285.061 13.967C285.509 14.3995 285.836 15.1757 285.836 16.524H287.836ZM286.475 12.553C285.55 11.5961 284.307 11.168 282.876 11.168V13.168C283.893 13.168 284.57 13.4599 285.037 13.943L286.475 12.553ZM282.876 11.168C281.208 11.168 279.802 11.7479 278.793 12.9716L280.336 14.2444C280.91 13.5481 281.712 13.168 282.876 13.168V11.168ZM278.783 12.9833C277.813 14.196 277.412 15.9012 277.412 17.928H279.412C279.412 16.1148 279.779 14.94 280.345 14.2327L278.783 12.9833ZM277.412 17.928C277.412 19.9085 277.814 21.5779 278.799 22.7481L280.329 21.4599C279.778 20.8061 279.412 19.6915 279.412 17.928H277.412ZM278.809 22.7597C279.843 23.9504 281.333 24.472 283.092 24.472V22.472C281.732 22.472 280.869 22.0816 280.319 21.4483L278.809 22.7597ZM283.092 24.472C284.065 24.472 284.959 24.3101 285.743 23.948L284.905 22.132C284.442 22.3459 283.848 22.472 283.092 22.472V24.472ZM285.743 23.948C286.588 23.5579 287.221 22.9165 287.629 22.0698L285.827 21.2022C285.611 21.6515 285.308 21.9461 284.905 22.132L285.743 23.948ZM286.728 22.636H291.804V20.636H286.728V22.636ZM290.857 21.3159C290.321 22.901 289.414 24.1268 288.132 25.0307L289.284 26.6653C290.93 25.5052 292.087 23.923 292.752 21.9561L290.857 21.3159ZM288.135 25.0288C286.906 25.8886 285.264 26.36 283.128 26.36V28.36C285.553 28.36 287.63 27.8234 289.282 26.6672L288.135 25.0288Z" fill="#5D6772" mask="url(#path-1-outside-1_558_352891)"/>
</svg>
