<svg width="82" height="42" viewBox="0 0 82 42" fill="none" xmlns="http://www.w3.org/2000/svg">
<rect x="0.5" y="0.5" width="81" height="41" rx="5.5" stroke="#E5E7EB"/>
<rect x="1" y="1" width="80" height="40" rx="5" fill="white"/>
<path fill-rule="evenodd" clip-rule="evenodd" d="M19.755 14H15.3766C15.077 14 14.8222 14.2177 14.7754 14.5134L13.0046 25.74C12.9694 25.9616 13.141 26.1613 13.3657 26.1613H15.456C15.7556 26.1613 16.0104 25.9435 16.0572 25.6473L16.5348 22.6193C16.5808 22.3228 16.8363 22.1053 17.1353 22.1053H18.5213C21.4056 22.1053 23.07 20.7097 23.505 17.9442C23.7008 16.7344 23.5132 15.7837 22.9465 15.1177C22.3243 14.3869 21.2204 14 19.755 14ZM20.2602 18.1004C20.0208 19.6714 18.8203 19.6714 17.6596 19.6714H16.9989L17.4624 16.7373C17.49 16.5602 17.6436 16.4295 17.8229 16.4295H18.1257C18.9164 16.4295 19.6623 16.4295 20.0477 16.8801C20.2774 17.1491 20.3479 17.5485 20.2602 18.1004ZM32.8432 18.05H30.7465C30.5678 18.05 30.4134 18.1807 30.3859 18.3581L30.2932 18.9444L30.1465 18.732C29.6926 18.0731 28.6805 17.853 27.6703 17.853C25.3531 17.853 23.3743 19.6077 22.9888 22.0692C22.7886 23.2969 23.0733 24.4709 23.7698 25.2897C24.4089 26.0425 25.3232 26.3562 26.4108 26.3562C28.2776 26.3562 29.3131 25.1558 29.3131 25.1558L29.2195 25.7385C29.1842 25.9613 29.3558 26.161 29.5791 26.161H31.4679C31.7683 26.161 32.0216 25.9432 32.069 25.647L33.2023 18.4713C33.2381 18.2506 33.0672 18.05 32.8432 18.05ZM29.9204 22.1305C29.7181 23.3283 28.7674 24.1323 27.555 24.1323C26.9462 24.1323 26.4594 23.937 26.1471 23.567C25.8372 23.1997 25.7193 22.6765 25.818 22.0941C26.007 20.9064 26.9737 20.0763 28.1677 20.0763C28.7629 20.0763 29.247 20.2739 29.5658 20.6472C29.8852 21.0243 30.012 21.5505 29.9204 22.1305ZM41.9029 18.0497H44.01C44.3051 18.0497 44.4772 18.3806 44.3095 18.6227L37.3018 28.7372C37.1883 28.901 37.0014 28.9984 36.8017 28.9984H34.6973C34.401 28.9984 34.228 28.6649 34.3995 28.4222L36.5816 25.3424L34.2608 18.5323C34.1806 18.2956 34.3554 18.0497 34.6072 18.0497H36.6775C36.9466 18.0497 37.1839 18.2263 37.2615 18.4837L38.4931 22.5968L41.3993 18.3166C41.513 18.1495 41.702 18.0497 41.9029 18.0497Z" fill="#253B80"/>
<path fill-rule="evenodd" clip-rule="evenodd" d="M64.8918 26.7387L66.6887 15.3067C66.7162 15.1293 66.87 14.9986 67.0486 14.998H69.0716C69.295 14.998 69.4665 15.1983 69.4313 15.4199L67.6593 26.6459C67.613 26.9422 67.3582 27.1599 67.0581 27.1599H65.2514C65.0281 27.1599 64.8565 26.9602 64.8918 26.7387ZM51.1302 14.9986H46.751C46.452 14.9986 46.1972 15.2164 46.1504 15.512L44.3796 26.7387C44.3444 26.9602 44.5159 27.1599 44.7396 27.1599H46.9865C47.1954 27.1599 47.374 27.0076 47.4066 26.8003L47.9091 23.618C47.9553 23.3214 48.2107 23.104 48.5097 23.104H49.895C52.7798 23.104 54.444 21.7084 54.8792 18.9429C55.0757 17.733 54.8869 16.7823 54.3205 16.1164C53.6986 15.3855 52.5956 14.9986 51.1302 14.9986ZM51.6353 19.099C51.3965 20.67 50.196 20.67 49.0346 20.67H48.3745L48.8388 17.736C48.8664 17.5588 49.0186 17.4282 49.1985 17.4282H49.5013C50.2914 17.4282 51.038 17.4282 51.4232 17.8788C51.6531 18.1478 51.723 18.5471 51.6353 19.099ZM64.2172 19.0486H62.1219C61.9418 19.0486 61.7889 19.1793 61.7619 19.3567L61.6692 19.943L61.522 19.7306C61.0681 19.0718 60.0566 18.8516 59.0463 18.8516C56.7292 18.8516 54.7509 20.6063 54.3655 23.0678C54.1658 24.2955 54.4493 25.4695 55.1459 26.2884C55.7861 27.0411 56.6992 27.3548 57.7868 27.3548C59.6537 27.3548 60.6888 26.1544 60.6888 26.1544L60.5955 26.7372C60.5603 26.9599 60.7318 27.1596 60.9567 27.1596H62.8445C63.1435 27.1596 63.3983 26.9419 63.4451 26.6456L64.5789 19.4699C64.6136 19.2492 64.442 19.0486 64.2172 19.0486ZM61.2947 23.1292C61.0935 24.3269 60.1416 25.1309 58.929 25.1309C58.3213 25.1309 57.8337 24.9357 57.5211 24.5657C57.2112 24.1983 57.0948 23.6752 57.1922 23.0927C57.3821 21.9051 58.3477 21.075 59.5417 21.075C60.1372 21.075 60.621 21.2726 60.9401 21.6458C61.2607 22.023 61.3875 22.5491 61.2947 23.1292Z" fill="#179BD7"/>
</svg>
