<svg width="20" height="24" viewBox="0 0 20 24" fill="none" xmlns="http://www.w3.org/2000/svg">
<g clip-path="url(#clip0_514_330843)">
<path d="M5.58948 22.571L5.99179 19.9992L5.09564 19.9783H0.816406L3.79025 1.00045C3.79948 0.943162 3.82948 0.889743 3.87333 0.851807C3.91718 0.813872 3.97333 0.792969 4.03179 0.792969H11.2472C13.6426 0.792969 15.2957 1.29465 16.1587 2.28484C16.5634 2.74936 16.821 3.23478 16.9457 3.76897C17.0764 4.32949 17.0787 4.99916 16.951 5.81594L16.9418 5.87555V6.3989L17.3464 6.62961C17.6872 6.81155 17.958 7.01981 18.1657 7.25826C18.5118 7.65542 18.7357 8.16019 18.8303 8.75864C18.928 9.37412 18.8957 10.1065 18.7357 10.9357C18.551 11.8895 18.2526 12.7202 17.8495 13.3999C17.4787 14.0263 17.0064 14.5457 16.4457 14.9483C15.9103 15.3308 15.2741 15.6211 14.5549 15.8069C13.858 15.9896 13.0634 16.0817 12.1918 16.0817H11.6303C11.2287 16.0817 10.8387 16.2273 10.5326 16.4882C10.2257 16.7545 10.0226 17.1184 9.96028 17.5163L9.91797 17.7478L9.2072 22.2807L9.17489 22.4472C9.16643 22.4998 9.15181 22.5261 9.13028 22.5439C9.11104 22.5602 9.08335 22.571 9.05643 22.571H5.58948Z" fill="#253B80"/>
<path d="M17.7287 5.93555C17.7072 6.07413 17.6826 6.21581 17.6549 6.36135C16.7033 11.2783 13.448 12.9768 9.29026 12.9768H7.17336C6.66489 12.9768 6.23643 13.3485 6.1572 13.8532L5.07336 20.7714L4.76643 22.7325C4.71489 23.0638 4.96874 23.3627 5.30105 23.3627H9.05565C9.50026 23.3627 9.87795 23.0375 9.94796 22.5962L9.98488 22.4042L10.6918 17.8891L10.7372 17.6414C10.8064 17.1985 11.1849 16.8734 11.6295 16.8734H12.191C15.8287 16.8734 18.6764 15.3869 19.5087 11.0855C19.8564 9.28859 19.6764 7.7882 18.7564 6.73297C18.478 6.41477 18.1326 6.15077 17.7287 5.93555Z" fill="#179BD7"/>
<path d="M16.7344 5.53612C16.589 5.49354 16.439 5.45483 16.2851 5.42C16.1305 5.38593 15.972 5.35574 15.809 5.32942C15.2382 5.23651 14.6128 5.19238 13.9428 5.19238H8.28743C8.1482 5.19238 8.0159 5.22412 7.89743 5.28142C7.63666 5.40761 7.44283 5.65612 7.3959 5.96038L6.19282 13.6295L6.1582 13.8533C6.23743 13.3485 6.6659 12.9769 7.17436 12.9769H9.29128C13.449 12.9769 16.7044 11.2775 17.6559 6.36141C17.6844 6.21587 17.7082 6.07419 17.7297 5.93561C17.489 5.80709 17.2282 5.69716 16.9474 5.60348C16.8782 5.58025 16.8067 5.5578 16.7344 5.53612Z" fill="#222D65"/>
<path d="M7.39538 5.96052C7.4423 5.65626 7.63615 5.40774 7.89692 5.28232C8.01615 5.22503 8.14769 5.19329 8.28692 5.19329H13.9423C14.6123 5.19329 15.2377 5.23742 15.8085 5.33032C15.9715 5.35665 16.13 5.38684 16.2846 5.4209C16.4385 5.45574 16.5885 5.49445 16.7338 5.53703C16.8062 5.55871 16.8777 5.58116 16.9477 5.60361C17.2285 5.69729 17.4892 5.808 17.73 5.93574C18.0131 4.11871 17.7277 2.88155 16.7515 1.76129C15.6754 0.528 13.7331 0 11.2477 0H4.0323C3.52461 0 3.09153 0.371613 3.01307 0.877161L0.00768371 20.0501C-0.0515471 20.4294 0.239222 20.7716 0.619222 20.7716H5.07384L6.1923 13.6297L7.39538 5.96052Z" fill="#253B80"/>
</g>
<defs>
<clipPath id="clip0_514_330843">
<rect width="20" height="24" fill="white"/>
</clipPath>
</defs>
</svg>
