<svg width="24" height="25" viewBox="0 0 24 25" fill="none" xmlns="http://www.w3.org/2000/svg">
<g clip-path="url(#clip0_456_269101)">
<path d="M5.1637 0.565002C4.69949 0.705671 4.24935 1.09017 4.04303 1.50749C3.95394 1.69036 3.40533 4.08643 1.95174 10.6088C0.0761505 19.049 -0.0129402 19.4804 0.00112678 19.8602C0.0151937 20.1884 0.0386387 20.3103 0.160552 20.5635C0.324667 20.8964 0.601317 21.2012 0.91079 21.3841C1.24371 21.5763 1.586 21.642 2.3128 21.642H2.97863L2.88954 22.0312C2.79107 22.4579 2.80514 22.8236 2.93174 23.2128C3.14275 23.8693 3.73825 24.3522 4.46035 24.4601C4.86361 24.5163 9.27125 24.5116 9.65106 24.4554C10.2841 24.3569 10.8374 23.949 11.0859 23.405C11.1656 23.2316 11.3391 22.4532 11.6345 20.9949L12.0612 18.838L14.2463 18.8098C16.6517 18.777 16.8862 18.7536 17.763 18.4675C19.0853 18.0408 20.3466 17.239 21.3219 16.2262C22.5176 14.9696 23.3054 13.455 23.7415 11.5654C24.004 10.4306 24.0744 9.18805 23.929 8.30183C23.6664 6.66068 22.7896 5.4603 21.2094 4.57408L20.8062 4.34901L20.5998 3.93169C19.6996 2.13581 17.613 1.00108 14.5745 0.658781C14.0634 0.602514 13.1162 0.569691 10.7764 0.541557C6.46255 0.4806 5.40753 0.485289 5.1637 0.565002ZM10.7764 1.99514C13.8899 2.03734 14.4338 2.07017 15.3951 2.25304C16.1922 2.40777 16.9237 2.6516 17.5754 2.97983C19.4323 3.92232 20.07 5.61973 19.5214 8.16116C19.1697 9.78355 18.6117 10.9839 17.7114 12.053C16.8111 13.1268 15.4607 13.9802 14.0634 14.3553C13.6179 14.4772 13.5945 14.4772 11.2219 14.5147C9.82455 14.5335 8.76953 14.5663 8.68513 14.5944C8.30063 14.7257 8.07087 14.9274 7.92082 15.265C7.87393 15.3822 7.63949 16.4466 7.40504 17.6329C7.17059 18.8192 6.94552 19.8555 6.90331 19.9352C6.86111 20.0196 6.77671 20.1087 6.71575 20.1368C6.63604 20.1743 5.85767 20.1884 4.16026 20.1884H1.7173L1.58132 20.0524C1.48285 19.954 1.44533 19.8696 1.44533 19.757C1.44533 19.6726 2.32217 15.6776 3.38657 10.8855C5.22466 2.6094 5.3325 2.15926 5.44973 2.0561C5.57633 1.94825 5.59509 1.94825 6.64073 1.94825C7.22685 1.95294 9.08838 1.9717 10.7764 1.99514ZM21.7346 6.83886C22.0253 7.18585 22.2691 7.65475 22.4145 8.16116C22.5083 8.48939 22.5223 8.63943 22.5223 9.40374C22.5223 10.3603 22.452 10.8386 22.1472 11.8655C21.3313 14.6273 19.4088 16.5685 16.8487 17.2062C16.3938 17.3187 16.3141 17.3234 13.9649 17.3609C11.6157 17.3985 11.5454 17.4031 11.3579 17.5016C11.0578 17.661 10.8983 17.8158 10.7858 18.0643C10.7201 18.205 10.5138 19.124 10.2372 20.5119C9.99336 21.7358 9.75891 22.7814 9.72139 22.8424C9.68388 22.9033 9.57135 22.9737 9.47757 22.9971C9.36503 23.0299 8.45537 23.0487 7.01116 23.0487C4.49786 23.0487 4.47442 23.0487 4.32906 22.7673C4.25873 22.6314 4.26342 22.5939 4.36188 22.1343L4.46973 21.642H5.58102C6.22341 21.642 6.79547 21.6185 6.94083 21.5904C7.49413 21.4732 8.00523 21.0699 8.2303 20.5776C8.3147 20.39 8.47881 19.6914 8.76484 18.2472C8.9946 17.1077 9.19154 16.1324 9.20561 16.0809C9.22905 15.9824 9.23374 15.9824 11.5126 15.9543C13.7633 15.9308 13.8102 15.9308 14.2697 15.8136C16.708 15.1946 18.607 13.727 19.8871 11.4622C20.5623 10.2712 21.0641 8.45656 21.1672 6.81542L21.2 6.3137L21.3454 6.43561C21.4251 6.50126 21.5986 6.68413 21.7346 6.83886Z" fill="#051321"/>
</g>
<defs>
<clipPath id="clip0_456_269101">
<rect width="24" height="24" fill="white" transform="translate(0 0.5)"/>
</clipPath>
</defs>
</svg>
