<svg width="14" height="16" viewBox="0 0 14 16" fill="none" xmlns="http://www.w3.org/2000/svg">
<path d="M6.21775 0.0535074C3.62049 0.350317 1.03238 2.50141 0.925564 5.57417C0.858419 7.45032 1.37879 8.85782 3.12301 9.25305C3.87991 7.88616 2.87885 7.58466 2.7232 6.59582C2.0838 2.54359 7.28901 -0.21987 10.0129 2.6092C11.8976 4.56814 10.6569 10.5949 7.6171 9.96851C4.70548 9.37021 9.04239 4.57283 6.71828 3.63085C4.82909 2.86539 3.82498 5.97252 4.72074 7.51593C4.1958 10.17 3.06502 12.671 3.52283 16C5.00763 14.8971 5.50816 12.7851 5.91866 10.5824C6.66487 11.0464 7.06316 11.5291 8.01539 11.6041C11.5267 11.8822 13.4877 8.01582 13.0085 4.44942C12.5827 1.28761 9.5002 -0.32141 6.21775 0.0535074Z" fill="white"/>
</svg>
