<svg width="82" height="42" viewBox="0 0 82 42" fill="none" xmlns="http://www.w3.org/2000/svg">
<rect x="0.5" y="0.5" width="81" height="41" rx="5.5" stroke="#E5E7EB"/>
<rect x="1" y="1" width="80" height="40" rx="5" fill="white"/>
<g clip-path="url(#clip0_402_201570)">
<path d="M10.5648 16.9556L9.97461 19.1203L13.3527 16.9432L11.1434 25.1579L13.3872 25.1598L16.651 13.0264" fill="#3395FF"/>
<path d="M6.92931 21.7066L6 25.16H10.599L12.4808 18.1347L6.92931 21.7066ZM22.9044 18.6661C22.792 19.0825 22.5754 19.3883 22.2524 19.5836C21.9302 19.7786 21.4779 19.8764 20.8941 19.8764H19.0392L19.6905 17.4566H21.5453C22.1284 17.4566 22.529 17.5537 22.7463 17.7516C22.9636 17.9495 23.0161 18.252 22.9044 18.6702M24.8249 18.618C25.061 17.7441 24.9635 17.072 24.5319 16.6015C24.1009 16.1347 23.3447 15.8994 22.2655 15.8994H18.126L15.6341 25.1641H17.6452L18.6495 21.4299H19.9685C20.2645 21.4299 20.4976 21.4784 20.6677 21.5718C20.8382 21.6689 20.9383 21.8369 20.969 22.0796L21.328 25.1641H23.4826L23.1334 22.2888C23.0622 21.6465 22.7673 21.2693 22.2491 21.1573C22.9097 20.9668 23.4632 20.6494 23.9091 20.2088C24.3519 19.7713 24.6682 19.2231 24.8249 18.6217M29.7135 21.8481C29.5449 22.4755 29.2863 22.9497 28.9367 23.2821C28.5867 23.6144 28.1685 23.7787 27.6806 23.7787C27.1838 23.7787 26.8469 23.6182 26.6689 23.2933C26.4905 22.9684 26.4845 22.4979 26.6502 21.8817C26.8158 21.2656 27.08 20.7838 27.4434 20.4366C27.8069 20.0893 28.2319 19.9156 28.7197 19.9156C29.2069 19.9156 29.5404 20.0837 29.709 20.4171C29.8814 20.7521 29.8851 21.2312 29.7165 21.8548L29.7135 21.8481ZM30.5949 18.5694L30.343 19.5067C30.2344 19.1706 30.0234 18.9018 29.7116 18.7001C29.3991 18.5022 29.0124 18.4014 28.5511 18.4014C27.9853 18.4014 27.4419 18.547 26.9211 18.8383C26.4002 19.1296 25.9431 19.5403 25.5533 20.0706C25.1636 20.6009 24.8788 21.2021 24.6952 21.878C24.5154 22.5576 24.4779 23.1514 24.5866 23.6667C24.699 24.1858 24.9351 24.5816 25.2985 24.8579C25.6658 25.138 26.1342 25.2762 26.7075 25.2762C27.1631 25.2785 27.6135 25.1803 28.0265 24.9886C28.4348 24.8051 28.798 24.5349 29.0907 24.197L28.8284 25.1738H30.7732L32.549 18.5728H30.6005L30.5949 18.5694ZM39.5376 18.5694H33.8819L33.4866 20.0407H36.7774L32.4269 23.7862L32.0551 25.1679H37.8933L38.2886 23.6966H34.7625L39.1797 19.8951M44.5158 21.8369C44.3408 22.4867 44.0811 22.9751 43.7382 23.2933C43.3953 23.6144 42.9801 23.775 42.4926 23.775C41.4734 23.775 41.1384 23.129 41.4861 21.8369C41.6585 21.1946 41.9193 20.7118 42.2678 20.3865C42.6163 20.0601 43.0386 19.8973 43.5351 19.8973C44.0223 19.8973 44.3513 20.059 44.5206 20.3846C44.69 20.7095 44.6885 21.1939 44.5158 21.8362M45.6542 18.8177C45.2064 18.5399 44.6349 18.401 43.9379 18.401C43.2323 18.401 42.5792 18.5392 41.9781 18.8155C41.3796 19.0901 40.8535 19.5 40.4418 20.0127C40.0183 20.5318 39.7137 21.1405 39.5267 21.835C39.3431 22.527 39.3206 23.1346 39.463 23.6547C39.6054 24.1738 39.9052 24.5734 40.3549 24.8497C40.8083 25.1283 41.3853 25.2668 42.0936 25.2668C42.7905 25.2668 43.4388 25.1272 44.0346 24.8493C44.6304 24.57 45.14 24.1734 45.5635 23.6506C45.9869 23.1301 46.2904 22.5229 46.4778 21.8283C46.6652 21.1337 46.6876 20.5273 46.5452 20.006C46.4029 19.4869 46.1068 19.0874 45.6609 18.8092M52.597 20.3327L53.0954 18.5366C52.9268 18.4507 52.7057 18.4059 52.4284 18.4059C51.9825 18.4059 51.5553 18.5156 51.1431 18.7382C50.7886 18.9272 50.4873 19.1938 50.2325 19.5276L50.4911 18.5605L49.9264 18.5627H48.5399L46.7525 25.1612H48.7246L49.6521 21.7118C49.787 21.2103 50.0298 20.8156 50.3801 20.5355C50.7286 20.2543 51.1633 20.1135 51.6879 20.1135C52.0102 20.1135 52.31 20.1871 52.5948 20.3339M58.0844 21.8686C57.9158 22.4848 57.661 22.9553 57.3125 23.2802C56.964 23.6066 56.5443 23.7694 56.0572 23.7694C55.57 23.7694 55.2365 23.6051 55.0604 23.2765C54.8806 22.946 54.8768 22.4699 55.0454 21.844C55.2141 21.2185 55.4726 20.7387 55.8286 20.4063C56.1846 20.0713 56.6043 19.904 57.0914 19.904C57.5711 19.904 57.8933 20.0758 58.0657 20.4231C58.2381 20.7704 58.2418 21.2521 58.0762 21.8683M59.4552 18.8286C59.0898 18.5373 58.6233 18.3917 58.0574 18.3917C57.5617 18.3917 57.0892 18.5037 56.641 18.73C56.1932 18.9559 55.8297 19.264 55.5506 19.6538L55.5573 19.609L55.8882 18.5597H53.9621L53.4712 20.3858L53.4562 20.4492L51.4327 27.9716H53.4075L54.4268 24.185C54.5279 24.5218 54.734 24.7862 55.0488 24.9774C55.3636 25.1679 55.7522 25.2624 56.2142 25.2624C56.7875 25.2624 57.3346 25.1242 57.8536 24.8478C58.3745 24.5708 58.8241 24.1719 59.2063 23.6566C59.5886 23.1413 59.8722 22.5438 60.0532 21.8679C60.2368 21.1909 60.2743 20.587 60.1694 20.0586C60.0626 19.5295 59.8261 19.1198 59.4612 18.8301M66.0057 21.8418C65.837 22.4654 65.5785 22.9434 65.23 23.272C64.8815 23.6028 64.4618 23.7675 63.9747 23.7675C63.4763 23.7675 63.139 23.6069 62.9629 23.2821C62.7831 22.9572 62.7793 22.4867 62.9442 21.8705C63.1091 21.2544 63.3721 20.7726 63.7356 20.4253C64.0991 20.0781 64.5244 19.9048 65.0123 19.9048C65.4994 19.9048 65.8292 20.0728 66.0015 20.4052C66.1739 20.7387 66.175 21.2178 66.0072 21.8429L66.0057 21.8418ZM66.8863 18.5612L66.6341 19.4985C66.5254 19.1606 66.3156 18.8917 66.0045 18.6919C65.6898 18.4925 65.3038 18.3932 64.8429 18.3932C64.2771 18.3932 63.7307 18.5388 63.2091 18.8301C62.6883 19.1213 62.2311 19.5299 61.8414 20.0586C61.4517 20.5874 61.1669 21.1901 60.9833 21.866C60.8015 22.5445 60.7659 23.1394 60.8746 23.657C60.9844 24.1723 61.2208 24.5704 61.5866 24.8482C61.9515 25.1246 62.4222 25.2642 62.9955 25.2642C63.4564 25.2642 63.8967 25.1686 64.3145 24.9767C64.7219 24.7923 65.0842 24.5218 65.3761 24.1839L65.1138 25.1615H67.0586L68.8341 18.5631H66.8893L66.8863 18.5612ZM76.9989 18.5634L77 18.5616H75.8046C75.7664 18.5616 75.7327 18.5634 75.6978 18.5642H75.0777L74.7592 19.0048L74.6805 19.1094L74.6467 19.1617L72.1267 22.6599L71.6059 18.5634H69.5419L70.5874 24.7885L68.2791 27.9738H70.3363L70.8947 27.1848C70.9104 27.1616 70.9246 27.1422 70.9434 27.1175L71.5954 26.1952L71.6141 26.169L74.5343 22.0427L76.9962 18.5698L77 18.5676H76.9989V18.5634Z" fill="#072654"/>
</g>
<defs>
<clipPath id="clip0_402_201570">
<rect width="71" height="15" fill="white" transform="translate(6 13)"/>
</clipPath>
</defs>
</svg>
