<svg width="57" height="57" viewBox="0 0 57 57" fill="none" xmlns="http://www.w3.org/2000/svg">
<rect x="0.707107" y="28.2852" width="39" height="39" rx="4.5" transform="rotate(-45 0.707107 28.2852)" fill="#27AE60"/>
<rect x="0.707107" y="28.2852" width="39" height="39" rx="4.5" transform="rotate(-45 0.707107 28.2852)" stroke="#27AE60"/>
<rect x="31" y="15.6074" width="24" height="24" rx="5" fill="white"/>
<path d="M38.5 23.2769V22.3069C38.5 20.0569 40.31 17.8469 42.56 17.6369C45.24 17.3769 47.5 19.4869 47.5 22.1169V23.4969" stroke="#27AE60" stroke-miterlimit="10" stroke-linecap="round" stroke-linejoin="round"/>
<path d="M39.9998 37.6074H45.9998C50.0198 37.6074 50.7398 35.9974 50.9498 34.0374L51.6998 28.0374C51.9698 25.5974 51.2698 23.6074 46.9998 23.6074H38.9998C34.7298 23.6074 34.0298 25.5974 34.2998 28.0374L35.0498 34.0374C35.2598 35.9974 35.9798 37.6074 39.9998 37.6074Z" stroke="#27AE60" stroke-miterlimit="10" stroke-linecap="round" stroke-linejoin="round"/>
<path d="M46.4955 27.6074H46.5045" stroke="#27AE60" stroke-linecap="round" stroke-linejoin="round"/>
<path d="M39.4945 27.6074H39.5035" stroke="#27AE60" stroke-linecap="round" stroke-linejoin="round"/>
</svg>
