<svg width="66" height="117" viewBox="0 0 66 117" fill="none" xmlns="http://www.w3.org/2000/svg">
<path d="M31.6611 -44.3389V-44.3389C22.67 -10.1727 -4.01313 16.5104 -38.1793 25.5015V25.5015V25.5015C-72.3454 34.4926 -99.0286 61.1758 -108.02 95.3419V95.3419" stroke="#E9F7EF" stroke-width="2.46923" stroke-linecap="round" stroke-linejoin="round"/>
<path d="M38.6455 -37.3545V-37.3545C29.6544 -3.18835 2.97125 23.4948 -31.1949 32.4859V32.4859V32.4859C-65.361 41.477 -92.0442 68.1602 -101.035 102.326V102.326" stroke="#E9F7EF" stroke-width="2.46923" stroke-linecap="round" stroke-linejoin="round"/>
<path d="M45.6279 -30.3701V-30.3701C36.6368 3.79602 9.95367 30.4792 -24.2125 39.4703V39.4703V39.4703C-58.3786 48.4614 -85.0618 75.1445 -94.0529 109.311V109.311" stroke="#E9F7EF" stroke-width="2.46923" stroke-linecap="round" stroke-linejoin="round"/>
<path d="M24.6768 -51.3232V-51.3232C15.6857 -17.1571 -10.9975 9.52607 -45.1636 18.5172V18.5172V18.5172C-79.3298 27.5083 -106.013 54.1914 -115.004 88.3576V88.3576" stroke="#E9F7EF" stroke-width="2.46923" stroke-linecap="round" stroke-linejoin="round"/>
<path d="M17.6924 -58.3076V-58.3076C8.70129 -24.1415 -17.9819 2.54169 -52.148 11.5328V11.5328V11.5328C-86.3142 20.5239 -112.997 47.207 -121.988 81.3732V81.3732" stroke="#E9F7EF" stroke-width="2.46923" stroke-linecap="round" stroke-linejoin="round"/>
<path d="M10.71 -65.292V-65.292C1.71887 -31.1259 -24.9643 -4.44268 -59.1304 4.54841V4.54841V4.54841C-93.2966 13.5395 -119.98 40.2227 -128.971 74.3888V74.3888" stroke="#E9F7EF" stroke-width="2.46923" stroke-linecap="round" stroke-linejoin="round"/>
</svg>
