<svg width="53" height="24" viewBox="0 0 53 24" fill="none" xmlns="http://www.w3.org/2000/svg">
<g clip-path="url(#clip0_552_298465)">
<path d="M12.891 11.9624C12.8461 12.047 12.6004 12.1738 12.6347 12.2108C12.1961 12.401 11.7998 12.6282 11.2952 12.7471C11.1605 12.7788 10.9782 12.8739 10.8514 12.9452C10.677 13.0456 10.529 13.0588 10.4207 13.0456C10.2833 13.0694 10.1724 13.0905 10.0244 13.1565C9.74438 13.2807 9.36658 13.3679 8.97821 13.463C9.04162 13.389 9.35073 13.3468 9.41149 13.286C9.21599 13.2966 9.05483 13.3573 8.8831 13.397C8.85404 13.3864 8.85404 13.3653 8.73779 13.3864C8.72458 13.389 8.69816 13.3996 8.7008 13.4022C8.70609 13.426 8.80384 13.4075 8.8831 13.3996C8.64004 13.5449 8.20147 13.5555 7.85009 13.6136C7.84216 13.6189 7.82895 13.6242 7.82367 13.6268C7.78932 13.6294 7.79725 13.6242 7.8448 13.6136C7.89764 13.5766 7.99539 13.5396 7.98483 13.4974C7.76818 13.5581 7.57532 13.611 7.38246 13.6664C7.17638 13.6611 7.40359 13.603 7.32433 13.5766C6.89633 13.6427 6.57401 13.8197 6.02977 13.788C6.0694 13.7615 6.11431 13.7325 6.16186 13.7008C6.22791 13.6849 6.3468 13.6876 6.37322 13.6559C6.28604 13.6638 6.21735 13.6796 6.15394 13.6981C6.07204 13.714 5.98749 13.7272 5.90824 13.743C5.65989 13.7959 5.71537 13.891 5.51987 13.9068C5.25831 13.9306 5.11829 13.9729 4.96241 14.0416C4.84616 13.9967 5.01789 13.9174 4.99675 13.8725L5.02846 13.8593L4.99411 13.8725C4.77483 13.9227 4.77483 13.9623 4.74577 14.0046C4.71142 14.0601 4.56611 14.1103 4.3891 14.1288C4.19095 14.1525 4.36004 14.0812 4.43666 14.0363C4.46836 14.0178 4.52648 13.9967 4.46836 13.994C4.05885 14.105 3.9109 14.2265 3.77352 14.3428L3.80787 14.3375L3.76824 14.348C3.58066 14.4062 3.40629 14.4537 3.27947 14.4696C3.34024 14.4352 3.48026 14.4009 3.46177 14.3718C3.45913 14.3665 3.32703 14.4352 3.27419 14.4696C3.08661 14.5567 2.93866 14.6756 2.72466 14.7628C2.62955 14.8606 2.52915 14.9002 2.45518 14.9742C2.45253 14.9953 2.44989 15.0138 2.45253 15.0323C2.43404 15.0402 2.41819 15.0508 2.40234 15.0613C2.38649 15.1406 2.39969 15.2119 2.4314 15.2859C2.4631 15.3599 2.49745 15.4339 2.51594 15.521C2.6771 15.8249 2.58728 15.7482 2.48688 15.6901C2.48952 15.7033 2.50009 15.7245 2.49745 15.7245C2.48424 15.7218 2.46574 15.6954 2.46046 15.6584C2.34686 15.5025 2.2491 15.3255 2.25703 15.1353C2.20683 15.3255 2.32308 15.4999 2.41819 15.6901C2.52387 15.8909 2.57935 15.8618 2.62955 15.8698C2.72994 15.8883 2.83826 16.0019 3.00999 16.1762L3.03113 16.2026L3.01263 16.1789C3.11567 16.1974 3.21078 16.2608 3.32703 16.3612C3.43799 16.4457 3.40364 16.4721 3.35873 16.5144C3.5833 16.5408 3.47498 16.4298 3.50932 16.3929C3.70483 16.4615 3.82372 16.5038 3.90034 16.5593H3.87392L3.9109 16.5646C4.52384 16.6729 5.10508 16.5487 5.77349 16.414C6.07468 16.3532 6.40228 16.1974 6.7114 16.0573C7.05485 15.8988 7.11033 15.8856 7.1711 15.9596C7.253 15.7879 7.62023 15.6214 7.95841 15.4391C8.40226 15.1987 8.79327 14.8923 9.13673 14.5488C9.44055 14.2424 9.70739 13.9068 9.86855 13.5211C9.86063 13.5977 9.82364 13.6929 9.87648 13.6638C9.93724 13.5211 9.87384 13.5634 9.8712 13.5158C9.88705 13.4472 9.90026 13.3785 9.92403 13.3071C9.97952 13.0694 10.0086 12.9188 10.0614 13.0297C10.0773 13.0641 10.0984 13.0905 10.1275 13.0033C10.1407 12.8342 10.101 12.8739 10.0799 12.8422C10.0588 12.8078 10.0429 12.7576 10.035 12.6863C10.0271 12.615 10.0297 12.5225 10.0112 12.4036C10.0007 12.2927 10.0033 12.2213 9.99801 12.1606C9.99537 12.0998 10.0007 12.0443 9.97423 11.9756C9.91875 11.8515 9.86327 11.796 9.78137 11.6269C9.69683 11.4261 9.55152 11.2702 9.44055 11.0721C9.36129 10.9532 9.26618 10.8581 9.16315 10.7762C9.12087 10.7471 9.08917 10.7128 9.06804 10.6732C8.75364 10.3403 8.40226 10.0444 7.96369 9.82513C7.4987 9.60321 7.40888 9.55302 7.24243 9.37601C7.07335 9.31525 7.09184 9.38658 6.92275 9.32053C6.70611 9.23599 6.48683 9.13296 6.27811 9.04313C6.1011 8.96652 5.94522 8.88462 5.78142 8.85028C5.5093 8.79744 5.22396 8.60986 4.92542 8.5174C4.76426 8.46984 4.80125 8.39851 4.62688 8.28755C4.53177 8.31133 4.37325 8.26114 4.06414 8.06828C3.70747 7.84636 3.3693 7.58217 3.06811 7.27571C2.76693 6.9719 2.47895 6.60732 2.36007 6.12385C2.29666 5.87287 2.31779 5.6034 2.40234 5.36563C2.48688 5.12522 2.63219 4.92179 2.79335 4.75535L2.77221 4.79234L2.79863 4.75535C2.91488 4.60741 3.06019 4.4806 3.18964 4.36964C3.43006 4.17414 3.44327 4.22698 3.47234 4.24811L3.44592 4.27453L3.47498 4.24811C3.68369 4.07639 3.93468 3.93901 4.20152 3.83069C4.471 3.7303 4.74312 3.6484 5.02317 3.57443C5.26359 3.51895 5.49345 3.46876 5.72858 3.43441C5.76557 3.39214 5.79463 3.34987 6.00863 3.33666C6.52382 3.20193 7.03107 3.14909 7.54362 3.09889C7.60174 3.08304 7.65194 3.07776 7.69421 3.08832C7.84744 3.07247 8.00068 3.05398 8.15391 3.03813C8.51058 3.00907 8.75364 3.01435 8.88838 3.12531C8.97028 3.0487 8.99934 2.99586 9.27147 3.00114C9.53302 3.00114 9.89233 2.98793 10.0297 3.05134C10.1275 3.09625 10.1671 3.09889 10.2437 3.06983C10.4762 2.99058 10.5845 3.06983 10.7219 3.11474C10.6928 3.12003 10.5977 3.10153 10.6162 3.12267L10.7219 3.11474C10.9306 3.09889 11.1499 3.12267 11.3718 3.15173C11.5938 3.18872 11.813 3.23627 12.0323 3.26269C12.0746 3.26005 12.1116 3.25741 12.1829 3.27854C12.1856 3.27854 12.1724 3.28382 12.1644 3.28382L12.0429 3.26269L11.8949 3.29439C12.0244 3.32609 12.1222 3.33666 12.2305 3.3393C12.3969 3.34459 12.5924 3.3578 12.8091 3.42384C12.8408 3.43705 12.7774 3.44498 12.8804 3.46347L12.817 3.42384C12.8778 3.41856 12.9597 3.43441 13.0284 3.46611C13.1367 3.51631 13.1789 3.57179 13.3665 3.5533C13.4801 3.54537 13.7417 3.62199 13.9451 3.70388C14.0244 3.73823 14.0666 3.77257 13.9927 3.76729C13.9583 3.76201 13.8791 3.74087 13.8209 3.72502C13.7813 3.70124 13.7364 3.69067 13.6888 3.68539H13.6598L13.6968 3.69067C13.7364 3.6986 13.7734 3.71181 13.8077 3.72502C14.1459 3.8941 14.418 3.89674 14.7245 3.99978C14.9253 4.07375 15.1261 4.16093 15.3216 4.26132C15.4141 4.31152 15.5382 4.37756 15.5197 4.40927C15.4827 4.47796 15.6333 4.55985 15.8024 4.6444C15.9055 4.69987 15.9979 4.74214 16.1221 4.88481C16.3203 5.11993 16.492 5.39469 16.5686 5.71172C16.6479 6.0261 16.6029 6.36955 16.4603 6.65223C16.2701 7.01945 15.9979 7.29156 15.6862 7.52669C15.3348 7.7856 14.957 7.9811 14.5739 8.1581C14.1882 8.33247 13.784 8.47777 13.3586 8.57552C12.7985 8.70497 12.2226 8.79744 11.644 8.8265C11.4802 8.83442 11.3348 8.83971 11.2054 8.81593C11.0522 8.78687 10.9703 8.76045 11.1314 8.72347C11.3666 8.67063 11.6202 8.62836 11.9953 8.58609C12.8011 8.49362 13.5964 8.30076 14.3467 7.99431C14.7219 7.83579 15.0917 7.65879 15.422 7.43687C15.7496 7.21231 16.0534 6.93755 16.2278 6.59675C16.4471 6.1899 16.3969 5.68001 16.1327 5.30487C15.8711 4.92179 15.4722 4.63911 15.0495 4.41983C14.7509 4.25868 14.4286 4.14772 14.1036 4.03676C13.9425 3.97864 13.7787 3.9258 13.6122 3.87825C13.4484 3.83069 13.2846 3.77521 13.1155 3.73823C12.4524 3.55858 11.7708 3.4397 11.0891 3.3578C9.72325 3.194 8.33357 3.23363 6.97295 3.44498C6.28868 3.55858 5.61233 3.71709 4.9492 3.91788C4.51063 4.0579 4.06414 4.19792 3.67048 4.43569C3.27947 4.66553 2.91224 4.97727 2.75108 5.38412C2.66653 5.59547 2.65068 5.82796 2.6956 6.04724C2.74051 6.26915 2.84619 6.47522 2.98093 6.6628C3.25305 7.0353 3.62029 7.3444 4.0113 7.59802C5.17905 8.35624 6.56873 8.70761 7.84216 9.31525C8.6691 9.72738 9.40621 10.3271 9.94253 11.1012C10.1988 11.4763 10.3785 11.9254 10.4207 12.3983C10.4656 12.8712 10.3758 13.3573 10.1697 13.7827C10.1433 13.8382 10.1248 13.8963 10.1037 13.9544C9.97952 14.1948 9.83685 14.4379 9.6387 14.6017C9.51717 14.7126 9.43263 14.8209 9.32959 14.9266C8.89631 15.3282 8.40226 15.6795 7.89236 15.8935L7.91613 15.8724L7.88443 15.8962C7.62023 16.0943 7.18695 16.2608 6.96502 16.4378C7.00201 16.4246 7.04428 16.4034 7.07335 16.3955C7.11298 16.3849 7.09712 16.4008 7.04957 16.4193C7.01786 16.4325 6.99144 16.4325 6.96238 16.4404L6.71932 16.5434C6.71404 16.5355 6.7114 16.5276 6.7114 16.517L6.7431 16.4959L6.70875 16.5197C6.69818 16.5276 6.67705 16.5408 6.67969 16.5408C6.68762 16.5461 6.70611 16.5434 6.71932 16.5461C6.66384 16.5936 6.57137 16.6386 6.46041 16.6808C6.25962 16.7548 6.39436 16.6703 6.35473 16.6703C6.2649 16.6755 5.61233 16.8737 5.33493 16.9344C5.23189 16.9635 5.13678 16.9899 5.02053 17.0005C5.09451 17.0322 5.04959 17.0745 4.81974 17.0586C4.56611 17.0348 4.44987 17.0137 4.32569 17.0031C4.20416 16.9926 4.07471 16.9952 3.7973 16.9582C3.63085 16.9424 3.26626 16.842 3.11567 16.7257C2.74315 16.4563 2.34157 16.134 2.117 15.6663C2.06681 15.558 2.02189 15.4391 2.00604 15.3018C1.98755 15.167 2.01132 15.0085 2.08002 14.8791C2.22004 14.6175 2.44461 14.4933 2.63747 14.3877C3.02584 14.1922 3.43006 14.0363 3.84221 13.9121C4.00866 13.8593 4.18831 13.8144 4.32041 13.8117C4.42345 13.7932 4.52913 13.78 4.62424 13.743C4.7854 13.6796 4.99147 13.6347 5.17377 13.6136C5.82105 13.5396 6.48683 13.4366 7.12354 13.3996C7.25564 13.3917 7.37189 13.3811 7.4987 13.3573C7.85801 13.2913 8.21468 13.2226 8.57663 13.2094C8.72458 13.2041 8.86989 13.1618 9.00199 13.1248C9.25033 13.0535 9.49339 13.0086 9.7391 12.9663H9.74438C10.0773 12.9109 10.426 12.8131 10.7563 12.7206C11.0363 12.644 11.3877 12.5304 11.6175 12.3878C11.7153 12.3878 11.6466 12.4327 11.6202 12.4617C12.0376 12.3244 12.4445 12.1394 12.891 11.9624ZM14.4762 8.13433C14.4392 8.14753 14.4022 8.1581 14.3678 8.17131C14.3388 8.18188 14.3097 8.19773 14.2806 8.21094L14.3916 8.1766L14.4762 8.13433ZM15.2661 7.73276C15.2503 7.74333 15.2344 7.75389 15.2159 7.76446L15.2529 7.75389C15.2714 7.74333 15.2978 7.73012 15.3084 7.72219C15.3401 7.69577 15.3216 7.70106 15.2661 7.73276ZM11.7655 3.28647C11.7787 3.28911 11.7998 3.29439 11.8078 3.29439H11.8897L11.7655 3.28647ZM11.4167 3.22042L11.4537 3.2257L11.4405 3.21514L11.4167 3.22042ZM7.52776 3.16758L7.56475 3.15701C7.98218 3.13588 7.69685 3.1121 7.69421 3.08832C7.65986 3.09361 7.62816 3.09889 7.59646 3.10418L7.55683 3.15701L7.52776 3.16758ZM6.84878 3.28118C6.84614 3.28382 6.86727 3.28647 6.88048 3.28647C6.89897 3.28382 6.91747 3.27854 6.93596 3.27326C6.93596 3.26797 6.94653 3.26269 6.9386 3.26269C6.89105 3.26005 6.8567 3.26797 6.84878 3.28118ZM6.36265 3.38422L6.397 3.37365L6.45248 3.33402L6.38643 3.37365L6.36265 3.38422ZM5.74707 3.43177L5.79463 3.46876C5.91088 3.43177 5.84747 3.42384 5.87125 3.40007L5.74707 3.43177ZM4.78011 3.71709C4.77219 3.73294 4.79332 3.73294 4.83559 3.71445C4.8673 3.70124 4.899 3.68275 4.90957 3.66954C4.92542 3.65369 4.89636 3.65369 4.85409 3.67218C4.82503 3.68803 4.80653 3.70388 4.78011 3.71709ZM4.17246 3.93901C4.17246 3.94958 4.20152 3.9443 4.24908 3.9258C4.26229 3.92052 4.27021 3.90995 4.28078 3.90467C4.2755 3.89146 4.24908 3.89674 4.20152 3.91788C4.18567 3.92316 4.17246 3.93373 4.17246 3.93901ZM2.47895 5.47923L2.47367 5.41583V5.38412L2.46839 5.42639C2.46839 5.44489 2.44461 5.55585 2.47895 5.47923ZM2.50273 6.2533L2.50802 6.24009L2.49216 6.2216L2.50273 6.2533ZM3.81843 7.73804L3.78673 7.72219L3.75767 7.70898L3.79466 7.73012L3.81843 7.73804ZM4.26229 8.01808C4.24908 8.00751 4.23587 7.99431 4.22266 7.98902C4.17774 7.96524 4.16189 7.96524 4.18303 7.98638C4.18567 7.98902 4.21209 8.00223 4.22794 8.0128L4.26229 8.01808ZM5.44061 8.64157L5.42211 8.62572C5.27416 8.52532 5.09979 8.46984 4.92806 8.4038L4.90164 8.38266L4.92014 8.40116C5.0628 8.50947 5.25303 8.53589 5.4089 8.62307L5.44061 8.64157ZM8.49737 10.018L8.46302 9.99421L8.48944 10.018H8.49737ZM8.81705 10.3297L8.81441 10.3139L8.79327 10.306L8.81705 10.3297ZM9.14201 10.7419C9.12352 10.7075 9.09974 10.6864 9.07332 10.6732L9.14201 10.7419ZM9.78137 11.3495C9.78665 11.3469 9.77344 11.3152 9.76816 11.294C9.74966 11.2755 9.72324 11.2385 9.71796 11.2412C9.71268 11.2438 9.72853 11.2835 9.73645 11.3099C9.75231 11.3231 9.77608 11.3521 9.78137 11.3495ZM9.74702 13.9623L9.76023 13.9597L9.76287 13.9385L9.74702 13.9623ZM9.45905 14.356C9.46433 14.3454 9.47754 14.3322 9.47754 14.3295C9.48018 14.3163 9.48018 14.3058 9.48018 14.2952C9.48547 14.2846 9.49075 14.2767 9.49604 14.2661C9.49075 14.2793 9.48018 14.2899 9.47226 14.3005L9.45905 14.356ZM8.82233 14.9108C8.94122 14.8394 8.98085 14.8104 9.02312 14.7787C9.06275 14.747 9.13408 14.6809 9.13408 14.6703C9.13937 14.6466 9.09181 14.6783 9.04426 14.7153C9.00463 14.747 8.96764 14.7919 8.82233 14.9108ZM8.29922 15.3123C8.29658 15.3203 8.33357 15.307 8.35206 15.3018C8.38905 15.2806 8.41018 15.2595 8.40226 15.2542C8.39697 15.2489 8.37584 15.2568 8.35999 15.2568C8.33885 15.2753 8.30186 15.3044 8.29922 15.3123ZM7.8131 15.5924L7.83952 15.5765H7.82367L7.8131 15.5924ZM7.5991 15.7667L7.61231 15.7694L7.62552 15.7535L7.5991 15.7667ZM5.82633 16.517C5.82898 16.517 5.8554 16.5117 5.87125 16.5065C5.88182 16.4985 5.90559 16.488 5.90559 16.4853C5.90559 16.4721 5.87653 16.48 5.8369 16.5012C5.82633 16.5091 5.82369 16.517 5.82633 16.517ZM4.67708 16.7442L4.68764 16.7522L4.70878 16.7442H4.67708ZM3.83693 16.6465L3.86599 16.6623L3.89505 16.6782L3.87656 16.6623L3.83693 16.6465ZM3.73389 16.7944L3.74182 16.805L3.76295 16.8023L3.73389 16.7944ZM2.73523 16.0177C2.73258 16.0177 2.75108 16.0441 2.75636 16.0494C2.77486 16.0653 2.79599 16.0758 2.81713 16.089C2.80392 16.0705 2.78806 16.0521 2.77486 16.0336C2.76165 16.0256 2.74579 16.0204 2.73523 16.0177ZM2.44197 15.4946C2.45518 15.5025 2.46839 15.5105 2.47895 15.5131C2.48952 15.5158 2.50009 15.5131 2.50802 15.5131C2.48952 15.4946 2.47367 15.4682 2.46046 15.4576C2.44461 15.4471 2.42083 15.4233 2.44197 15.4946ZM2.44725 14.9689C2.42083 14.9847 2.40234 15.0112 2.39969 15.0429C2.4129 15.0191 2.42876 14.9927 2.44725 14.9689ZM2.44461 14.8421C2.37592 14.8183 2.30723 14.9662 2.28345 15.0534C2.34157 15.0217 2.37328 14.9372 2.44461 14.8421ZM2.57935 14.8024C2.56614 14.7919 2.55029 14.7813 2.49216 14.8183C2.49745 14.8368 2.52387 14.8341 2.57935 14.8024ZM2.9096 14.496L2.87525 14.5171C2.82505 14.5462 2.76429 14.5779 2.72994 14.6069C2.70088 14.6307 2.73787 14.6228 2.77486 14.599C2.81713 14.57 2.84619 14.5435 2.88053 14.5171L2.9096 14.496ZM3.15266 14.4141L3.1236 14.4326C3.11303 14.4458 3.02584 14.4907 3.09718 14.4722L3.13152 14.4299L3.15266 14.4141ZM5.63611 13.6611L5.59384 13.6717L5.63347 13.6691L5.63611 13.6611ZM10.5396 12.998C10.5238 13.0007 10.5053 13.0033 10.4973 13.0086L10.426 13.0429L10.5396 12.998ZM11.6307 12.4855L11.6228 12.4617C11.6096 12.4697 11.5911 12.4802 11.5911 12.4802C11.599 12.4829 11.6149 12.4829 11.6307 12.4855ZM12.3705 12.2821L12.4101 12.2609L12.3705 12.2715V12.2821Z" fill="#262626"/>
<path d="M26.6835 13.3207C26.591 13.3656 26.2845 13.3207 26.2925 13.3709C25.7746 13.252 25.2357 13.0856 24.8579 12.6021C24.7575 12.4779 24.5989 12.3009 24.5012 12.1556C24.3612 11.9548 24.3559 11.762 24.3849 11.6405C24.3797 11.4767 24.3902 11.3472 24.3797 11.1623C24.3638 10.8083 24.4563 10.3829 24.5461 9.94173C24.5857 10.0395 24.4801 10.375 24.5118 10.4648C24.5857 10.2614 24.6069 10.0659 24.6491 9.87304C24.6729 9.84927 24.6914 9.85983 24.7284 9.73302C24.7337 9.71717 24.7363 9.68811 24.731 9.68811C24.7073 9.68283 24.6782 9.79114 24.6491 9.87304C24.6307 9.55866 24.8341 9.10689 24.9715 8.7291C24.9715 8.71854 24.9715 8.70269 24.9741 8.6974C24.99 8.66042 24.99 8.67098 24.9741 8.72646C24.9768 8.79779 24.9583 8.91404 25.0032 8.9246C25.0587 8.68155 25.1194 8.46227 25.1828 8.243C25.307 8.04486 25.2225 8.29848 25.2938 8.23243C25.4814 7.78595 25.5289 7.36853 25.9384 6.90092C25.9305 6.95376 25.9199 7.01188 25.9147 7.07264C25.8829 7.14397 25.801 7.24965 25.809 7.28928C25.8618 7.20738 25.8935 7.13341 25.9199 7.06472C25.9648 6.98282 26.0124 6.90092 26.0573 6.81902C26.1947 6.57068 26.089 6.55483 26.2264 6.37518C26.414 6.14006 26.4985 5.9974 26.5884 5.82567C26.7152 5.77019 26.6201 5.96305 26.6676 5.98419L26.6518 6.01853L26.6703 5.98154C26.8103 5.7834 26.8182 5.73056 26.8314 5.66188C26.8446 5.61696 26.8922 5.54035 26.9662 5.45052C26.9846 5.42675 27.0058 5.40561 27.0269 5.38184C27.0507 5.40033 27.0745 5.42146 27.0983 5.44524C27.1485 5.4928 27.196 5.54035 27.2409 5.60111C27.4153 5.89172 27.2251 5.65131 27.1405 5.6064C27.1062 5.57998 27.0428 5.54035 27.0956 5.6064C27.1907 5.69622 27.2568 5.79133 27.3096 5.88379C27.3598 5.97626 27.3862 6.04495 27.4153 6.11628C27.4681 6.25102 27.5051 6.35669 27.5421 6.45973L27.5474 6.41481L27.5421 6.46765C27.5342 6.71335 27.4813 6.9247 27.4206 7.05943C27.4285 6.98018 27.4761 6.81374 27.4391 6.81902C27.4391 6.81902 27.4206 6.99074 27.4206 7.06472C27.3809 7.30249 27.3915 7.51384 27.299 7.78067C27.2964 7.94975 27.2383 8.08449 27.1854 8.2245L27.1934 8.3064L27.1432 8.37773C27.1273 8.50454 27.1141 8.634 27.093 8.76081C27.0718 8.88498 27.0428 9.00122 26.9846 9.09897C26.8314 9.51375 26.8341 9.34731 26.8314 9.22314C26.8235 9.23635 26.8103 9.26277 26.8076 9.25748C26.8024 9.24427 26.8156 9.20993 26.8393 9.17294C26.8895 8.94838 26.9477 8.72646 26.9873 8.49926C26.9054 8.71061 26.8737 8.92725 26.7865 9.16237C26.6861 9.40279 26.731 9.4292 26.7469 9.48468C26.7812 9.59564 26.7205 9.79114 26.5725 10.0474L26.5514 10.0818L26.5725 10.0527C26.5778 10.1742 26.517 10.3116 26.4087 10.4648C26.3136 10.6048 26.2898 10.5652 26.2502 10.515C26.2079 10.7713 26.3268 10.6471 26.3638 10.6841C26.266 10.9219 26.1762 11.0513 26.0996 11.1306L26.1075 11.0989L26.0917 11.1411C25.7773 11.8095 25.4285 12.4621 24.8552 13.0407C24.7284 13.1701 24.591 13.3075 24.4563 13.4581C24.3163 13.6007 24.1709 13.7434 24.0283 13.8808C23.6901 14.1635 23.6293 14.1925 23.5527 14.137C23.521 14.2348 23.4048 14.3484 23.2489 14.4699C23.0957 14.5888 22.8843 14.713 22.6465 14.7949C22.4907 14.8477 22.3163 14.8794 22.1366 14.8636C21.9596 14.8451 21.772 14.7711 21.6373 14.6469C21.3652 14.396 21.2648 14.0393 21.2859 13.7064C21.2965 13.5558 21.3308 13.4079 21.3942 13.2652C21.455 13.1331 21.5343 13.009 21.6241 12.9006C21.7139 12.7897 21.8117 12.6919 21.9147 12.6048C21.9675 12.5598 22.0177 12.5176 22.0706 12.4779L22.1498 12.4198L22.2582 12.3432C22.1868 12.404 22.1604 12.433 22.1366 12.4647C22.1129 12.4938 22.1076 12.5123 22.1419 12.507C22.2132 12.4462 22.2317 12.4225 22.245 12.396C22.2529 12.3749 22.237 12.3696 22.2687 12.3353C22.3876 12.2428 22.5091 12.1503 22.6465 12.0579C22.7152 12.0103 22.7813 11.9681 22.8394 11.9284C22.8817 12.1054 22.9107 12.2639 22.9134 12.3432C22.916 12.4277 22.8975 12.441 22.8605 12.3881C22.8341 12.3511 22.813 12.3485 22.8156 12.4991C22.8605 12.7421 22.8764 12.6787 22.9054 12.7236C22.9134 12.7368 22.9187 12.7553 22.9239 12.7765C22.9292 12.7897 22.9345 12.8055 22.9398 12.8214C22.9504 12.8557 22.9504 12.8954 22.953 12.9456C22.9556 13.0433 22.9424 13.1701 22.9054 13.326C22.8288 13.6219 22.7364 13.6641 22.6624 13.8385C22.5858 13.9944 22.5831 14.1053 22.4167 14.3008C22.2291 14.5175 22.0283 14.7315 21.743 14.853C21.566 14.9243 21.4101 15.0089 21.2252 15.0538C21.1538 15.0776 21.0825 15.0828 21.0191 15.067C20.8447 15.0643 20.6571 15.0036 20.5092 14.9032C20.3639 14.8002 20.2529 14.6628 20.1763 14.5175C20.0204 14.2295 19.9834 13.8781 20.0283 13.5638C20.0706 13.2758 20.1393 13.1041 20.1948 12.9799C20.2529 12.8557 20.3057 12.7791 20.3744 12.6999L20.7628 12.8452C20.7443 12.8716 20.7232 12.9006 20.6994 12.9323C20.6466 13.1331 20.7205 13.1014 20.6518 13.3075C20.562 13.569 20.4273 13.8253 20.282 14.0551C20.1552 14.2533 20.0072 14.4092 19.883 14.573C19.7773 14.713 19.6083 14.8319 19.4154 14.9138L19.2648 14.9666C19.2384 14.9745 19.212 14.9798 19.1855 14.9851L19.0587 15.0115C18.9768 15.0194 18.8976 15.0274 18.813 15.0326C18.7338 15.0353 18.6228 15.0855 18.6228 14.9745C18.5647 14.816 18.5568 14.7156 18.5541 14.6205C18.5541 14.5967 18.5515 14.5677 18.5541 14.5492L18.562 14.4963C18.5673 14.4567 18.5673 14.4118 18.57 14.351C18.5013 14.2691 18.4458 14.0684 18.5171 13.6377C18.5832 13.2784 18.7232 12.9323 18.9319 12.6285L19.3969 12.861C19.2939 13.1437 19.1697 13.4211 19.027 13.6853C18.9557 13.8174 18.8791 13.9495 18.7972 14.0763L18.7364 14.1714L18.6598 14.285C18.5779 14.4039 18.4934 14.5096 18.4062 14.6232C18.171 14.9085 17.9517 15.1278 17.706 15.3867C17.7008 15.1383 17.6955 14.8873 17.6902 14.6364C17.6849 14.396 17.7008 14.1318 17.7298 13.8834V13.9548V13.8781C17.7351 13.7804 17.743 13.6826 17.7536 13.5849L17.7695 13.4396L17.7774 13.3683C17.78 13.3524 17.78 13.3498 17.7774 13.3524L17.7747 13.3498C17.751 13.3524 17.7985 13.3207 17.8461 13.2731H17.854L17.8461 13.2705C17.8381 13.2652 17.8302 13.2652 17.8223 13.2679C17.8196 13.2652 17.7985 13.2864 17.7879 13.2969C17.7774 13.3075 17.7694 13.3181 17.7642 13.3233C17.7483 13.3418 17.7668 13.3313 17.7404 13.3524C17.5528 13.5083 17.3758 13.6932 17.2331 13.8993C17.0931 14.1001 16.9742 14.3061 16.895 14.536C16.9029 14.5571 16.9108 14.5782 16.9135 14.6073L16.4855 14.4224C16.496 14.3801 16.5304 14.3246 16.6123 14.2242C16.7312 13.997 16.8289 13.7645 16.9055 13.5268C16.924 13.4766 16.9293 13.4713 16.9399 13.429C16.9504 13.3947 16.961 13.3498 16.9663 13.3075L16.9478 13.3154C16.9214 13.3471 16.9161 13.3524 16.9135 13.3339C16.8712 13.3683 16.8368 13.3973 16.7946 13.4475C16.5462 13.7276 16.393 13.9257 16.2213 13.9891C16.2397 14.108 16.2609 14.1555 16.1314 14.4092C16.068 14.5386 16.0125 14.6998 15.9676 14.8424L15.6347 14.6892C15.7087 14.573 15.7695 14.4699 15.825 14.4197C15.9095 14.3431 15.9201 14.2982 15.9174 14.2137C15.9042 13.96 15.9888 13.8702 16.0469 13.7249C16.0522 13.7566 16.0205 13.8544 16.0442 13.8359C16.0469 13.7989 16.0469 13.7619 16.0469 13.7223C16.0442 13.6007 16.0416 13.4951 16.039 13.3868C16.0337 13.3286 16.031 13.2731 16.0257 13.215L16.0152 13.1278C16.0099 13.1014 16.0099 13.0486 15.9861 13.0882C15.9491 13.1252 15.9095 13.1701 15.8752 13.215C15.8646 13.2414 15.8619 13.2626 15.8329 13.2811C15.8329 13.2811 15.8302 13.2731 15.8329 13.2679L15.8725 13.215C15.8831 13.178 15.8989 13.1305 15.9201 13.0776C15.8884 13.1041 15.8567 13.1384 15.8302 13.1728C15.8012 13.2097 15.7906 13.2335 15.7536 13.289C15.6559 13.4475 15.5264 13.6192 15.3547 13.8015C15.3256 13.8279 15.352 13.7619 15.2834 13.8517L15.352 13.8068C15.3256 13.8676 15.2675 13.9389 15.2015 13.9944C15.0984 14.0763 15.0244 14.0948 14.9452 14.2823C14.8976 14.3986 14.6995 14.6258 14.5251 14.7922C14.4564 14.8583 14.4062 14.89 14.4459 14.8187C14.4643 14.7843 14.5251 14.7156 14.5674 14.6628C14.6097 14.6311 14.6414 14.5914 14.6678 14.5492L14.6836 14.5201L14.6598 14.5545C14.6334 14.5888 14.6044 14.6205 14.5727 14.6522C14.4802 14.7315 14.4062 14.8107 14.3375 14.89C14.2768 14.964 14.1737 15.0855 14.0416 15.1119C13.9465 15.1357 13.8435 15.1119 13.7616 15.0511C13.6797 14.993 13.6163 14.8821 13.5899 14.8054C13.5423 14.676 13.5264 14.528 13.537 14.3986C13.5423 14.2744 13.5529 14.1529 13.5714 14.0314C13.5872 13.9151 13.6163 13.7593 13.6506 13.7645C13.7272 13.7751 13.7589 13.5875 13.7933 13.3815C13.8171 13.252 13.8276 13.1437 13.9254 12.9614C14.0839 12.6734 14.2636 12.3934 14.4749 12.1371L14.718 12.2957C14.5727 12.6048 14.4062 12.9033 14.2054 13.1701C13.9492 13.5136 13.6876 13.8306 13.3811 14.1291C13.1936 14.3088 13.0192 14.4699 12.792 14.6337C12.6704 14.7103 12.5436 14.7711 12.3825 14.7975C12.3032 14.8081 12.2134 14.8107 12.1156 14.779C12.0179 14.7473 11.9281 14.6707 11.8752 14.5862C11.7801 14.4197 11.8012 14.2586 11.8144 14.1423C11.8356 14.0261 11.8514 13.9125 11.8858 13.7989C11.9439 13.5717 12.0311 13.3524 12.1421 13.1437C12.4564 12.5572 12.9267 12.0447 13.5053 11.7012C13.6718 11.6061 13.8223 11.5321 13.9729 11.4978C14.1499 11.4608 14.2477 11.4529 14.0865 11.5559C13.8567 11.7012 13.611 11.8545 13.2807 12.116C12.9267 12.3987 12.6335 12.7527 12.4142 13.1463C12.3085 13.3445 12.2187 13.5532 12.1526 13.7672C12.1209 13.8755 12.0945 13.9838 12.076 14.0948C12.0522 14.2057 12.0364 14.3167 12.0654 14.4092C12.0707 14.4277 12.0786 14.4461 12.0892 14.462C12.1896 14.6284 12.4432 14.5703 12.6176 14.4699C12.7946 14.3669 12.9637 14.2057 13.1249 14.0631C13.4472 13.7645 13.7352 13.4317 13.9888 13.0776C14.1869 12.7976 14.3613 12.5017 14.5066 12.19L14.6598 12.2877C14.1949 12.8399 13.8937 13.5321 13.8065 14.2506C13.788 14.4065 13.7695 14.5545 13.8065 14.6866C13.825 14.7579 13.8488 14.8134 13.8831 14.8504C13.9175 14.8926 13.9729 14.9138 14.0258 14.9032C14.0998 14.89 14.1499 14.8345 14.2266 14.7473L14.4432 14.5016L14.8765 14.0102L15.7695 12.9958C15.8619 12.8874 15.9544 12.787 16.0416 12.6972L16.1076 12.6259L16.142 12.5915L16.1578 12.573C16.1631 12.5704 16.1631 12.5863 16.1658 12.5915C16.1816 12.6576 16.1975 12.7236 16.2107 12.787C16.2371 12.9165 16.2582 13.0459 16.2688 13.1833C16.2741 13.252 16.2741 13.3181 16.2767 13.3841C16.2741 13.4396 16.2741 13.4977 16.2688 13.5532C16.2397 14.0023 16.0971 14.4435 15.854 14.8213L15.7298 14.7632C15.8567 14.3563 16.0522 13.9732 16.3058 13.6324C16.3692 13.5479 16.4353 13.466 16.5066 13.3841L16.6149 13.2652L16.7496 13.1331C16.9372 12.9588 17.1222 12.8187 17.3256 12.6761C17.3203 12.8954 17.2939 13.1199 17.2516 13.3445C17.1935 13.6166 17.1327 13.7962 17.0482 14.0023C16.9636 14.2031 16.8606 14.396 16.7417 14.5756L16.6413 14.5307C16.7259 14.182 16.8844 13.8517 17.0984 13.5664C17.249 13.3709 17.4101 13.2018 17.6189 13.0407C17.7298 12.9561 17.8487 12.8821 17.965 12.8161C18.0257 12.7844 18.0838 12.7527 18.1473 12.7236L18.2424 12.6787C18.2635 12.6655 18.2609 12.6787 18.2609 12.6866L18.2635 12.7157C18.1684 13.0354 18.0838 13.4079 18.0601 13.6562L18.0389 13.8623L18.0284 14.0314C18.0231 14.137 18.0231 14.2401 18.0257 14.3405L18.0336 14.5043C18.134 14.396 18.2265 14.2876 18.3111 14.174C18.356 14.1133 18.3877 14.071 18.4405 13.9944C18.4934 13.9151 18.5462 13.8359 18.5937 13.754C18.7919 13.429 18.9557 13.0856 19.0772 12.7289L19.2225 12.8003C19.1063 12.9799 19.0165 13.178 18.9557 13.3815C18.8606 13.7064 18.8315 14.0525 18.8764 14.388C18.8896 14.4831 18.9002 14.528 18.9134 14.5835L18.9214 14.639C18.924 14.6443 18.924 14.6549 18.9293 14.6575L18.9504 14.6549L19.035 14.6469L19.1221 14.6284C19.1618 14.6232 19.1988 14.602 19.2357 14.5888C19.3124 14.5624 19.3811 14.5175 19.4497 14.4752C19.7219 14.2903 19.9227 14.005 20.0785 13.7038C20.2371 13.4 20.3507 13.0724 20.4431 12.7421L20.6783 12.8293C20.6149 12.9799 20.5514 13.1252 20.5039 13.2731C20.4273 13.503 20.3771 13.7381 20.3956 13.9574C20.4167 14.174 20.5065 14.3933 20.6624 14.528C20.9636 14.8187 21.5026 14.6047 21.8407 14.3167C22.1129 14.0763 22.3295 13.7645 22.4484 13.4158C22.5091 13.2414 22.5488 13.0618 22.5567 12.8795C22.5593 12.8557 22.5593 12.8346 22.5593 12.8108V12.7685C22.5593 12.7553 22.5593 12.7395 22.5567 12.7236C22.5541 12.6972 22.5514 12.6576 22.5382 12.6417L22.4722 12.684C22.4457 12.7025 22.4484 12.6972 22.3586 12.7633C22.311 12.8003 22.2687 12.8452 22.2291 12.8901C22.031 13.0671 21.883 13.2731 21.7668 13.4634C21.6954 13.5849 21.6981 13.717 21.706 13.8438C21.7166 14.1053 21.8539 14.3537 22.0521 14.4277C22.2502 14.5148 22.5197 14.4409 22.7786 14.3273L22.7549 14.3484L22.7892 14.3246C23.056 14.1159 23.4814 13.8385 23.6584 13.5928C23.6241 13.6166 23.5871 13.6483 23.5607 13.6641C23.5237 13.6853 23.5342 13.6668 23.5791 13.6351C23.6082 13.614 23.6346 13.6034 23.661 13.5902C23.735 13.5347 23.8011 13.466 23.8698 13.4052C23.8777 13.4105 23.883 13.4185 23.8856 13.4264L23.8618 13.4607L23.8883 13.4264C23.8962 13.4158 23.9147 13.3947 23.9094 13.3947C23.9015 13.3947 23.883 13.4 23.8698 13.4052C23.9094 13.3392 23.9834 13.2599 24.0758 13.178C24.2317 13.0169 24.1419 13.1595 24.1789 13.1411C24.2211 13.1199 24.3717 12.9799 24.5303 12.8135C24.6782 12.6391 24.8499 12.4462 24.9213 12.3168C24.9794 12.2217 25.0322 12.1345 25.1036 12.0367C25.0243 12.0684 25.0375 12.0156 25.1908 11.8386C25.5342 11.445 25.5078 11.4661 25.7376 10.9483C25.8037 10.7924 25.9384 10.4437 26.0362 10.2852C26.2925 9.89418 26.451 9.41071 26.6042 8.93517C26.7495 8.49662 26.8658 8.04486 26.9714 7.59309C27.0639 7.13869 27.1934 6.679 27.1458 6.26687C27.1352 6.18497 27.1167 6.10571 27.0956 6.03174C27.085 5.99211 27.0798 5.97362 27.0718 5.92871C27.0586 5.90493 27.0454 5.88115 27.0243 5.86266C27.0058 5.85473 26.9899 5.897 26.9767 5.91814L26.9477 5.9789C26.9397 5.99211 26.945 5.98683 26.9292 6.01325L26.8843 6.07665C26.8235 6.16383 26.7548 6.24573 26.6914 6.32235C26.2396 6.86922 25.8856 7.52441 25.5553 8.14525C25.4893 8.2747 25.4312 8.39094 25.3836 8.52832C25.2436 8.90875 25.1247 9.29447 24.9662 9.66433C24.9028 9.81492 24.8711 9.98136 24.8447 10.1319C24.7971 10.4146 24.7284 10.6841 24.6676 10.9509L24.665 10.9562C24.5831 11.3155 24.5725 11.7118 24.7152 12.042C24.8235 12.33 25.1009 12.6338 25.3651 12.7474C25.4259 12.8293 25.3466 12.7976 25.3044 12.7923C25.6769 13.0776 26.163 13.215 26.6835 13.3207ZM11.936 14.5624L11.9333 14.5571C11.9043 14.5043 11.8911 14.4461 11.8858 14.3933C11.8805 14.3484 11.8752 14.3035 11.8752 14.2639C11.8699 14.3141 11.8673 14.3669 11.8779 14.425C11.8884 14.4699 11.9096 14.5175 11.936 14.5597V14.5624ZM12.9637 14.4356C12.9452 14.4488 12.932 14.4646 12.9135 14.4805L12.9505 14.462C12.969 14.4461 12.998 14.4277 13.006 14.4171C13.0403 14.3827 13.0218 14.3907 12.9637 14.4356ZM15.9967 12.9931C15.9888 13.001 15.9808 13.0063 15.9756 13.0142L15.9333 13.0829L15.9967 12.9931ZM16.0892 13.1041L16.0839 13.075L16.0786 13.0988L16.0892 13.1041ZM17.0456 13.1569L17.0218 13.1833C16.8448 13.2916 16.9531 13.2837 16.9267 13.3366C16.9372 13.3286 16.9478 13.3181 16.9584 13.3049C16.9769 13.2679 17.0006 13.2282 17.0244 13.186L17.0456 13.1569ZM17.0429 13.4898C17.0455 13.4924 17.0561 13.4766 17.0561 13.4686C17.0588 13.4554 17.0588 13.4449 17.0588 13.4343C17.0535 13.4343 17.0482 13.4317 17.0456 13.4369C17.0323 13.466 17.0323 13.4845 17.0429 13.4898ZM16.8923 13.9653L16.9029 13.9283L16.9002 13.8544L16.895 13.9389L16.8923 13.9653ZM16.9002 14.5545L16.8448 14.5782C16.8448 14.5835 16.8421 14.5888 16.8421 14.5915L16.57 14.4726C16.6228 14.3722 16.5726 14.4118 16.5726 14.3775L16.5304 14.4461L16.8897 14.602L16.9002 14.5545ZM17.3573 13.6404C17.3573 13.6219 17.3362 13.6351 17.3124 13.6721C17.2913 13.7011 17.278 13.7355 17.2754 13.7513C17.2728 13.7751 17.2965 13.754 17.3203 13.717C17.3362 13.6906 17.3441 13.6668 17.3573 13.6404ZM17.7562 13.2414C17.7562 13.2282 17.7457 13.2282 17.7272 13.2441C17.7219 13.2494 17.7219 13.2573 17.7193 13.2626C17.7245 13.2731 17.7325 13.2705 17.7483 13.2599C17.751 13.2547 17.7562 13.2441 17.7562 13.2414ZM17.8091 15.0538C17.8012 15.0459 17.7906 15.0353 17.7827 15.0247L17.7721 14.9957L17.78 15.0459C17.7906 15.0511 17.7985 15.2123 17.8091 15.0538ZM18.533 14.2903L18.5171 14.2982L18.5013 14.3325L18.533 14.2903ZM18.7708 13.2388L18.7787 13.1992L18.784 13.1648L18.7708 13.2097V13.2388ZM18.636 13.8306C18.6413 13.8121 18.6466 13.791 18.6492 13.7751C18.6545 13.717 18.6492 13.7011 18.636 13.7328C18.6334 13.7381 18.6334 13.7725 18.6307 13.7936L18.636 13.8306ZM19.4445 14.8081L19.4154 14.816C19.3599 14.8319 19.3044 14.8451 19.2516 14.8609C19.2252 14.8715 19.1961 14.8741 19.1697 14.8794L19.0587 14.9032C18.9848 14.9138 18.9055 14.919 18.8262 14.9296L18.7655 14.9375C18.747 14.9375 18.7179 14.9534 18.7179 14.9243L18.6809 14.816L18.673 14.7552L18.6783 14.8028C18.6492 15.0406 18.887 14.9402 19.035 14.9375C19.0746 14.9323 19.1169 14.9164 19.1591 14.9085C19.1908 14.9005 19.2173 14.8953 19.2437 14.8847C19.2965 14.8636 19.3493 14.8424 19.4048 14.8266L19.4445 14.8081ZM20.1895 14.2744L20.171 14.2242L20.1789 14.2691L20.1895 14.2744ZM20.4722 14.7843L20.4643 14.7658L20.4378 14.7526L20.4722 14.7843ZM21.1776 15.0511C21.1221 15.0485 21.0772 15.0538 21.0323 15.0617C21.0825 15.0617 21.13 15.0564 21.1776 15.0511ZM22.1102 14.4277C22.1076 14.4224 22.0706 14.4461 22.0494 14.4567C22.031 14.4805 21.994 14.5201 21.994 14.5254C21.9966 14.5307 22.0415 14.5016 22.0679 14.4858C22.0838 14.4673 22.1129 14.4329 22.1102 14.4277ZM21.8671 12.7976L21.8804 12.795L21.8909 12.7738L21.8671 12.7976ZM21.5131 13.2731C21.5184 13.2599 21.5263 13.2388 21.529 13.2362C21.529 13.2203 21.5263 13.2071 21.5263 13.1939L21.5422 13.1543L21.521 13.2018L21.5131 13.2731ZM21.4682 14.3167C21.4101 14.145 21.4127 14.0816 21.4022 14.0155C21.3916 13.9521 21.381 13.8306 21.3757 13.82C21.3625 13.7936 21.352 13.8676 21.3572 13.9468C21.3705 14.0102 21.3625 14.0895 21.4682 14.3167ZM22.1683 14.7896C22.1763 14.7843 22.1287 14.7737 22.1049 14.7632C22.0521 14.7552 22.0125 14.7447 22.0151 14.7579C22.0151 14.7658 22.0415 14.779 22.0574 14.7896C22.0996 14.7922 22.1604 14.7949 22.1683 14.7896ZM22.8473 14.6284L22.813 14.6443H22.8341L22.8473 14.6284ZM23.093 14.4224H23.0772L23.0613 14.4435L23.093 14.4224ZM24.739 12.9799C24.7363 12.9799 24.7152 13.0063 24.702 13.0169C24.6941 13.0301 24.6782 13.0512 24.6782 13.0539C24.6835 13.0644 24.7099 13.0433 24.7363 12.9984C24.7443 12.9878 24.7443 12.9773 24.739 12.9799ZM25.5263 11.8862L25.5131 11.8914L25.5078 11.9152L25.5263 11.8862ZM26.023 11.0434L25.9992 11.0725L25.9754 11.1015L25.9966 11.0804L26.023 11.0434ZM25.9041 10.9034L25.8909 10.9113L25.8882 10.9351L25.9041 10.9034ZM26.6518 9.68547C26.6518 9.68283 26.6333 9.71717 26.6306 9.7251L26.6121 9.80699L26.6544 9.73566C26.6544 9.71717 26.6544 9.69604 26.6518 9.68547ZM26.9503 9.02235C26.9529 9.03821 26.9556 9.05934 26.9609 9.07255C26.9662 9.08576 26.9741 9.0884 26.9794 9.09633C26.982 9.06463 26.9899 9.02235 26.9873 9.00386C26.9873 8.9748 26.9873 8.93253 26.9503 9.02235ZM27.1802 8.2245C27.159 8.26413 27.1458 8.3064 27.1432 8.3566L27.1802 8.2245ZM27.1273 8.08449C27.0586 8.10826 27.056 8.29055 27.0269 8.40415C27.0824 8.35396 27.1115 8.22715 27.1273 8.08449ZM27.2171 7.94447C27.2013 7.94447 27.1828 7.95239 27.1537 8.02901C27.1696 8.04221 27.1907 8.01844 27.2171 7.94447ZM27.2224 7.41873L27.2198 7.46628C27.2145 7.53233 27.1986 7.60895 27.196 7.6565C27.1934 7.70141 27.2145 7.66178 27.2198 7.61159C27.2277 7.55347 27.2224 7.50855 27.2224 7.45836V7.41873ZM27.307 7.14662L27.3043 7.18624C27.3096 7.20474 27.2911 7.3157 27.3228 7.23644L27.3096 7.17832L27.307 7.14662ZM26.3057 6.6473L26.3294 6.60767L26.3004 6.64202L26.3057 6.6473ZM24.4193 11.7911C24.4167 11.7726 24.414 11.7488 24.4114 11.7409C24.4034 11.7118 24.3929 11.6801 24.3849 11.651C24.3955 11.6959 24.4061 11.7435 24.4193 11.7911ZM25.2832 12.8029L25.2991 12.7844C25.2859 12.7765 25.2647 12.7633 25.2647 12.7659C25.2647 12.7765 25.2753 12.7897 25.2832 12.8029ZM26.0071 13.252L26.0547 13.2626L26.0124 13.2441L26.0071 13.252Z" fill="#262626"/>
<path d="M19.8355 24.403C19.817 24.3422 19.8804 24.2471 19.8381 24.218C19.9702 24.0727 20.0469 23.8931 20.2265 23.7742C20.2741 23.7425 20.3058 23.6579 20.3243 23.5945C20.348 23.5074 20.4062 23.4836 20.4669 23.4809C20.5145 23.4466 20.5515 23.4202 20.5753 23.3541C20.6202 23.23 20.7259 23.1137 20.821 22.979C20.8474 23.045 20.7443 23.1216 20.7602 23.1745C20.8342 23.1375 20.8632 23.0688 20.9029 23.008C20.9214 23.0107 20.9372 23.0265 20.9689 22.9922C20.9716 22.9869 20.9768 22.9763 20.9742 22.9737C20.9557 22.9578 20.9293 22.9869 20.9029 23.008C20.9055 22.8654 21.064 22.7703 21.1538 22.654C21.1538 22.6487 21.1538 22.6408 21.1538 22.6408C21.1644 22.6303 21.1644 22.6355 21.1538 22.654C21.1591 22.691 21.1512 22.7386 21.1856 22.765C21.2225 22.6752 21.2542 22.5959 21.2886 22.5167C21.3678 22.4744 21.3256 22.5642 21.3758 22.5669C21.4841 22.4268 21.4656 22.2234 21.6902 22.1257C21.6955 22.1521 21.6981 22.1838 21.7034 22.2155C21.6902 22.2419 21.6453 22.2657 21.6585 22.2947C21.6849 22.2683 21.6981 22.2419 21.706 22.2155C21.7245 22.1864 21.7457 22.1574 21.7641 22.1283C21.8196 22.0385 21.7324 21.9856 21.7958 21.9328C21.8804 21.8615 21.9068 21.806 21.9227 21.7294C22.0019 21.7399 21.9861 21.8271 22.0257 21.8562L22.0231 21.872L22.0283 21.8562C22.0838 21.7822 22.0548 21.7531 22.0389 21.7188C22.0151 21.6739 22.0442 21.6131 22.1102 21.5735C22.1842 21.5286 22.1552 21.6026 22.1499 21.6448C22.1472 21.6633 22.1367 21.6871 22.1657 21.6792C22.274 21.5418 22.2688 21.4414 22.2635 21.3437L22.2503 21.3516L22.2661 21.341C22.3269 21.2829 22.385 21.2353 22.4458 21.2195C22.4326 21.2459 22.3771 21.2776 22.4061 21.2987C22.4088 21.3014 22.4405 21.2486 22.4484 21.2195C22.496 21.1455 22.5118 21.061 22.5964 21.0002C22.6069 20.9315 22.6624 20.9104 22.7073 20.876L22.702 20.8364L22.7443 20.8338L22.7919 20.6938C22.8077 20.6488 22.8315 20.6119 22.8764 20.5986C22.99 20.4877 22.99 20.559 22.9979 20.6224C23.0032 20.6198 23.0138 20.6145 23.0164 20.6171C23.0217 20.6277 23.0138 20.6356 22.9953 20.6409L22.8738 20.8681C22.9477 20.8206 22.9662 20.7334 23.0376 20.6753C23.1116 20.6145 23.0719 20.5775 23.0587 20.5405C23.0297 20.4718 23.0693 20.4084 23.167 20.353L23.1829 20.3477L23.1697 20.353C23.1591 20.2895 23.1961 20.2526 23.2621 20.2235C23.3229 20.1971 23.3467 20.2288 23.3837 20.2711C23.389 20.1575 23.3097 20.168 23.2754 20.131C23.3229 20.0518 23.3705 20.0174 23.4207 20.0095L23.418 20.0227L23.4233 20.0069C23.566 19.777 23.6822 19.5393 23.9121 19.3543C24.0151 19.2698 24.0917 19.1403 24.1763 19.0267C24.2714 18.8999 24.2952 18.892 24.3744 18.9422C24.3189 18.8207 24.4325 18.6938 24.5435 18.575C24.6888 18.4191 24.7971 18.2421 24.9239 18.0756C25.0402 17.9303 25.1538 17.7877 25.2674 17.6397C25.2621 17.6767 25.2489 17.7216 25.2859 17.7243C25.3176 17.6635 25.2753 17.6662 25.27 17.6397C25.2833 17.6107 25.2912 17.579 25.3097 17.5499C25.3678 17.4574 25.4206 17.4099 25.4471 17.4865C25.455 17.5103 25.4682 17.5314 25.5078 17.5129C25.5448 17.4495 25.5052 17.4442 25.4946 17.4205C25.4682 17.365 25.4999 17.3121 25.5607 17.2276C25.6188 17.1457 25.6822 17.1616 25.7139 17.1034C25.743 17.0506 25.7245 16.9978 25.7773 16.9344C25.8381 16.8604 25.8698 16.7679 25.9464 16.7019C25.9939 16.6596 26.0124 16.6015 26.0336 16.5486C26.0389 16.5249 26.0494 16.509 26.0706 16.5011C26.1974 16.3479 26.3348 16.2105 26.4272 16.0229C26.525 15.8248 26.5673 15.7983 26.6941 15.7746C26.7284 15.7085 26.6676 15.6874 26.7073 15.624C26.7575 15.5421 26.8262 15.4681 26.8869 15.3968C26.9371 15.336 26.9953 15.2885 27.0085 15.2171C27.0296 15.0982 27.1617 15.0243 27.1987 14.8975C27.2172 14.8314 27.2806 14.8763 27.3466 14.8208C27.3123 14.7601 27.3308 14.694 27.4153 14.5804C27.6161 14.3189 27.8169 14.0547 27.9807 13.7641C28.0653 13.6161 28.1815 13.4867 28.2951 13.3599L28.2925 13.3757L28.2951 13.3572C28.3268 13.2965 28.3638 13.2357 28.3876 13.175C28.4325 13.0666 28.4615 13.0931 28.4959 13.1089V13.1248L28.4985 13.1089C28.5434 12.8923 28.6808 12.7047 28.8288 12.525C28.8922 12.4484 28.9635 12.3824 29.0322 12.3111C29.0164 12.2767 28.9926 12.245 29.0718 12.1948C29.1802 12.0099 29.3096 11.8487 29.4364 11.6849C29.4417 11.6585 29.4523 11.6427 29.4734 11.6347C29.5051 11.5819 29.5421 11.5291 29.5712 11.4762C29.6399 11.3494 29.7138 11.2807 29.838 11.2939C29.7931 11.2252 29.7561 11.1883 29.8222 11.0984C29.8856 11.0139 29.9358 10.8739 30.0177 10.858C30.0758 10.8475 30.0811 10.829 30.0705 10.7867C30.0388 10.6572 30.1207 10.6572 30.1815 10.6255C30.1815 10.6387 30.1498 10.6652 30.1735 10.6704L30.1841 10.6255C30.2105 10.4459 30.3611 10.3138 30.4404 10.1553C30.4404 10.1368 30.4377 10.1183 30.4615 10.0972C30.4615 10.0972 30.4668 10.1051 30.4642 10.1077C30.4562 10.1236 30.451 10.1394 30.443 10.1553L30.4589 10.2319C30.4985 10.1923 30.5117 10.1526 30.517 10.1051C30.5276 10.0311 30.554 9.95714 30.6095 9.88316C30.6227 9.87524 30.628 9.90694 30.6438 9.86731L30.6095 9.88052C30.6068 9.85146 30.6174 9.81976 30.6465 9.80127C30.6914 9.77221 30.7416 9.77485 30.7231 9.68238C30.7125 9.62426 30.768 9.52915 30.8314 9.46575C30.8552 9.43933 30.8816 9.4314 30.8816 9.46575C30.8816 9.4816 30.8631 9.51066 30.8552 9.53444C30.8367 9.545 30.8288 9.56085 30.8261 9.58199V9.5952L30.8288 9.57935C30.834 9.5635 30.8446 9.55029 30.8525 9.53972C30.9793 9.43933 30.9609 9.30459 31.0137 9.18571C31.0507 9.10645 31.0877 9.02984 31.1273 8.95322C31.1458 8.91623 31.1669 8.8634 31.1986 8.88189C31.2673 8.91888 31.2911 8.85283 31.2937 8.77093C31.2964 8.72074 31.2911 8.67318 31.336 8.6177C31.484 8.43013 31.5685 8.20028 31.7006 8.00478C31.7878 7.87797 31.8512 7.74588 31.9199 7.6085C32.0758 7.30468 32.192 6.98766 32.3664 6.68648C32.4826 6.48834 32.5857 6.27963 32.6887 6.07357C32.7178 6.01545 32.7415 5.96261 32.7865 5.92826C32.8367 5.88599 32.8763 5.8675 32.8816 5.94411C32.8895 6.05507 32.8736 6.16339 32.8102 6.30869C32.6755 6.61515 32.5196 6.91104 32.3717 7.21222C32.2184 7.51075 32.0758 7.81721 31.9146 8.10782C31.7217 8.45655 31.5262 8.80792 31.3175 9.14872C30.7336 10.1236 30.1313 11.0852 29.5131 12.0389C29.3598 12.2794 29.1987 12.5171 29.0401 12.7523C28.8261 13.0666 28.6253 13.3969 28.4219 13.7139C28.2026 14.0468 27.9939 14.3664 27.7746 14.6967C27.4602 15.1801 27.1141 15.6504 26.8103 16.1339C26.6148 16.4509 26.3665 16.7283 26.1762 17.0506C25.9887 17.3544 25.7641 17.6424 25.5422 17.9277C25.529 17.9462 25.5237 17.9726 25.5131 17.9937L25.5263 17.9832L25.5078 17.9805C25.4523 18.0677 25.4048 18.1655 25.315 18.2236C25.2568 18.2606 25.2436 18.3187 25.2093 18.3636C25.0666 18.5485 24.9345 18.7493 24.7522 18.8867L24.7549 18.8735L24.7496 18.8893C24.702 19.0188 24.5594 19.1456 24.5461 19.2777C24.5567 19.2671 24.5699 19.2513 24.5805 19.246C24.5963 19.2381 24.5963 19.2486 24.5805 19.2619C24.5699 19.2724 24.5567 19.2751 24.5461 19.2803L24.4775 19.3622C24.4695 19.357 24.4642 19.3517 24.4563 19.3438L24.459 19.3279L24.4537 19.3464C24.4537 19.3517 24.4484 19.3622 24.451 19.3622C24.459 19.3649 24.4669 19.3649 24.4748 19.3649C24.4722 19.3992 24.4537 19.4362 24.422 19.4706C24.3665 19.534 24.3823 19.4679 24.3612 19.4706C24.3137 19.4758 24.1261 19.6766 24.0732 19.777C24.0547 19.814 24.0362 19.851 24.0072 19.8853C24.0574 19.8906 24.0679 19.925 23.986 19.9725C23.8037 20.0756 23.8196 20.0703 23.7245 20.2658C23.6954 20.3239 23.632 20.4533 23.566 20.4903C23.3995 20.5775 23.2965 20.736 23.175 20.876C22.9477 21.1376 22.7258 21.4018 22.496 21.658C22.4484 21.7109 22.4009 21.769 22.3427 21.7849C22.3084 21.8113 22.274 21.8377 22.2582 21.88C22.2318 21.9513 22.1816 22.02 22.1261 22.0675C21.9253 22.2419 21.7694 22.4717 21.566 22.6435C21.5237 22.6778 21.4894 22.7122 21.4603 22.7571C21.3758 22.8812 21.2886 23.008 21.1538 23.0873C21.0984 23.119 21.0667 23.1745 21.0376 23.2247C20.9821 23.3171 20.9055 23.3885 20.8262 23.4545H20.8236C20.7126 23.5417 20.6149 23.6553 20.5092 23.7504C20.422 23.8323 20.3137 23.9406 20.2767 24.0569C20.2265 24.0622 20.2344 24.0252 20.2292 24.0014C20.1023 24.1256 19.9887 24.2735 19.8355 24.403ZM32.192 7.13296C32.2026 7.11975 32.2131 7.10919 32.2184 7.09598C32.2237 7.08541 32.2264 7.0722 32.229 7.05899L32.1999 7.09598L32.192 7.13296ZM32.0441 7.45791C32.0467 7.44999 32.0493 7.44206 32.052 7.43414L32.0361 7.44206C32.0309 7.44999 32.0229 7.45791 32.0229 7.4632C32.0229 7.48433 32.0309 7.48169 32.0441 7.45791ZM30.4298 10.2742C30.4325 10.2689 30.4404 10.2636 30.4404 10.261C30.443 10.2477 30.443 10.2372 30.4457 10.2266L30.4298 10.2742ZM30.3453 10.3904L30.3532 10.3772H30.3426L30.3453 10.3904ZM29.4761 11.7193L29.4787 11.7034C29.587 11.5713 29.4813 11.64 29.4602 11.6268C29.4523 11.64 29.447 11.6506 29.4444 11.6638L29.4761 11.7061V11.7193ZM29.3387 11.9623C29.3413 11.965 29.3493 11.9597 29.3519 11.957C29.3572 11.9518 29.3572 11.9412 29.3598 11.9359C29.3572 11.9333 29.3545 11.9253 29.3519 11.928C29.336 11.9385 29.3308 11.9518 29.3387 11.9623ZM29.2383 12.1393L29.2436 12.1235L29.233 12.0865L29.2383 12.1261V12.1393ZM29.0243 12.2952L29.0718 12.3084C29.0903 12.2609 29.0586 12.2688 29.0507 12.2503L29.0243 12.2952ZM28.8103 12.6413C28.8182 12.6519 28.8288 12.6492 28.8341 12.6334C28.8393 12.6202 28.842 12.6043 28.8393 12.5964C28.8367 12.5832 28.8209 12.5885 28.8156 12.6043C28.8076 12.6149 28.8103 12.6281 28.8103 12.6413ZM28.6729 12.8632C28.6808 12.8711 28.6914 12.8632 28.702 12.8447C28.7046 12.8394 28.702 12.8341 28.702 12.8262C28.694 12.8209 28.6835 12.8262 28.6729 12.8447C28.6703 12.8526 28.6703 12.8606 28.6729 12.8632ZM28.1868 13.6294L28.1789 13.5977V13.5844L28.1762 13.6003C28.1789 13.6109 28.1577 13.6452 28.1868 13.6294ZM28.023 13.8618L28.0335 13.8645L28.0309 13.8539L28.023 13.8618ZM27.6055 14.5302L27.6082 14.5144V14.5012L27.6029 14.517L27.6055 14.5302ZM27.484 14.702C27.4893 14.6967 27.4972 14.694 27.4999 14.6888C27.5104 14.6703 27.5078 14.6623 27.4919 14.6676C27.4893 14.6676 27.484 14.6808 27.4814 14.6861L27.484 14.702ZM27.1353 15.1115L27.1458 15.1088C27.2172 15.0718 27.2436 15.0005 27.2753 14.9318L27.2885 14.9239L27.2753 14.9265C27.204 14.9609 27.2013 15.0533 27.1485 15.1009L27.1353 15.1115ZM26.377 16.2792L26.385 16.2633L26.3717 16.2712L26.377 16.2792ZM26.2264 16.3981H26.237L26.2344 16.3875L26.2264 16.3981ZM26.0336 16.5301C26.0521 16.5249 26.0574 16.5117 26.0574 16.4958L26.0336 16.5301ZM25.9279 16.9185C25.9332 16.9211 25.9464 16.9132 25.9543 16.9106C25.957 16.8974 25.9622 16.8815 25.9596 16.8762C25.9543 16.8736 25.9385 16.8842 25.9279 16.8894C25.9279 16.9 25.9226 16.9159 25.9279 16.9185ZM25.2172 17.8537L25.2278 17.8564L25.2251 17.8458L25.2172 17.8537ZM25.093 18.0175C25.0957 18.0122 25.0983 18.007 25.0983 18.0043C25.0957 17.9964 25.093 17.9885 25.0877 17.9805L25.0904 17.9647L25.0825 17.9805L25.093 18.0175ZM24.8394 18.2711C24.8896 18.2368 24.9081 18.2262 24.9239 18.2104C24.9398 18.1945 24.9609 18.1602 24.9583 18.1549C24.953 18.1391 24.9292 18.1523 24.9107 18.1708C24.9002 18.1866 24.887 18.2077 24.8394 18.2711ZM24.6862 18.501C24.6888 18.5063 24.7047 18.4983 24.7152 18.4957C24.7284 18.4825 24.7311 18.4719 24.7232 18.464C24.7179 18.4614 24.7073 18.464 24.6967 18.464C24.6915 18.4772 24.6835 18.4957 24.6862 18.501ZM24.5329 18.678L24.5409 18.6674H24.5303L24.5329 18.678ZM24.5012 18.7942L24.5118 18.7969V18.7863L24.5012 18.7942ZM24.0019 19.4151C24.0045 19.4151 24.0125 19.4072 24.0177 19.4019C24.0177 19.3966 24.023 19.386 24.0204 19.3834C24.0125 19.3755 24.0019 19.3834 23.9966 19.4019C23.994 19.4098 23.9993 19.4151 24.0019 19.4151ZM23.706 19.8087L23.7166 19.8114V19.8008L23.706 19.8087ZM23.4761 20.0782L23.4894 20.0729L23.5026 20.0676L23.4894 20.0703L23.4761 20.0782ZM23.5924 20.205L23.603 20.2076V20.1971L23.5924 20.205ZM23.1116 20.485C23.1116 20.4877 23.1248 20.4798 23.1274 20.4771C23.1327 20.4666 23.1353 20.456 23.138 20.4454L23.1089 20.4613C23.1089 20.4692 23.1089 20.4771 23.1116 20.485ZM22.8923 20.6436C22.8896 20.633 22.887 20.6224 22.8843 20.6145C22.8791 20.6066 22.8738 20.6013 22.8685 20.5934C22.8658 20.6066 22.8606 20.6198 22.8632 20.6304C22.8632 20.6436 22.8632 20.6647 22.8923 20.6436ZM22.6994 20.8734C22.7179 20.8681 22.7285 20.8576 22.7337 20.8364L22.6994 20.8734ZM22.7364 20.9632C22.7919 20.9923 22.7998 20.913 22.8262 20.8787C22.7787 20.8681 22.7549 20.9104 22.7364 20.9632ZM22.6571 20.9712C22.6703 20.9791 22.6862 20.987 22.7126 20.9712C22.6994 20.9579 22.6836 20.9553 22.6571 20.9712ZM22.6201 21.1851L22.6254 21.1693C22.636 21.1482 22.6518 21.1244 22.6571 21.1032C22.6624 21.0874 22.6439 21.09 22.636 21.1085C22.6281 21.1297 22.6254 21.1482 22.6228 21.1693L22.6201 21.1851ZM22.533 21.2459L22.5382 21.2301C22.5356 21.2195 22.5594 21.1851 22.5277 21.201L22.533 21.2327V21.2459ZM21.9174 22.1257L21.9253 22.1098L21.9121 22.1204L21.9174 22.1257ZM20.4405 23.5259C20.4458 23.5232 20.4537 23.5179 20.4537 23.5153C20.459 23.5047 20.4617 23.4942 20.4643 23.4836L20.4405 23.5259ZM20.216 23.9855L20.2344 24.004C20.2371 23.9988 20.2397 23.9882 20.2397 23.9882C20.2318 23.9855 20.2239 23.9855 20.216 23.9855ZM19.9438 24.1625L19.9359 24.1784L19.9518 24.1678L19.9438 24.1625Z" fill="#262626"/>
<path d="M37.3623 14.3296C37.3544 14.2187 37.4759 13.8937 37.4205 13.8964C37.4627 13.7933 37.5103 13.6586 37.5341 13.5846C37.5605 13.4975 37.5816 13.4208 37.5975 13.3469L37.6424 13.1382L37.6662 13.0325C37.6688 13.0166 37.6794 12.9876 37.6741 12.9849L37.6345 13.0246C37.5816 13.0774 37.5314 13.1197 37.4707 13.1619C37.431 13.191 37.3676 13.257 37.3148 13.3178C37.2884 13.3495 37.2619 13.3786 37.2434 13.4076L37.217 13.4446C37.2012 13.4631 37.1853 13.4816 37.1721 13.4975C37.011 13.693 36.8524 13.7828 36.723 13.8303C36.5777 13.9281 36.4588 14.0021 36.3082 14.1421C36.1629 14.2715 36.007 14.4036 35.7877 14.5384C35.6768 14.5991 35.5341 14.6625 35.3597 14.652C35.1854 14.644 35.0083 14.5251 34.9264 14.3798C34.9819 14.4168 35.0929 14.5516 35.2593 14.5938C35.4205 14.6387 35.5711 14.5859 35.6081 14.5516C35.4733 14.5806 35.3307 14.5806 35.2038 14.5199C35.0797 14.4591 34.9898 14.3508 34.9449 14.2293C34.9529 14.187 34.9581 14.1896 34.9449 14.0285C34.9449 14.01 34.937 13.973 34.937 13.973C34.9106 13.973 34.9079 14.1183 34.9449 14.2293C34.8921 14.1447 34.8577 14.0285 34.8657 13.899C34.871 13.7722 34.937 13.619 35.0295 13.5186C35.2303 13.302 35.4628 13.2095 35.83 13.1461C35.8485 13.1408 35.8723 13.1302 35.8855 13.1302C35.9515 13.1223 35.9304 13.1302 35.8379 13.1461C35.7164 13.1883 35.5499 13.2623 35.5711 13.302C35.6477 13.2676 35.7322 13.2438 35.8168 13.2227L35.9462 13.1936L36.0149 13.1804C36.0202 13.1936 36.0202 13.2174 36.0229 13.2359C36.0308 13.3178 36.0387 13.3997 36.0466 13.479C36.0466 13.5212 36.0519 13.5635 36.0466 13.6111L36.0413 13.7326C35.9594 13.9941 35.9938 13.685 35.9357 13.7775C35.8881 14.0496 35.83 14.2979 35.7164 14.5489C35.6028 14.7973 35.4205 15.043 35.1193 15.2332C35.1457 15.1803 35.1774 15.1196 35.2091 15.0588C35.2673 14.9928 35.3782 14.8924 35.3835 14.8475C35.3069 14.9267 35.254 15.0007 35.2012 15.0641C35.1246 15.1381 35.048 15.2173 34.9661 15.2807C34.8445 15.3864 34.797 15.4419 34.76 15.4947C34.723 15.5502 34.686 15.5951 34.5618 15.6453C34.4826 15.6823 34.406 15.7061 34.3373 15.7298C34.2686 15.7536 34.2105 15.7774 34.1497 15.7932C34.0916 15.8117 34.0361 15.8276 33.9833 15.8487C33.9568 15.8567 33.9278 15.8646 33.8987 15.8699C33.8564 15.8804 33.8115 15.8884 33.7666 15.8989C33.6636 15.8725 33.7191 15.8408 33.7772 15.8117C33.8379 15.78 33.9014 15.7483 33.8881 15.7246L33.9304 15.7114L33.8855 15.7246C33.7296 15.751 33.6424 15.7615 33.5764 15.7774C33.5103 15.7932 33.4734 15.8117 33.4258 15.8302C33.3941 15.8408 33.3492 15.8514 33.2937 15.8593C33.2726 15.8672 33.2805 15.8514 33.2805 15.8434L33.2858 15.8091L33.299 15.7272C33.3201 15.6083 33.3756 15.4419 33.439 15.2834C33.5051 15.1566 33.5156 15.1618 33.513 15.2041C33.5103 15.2252 33.5051 15.2569 33.4998 15.2913C33.4892 15.3336 33.4839 15.3785 33.4786 15.4102C33.4707 15.4657 33.4522 15.5476 33.4971 15.4657C33.579 15.2173 33.6398 15.0324 33.6953 14.858C33.7402 14.7101 33.7693 14.5938 33.8036 14.4802L33.7719 14.5172L33.8062 14.4723C33.9568 14.253 34.1206 14.0707 34.2607 13.9756C34.2052 14.047 34.0652 14.1817 34.1021 14.1949C34.1048 14.1949 34.1338 14.1579 34.1682 14.1077C34.2025 14.0602 34.2448 14.0047 34.2659 13.9703C34.4456 13.7616 34.5935 13.5661 34.871 13.3918C34.9766 13.2808 35.0982 13.2174 35.2223 13.1619L35.4126 13.4367C35.3809 13.4552 35.3518 13.4763 35.3201 13.4948L35.2699 13.5714L35.1801 13.6031L34.871 13.9122C34.7653 14.0047 34.657 14.0839 34.5381 14.1341C34.118 14.3983 34.2369 14.261 34.3241 14.1474C34.3082 14.1526 34.2792 14.1685 34.2792 14.1632C34.2844 14.1474 34.3188 14.1262 34.3637 14.1077C34.5671 13.9466 34.7758 13.796 34.9634 13.619C34.7494 13.759 34.5698 13.9202 34.3267 14.0681C34.0784 14.2187 34.0889 14.2583 34.0625 14.3164C34.007 14.4248 33.8168 14.5568 33.5103 14.6784L33.4681 14.6916L33.5051 14.681C33.4179 14.7814 33.2646 14.8554 33.0691 14.9188C32.8895 14.9769 32.8974 14.9241 32.9027 14.8633C32.6781 15.0403 32.8683 15.0139 32.8683 15.0694C32.6121 15.1988 32.4483 15.2596 32.3267 15.2754L32.3584 15.2543L32.3135 15.2781C31.5658 15.6374 30.8287 15.9597 29.9595 16.171C29.5712 16.2688 29.1352 16.422 28.7204 16.5488C28.2581 16.6888 28.1868 16.6941 28.1313 16.6122C27.986 16.7787 27.484 16.9134 27.0084 17.0376C26.3823 17.2067 25.7879 17.4154 25.1881 17.6294C25.0587 17.6769 24.9134 17.7218 24.7945 17.7694C24.6782 17.8169 24.562 17.8777 24.4589 17.9464C24.2502 18.0811 24.0785 18.2845 24.097 18.4299C24.0679 18.3823 24.0891 18.2845 24.0442 18.3189C24.0309 18.3929 24.0468 18.4114 24.06 18.4193C24.0732 18.4246 24.0864 18.4219 24.097 18.4351C24.1128 18.4827 24.1472 18.5329 24.1842 18.5699C24.3004 18.6835 24.5197 18.665 24.3955 18.7363C24.3612 18.7522 24.3295 18.7759 24.4325 18.8024C24.6333 18.7918 24.5805 18.7495 24.6095 18.7257C24.6782 18.6597 24.8315 18.6359 25.1142 18.5065C25.3916 18.3797 25.484 18.4034 25.661 18.3136C25.8222 18.2344 25.8856 18.1445 26.1181 18.0362C26.3823 17.9147 26.6174 17.7562 26.8948 17.6346C27.0692 17.5607 27.2145 17.4576 27.3545 17.3599C27.4074 17.3176 27.4602 17.2859 27.5157 17.2727C28.0467 16.9874 28.5566 16.6994 29.0692 16.3269C29.6002 15.9253 29.727 15.8619 30.0097 15.7721C30.1867 15.6321 30.1075 15.6162 30.2924 15.4789C30.5276 15.3019 30.7838 15.1328 31.0163 14.9716C31.2145 14.8316 31.3994 14.7154 31.5421 14.5701C31.7772 14.3217 32.1471 14.1236 32.4166 13.8515C32.5619 13.7088 32.6068 13.7696 32.8181 13.6322C32.8498 13.5239 32.9899 13.3838 33.3333 13.1117C34.1233 12.483 34.9212 11.8489 35.6847 11.1752C36.0731 10.8291 36.4799 10.5042 36.8498 10.1581L36.8234 10.1951L36.8524 10.1555C36.9925 10.0049 37.1325 9.84636 37.2487 9.69314C37.4548 9.41574 37.4707 9.45272 37.5103 9.46329L37.4918 9.50028L37.5129 9.46065C37.83 8.92963 38.2157 8.35898 38.4191 7.73286C38.5037 7.46603 38.5644 7.20448 38.5671 6.93237C38.5248 6.88217 38.501 6.84518 38.4931 6.60741C38.3689 6.0262 38.0413 5.51367 37.6107 5.08833C37.5526 5.0487 37.5076 5.00907 37.4786 4.9668C37.3386 4.85056 37.1906 4.73696 37.0347 4.63921C36.6728 4.41201 36.4218 4.2667 36.324 4.09498C36.1972 4.11876 36.1444 4.14782 35.8432 4.01837C35.6979 3.95496 35.513 3.90741 35.3518 3.85193C35.1906 3.79909 35.048 3.74361 34.9714 3.69606C34.863 3.62208 34.8128 3.61416 34.7177 3.62208C34.4271 3.64058 34.3082 3.55339 34.1444 3.48206C34.1814 3.48206 34.295 3.51641 34.2739 3.49263L34.1444 3.48206C33.6345 3.44772 33.0718 3.32619 32.5328 3.29977C32.48 3.3077 32.4377 3.31827 32.3479 3.30506C32.3452 3.30506 32.3584 3.29713 32.3716 3.29713C32.4218 3.29713 32.4747 3.29713 32.5249 3.29713C32.583 3.28128 32.6411 3.26807 32.7019 3.2575C32.5407 3.2258 32.4139 3.23901 32.2818 3.24958C32.0757 3.26807 31.838 3.27864 31.5579 3.27071C31.5156 3.26543 31.5896 3.24429 31.4628 3.24958L31.55 3.27071C31.4787 3.28921 31.3783 3.29449 31.2832 3.28128C31.1405 3.26279 31.0665 3.22316 30.8525 3.29449C30.7204 3.33412 30.3902 3.36318 30.1207 3.36054C30.015 3.36054 29.949 3.34733 30.0361 3.32355C30.0758 3.31298 30.1788 3.30506 30.2528 3.29713C30.3109 3.30241 30.3664 3.29713 30.4219 3.28392L30.4562 3.27335L30.4087 3.28128C30.3611 3.28656 30.3109 3.28921 30.2634 3.29185C30.0309 3.27864 29.8354 3.3077 29.6504 3.34204C29.4655 3.37903 29.2805 3.41866 29.0982 3.45564C28.842 3.49791 28.5804 3.54283 28.3241 3.59566C28.2 3.61944 28.0362 3.65379 28.0282 3.62208C28.0071 3.54811 27.801 3.59831 27.5897 3.6802C27.4576 3.7304 27.3519 3.77795 27.1353 3.81494C26.4246 3.93118 25.7192 4.14782 25.0164 4.3169C24.5593 4.42786 24.1313 4.55731 23.6848 4.69733C22.6862 5.00907 21.7298 5.37101 20.7206 5.7171C20.0548 5.9443 19.3916 6.2032 18.7391 6.47268C18.5515 6.54929 18.3903 6.61798 18.2371 6.65761C18.0548 6.70516 17.9465 6.72101 18.1156 6.60741C18.3613 6.44362 18.6413 6.28774 19.0825 6.10281C20.0231 5.70917 20.99 5.3578 21.9596 5.02757C22.9345 4.69469 23.9147 4.37502 24.9002 4.10819C26.0811 3.78852 27.2753 3.49527 28.4906 3.30506C30.2105 3.03558 31.9754 2.93519 33.7058 3.20467C34.5698 3.3394 35.4205 3.56396 36.2289 3.90212C37.0268 4.25614 37.7877 4.75809 38.3055 5.48197C38.5618 5.84391 38.7547 6.26397 38.8075 6.71045C38.8735 7.15428 38.7996 7.60869 38.6516 8.02611C38.2395 9.14362 37.4231 10.0524 36.5882 10.8397C36.147 11.2518 35.682 11.6349 35.2223 12.0206C34.7626 12.4064 34.3029 12.7894 33.8459 13.1725C32.4932 14.3085 31.0744 15.3943 29.6425 16.4062C28.7099 17.0666 27.7165 17.6267 26.7205 18.1815C26.4827 18.3162 26.2343 18.4378 25.9886 18.5646C25.7403 18.6861 25.484 18.7971 25.2304 18.9133C24.9556 19.0269 24.6624 19.1194 24.3189 19.0771C24.1498 19.0586 23.9543 18.9662 23.8381 18.8076C23.7245 18.6571 23.6716 18.4431 23.7218 18.2502C23.7483 18.1577 23.7773 18.0626 23.8249 17.986C23.8117 18.0045 23.7958 18.0177 23.7852 18.0389C23.7984 18.0177 23.8117 18.0019 23.8249 17.986C24.0468 17.6531 24.3612 17.4603 24.6835 17.3678C24.879 17.3203 25.027 17.2463 25.1961 17.1855C25.875 16.953 26.5699 16.7179 27.2409 16.5832L27.2066 16.6017L27.2541 16.5832C27.6267 16.4273 28.1894 16.3031 28.4959 16.1367C28.4483 16.1473 28.3955 16.1631 28.3585 16.171C28.3109 16.179 28.3294 16.1658 28.3928 16.1499C28.4325 16.1393 28.4642 16.1393 28.5012 16.1341L28.8129 16.0442C28.8182 16.0522 28.8182 16.0601 28.8182 16.0706L28.7759 16.0918L28.8235 16.0706C28.8367 16.0627 28.8658 16.0522 28.8631 16.0495C28.8552 16.0442 28.834 16.0442 28.8182 16.0416C28.8948 15.9967 29.0137 15.9544 29.1484 15.9148C29.3968 15.8434 29.2251 15.928 29.27 15.928C29.3783 15.9306 30.1815 15.7034 30.4906 15.5713C30.6095 15.5211 30.7151 15.4762 30.8446 15.4313C30.7521 15.4155 30.7997 15.3732 31.0586 15.3124C31.6372 15.1803 31.5976 15.183 32.1709 14.895C32.3399 14.8025 32.7098 14.6018 32.908 14.5304C33.3994 14.3587 33.8934 14.0707 34.3531 13.7511C34.6437 13.5688 34.9053 13.3495 35.1774 13.1434L35.4073 13.4763C34.826 13.8066 34.3373 14.3006 34.0097 14.8871C33.9119 15.0588 33.8221 15.2754 33.7481 15.3811C33.7243 15.426 33.6926 15.4947 33.7032 15.5291C33.764 15.5132 33.8089 15.5079 33.8432 15.4974C33.8564 15.4947 33.8459 15.4947 33.8776 15.4921C33.904 15.4894 33.9304 15.4841 33.9568 15.4789C34.0097 15.4683 34.0625 15.4577 34.1154 15.4472C34.4773 15.3626 34.8181 15.1566 35.0955 14.8897C35.3676 14.615 35.5764 14.2847 35.7032 13.9334C35.7243 13.8594 35.7481 13.7907 35.7613 13.7194C35.7719 13.6322 35.7772 13.6111 35.7745 13.5714C35.7666 13.5239 35.7824 13.4525 35.7111 13.4895L35.6398 13.5107C35.6186 13.5186 35.6028 13.5239 35.5473 13.5476C35.3703 13.6243 35.2171 13.7458 35.1616 13.8964C35.1114 14.0285 35.1669 14.2081 35.2593 14.2715C35.3386 14.3323 35.4284 14.3402 35.5499 14.2979C35.6662 14.2583 35.7983 14.1738 35.933 14.0919L35.9383 14.0892C36.3029 13.8726 36.6622 13.6005 36.9951 13.3284C37.0268 13.302 37.0612 13.2729 37.0955 13.2438C37.1378 13.2068 37.1827 13.1672 37.2276 13.1276C37.3174 13.0483 37.4073 12.9638 37.4997 12.874C37.6847 12.6917 37.8802 12.4856 38.0862 12.2531C38.0968 12.2531 38.1074 12.2531 38.1179 12.2558C38.1206 12.2558 38.1232 12.2558 38.1259 12.2584L38.1232 12.2795L38.1206 12.3192C38.0281 12.5622 38.0334 12.4671 38.0096 12.4698C37.9198 12.8185 37.8458 13.1223 37.7296 13.4684C37.7005 13.5503 37.6688 13.6348 37.6397 13.7194C37.6133 13.7881 37.5869 13.8567 37.5578 13.9228C37.4971 14.0575 37.431 14.1949 37.3623 14.3296ZM22.097 5.17551C22.0521 5.18872 22.0046 5.19929 21.9596 5.21514C21.9226 5.22835 21.8857 5.2442 21.8487 5.26005L21.9861 5.22307L22.097 5.17551ZM23.1327 4.81622C23.1089 4.82414 23.0878 4.83207 23.064 4.84263L23.1089 4.83735C23.1353 4.82942 23.1697 4.8215 23.1829 4.81357C23.2304 4.79508 23.2093 4.79508 23.1327 4.81622ZM32.8631 3.26279C32.8446 3.26014 32.8208 3.25486 32.8102 3.25486C32.7759 3.2575 32.7442 3.2575 32.7098 3.26014L32.8631 3.26279ZM33.299 3.31562L33.2541 3.3077L33.2699 3.31827L33.299 3.31562ZM37.682 5.05927L37.645 5.03549C37.4654 4.85849 37.4231 4.84528 37.4337 4.86641C37.4442 4.89019 37.4944 4.95888 37.4865 4.96944C37.5182 4.99586 37.5473 5.01964 37.579 5.04342H37.653L37.682 5.05927ZM38.2315 5.67747C38.2342 5.67747 38.2263 5.65369 38.2183 5.64313C38.2051 5.62463 38.1893 5.60878 38.1734 5.59029C38.1681 5.59029 38.1576 5.585 38.1629 5.59293C38.1866 5.64313 38.2131 5.67483 38.2315 5.67747ZM38.5116 6.2032L38.4931 6.16358L38.435 6.1081C38.4535 6.13187 38.4772 6.15565 38.4957 6.17943L38.5116 6.2032ZM38.575 6.91651L38.6173 6.8716C38.5935 6.73158 38.5776 6.80291 38.5591 6.77385L38.575 6.91651ZM38.3848 8.05781C38.3901 8.0763 38.4059 8.05517 38.4218 8.00497C38.435 7.96534 38.4376 7.92307 38.4376 7.90458C38.435 7.87816 38.4165 7.90986 38.4033 7.95742C38.3901 7.99705 38.3901 8.02611 38.3848 8.05781ZM38.0519 8.74998C38.0572 8.76055 38.081 8.73413 38.11 8.67865C38.1179 8.6628 38.1179 8.64959 38.1232 8.63638C38.1153 8.6311 38.0942 8.65487 38.0651 8.71035C38.0545 8.72356 38.0492 8.7447 38.0519 8.74998ZM36.2791 10.8107L36.3082 10.7499L36.3267 10.7208L36.2976 10.7552C36.2897 10.7763 36.1999 10.8608 36.2791 10.8107ZM35.6186 11.376L35.6345 11.3734L35.6477 11.3522L35.6186 11.376ZM33.7825 12.9347L33.8115 12.903L33.8353 12.874L33.7983 12.9083L33.7825 12.9347ZM33.2805 13.3416C33.2963 13.331 33.3175 13.3204 33.3307 13.3072C33.3782 13.265 33.3862 13.2518 33.3518 13.2676C33.3465 13.2702 33.3201 13.294 33.3043 13.3099L33.2805 13.3416ZM31.9595 14.3244L31.9859 14.3138C32.1814 14.2081 32.3479 14.0549 32.5143 13.9017L32.5513 13.8832L32.5222 13.8964C32.3294 13.9994 32.1814 14.1843 31.9965 14.3032L31.9595 14.3244ZM28.5302 16.8236L28.5751 16.7919L28.5355 16.813L28.5302 16.8236ZM28.0177 17.0772H28.0362L28.0547 17.0561L28.0177 17.0772ZM27.3942 17.3467C27.4417 17.3335 27.4761 17.3097 27.5051 17.2806L27.3942 17.3467ZM26.4589 18.0151C26.4589 18.0204 26.5038 18.0071 26.5276 17.9992C26.554 17.9781 26.6016 17.9464 26.6016 17.9411C26.6016 17.9358 26.5461 17.957 26.517 17.9675C26.4985 17.9834 26.4589 18.0098 26.4589 18.0151ZM24.2159 17.9992L24.2027 18.0019L24.1921 18.023L24.2159 17.9992ZM24.7179 17.6796C24.7046 17.6875 24.6862 17.6954 24.6835 17.7007C24.6729 17.7139 24.6677 17.7245 24.6624 17.735L24.628 17.7588C24.6412 17.7509 24.6571 17.7403 24.6703 17.7324L24.7179 17.6796ZM25.7509 17.3652C25.5765 17.4048 25.5157 17.4127 25.4497 17.4339C25.3863 17.455 25.2727 17.4973 25.2621 17.5052C25.241 17.5263 25.3149 17.5131 25.3889 17.4893C25.455 17.4656 25.5237 17.4418 25.7509 17.3652ZM26.5514 17.0931C26.5567 17.0851 26.5091 17.0931 26.4853 17.0931C26.4325 17.1063 26.3981 17.1221 26.4061 17.13C26.4114 17.1353 26.4378 17.1353 26.4563 17.1353C26.4906 17.1221 26.5435 17.101 26.5514 17.0931ZM27.2383 16.9002L27.2013 16.9108L27.2224 16.9134L27.2383 16.9002ZM27.5527 16.7549L27.5368 16.7496L27.5131 16.7655L27.5527 16.7549ZM29.8961 16.0627C29.8935 16.0627 29.8591 16.0733 29.838 16.0759C29.8221 16.0839 29.7931 16.0971 29.7931 16.0997C29.7931 16.1129 29.8274 16.1024 29.8803 16.0786C29.8961 16.0733 29.9014 16.0654 29.8961 16.0627ZM31.3149 15.5581L31.299 15.5555L31.2779 15.5713L31.3149 15.5581ZM32.332 15.1618L32.2897 15.1724L32.2501 15.1803L32.2818 15.1777L32.332 15.1618ZM32.3347 14.9716L32.3188 14.969L32.3003 14.9875L32.3347 14.9716ZM33.8406 14.4221C33.8406 14.4195 33.801 14.438 33.7957 14.4432C33.7693 14.4617 33.7455 14.4829 33.7217 14.5014L33.8089 14.4644C33.8195 14.4512 33.8353 14.4353 33.8406 14.4221ZM34.5671 14.047C34.5592 14.0628 34.546 14.0813 34.5407 14.0945C34.5354 14.1077 34.5381 14.1157 34.5381 14.1262C34.5645 14.0998 34.5988 14.0707 34.612 14.0522C34.6305 14.0285 34.6596 13.9941 34.5671 14.047ZM35.3174 13.4922C35.2725 13.5133 35.2303 13.5424 35.1933 13.5846L35.3174 13.4922ZM35.2461 13.2544C35.2567 13.2597 35.2673 13.2597 35.2805 13.257L35.3386 13.3416C35.2646 13.3627 35.1563 13.4895 35.0665 13.5582C35.1431 13.5503 35.2461 13.4631 35.3544 13.3601L35.2699 13.2385L35.2461 13.2544ZM35.0612 13.302C35.0744 13.3125 35.0929 13.3204 35.1774 13.2808C35.1801 13.257 35.1457 13.2623 35.0612 13.302ZM34.6649 13.7405L34.7019 13.7009C34.7547 13.6507 34.8128 13.5952 34.8577 13.5503C34.8921 13.5159 34.8472 13.5344 34.8049 13.5741C34.7547 13.6216 34.7283 13.6612 34.6913 13.7062L34.6649 13.7405ZM34.4113 13.9439L34.4377 13.9069C34.4456 13.8858 34.5328 13.7933 34.4535 13.8515L34.4271 13.9149L34.4113 13.9439ZM34.6437 15.3521L34.6015 15.3811L34.6464 15.36L34.6437 15.3521ZM36.8445 13.7194C36.8287 13.7299 36.8075 13.7431 36.7996 13.7511C36.7758 13.7748 36.7547 13.7986 36.7309 13.8224L36.8445 13.7194ZM37.9647 12.5305L38.007 12.4645C38.007 12.4592 38.0096 12.4433 38.007 12.4433C38.0017 12.4486 37.9964 12.4513 37.9938 12.4539C37.9885 12.4618 37.9885 12.4698 37.9858 12.4777L37.9647 12.5305ZM37.5763 13.5978L37.5631 13.6454L37.5843 13.6005L37.5763 13.5978Z" fill="#262626"/>
<path d="M50.1203 14.174C50.0516 14.2638 49.7161 14.3616 49.7425 14.3986C49.4413 14.4541 49.1296 14.4646 48.8284 14.3827C48.5298 14.3035 48.226 14.1344 48.0384 13.8411C47.9856 13.7645 47.9275 13.6668 47.8746 13.5637C47.8218 13.4554 47.7874 13.3365 47.7689 13.2361C47.724 12.9508 47.8376 12.7527 47.9407 12.6523C48.0463 12.4938 48.1467 12.3775 48.329 12.2401C48.4136 12.1715 48.5298 12.1265 48.654 12.1054C48.7782 12.0896 48.9235 12.079 49.0794 12.182C49.1533 12.2322 49.2141 12.3115 49.2405 12.396C49.2696 12.4806 49.2749 12.5625 49.2722 12.6391C49.2643 12.7897 49.2194 12.9297 49.1745 13.0512C49.1613 12.9984 49.2062 12.8689 49.2247 12.7315C49.2484 12.5968 49.2167 12.4356 49.1639 12.3907C49.2088 12.544 49.185 12.6708 49.1613 12.787C49.1348 12.9059 49.0979 13.0142 49.0582 13.1173C49.0292 13.141 49.0133 13.1278 48.9525 13.2626C48.9446 13.2784 48.934 13.3128 48.9393 13.3128C48.9631 13.3207 49.0159 13.2071 49.0609 13.1173C49.0186 13.466 48.7095 13.9521 48.3739 14.2929C48.366 14.3035 48.3607 14.3193 48.3528 14.3246C48.3185 14.3563 48.3238 14.3457 48.3687 14.2955C48.4057 14.2216 48.4743 14.1053 48.4347 14.0815C48.2736 14.3167 48.0913 14.5148 47.8614 14.6654C47.5999 14.7552 47.872 14.5967 47.761 14.6073C47.5127 14.7314 47.2696 14.8292 46.9843 14.8477C46.7095 14.8662 46.3581 14.779 46.123 14.4805C46.1811 14.5069 46.2445 14.5307 46.3132 14.5465C46.3845 14.5967 46.5193 14.676 46.5642 14.6628C46.4638 14.6178 46.3793 14.5809 46.3079 14.5386C46.2155 14.4831 46.1309 14.4039 46.0596 14.3272C45.9486 14.2057 45.8931 14.1582 45.8403 14.1132C45.7875 14.071 45.7452 14.0287 45.7003 13.8993C45.6025 13.5532 45.5708 13.3656 45.5153 13.149C45.5735 13.0063 45.6316 13.2441 45.6818 13.2229L45.6923 13.2652L45.6818 13.2203C45.6527 12.9376 45.621 12.9244 45.584 12.8795C45.5365 12.8214 45.5206 12.6153 45.5602 12.3881C45.6104 12.1345 45.6157 12.3696 45.6316 12.4806C45.6369 12.5255 45.6421 12.6047 45.6633 12.5334C45.695 11.9945 45.6554 11.7673 45.6078 11.5427L45.5972 11.5876L45.6078 11.5348C45.6421 11.2811 45.6871 11.0513 45.7478 10.8981C45.7425 10.9879 45.6976 11.1702 45.7346 11.1623C45.7373 11.1623 45.7425 11.1147 45.7452 11.0566C45.7478 10.9985 45.7505 10.9324 45.7505 10.8928C45.7769 10.6233 45.769 10.3908 45.8456 10.0844C45.8403 9.8968 45.8984 9.74357 45.9407 9.58241L45.9275 9.49259L45.975 9.41069L46.0067 8.98006C46.0173 8.84004 46.0437 8.71059 46.0966 8.59435C46.2234 8.11881 46.2313 8.29845 46.2445 8.43847C46.2524 8.42262 46.263 8.39092 46.2657 8.3962C46.2736 8.41206 46.263 8.44904 46.2419 8.49395C46.1996 8.74758 46.1626 9.00384 46.1283 9.2601C46.2049 9.01705 46.2155 8.77135 46.2947 8.49924C46.3793 8.2192 46.3291 8.19542 46.3106 8.1373C46.2709 8.02106 46.3185 7.7965 46.44 7.49004L46.4585 7.45041L46.44 7.48475C46.4268 7.35002 46.4744 7.1915 46.5642 7.00657C46.6435 6.83749 46.6752 6.87712 46.7174 6.92203C46.7386 6.63142 46.6329 6.7873 46.5906 6.75295C46.6778 6.4597 46.794 6.29062 46.905 6.20344C46.8971 6.21665 46.8918 6.22722 46.8865 6.24042C46.8944 6.22457 46.905 6.20872 46.9156 6.19287C46.9684 6.11097 47.1137 5.96303 47.2538 5.89962C47.3251 5.86264 47.4017 5.84678 47.4757 5.83357L47.5919 5.81508C47.6078 5.81772 47.6395 5.79659 47.6448 5.81772L47.6633 5.87056L47.7399 6.0872C47.7689 6.15588 47.7927 6.24042 47.8033 6.33025C47.8244 6.44121 47.8429 6.54424 47.8535 6.65256C47.9037 7.08054 47.8958 7.52174 47.8112 7.97086C47.7399 8.37243 47.6791 8.84004 47.5814 9.26803C47.4704 9.74357 47.436 9.80697 47.3383 9.81226C47.407 10.0236 47.259 10.5256 47.1058 10.9985C46.9024 11.6193 46.7227 12.2375 46.4664 12.8425C46.2339 13.3762 45.9592 13.894 45.6131 14.3669C45.658 14.2744 45.7214 14.1476 45.658 14.1846C45.5497 14.3642 45.6237 14.3114 45.6078 14.3722C45.555 14.4567 45.5074 14.5412 45.4466 14.6284C45.2353 14.9085 45.0715 15.0564 45.1164 14.9058C45.1296 14.8609 45.1322 14.8239 45.0345 14.9005C44.8892 15.0723 44.9526 15.0538 44.942 15.0987C44.9156 15.1964 44.7888 15.3549 44.4797 15.5531C44.3317 15.6429 44.2181 15.672 44.123 15.6878C44.0253 15.7037 43.946 15.7116 43.8271 15.7222C43.7188 15.7301 43.6316 15.738 43.5339 15.7274C43.4387 15.7169 43.3225 15.6957 43.1851 15.6059C42.8681 15.3998 42.6831 15.0802 42.6171 14.7526C42.5775 14.5465 42.5299 14.3589 42.5008 14.1767C42.485 14.1053 42.4824 14.0393 42.4929 13.9785C42.4929 13.8174 42.5008 13.6588 42.5167 13.5003L42.5616 13.0486C42.5907 12.7474 42.6144 12.4409 42.625 12.1186C42.6488 11.4449 42.6831 11.3023 42.8047 11.0302C42.8179 10.8003 42.7518 10.8532 42.7756 10.618C42.8047 10.3195 42.8628 10.0157 42.913 9.733C42.9526 9.48995 43.016 9.27595 43.0187 9.06724C43.0292 8.71851 43.1798 8.31695 43.2274 7.93387C43.2564 7.72781 43.3304 7.74894 43.4176 7.50853C43.378 7.40021 43.4123 7.20207 43.5471 6.77409C43.7796 6.07927 44.0702 5.40031 44.411 4.74512L44.8971 4.86929C44.8865 5.17046 44.8892 5.47428 44.8733 5.77545C44.8601 6.30647 44.7729 6.84278 44.6805 7.35794L44.6778 7.31039V7.36323C44.6593 7.57458 44.6197 7.79121 44.6012 7.992C44.5642 8.35129 44.5193 8.32487 44.4823 8.33544V8.29317L44.4797 8.33808C44.4427 8.98534 44.2498 9.68809 44.0173 10.3697C43.9196 10.6629 43.8007 10.9324 43.6844 11.2098C43.695 11.2732 43.7162 11.334 43.5841 11.5665C43.3648 12.1952 43.0742 12.7685 42.7756 13.3365C42.7518 13.4079 42.7201 13.466 42.6858 13.503C42.6012 13.6773 42.5088 13.8491 42.4189 14.0181C42.2155 14.4171 42.0279 14.6628 41.8509 14.7473C41.8536 14.8715 41.9038 14.9507 41.6422 15.2308C41.5101 15.3549 41.3357 15.5161 41.0795 15.5478C40.81 15.5795 40.6118 15.384 40.5854 15.281C40.5352 15.1277 40.522 15.0828 40.4586 14.9956C40.2816 14.7288 40.3371 14.5492 40.3688 14.3669C40.3741 14.4039 40.3714 14.5307 40.3899 14.5016C40.382 14.4567 40.3741 14.4091 40.3688 14.3642C40.3054 13.9494 40.448 13.4792 40.7017 13.1067L40.9738 13.1992C40.9579 13.3445 40.9394 13.4871 40.9077 13.6245C40.9051 13.68 40.9051 13.7275 40.8681 13.82C40.8681 13.8226 40.8628 13.8068 40.8681 13.7936C40.8813 13.7407 40.8945 13.6879 40.9051 13.6324C40.9025 13.569 40.8972 13.5056 40.8892 13.4422C40.8496 13.6086 40.8232 13.7328 40.7968 13.8728C40.7571 14.0842 40.662 14.3299 40.4877 14.5703C40.456 14.6046 40.485 14.528 40.411 14.6416C40.4375 14.6205 40.4586 14.5994 40.4824 14.5782C40.456 14.6522 40.3952 14.742 40.3186 14.8107C40.1997 14.9137 40.1231 14.9322 39.9936 15.1357C39.9725 15.1647 39.9381 15.2017 39.8959 15.244C39.8747 15.2651 39.8509 15.2836 39.8219 15.3047C39.7796 15.3364 39.7347 15.3681 39.6898 15.3972C39.6422 15.4236 39.5947 15.45 39.5445 15.4765L39.4705 15.5161C39.4494 15.5082 39.4282 15.4791 39.4097 15.4606C39.3278 15.3761 39.2539 15.2942 39.201 15.1964C39.1535 15.1172 39.1508 15.0802 39.1455 15.0538C39.1429 15.0326 39.1561 15.0353 39.1852 15.0775C39.2063 15.1119 39.2908 15.2493 39.3622 15.3153C39.3833 15.3497 39.415 15.3787 39.4414 15.4078C39.4573 15.4183 39.4679 15.4448 39.4864 15.4368C39.5022 15.4263 39.5207 15.4131 39.5392 15.4025L39.5815 15.3708L39.526 15.4078L39.4811 15.4342C39.4679 15.4236 39.4573 15.4104 39.4441 15.3998C39.4203 15.3761 39.3965 15.3523 39.3754 15.3259C39.3252 15.2625 39.2829 15.1991 39.2486 15.133C39.2169 15.0696 39.1957 15.0247 39.1772 14.9692C39.1376 14.8635 39.1138 14.7605 39.098 14.6601C39.0663 14.4567 39.0742 14.2506 39.1429 14.0446C39.2354 13.7645 39.4256 13.5241 39.6317 13.3312C39.7321 13.2361 39.8747 13.1278 39.8985 13.1542C39.9487 13.2124 40.1178 13.0803 40.3054 12.9402C40.3925 12.8716 40.4665 12.8134 40.5907 12.75L40.7598 13.0195C40.7281 13.0459 40.6911 13.075 40.6515 13.1067C40.0782 13.5294 39.6052 14.0948 39.1852 14.6654C39.1297 14.7394 39.0795 14.8133 39.0293 14.89C38.9791 14.9666 38.9395 15.0273 38.8602 15.1647C38.7255 15.4051 38.5881 15.6746 38.4586 15.9414L38.4269 15.9282C38.4216 15.9256 38.4164 15.9256 38.4111 15.9203L38.3952 15.8754L38.3292 15.6957C38.2737 15.5346 38.2208 15.3866 38.1865 15.1991C38.1733 15.104 38.1574 15.0088 38.1522 14.9058C38.1469 14.853 38.1469 14.8028 38.1469 14.7737C38.1469 14.7394 38.1469 14.705 38.1495 14.668C38.1601 14.388 38.2208 14.1106 38.3292 13.8464C38.3926 13.7064 38.4348 13.6219 38.4692 13.503C38.5035 13.392 38.5273 13.2758 38.5247 13.178C38.5247 13.1305 38.5141 13.0882 38.5062 13.0723C38.4956 13.0565 38.5035 13.0644 38.4903 13.0591C38.4639 13.0565 38.456 13.0539 38.4243 13.0671C38.3952 13.0803 38.3529 13.1067 38.3107 13.1437C37.7981 13.5902 37.3543 14.1449 37.0108 14.7394C36.9131 14.9085 36.8338 15.0617 36.7466 15.1911C36.6436 15.3444 36.5775 15.4289 36.6251 15.2334C36.6964 14.9507 36.8127 14.6469 37.0716 14.2453C37.349 13.8147 37.6819 13.4184 38.0544 13.0618C38.1469 12.9746 38.2393 12.8742 38.3794 12.8266C38.4507 12.8055 38.5273 12.8082 38.596 12.8372C38.6673 12.8636 38.7228 12.9297 38.7466 12.9984C38.7915 13.1384 38.7757 13.2758 38.7519 13.4052C38.7255 13.5347 38.6832 13.6615 38.6304 13.7804C38.4745 14.0815 38.3873 14.4065 38.382 14.7367C38.3794 14.8266 38.382 14.882 38.3899 14.9454C38.3952 15.0088 38.4058 15.0696 38.419 15.1277C38.4322 15.1859 38.4481 15.244 38.4665 15.2968C38.4745 15.3232 38.4877 15.3497 38.4983 15.3761C38.5035 15.4025 38.5115 15.3734 38.5167 15.3602L38.5379 15.3179C38.5934 15.2017 38.6515 15.0934 38.7096 14.9904L38.8232 14.8001L38.9685 14.5809C39.4229 13.9151 39.9778 13.3207 40.6145 12.8187L40.7122 12.9772C40.3318 13.1622 39.9566 13.3656 39.6766 13.6641C39.4309 13.9204 39.2882 14.2586 39.2988 14.6099C39.3014 14.6971 39.3173 14.7816 39.3384 14.8635C39.3648 14.9428 39.4018 15.0273 39.4362 15.0749C39.4546 15.1013 39.4731 15.1277 39.4969 15.1489C39.5075 15.1594 39.5207 15.1753 39.5313 15.1806L39.5735 15.1542C39.6317 15.1198 39.6713 15.0907 39.7532 15.03C40.3239 14.5914 40.7043 13.9019 40.7571 13.1807L40.8972 13.2282C40.6356 13.6298 40.5273 14.1291 40.5907 14.6046C40.6303 14.8345 40.6832 15.1013 40.8443 15.2308C41.0161 15.3655 41.2591 15.2598 41.4256 15.096C41.6052 14.9375 41.7188 14.7209 41.8483 14.5069C41.9777 14.2955 42.0993 14.0789 42.2182 13.8623C42.4586 13.429 42.6752 12.9825 42.8839 12.5308C43.2432 11.7355 43.5471 10.9139 43.7981 10.0791C44.1309 8.96157 44.3582 7.79914 44.4638 6.65784C44.5246 6.06078 44.551 5.46371 44.5669 4.86664L44.7148 4.90363C44.4401 5.43465 44.2076 5.98416 44.0173 6.54688C43.4599 8.21391 43.1798 9.98398 43.053 11.7223C43.0081 12.293 42.9632 12.8557 42.9156 13.4211C42.8892 13.7011 42.8839 13.9732 42.9156 14.2427C42.9447 14.5095 43.0134 14.7764 43.1428 14.9877C43.267 15.1938 43.4467 15.3232 43.666 15.3576C43.8773 15.3893 44.1045 15.3127 44.3132 15.1753C44.522 15.0405 44.7069 14.853 44.8865 14.6522C45.0662 14.4514 45.2326 14.2401 45.3832 14.0181C45.4229 13.96 45.4519 13.8966 45.4836 13.8332C45.6395 13.5637 45.7742 13.2811 45.9328 13.0274C46.0332 12.8636 46.0807 12.7051 46.1441 12.544C46.4162 11.8967 46.6065 11.1992 46.8495 10.5626L46.8469 10.5995L46.8548 10.552C46.9235 10.1557 47.1058 9.61147 47.1137 9.26539C47.1005 9.3103 47.0873 9.36578 47.0741 9.40012C47.0556 9.44503 47.0556 9.42126 47.0741 9.36049C47.0847 9.32086 47.1005 9.29445 47.1137 9.2601L47.1877 8.94836C47.1983 8.94836 47.2062 8.951 47.2141 8.95893L47.2115 9.00384L47.2141 8.95364C47.2141 8.93779 47.2168 8.90609 47.2141 8.90873C47.2062 8.91401 47.1956 8.93251 47.1851 8.94572C47.1851 8.85853 47.2009 8.73701 47.23 8.59963C47.2775 8.35129 47.2749 8.53887 47.296 8.49924C47.3541 8.40677 47.4889 7.59307 47.4545 7.26548C47.4466 7.13867 47.4387 7.02771 47.4308 6.89561C47.3885 6.97751 47.3674 6.91939 47.3753 6.66577C47.3753 6.32761 47.3911 6.38044 47.3832 6.31704C47.3832 6.29062 47.3436 6.31704 47.3251 6.33025C47.3145 6.33817 47.3039 6.35138 47.296 6.36195C47.2934 6.36724 47.2881 6.37516 47.2855 6.38309C47.2722 6.39894 47.2538 6.42536 47.2379 6.45178C47.1983 6.51518 47.1428 6.63407 47.0952 6.7688C47.0477 6.89825 47.0107 7.0462 46.9658 7.14659C46.7491 7.62742 46.625 8.1875 46.4981 8.74229C46.263 9.7647 46.086 10.8003 45.975 11.8439C45.9513 12.0552 45.9328 12.2824 45.8879 12.4356C45.8694 12.5598 45.8561 12.6893 45.8694 12.8108C45.8931 13.0169 45.9143 13.2626 45.9433 13.4739C45.9909 13.8464 46.1547 14.2031 46.4559 14.3986C46.7491 14.5967 47.1428 14.6099 47.4942 14.5095C47.6395 14.4699 47.7663 14.4091 47.8878 14.3193C48.2286 14.0604 48.4638 13.6932 48.7042 13.3207C48.8019 13.1727 48.868 12.9852 48.9129 12.8319C48.9525 12.6946 48.9658 12.5492 48.9288 12.4858C48.9103 12.4568 48.8918 12.433 48.8442 12.4172C48.7993 12.3987 48.7306 12.3987 48.6699 12.396H48.6646C48.4955 12.4066 48.3238 12.5123 48.2075 12.6681C48.0886 12.824 48.0226 13.0221 48.0146 13.215C48.0094 13.3788 48.0622 13.5611 48.1758 13.7117C48.2841 13.8623 48.44 13.9706 48.5853 14.0208C48.6593 14.1027 48.5747 14.0736 48.5272 14.071C48.7438 14.211 49.0107 14.2876 49.2828 14.3035C49.5523 14.3061 49.8376 14.2559 50.1203 14.174ZM38.4269 13.7645C38.4507 13.7222 38.4718 13.6879 38.4877 13.6456C38.5035 13.6113 38.5115 13.5743 38.5194 13.54C38.5009 13.5822 38.485 13.6219 38.4639 13.6615C38.4533 13.6958 38.4401 13.7275 38.4269 13.7645ZM38.2129 14.9085C38.2103 14.8768 38.2076 14.8424 38.205 14.8107C38.2024 14.8292 38.1997 14.853 38.1997 14.8741C38.2024 14.9111 38.2024 14.9639 38.205 14.9824C38.2182 15.0458 38.2156 15.0168 38.2129 14.9085ZM40.8998 13.2705C40.8972 13.289 40.8919 13.3154 40.8919 13.326C40.8919 13.363 40.8892 13.3973 40.8892 13.4316C40.8972 13.3762 40.8998 13.3233 40.8998 13.2705ZM40.5722 13.4686L40.5933 13.4264L40.5775 13.4396L40.5722 13.4686ZM42.7333 13.2784L42.7175 13.3233C42.4612 13.7804 42.6673 13.4924 42.6911 13.5003C42.7096 13.4607 42.7254 13.4237 42.7439 13.3867L42.7281 13.3128L42.7333 13.2784ZM43.0874 12.4885C43.0847 12.4858 43.0715 12.507 43.0636 12.5202C43.0557 12.5413 43.0477 12.5651 43.0398 12.5862C43.0425 12.5889 43.0425 12.6047 43.0477 12.5942C43.0794 12.5466 43.0926 12.5043 43.0874 12.4885ZM43.3225 11.9099L43.3093 11.9548L43.304 12.0367L43.3172 11.9416L43.3225 11.9099ZM43.6792 11.223L43.6184 11.2494C43.5761 11.3974 43.6237 11.334 43.6263 11.371C43.6475 11.3234 43.6633 11.2732 43.6792 11.223ZM44.0596 10.0183C44.0517 9.99983 44.0385 10.0236 44.0279 10.0764C44.0173 10.1187 44.0121 10.1636 44.0147 10.1821C44.0173 10.2112 44.0358 10.1768 44.049 10.124C44.0596 10.0844 44.057 10.0553 44.0596 10.0183ZM44.2578 9.23632C44.2498 9.2284 44.234 9.26274 44.2234 9.32615C44.2208 9.34464 44.2234 9.35785 44.2234 9.37106C44.234 9.3737 44.2472 9.342 44.2604 9.28124C44.2604 9.2601 44.2604 9.23897 44.2578 9.23632ZM44.7095 6.46499L44.728 6.53103L44.7333 6.56538L44.7307 6.52047C44.7227 6.49933 44.7333 6.37252 44.7095 6.46499ZM44.7809 5.58524L44.7703 5.59845L44.7756 5.62487L44.7809 5.58524ZM43.835 6.36988L43.843 6.32761L43.8483 6.29062L43.835 6.34082V6.36988ZM43.629 6.99336C43.6369 6.97487 43.6475 6.95373 43.6501 6.93788C43.666 6.87712 43.6633 6.85863 43.6448 6.89033C43.6422 6.89561 43.6343 6.9326 43.629 6.95373V6.99336ZM43.1719 8.59699L43.1851 8.57057C43.2644 8.35922 43.2987 8.13466 43.3357 7.9101L43.3542 7.87047L43.3383 7.89953C43.2512 8.10295 43.2485 8.34337 43.1878 8.55472L43.1719 8.59699ZM42.6911 12.8531L42.6937 12.8002L42.6858 12.8451L42.6911 12.8531ZM42.5933 13.4184L42.6039 13.4026L42.5986 13.3762L42.5933 13.4184ZM42.5035 14.1291C42.5114 14.0763 42.5061 14.034 42.4956 13.9917L42.5035 14.1291ZM43.0002 15.2572C43.0055 15.2545 42.9764 15.2123 42.9711 15.1859C42.9473 15.1594 42.9103 15.1092 42.9051 15.1092C42.8998 15.1092 42.9262 15.1674 42.9394 15.1991C42.9553 15.2228 42.9949 15.2598 43.0002 15.2572ZM45.8561 13.7909L45.8429 13.7989L45.8377 13.8226L45.8561 13.7909ZM46.16 13.2282C46.1547 13.2414 46.1441 13.2626 46.1441 13.2678C46.1441 13.2863 46.1468 13.2969 46.1468 13.3101L46.1336 13.3524L46.1547 13.3022L46.16 13.2282ZM46.6329 12.2296C46.551 12.3907 46.5219 12.4462 46.4955 12.5096C46.4691 12.5704 46.4215 12.6866 46.4242 12.6998C46.4268 12.7315 46.4638 12.6655 46.4981 12.5915C46.5246 12.5308 46.5483 12.4594 46.6329 12.2296ZM46.8918 11.4159C46.8892 11.408 46.868 11.4502 46.8548 11.4714C46.8363 11.5216 46.8284 11.5585 46.8416 11.5585C46.8495 11.5585 46.8654 11.5348 46.8759 11.5189C46.8786 11.4819 46.8944 11.4238 46.8918 11.4159ZM47.1084 10.729L47.0979 10.766L47.1111 10.7501L47.1084 10.729ZM47.1534 10.3829L47.1401 10.3935V10.4199L47.1534 10.3829ZM47.6844 7.98671C47.6818 7.98935 47.6765 8.0237 47.6738 8.04483C47.6738 8.06333 47.6738 8.09239 47.6765 8.09503C47.687 8.10031 47.695 8.06333 47.6923 8.0052C47.6923 7.98935 47.687 7.98143 47.6844 7.98671ZM47.6685 6.46763L47.6606 6.48348L47.6712 6.5099L47.6685 6.46763ZM46.9579 6.29855L46.9896 6.26684L47.0213 6.23778L46.9948 6.25892C46.9816 6.26949 46.9684 6.28534 46.9579 6.29855ZM47.0582 6.45706L47.0715 6.44913L47.0767 6.42536L47.0582 6.45706ZM46.3872 7.89425C46.3872 7.89689 46.4057 7.85462 46.4057 7.84669C46.411 7.81499 46.4136 7.78593 46.4189 7.75423L46.3819 7.84141C46.3845 7.8599 46.3845 7.88104 46.3872 7.89425ZM46.1309 8.66568C46.1256 8.64718 46.123 8.62605 46.1177 8.61284C46.1124 8.59963 46.1045 8.59699 46.0966 8.58906C46.0939 8.62605 46.0913 8.67096 46.0939 8.6921C46.0966 8.7238 46.1019 8.76871 46.1309 8.66568ZM45.9433 9.57449C45.9645 9.52957 45.975 9.47938 45.975 9.4239L45.9433 9.57449ZM46.0041 9.72507C46.0728 9.69073 46.0649 9.48995 46.0886 9.36049C46.0332 9.42126 46.012 9.56656 46.0041 9.72507ZM45.9169 9.89151C45.9328 9.88887 45.9513 9.88094 45.9777 9.79112C45.9618 9.77791 45.9433 9.80697 45.9169 9.89151ZM45.9328 10.478L45.9354 10.4252C45.9407 10.3512 45.9513 10.264 45.9513 10.2112C45.9513 10.161 45.9328 10.2059 45.9301 10.264C45.9248 10.3301 45.9301 10.3803 45.9328 10.4357V10.478ZM45.8561 10.7898V10.7448C45.8509 10.7237 45.8641 10.5995 45.835 10.692L45.8509 10.7581L45.8561 10.7898ZM45.983 13.997C45.9724 13.9838 45.9671 13.9679 45.9592 13.9547C45.9645 13.9706 45.9698 13.9864 45.9777 13.9996L45.983 13.997ZM47.8773 12.8161C47.8852 12.7976 47.8984 12.7738 47.901 12.7606C47.909 12.7236 47.9248 12.6919 47.9354 12.6576C47.9116 12.7104 47.8931 12.7632 47.8773 12.8161ZM48.5034 14.0815L48.5193 14.0604C48.5034 14.0551 48.4796 14.0419 48.4796 14.0446C48.4823 14.0525 48.4928 14.0683 48.5034 14.0815ZM49.3964 14.3933L49.4519 14.388L49.399 14.3854L49.3964 14.3933Z" fill="#262626"/>
<path d="M52.9897 8.57088C52.9739 8.629 52.8999 8.65542 52.9104 8.70561C52.7783 8.72411 52.6595 8.80336 52.5141 8.77166C52.4745 8.76374 52.4217 8.80336 52.3873 8.83771C52.3371 8.8879 52.2949 8.86413 52.2632 8.8245C52.2235 8.81657 52.1918 8.80865 52.1496 8.84035C52.0703 8.90111 51.9646 8.91168 51.8563 8.94338C51.8695 8.87734 51.9593 8.89055 51.9752 8.84299C51.9197 8.81922 51.8748 8.84828 51.8272 8.86413C51.8193 8.84828 51.8167 8.82714 51.785 8.82978C51.7823 8.82978 51.7744 8.83771 51.7744 8.84035C51.777 8.86413 51.8061 8.86149 51.8272 8.86413C51.7638 8.96716 51.6397 8.92489 51.5419 8.94867C51.5393 8.95131 51.5366 8.95924 51.534 8.95924C51.5234 8.95924 51.5261 8.95395 51.5393 8.94867C51.5525 8.91961 51.5789 8.89055 51.571 8.84563C51.5128 8.88526 51.46 8.91961 51.4098 8.95659C51.349 8.93282 51.4125 8.89583 51.386 8.86149C51.2671 8.89055 51.1879 9.04378 51.0267 8.95924C51.0373 8.93546 51.0479 8.91168 51.0584 8.88526C51.0769 8.8747 51.1113 8.89055 51.1165 8.86149C51.0928 8.86149 51.0743 8.87205 51.0558 8.88526C51.032 8.89319 51.0082 8.89847 50.9871 8.9064C50.9184 8.93282 50.9422 9.03057 50.8841 9.02528C50.8101 9.01736 50.7704 9.03849 50.7282 9.08076C50.6912 9.01736 50.7387 8.96716 50.7308 8.91961L50.7387 8.91168L50.7282 8.91961C50.6674 8.93546 50.6674 8.97509 50.6621 9.01207C50.6542 9.05963 50.6119 9.0834 50.5617 9.06491C50.5036 9.04378 50.5512 9.01207 50.5723 8.98565C50.5802 8.97509 50.5961 8.96452 50.5802 8.95131C50.464 8.97509 50.4217 9.04642 50.3794 9.12303L50.39 9.12832L50.3768 9.12567C50.3187 9.12567 50.2685 9.11775 50.2288 9.0834C50.2473 9.07284 50.2896 9.09133 50.2843 9.05699C50.2843 9.0517 50.2421 9.06755 50.2262 9.0834C50.1681 9.09926 50.1232 9.14681 50.0518 9.1336C50.0148 9.17587 49.9779 9.14945 49.9382 9.14153L49.9224 9.17323L49.8986 9.14681L49.8114 9.21286C49.7824 9.23399 49.7533 9.24192 49.7242 9.22078C49.6159 9.21814 49.6476 9.16794 49.6714 9.11775C49.6687 9.11511 49.6608 9.11246 49.6608 9.10718C49.6635 9.09661 49.6714 9.09661 49.682 9.10718L49.8458 9.03321C49.7876 9.01472 49.7374 9.06227 49.674 9.05434C49.608 9.04642 49.6106 9.09926 49.6027 9.1336C49.5868 9.20229 49.5393 9.21814 49.4627 9.18908L49.4521 9.1838L49.46 9.19172C49.4389 9.24192 49.4019 9.24192 49.3517 9.2155C49.3068 9.19172 49.3094 9.15209 49.3121 9.09397C49.2566 9.16794 49.3042 9.21814 49.3042 9.26834C49.2434 9.28683 49.2038 9.27626 49.1747 9.24456L49.1826 9.23663L49.1721 9.24192C48.995 9.2974 48.826 9.37665 48.6225 9.33703C48.5327 9.31853 48.4323 9.35552 48.3372 9.37137C48.2315 9.38722 48.213 9.37665 48.1972 9.28419C48.1681 9.40836 48.0519 9.40836 47.9435 9.40836C47.7982 9.40571 47.6608 9.44798 47.5208 9.46648C47.394 9.48233 47.2698 9.4929 47.143 9.50082C47.1642 9.47969 47.1906 9.46119 47.1747 9.43213C47.1298 9.44798 47.1536 9.47704 47.143 9.50082C47.1219 9.51139 47.1034 9.5246 47.0823 9.53252C47.0083 9.55102 46.9607 9.54309 46.9845 9.47176C46.9924 9.45063 46.9951 9.42685 46.966 9.411C46.9185 9.42685 46.9343 9.45855 46.929 9.48233C46.9158 9.53781 46.8762 9.55102 46.8048 9.56159C46.7362 9.57215 46.715 9.51403 46.6701 9.52988C46.6305 9.54309 46.6146 9.59065 46.5565 9.59593C46.4905 9.59857 46.4323 9.6382 46.361 9.61971C46.3161 9.60914 46.2791 9.63292 46.2448 9.65141C46.2315 9.66462 46.2183 9.66462 46.2025 9.65405C46.0677 9.65669 45.933 9.64348 45.7983 9.69632C45.6556 9.7518 45.6212 9.73595 45.5473 9.65669C45.4997 9.67519 45.5182 9.73331 45.468 9.74388C45.4046 9.75973 45.3333 9.7518 45.2699 9.7518C45.2144 9.7518 45.1642 9.73859 45.1246 9.77294C45.0559 9.8337 44.9555 9.77822 44.8762 9.83106C44.8339 9.85748 44.826 9.78086 44.7679 9.76501C44.7547 9.83106 44.715 9.85748 44.6173 9.8654C44.3927 9.87861 44.1655 9.88125 43.9436 9.93409C43.83 9.96051 43.7085 9.94994 43.5922 9.94202L43.6001 9.93409L43.5896 9.94202C43.5447 9.95523 43.4971 9.96315 43.4548 9.98165C43.3782 10.0133 43.3782 9.97372 43.3703 9.93673C43.2408 10.0345 43.0797 10.0398 42.9211 10.0318C42.8525 10.0292 42.7864 10.0133 42.7177 10.0028C42.7098 10.0371 42.7019 10.0741 42.6411 10.0424C42.4984 10.0715 42.3558 10.0583 42.2131 10.0556C42.1973 10.0662 42.184 10.0688 42.1708 10.0556C42.1286 10.0609 42.0863 10.0635 42.044 10.0715C41.9463 10.0926 41.8776 10.0715 41.8274 9.96579C41.8115 10.0424 41.8115 10.0952 41.7349 10.0952C41.6609 10.0952 41.5685 10.1375 41.5209 10.0794C41.4892 10.0371 41.4786 10.0451 41.4601 10.0768C41.4099 10.1771 41.3703 10.1111 41.328 10.0794C41.336 10.0715 41.3624 10.082 41.3545 10.0609L41.328 10.0794C41.2224 10.1613 41.0876 10.1164 40.9687 10.1428C40.9582 10.1534 40.9502 10.1666 40.9291 10.1587C40.9291 10.1587 40.9317 10.1507 40.9344 10.1507C40.9476 10.1481 40.9582 10.1454 40.9687 10.1402L41.0004 10.082C40.9634 10.0741 40.937 10.0847 40.908 10.1085C40.8657 10.1428 40.8155 10.1666 40.7521 10.1613C40.7415 10.156 40.7547 10.1349 40.7283 10.1428L40.7494 10.1613C40.7362 10.1824 40.7151 10.1904 40.6913 10.1771C40.657 10.1587 40.6358 10.1164 40.5962 10.1851C40.5724 10.2273 40.4958 10.2353 40.4351 10.2221C40.4113 10.2168 40.3954 10.2009 40.4113 10.1798C40.4192 10.1719 40.443 10.1692 40.4588 10.1639C40.472 10.1719 40.4853 10.1692 40.4958 10.1587L40.5037 10.1507L40.4932 10.1587C40.4826 10.1613 40.472 10.1639 40.4615 10.1613C40.3532 10.1164 40.2897 10.2062 40.2052 10.2273C40.1471 10.2405 40.089 10.2538 40.0335 10.267C40.0071 10.2723 39.9701 10.2855 39.9648 10.2485C39.9542 10.1719 39.9093 10.1904 39.8644 10.2326C39.8353 10.259 39.8142 10.2881 39.764 10.2855C39.6002 10.2696 39.4443 10.3304 39.2832 10.333C39.1801 10.3357 39.085 10.3594 38.9846 10.3885C38.7627 10.4466 38.5672 10.5497 38.3611 10.6183C38.2237 10.6659 38.0969 10.7399 37.9859 10.8244C37.9516 10.8482 37.9278 10.872 37.8908 10.8746C37.8459 10.8772 37.8116 10.872 37.8195 10.8138C37.8301 10.7293 37.8644 10.6553 37.949 10.5893C38.1313 10.4493 38.3479 10.3542 38.5672 10.2828C38.7865 10.2088 39.011 10.1375 39.2382 10.1032C39.5104 10.0635 39.7798 10.0266 40.0493 10.0028C40.8208 9.92881 41.587 9.85219 42.3584 9.77822C42.5513 9.75973 42.7441 9.74123 42.9396 9.72274C43.1986 9.69896 43.4575 9.66198 43.7111 9.61971C43.9753 9.57479 44.2421 9.55894 44.5037 9.51139C44.8921 9.4427 45.2884 9.42157 45.6688 9.33174C45.9171 9.27362 46.1708 9.28155 46.4165 9.21814C46.6516 9.15474 46.9 9.13624 47.1457 9.11246C47.1615 9.10982 47.1774 9.09661 47.1906 9.08869L47.1774 9.0834L47.1906 9.08605C47.2593 9.06755 47.3306 9.04113 47.3993 9.07019C47.4442 9.08869 47.4786 9.05963 47.5182 9.05434C47.6767 9.03585 47.8352 8.99622 47.9911 9.03585L47.9832 9.04378L47.9937 9.03849C48.0783 8.98565 48.2077 9.00679 48.2764 8.92489C48.2659 8.92489 48.2527 8.92489 48.2447 8.92225C48.2342 8.91697 48.2368 8.90904 48.2527 8.91168C48.2632 8.91168 48.2685 8.91961 48.2791 8.92489L48.3504 8.91961C48.353 8.92753 48.353 8.9381 48.353 8.94603C48.3557 8.94338 48.3636 8.9381 48.361 8.93546C48.3583 8.93017 48.353 8.92225 48.3504 8.91697C48.3663 8.89319 48.3953 8.88526 48.427 8.88262C48.4851 8.87734 48.4455 8.91432 48.4561 8.92753C48.4825 8.95659 48.6701 8.95659 48.7414 8.92489C48.7678 8.91432 48.7943 8.90111 48.8233 8.89847C48.7995 8.85884 48.8101 8.82714 48.8735 8.85356C49.0135 8.91432 49.003 8.9064 49.1404 8.84035C49.1826 8.82186 49.2724 8.77695 49.3226 8.80072C49.4468 8.85884 49.571 8.82186 49.6978 8.80865L50.3979 8.73996C50.4455 8.73468 50.4957 8.72675 50.5353 8.75581C50.5644 8.76109 50.5934 8.76638 50.6199 8.74789C50.6648 8.71618 50.7203 8.70297 50.7731 8.70561C50.9554 8.72147 51.1377 8.66863 51.32 8.68448C51.357 8.68712 51.3887 8.68712 51.4257 8.67391C51.5261 8.64221 51.6238 8.61051 51.7295 8.64485C51.7718 8.65806 51.814 8.63957 51.851 8.62372C51.9197 8.59466 51.991 8.59466 52.0624 8.60258C52.1601 8.61579 52.2605 8.60258 52.3556 8.59994C52.4375 8.59994 52.5406 8.59201 52.6093 8.53125C52.6383 8.56031 52.6172 8.58145 52.6093 8.60258C52.7308 8.59466 52.855 8.56295 52.9897 8.57088ZM38.6306 10.436C38.62 10.436 38.6095 10.436 38.5989 10.4387C38.591 10.4413 38.583 10.4493 38.5777 10.4519L38.6095 10.4493L38.6306 10.436ZM38.8525 10.3515C38.8472 10.3515 38.8419 10.3568 38.8393 10.3594L38.8499 10.3647C38.8552 10.3647 38.8631 10.3647 38.8657 10.3621C38.8763 10.3515 38.871 10.3462 38.8525 10.3515ZM41.0348 10.053C41.0295 10.053 41.0242 10.0503 41.0216 10.053C41.0136 10.0583 41.0084 10.0635 41.0004 10.0688L41.0348 10.053ZM41.1352 10.053H41.1246L41.1299 10.0609L41.1352 10.053ZM42.2131 9.96844L42.2025 9.97636C42.0863 9.96844 42.1682 10.0133 42.1708 10.0371C42.1814 10.0345 42.1893 10.0318 42.1973 10.0292L42.2052 9.979L42.2131 9.96844ZM42.4007 9.93409C42.4007 9.93145 42.3954 9.92617 42.3928 9.92617C42.3875 9.92617 42.3822 9.93145 42.3769 9.93409C42.3769 9.93938 42.3743 9.94466 42.3769 9.94466C42.3901 9.94994 42.4007 9.9473 42.4007 9.93409ZM42.5381 9.91031L42.5275 9.9156L42.5143 9.94466L42.5328 9.9156L42.5381 9.91031ZM42.7151 9.98165L42.6992 9.93673C42.6675 9.94994 42.686 9.97108 42.6807 9.98693L42.7151 9.98165ZM42.9898 9.94202C42.9925 9.93145 42.9846 9.92352 42.974 9.92881C42.9661 9.93145 42.9555 9.94202 42.9529 9.94994C42.9476 9.96051 42.9581 9.96844 42.9687 9.96315C42.9793 9.95787 42.9846 9.94994 42.9898 9.94202ZM43.1669 9.91296C43.1669 9.90239 43.1589 9.8971 43.1457 9.90239C43.1431 9.90239 43.1404 9.91031 43.1378 9.91296C43.1378 9.92352 43.1457 9.92881 43.1616 9.92352C43.1616 9.92352 43.1669 9.91824 43.1669 9.91296ZM43.7772 9.82577L43.7666 9.85219L43.7613 9.86012L43.7692 9.85219C43.7719 9.84427 43.8009 9.83634 43.7772 9.82577ZM43.9727 9.80728L43.97 9.79936L43.9647 9.80728H43.9727ZM44.501 9.71746L44.4931 9.72274L44.4852 9.73067L44.4958 9.72538L44.501 9.71746ZM44.6437 9.70161C44.6384 9.69896 44.6331 9.69632 44.6305 9.69896C44.6173 9.70161 44.6147 9.70953 44.6226 9.71746C44.6226 9.71746 44.6305 9.71482 44.6358 9.71482L44.6437 9.70161ZM45.0136 9.70953L45.0057 9.70161C44.9528 9.67254 44.9053 9.69368 44.8577 9.71482L44.8471 9.70953L44.8551 9.71746C44.9079 9.7518 44.9528 9.69368 45.003 9.70425L45.0136 9.70953ZM45.9462 9.53781L45.9356 9.54045L45.9462 9.54309V9.53781ZM46.0783 9.57215L46.073 9.56423L46.0677 9.57215H46.0783ZM46.2368 9.63556C46.2263 9.62499 46.2157 9.63027 46.2078 9.64084C46.2183 9.6382 46.2289 9.63556 46.2368 9.63556ZM46.4746 9.46119C46.4746 9.45591 46.464 9.45063 46.4561 9.44534C46.4482 9.45063 46.4376 9.45855 46.4376 9.46384C46.4376 9.46912 46.4508 9.4744 46.4587 9.47969C46.4667 9.4744 46.4746 9.46648 46.4746 9.46119ZM47.2698 9.37137L47.2672 9.36344L47.2619 9.37137H47.2698ZM47.4099 9.35816C47.4072 9.3608 47.4019 9.3608 47.4019 9.36344C47.3993 9.37137 47.3993 9.3793 47.3967 9.38722L47.3887 9.39515L47.3993 9.38986L47.4099 9.35816ZM47.6556 9.37137C47.6133 9.35816 47.6001 9.35023 47.5842 9.35023C47.5684 9.35023 47.542 9.35552 47.5393 9.3608C47.534 9.37401 47.5525 9.38458 47.571 9.38458C47.5842 9.38458 47.6001 9.3793 47.6556 9.37137ZM47.8379 9.3291C47.8379 9.32382 47.8273 9.31853 47.822 9.31061C47.8088 9.31061 47.8009 9.31589 47.8035 9.32646C47.8062 9.33438 47.8114 9.33967 47.8167 9.34495C47.8246 9.34231 47.8379 9.33703 47.8379 9.3291ZM47.999 9.32382H47.9911L47.9964 9.33174L47.999 9.32382ZM48.0677 9.26569L48.0624 9.25777L48.0571 9.26569H48.0677ZM48.6093 9.21021C48.6093 9.20757 48.6014 9.20757 48.5961 9.20757C48.5935 9.21021 48.5855 9.2155 48.5855 9.21814C48.5855 9.22871 48.5935 9.23135 48.6067 9.22078C48.6093 9.21814 48.6093 9.21286 48.6093 9.21021ZM48.9396 9.15209L48.9343 9.14417L48.929 9.15209H48.9396ZM49.18 9.1336L49.1694 9.12832L49.1588 9.12303L49.1668 9.13096L49.18 9.1336ZM49.18 8.96188L49.1747 8.95395L49.1694 8.96188H49.18ZM49.5499 9.11246L49.5393 9.10718C49.5314 9.10982 49.5261 9.11775 49.5208 9.12039L49.5419 9.13096C49.5446 9.12567 49.5499 9.12039 49.5499 9.11246ZM49.7374 9.16002C49.7348 9.16794 49.7322 9.17851 49.7295 9.18644C49.7269 9.19436 49.7295 9.20493 49.7269 9.21286C49.7348 9.20493 49.7427 9.19965 49.748 9.19172C49.7533 9.17851 49.7612 9.1653 49.7374 9.16002ZM49.9409 9.13624C49.9303 9.12567 49.9171 9.12567 49.9065 9.13888L49.9409 9.13624ZM49.962 9.04642C49.9462 8.98565 49.9065 9.03849 49.8775 9.04113C49.896 9.08076 49.9277 9.06755 49.962 9.04642ZM50.0069 9.09661C50.0043 9.08076 49.999 9.06491 49.9779 9.05699C49.9779 9.07548 49.9858 9.08869 50.0069 9.09661ZM50.1205 8.9698L50.11 8.97773C50.0941 8.98565 50.0756 8.99094 50.065 9.00151C50.0545 9.00943 50.0677 9.02 50.0783 9.01207C50.0915 9.00415 50.102 8.99094 50.1126 8.98037L50.1205 8.9698ZM50.1945 8.99094L50.1866 8.99886C50.1839 9.00943 50.1549 9.01472 50.1786 9.02792L50.1892 9.00151L50.1945 8.99094ZM50.9052 8.80072L50.8946 8.80601L50.9052 8.80865V8.80072ZM52.2949 8.80865C52.2896 8.80865 52.2843 8.80601 52.2817 8.80865C52.2737 8.81393 52.2684 8.81922 52.2605 8.8245L52.2949 8.80865ZM52.6093 8.62107L52.6066 8.59466C52.604 8.5973 52.5961 8.60258 52.5987 8.60258C52.6013 8.61051 52.6066 8.61579 52.6093 8.62107ZM52.8312 8.67655L52.8418 8.67127L52.8285 8.66863L52.8312 8.67655Z" fill="#262626"/>
</g>
<defs>
<clipPath id="clip0_552_298465">
<rect width="53" height="24" fill="white"/>
</clipPath>
</defs>
</svg>
