<svg width="50" height="22" viewBox="0 0 50 22" fill="none" xmlns="http://www.w3.org/2000/svg">
<g clip-path="url(#clip0_552_298686)">
<path d="M40.2237 7.95816C40.0969 8.01237 39.6388 8.01976 39.6656 8.06904C38.8737 8.0444 38.128 8.08628 37.28 8.00497C37.0534 7.9828 36.7147 8.00005 36.4808 8.01976C36.1543 8.04932 35.9203 8.01237 35.7546 7.96062C35.5256 7.93845 35.3428 7.91874 35.0772 7.93352C34.5777 7.95816 33.9417 7.92366 33.2862 7.90888C33.4129 7.85221 33.9246 7.90395 34.0465 7.86453C33.7321 7.81772 33.4446 7.82757 33.157 7.82264C33.1156 7.8054 33.1229 7.78322 32.928 7.77337C32.906 7.7709 32.8597 7.77583 32.8597 7.77829C32.8622 7.80293 33.0254 7.81032 33.1522 7.82264C32.7111 7.8941 32.002 7.79801 31.4123 7.77337C31.3977 7.77583 31.3758 7.78076 31.366 7.77829C31.3075 7.77337 31.3221 7.7709 31.405 7.7709C31.5025 7.74873 31.6706 7.73394 31.6657 7.68959C31.2978 7.69945 30.9664 7.7093 30.6374 7.71916C30.3011 7.66742 30.6886 7.66249 30.5643 7.61814C29.8479 7.59104 29.2753 7.69698 28.3883 7.53437C28.4614 7.51712 28.5442 7.49987 28.6271 7.48262C28.7416 7.48262 28.9341 7.51465 28.9829 7.48755C28.8391 7.47523 28.7197 7.47523 28.6149 7.48016C28.476 7.47523 28.3347 7.4703 28.1982 7.46538C27.7791 7.45552 27.8424 7.559 27.511 7.52451C27.0749 7.47769 26.8312 7.48016 26.5534 7.49741C26.3804 7.41856 26.6899 7.39639 26.6752 7.34711L26.7313 7.34218L26.6704 7.34464C26.3 7.32493 26.278 7.36435 26.2171 7.39392C26.1391 7.43334 25.8784 7.43581 25.586 7.38899C25.2546 7.33725 25.5616 7.33479 25.7054 7.32C25.7639 7.31508 25.8662 7.31261 25.7736 7.29044C25.067 7.24855 24.7697 7.29537 24.4821 7.34464L24.5431 7.3545L24.4724 7.34464C24.1386 7.31508 23.834 7.27812 23.6293 7.22391C23.7462 7.22391 23.9875 7.2658 23.9777 7.22884C23.9777 7.22884 23.9144 7.22391 23.8388 7.22145C23.7633 7.21898 23.6756 7.21898 23.622 7.22145C23.2686 7.2042 22.9665 7.22391 22.5571 7.16724C22.3134 7.18449 22.1063 7.14014 21.8894 7.11057L21.7749 7.13275L21.6604 7.09332C21.4727 7.09579 21.2827 7.10072 21.0975 7.10318C20.9147 7.10811 20.7417 7.09825 20.5809 7.05883C19.94 6.98984 20.1691 6.96274 20.347 6.93317C20.325 6.92824 20.2836 6.92085 20.2885 6.91839C20.3055 6.91099 20.3591 6.91592 20.4201 6.9307L21.4362 6.95781C21.1048 6.90606 20.7856 6.92331 20.4152 6.8765C20.035 6.82968 20.0156 6.87896 19.9449 6.90853C19.8036 6.9652 19.5038 6.94795 19.0823 6.8765L19.0262 6.86418L19.075 6.8765C18.9068 6.91099 18.69 6.88882 18.4292 6.83461C18.1904 6.78533 18.2294 6.75084 18.2757 6.6991C17.9029 6.73605 18.1392 6.80997 18.1051 6.85679C17.7323 6.83708 17.5081 6.80258 17.357 6.7533L17.4058 6.75084H17.34C16.2581 6.68924 15.2103 6.66214 14.0479 6.48966C13.5289 6.41328 12.9197 6.38125 12.3495 6.33197C11.7159 6.27284 11.6233 6.25066 11.5941 6.15457C11.3382 6.2482 10.6559 6.16935 10.0078 6.09051C9.15732 5.98949 8.32151 5.9205 7.48083 5.83672C6.73274 5.76281 5.98953 5.66671 5.24632 5.57801C5.3779 5.57555 5.55822 5.58048 5.47781 5.53859C5.20733 5.51888 5.31454 5.56323 5.23657 5.57555C5.10742 5.56816 4.98558 5.56816 4.85156 5.55584C4.40807 5.51641 4.13515 5.46714 4.32034 5.42032C4.37639 5.40554 4.41781 5.38829 4.26186 5.34887C3.97189 5.32176 4.04255 5.36365 3.98894 5.38336C3.87198 5.42278 3.62587 5.40061 3.19456 5.34887C2.79006 5.30205 2.69746 5.2306 2.43672 5.20842C2.19792 5.18871 2.06634 5.21335 1.72763 5.16654C1.53512 5.13943 1.34505 5.11972 1.15499 5.09755C1.05995 5.08523 0.962481 5.07291 0.867447 5.06059C0.730988 5.03841 0.594529 5.01624 0.45076 4.99406C0.341106 4.97435 0.233888 4.9571 0.131544 4.93986L0.0486937 4.93246C0.024326 4.92754 -0.0195358 4.93246 0.00970542 4.90043L0.0828084 4.75999C0.177842 4.57027 0.275313 4.40272 0.372784 4.22532C0.421519 4.13662 0.472691 4.06763 0.528737 4.01342C1.07457 3.34324 1.75443 2.88987 2.48546 2.43651C3.25791 1.9733 3.45773 1.92155 3.84274 1.85749C4.1254 1.73676 4.03281 1.70719 4.3374 1.60371C4.72485 1.47805 5.15615 1.41399 5.56066 1.42384C5.90668 1.42877 6.21371 1.50022 6.49881 1.55936C6.74005 1.60863 6.99104 1.7269 7.22253 1.88213C7.45402 2.03736 7.66846 2.22462 7.87071 2.40448C8.08271 2.6016 8.02666 2.64841 8.2143 2.94654C8.3337 3.018 8.53351 3.2299 8.76988 3.80645C9.03305 4.46925 9.15001 5.17146 9.2085 5.86136C9.26454 6.55372 9.26942 7.23869 9.26942 7.93106C9.26698 8.6382 9.19144 9.35274 9.09153 10.0402V9.97857L9.0891 10.0476C9.06716 10.3285 9.03061 10.6192 9.00137 10.8853C8.9502 11.3633 8.91121 11.3313 8.87222 11.3485L8.87466 11.2918L8.87222 11.3534C8.80887 12.2084 8.58225 13.1496 8.2874 14.0613C8.22648 14.251 8.15825 14.4309 8.09489 14.6132L7.68308 14.4284C7.7903 14.2559 7.89752 14.0859 8.00473 13.9159C8.01204 13.8346 8.01692 13.7656 8.2143 13.4773C8.62611 12.7111 9.0233 11.9744 9.42293 11.2302C9.45705 11.1391 9.49603 11.0627 9.53746 11.0085C9.64711 10.7793 9.76408 10.5502 9.86642 10.3211C10.1101 9.78639 10.2977 9.43405 10.4878 9.28129C10.4805 9.12113 10.4561 9.05707 10.6438 8.64806C10.8289 8.25629 11.0288 7.69945 11.1725 7.50973C11.2773 7.37421 11.2992 7.31015 11.3163 7.18449C11.3723 6.80012 11.5064 6.65721 11.6258 6.4527C11.616 6.49952 11.5429 6.64243 11.577 6.61779L11.6282 6.45024C11.8134 5.78745 12.1472 5.08523 12.3763 4.39779C12.3909 4.33127 12.3982 4.27213 12.4494 4.15879C12.4494 4.15633 12.4518 4.17358 12.447 4.19082C12.425 4.25489 12.4031 4.32141 12.3836 4.38794L12.3544 4.62447C12.4396 4.42243 12.4884 4.26228 12.5298 4.0898C12.5932 3.82124 12.6809 3.51325 12.81 3.16091C12.832 3.10916 12.8222 3.21018 12.8685 3.0451L12.81 3.15105C12.8222 3.05496 12.8588 2.92437 12.9124 2.80856C12.9441 2.74943 12.9684 2.72726 12.9928 2.67551C13.0147 2.6287 13.0318 2.56464 13.0001 2.54985C12.9928 2.54739 12.9879 2.54246 12.9879 2.53261C12.983 2.51289 12.9879 2.48333 13.0025 2.43405C13.0123 2.40448 13.0245 2.37245 13.0367 2.34288C13.0367 2.33056 13.0172 2.35274 13.0099 2.35274C12.9928 2.36013 12.9855 2.34288 13.0537 2.23447C13.0878 2.18273 13.139 2.12606 13.1829 2.06692C13.1829 2.06939 13.1853 2.06692 13.1829 2.07185L13.1731 2.09649L13.1585 2.13345C13.1561 2.15316 13.1561 2.16302 13.1585 2.16795C13.1609 2.16795 13.1634 2.16795 13.1658 2.16795V2.1507C13.1707 2.12359 13.1877 2.07924 13.1999 2.04229C13.1561 2.05953 13.0464 2.18519 12.9562 2.301C12.8831 2.39463 12.8198 2.48579 12.7686 2.56217C12.7394 2.60406 12.7272 2.62623 12.6931 2.67305C12.6443 2.73465 12.598 2.79378 12.5469 2.85538C12.3251 3.12395 12.0985 3.39498 11.8743 3.66601C11.7671 3.7966 11.6258 3.96907 11.5965 3.94936C11.5332 3.90747 11.3577 4.12676 11.192 4.37808C11.0872 4.53577 11.0093 4.66636 10.8095 4.88319C10.1588 5.58787 9.54477 6.35661 8.9039 7.06868C8.48478 7.53437 8.10464 7.99019 7.70014 8.46819C6.80341 9.53261 5.95054 10.597 5.00995 11.6639C4.39101 12.3661 3.77695 13.0905 3.16775 13.8075C2.99474 14.012 2.84366 14.1919 2.69015 14.3373C2.50983 14.5097 2.39774 14.5984 2.54151 14.3693C2.74863 14.0391 2.99718 13.6942 3.40168 13.2063C4.26674 12.1641 5.15372 11.1292 6.03583 10.0919C6.92037 9.05214 7.79274 7.99758 8.67728 6.97259C9.73728 5.74309 10.7973 4.51113 11.8597 3.27917L13.1073 1.84271L13.4753 1.54211C13.4607 1.68994 13.4338 1.85995 13.4119 2.01765L13.1414 2.86523L12.9246 3.51078C12.7784 3.9395 12.6273 4.36823 12.4713 4.79449C12.157 5.64454 11.8305 6.49213 11.482 7.32986C10.7875 9.00533 10.0199 10.6488 9.18657 12.2577C8.77963 13.0363 8.3605 13.8075 7.92676 14.5689L7.82929 14.5245C7.91701 14.251 8.0023 13.9775 8.08027 13.7016C8.50914 12.2084 8.77475 10.6537 8.87466 9.12606C8.92583 8.32775 8.94776 7.52697 8.92339 6.73113C8.89903 5.93528 8.82836 5.13943 8.59443 4.3904C8.42386 3.83848 8.16069 3.31367 7.79517 2.87263C7.42966 2.43405 6.9618 2.07432 6.42571 1.89938C5.88962 1.72198 5.30723 1.73922 4.75653 1.86981C4.20338 2.0004 3.67704 2.23447 3.17019 2.49811C2.51226 2.84552 1.86896 3.22497 1.33043 3.72022C1.19397 3.84341 1.0697 3.97646 0.950297 4.11198C0.894251 4.18343 0.833332 4.24996 0.78216 4.32634L0.701747 4.43722L0.660322 4.50128C0.633518 4.54316 0.61646 4.57766 0.596966 4.61462C0.572598 4.63926 0.618897 4.6294 0.633517 4.63679L0.696873 4.64419L1.15499 4.69593C2.58293 4.86594 4.03768 5.04088 5.48756 5.21335C5.58015 5.22321 5.67762 5.22321 5.77266 5.22814C6.19178 5.26509 6.61821 5.29713 7.01053 5.37597C7.26396 5.42525 7.48327 5.42278 7.71476 5.44742C8.65048 5.54598 9.60813 5.62729 10.4951 5.7702L10.4464 5.77266L10.5122 5.77513C11.0434 5.78498 11.7915 5.89339 12.2471 5.86629C12.1838 5.8589 12.1107 5.85151 12.0619 5.84165C11.9986 5.82933 12.0303 5.8244 12.1131 5.83672C12.1667 5.84412 12.2057 5.85644 12.252 5.86629L12.6785 5.90818C12.6809 5.91803 12.6785 5.92542 12.6711 5.93528L12.6102 5.93774H12.676C12.6979 5.93774 12.7369 5.93774 12.7345 5.93528C12.7272 5.92789 12.7004 5.91803 12.6809 5.91064C12.7954 5.90079 12.9611 5.90818 13.1487 5.92789C13.4899 5.96238 13.2365 5.96978 13.295 5.98949C13.429 6.03384 14.5255 6.15703 14.9714 6.17674C15.1396 6.18414 15.2931 6.1866 15.4783 6.20385C15.3735 6.15211 15.4539 6.12993 15.8024 6.19399C16.5773 6.3369 16.5237 6.32458 17.379 6.35168C17.6348 6.35908 18.1977 6.37632 18.478 6.4256C19.1651 6.55372 19.923 6.59315 20.6759 6.65721L24.8379 6.98737C25.1181 7.00955 25.4203 7.0268 25.6274 7.07608C25.7956 7.09579 25.9686 7.11796 26.1343 7.11303C26.4145 7.10564 26.7556 7.12535 27.0578 7.15492C28.1178 7.26087 29.229 7.30768 30.2841 7.40624C30.501 7.42595 30.6935 7.44074 30.9128 7.44566C31.5195 7.46045 32.1263 7.48016 32.7233 7.559C32.9645 7.59104 33.218 7.59104 33.4494 7.59104C33.8783 7.5935 34.2926 7.62307 34.7093 7.66249H34.7166C35.277 7.7167 35.8789 7.73887 36.4515 7.77583C36.9365 7.8054 37.5505 7.83989 37.994 7.79801C38.1451 7.83743 38.0135 7.84975 37.955 7.86946C38.6812 7.89903 39.422 7.92859 40.2237 7.95816ZM6.24052 10.1363L6.11137 10.2742C6.07725 10.3137 6.04557 10.3556 6.0139 10.3974L6.14304 10.257L6.24052 10.1363ZM7.16892 9.01518C7.14699 9.03982 7.12994 9.06692 7.11044 9.09156L7.15674 9.05214C7.18111 9.02504 7.21279 8.99054 7.22497 8.9733C7.26152 8.91663 7.23959 8.93387 7.16892 9.01518ZM12.291 4.83144C12.3008 4.80927 12.3129 4.77724 12.3178 4.76492C12.33 4.7181 12.3397 4.67868 12.3495 4.63433L12.291 4.83144ZM12.0741 5.37843L12.0961 5.32176L12.079 5.33901L12.0741 5.37843ZM9.46679 11.2943L9.48872 11.2352C9.81038 10.6266 9.55939 11.0183 9.53746 11.0085C9.51553 11.0602 9.49116 11.1095 9.46923 11.1588L9.47898 11.2475L9.46679 11.2943ZM8.95995 12.3144C8.95995 12.3193 8.98188 12.2922 8.99162 12.2749C9.00625 12.2478 9.01843 12.2183 9.03061 12.1912C9.02818 12.1862 9.03061 12.169 9.0233 12.1813C8.98188 12.2429 8.95751 12.2947 8.95995 12.3144ZM8.58468 13.0486L8.60905 12.9944L8.63342 12.8885L8.59687 13.0092L8.58468 13.0486ZM8.02179 13.8913L8.09246 13.8642C8.18262 13.6843 8.11439 13.7607 8.1217 13.7114C8.1217 13.7139 8.1217 13.7139 8.11926 13.7163L8.1217 13.7114L8.02179 13.8913ZM8.35563 13.6055C8.35075 13.5833 8.3337 13.6153 8.31664 13.6868C8.30202 13.7434 8.29471 13.8001 8.29471 13.8272C8.29471 13.8642 8.31664 13.8174 8.3337 13.7459C8.34588 13.6892 8.34832 13.6498 8.35563 13.6055ZM8.60662 12.5608C8.59931 12.5509 8.58225 12.5953 8.56519 12.6815C8.56032 12.7061 8.56275 12.7209 8.56032 12.7431C8.57006 12.7456 8.58712 12.7037 8.60174 12.6199C8.60905 12.5928 8.60905 12.5632 8.60662 12.5608ZM9.12077 8.86242L9.14027 8.94866L9.14514 8.99301L9.1427 8.93141C9.13539 8.90677 9.1427 8.73922 9.12077 8.86242ZM9.16951 7.68959L9.15976 7.70684L9.16707 7.74133L9.16951 7.68959ZM8.84298 4.45939L8.86248 4.5136L8.88197 4.56041L8.86004 4.49635L8.84298 4.45939ZM8.54082 3.62905C8.55057 3.65615 8.56032 3.68572 8.57006 3.70543C8.60905 3.78181 8.62124 3.80152 8.61149 3.75225C8.61149 3.74485 8.58712 3.7005 8.5725 3.6734L8.54082 3.62905ZM7.10069 1.89691L7.12994 1.92402C7.37117 2.1162 7.61973 2.301 7.84634 2.52275L7.88046 2.56956C7.87315 2.55724 7.86584 2.54492 7.85853 2.53261C7.68064 2.28375 7.40042 2.11127 7.14943 1.93634L7.10069 1.89691ZM1.72519 3.06481L1.78367 3.02046L1.7325 3.05249L1.72519 3.06481ZM1.09407 3.51817L1.116 3.51078L1.13793 3.48122L1.09407 3.51817ZM0.414209 4.17604C0.462944 4.12676 0.494622 4.07748 0.51899 4.02821L0.414209 4.17604ZM1.328 4.98667C1.33043 4.98174 1.27195 4.96696 1.24027 4.9571C1.19641 4.9571 1.11843 4.95218 1.116 4.9571C1.11356 4.96203 1.18666 4.97928 1.22809 4.98913C1.26464 4.98913 1.32556 4.9916 1.328 4.98667ZM6.04314 5.56569L6.02852 5.55584L5.99684 5.56076L6.04314 5.56569ZM6.87164 5.66179C6.85214 5.66179 6.82047 5.65686 6.81559 5.65932C6.79366 5.66425 6.78148 5.66918 6.76442 5.67657H6.70594L6.7766 5.67903L6.87164 5.66179ZM8.29715 5.85397C8.06565 5.81208 7.98524 5.79484 7.89752 5.78252C7.80979 5.7702 7.64897 5.75788 7.63191 5.76034C7.59536 5.7702 7.69283 5.78991 7.79274 5.80469C7.8829 5.81701 7.98037 5.8244 8.29715 5.85397ZM9.41075 5.95253C9.4205 5.9476 9.35958 5.93528 9.33033 5.92543C9.25967 5.91557 9.21093 5.91557 9.21337 5.92543C9.21581 5.93282 9.25236 5.94267 9.27185 5.95253C9.32059 5.95253 9.39856 5.95746 9.41075 5.95253ZM10.3513 6.05848L10.3002 6.05355L10.3245 6.0634L10.3513 6.05848ZM10.8046 6.05355L10.7875 6.04369L10.7534 6.04862L10.8046 6.05355ZM14.0114 6.36647C14.0089 6.364 13.9626 6.35908 13.9334 6.35661C13.9115 6.35661 13.87 6.35661 13.8676 6.35908C13.8603 6.36893 13.909 6.37632 13.9846 6.37632C14.0089 6.37632 14.0187 6.37139 14.0114 6.36647ZM15.99 6.52662L15.973 6.51677L15.9364 6.52169L15.99 6.52662ZM17.4204 6.65967L17.3668 6.64735L17.3156 6.63503L17.3546 6.64735L17.4204 6.65967ZM17.5374 6.50198L17.5203 6.49213L17.4862 6.49705L17.5374 6.50198ZM19.6159 6.86664C19.6184 6.86664 19.5623 6.85432 19.5526 6.85432C19.5087 6.85432 19.4697 6.85679 19.4307 6.85679L19.5501 6.87896C19.5745 6.8765 19.6013 6.87157 19.6159 6.86664ZM20.6735 7.02187C20.6515 7.02926 20.6247 7.03419 20.6077 7.04158C20.5931 7.04897 20.5882 7.05636 20.5809 7.06376C20.6272 7.06129 20.6881 7.06129 20.7149 7.05636C20.7539 7.04897 20.8099 7.03912 20.6735 7.02187ZM21.8846 7.1155C21.8236 7.10072 21.7554 7.09332 21.6847 7.09825L21.8846 7.1155ZM22.0722 7.04404C22.0186 6.97998 21.7554 7.00462 21.5824 6.98984C21.6701 7.03912 21.8602 7.04651 22.0722 7.04404ZM22.3012 7.1155C22.2964 7.09825 22.2817 7.081 22.1623 7.06376C22.1428 7.081 22.1843 7.09825 22.3012 7.1155ZM23.0615 7.06376H22.9908C22.8934 7.06129 22.7788 7.05637 22.7082 7.05883C22.6448 7.06129 22.7057 7.07608 22.7788 7.07608C22.8666 7.07608 22.9299 7.06868 23.003 7.06622L23.0615 7.06376ZM23.4806 7.12535L23.4222 7.12782C23.3978 7.13521 23.2296 7.12535 23.3539 7.14999L23.4368 7.13028L23.4806 7.12535ZM27.7913 7.32247H27.723L27.7888 7.32986L27.7913 7.32247ZM35.9666 7.96062C35.9423 7.95816 35.9081 7.9557 35.8935 7.9557C35.8472 7.95816 35.8058 7.96062 35.7644 7.96309L35.9666 7.96062ZM37.9502 7.89656L37.955 7.87192C37.9331 7.87439 37.8941 7.87439 37.8965 7.87685C37.9063 7.88178 37.9307 7.88917 37.9502 7.89656ZM39.2197 8.01729L39.2904 8.01483L39.2221 8.00744L39.2197 8.01729Z" fill="#262626"/>
<path d="M39.6699 8.07109C40.1159 8.12776 40.574 8.13022 41.1685 8.10805C40.5813 8.07602 40.1305 8.03413 39.6699 8.07109Z" fill="#262626"/>
<path d="M41.4856 8.01465C41.4271 8.01711 41.3272 8.01711 41.315 8.02204C41.2785 8.03682 41.3662 8.04914 41.4856 8.05407C41.5441 8.05654 41.6513 8.05161 41.661 8.04668C41.6878 8.0319 41.5977 8.01958 41.4856 8.01465Z" fill="#262626"/>
<path d="M28.142 7.58396C28.0738 7.59381 28.125 7.6086 28.2395 7.61845C28.3443 7.62831 28.432 7.62831 28.4807 7.61845C28.4588 7.6086 28.4515 7.59874 28.4076 7.59135C28.3029 7.57657 28.2029 7.57657 28.142 7.58396Z" fill="#262626"/>
<path d="M26.0034 11.4549C25.9352 11.5042 25.7621 11.5682 25.6086 11.615C25.4551 11.6618 25.3211 11.6914 25.3406 11.7136C25.0872 11.7358 24.8216 11.7308 24.5803 11.6101C24.4658 11.5485 24.3488 11.4598 24.283 11.3292C24.2148 11.2036 24.1929 11.0606 24.2075 10.9202C24.2245 10.7798 24.283 10.6295 24.417 10.5334C24.5511 10.4422 24.7241 10.4274 24.8727 10.4989C25.0189 10.5728 25.1091 10.7034 25.1651 10.834C25.2212 10.967 25.2529 11.1075 25.2626 11.2504C25.2772 11.4031 25.2602 11.5953 25.2431 11.7752C25.2261 11.96 25.2041 12.1448 25.1798 12.2951C25.1091 12.7189 24.9702 12.9948 24.8264 13.1821C24.746 13.3151 24.6607 13.4285 24.5462 13.5295C24.4341 13.6256 24.2757 13.7217 24.0662 13.7094C23.8663 13.702 23.6763 13.5566 23.5715 13.3841C23.4618 13.2117 23.3985 13.0022 23.3863 12.7903C23.3473 12.3715 23.457 11.9181 23.6811 11.5288C23.6617 11.6175 23.5691 11.8121 23.5106 12.0191C23.4472 12.2261 23.4326 12.4404 23.4472 12.5218C23.5154 12.1054 23.6324 11.7407 23.8468 11.4204C23.8931 11.3859 23.898 11.3982 24.0686 11.2085C24.0905 11.1863 24.1271 11.142 24.1246 11.1395C24.1051 11.1222 23.9492 11.2775 23.8517 11.4155C24.0028 11.0976 24.3805 10.7329 24.8752 10.5802L25.0019 10.8635C24.7387 11.0212 24.4804 11.206 24.266 11.4031C24.2538 11.4179 24.2392 11.4401 24.2294 11.4475C24.1758 11.4968 24.1856 11.482 24.2587 11.4081C24.3293 11.3095 24.4755 11.1567 24.4414 11.1296C24.1003 11.4376 23.8371 11.7604 23.6056 12.0955C23.3278 12.4133 23.5959 12.0117 23.4716 12.1152C23.2035 12.4799 23.0378 12.8544 22.8892 13.2535C22.8453 13.3743 22.8015 13.4975 22.7576 13.6207C22.7284 13.6946 22.6967 13.771 22.6674 13.8473C22.665 13.8794 22.6358 13.8523 22.6187 13.8498L22.5602 13.8276C22.5212 13.8128 22.4798 13.7981 22.4433 13.7784C22.2898 13.7217 22.1314 13.564 22.0656 13.4531C21.9827 13.3275 21.9389 13.1821 21.9121 13.0318C21.9559 13.1205 22.0168 13.2166 22.0851 13.3004C22.1241 13.3644 22.1777 13.4482 22.2435 13.5172C22.3166 13.5837 22.3872 13.6305 22.4165 13.6281C22.2508 13.527 22.1533 13.3989 22.0802 13.2831C21.9949 13.1229 21.9486 12.9382 21.9218 12.7657C21.8852 12.4971 21.8658 12.3813 21.8463 12.2778C21.8268 12.1768 21.8097 12.0856 21.8487 11.8713C21.9705 11.3144 22.0168 11.0163 22.0558 10.659C22.1679 10.4496 22.1265 10.8438 22.1801 10.8315L22.1728 10.903L22.1825 10.8241C22.2751 10.3584 22.241 10.3289 22.224 10.2476C22.202 10.1441 22.2532 9.81637 22.3653 9.45417C22.492 9.04516 22.4262 9.42953 22.4067 9.61186C22.3994 9.68578 22.3775 9.81637 22.4213 9.70303C22.6212 8.82341 22.6528 8.44396 22.6772 8.07437L22.6528 8.14829L22.6796 8.06206C22.7966 7.64812 22.9136 7.27606 23.0232 7.02967C22.9915 7.17504 22.8843 7.46825 22.9209 7.46086C22.9209 7.46086 22.9428 7.38448 22.9672 7.29085C22.9891 7.19722 23.0159 7.08634 23.0257 7.02228C23.1402 6.58617 23.2084 6.20426 23.3887 5.71147C23.4448 5.40595 23.5569 5.15956 23.6543 4.89838L23.6714 4.75301L23.7469 4.61996C23.8079 4.38835 23.8688 4.15428 23.9297 3.92267C23.9906 3.69845 24.0588 3.48655 24.1539 3.2993C24.4536 2.53302 24.3951 2.8213 24.361 3.04551C24.3732 3.02087 24.3976 2.97159 24.3976 2.97652C24.4 3.00116 24.3756 3.06276 24.3366 3.13421C24.2026 3.54569 24.0759 3.95716 23.9541 4.3711C24.1149 3.97441 24.2099 3.58018 24.3902 3.1416C24.573 2.68824 24.534 2.65375 24.534 2.56012C24.534 2.37533 24.6607 2.01313 24.8995 1.52034L24.9336 1.45382L24.902 1.51049C24.9117 1.45628 24.9215 1.40208 24.941 1.34048C24.9726 1.2641 25.0092 1.18032 25.0506 1.09655C25.1335 0.924076 25.2358 0.739282 25.3357 0.559416C25.3479 0.539704 25.3576 0.519993 25.3674 0.502745C25.3723 0.485498 25.3796 0.512601 25.3869 0.517529L25.4064 0.544632C25.4283 0.579127 25.4478 0.608694 25.4649 0.635797C25.4917 0.685076 25.5063 0.719571 25.5112 0.74421C25.5209 0.791024 25.4965 0.795952 25.4746 0.810736C25.6184 0.973354 25.6525 1.00785 25.6647 0.958571C25.6744 0.91422 25.6427 0.803344 25.6671 0.795952C25.7621 0.933932 25.8182 1.1138 25.8547 1.28134C25.8718 1.38483 25.8742 1.41193 25.8767 1.46614C25.8815 1.51542 25.8815 1.55977 25.8815 1.60165C25.8791 1.77166 25.8547 1.89979 25.8304 2.00081L25.8279 1.93675L25.8255 2.02298C25.7427 2.73506 25.6111 3.39046 25.4624 4.07789C25.3113 4.7604 25.114 5.44537 24.8557 6.15005C24.629 6.78082 24.3805 7.52492 24.11 8.20496C23.8054 8.96139 23.7323 9.05994 23.6324 9.0698C23.6154 9.40736 23.2377 10.2032 22.8307 10.9325C22.5675 11.413 22.3019 11.8836 22.029 12.3517C21.8877 12.5858 21.7537 12.81 21.605 13.0466C21.4393 13.2954 21.2322 13.5024 20.9788 13.6675C20.8642 13.7389 20.74 13.803 20.5962 13.84C20.4524 13.8744 20.277 13.8818 20.1137 13.8079C19.9529 13.7315 19.8359 13.6083 19.7628 13.458C19.6922 13.3053 19.68 13.1476 19.6873 13.0096C19.7068 12.7263 19.7799 12.502 19.8408 12.2655C19.9042 12.0314 19.9773 11.7998 20.0577 11.5707C20.0187 11.7382 19.9651 11.9624 20.026 11.8688C20.1259 11.5337 20.0504 11.6569 20.0625 11.5584C20.1088 11.3982 20.1527 11.2454 20.2161 11.0804C20.4256 10.5408 20.6059 10.2278 20.5645 10.4668C20.5548 10.5383 20.5523 10.5925 20.6571 10.4176C20.8155 10.08 20.7473 10.149 20.7546 10.08C20.7741 9.92971 20.9179 9.6365 21.2249 9.16836C21.3224 9.01806 21.4052 8.91457 21.4734 8.8308L21.839 9.00327C21.7732 9.21024 21.7195 9.33344 21.6635 9.55273C21.5782 9.85333 21.5831 10.0357 21.3687 10.4496C21.2371 10.6837 21.0909 10.903 20.8789 11.0951C20.6717 11.2824 20.4208 11.4204 20.1356 11.4869C19.7848 11.5658 19.4119 11.5707 19.0878 11.4031C18.9636 11.3465 18.8466 11.2528 18.7808 11.1444C18.6712 11.0114 18.6102 10.8537 18.5786 10.6985C18.5444 10.5432 18.5444 10.3855 18.5688 10.2328C18.5932 10.08 18.6419 9.92971 18.7321 9.79173C18.754 9.75231 18.7735 9.73013 18.8101 9.68578C18.8466 9.63404 18.8905 9.60201 18.9343 9.56998C19.0196 9.49359 19.1146 9.45663 19.2097 9.42214C19.3023 9.40489 19.3973 9.38764 19.4997 9.37779L19.5362 9.37286C19.5484 9.3704 19.563 9.36793 19.563 9.38272L19.5801 9.45171L19.6166 9.59215L19.6532 9.73259C19.658 9.78926 19.6678 9.84347 19.6678 9.9026L19.6751 10.048C19.6775 10.0825 19.6775 10.117 19.6775 10.1515C19.68 10.4274 19.6483 10.7058 19.5971 10.9867C19.4802 11.5756 19.3072 11.9058 19.1658 12.1423C19.0123 12.3739 18.8856 12.5193 18.6906 12.6819C18.4348 12.9874 18.5469 12.9579 18.235 13.2363C18.0376 13.4088 17.7769 13.564 17.5064 13.6428C17.2359 13.7217 16.9142 13.7512 16.617 13.6059C16.3635 13.4851 16.2076 13.2338 16.1515 13.0195C16.0882 12.8002 16.0784 12.6055 16.0614 12.4257C16.0346 12.1201 16.076 11.7727 16.1735 11.4352C16.2685 11.0976 16.4147 10.7699 16.5755 10.4644C16.6608 10.3018 16.7266 10.2352 16.8046 10.1662C16.8923 10.0874 16.9898 10.0012 17.1433 9.86318C17.1701 9.81883 17.2091 9.76709 17.2944 9.71288C17.3748 9.66114 17.5307 9.60201 17.7135 9.6636C17.906 9.72274 18.0425 9.91246 18.0936 10.0899C18.1229 10.181 18.1375 10.2771 18.1424 10.3806C18.1448 10.4299 18.1424 10.489 18.1375 10.5408C18.1302 10.59 18.1229 10.6393 18.1156 10.6911C17.9547 11.6421 17.2798 12.4355 16.4123 12.7903C16.193 12.8741 15.9639 12.9357 15.7275 12.9603C15.4839 12.985 15.2402 12.9628 15.0014 12.8938C14.765 12.8224 14.5262 12.7041 14.3386 12.4946C14.246 12.3912 14.168 12.2655 14.1241 12.13C14.073 11.9871 14.0632 11.8023 14.1095 11.6545C14.2046 11.3489 14.4141 11.1272 14.6944 11.0064C14.8357 10.9498 15.0111 10.9177 15.1939 10.9744C15.3791 11.0311 15.5253 11.1838 15.5886 11.3341C15.7251 11.6545 15.6544 11.9353 15.596 12.1596C15.5326 12.3862 15.4497 12.6055 15.3474 12.815L15.3742 12.7386L15.3425 12.8248C15.1915 13.1673 14.977 13.4975 14.7455 13.7685C14.5384 14.0124 14.4117 14.1036 14.3483 14.143C14.2825 14.1824 14.2704 14.1677 14.2484 14.1627L14.302 14.1085L14.2436 14.1652C14.1315 14.2613 14.0047 14.3598 13.822 14.414C13.6417 14.4732 13.4029 14.451 13.225 14.313C13.0447 14.1775 12.9594 13.9829 12.9179 13.8128C12.8741 13.6379 12.8668 13.4704 12.8741 13.3053C12.8838 13.1328 12.9155 12.9899 12.9399 12.8396C12.9618 12.6893 13.0008 12.5415 13.03 12.3936C13.0983 12.098 13.1811 11.8023 13.2786 11.5115C13.4443 11.0138 13.6465 10.5605 13.878 10.1096C13.8951 10.011 13.8878 9.91492 14.1363 9.53794C14.2679 9.28909 14.4117 9.05009 14.5603 8.81848C14.6359 8.70267 14.7163 8.5918 14.7943 8.47846L15.1744 7.98321L15.6008 7.48303L15.8177 7.23418L15.9249 7.11098L15.9785 7.04938C15.9931 7.0346 16.0224 6.98779 16.0102 7.03953C15.9444 7.49782 15.8835 7.94379 15.7982 8.37744C15.786 8.47353 15.7738 8.56962 15.7568 8.65586C15.7495 8.69775 15.7397 8.7421 15.7275 8.77659C15.7202 8.8037 15.7105 8.82341 15.7032 8.84312C15.6301 9.16343 15.535 9.48127 15.4376 9.78926C15.2036 10.5112 14.938 10.9621 14.7163 11.1567C14.6895 11.344 14.7236 11.4376 14.4093 11.9255C14.112 12.3961 13.666 13.0145 13.4224 13.1944C13.2518 13.325 13.1933 13.3866 13.108 13.5246C12.84 13.936 12.6109 14.0445 12.3624 14.2095C12.4038 14.1652 12.5646 14.042 12.5183 14.0543L12.3599 14.2095C12.2844 14.2884 12.2015 14.3648 12.1138 14.4362L11.9384 14.5791C11.9043 14.6087 11.8701 14.6333 11.836 14.658C11.8019 14.6777 11.7654 14.722 11.7337 14.722C11.6776 14.658 11.6143 14.5939 11.5607 14.5249L11.4827 14.419C11.4559 14.382 11.4291 14.3475 11.4193 14.3204C11.3584 14.2046 11.3097 14.0839 11.2829 13.9582C11.1659 13.4507 11.2707 12.9505 11.3852 12.4996C11.4023 12.4109 11.4096 12.3345 11.4681 12.1867C11.4681 12.1842 11.4705 12.2064 11.4632 12.2261C11.4388 12.3099 11.4145 12.3961 11.3901 12.4848C11.3804 12.5858 11.373 12.6868 11.3706 12.7903C11.4413 12.5168 11.4949 12.3197 11.5558 12.093C11.646 11.7555 11.7678 11.3686 11.9457 10.9276C11.9774 10.8611 11.9506 10.9867 12.0237 10.7822L11.9408 10.9153C11.9652 10.7945 12.0237 10.6319 12.0968 10.489C12.2064 10.2697 12.2917 10.1761 12.3697 9.81144C12.4184 9.58722 12.6353 9.05994 12.8375 8.6534C12.9179 8.49078 12.9764 8.39961 12.9301 8.54498C12.9106 8.61151 12.84 8.77166 12.7937 8.88993C12.7474 8.97371 12.7084 9.06241 12.6791 9.15357L12.6621 9.21271L12.6889 9.13632C12.7181 9.05994 12.7522 8.98356 12.7864 8.91211C13.147 8.21728 13.303 7.68261 13.5759 7.07895C13.7586 6.67733 13.9511 6.27078 14.1485 5.87163C14.2411 5.67944 14.3654 5.4232 14.3995 5.43552C14.475 5.46015 14.6237 5.13984 14.7723 4.7875C14.8649 4.56821 14.9307 4.38589 15.1232 4.06558C15.2792 3.80194 15.4327 3.54076 15.5886 3.27466L15.8226 2.87797C15.8957 2.74738 15.9858 2.60201 16.0882 2.47881C16.1905 2.35069 16.3051 2.22995 16.4513 2.13386C16.4878 2.10922 16.5195 2.08951 16.5804 2.05994C16.634 2.03777 16.6876 2.02052 16.7437 2.00574C16.8533 1.9811 16.9605 1.99095 17.058 2.01559C17.1043 2.03284 17.1506 2.05009 17.1993 2.07226L17.2359 2.08951C17.2481 2.09444 17.2651 2.09937 17.2554 2.11169L17.2456 2.18068L17.2237 2.31866C17.2091 2.36793 17.1847 2.42707 17.1652 2.48127L16.9825 2.95435C16.6754 3.6886 16.3952 4.38835 16.0589 5.10781C15.3182 6.71183 14.4921 8.24192 13.4589 9.7252C12.7766 10.6985 12.0456 11.6594 11.2683 12.5661C11.049 12.8273 10.8516 13.049 10.6542 13.2314C10.4227 13.4482 10.2862 13.5591 10.4836 13.2831C10.7687 12.8839 11.1026 12.4626 11.5997 11.8392C12.1357 11.174 12.6475 10.4866 13.1324 9.77941C13.6197 9.07226 14.0852 8.35033 14.5116 7.60869C15.3791 6.11802 16.1077 4.5485 16.7339 2.96174L16.9703 2.3359C16.9727 2.31866 16.9971 2.29155 16.9825 2.27923C16.963 2.27184 16.9435 2.25952 16.924 2.25459C16.8826 2.24227 16.8387 2.23981 16.7973 2.24474C16.7096 2.25706 16.6438 2.28909 16.539 2.36547C16.3514 2.51084 16.1978 2.71042 16.0736 2.92478L15.6861 3.58757C15.1744 4.47705 14.687 5.37885 14.2265 6.29542C13.5686 7.59884 12.9691 8.92936 12.4282 10.282C12.1601 10.9596 11.8994 11.6421 11.663 12.3296C11.5509 12.6721 11.4681 13.0269 11.451 13.3817C11.4437 13.5591 11.4559 13.7365 11.4973 13.904C11.5339 14.0666 11.6216 14.249 11.6971 14.3426L11.7629 14.419C11.7678 14.4288 11.7751 14.4288 11.78 14.419L11.7995 14.4042L11.8385 14.3746L12.0212 14.2342C12.165 14.1258 12.2966 14.0026 12.4355 13.8868C12.5719 13.7685 12.6962 13.6379 12.8278 13.5147L13.2006 13.1205C13.6807 12.5809 14.0998 11.9871 14.4531 11.3539C14.8064 10.7206 15.0891 10.0504 15.2987 9.35561C15.3547 9.18314 15.3961 9.00574 15.44 8.8308C15.4644 8.73471 15.4814 8.67064 15.4912 8.60166L15.535 8.38483C15.5643 8.24439 15.5765 8.10148 15.5984 7.96103L15.6057 7.90683C15.6033 7.9019 15.5838 7.929 15.5765 7.93886L15.5082 8.02017C15.4619 8.07437 15.4156 8.12612 15.3718 8.18279C15.2816 8.2912 15.1939 8.407 15.1013 8.53266L15.0331 8.62629L14.9551 8.73963C14.9039 8.81602 14.8503 8.88993 14.8016 8.96631C14.6018 9.27184 14.4214 9.58969 14.2509 9.91246C13.9195 10.5629 13.649 11.2454 13.4565 11.9501C13.3298 12.4183 13.2201 12.9061 13.1787 13.3841C13.1738 13.6182 13.2055 13.8769 13.3566 14.0395C13.4297 14.1184 13.5393 14.1603 13.6465 14.1553C13.7562 14.1529 13.8634 14.1036 13.9609 14.042C14.3508 13.7734 14.6773 13.3964 14.9185 12.985C15.0379 12.778 15.1354 12.5587 15.2109 12.332C15.2816 12.1054 15.3523 11.8688 15.3279 11.6495C15.3157 11.5362 15.2694 11.4302 15.1915 11.3612C15.1135 11.2923 15.0063 11.2775 14.899 11.3021C14.687 11.3539 14.4945 11.5362 14.4287 11.7481C14.3605 11.9575 14.4799 12.1916 14.6481 12.3443C14.8211 12.4996 15.0526 12.5858 15.2865 12.6228C15.7592 12.6918 16.2514 12.5415 16.6559 12.2852C17.0653 12.0265 17.3919 11.6397 17.5844 11.1986C17.6599 11.036 17.7038 10.8635 17.7403 10.6886C17.7671 10.5112 17.7866 10.3387 17.7306 10.186C17.6818 10.0283 17.56 9.95435 17.4357 10.0159C17.3066 10.0751 17.192 10.2328 17.0799 10.3707C16.6438 10.9424 16.4001 11.6643 16.3977 12.3862C16.3928 12.741 16.4439 13.1279 16.7242 13.2831C16.9971 13.4383 17.3748 13.3447 17.6721 13.1845C18.2715 12.8297 18.7394 12.231 19.0099 11.583C19.1853 11.1567 19.2901 10.7009 19.2998 10.2426C19.3071 10.1317 19.2974 9.99131 19.2974 9.9642L19.2901 9.88289L19.2852 9.84101C19.2755 9.83854 19.2584 9.84347 19.2462 9.84347C19.1926 9.85333 19.1415 9.87797 19.1049 9.91739C19.0927 9.92724 19.0878 9.9371 19.0805 9.94695C19.0635 9.9642 19.0513 9.98391 19.0391 10.0061C19.0123 10.0455 18.9952 10.0923 18.9758 10.1391C18.9124 10.3289 18.9075 10.5506 18.9831 10.7354C19.0513 10.9202 19.2048 11.0483 19.3997 11.1149C19.7848 11.2479 20.2502 11.105 20.5718 10.834C20.8228 10.6196 21.008 10.3067 21.142 9.97899C21.2761 9.64636 21.3638 9.28416 21.4515 8.91457L21.7878 9.07473C21.164 9.94449 20.6693 10.9202 20.3428 11.9477C20.3062 12.061 20.2843 12.1768 20.2575 12.2926L20.2843 12.2113L20.2551 12.2926C20.1941 12.5439 20.121 12.8174 20.1088 13.0318C20.104 13.1402 20.1186 13.2338 20.1527 13.3004C20.1917 13.3669 20.2429 13.426 20.3062 13.4507C20.3915 13.4851 20.5109 13.4605 20.6206 13.4088C20.7302 13.3546 20.8326 13.2782 20.9325 13.1944C21.0348 13.1082 21.1274 13.0071 21.2078 12.9012C21.2834 12.8002 21.3613 12.6622 21.4393 12.539C21.5977 12.2852 21.7488 12.029 21.8999 11.7727C22.1996 11.2602 22.4847 10.7477 22.7674 10.2549L22.7454 10.3141L22.7771 10.2377C23.0451 9.62172 23.4643 8.76181 23.6154 8.20743C23.5837 8.28134 23.5471 8.36758 23.5203 8.42425C23.4813 8.49571 23.4935 8.45875 23.5349 8.36019C23.5617 8.29613 23.591 8.25424 23.6178 8.20003L23.8225 7.69986C23.8322 7.69986 23.8395 7.70479 23.8444 7.71464L23.8249 7.78856L23.8493 7.70725C23.8566 7.68261 23.8712 7.63087 23.8688 7.6358C23.859 7.64319 23.842 7.67276 23.8249 7.69247C23.8566 7.54956 23.9248 7.35245 24.0101 7.13069C24.1563 6.72415 24.0808 7.0346 24.1173 6.96807C24.2148 6.82024 24.6753 5.49711 24.7947 4.9452C24.841 4.73576 24.8898 4.5485 24.9458 4.32182C24.8703 4.44502 24.8678 4.34153 25.0092 3.91774C25.1603 3.44467 25.2261 3.22045 25.2748 2.98391C25.2992 2.86565 25.3211 2.74245 25.3455 2.58476C25.3698 2.4246 25.4015 2.22995 25.4186 1.97371C25.421 1.89732 25.4259 1.79877 25.421 1.69282C25.4186 1.63861 25.4161 1.58441 25.4088 1.52774C25.4039 1.50063 25.4039 1.47107 25.3966 1.44396C25.3942 1.43411 25.3942 1.4415 25.3918 1.43657C25.3869 1.43164 25.3844 1.43164 25.382 1.42672C25.3796 1.42672 25.3796 1.39961 25.3698 1.40947C25.3601 1.40947 25.3479 1.42179 25.3333 1.4415L25.3089 1.47599L25.2967 1.49817C25.2943 1.5031 25.2943 1.50063 25.2894 1.51295L25.2724 1.55238C25.1798 1.76181 25.0896 1.97617 25.0019 2.19546C24.8289 2.63404 24.6632 3.08493 24.4999 3.53337C23.8956 5.19405 23.3717 6.8843 22.9282 8.59426C22.838 8.93921 22.7503 9.31126 22.6553 9.56505C22.5968 9.77202 22.5407 9.98638 22.5091 10.1958C22.4555 10.5482 22.3726 10.9744 22.2849 11.3489C22.2093 11.684 22.1265 12.0068 22.1119 12.332C22.0972 12.6548 22.1289 12.9924 22.2727 13.2437C22.3044 13.3004 22.3653 13.3743 22.3823 13.3866C22.4067 13.4088 22.436 13.4285 22.4676 13.4408C22.5091 13.4728 22.5066 13.4162 22.5212 13.3891C22.5261 13.3743 22.5334 13.357 22.5383 13.3422L22.5846 13.2289C22.7211 12.9037 22.8916 12.5932 23.089 12.3099C23.2523 12.0782 23.4082 11.8787 23.5885 11.6594C23.937 11.238 24.3586 10.8734 24.8264 10.5925L24.9629 10.8956C24.7582 10.9572 24.5657 11.0582 24.3878 11.1838C24.1539 11.3514 23.9711 11.6076 23.8663 11.859C23.764 12.093 23.7006 12.337 23.6885 12.5809C23.6763 12.8248 23.7006 13.0687 23.8152 13.2634L23.8176 13.2708C23.8931 13.3989 24.0077 13.4827 24.1417 13.4802C24.2708 13.4802 24.4049 13.3866 24.5072 13.2535C24.612 13.1205 24.6851 12.9653 24.7533 12.7952C24.8216 12.6277 24.88 12.4552 24.9263 12.2852C24.9678 12.1398 25.0043 11.9822 25.0311 11.8195C25.0555 11.6545 25.0847 11.4869 25.0701 11.3317C25.0579 11.174 25.0141 11.0188 24.9434 10.898C24.8727 10.7773 24.7728 10.7083 24.6948 10.7182C24.573 10.6886 24.6729 10.6566 24.7387 10.6541C24.6534 10.627 24.5535 10.6492 24.4853 10.7034C24.4146 10.76 24.3732 10.8561 24.361 10.9572C24.3366 11.1666 24.4244 11.376 24.6217 11.477C24.8094 11.5855 25.0457 11.6076 25.2797 11.5929C25.5209 11.5682 25.7646 11.5189 26.0034 11.4549ZM14.7358 7.58159L14.6066 7.78363C14.5725 7.8403 14.5433 7.89944 14.5116 7.95857L14.6407 7.75407L14.7358 7.58159ZM15.5935 5.94801C15.5765 5.98497 15.5594 6.02193 15.5423 6.05889L15.5838 5.99483C15.6033 5.9554 15.6325 5.9012 15.6423 5.87656C15.6739 5.79771 15.6544 5.82728 15.5935 5.94801ZM11.3267 13.0638C11.3316 13.0318 11.3414 12.9899 11.3438 12.9726C11.3511 12.9111 11.356 12.8568 11.3633 12.8002C11.3462 12.8864 11.3365 12.9751 11.3267 13.0638ZM11.3146 13.8326L11.3024 13.7537L11.2975 13.7857L11.3146 13.8326ZM15.7275 8.35033L15.7154 8.45628C15.7007 8.53266 15.6886 8.60165 15.6764 8.66572C15.6666 8.72978 15.6496 8.78398 15.6423 8.81109C15.6252 8.87761 15.6154 8.92443 15.6057 8.95892C15.5911 9.02545 15.5935 9.0353 15.6057 9.01806C15.6276 8.98356 15.6812 8.84312 15.6934 8.84558C15.7032 8.80123 15.7129 8.75935 15.7227 8.71499C15.73 8.66079 15.7397 8.60658 15.747 8.55238C15.7397 8.50556 15.73 8.46367 15.7202 8.42672L15.7275 8.35033ZM15.2816 8.01524C15.2767 8.0251 15.3133 7.9906 15.3328 7.96596C15.3645 7.92408 15.3986 7.87972 15.4327 7.83537C15.4376 7.82305 15.4571 7.79102 15.4424 7.80581C15.3645 7.88958 15.2987 7.97582 15.2816 8.01524ZM14.5896 8.99342L14.6261 8.92689L14.6749 8.79877L14.6115 8.9466L14.5896 8.99342ZM13.8878 10.0825L13.9633 10.0357C14.0681 9.79912 13.9926 9.90507 14.0047 9.84347C14.0047 9.84593 14.0047 9.84593 14.0023 9.8484L14.0047 9.84347L13.8878 10.0825ZM13.1738 12.093C13.1787 12.1226 13.1957 12.0782 13.2152 11.9895C13.2323 11.9181 13.2445 11.8466 13.2469 11.8121C13.2494 11.7653 13.225 11.8269 13.2006 11.9156C13.1836 11.9846 13.1811 12.0364 13.1738 12.093ZM12.9521 13.4679C12.9642 13.4802 12.9642 13.4137 12.9716 13.2954C12.974 13.2634 12.9691 13.2412 12.9691 13.2141C12.9594 13.2116 12.9448 13.2708 12.9448 13.3891C12.9423 13.4211 12.9472 13.463 12.9521 13.4679ZM15.3645 11.2134C15.4035 11.243 15.4449 11.275 15.4766 11.312C15.4936 11.3317 15.5058 11.3539 15.5204 11.376C15.5034 11.3465 15.4863 11.3144 15.4644 11.2873C15.4497 11.2701 15.3888 11.206 15.3498 11.174C15.2987 11.1469 15.2889 11.1346 15.3645 11.2134ZM14.2046 12.0807C14.2046 12.0709 14.2046 12.0635 14.2046 12.0511L14.1875 11.9994C14.1924 12.024 14.1948 12.0561 14.2046 12.0807ZM17.7062 11.4524L17.6745 11.5214C17.6672 11.5411 17.6599 11.5633 17.6501 11.5805C17.6648 11.5534 17.677 11.5263 17.6891 11.4992L17.7062 11.4524ZM17.9889 10.3338C17.9913 10.3732 17.9864 10.4176 17.9864 10.4496C17.984 10.5703 17.9791 10.5925 17.9986 10.5309C18.001 10.5235 18.0035 10.4496 18.0035 10.4077L17.9889 10.3338ZM16.21 11.5805L16.2295 11.5337C16.3587 11.1691 16.4927 10.797 16.6974 10.4521C16.712 10.4323 16.7266 10.4126 16.7437 10.3954L16.7071 10.4373C16.4683 10.7379 16.3465 11.1395 16.2368 11.5091C16.2246 11.5313 16.2173 11.5559 16.21 11.5805ZM19.5118 9.63404L19.5362 9.74491L19.5216 9.64882L19.5118 9.63404ZM18.6638 10.0899L18.6809 10.0628C18.6833 10.0455 18.6882 10.0283 18.6906 10.011C18.6809 10.0381 18.6712 10.0628 18.6638 10.0899ZM19.005 11.3588C18.927 11.2996 18.8539 11.2331 18.7906 11.174C18.8539 11.2454 18.9319 11.3144 19.005 11.3588ZM20.9325 10.8488C20.93 10.8438 20.8691 10.898 20.835 10.9251C20.796 10.9695 20.7229 11.0409 20.7229 11.0459C20.7253 11.0533 20.8058 10.9917 20.8521 10.9572C20.8813 10.9202 20.9349 10.8561 20.9325 10.8488ZM19.8627 12.5883L19.8749 12.5686L19.8774 12.5267L19.8627 12.5883ZM20.0723 13.6699C20.0479 13.6527 20.0114 13.6281 20.0016 13.6207C19.9748 13.6034 19.9578 13.5936 19.9358 13.5812C19.9139 13.5591 19.892 13.5394 19.8749 13.5147C19.8944 13.5467 19.9237 13.5714 19.948 13.596C19.9821 13.6281 20.0284 13.6502 20.0723 13.6699ZM21.6684 12.815C21.5027 13.0589 21.4125 13.1501 21.3345 13.2338C21.2566 13.3201 21.0957 13.4679 21.0811 13.4827C21.0519 13.5221 21.164 13.4507 21.2663 13.3546C21.3102 13.3127 21.354 13.2683 21.4198 13.1895C21.4807 13.1106 21.5685 12.9874 21.6684 12.815ZM22.3799 11.5781C22.3823 11.5633 22.336 11.6298 22.3117 11.6618C22.2654 11.7407 22.2386 11.7974 22.2508 11.7974C22.2581 11.7974 22.2898 11.7604 22.3068 11.7407C22.3336 11.684 22.3775 11.5953 22.3799 11.5781ZM22.9599 10.521L22.9282 10.5802L22.9501 10.5555L22.9599 10.521ZM23.1719 9.98145L23.1524 9.9987L23.1402 10.0406L23.1719 9.98145ZM24.7119 6.17223C24.7095 6.17716 24.69 6.23136 24.6778 6.26586C24.6705 6.29296 24.6583 6.3447 24.6607 6.34717C24.6705 6.35702 24.69 6.30035 24.7119 6.20426C24.7192 6.17962 24.7168 6.16484 24.7119 6.17223ZM25.3723 3.72802L25.3576 3.74773L25.3552 3.79208L25.3723 3.72802ZM25.7256 1.92196L25.7134 1.99095L25.6988 2.05748L25.7134 2.00574L25.7256 1.92196ZM25.5672 1.77906L25.5575 1.80123L25.5623 1.84065L25.5672 1.77906ZM24.69 2.17821C24.69 2.18314 24.7216 2.11661 24.7241 2.10429C24.7411 2.05009 24.7558 2.00327 24.7704 1.95646C24.7484 2.00327 24.7241 2.05009 24.7022 2.0969C24.6973 2.12401 24.69 2.1585 24.69 2.17821ZM24.1514 3.42742C24.1539 3.39785 24.1563 3.36336 24.1563 3.34365C24.1539 3.32394 24.149 3.31654 24.1441 3.30422C24.1295 3.36089 24.1076 3.43728 24.1051 3.47177C24.0978 3.51858 24.0856 3.59004 24.1514 3.42742ZM23.6446 4.89345C23.6787 4.822 23.7079 4.74069 23.7274 4.64952L23.6446 4.89345ZM23.6543 5.13984C23.7348 5.0881 23.7932 4.75794 23.8663 4.5485C23.7884 4.64706 23.7201 4.87867 23.6543 5.13984ZM23.5106 5.40841C23.5276 5.40348 23.5496 5.39116 23.6056 5.24826C23.5959 5.22115 23.5666 5.26797 23.5106 5.40841ZM23.3302 6.35949L23.3497 6.27325C23.379 6.15252 23.4204 6.01207 23.4399 5.92337C23.457 5.84453 23.4228 5.91598 23.4009 6.00714C23.3741 6.11556 23.3619 6.19687 23.3449 6.28803L23.3302 6.35949ZM23.1499 6.86952L23.1645 6.79806C23.1645 6.76603 23.223 6.56153 23.1621 6.70936L23.1572 6.81531L23.1499 6.86952ZM22.0144 12.2335C22.0144 12.2039 22.0168 12.1768 22.0193 12.1472L22.0095 12.231L22.0144 12.2335ZM24.9312 12.9234C24.919 12.9529 24.8995 12.9924 24.8922 13.0096C24.8703 13.0663 24.8532 13.118 24.8289 13.1698C24.8703 13.0885 24.902 13.0047 24.9312 12.9234ZM24.7606 10.6221L24.7509 10.6467C24.7728 10.6492 24.8094 10.664 24.8069 10.6615C24.8021 10.6467 24.7801 10.6319 24.7606 10.6221ZM24.7679 11.6347C24.7972 11.6446 24.8289 11.6471 24.8581 11.6545C24.8289 11.6446 24.8021 11.6397 24.7728 11.6273L24.7679 11.6347Z" fill="#262626"/>
<path d="M25.3477 11.7134C25.9227 11.6912 26.5124 11.5113 27.1411 11.0752C26.4881 11.462 25.9227 11.5975 25.3477 11.7134Z" fill="#262626"/>
<path d="M27.4092 10.7575C27.3532 10.8092 27.2533 10.8831 27.2435 10.8954C27.2143 10.9349 27.3117 10.8807 27.4311 10.787C27.4921 10.7427 27.5895 10.6491 27.5944 10.6367C27.6115 10.6047 27.5213 10.6762 27.4092 10.7575Z" fill="#262626"/>
<path d="M21.7847 12.714C21.7628 12.6229 21.7555 12.6943 21.775 12.852C21.792 12.9974 21.8359 13.1181 21.8724 13.1773C21.87 13.1428 21.8724 13.128 21.8603 13.0713C21.831 12.9333 21.8042 12.8052 21.7847 12.714Z" fill="#262626"/>
<path d="M48.4433 13.727C48.3166 13.7984 47.8366 13.8748 47.8731 13.9191C47.0397 14.0226 46.2648 14.1828 45.3657 14.2419C45.1244 14.2567 44.7735 14.3331 44.5323 14.3947C44.196 14.4785 43.945 14.4809 43.7623 14.4612C43.5186 14.4785 43.3237 14.4908 43.0508 14.5499C42.5342 14.6633 41.8616 14.7421 41.1744 14.8456C41.2963 14.7667 41.8397 14.7249 41.9615 14.6657C41.6252 14.6756 41.328 14.7372 41.0234 14.784C40.9771 14.7741 40.9819 14.752 40.7773 14.7741C40.7529 14.7766 40.7066 14.7889 40.709 14.7914C40.7139 14.816 40.8869 14.7938 41.0234 14.784C40.575 14.9318 39.8172 14.9663 39.1958 15.0452C39.1787 15.0501 39.1592 15.0575 39.1471 15.0599C39.0861 15.0649 39.0983 15.0599 39.186 15.0452C39.2835 15.0057 39.459 14.9614 39.4443 14.9195C39.0618 14.9934 38.7157 15.0575 38.3722 15.124C38.0115 15.1289 38.4185 15.0599 38.2796 15.0353C37.5242 15.124 36.9369 15.3236 35.9817 15.2891C36.0572 15.262 36.1401 15.2324 36.2254 15.2029C36.3448 15.1856 36.5543 15.1905 36.6006 15.156C36.4471 15.1659 36.3228 15.1807 36.2108 15.2004C36.0646 15.2152 35.9135 15.23 35.7721 15.2423C35.3311 15.2891 35.4091 15.3827 35.0557 15.3901C34.5879 15.3975 34.332 15.4246 34.0396 15.469C33.8471 15.4098 34.1736 15.3556 34.1517 15.3063L34.2102 15.2965L34.1444 15.3063C33.7496 15.3285 33.7326 15.3655 33.6716 15.4024C33.5912 15.4492 33.3183 15.4763 33.0015 15.4542C32.6458 15.4295 32.9699 15.4 33.1209 15.3753C33.1819 15.3655 33.2915 15.3556 33.1916 15.3408C32.4411 15.3556 32.1292 15.4148 31.8246 15.4813L31.8879 15.4887L31.8124 15.4837C31.4542 15.4714 31.1325 15.4492 30.9108 15.4049C31.0351 15.4 31.2934 15.4295 31.2787 15.395C31.2787 15.395 31.2105 15.3926 31.1325 15.395C31.0521 15.3975 30.9595 15.4 30.9035 15.4049C30.5282 15.4049 30.209 15.4369 29.7728 15.3975C29.517 15.4246 29.2928 15.3876 29.0637 15.3679L28.9443 15.395L28.82 15.3605C28.6202 15.3729 28.4228 15.3852 28.2255 15.3975C28.033 15.4098 27.8478 15.4098 27.6772 15.3803C26.9973 15.3507 27.2361 15.3088 27.4238 15.2694C27.4018 15.2645 27.3555 15.2595 27.3604 15.2571C27.3799 15.2472 27.4335 15.2497 27.5018 15.262L28.5764 15.2373C28.2206 15.2004 27.8843 15.2324 27.492 15.2078C27.0851 15.1831 27.0704 15.2373 26.9973 15.2694C26.8536 15.3334 26.5368 15.3384 26.0836 15.3014L26.0226 15.294L26.0762 15.3014C25.9032 15.3507 25.6742 15.3458 25.3939 15.3211C25.1357 15.2965 25.1746 15.2571 25.2185 15.2004C24.8311 15.2817 25.0869 15.326 25.0577 15.3778C24.6654 15.4049 24.4266 15.4 24.2609 15.3729L24.3096 15.363L24.2414 15.3704C23.101 15.4665 22.0093 15.6316 20.7763 15.7351C20.5009 15.7572 20.2036 15.7991 19.9015 15.8484C19.5993 15.8977 19.2923 15.9519 18.995 16.0061C18.3322 16.1219 18.2323 16.1293 18.1762 16.0455C17.9399 16.2081 17.2283 16.3313 16.5485 16.457C15.6591 16.6245 14.7989 16.8414 13.9265 17.0483C13.1516 17.2331 12.3816 17.4155 11.6092 17.6002C11.7407 17.5485 11.9211 17.4894 11.826 17.4795C11.5482 17.5584 11.6701 17.5608 11.5994 17.6002C11.4703 17.6397 11.346 17.684 11.2095 17.721C10.7539 17.8442 10.4663 17.9033 10.6345 17.79C10.6856 17.7555 10.7197 17.7234 10.5516 17.7456C10.2543 17.8294 10.3396 17.8442 10.2933 17.8787C10.1934 17.9624 9.93267 18.0216 9.51111 18.1546C9.12123 18.2901 9.0067 18.2828 8.78008 18.4133C8.67773 18.4774 8.61194 18.539 8.53884 18.608C8.46817 18.6794 8.3902 18.7583 8.2976 18.879C8.08073 19.1574 8.03687 19.4999 8.12215 19.8473C8.17576 20.0716 8.31709 20.2539 8.46574 20.3993C8.52909 20.4535 8.58514 20.5052 8.62656 20.5594C8.90435 20.8033 9.27231 20.9536 9.66219 21.0325C10.0545 21.1113 10.4736 21.1237 10.9147 21.1039C11.3777 21.0793 11.6579 21.0694 11.8723 21.0768C12.0868 21.0744 12.2354 21.0941 12.4352 21.1261C12.7496 21.0941 12.6667 21.0448 12.9884 21.0152C13.3953 20.961 13.8217 20.9487 14.2116 20.8945C14.5455 20.8477 14.8525 20.8304 15.123 20.7491C15.5738 20.6087 16.1537 20.5643 16.6533 20.3869C16.9189 20.2933 16.9384 20.382 17.2795 20.3007C17.3843 20.1972 17.6426 20.1085 18.2201 19.9213C19.5457 19.4802 20.8396 18.8987 22.0142 18.1103C22.6112 17.7037 23.2155 17.2923 23.7638 16.834L23.7223 16.8808L23.7711 16.829C23.9758 16.627 24.2121 16.4373 24.3876 16.2254C24.7117 15.8558 24.7238 15.9001 24.7653 15.91L24.7311 15.9568L24.7701 15.9075L24.9821 15.6488L25.1868 15.3729C25.3257 15.1881 25.4719 15.0033 25.623 14.816C25.9105 14.4341 26.1932 14.03 26.4637 13.6161C26.6952 13.2613 26.9169 12.9237 27.1289 12.5689C27.1387 12.4827 27.1387 12.4088 27.3434 12.1032C27.76 11.2778 28.1597 10.4869 28.5642 9.68613C28.6007 9.58758 28.6397 9.50627 28.6836 9.4496C28.7981 9.20567 28.9151 8.95928 29.0296 8.71781C29.2903 8.14865 29.4975 7.77906 29.6948 7.6189C29.6948 7.45136 29.6705 7.38237 29.8825 6.95365C30.0872 6.54217 30.3308 5.96069 30.4917 5.76604C30.6086 5.62559 30.633 5.56153 30.6622 5.42848C30.75 5.02686 30.8986 4.87902 31.0351 4.67205C31.018 4.72133 30.9352 4.8667 30.9693 4.84207L31.0351 4.66959C31.1618 4.32711 31.325 3.97476 31.498 3.62242C31.6028 3.41053 31.7076 3.19617 31.8124 2.98427C31.944 2.71077 32.0707 2.44221 32.1998 2.17364C32.251 2.04551 32.3022 1.91 32.385 1.75724C32.3875 1.75477 32.368 1.80898 32.3558 1.83608C32.3071 1.94203 32.2559 2.05291 32.2071 2.16132L32.0439 2.627C32.1755 2.38061 32.2705 2.16132 32.4021 1.84101C32.4216 1.79419 32.4411 1.74492 32.463 1.69564C32.58 1.44925 32.6774 1.32605 32.7871 1.20039C32.8042 1.18068 32.7652 1.25213 32.8261 1.16097C32.8139 1.17575 32.8017 1.18561 32.792 1.193C32.8212 1.14126 32.8553 1.10922 32.887 1.07227V1.10676C32.887 1.1585 32.8773 1.21517 32.8699 1.27431C32.8651 1.33098 32.8553 1.39997 32.8894 1.40243C32.9162 1.40243 32.9455 1.44925 32.9577 1.54287C32.8968 1.80159 32.8237 2.09233 32.753 2.35104C32.6823 2.61468 32.6287 2.76991 32.6458 2.62454C32.6531 2.55801 32.7018 2.35597 32.7286 2.22045C32.7725 2.07508 32.7993 1.96174 32.8066 1.88782V1.85826H32.8042L32.8066 1.86072L32.7993 1.91493C32.7822 2.00116 32.7579 2.09972 32.7311 2.20074C32.5775 2.73541 32.5142 3.03601 32.4435 3.39821C32.4045 3.60025 32.3899 3.69881 32.368 3.83679C32.346 3.96737 32.3241 4.09796 32.2949 4.23594C32.2169 4.59814 32.1389 4.96773 32.0585 5.33239C32.0195 5.50732 31.9732 5.7414 31.9391 5.73893C31.8636 5.73154 31.8051 6.02475 31.771 6.34506C31.749 6.54463 31.7369 6.70725 31.6564 7.01032C31.3908 7.99835 31.191 9.0258 30.9376 10.0138C30.7719 10.6594 30.6379 11.2778 30.4941 11.9283C30.1724 13.3746 29.8898 14.7988 29.5316 16.2697C29.2952 17.2381 29.0735 18.2261 28.8517 19.2018C28.7884 19.4802 28.7348 19.7241 28.6617 19.9385C28.5764 20.1898 28.5179 20.3303 28.5447 20.0445C28.5812 19.633 28.647 19.1845 28.7884 18.5242C29.0905 17.1149 29.4195 15.7006 29.7387 14.2887C30.0604 12.8695 30.365 11.4454 30.6939 10.0434C31.0862 8.36054 31.481 6.67522 31.8733 4.9899L32.424 2.67381L32.6336 1.79419L32.2534 2.58265C30.9425 5.31267 29.6315 8.04516 28.3205 10.7776C27.782 11.8889 27.2264 12.9976 26.5514 14.035C25.662 15.4295 24.5118 16.6615 23.2325 17.6594C22.5697 18.1916 21.8436 18.6326 21.1077 19.049C20.7275 19.2338 20.3572 19.4383 19.9721 19.6083C19.5847 19.7734 19.2046 19.9533 18.8074 20.0913C16.4851 20.9906 13.9753 21.3774 11.5239 21.476C11.1242 21.4859 10.7246 21.5056 10.3201 21.4834C9.91561 21.4637 9.5038 21.4119 9.10904 21.274C8.71429 21.1409 8.33902 20.8945 8.07342 20.557C7.81025 20.2219 7.63236 19.7808 7.69084 19.3225C7.72009 19.1057 7.79563 18.8963 7.91746 18.7139C8.03687 18.5316 8.19282 18.3813 8.36096 18.2556C8.69967 18.0068 9.0798 17.854 9.45994 17.7358C10.2251 17.5189 10.9683 17.3514 11.7261 17.1617C11.8236 17.137 11.9186 17.1025 12.0161 17.073L11.9454 17.0853L12.0185 17.073C12.4498 16.9572 12.886 16.8315 13.3076 16.7674C13.5781 16.7256 13.7998 16.6492 14.0386 16.5925C15.0109 16.3634 16.0075 16.1244 16.9554 15.9938L16.9067 16.011L16.9749 15.9938C17.5183 15.8385 18.3151 15.7252 18.7781 15.5774C18.7123 15.5872 18.6319 15.5995 18.5808 15.6045C18.5125 15.6094 18.5442 15.5971 18.6344 15.5848C18.6928 15.5774 18.7367 15.5774 18.7854 15.5749L19.2362 15.501C19.2411 15.5084 19.2411 15.5182 19.2362 15.5281L19.1729 15.5478L19.2362 15.5306C19.2582 15.5232 19.2996 15.5133 19.2972 15.5108C19.2874 15.5059 19.2582 15.5035 19.2362 15.501C19.3532 15.4591 19.5262 15.4271 19.726 15.3975C20.0867 15.3458 19.8259 15.4172 19.8917 15.4197C20.0404 15.4271 21.2076 15.2817 21.6754 15.2127C21.8533 15.1831 22.0142 15.156 22.2091 15.1339C22.0873 15.1043 22.1701 15.0649 22.5478 15.0649C23.3885 15.0624 23.3276 15.0649 24.2365 14.9565C24.507 14.9318 25.1088 14.8678 25.411 14.8949C26.1542 14.9515 26.9608 14.9343 27.7625 14.9565C29.2416 14.9959 30.7158 15.0723 32.1852 15.092C32.4825 15.0944 32.8017 15.0944 33.0235 15.124C33.2013 15.1314 33.3865 15.1363 33.562 15.1166C33.8568 15.0846 34.2175 15.0649 34.5391 15.0624C35.6674 15.0526 36.837 14.9318 37.9555 14.8579C38.1845 14.8431 38.3892 14.8234 38.6183 14.7938C39.2543 14.7076 39.8927 14.614 40.5311 14.5869C40.7894 14.577 41.055 14.5302 41.2963 14.4908C41.7471 14.4169 42.1833 14.3725 42.6243 14.3356H42.6316C43.2286 14.2863 43.8622 14.2099 44.4665 14.1458C44.9807 14.0916 45.6264 14.0177 46.087 13.9093C46.2527 13.9241 46.1162 13.9586 46.0553 13.9857C46.8156 13.9167 47.6002 13.8033 48.4433 13.727ZM29.941 14.2197C29.9239 14.2838 29.9068 14.3503 29.8898 14.4144C29.8776 14.4686 29.8679 14.5253 29.8581 14.5795L29.9117 14.3848L29.941 14.2197ZM30.265 12.7044C30.2577 12.7365 30.2529 12.771 30.2456 12.8055L30.2675 12.7439C30.2772 12.7069 30.2894 12.6576 30.2918 12.6354C30.3016 12.5689 30.2894 12.596 30.265 12.7044ZM31.9172 2.9276C31.9318 2.89803 31.9513 2.86107 31.961 2.84136C31.9878 2.77237 32.0146 2.71077 32.039 2.64671L31.9172 2.9276ZM31.5955 3.57561L31.6248 3.51894L31.6053 3.53619L31.5955 3.57561ZM28.6032 9.76005L28.6251 9.69845C28.9589 9.04551 28.7006 9.46684 28.6787 9.45945C28.6543 9.51366 28.6324 9.56787 28.608 9.61961L28.6154 9.71324L28.6032 9.76005ZM28.0939 10.8565C28.0939 10.8614 28.1158 10.8319 28.1256 10.8146C28.1402 10.785 28.1524 10.753 28.1646 10.7234C28.1621 10.7185 28.1646 10.7013 28.1572 10.7136C28.1134 10.7801 28.089 10.8368 28.0939 10.8565ZM27.7162 11.6474L27.7406 11.5883L27.7649 11.4774L27.7284 11.6055L27.7162 11.6474ZM27.1435 12.5517L27.2142 12.5196C27.3068 12.3275 27.2361 12.4088 27.2459 12.3595C27.2459 12.362 27.2459 12.362 27.2435 12.3644L27.2459 12.3595L27.1435 12.5517ZM26.259 14.0571C26.2566 14.0818 26.2834 14.0547 26.3224 13.9906C26.3516 13.9389 26.3784 13.8847 26.3857 13.8576C26.3979 13.8206 26.3613 13.86 26.3224 13.9265C26.2931 13.9758 26.2809 14.0152 26.259 14.0571ZM25.6157 14.9663C25.6181 14.9811 25.6547 14.9441 25.7083 14.8752C25.7229 14.8554 25.7278 14.8382 25.7375 14.8185C25.7278 14.8111 25.701 14.8456 25.6449 14.9146C25.6303 14.9343 25.6157 14.9614 25.6157 14.9663ZM22.8646 17.6618L22.9182 17.5879L22.9499 17.5534L22.906 17.5978C22.889 17.62 22.7549 17.7308 22.8646 17.6618ZM21.8582 18.3444L21.8777 18.3419L21.9021 18.3172C21.8899 18.3271 21.8753 18.3345 21.8582 18.3444ZM18.8659 19.8424L18.9195 19.8178L18.9633 19.7931L18.9 19.8202L18.8659 19.8424ZM18.0179 20.143C18.0447 20.1356 18.0763 20.1307 18.0983 20.1233C18.1811 20.0937 18.1982 20.0765 18.1494 20.0863C18.1421 20.0888 18.0934 20.1061 18.0642 20.1159L18.0179 20.143ZM15.7907 20.6851H15.8321C16.1391 20.6678 16.4388 20.5594 16.741 20.4732L16.7995 20.4658L16.7556 20.4683C16.4559 20.4978 16.1586 20.6407 15.854 20.6777L15.7907 20.6851ZM9.91561 21.1926L9.98872 21.1976L9.9278 21.1853L9.91561 21.1926ZM9.17971 20.9734L9.19677 20.9906L9.23332 20.9931L9.17971 20.9734ZM8.49498 20.4485C8.52666 20.5003 8.57052 20.5323 8.61194 20.557C8.57295 20.5225 8.53153 20.488 8.49498 20.4485ZM8.00031 19.1673C7.99544 19.1624 7.97351 19.219 7.95645 19.2486C7.94914 19.293 7.94427 19.3693 7.94914 19.3718C7.95401 19.3743 7.97107 19.3028 7.98813 19.2634C7.993 19.2314 8.00519 19.1722 8.00031 19.1673ZM12.4011 17.2997L12.3816 17.2947L12.3499 17.3095L12.4011 17.2997ZM13.2613 17.0927C13.2418 17.0976 13.2101 17.1075 13.2052 17.1099C13.1858 17.1222 13.1736 17.1321 13.1589 17.1444L13.1005 17.1641L13.1711 17.142L13.2613 17.0927ZM14.755 16.7847C14.5089 16.8216 14.4236 16.834 14.331 16.8537C14.2409 16.8734 14.0727 16.9153 14.0581 16.9227C14.024 16.9448 14.1288 16.9301 14.236 16.9079C14.3262 16.8882 14.4261 16.8635 14.755 16.7847ZM15.9052 16.5112C15.9149 16.5038 15.8467 16.5112 15.815 16.5112C15.7419 16.526 15.6907 16.5408 15.6981 16.5506C15.7029 16.5555 15.7419 16.5555 15.7663 16.558C15.8175 16.5408 15.8954 16.5186 15.9052 16.5112ZM16.8896 16.319L16.836 16.3289L16.8628 16.3313L16.8896 16.319ZM17.3477 16.1761L17.3258 16.1712L17.2917 16.186L17.3477 16.1761ZM20.7154 15.6193C20.7105 15.6168 20.6617 15.6242 20.6325 15.6266C20.6081 15.6316 20.5667 15.6414 20.5667 15.6439C20.5618 15.6562 20.613 15.6513 20.691 15.634C20.7129 15.6291 20.7227 15.6217 20.7154 15.6193ZM22.7988 15.3655L22.7793 15.3581L22.7427 15.3704L22.7988 15.3655ZM24.3169 15.2645L24.2584 15.2595L24.2024 15.2546L24.2462 15.262L24.3169 15.2645ZM24.4192 15.092L24.3997 15.0846L24.3656 15.0944L24.4192 15.092ZM26.6489 15.2423C26.6513 15.2423 26.5904 15.2349 26.5807 15.2349C26.5344 15.2398 26.4954 15.2423 26.4515 15.2472L26.5807 15.2595C26.605 15.2546 26.6343 15.2472 26.6489 15.2423ZM27.7747 15.3285C27.7527 15.3359 27.7235 15.3433 27.7064 15.3507C27.6918 15.3581 27.6869 15.3679 27.6796 15.3753C27.7284 15.3704 27.7917 15.3679 27.821 15.3605C27.8624 15.3507 27.9209 15.3384 27.7747 15.3285ZM29.0613 15.3655C28.9955 15.3532 28.9248 15.3482 28.8493 15.3581L29.0613 15.3655ZM29.2562 15.2866C29.1953 15.2226 28.9175 15.2595 28.7348 15.2546C28.8322 15.2989 29.032 15.2965 29.2562 15.2866ZM29.5023 15.3482C29.495 15.331 29.4804 15.3162 29.3537 15.3014C29.3342 15.3187 29.3781 15.3359 29.5023 15.3482ZM30.3065 15.2645L30.2334 15.2669C30.131 15.2694 30.0092 15.2669 29.9336 15.2743C29.8654 15.2792 29.9312 15.2916 30.0092 15.2891C30.1018 15.2866 30.17 15.2768 30.248 15.2694L30.3065 15.2645ZM30.7524 15.3088L30.6915 15.3137C30.6647 15.3211 30.4892 15.3187 30.6208 15.3384L30.7085 15.3162L30.7524 15.3088ZM35.3213 15.1536L35.2507 15.161H35.3213V15.1536ZM43.984 14.4193C43.9572 14.4218 43.9231 14.4243 43.9085 14.4267C43.8622 14.4366 43.8183 14.4464 43.7745 14.4563L43.984 14.4193ZM46.0504 14.0226V13.9955C46.026 14.0005 45.9871 14.0079 45.9895 14.0103C45.9992 14.0152 46.0285 14.0177 46.0504 14.0226ZM47.3979 13.9389L47.4735 13.9265L47.4004 13.9315L47.3979 13.9389Z" fill="#262626"/>
<path d="M47.8789 13.9196C48.3565 13.9098 48.8341 13.8457 49.4579 13.7373C48.8366 13.7915 48.3565 13.8161 47.8789 13.9196Z" fill="#262626"/>
<path d="M49.7781 13.5937C49.7147 13.606 49.6124 13.6208 49.5978 13.6257C49.5612 13.6454 49.6562 13.6454 49.7805 13.6306C49.8414 13.6232 49.956 13.6035 49.9633 13.5986C49.9925 13.5813 49.895 13.5838 49.7781 13.5937Z" fill="#262626"/>
<path d="M35.7263 15.3655C35.6557 15.3828 35.7117 15.3901 35.8336 15.3852C35.9457 15.3803 36.0382 15.368 36.087 15.3507C36.0626 15.3458 36.0529 15.3359 36.0066 15.3359C35.8945 15.3359 35.7873 15.3507 35.7263 15.3655Z" fill="#262626"/>
<path d="M45.4267 7.14798C45.4852 7.12581 45.6144 7.12581 45.7289 7.14059C45.8434 7.15291 45.9384 7.18002 45.936 7.15291C46.2772 7.29336 46.5598 7.59395 46.6475 7.96847C46.7377 8.34052 46.667 8.73968 46.4867 9.09202C46.3941 9.2842 46.2552 9.56016 46.1504 9.75728C45.9969 10.0234 45.8166 10.1663 45.6728 10.2377C45.5071 10.3708 45.3707 10.4693 45.1855 10.627C44.837 10.9326 44.3058 11.1962 43.7502 11.418C43.8355 11.3219 44.279 11.1716 44.357 11.0779C44.0841 11.1716 43.8526 11.2874 43.6089 11.381C43.5675 11.3785 43.5675 11.3564 43.3993 11.4106C43.3798 11.4155 43.3433 11.4327 43.3433 11.4352C43.353 11.4574 43.4944 11.4155 43.6065 11.381C43.258 11.6003 42.6244 11.7284 42.0884 11.822C42.0737 11.827 42.0567 11.8344 42.0469 11.8368C41.9933 11.8418 42.0055 11.8368 42.0811 11.822C42.1663 11.7826 42.3125 11.7284 42.2955 11.6865C41.9763 11.7802 41.6741 11.8418 41.3573 11.8393C41.0406 11.7629 41.4109 11.79 41.294 11.7358C41.1307 11.7161 40.9748 11.6841 40.8261 11.6299C40.6775 11.5806 40.5264 11.4919 40.407 11.3711C40.2852 11.2504 40.1877 11.0977 40.1268 10.9153C40.0683 10.7355 40.0537 10.5137 40.1316 10.2969C40.1316 10.3733 40.1463 10.457 40.1682 10.5334C40.1682 10.6394 40.195 10.8242 40.234 10.8562C40.1999 10.7281 40.1828 10.6196 40.1706 10.5211C40.1706 10.3905 40.1974 10.255 40.2535 10.1392C40.3485 9.96178 40.4094 9.89033 40.4606 9.8238C40.5142 9.75974 40.5727 9.70061 40.7481 9.66858C40.9821 9.63901 41.1575 9.68336 41.3013 9.73264C41.4475 9.78192 41.5693 9.84351 41.6912 9.92729C41.7375 10.0185 41.6912 10.0111 41.6376 9.99381C41.5815 9.97903 41.5133 9.95439 41.506 9.98149L41.4597 9.95932L41.5108 9.98642C41.6497 10.0874 41.7107 10.1589 41.7545 10.1959C41.7984 10.2328 41.8228 10.2377 41.8544 10.255C41.9324 10.2919 42.0786 10.5309 42.0908 10.8266C42.0981 11.1543 42.0494 10.8586 41.9982 10.733C41.9763 10.6812 41.947 10.5901 41.9519 10.6788C42.0299 10.9991 42.0274 11.2356 42.0372 11.4204C42.0396 11.6077 42.0445 11.7481 42.0421 11.8886L42.0616 11.8344C42.0542 11.8565 42.0469 11.8787 42.0396 11.8984C41.947 12.2089 41.8081 12.4701 41.6765 12.6204C41.7277 12.5218 41.8447 12.3222 41.8057 12.3198C41.8033 12.3198 41.7813 12.374 41.7545 12.438C41.7277 12.5021 41.6936 12.576 41.6741 12.6253C41.5157 12.916 41.3744 13.1772 41.0722 13.4261C40.926 13.6059 40.7481 13.7094 40.5459 13.7981C40.5166 13.8252 40.4874 13.8474 40.4533 13.872C40.4119 13.8794 40.3704 13.8819 40.3266 13.8843C40.1487 13.9583 39.9001 13.978 39.6881 13.8622C39.4786 13.7562 39.3543 13.532 39.3446 13.3521C39.2861 13.0023 39.347 12.9062 39.3567 12.9037C39.3762 12.9037 39.3909 13.0047 39.4152 13.0885C39.4177 13.0688 39.4225 13.0244 39.425 13.0294C39.4347 13.0466 39.4323 13.0959 39.4274 13.1575C39.4493 13.3201 39.5078 13.4901 39.6224 13.6158C39.7418 13.7414 39.9099 13.808 40.0732 13.7981C39.9123 13.7833 39.7637 13.7193 39.6516 13.601C39.5419 13.4827 39.4835 13.3152 39.4786 13.1427C39.4859 12.7879 39.4664 12.7707 39.4372 12.6992C39.4177 12.6302 39.4177 12.5218 39.4567 12.3838C39.4932 12.2532 39.5541 12.098 39.6394 11.9206L39.6638 11.8738L39.6394 11.9132C39.6492 11.7555 39.7271 11.5683 39.8563 11.3588C39.9757 11.1691 39.9976 11.2184 40.0293 11.2751C40.1146 10.9449 39.9708 11.1174 39.9391 11.0705C40.0805 10.7552 40.1974 10.5802 40.2973 10.4743L40.2827 10.5162L40.3095 10.462L40.4143 10.2722L40.7262 10.4447C40.3583 11.2874 39.9001 12.0857 39.2008 12.8076C39.0302 12.985 38.8499 13.1698 38.6671 13.3595C38.5672 13.4581 38.46 13.5517 38.3309 13.6355C38.2017 13.7168 38.0482 13.7858 37.8703 13.7932C37.6705 13.803 37.5194 13.7267 37.422 13.6552C37.3245 13.5788 37.2733 13.5074 37.2441 13.4532C37.188 13.3423 37.2026 13.2979 37.2343 13.261C37.1271 13.1747 37.0296 12.9407 37.015 12.6573C37.0053 12.3789 37.0418 12.066 37.1149 11.7629C37.21 11.3687 37.344 10.9892 37.5292 10.6344C37.573 10.5457 37.6218 10.457 37.6729 10.3733C37.729 10.2796 37.7582 10.2303 37.8703 10.0751C38.0677 9.80902 38.2724 9.59959 38.4771 9.39754C38.5697 9.30638 38.6793 9.1955 38.7695 9.11419L38.7329 9.82873L38.6988 10.1934L38.6428 10.5556C38.5819 10.8858 38.5014 11.1592 38.3991 11.4525C38.4235 11.3293 38.4576 11.1666 38.404 11.2332C38.3357 11.4746 38.3967 11.3884 38.3942 11.4623C38.3625 11.5781 38.3333 11.689 38.287 11.8073C38.1335 12.1966 37.9873 12.4134 38.0092 12.2335C38.0141 12.1793 38.0092 12.1374 37.9264 12.2582C37.807 12.4972 37.8654 12.4528 37.863 12.507C37.8557 12.6228 37.746 12.8298 37.5024 13.1526C37.2587 13.4606 37.1393 13.4827 36.9492 13.6478C36.8591 13.7217 36.7884 13.7809 36.7031 13.8425C36.6154 13.9016 36.5106 13.9681 36.3278 14.0075C36.1232 14.0519 35.8917 14.042 35.6845 13.9583C35.4774 13.8794 35.2971 13.7143 35.1947 13.5148C35.0656 13.2684 34.9974 13.0368 34.9559 12.815C34.934 12.7288 34.9291 12.6475 34.9413 12.5735C34.934 12.1744 34.9998 11.822 35.0364 11.4598C35.0827 11.0977 35.129 10.7305 35.1728 10.3486C35.2727 9.54784 35.3312 9.3803 35.4872 9.06491C35.5359 8.79635 35.4628 8.85055 35.5213 8.57459C35.5993 8.22472 35.7089 7.86991 35.8113 7.54221C35.9014 7.26379 35.9964 7.01493 36.0452 6.77347C36.128 6.36692 36.3522 5.91356 36.4862 5.47498C36.5545 5.23845 36.6251 5.27048 36.764 4.99945C36.7494 4.87132 36.8201 4.64218 37.0491 4.16171C37.2173 3.81676 37.3927 3.47674 37.5755 3.13672L38.0628 3.27963C37.9922 4.11983 37.8752 4.95756 37.7314 5.79776C37.6193 6.42113 37.4536 7.04204 37.2563 7.63338L37.2636 7.57917L37.2538 7.64077C37.1953 7.88716 37.1149 8.13602 37.054 8.37009C36.9395 8.78403 36.9054 8.74953 36.8664 8.75692L36.8761 8.70765L36.8639 8.76185C36.6885 9.51088 36.3498 10.3092 35.9526 11.0681C35.8649 11.2282 35.7771 11.3835 35.6919 11.5412L35.4141 11.9945C35.4092 12.0709 35.4141 12.1374 35.224 12.3912C35.0315 12.7411 34.8292 13.0589 34.6026 13.3891C34.4808 13.5517 34.3419 13.7069 34.1713 13.84C34.0032 13.9681 33.7887 14.0889 33.5329 14.0864C33.4159 14.0987 33.316 14.0716 33.2478 14.0322C32.9602 13.9213 32.7897 13.6774 32.6824 13.4532C32.5557 13.1821 32.5216 12.9357 32.5241 12.7435C32.5265 12.5514 32.5655 12.406 32.6215 12.3099C32.5533 12.1793 32.5021 12.1251 32.546 11.721C32.5874 11.3317 32.6167 10.7971 32.7044 10.5975C32.7677 10.4546 32.7702 10.3954 32.7531 10.2796C32.7068 9.92975 32.8018 9.77452 32.8701 9.57248C32.8701 9.61683 32.836 9.75481 32.8603 9.72771L32.8701 9.57002C32.8969 8.94665 33.0869 8.26907 33.2161 7.63091C33.221 7.56931 33.221 7.51511 33.2526 7.40916C33.2526 7.4067 33.2575 7.42394 33.2551 7.43873C33.2429 7.49786 33.2307 7.56192 33.2185 7.62106L33.2258 7.83788C33.2819 7.64816 33.3038 7.50033 33.3233 7.34017C33.3526 7.09378 33.4037 6.80796 33.5012 6.48273C33.5207 6.43345 33.5158 6.52708 33.5499 6.37678L33.5012 6.47533C33.5061 6.38663 33.5304 6.2659 33.5767 6.15995C33.645 5.9998 33.7083 5.92834 33.7229 5.65978C33.7278 5.49469 33.8472 5.10293 33.9788 4.80233C34.03 4.6816 34.0763 4.61754 34.0519 4.72595C34.0422 4.77523 33.9983 4.8935 33.9739 4.97973C33.9423 5.04133 33.9203 5.10539 33.9081 5.17438L33.9008 5.21873L33.913 5.16206C33.9276 5.10539 33.9496 5.04872 33.9691 4.99698C34.2054 4.48941 34.281 4.09026 34.5198 3.66646C34.5417 3.62704 34.5514 3.6024 34.5856 3.55312L34.6782 3.41268C34.7366 3.31659 34.8195 3.22789 34.8902 3.13179C34.9633 3.04556 35.0388 2.96671 35.1143 2.89033C35.1899 2.82134 35.2605 2.75235 35.3385 2.68582C35.4774 2.56263 35.7235 2.35319 35.6699 2.44929C35.5725 2.6464 35.5237 2.87062 35.5042 3.13672C35.4969 3.22049 35.4945 3.29934 35.4823 3.40036C35.4604 3.52109 35.4238 3.67632 35.3605 3.8759C35.0948 4.71856 34.878 5.56615 34.5807 6.38171C34.3931 6.91638 34.2152 7.41902 34.0275 7.95122C33.6011 9.13144 33.1649 10.2821 32.6093 11.4377C32.2414 12.1966 31.8661 12.9678 31.4689 13.7168C31.3568 13.9312 31.2545 14.116 31.1448 14.2736C31.0157 14.4584 30.9304 14.5545 31.0133 14.3254C31.1302 13.9952 31.2837 13.6429 31.5347 13.1353C32.0781 12.0487 32.5972 10.94 33.0675 9.81395C33.5402 8.68301 33.9569 7.52743 34.3419 6.37678C34.5758 5.68688 34.7878 4.98959 34.9901 4.28984L35.129 3.7872L35.2216 3.43732L35.2679 3.26238L35.2898 3.17368L35.302 3.12933C35.302 3.12687 35.3044 3.12194 35.3044 3.11947L35.2947 3.12687L35.2776 3.14165C35.1826 3.2131 35.0973 3.29688 35.0169 3.38558C34.9608 3.44964 34.9072 3.51617 34.856 3.58515L34.7756 3.70342L34.6806 3.86111C34.5539 4.0804 34.4442 4.31201 34.3443 4.54855C34.1494 5.02162 34.0007 5.51687 33.857 6.01458C33.5719 7.01 33.3379 8.02021 33.1552 9.03781C32.9724 10.0579 32.8384 11.0878 32.758 12.1177C32.7239 12.6228 32.7434 13.1673 33.0382 13.569C33.1113 13.6651 33.2039 13.7464 33.3087 13.7932C33.4159 13.8351 33.5353 13.8474 33.6474 13.8203C33.8789 13.7636 34.0738 13.5887 34.2347 13.399C34.4004 13.2068 34.5271 12.9801 34.6684 12.7608C34.8097 12.5415 34.9365 12.3148 35.068 12.0906C35.1972 11.8664 35.3166 11.6348 35.4433 11.4056C35.5578 11.1716 35.6797 10.9424 35.7893 10.7084C36.3863 9.45422 36.8542 8.12123 37.1661 6.78825C37.4488 5.62528 37.634 4.4426 37.7192 3.25992L37.8728 3.30427C37.768 3.51616 37.6583 3.72067 37.5584 3.93257C36.6495 5.81993 35.9648 7.84774 35.6285 9.89772C35.5164 10.5654 35.4262 11.2332 35.3605 11.9034C35.3215 12.2384 35.3068 12.5637 35.3605 12.8766C35.4092 13.1871 35.5578 13.4655 35.8039 13.5739C36.0379 13.6872 36.3157 13.6232 36.5642 13.4729C36.8128 13.3201 37.0321 13.1033 37.2148 12.847C37.595 12.3395 37.8947 11.7629 38.0872 11.1519C38.1091 11.073 38.1262 10.9892 38.1408 10.9079C38.1603 10.8192 38.1822 10.7281 38.1968 10.6394L38.2212 10.5088L38.2261 10.4669C38.2334 10.4151 38.2383 10.3979 38.2651 10.3092C38.2748 10.2747 38.2797 10.2476 38.2797 10.2279C38.2529 10.2427 38.2115 10.3141 38.1895 10.3363C38.1725 10.3585 38.1554 10.3782 38.1408 10.4004L38.1189 10.4349L38.0385 10.5581C37.9312 10.7305 37.8386 10.9129 37.7558 11.0952C37.5925 11.4648 37.4829 11.8516 37.4098 12.236L37.4073 12.1941V12.2508C37.4049 12.4848 37.3878 12.7608 37.4585 12.9899C37.4926 13.1033 37.5438 13.2068 37.6047 13.2634C37.6656 13.325 37.7314 13.3398 37.7875 13.3349C37.7582 13.3275 37.7266 13.3127 37.7095 13.2979C37.6876 13.2758 37.7046 13.2807 37.7339 13.3004C37.7558 13.3103 37.7704 13.325 37.7899 13.3349C37.8533 13.3497 37.9288 13.3374 38.0165 13.3004C38.0214 13.3078 38.0238 13.3152 38.0238 13.3275L37.9897 13.3497L38.0287 13.325C38.0409 13.3152 38.0653 13.3004 38.0604 13.3004C38.0531 13.2979 38.0336 13.3004 38.019 13.2979C38.0774 13.2487 38.1725 13.1797 38.287 13.0786C38.4917 12.8889 38.365 13.0515 38.4088 13.0294C38.4625 12.9998 38.6671 12.815 38.8743 12.5859C39.0838 12.3592 39.2958 12.0881 39.403 11.9231C39.4859 11.7974 39.5566 11.6816 39.6467 11.5461C39.5566 11.6003 39.5761 11.5288 39.771 11.2874C40.1487 10.7995 40.1609 10.765 40.3704 10.2722L40.7506 10.4841C40.7213 10.5408 40.6897 10.6073 40.6507 10.6812C40.5459 10.8833 40.3485 11.3367 40.2267 11.5535C40.0683 11.8171 39.9391 12.1152 39.8319 12.4257C39.7247 12.7164 39.6784 13.0491 39.7539 13.2979C39.8222 13.5197 40.0122 13.6059 40.251 13.5271C40.4874 13.4507 40.7286 13.2511 40.9358 13.0491C41.3476 12.6327 41.6327 12.0857 41.7326 11.5042C41.7765 11.2701 41.774 11.0213 41.7765 10.8463C41.7643 10.7084 41.7302 10.5654 41.6571 10.457C41.5937 10.3634 41.523 10.2722 41.4353 10.2008C41.3451 10.1269 41.2428 10.0677 41.138 10.0283C40.9553 9.95932 40.7481 9.96671 40.5971 10.0677C40.446 10.1712 40.3631 10.3535 40.3729 10.5605C40.3777 10.765 40.4582 10.9769 40.5849 11.142C40.7067 11.312 40.8846 11.418 41.0917 11.4919C41.2574 11.551 41.4231 11.5707 41.6059 11.5633C42.1176 11.5387 42.6366 11.3711 43.1605 11.2726C43.3725 11.2282 43.5821 11.1469 43.7673 11.0632C44.1133 10.9104 44.4472 10.765 44.7688 10.595L44.7737 10.5925C45.2123 10.3634 45.6241 10.0234 45.9385 9.63655C46.0676 9.469 46.2041 9.26696 46.2991 9.05506C46.3917 8.84316 46.4404 8.61402 46.4307 8.43169C46.4745 8.30849 46.4843 8.4169 46.4965 8.47111C46.5428 8.16558 46.4867 7.83295 46.282 7.58903C46.0895 7.33031 45.7703 7.19234 45.4267 7.14798ZM33.277 9.78438C33.2526 9.83612 33.2258 9.8854 33.2039 9.93961C33.1844 9.98396 33.1722 10.0283 33.1552 10.0727L33.2283 9.91743L33.277 9.78438ZM33.7449 8.55981C33.7351 8.58691 33.7278 8.61402 33.7181 8.64358L33.7449 8.59677C33.7571 8.5672 33.7741 8.52778 33.779 8.51053C33.796 8.4514 33.7814 8.47111 33.7449 8.55981ZM33.2039 8.02268C33.2088 8.0005 33.2185 7.9734 33.2185 7.95861C33.2234 7.91673 33.2258 7.87731 33.2307 7.83788L33.2039 8.02268ZM33.0869 8.5401L33.0991 8.48589L33.0869 8.50561V8.5401ZM33.5792 14.0149L33.5134 14.0248C33.3258 14.0125 33.2283 13.9533 33.1747 13.9312C33.1235 13.9041 33.1162 13.9041 33.1259 13.9188C33.143 13.9509 33.2551 14.0248 33.2551 14.0322C33.3184 14.0519 33.3794 14.0691 33.4427 14.0691C33.4744 14.0568 33.5036 14.0445 33.5304 14.0273L33.5792 14.0149ZM34.4686 13.3891C34.4686 13.3842 34.4442 13.4063 34.4345 13.4187C34.4174 13.4408 34.4004 13.4655 34.3833 13.4901C34.3857 13.495 34.3784 13.5098 34.3882 13.5024C34.4369 13.4532 34.4686 13.4063 34.4686 13.3891ZM34.8682 12.7534L34.8439 12.8027L34.8171 12.8963L34.8536 12.7879L34.8682 12.7534ZM35.4043 12.0093L35.3385 12.0339C35.2581 12.199 35.3215 12.13 35.3142 12.1744C35.3458 12.1202 35.3751 12.066 35.4043 12.0093ZM36.0744 10.664C36.072 10.6418 36.0525 10.6689 36.0281 10.7281C36.0086 10.7749 35.994 10.8266 35.9916 10.8513C35.9867 10.8833 36.0135 10.8463 36.0379 10.7872C36.0574 10.7404 36.0622 10.7059 36.0744 10.664ZM36.4521 9.77945C36.4448 9.76713 36.4229 9.80656 36.3961 9.87801C36.3888 9.89772 36.3888 9.9125 36.3839 9.93221C36.3936 9.93714 36.4131 9.90265 36.4424 9.83119C36.4497 9.81148 36.4546 9.78438 36.4521 9.77945ZM37.4536 6.59114L37.4585 6.66998L37.4561 6.71187L37.4634 6.65766C37.4634 6.63056 37.4951 6.48519 37.4536 6.59114ZM37.6729 5.56122L37.6608 5.576L37.6632 5.60803L37.6729 5.56122ZM37.4244 3.71821L37.4439 3.66893L37.4585 3.62704L37.4341 3.68371L37.4244 3.71821ZM37.0881 4.41796C37.1003 4.39578 37.1149 4.37361 37.1222 4.3539C37.1515 4.28491 37.1539 4.26273 37.1271 4.29969C37.1247 4.30462 37.1076 4.34651 37.0979 4.37115L37.0881 4.41796ZM36.2962 6.23633L36.3157 6.20677C36.4375 5.97023 36.5155 5.71152 36.6032 5.45281L36.6276 5.40846L36.6056 5.44049C36.4741 5.66717 36.4204 5.94559 36.3181 6.18706L36.2962 6.23633ZM35.1801 11.2233L35.185 11.1592L35.1728 11.211L35.1801 11.2233ZM35.0559 11.9009L35.0656 11.8836L35.0607 11.8516L35.0559 11.9009ZM34.9608 12.7509C34.9633 12.6869 34.9608 12.6327 34.9462 12.5834C34.9511 12.6401 34.9535 12.6943 34.9608 12.7509ZM35.8917 13.872C35.8941 13.8646 35.8356 13.8498 35.8088 13.8301C35.7674 13.8203 35.6943 13.7981 35.6894 13.7981C35.6821 13.803 35.7528 13.84 35.7893 13.8597C35.8259 13.872 35.8892 13.877 35.8917 13.872ZM38.5039 10.7084L38.4917 10.7207L38.4941 10.7502L38.5039 10.7084ZM38.6282 9.78192C38.6282 9.80163 38.6257 9.83612 38.6282 9.84105C38.633 9.85337 38.6403 9.8583 38.6476 9.86569L38.6501 9.92729V9.84844L38.6282 9.78192ZM37.7972 10.2993C37.8362 10.2501 37.8703 10.2057 37.8996 10.1712C37.9337 10.1318 37.9629 10.0998 37.9873 10.0702C38.036 10.0135 38.0701 9.9741 38.1042 9.93468C38.1725 9.86323 38.2992 9.71785 38.3138 9.69568C38.3479 9.64147 38.2699 9.70553 38.1822 9.79916C38.1457 9.84105 38.1042 9.87555 38.0433 9.95932C38.0117 9.99874 37.9751 10.048 37.9312 10.1047C37.8849 10.1614 37.8313 10.2476 37.7972 10.2993ZM37.3537 11.2356C37.3562 11.2455 37.383 11.1937 37.3976 11.1691C37.4195 11.1075 37.4366 11.0656 37.4244 11.0656C37.4171 11.0656 37.3976 11.0952 37.383 11.11C37.3708 11.1543 37.3513 11.2233 37.3537 11.2356ZM37.1344 12.0857L37.1417 12.0364L37.1295 12.0586L37.1344 12.0857ZM37.1466 12.5095L37.1563 12.4922L37.149 12.4602L37.1466 12.5095ZM39.0911 12.7559C39.0887 12.7583 39.0595 12.7879 39.0424 12.8051C39.0302 12.8224 39.0083 12.852 39.0107 12.8544C39.0156 12.8667 39.0473 12.8347 39.0863 12.778C39.0936 12.7633 39.096 12.7534 39.0911 12.7559ZM40.1389 11.2923L40.1219 11.3022L40.1121 11.3342L40.1389 11.2923ZM40.368 10.5728L40.3997 10.5334L40.4289 10.4965L40.4021 10.5236L40.368 10.5728ZM40.4655 10.7379L40.4801 10.7281L40.4874 10.6985L40.4655 10.7379ZM39.5371 12.3986C39.5371 12.4011 39.559 12.3542 39.5614 12.3444C39.5687 12.305 39.5785 12.2705 39.5858 12.236L39.5395 12.337C39.5371 12.3592 39.5346 12.3838 39.5371 12.3986ZM39.425 13.4285C39.4104 13.4088 39.3957 13.3891 39.3811 13.3694C39.3689 13.3571 39.3592 13.3546 39.3494 13.3472C39.3641 13.3965 39.3957 13.4606 39.4128 13.4852C39.442 13.5221 39.4737 13.5714 39.425 13.4285ZM40.5435 13.7932C40.4825 13.8104 40.4216 13.8375 40.3534 13.8696C40.4192 13.8474 40.4825 13.8227 40.5435 13.7932ZM40.6531 13.6306C40.5776 13.6109 40.3924 13.771 40.2218 13.7981C40.3193 13.8277 40.4996 13.7538 40.6531 13.6306ZM40.8627 13.5468C40.848 13.5369 40.8286 13.5345 40.7311 13.5936C40.7286 13.6182 40.7701 13.6059 40.8627 13.5468ZM41.2818 12.9825C41.2696 12.9998 41.2599 13.017 41.2452 13.0343C41.1892 13.1033 41.1283 13.1797 41.0844 13.2363C41.0479 13.2831 41.0966 13.2511 41.138 13.1994C41.1916 13.1378 41.216 13.086 41.255 13.0294L41.2818 12.9825ZM41.5303 12.6869L41.506 12.7337C41.5035 12.7583 41.4158 12.8865 41.4962 12.8002L41.5157 12.7238L41.5303 12.6869ZM40.5922 9.947C40.6068 9.93714 40.6239 9.92975 40.6409 9.9199L40.5898 9.93961L40.5922 9.947ZM45.8093 10.0899C45.7922 10.1047 45.7703 10.1269 45.7606 10.1367C45.7338 10.1712 45.7094 10.1983 45.6826 10.2279C45.7289 10.186 45.7679 10.1367 45.8093 10.0899ZM46.5257 8.47357L46.5013 8.46865C46.5013 8.48836 46.4989 8.52285 46.5013 8.52039C46.5087 8.51053 46.5184 8.49082 46.5257 8.47357ZM46.265 7.40916C46.2479 7.39438 46.2333 7.37959 46.2138 7.36727C46.2309 7.37959 46.243 7.39684 46.2577 7.41409L46.265 7.40916Z" fill="#262626"/>
<path d="M45.9385 7.15285V7.15039H45.9336H45.936L45.9385 7.15285Z" fill="#262626"/>
<path d="M45.933 7.1506C45.5577 6.94363 45.102 6.93871 44.5781 7.04958C45.1093 6.99291 45.5212 7.02987 45.933 7.1506Z" fill="#262626"/>
<path d="M44.3165 7.19684C44.3677 7.18452 44.4554 7.16481 44.4651 7.15742C44.4944 7.13524 44.414 7.14017 44.3116 7.15742C44.2605 7.16727 44.1679 7.19191 44.1606 7.19931C44.1362 7.21902 44.219 7.21163 44.3165 7.19684Z" fill="#262626"/>
<path d="M40.1804 10.026C40.2097 9.95213 40.1658 9.99401 40.1024 10.1123C40.0513 10.2232 40.0391 10.3242 40.044 10.3759C40.0561 10.3513 40.0683 10.3439 40.0805 10.2995C40.1097 10.1887 40.156 10.0876 40.1804 10.026Z" fill="#262626"/>
</g>
<defs>
<clipPath id="clip0_552_298686">
<rect width="50" height="21" fill="white" transform="translate(0 0.5)"/>
</clipPath>
</defs>
</svg>
