<svg width="83" height="42" viewBox="0 0 83 42" fill="none" xmlns="http://www.w3.org/2000/svg">
<rect x="1" y="0.5" width="81" height="41" rx="5.5" stroke="#E5E7EB"/>
<rect x="1.5" y="1" width="80" height="40" rx="5" fill="white"/>
<path fill-rule="evenodd" clip-rule="evenodd" d="M43.464 14.5751L40.2723 15.2601V12.6723L43.464 12V14.5751ZM30.4934 13.4708L27.3906 14.1303L27.3779 24.2902C27.3779 26.1674 28.7894 27.5499 30.6714 27.5499C31.7141 27.5499 32.4771 27.3597 32.8967 27.1314V24.5565C32.4898 24.7214 30.4807 25.3049 30.4807 23.4277V18.9249H32.8967V16.2232H30.4807L30.4934 13.4708ZM64.4587 21.8171C64.4587 18.57 62.882 16.0078 59.8682 16.0078C56.8418 16.0078 55.0107 18.57 55.0107 21.7917C55.0107 25.6096 57.1724 27.5375 60.2752 27.5375C61.7884 27.5375 62.9328 27.1951 63.7975 26.7131V24.1763C62.9328 24.6075 61.941 24.8739 60.6821 24.8739C59.4486 24.8739 58.355 24.4426 58.2152 22.9459H64.4333C64.4333 22.8761 64.4379 22.7175 64.4431 22.5347L64.4431 22.5344V22.5342C64.4503 22.2856 64.4587 21.9924 64.4587 21.8171ZM58.1762 20.6117C58.1762 19.1782 59.0536 18.582 59.8547 18.582C60.6304 18.582 61.4569 19.1782 61.4569 20.6117H58.1762ZM22.9787 18.7603C22.3048 18.7603 21.8978 18.9505 21.8978 19.4452C21.8978 19.9853 22.5982 20.2229 23.467 20.5176C24.8833 20.9982 26.7475 21.6306 26.7554 23.9734C26.7554 26.2438 24.937 27.5502 22.292 27.5502C21.1985 27.5502 20.0031 27.3346 18.8205 26.8272V23.8085C19.8887 24.3919 21.2366 24.8232 22.292 24.8232C23.0041 24.8232 23.5128 24.6329 23.5128 24.0495C23.5128 23.4512 22.7536 23.1777 21.8371 22.8476C20.4414 22.3448 18.6807 21.7106 18.6807 19.5974C18.6807 17.3523 20.3973 16.0079 22.9787 16.0079C24.0342 16.0079 25.0769 16.1727 26.1323 16.5913V19.572C25.1659 19.052 23.9451 18.7603 22.9787 18.7603ZM36.8519 17.1623L36.6485 16.2237H33.9018V27.3221H37.0808V19.8006C37.8311 18.8239 39.1027 19.0015 39.4969 19.141V16.2237C39.09 16.0715 37.6022 15.7924 36.8519 17.1623ZM40.2723 16.2237H43.464V27.3221H40.2723V16.2237ZM47.6079 16.9972C48.0529 16.5913 48.8541 16.0079 50.1002 16.0079C52.3256 16.0079 54.4237 18.0119 54.4364 21.6903C54.4364 25.7111 52.3637 27.5376 50.0875 27.5376C48.9685 27.5376 48.2945 27.0682 47.8368 26.7385L47.8241 30.328L44.645 31.0003V16.2108H47.4426L47.6079 16.9972ZM47.8355 24.1511C48.1407 24.4809 48.5858 24.7473 49.336 24.7473C50.5059 24.7473 51.2943 23.4788 51.2943 21.7789C51.2943 20.1171 50.4932 18.8232 49.336 18.8232C48.6112 18.8232 48.1534 19.0769 47.8228 19.4448L47.8355 24.1511Z" fill="#6461FC"/>
</svg>
