<svg width="16" height="14" viewBox="0 0 16 14" fill="none" xmlns="http://www.w3.org/2000/svg">
<path d="M15.5289 2.40286C15.0451 2.61107 14.5365 2.75605 14.0157 2.83422C14.2592 2.79248 14.6175 2.35416 14.7601 2.17675C14.9768 1.90914 15.1419 1.60364 15.2471 1.27576C15.2471 1.25141 15.2715 1.21663 15.2471 1.19923C15.2349 1.19253 15.2211 1.18902 15.2071 1.18902C15.1931 1.18902 15.1794 1.19253 15.1671 1.19923C14.6016 1.50551 13.9996 1.73926 13.3756 1.89497C13.3538 1.90162 13.3307 1.90221 13.3086 1.8967C13.2866 1.89118 13.2664 1.87976 13.2504 1.86367C13.2018 1.80582 13.1495 1.75121 13.0938 1.70017C12.8393 1.47212 12.5505 1.28547 12.2381 1.14705C11.8163 0.974013 11.3607 0.899074 10.9057 0.927894C10.4642 0.955775 10.0332 1.07419 9.63946 1.27576C9.25171 1.48829 8.91093 1.777 8.6376 2.12457C8.35007 2.4823 8.1425 2.89746 8.02882 3.34211C7.93509 3.76507 7.92445 4.20222 7.99751 4.62923C7.99751 4.70229 7.99751 4.71272 7.9349 4.70229C5.45458 4.33702 3.41954 3.45691 1.75672 1.56798C1.68367 1.48449 1.6454 1.48449 1.58626 1.56798C0.862694 2.66725 1.21404 4.4066 2.11851 5.26584C2.24026 5.38063 2.36549 5.49195 2.49768 5.59631C2.08299 5.56687 1.67843 5.45449 1.30797 5.26584C1.23839 5.22061 1.20013 5.24496 1.19665 5.32845C1.18679 5.4442 1.18679 5.56058 1.19665 5.67632C1.26923 6.23104 1.48784 6.75652 1.83012 7.19903C2.1724 7.64155 2.62606 7.98522 3.14472 8.1949C3.27116 8.24906 3.4029 8.28987 3.53782 8.31666C3.15391 8.39224 2.76018 8.40399 2.37245 8.35145C2.28896 8.33405 2.25765 8.37928 2.28896 8.45929C2.80033 9.85077 3.91004 10.2752 4.72405 10.5117C4.83537 10.5291 4.94669 10.5291 5.07192 10.5569C5.07192 10.5569 5.07192 10.5569 5.05105 10.5778C4.81102 11.0161 3.84046 11.3118 3.39519 11.4649C2.58245 11.7568 1.71592 11.8684 0.855736 11.7919C0.720067 11.771 0.688759 11.7745 0.653972 11.7919C0.619185 11.8093 0.653972 11.8475 0.692237 11.8823C0.866172 11.9971 1.04011 12.098 1.221 12.1954C1.75952 12.4891 2.32884 12.7225 2.91861 12.8912C5.97291 13.733 9.40987 13.1138 11.7023 10.8352C13.5043 9.04719 14.1374 6.58079 14.1374 4.11091C14.1374 4.01698 14.2522 3.96132 14.3183 3.91262C14.7742 3.55741 15.1761 3.13791 15.5115 2.66725C15.5696 2.59709 15.5994 2.50776 15.595 2.41678C15.595 2.3646 15.595 2.37503 15.5289 2.40286Z" fill="white"/>
</svg>
