<svg width="672" height="500" viewBox="0 0 672 500" fill="none" xmlns="http://www.w3.org/2000/svg">
<path d="M671.516 439.391H0.483398V439.726H671.516V439.391Z" fill="#E2E4E6"/>
<path d="M604.28 460.984H575.184V461.32H604.28V460.984Z" fill="#E2E4E6"/>
<path d="M463.053 454.031H417.275V454.367H463.053V454.031Z" fill="#E2E4E6"/>
<path d="M592.496 448.531H532.733V448.867H592.496V448.531Z" fill="#E2E4E6"/>
<path d="M232.687 455.289H217.736V455.625H232.687V455.289Z" fill="#E2E4E6"/>
<path d="M205.78 455.289H154.258V455.625H205.78V455.289Z" fill="#E2E4E6"/>
<path d="M126.652 449.625H89.4766V449.961H126.652V449.625Z" fill="#E2E4E6"/>
<path d="M318.553 379.535H59.4134C57.3834 379.532 55.4377 378.723 54.0034 377.286C52.5692 375.849 51.7637 373.902 51.7637 371.872V7.59608C51.7813 5.57765 52.5947 3.6477 54.027 2.22543C55.4593 0.803168 57.3949 0.00345767 59.4134 0H318.553C320.585 0 322.534 0.807369 323.972 2.24449C325.409 3.68162 326.216 5.63078 326.216 7.66318V371.872C326.216 373.905 325.409 375.854 323.972 377.291C322.534 378.728 320.585 379.535 318.553 379.535ZM59.4134 0.268414C57.4724 0.271969 55.612 1.04555 54.2407 2.41937C52.8694 3.79319 52.0992 5.65498 52.0992 7.59608V371.872C52.0992 373.813 52.8694 375.675 54.2407 377.049C55.612 378.423 57.4724 379.196 59.4134 379.2H318.553C320.495 379.196 322.357 378.423 323.73 377.05C325.104 375.676 325.877 373.815 325.881 371.872V7.59608C325.877 5.65375 325.104 3.79199 323.73 2.41855C322.357 1.04512 320.495 0.271961 318.553 0.268414H59.4134Z" fill="#E2E4E6"/>
<path d="M608.854 379.535H349.701C347.67 379.532 345.723 378.723 344.287 377.287C342.85 375.851 342.042 373.904 342.038 371.872V7.59608C342.059 5.57642 342.876 3.64649 344.31 2.22459C345.744 0.802699 347.682 0.00341997 349.701 0H608.854C610.87 0.00698476 612.803 0.808256 614.232 2.23014C615.661 3.65203 616.473 5.57996 616.491 7.59608V371.872C616.491 373.9 615.687 375.845 614.256 377.281C612.824 378.718 610.882 379.528 608.854 379.535ZM349.701 0.268414C347.759 0.271961 345.897 1.04512 344.524 2.41855C343.15 3.79199 342.377 5.65375 342.374 7.59608V371.872C342.377 373.815 343.15 375.676 344.524 377.05C345.897 378.423 347.759 379.196 349.701 379.2H608.854C610.797 379.196 612.658 378.423 614.032 377.05C615.405 375.676 616.178 373.815 616.182 371.872V7.59608C616.178 5.65375 615.405 3.79199 614.032 2.41855C612.658 1.04512 610.797 0.271961 608.854 0.268414H349.701Z" fill="#E2E4E6"/>
<path d="M290.463 195.783L291.067 178.148L280.25 174.605C279.785 168.629 278.815 162.702 277.351 156.89L286.531 150.179L280.304 133.618L268.95 134.531C266.258 129.195 263.115 124.099 259.556 119.299L265.434 109.488L253.355 96.5908L243.209 101.785C238.647 97.8847 233.772 94.3656 228.634 91.2628L230.272 79.9895L214.167 72.6887L206.786 81.3315C201.091 79.51 195.256 78.1633 189.339 77.3054L186.655 66.2602L168.966 65.6562L165.477 76.4867C159.506 76.9561 153.585 77.9212 147.775 79.3721L140.957 70.2461L124.396 76.433L125.309 87.7869C119.976 90.5197 114.881 93.6936 110.076 97.2753L100.199 91.2628L87.2478 103.341L92.4416 113.541C88.5407 118.081 85.0384 122.948 81.9735 128.089L70.7136 126.398L63.359 142.503L72.0556 149.871C70.2211 155.562 68.8742 161.398 68.0294 167.317L56.85 170.122L56.2461 187.757L67.1168 191.3C67.5665 197.273 68.5319 203.196 70.0023 209.002L60.8225 215.712L67.0631 232.287L78.417 231.374C81.1021 236.714 84.2454 241.81 87.8115 246.607L81.9198 256.417L93.9984 269.314L104.144 264.12C108.695 268.02 113.561 271.534 118.692 274.629L117.001 285.889L133.106 293.203L140.528 284.56C146.222 286.398 152.057 287.767 157.975 288.653L160.659 299.699L178.347 300.303L181.837 289.472C187.811 288.997 193.736 288.032 199.552 286.587L206.262 295.713L222.823 289.526L221.964 278.172C227.287 275.422 232.381 272.249 237.197 268.684L246.954 274.562L259.905 262.483L254.711 252.283C258.613 247.745 262.115 242.877 265.179 237.736L276.439 239.427L283.793 223.322L275.097 215.94C276.962 210.254 278.332 204.416 279.19 198.494L290.463 195.783ZM171.301 252.914C157.462 252.447 144.072 247.885 132.825 239.807C121.579 231.728 112.981 220.495 108.119 207.53C103.257 194.564 102.35 180.447 105.513 166.966C108.675 153.485 115.764 141.244 125.885 131.792C136.005 122.341 148.701 116.103 162.366 113.868C176.032 111.633 190.054 113.501 202.658 119.236C215.262 124.972 225.881 134.316 233.174 146.088C240.466 157.859 244.103 171.529 243.625 185.368C242.988 203.915 235.012 221.449 221.449 234.116C207.886 246.783 189.848 253.544 171.301 252.914Z" fill="#E2E4E6"/>
<path d="M592.334 137.448L596.777 133.301L595.019 129.798C596.36 128.229 597.567 126.55 598.629 124.779L602.521 125.356L605.03 119.8L602.051 117.264C602.693 115.299 603.164 113.283 603.46 111.238L607.285 110.285L607.473 104.192L603.742 102.984C603.578 100.92 603.246 98.8737 602.749 96.8642L605.903 94.5156L603.755 88.8118L599.85 89.1205C598.908 87.2809 597.817 85.5214 596.589 83.8596L598.615 80.5045L594.441 76.0488L590.952 77.8338C589.38 76.4957 587.701 75.2883 585.933 74.2236L586.496 70.3316L580.954 67.7951L578.404 70.7879C576.436 70.1751 574.42 69.7262 572.378 69.4459L571.425 65.6344L565.332 65.4062L564.111 69.164C562.055 69.3211 560.017 69.6534 558.018 70.1572L555.683 67.0033L549.965 69.1372L550.288 73.056C548.443 73.9886 546.682 75.0798 545.027 76.3172L541.645 74.2907L537.189 78.4377L538.92 81.8599C537.569 83.425 536.357 85.1044 535.297 86.8793L531.418 86.3022L528.895 91.8583L531.888 94.4082C531.267 96.3698 530.818 98.3815 530.546 100.421L526.707 101.374L526.52 107.466L530.264 108.674C530.417 110.738 530.744 112.786 531.244 114.794L528.076 117.129L530.224 122.833L534.142 122.538C535.084 124.377 536.175 126.137 537.404 127.799L535.377 131.154L539.551 135.61L543.04 133.825C544.609 135.167 546.288 136.375 548.06 137.435L547.483 141.313L553.039 143.85L555.589 140.87C557.559 141.477 559.573 141.926 561.615 142.213L562.567 146.024L568.66 146.252L569.882 142.494C571.937 142.338 573.976 142.006 575.975 141.501L578.31 144.655L584.027 142.521L583.718 138.602C585.558 137.668 587.314 136.577 588.966 135.341L592.334 137.448ZM560.635 111.775C559.463 110.519 558.69 108.944 558.413 107.248C558.137 105.553 558.369 103.814 559.081 102.251C559.793 100.687 560.953 99.3705 562.414 98.4666C563.874 97.5626 565.57 97.1122 567.287 97.1723C569.004 97.2325 570.664 97.8004 572.058 98.8042C573.451 99.8081 574.516 101.203 575.117 102.812C575.718 104.421 575.829 106.172 575.434 107.844C575.04 109.516 574.158 111.033 572.901 112.204C572.067 112.991 571.085 113.604 570.013 114.008C568.94 114.413 567.797 114.6 566.652 114.561C565.506 114.521 564.379 114.254 563.337 113.776C562.295 113.297 561.359 112.617 560.581 111.775H560.635Z" fill="#E2E4E6"/>
<path d="M429.944 318.532L416.067 308.936C414.707 303.939 412.836 299.096 410.484 294.482L414.041 280.525L393.91 258.971L379.737 261.561C375.291 258.898 370.583 256.698 365.686 254.999L357.07 240.491L327.545 239.484L317.962 253.361C312.971 254.721 308.133 256.587 303.522 258.931L289.564 255.374L268.01 275.505L270.601 289.651C267.939 294.106 265.745 298.823 264.051 303.729L249.544 312.345L248.537 341.87L262.427 351.453C263.765 356.476 265.632 361.344 267.997 365.974L264.4 379.81L284.531 401.364L298.61 398.787C303.089 401.454 307.829 403.657 312.755 405.363L321.358 419.844L350.883 420.864L360.452 406.987C365.488 405.627 370.371 403.757 375.027 401.404L388.904 404.947L410.471 384.816L407.881 370.671C410.55 366.215 412.745 361.492 414.43 356.579L428.938 347.963L429.944 318.532ZM338.08 363.343C331.525 363.119 325.184 360.957 319.859 357.129C314.533 353.302 310.462 347.981 308.16 341.84C305.858 335.699 305.429 329.013 306.926 322.628C308.424 316.242 311.781 310.445 316.574 305.968C321.366 301.49 327.379 298.535 333.851 297.474C340.323 296.414 346.964 297.296 352.935 300.01C358.905 302.724 363.937 307.147 367.394 312.72C370.851 318.294 372.578 324.767 372.356 331.322C372.048 340.113 368.264 348.422 361.835 354.426C355.406 360.43 346.858 363.637 338.066 363.343H338.08Z" fill="#E2E4E6"/>
<path d="M461.549 234.864H461.456L438.211 234.072C437.74 234.064 437.279 233.936 436.871 233.701C436.463 233.467 436.12 233.133 435.876 232.73L429.608 222.195C426.23 220.959 422.962 219.442 419.838 217.659L409.813 219.39C409.346 219.475 408.865 219.442 408.414 219.291C407.964 219.141 407.558 218.88 407.236 218.531L391.359 201.54C391.026 201.189 390.789 200.757 390.672 200.286C390.554 199.816 390.56 199.324 390.688 198.856L393.225 188.912C391.653 185.689 390.369 182.335 389.387 178.886L379.281 171.908C378.889 171.639 378.571 171.275 378.358 170.85C378.144 170.425 378.042 169.954 378.06 169.479L378.851 146.234C378.867 145.765 378.998 145.307 379.232 144.899C379.466 144.492 379.796 144.149 380.193 143.899L390.756 137.631C391.974 134.261 393.487 131.005 395.278 127.902L393.426 117.796C393.34 117.327 393.373 116.843 393.523 116.39C393.673 115.938 393.935 115.53 394.285 115.206L411.276 99.3424C411.627 99.008 412.058 98.7694 412.528 98.6496C412.998 98.5297 413.491 98.5326 413.96 98.658L423.945 101.208C427.159 99.6356 430.505 98.3468 433.943 97.3562L440.922 87.2504C441.181 86.849 441.543 86.5242 441.97 86.3095C442.397 86.0948 442.874 85.998 443.351 86.0291L466.582 86.8344C467.055 86.8444 467.517 86.9724 467.927 87.2069C468.337 87.4413 468.682 87.7746 468.931 88.1764L475.198 98.7251C478.552 99.9564 481.794 101.474 484.888 103.261L495.034 101.396C495.501 101.309 495.983 101.342 496.433 101.493C496.884 101.643 497.289 101.905 497.611 102.255L513.487 119.245C513.818 119.599 514.054 120.031 514.171 120.5C514.289 120.97 514.284 121.462 514.158 121.929L511.609 131.901C513.181 135.117 514.474 138.462 515.474 141.899L525.566 148.878C525.958 149.147 526.275 149.511 526.489 149.936C526.702 150.36 526.805 150.832 526.787 151.307L525.996 174.538C525.98 175.009 525.849 175.469 525.615 175.879C525.381 176.288 525.051 176.634 524.653 176.887L514.091 183.154C512.865 186.517 511.352 189.768 509.569 192.871L511.421 202.99C511.507 203.457 511.474 203.938 511.324 204.389C511.174 204.84 510.911 205.245 510.562 205.567L493.464 221.443C493.112 221.776 492.68 222.013 492.21 222.131C491.74 222.248 491.247 222.243 490.78 222.114L480.848 219.578C477.612 221.143 474.25 222.431 470.796 223.43L463.885 233.522C463.636 233.92 463.292 234.251 462.885 234.485C462.478 234.719 462.019 234.849 461.549 234.864ZM439.956 228.462L460.087 229.147L466.797 219.497C467.169 218.934 467.739 218.532 468.394 218.37C472.171 217.337 475.835 215.93 479.332 214.169C479.941 213.876 480.635 213.804 481.291 213.968L490.686 216.37L505.448 202.614L503.757 192.911C503.627 192.233 503.751 191.53 504.106 190.938C506.1 187.615 507.741 184.093 509.005 180.43C509.218 179.766 509.667 179.202 510.266 178.846L520.372 172.861L521.057 152.73L511.394 146.019C510.885 145.672 510.503 145.168 510.307 144.583C510.307 144.516 510.307 144.436 510.307 144.355C509.273 140.646 507.87 137.049 506.12 133.619C505.809 133.005 505.733 132.299 505.905 131.632L508.32 122.131L494.564 107.368L484.915 109.139C484.241 109.262 483.546 109.138 482.955 108.791C479.626 106.793 476.1 105.143 472.434 103.865C472.223 103.798 472.021 103.708 471.83 103.597C471.443 103.355 471.121 103.024 470.89 102.63L464.838 92.4979L444.707 91.8L437.996 101.476C437.596 102.044 437.006 102.448 436.332 102.617C432.594 103.638 428.97 105.037 425.515 106.791C424.906 107.102 424.204 107.178 423.542 107.006L414.04 104.59L399.278 118.346L401.049 127.969C401.154 128.576 401.065 129.2 400.794 129.754L400.66 129.982C398.664 133.318 397.022 136.853 395.761 140.53C395.539 141.161 395.102 141.693 394.527 142.033L384.421 148.032L383.737 168.163L393.413 174.874C393.965 175.251 394.364 175.812 394.54 176.457C395.546 180.226 396.945 183.878 398.714 187.355C398.81 187.553 398.886 187.76 398.942 187.972C399.043 188.414 399.043 188.873 398.942 189.314L396.526 198.709L410.283 213.471L419.865 211.713C420.534 211.591 421.226 211.715 421.811 212.062C425.166 214.056 428.714 215.706 432.4 216.988C433.065 217.185 433.628 217.632 433.97 218.236L439.956 228.462ZM452.397 203.003C451.9 203.003 451.403 203.003 450.907 203.003C439.75 202.807 429.123 198.212 421.338 190.218C413.553 182.225 409.24 171.48 409.338 160.322C409.436 149.164 413.938 138.497 421.862 130.642C429.787 122.787 440.494 118.379 451.652 118.379C462.81 118.379 473.517 122.787 481.441 130.642C489.366 138.497 493.867 149.164 493.965 160.322C494.064 171.48 489.751 182.225 481.966 190.218C474.18 198.212 463.553 202.807 452.397 203.003ZM452.397 123.701C442.647 123.869 433.359 127.882 426.554 134.865C419.749 141.848 415.978 151.237 416.062 160.988C416.146 170.738 420.078 180.061 427.003 186.926C433.927 193.791 443.283 197.643 453.034 197.643C462.785 197.643 472.141 193.791 479.066 186.926C485.99 180.061 489.923 170.738 490.007 160.988C490.091 151.237 486.32 141.848 479.514 134.865C472.709 127.882 463.421 123.869 453.672 123.701H452.397Z" fill="#E2E4E6"/>
<path d="M515.085 67.533L505.449 64.9563L502.872 55.3203L506.643 51.5625L510.616 59.7894L518.856 63.7753L515.085 67.533Z" fill="#E2E4E6"/>
<path d="M515.675 61.0883C516.092 60.6715 516.423 60.1766 516.648 59.6321C516.874 59.0875 516.99 58.5038 516.99 57.9143C516.99 57.3248 516.874 56.7412 516.648 56.1966C516.423 55.652 516.092 55.1571 515.675 54.7403C515.258 54.3235 514.763 53.9929 514.219 53.7673C513.674 53.5417 513.091 53.4256 512.501 53.4256C511.912 53.4256 511.328 53.5417 510.783 53.7673C510.239 53.9929 509.744 54.3235 509.327 54.7403L514.118 47.5469L520.533 50.7947L521.943 57.505L515.675 61.0883Z" fill="#E2E4E6"/>
<path d="M505.879 52.3405L512.938 45.2812L522.547 47.8446L525.138 57.4672L518.078 64.5264L508.456 61.9363L505.879 52.3405ZM518.696 58.1114C519.324 57.4824 519.752 56.6813 519.925 55.8093C520.098 54.9373 520.009 54.0336 519.668 53.2123C519.328 52.3911 518.752 51.6892 518.012 51.1954C517.273 50.7015 516.404 50.438 515.515 50.438C514.626 50.438 513.757 50.7015 513.018 51.1954C512.278 51.6892 511.702 52.3911 511.362 53.2123C511.021 54.0336 510.932 54.9373 511.105 55.8093C511.278 56.6813 511.706 57.4824 512.334 58.1114C513.185 58.9454 514.329 59.4104 515.52 59.4054C516.711 59.4003 517.852 58.9257 518.696 58.0845V58.1114Z" fill="#AAB0B6"/>
<path d="M121.565 324.388L126.732 322.993L128.114 317.826L126.101 315.812L123.967 320.228L119.538 322.362L121.565 324.388Z" fill="#E2E4E6"/>
<path d="M121.269 320.932C120.865 320.471 120.652 319.874 120.672 319.261C120.692 318.648 120.945 318.066 121.378 317.633C121.811 317.199 122.394 316.947 123.006 316.927C123.619 316.906 124.216 317.12 124.678 317.524L122.114 313.672L118.585 315.39L117.833 319.013L121.269 320.932Z" fill="#E2E4E6"/>
<path d="M126.504 316.214L122.719 312.43L117.552 313.772L116.21 318.939L119.927 322.764L125.094 321.422L126.504 316.214ZM119.632 319.314C119.383 319.097 119.182 318.83 119.04 318.531C118.899 318.232 118.82 317.908 118.809 317.577C118.798 317.246 118.855 316.917 118.977 316.61C119.098 316.302 119.282 316.023 119.515 315.789C119.749 315.555 120.029 315.372 120.336 315.25C120.644 315.129 120.973 315.072 121.304 315.083C121.634 315.094 121.959 315.172 122.258 315.314C122.557 315.455 122.823 315.657 123.041 315.906C123.445 316.367 123.658 316.964 123.638 317.577C123.618 318.19 123.365 318.772 122.932 319.205C122.498 319.639 121.916 319.891 121.304 319.911C120.691 319.932 120.093 319.718 119.632 319.314Z" fill="#AAB0B6"/>
<path d="M102.964 41.1513L107.258 45.4459C107.795 45.9738 108.518 46.2696 109.271 46.2696C110.024 46.2696 110.747 45.9738 111.284 45.4459C111.809 44.9072 112.103 44.1849 112.103 43.4328C112.103 42.6808 111.809 41.9585 111.284 41.4198L107.003 37.1386C106.465 36.6139 105.742 36.3203 104.99 36.3203C104.238 36.3203 103.516 36.6139 102.977 37.1386C102.451 37.6733 102.156 38.3924 102.153 39.1422C102.151 39.892 102.442 40.6131 102.964 41.1513Z" fill="#AAB0B6"/>
<path d="M99.9436 30.4839C101.064 30.1723 102.252 30.1947 103.36 30.5484C104.468 30.9021 105.448 31.5717 106.181 32.475C106.914 33.3782 107.367 34.4758 107.485 35.633C107.603 36.7902 107.38 37.9566 106.844 38.989C106.308 40.0214 105.483 40.8749 104.469 41.4446C103.455 42.0143 102.296 42.2755 101.136 42.196C99.9753 42.1166 98.8633 41.7 97.9363 40.9974C97.0092 40.2949 96.3076 39.3368 95.9174 38.2411C95.6697 37.4675 95.5775 36.6525 95.646 35.8431C95.7145 35.0337 95.9424 34.2458 96.3166 33.5248C96.6908 32.8039 97.2039 32.164 97.8264 31.6421C98.4489 31.1203 99.1684 30.7266 99.9436 30.4839Z" fill="#E2E4E6"/>
<path d="M95.2729 37.5196L95.8945 39.25L108.651 34.6674L108.03 32.937L95.2729 37.5196Z" fill="#AAB0B6"/>
<path d="M336 500.001C479.712 500.001 596.213 493.2 596.213 484.809C596.213 476.419 479.712 469.617 336 469.617C192.288 469.617 75.7871 476.419 75.7871 484.809C75.7871 493.2 192.288 500.001 336 500.001Z" fill="#F7F8F9"/>
<path d="M116.868 88.1033C115.526 82.1848 116.116 77.2192 118.666 73.1661C121.216 69.1131 125.376 66.4558 131.295 65.1138C137.214 63.7717 142.327 64.3085 146.326 66.8048C150.325 69.301 153.036 73.5151 154.379 79.286C155.326 82.8478 155.404 86.5851 154.607 90.1835C153.826 93.1719 152.178 95.862 149.869 97.9138C147.127 100.222 143.836 101.785 140.314 102.45C136.861 103.367 133.246 103.491 129.738 102.812C126.689 102.071 123.932 100.436 121.82 98.1151C119.297 95.2852 117.586 91.826 116.868 88.1033ZM128.061 85.6071C128.893 89.2575 130.168 91.7269 131.886 93.0153C132.772 93.6065 133.769 94.0124 134.817 94.2084C135.865 94.4044 136.941 94.3865 137.982 94.1558C139.022 93.9252 140.005 93.4865 140.872 92.8661C141.739 92.2457 142.471 91.4565 143.025 90.5459C143.991 88.6804 144.004 85.7144 143.092 81.6748C142.313 78.266 141.056 75.9308 139.321 74.6693C138.447 74.042 137.443 73.6188 136.384 73.4306C135.325 73.2425 134.237 73.2943 133.201 73.5822C132.163 73.7765 131.184 74.2035 130.335 74.8311C129.487 75.4588 128.792 76.2707 128.302 77.2058C127.309 79.1786 127.215 81.8627 128.061 85.6071Z" fill="#2E3B48"/>
<path d="M159.64 83.6764C159.163 81.8475 159.078 79.9385 159.39 78.0744C159.703 76.2103 160.405 74.4332 161.452 72.8594C162.625 71.1874 164.117 69.7636 165.842 68.6696C167.567 67.5757 169.491 66.8331 171.504 66.4846C176.756 65.2946 181.068 65.9165 184.441 68.3501C187.28 70.5506 189.21 73.7186 189.863 77.2503C190.517 80.7821 189.848 84.4308 187.984 87.5013C185.891 90.6954 182.482 92.8248 177.758 93.8895C174.118 94.907 170.235 94.593 166.807 93.0038C164.973 92.1077 163.372 90.7993 162.129 89.1811C160.885 87.5629 160.034 85.6788 159.64 83.6764ZM169.719 81.3547C169.99 83.2301 170.906 84.9525 172.309 86.2263C172.865 86.6472 173.506 86.942 174.188 87.0902C174.869 87.2384 175.575 87.2364 176.256 87.0845C176.936 86.9325 177.576 86.6342 178.129 86.2102C178.683 85.7862 179.138 85.2467 179.462 84.6293C180.165 82.8266 180.231 80.8381 179.65 78.9926C179.368 77.1612 178.462 75.4832 177.087 74.2417C176.553 73.8089 175.927 73.5051 175.256 73.3538C174.586 73.2025 173.89 73.2078 173.222 73.3694C172.525 73.5137 171.871 73.8147 171.308 74.2495C170.746 74.6844 170.289 75.2416 169.974 75.879C169.251 77.6183 169.161 79.5558 169.719 81.3547Z" fill="#2E3B48"/>
<path d="M199.887 98.7319L191.66 62.4962L201.055 60.3489L201.94 64.2275C202.603 62.6807 203.566 61.2804 204.772 60.1074C206.096 58.9835 207.677 58.2043 209.375 57.8393C210.944 57.4125 212.596 57.388 214.177 57.7679C215.758 58.1479 217.217 58.9202 218.421 60.0134C221.073 62.493 222.873 65.7487 223.561 69.3139C224.554 73.6756 224.259 77.2455 222.702 80.0504C221.962 81.3915 220.938 82.5555 219.703 83.4616C218.468 84.3677 217.05 84.9943 215.549 85.2979C214.102 85.6409 212.603 85.7001 211.134 85.4724C209.724 85.2255 208.381 84.691 207.188 83.9021L210.033 96.4236L199.887 98.7319ZM204.732 73.4206C204.978 75.0968 205.816 76.6296 207.094 77.7421C207.606 78.1344 208.201 78.4058 208.833 78.5359C209.465 78.6661 210.119 78.6516 210.744 78.4936C211.325 78.3771 211.871 78.1258 212.337 77.7598C212.804 77.3938 213.177 76.9234 213.428 76.3866C213.999 74.7069 213.999 72.8859 213.428 71.2062C213.183 69.5216 212.374 67.9699 211.134 66.8043C210.673 66.422 210.131 66.1506 209.55 66.011C208.968 65.8714 208.362 65.8673 207.778 65.999C207.162 66.1321 206.583 66.4028 206.086 66.7909C205.589 67.179 205.185 67.6745 204.906 68.2403C204.249 69.8946 204.188 71.7258 204.732 73.4206Z" fill="#2E3B48"/>
<path d="M227.87 74.2163L237.64 71.0087C238.16 71.9533 238.969 72.706 239.949 73.156C241.003 73.4613 242.118 73.4857 243.185 73.2267C244.251 72.9678 245.231 72.4345 246.028 71.6798C246.251 71.443 246.412 71.1554 246.499 70.8421C246.586 70.5287 246.594 70.1989 246.525 69.8814C246.444 69.5181 246.256 69.1872 245.986 68.9313C245.716 68.6754 245.375 68.5062 245.008 68.4454C243.492 68.2789 241.962 68.2789 240.445 68.4454C237.9 68.6619 235.341 68.6619 232.795 68.4454C231.305 68.2292 229.908 67.5912 228.769 66.6068C227.554 65.5549 226.714 64.1358 226.378 62.5642C226.041 60.9926 226.226 59.3541 226.904 57.8968C227.686 56.3374 228.903 55.0372 230.407 54.1524C232.547 52.9362 234.873 52.0794 237.291 51.6159C239.6 50.9894 241.986 50.7001 244.377 50.757C245.879 50.8537 247.334 51.3143 248.618 52.0991C249.986 53.0219 251.147 54.2194 252.027 55.6153L242.633 58.7154C242.282 58.0162 241.698 57.461 240.982 57.1452C240.003 56.795 238.941 56.7483 237.935 57.011C237.047 57.1349 236.222 57.5448 235.587 58.1786C235.385 58.3947 235.239 58.6569 235.162 58.9423C235.085 59.2276 235.079 59.5276 235.144 59.8159C235.217 60.1333 235.384 60.4211 235.623 60.6415C235.863 60.862 236.164 61.0046 236.486 61.0506C237.986 61.2248 239.504 61.1932 240.995 60.9567C243.583 60.5816 246.209 60.5456 248.806 60.8493C250.44 61.0801 251.97 61.7846 253.208 62.8758C254.327 63.8907 255.105 65.2266 255.436 66.7007C255.78 68.2814 255.654 69.9282 255.074 71.4382C254.364 73.2259 253.129 74.7562 251.531 75.8267C249.177 77.3656 246.54 78.4195 243.773 78.9269C238.987 80.0184 235.408 80.1124 233.037 79.2087C230.727 78.2862 228.871 76.4934 227.87 74.2163Z" fill="#2E3B48"/>
<path d="M260.644 41.0234H271.662V49.4784L269.635 66.4824H262.818L260.644 49.5053V41.0234ZM261.18 69.0457H271.461V78.1449H261.18V69.0457Z" fill="#2E3B48"/>
<path d="M173.18 156.458H172.939C166.899 154.109 163.289 151.828 161.41 149.076C159.94 149.355 158.418 149.148 157.075 148.486C155.503 147.716 154.198 146.491 153.331 144.97C152.875 145.319 152.339 145.548 151.771 145.635C151.203 145.722 150.623 145.664 150.083 145.466C148.429 144.847 147.018 143.714 146.057 142.232C145.456 142.68 144.709 142.886 143.964 142.809C139.937 142.487 134.569 134.542 134.18 126.087C134.176 125.908 134.24 125.735 134.36 125.603C134.48 125.471 134.646 125.389 134.824 125.376C134.912 125.372 135 125.386 135.083 125.416C135.166 125.447 135.242 125.493 135.307 125.553C135.371 125.613 135.424 125.685 135.461 125.765C135.498 125.845 135.518 125.932 135.522 126.02C135.898 134.072 141.038 141.225 144.084 141.467C144.306 141.492 144.53 141.473 144.745 141.41C144.959 141.348 145.159 141.244 145.332 141.105C144.283 139.191 143.624 137.088 143.393 134.918C143.163 132.748 143.366 130.554 143.99 128.462C145.145 124.436 146.165 122.853 147.399 123.094C149.708 123.671 149.399 132.489 148.178 138.246C147.993 139.284 147.61 140.278 147.05 141.172C147.841 142.498 149.036 143.538 150.459 144.138C150.838 144.282 151.251 144.315 151.649 144.231C152.046 144.148 152.411 143.953 152.7 143.668C151.654 141.078 151.358 137.535 152.861 133.025C154.74 127.08 155.546 126.919 155.962 126.812C156.118 126.779 156.281 126.789 156.432 126.841C156.583 126.893 156.717 126.985 156.821 127.107C158.069 128.516 156.579 137.749 155.022 142.312C154.84 142.862 154.587 143.385 154.271 143.869C154.991 145.321 156.164 146.499 157.612 147.224C158.562 147.686 159.619 147.886 160.672 147.801C160.551 147.547 160.444 147.292 160.337 147.023C159.276 144.138 159.8 140.823 161.934 136.85C163.343 134.233 164.497 132.999 165.571 132.999C165.856 133.002 166.134 133.088 166.372 133.245C166.609 133.402 166.797 133.624 166.913 133.884C168.08 136.045 167.235 143.171 164.927 146.714C164.386 147.527 163.634 148.176 162.752 148.593C164.551 150.955 167.973 153.036 173.489 155.156C173.572 155.186 173.648 155.232 173.712 155.292C173.777 155.351 173.829 155.423 173.865 155.503C173.901 155.583 173.921 155.67 173.923 155.758C173.926 155.846 173.91 155.933 173.878 156.015C173.826 156.155 173.73 156.274 173.604 156.354C173.478 156.434 173.329 156.47 173.18 156.458ZM165.557 134.354C165.557 134.354 164.792 134.354 163.101 137.508C161.155 141.105 160.659 144.071 161.585 146.567C161.697 146.876 161.832 147.176 161.987 147.466C162.714 147.166 163.332 146.651 163.759 145.99C165.638 143.118 166.537 137.213 165.839 134.904C165.745 134.435 165.557 134.354 165.557 134.354ZM155.921 128.704C155.195 130.232 154.593 131.816 154.123 133.441C153.094 136.258 152.916 139.315 153.613 142.232L153.734 141.883C155.143 137.629 155.894 133.185 155.962 128.704H155.921ZM147.091 124.476C146.862 124.678 146.205 125.523 145.279 128.798C144.184 132.473 144.529 136.427 146.245 139.856C146.52 139.256 146.723 138.626 146.849 137.978C148.285 131.388 147.882 125.429 147.131 124.476H147.091Z" fill="#2E3B48"/>
<path d="M224.205 226.809C222.06 226.829 219.947 226.278 218.086 225.212C217.932 225.119 217.821 224.971 217.776 224.798C217.731 224.625 217.755 224.441 217.844 224.286C217.888 224.21 217.947 224.144 218.017 224.091C218.087 224.039 218.167 224.001 218.252 223.979C218.337 223.958 218.426 223.954 218.512 223.968C218.599 223.981 218.682 224.012 218.757 224.057C223.548 226.862 229.735 224.903 231.01 222.85C231.102 222.721 231.167 222.575 231.202 222.42C231.236 222.266 231.239 222.106 231.211 221.95C228.761 222.091 226.335 221.401 224.326 219.991C220.904 217.857 220.636 217.213 220.662 216.703C220.669 216.556 220.715 216.414 220.795 216.292C220.875 216.169 220.987 216.07 221.119 216.005C222.461 215.334 228.513 218.112 231.037 219.776C231.339 219.977 231.618 220.211 231.869 220.474C232.86 220.249 233.754 219.713 234.419 218.944C234.793 218.504 235.063 217.986 235.21 217.428H234.942C232.795 217.642 230.647 216.716 228.352 214.596C226.769 213.147 226.165 212.14 226.366 211.348C226.427 211.126 226.55 210.925 226.722 210.771C226.893 210.616 227.105 210.514 227.332 210.476C229.184 210.006 233.774 211.966 235.64 214.019C236.056 214.465 236.351 215.01 236.499 215.602C238.257 214.784 240.109 212.918 242.296 209.872C242.347 209.799 242.412 209.738 242.487 209.69C242.562 209.643 242.645 209.611 242.733 209.596C242.82 209.581 242.909 209.583 242.996 209.603C243.082 209.623 243.164 209.659 243.236 209.711C243.38 209.816 243.477 209.973 243.507 210.148C243.537 210.323 243.497 210.503 243.397 210.65C240.86 214.193 238.74 216.206 236.62 217.025C236.51 218.017 236.103 218.953 235.452 219.709C234.679 220.608 233.663 221.265 232.526 221.602C232.59 221.922 232.59 222.252 232.525 222.572C232.461 222.892 232.333 223.196 232.15 223.467C231.023 225.386 227.775 226.809 224.205 226.809ZM223.011 217.495C223.467 217.83 224.111 218.273 225.038 218.837C226.481 219.81 228.139 220.418 229.869 220.608C227.709 219.313 225.408 218.268 223.011 217.495ZM227.695 211.791C228.08 212.517 228.616 213.153 229.265 213.657C231.251 215.495 233.063 216.341 234.808 216.126H235.237C235.142 215.709 234.938 215.325 234.647 215.012C232.768 212.892 228.634 211.576 227.695 211.791Z" fill="#2E3B48"/>
<path d="M241.975 224.969L221.066 228.767L202.075 125.133L161.733 132.46L95.9717 249.22L103.031 287.751L187.38 272.438L193.151 303.949L233.493 296.595L227.722 265.083L248.632 261.285L241.975 224.969ZM136.153 244.254L171.047 183.096L180.777 236.162L136.153 244.254Z" fill="#7539FF"/>
<path d="M410.391 118.104C409.756 111.59 408.313 105.179 406.097 99.0204C403.816 93.1208 400.648 87.604 396.702 82.6606C392.031 76.9094 386.23 72.1773 379.658 68.7568C372.5 64.8291 363.007 62.0957 351.179 60.5568C326.619 57.3538 307.482 61.711 293.766 73.6285C280.05 85.546 271.013 108.361 266.656 142.074C264.916 154.673 264.467 167.417 265.314 180.108C266.209 191.739 268.347 201.102 271.729 208.197C276.033 217.765 282.822 226.005 291.39 232.059C299.863 238.009 311.494 241.941 326.284 243.856C352.57 247.282 372.062 242.232 384.758 228.704C397.454 215.176 405.864 192.316 409.989 160.124C411.822 146.186 411.957 132.076 410.391 118.104Z" fill="#7539FF"/>
<path d="M338.375 230.068C335.141 229.96 331.665 229.665 328.162 229.209C315.869 227.612 306.367 224.498 299.898 219.962C293.447 215.407 288.346 209.193 285.135 201.978L285.068 201.831C282.492 196.462 280.801 188.746 280.062 179.016C279.281 167.328 279.694 155.591 281.297 143.988C286.088 106.786 295.979 91.2582 303.428 84.7894C312.124 77.247 323.867 73.8382 339.301 74.375C342.468 74.4824 345.824 74.7642 349.273 75.2071C359.177 76.5492 367.028 78.6965 372.584 81.7295C377.385 84.202 381.636 87.6214 385.079 91.7816C388.092 95.5389 390.513 99.7342 392.259 104.223C394.042 109.227 395.196 114.434 395.695 119.723C397.126 132.54 396.995 145.482 395.306 158.267C391.588 187.175 384.395 207.494 373.94 218.66C366.183 226.927 354.547 230.739 338.362 230.121L338.375 230.068Z" fill="#2E3B48"/>
<path d="M364.64 118.491L364.814 113.404L361.687 112.384C361.554 110.664 361.276 108.958 360.855 107.284L363.539 105.325L361.741 100.547L358.466 100.816C357.696 99.2801 356.799 97.8121 355.782 96.4271L357.473 93.5954L353.984 89.8778L351.058 91.3809C349.749 90.2554 348.349 89.2409 346.871 88.3479L347.341 85.1001L342.697 82.9931L340.577 85.4893C338.935 84.9572 337.251 84.5621 335.544 84.3083L334.752 81.1276L329.652 80.9531L328.646 84.0667C326.926 84.2043 325.22 84.4826 323.546 84.8988L321.573 82.2147L316.795 83.9996L317.064 87.2742C315.529 88.045 314.061 88.9428 312.675 89.9584L309.857 88.2539L306.126 91.7299L307.629 94.669C306.5 95.9772 305.49 97.3829 304.609 98.8697L301.362 98.3731L299.241 103.017L301.751 105.137C301.206 106.78 300.811 108.469 300.57 110.183L297.376 110.988L297.201 116.061L300.328 117.081C300.459 118.806 300.738 120.517 301.16 122.195L298.476 124.141L300.275 128.918L303.549 128.65C304.311 130.19 305.21 131.659 306.233 133.039L304.529 135.87L308.018 139.588L310.944 138.098C312.253 139.219 313.654 140.229 315.131 141.118L314.648 144.366L319.292 146.473L321.425 143.99C323.072 144.519 324.76 144.91 326.472 145.157L327.263 148.352L332.35 148.526L333.356 145.399C335.081 145.268 336.792 144.99 338.47 144.567L340.416 147.251L345.193 145.466L344.938 142.205C346.468 141.424 347.935 140.527 349.327 139.521L352.145 141.212L355.876 137.736L354.387 134.797C355.511 133.493 356.517 132.092 357.393 130.609L360.641 131.093L362.761 126.449L360.265 124.329C360.799 122.688 361.19 121.004 361.432 119.296L364.64 118.491ZM330.283 134.958C326.308 134.812 322.465 133.493 319.239 131.166C316.014 128.838 313.55 125.608 312.159 121.881C310.767 118.155 310.511 114.1 311.423 110.228C312.334 106.356 314.372 102.841 317.279 100.126C320.187 97.4116 323.833 95.6191 327.758 94.975C331.683 94.3309 335.711 94.864 339.334 96.5071C342.956 98.1502 346.011 100.83 348.112 104.207C350.213 107.585 351.266 111.509 351.139 115.484C351.054 118.134 350.447 120.741 349.351 123.156C348.256 125.57 346.695 127.745 344.757 129.554C342.819 131.364 340.543 132.772 338.059 133.7C335.575 134.627 332.933 135.055 330.283 134.958Z" fill="#7539FF"/>
<path opacity="0.3" d="M385.818 211.876L386.194 208.441L384.127 207.609C384.124 206.44 384.025 205.273 383.832 204.119L385.698 202.925L384.745 199.61H382.517C382.076 198.532 381.542 197.495 380.92 196.51L382.181 194.685L380.034 192.001L377.981 192.859C377.149 192.036 376.251 191.282 375.297 190.605L375.793 188.431L372.773 186.767L371.19 188.364C370.111 187.92 368.998 187.565 367.861 187.303L367.486 185.116L364.063 184.727L363.218 186.793C362.052 186.799 360.889 186.907 359.742 187.115L358.548 185.21L355.233 186.189V188.417C354.154 188.863 353.117 189.401 352.132 190.028L350.307 188.686L347.623 190.833L348.482 192.886C347.664 193.719 346.914 194.617 346.241 195.57L344.067 195.087L342.416 198.107L344 199.677C343.55 200.758 343.195 201.876 342.939 203.019L340.738 203.381L340.376 206.803L342.429 207.662C342.43 208.823 342.534 209.982 342.738 211.125L340.846 212.319L341.812 215.634H344.053C344.501 216.707 345.04 217.74 345.664 218.721L344.322 220.546L346.469 223.23L348.549 222.358C349.375 223.184 350.273 223.934 351.233 224.599L350.764 226.814L353.783 228.464L355.353 226.894C356.433 227.328 357.546 227.673 358.682 227.928L359.071 230.129L362.493 230.504L363.325 228.451C364.512 228.449 365.697 228.351 366.868 228.156L368.063 230.048L371.364 229.082V226.854C372.443 226.4 373.484 225.862 374.478 225.243L376.276 226.586L378.96 224.425L378.088 222.371C378.915 221.539 379.673 220.641 380.356 219.687L382.517 220.17L384.181 217.151L382.597 215.594C383.029 214.513 383.374 213.401 383.631 212.266L385.818 211.876ZM368.546 210.534C367.978 211.574 367.115 212.421 366.065 212.969C365.016 213.517 363.827 213.742 362.65 213.615C361.472 213.487 360.359 213.014 359.451 212.254C358.543 211.493 357.881 210.481 357.549 209.345C357.216 208.208 357.228 206.998 357.583 205.869C357.939 204.739 358.621 203.74 359.544 202.998C360.467 202.257 361.589 201.805 362.769 201.701C363.948 201.597 365.132 201.846 366.171 202.415C367.559 203.18 368.588 204.463 369.033 205.985C369.478 207.506 369.303 209.142 368.546 210.534Z" fill="#7539FF"/>
<path d="M404.834 153.869L400.808 151.104C400.412 149.667 399.872 148.273 399.197 146.944L400.217 142.917L394.42 136.704L390.393 137.455C389.116 136.695 387.768 136.061 386.367 135.563L383.884 131.376L375.389 131.094L372.624 135.12C371.185 135.51 369.791 136.05 368.464 136.73L364.438 135.697L358.224 141.508L358.976 145.534C358.204 146.806 357.57 148.155 357.083 149.561L352.91 152.043L352.614 160.539L356.64 163.303C357.031 164.751 357.57 166.154 358.251 167.491L357.231 171.517L363.029 177.73L367.055 176.992C368.333 177.752 369.681 178.385 371.081 178.885L373.55 183.058L382.059 183.354L384.81 179.327C386.261 178.934 387.669 178.394 389.011 177.717L393.037 178.737L399.251 172.939L398.513 168.913C399.276 167.637 399.91 166.288 400.405 164.887L404.579 162.404L404.834 153.869ZM378.355 166.779C376.466 166.714 374.639 166.091 373.104 164.988C371.57 163.884 370.397 162.351 369.734 160.581C369.071 158.811 368.948 156.884 369.381 155.044C369.813 153.204 370.781 151.534 372.163 150.244C373.544 148.954 375.277 148.103 377.143 147.799C379.008 147.494 380.922 147.749 382.642 148.533C384.362 149.316 385.811 150.591 386.806 152.198C387.802 153.805 388.298 155.67 388.233 157.559C388.142 160.09 387.051 162.482 385.199 164.211C383.348 165.939 380.887 166.863 378.355 166.779Z" fill="white"/>
<path d="M433.971 86.0597L434.669 84.3821C435.144 84.1147 435.593 83.8048 436.011 83.4561H437.568L439.393 80.772L438.803 79.336C439.029 78.8576 439.209 78.3588 439.34 77.8463L440.682 76.6116L440.118 73.4577L438.427 72.7598C438.162 72.2839 437.852 71.8345 437.501 71.4178V69.861L434.884 68.0358L433.435 68.6397C432.905 68.4531 432.355 68.3271 431.797 68.2639L430.562 66.9219L427.422 67.4855L426.711 69.1765C426.213 69.4347 425.741 69.7403 425.302 70.0891H423.758L421.933 72.7733L422.524 74.2093C422.343 74.7409 422.217 75.2895 422.148 75.8466L420.806 77.0947L421.369 80.2351L423.06 80.933C423.316 81.4113 423.622 81.8612 423.973 82.2751V83.8184L426.657 85.6436L428.093 85.0531C428.63 85.2277 429.183 85.349 429.744 85.4155L430.979 86.7576L433.971 86.0597ZM427.261 77.3631C427.134 76.6629 427.218 75.9407 427.501 75.288C427.785 74.6354 428.256 74.0815 428.855 73.6966C429.453 73.3116 430.152 73.1129 430.864 73.1255C431.575 73.1382 432.267 73.3616 432.852 73.7676C433.436 74.1735 433.887 74.7438 434.148 75.4061C434.408 76.0685 434.466 76.7931 434.314 77.4884C434.162 78.1837 433.808 78.8184 433.295 79.3121C432.783 79.8058 432.135 80.1364 431.435 80.262C430.497 80.4265 429.533 80.2142 428.751 79.6713C427.97 79.1284 427.434 78.2989 427.261 77.3631Z" fill="#7539FF"/>
<path d="M397.212 77.1608L396.179 76.2884C398.393 73.5417 401.13 71.261 404.231 69.5781L404.862 70.7591C401.913 72.3648 399.312 74.5409 397.212 77.1608Z" fill="#7539FF"/>
<path d="M407.922 69.5196L407.398 68.2849C412.354 66.1313 417.774 65.2634 423.154 65.7619L423.02 67.1039C417.864 66.6179 412.669 67.4491 407.922 69.5196Z" fill="#7539FF"/>
<path d="M405.385 78.8039L404.284 78.0524C407.517 73.6861 412.223 70.6395 417.53 69.4766L417.785 70.8186C412.826 71.9017 408.423 74.7369 405.385 78.8039Z" fill="#7539FF"/>
<path d="M316.326 208.026C316.143 208.021 315.969 207.944 315.843 207.812L313.038 204.913C311.608 204.783 310.193 204.523 308.81 204.134L304.422 206.067C304.325 206.12 304.217 206.148 304.106 206.148C303.996 206.148 303.888 206.12 303.791 206.067L296.436 201.195C296.342 201.133 296.265 201.047 296.213 200.946C296.161 200.845 296.136 200.732 296.141 200.618V195.841C295.244 194.718 294.453 193.514 293.779 192.244L290.008 190.794C289.902 190.753 289.809 190.686 289.736 190.6C289.663 190.513 289.614 190.409 289.592 190.298L287.847 181.655C287.824 181.545 287.829 181.43 287.862 181.322C287.895 181.214 287.954 181.116 288.035 181.038L290.934 178.233C291.073 176.804 291.333 175.39 291.712 174.005L289.78 169.617C289.727 169.52 289.699 169.411 289.699 169.301C289.699 169.191 289.727 169.083 289.78 168.986L294.651 161.631C294.712 161.534 294.798 161.456 294.899 161.404C295.001 161.352 295.115 161.328 295.229 161.336L300.006 161.403C301.126 160.501 302.33 159.71 303.603 159.041L305.066 155.27C305.105 155.165 305.169 155.072 305.254 154.999C305.338 154.927 305.44 154.877 305.549 154.854L314.192 153.109C314.302 153.085 314.417 153.089 314.525 153.122C314.633 153.155 314.731 153.215 314.809 153.297L317.614 156.196C319.048 156.327 320.468 156.587 321.855 156.974L326.23 155.042C326.329 154.989 326.44 154.961 326.552 154.961C326.665 154.961 326.775 154.989 326.874 155.042L334.216 159.913C334.309 159.979 334.385 160.065 334.439 160.165C334.492 160.265 334.522 160.377 334.524 160.491L334.444 165.268C335.346 166.391 336.141 167.595 336.819 168.865L340.577 170.328C340.682 170.367 340.775 170.431 340.847 170.516C340.92 170.6 340.97 170.702 340.993 170.811L342.751 179.454C342.772 179.564 342.766 179.678 342.733 179.786C342.7 179.893 342.642 179.991 342.563 180.071L339.651 182.89C339.517 184.315 339.256 185.725 338.873 187.104L340.805 191.492C340.858 191.591 340.886 191.702 340.886 191.814C340.886 191.927 340.858 192.037 340.805 192.136L336.001 199.424C335.938 199.515 335.853 199.589 335.755 199.641C335.657 199.692 335.548 199.719 335.437 199.719L330.646 199.652C329.522 200.542 328.323 201.332 327.062 202.014L325.6 205.785C325.56 205.892 325.493 205.986 325.406 206.059C325.319 206.132 325.215 206.181 325.103 206.201L316.46 208.026H316.326ZM308.77 202.658C308.832 202.646 308.896 202.646 308.958 202.658C310.407 203.08 311.896 203.355 313.4 203.477C313.561 203.496 313.712 203.566 313.83 203.678L316.514 206.496L324.432 204.899L325.855 201.222C325.921 201.074 326.034 200.951 326.177 200.873C327.517 200.18 328.781 199.348 329.948 198.39C330.071 198.286 330.23 198.234 330.391 198.243L335.048 198.31L339.503 191.6L337.624 187.332C337.571 187.184 337.571 187.023 337.624 186.876C338.04 185.425 338.314 183.937 338.443 182.433C338.457 182.271 338.528 182.118 338.644 182.004L341.463 179.32L339.866 171.402L336.202 169.979C336.044 169.922 335.915 169.806 335.839 169.657C335.143 168.318 334.311 167.054 333.357 165.886C333.261 165.763 333.209 165.612 333.209 165.456V160.786L326.499 156.33L322.244 158.209C322.092 158.263 321.927 158.263 321.775 158.209C320.32 157.789 318.828 157.515 317.319 157.39C317.158 157.371 317.007 157.301 316.89 157.189L314.205 154.371L306.287 155.981L304.878 159.712C304.822 159.866 304.712 159.995 304.569 160.075C303.224 160.766 301.955 161.598 300.785 162.557C300.727 162.61 300.659 162.65 300.585 162.675C300.511 162.701 300.433 162.711 300.355 162.705L295.698 162.638L291.229 169.348L293.108 173.616C293.151 173.706 293.173 173.805 293.173 173.904C293.173 174.004 293.151 174.103 293.108 174.193C292.711 175.61 292.45 177.061 292.33 178.528C292.317 178.691 292.246 178.843 292.128 178.957L289.31 181.641L290.921 189.56L294.571 190.982C294.734 191.05 294.867 191.174 294.947 191.331C295.639 192.661 296.466 193.916 297.416 195.076C297.516 195.196 297.568 195.349 297.564 195.505V200.175L304.274 204.631L308.542 202.752C308.612 202.708 308.689 202.676 308.77 202.658ZM315.36 198.31C312.129 198.307 308.96 197.429 306.189 195.769C303.418 194.109 301.148 191.729 299.622 188.882C298.095 186.035 297.368 182.828 297.519 179.601C297.669 176.374 298.691 173.248 300.476 170.556C302.183 167.973 304.532 165.877 307.292 164.474C310.051 163.07 313.128 162.407 316.221 162.549C319.314 162.691 322.317 163.634 324.937 165.284C327.557 166.935 329.703 169.237 331.166 171.966C332.63 174.694 333.36 177.756 333.285 180.851C333.21 183.947 332.334 186.97 330.741 189.624C329.148 192.279 326.893 194.476 324.197 195.998C321.501 197.52 318.456 198.317 315.36 198.31ZM301.603 171.294C299.797 174.02 298.839 177.22 298.851 180.49C298.863 183.759 299.845 186.952 301.671 189.664C303.498 192.377 306.087 194.486 309.113 195.727C312.138 196.967 315.463 197.283 318.668 196.634C321.873 195.984 324.813 194.4 327.117 192.079C329.421 189.759 330.986 186.808 331.613 183.599C332.24 180.39 331.901 177.067 330.64 174.05C329.378 171.033 327.251 168.458 324.526 166.651C322.719 165.441 320.69 164.602 318.557 164.18C316.424 163.759 314.228 163.764 312.097 164.196C309.966 164.628 307.941 165.477 306.14 166.696C304.339 167.914 302.797 169.477 301.603 171.294Z" fill="white"/>
<path d="M571.976 237.083L550.906 234.237L564.836 129.812L524.198 124.336L425.624 215.086L420.443 253.912L505.383 265.373L501.142 297.14L541.779 302.616L546.02 270.862L567.091 273.708L571.976 237.083ZM465.389 222.696L517.408 175.281L510.268 228.748L465.389 222.696Z" fill="#7539FF"/>
<path d="M529.433 301.621H529.258C529.084 301.588 528.93 301.488 528.83 301.342C528.729 301.197 528.69 301.017 528.722 300.843L560.126 129.139C560.162 128.967 560.263 128.815 560.407 128.715C560.552 128.615 560.73 128.575 560.904 128.602C561.078 128.635 561.233 128.735 561.333 128.881C561.434 129.027 561.472 129.206 561.441 129.381L530.104 301.071C530.073 301.226 529.989 301.366 529.867 301.466C529.744 301.566 529.591 301.621 529.433 301.621Z" fill="#2E3B48"/>
<path d="M557.212 132.016C557.202 132.308 557.076 132.584 556.862 132.783C556.648 132.982 556.364 133.087 556.072 133.077C555.78 133.066 555.504 132.94 555.305 132.726C555.107 132.512 555.001 132.228 555.011 131.936C555.022 131.644 555.148 131.368 555.362 131.17C555.576 130.971 555.86 130.865 556.152 130.876C556.444 130.886 556.72 131.013 556.919 131.227C557.117 131.44 557.223 131.725 557.212 132.016Z" fill="#2E3B48"/>
<path d="M552.744 155.243C552.736 155.46 552.664 155.671 552.536 155.847C552.409 156.023 552.232 156.158 552.028 156.234C551.824 156.309 551.602 156.323 551.39 156.273C551.179 156.223 550.986 156.111 550.838 155.951C550.69 155.792 550.593 155.592 550.558 155.377C550.523 155.162 550.553 154.942 550.644 154.744C550.734 154.546 550.881 154.38 551.066 154.266C551.252 154.151 551.466 154.094 551.684 154.102C551.828 154.107 551.971 154.141 552.102 154.201C552.234 154.261 552.352 154.347 552.451 154.453C552.549 154.559 552.626 154.683 552.676 154.819C552.726 154.954 552.75 155.098 552.744 155.243Z" fill="#2E3B48"/>
<path d="M548.275 178.493C548.27 178.638 548.236 178.78 548.176 178.911C548.116 179.043 548.03 179.161 547.924 179.26C547.818 179.358 547.694 179.435 547.559 179.485C547.423 179.536 547.279 179.559 547.134 179.553C546.99 179.55 546.848 179.518 546.717 179.459C546.586 179.4 546.467 179.316 546.368 179.211C546.27 179.106 546.193 178.983 546.142 178.848C546.092 178.713 546.069 178.57 546.074 178.426C546.077 178.28 546.11 178.137 546.169 178.004C546.229 177.871 546.314 177.751 546.42 177.651C546.526 177.551 546.651 177.473 546.787 177.422C546.924 177.371 547.069 177.347 547.215 177.352C547.505 177.366 547.779 177.493 547.977 177.707C548.176 177.92 548.282 178.202 548.275 178.493Z" fill="#2E3B48"/>
<path d="M539.471 202.652C539.441 202.921 539.313 203.169 539.111 203.35C538.909 203.531 538.648 203.631 538.377 203.631C538.106 203.631 537.845 203.531 537.643 203.35C537.441 203.169 537.313 202.921 537.283 202.652C537.266 202.498 537.282 202.342 537.329 202.195C537.376 202.047 537.454 201.911 537.557 201.796C537.66 201.681 537.786 201.589 537.928 201.525C538.069 201.462 538.222 201.43 538.377 201.43C538.532 201.43 538.685 201.462 538.826 201.525C538.967 201.589 539.094 201.681 539.197 201.796C539.3 201.911 539.378 202.047 539.425 202.195C539.472 202.342 539.488 202.498 539.471 202.652Z" fill="#2E3B48"/>
<path d="M539.323 224.89C539.32 225.035 539.287 225.178 539.228 225.31C539.168 225.443 539.083 225.562 538.977 225.661C538.87 225.76 538.745 225.836 538.609 225.886C538.473 225.936 538.328 225.957 538.183 225.95C537.965 225.942 537.755 225.87 537.579 225.742C537.402 225.615 537.268 225.438 537.192 225.234C537.116 225.03 537.103 224.808 537.153 224.596C537.203 224.385 537.315 224.193 537.474 224.044C537.634 223.896 537.833 223.799 538.048 223.764C538.263 223.729 538.483 223.759 538.681 223.85C538.879 223.94 539.046 224.087 539.16 224.272C539.274 224.458 539.331 224.673 539.323 224.89Z" fill="#2E3B48"/>
<path d="M534.854 248.105C534.849 248.323 534.778 248.534 534.652 248.712C534.526 248.891 534.35 249.027 534.146 249.105C533.943 249.183 533.72 249.198 533.508 249.15C533.295 249.101 533.102 248.99 532.952 248.831C532.803 248.672 532.704 248.472 532.668 248.257C532.632 248.042 532.662 247.821 532.752 247.622C532.842 247.423 532.989 247.256 533.175 247.141C533.36 247.026 533.576 246.969 533.794 246.977C534.083 246.988 534.357 247.112 534.555 247.323C534.754 247.534 534.861 247.815 534.854 248.105Z" fill="#2E3B48"/>
<path d="M530.385 271.33C530.375 271.623 530.249 271.9 530.036 272.101C529.822 272.302 529.538 272.411 529.245 272.404C529.1 272.398 528.958 272.365 528.826 272.305C528.695 272.244 528.576 272.159 528.478 272.053C528.38 271.947 528.303 271.823 528.253 271.687C528.202 271.551 528.179 271.407 528.184 271.263C528.189 271.118 528.222 270.976 528.281 270.844C528.34 270.712 528.425 270.593 528.53 270.494C528.636 270.395 528.76 270.318 528.895 270.267C529.03 270.215 529.174 270.191 529.318 270.196C529.463 270.2 529.605 270.233 529.737 270.292C529.869 270.352 529.988 270.437 530.087 270.542C530.186 270.647 530.263 270.771 530.314 270.906C530.366 271.041 530.39 271.185 530.385 271.33Z" fill="#2E3B48"/>
<path d="M525.902 294.556C525.894 294.773 525.822 294.983 525.694 295.159C525.567 295.336 525.39 295.47 525.186 295.546C524.982 295.622 524.76 295.636 524.548 295.585C524.337 295.535 524.145 295.423 523.997 295.264C523.848 295.104 523.751 294.905 523.716 294.69C523.682 294.475 523.711 294.255 523.802 294.057C523.892 293.859 524.039 293.692 524.225 293.578C524.41 293.464 524.625 293.407 524.842 293.415C524.987 293.418 525.13 293.451 525.263 293.51C525.395 293.57 525.514 293.655 525.613 293.761C525.712 293.868 525.788 293.993 525.838 294.129C525.888 294.266 525.91 294.411 525.902 294.556Z" fill="#2E3B48"/>
<path d="M538.371 203.252C538.22 203.252 538.073 203.2 537.956 203.104C537.839 203.009 537.758 202.876 537.727 202.728C537.707 202.642 537.705 202.552 537.72 202.465C537.735 202.378 537.767 202.294 537.814 202.219C537.862 202.144 537.923 202.08 537.996 202.029C538.068 201.978 538.15 201.942 538.237 201.923L541.565 201.212C541.653 201.192 541.743 201.19 541.831 201.206C541.919 201.222 542.003 201.255 542.078 201.304C542.153 201.353 542.218 201.416 542.268 201.49C542.318 201.564 542.353 201.647 542.37 201.735C542.388 201.821 542.389 201.91 542.372 201.997C542.355 202.083 542.321 202.166 542.273 202.239C542.224 202.313 542.162 202.376 542.089 202.425C542.015 202.475 541.933 202.509 541.847 202.527L538.519 203.238L538.371 203.252Z" fill="#2E3B48"/>
<path d="M549.497 190.898C547.913 195.005 546.569 199.199 545.47 203.46C544.464 208.198 544.41 218.8 544.41 218.8" fill="#2E3B48"/>
<path d="M544.41 219.47C544.232 219.463 544.063 219.388 543.939 219.261C543.814 219.134 543.743 218.963 543.739 218.785C543.739 218.356 543.82 208.049 544.826 203.325C545.919 199.026 547.263 194.796 548.853 190.656C548.879 190.567 548.924 190.485 548.984 190.415C549.044 190.345 549.118 190.288 549.201 190.247C549.284 190.207 549.374 190.184 549.466 190.18C549.559 190.176 549.651 190.192 549.737 190.225C549.823 190.258 549.901 190.309 549.967 190.374C550.032 190.439 550.084 190.517 550.118 190.602C550.152 190.688 550.168 190.78 550.165 190.872C550.162 190.965 550.14 191.055 550.101 191.139C548.519 195.213 547.175 199.376 546.074 203.606C545.095 208.223 545.028 218.691 545.014 218.799C545.015 218.966 544.954 219.127 544.842 219.251C544.73 219.375 544.576 219.453 544.41 219.47Z" fill="#2E3B48"/>
<path d="M299.025 335.304C300.891 305.242 297.469 250.58 353.983 257.827C414.55 265.57 397.224 336.404 397.224 336.404L299.025 335.304Z" fill="#2E3B48"/>
<path d="M338.026 317.24C351.649 317.24 362.693 306.197 362.693 292.573C362.693 278.95 351.649 267.906 338.026 267.906C324.402 267.906 313.358 278.95 313.358 292.573C313.358 306.197 324.402 317.24 338.026 317.24Z" fill="white"/>
<path d="M341.273 267.945C329.584 265.959 317.116 274.561 315.868 283.285L362.183 287.553C360.546 277.608 350.534 269.529 341.273 267.945Z" fill="#2E3B48"/>
<path d="M356.909 291.952C356.574 298.408 353.058 303.467 349.058 303.253C345.059 303.038 342.079 297.656 342.348 291.174C342.616 284.692 346.2 279.659 350.199 279.874C354.198 280.089 357.231 285.51 356.909 291.952Z" fill="#2E3B48"/>
<path d="M338.025 318.581C332.881 318.581 327.852 317.055 323.575 314.198C319.298 311.34 315.964 307.278 313.995 302.525C312.027 297.772 311.512 292.543 312.515 287.498C313.519 282.452 315.996 277.818 319.634 274.18C323.271 270.543 327.905 268.066 332.951 267.062C337.996 266.059 343.226 266.574 347.978 268.542C352.731 270.511 356.793 273.845 359.651 278.122C362.509 282.399 364.034 287.428 364.034 292.572C364.027 299.468 361.284 306.079 356.408 310.955C351.532 315.831 344.921 318.574 338.025 318.581ZM338.025 269.26C333.411 269.26 328.901 270.628 325.065 273.192C321.229 275.756 318.239 279.399 316.474 283.662C314.709 287.925 314.248 292.616 315.149 297.141C316.05 301.666 318.273 305.822 321.536 309.083C324.8 312.345 328.957 314.565 333.483 315.464C338.008 316.362 342.698 315.898 346.96 314.131C351.222 312.363 354.864 309.372 357.425 305.534C359.987 301.696 361.353 297.186 361.35 292.572C361.343 286.389 358.883 280.462 354.51 276.091C350.136 271.72 344.208 269.264 338.025 269.26Z" fill="#7539FF"/>
<path opacity="0.3" d="M390.338 334.554H390.177C390.091 334.535 390.01 334.499 389.938 334.448C389.866 334.397 389.805 334.332 389.758 334.257C389.712 334.182 389.681 334.098 389.668 334.011C389.655 333.923 389.659 333.834 389.681 333.749C389.681 333.574 394.002 315.376 389.56 296.976C389.517 296.798 389.547 296.611 389.643 296.454C389.738 296.298 389.892 296.187 390.07 296.144C390.248 296.101 390.436 296.131 390.592 296.227C390.748 296.322 390.859 296.476 390.902 296.654C395.425 315.443 391.063 333.883 391.023 334.057C390.983 334.206 390.893 334.337 390.769 334.427C390.644 334.517 390.492 334.562 390.338 334.554Z" fill="white"/>
<path opacity="0.3" d="M386.595 286.882C386.466 286.881 386.34 286.843 386.231 286.775C386.122 286.706 386.035 286.608 385.978 286.493C384.31 282.806 382.172 279.351 379.616 276.213C379.505 276.075 379.453 275.9 379.47 275.724C379.488 275.548 379.574 275.386 379.71 275.273C379.779 275.216 379.858 275.173 379.943 275.147C380.028 275.121 380.118 275.112 380.206 275.12C380.295 275.129 380.381 275.155 380.46 275.198C380.538 275.24 380.607 275.298 380.663 275.367C383.281 278.596 385.478 282.145 387.199 285.929C387.237 286.008 387.259 286.094 387.264 286.182C387.268 286.27 387.255 286.358 387.225 286.44C387.195 286.523 387.149 286.598 387.089 286.663C387.029 286.727 386.957 286.779 386.877 286.815C386.788 286.856 386.693 286.879 386.595 286.882Z" fill="white"/>
<path d="M173.246 476.329H172.75C170.97 476.279 169.283 475.524 168.06 474.23C166.837 472.937 166.177 471.21 166.227 469.43C166.277 467.651 167.032 465.964 168.326 464.741C169.619 463.517 171.346 462.858 173.125 462.908H173.246C177.125 462.908 186.452 458.197 205.966 427.437C206.484 426.62 207.172 425.925 207.984 425.399C208.796 424.873 209.712 424.529 210.669 424.39C211.626 424.251 212.602 424.321 213.53 424.594C214.458 424.868 215.316 425.338 216.045 425.974C231.369 439.148 248.082 450.614 265.889 460.17C266.713 460.545 267.453 461.083 268.064 461.751C268.674 462.419 269.144 463.204 269.443 464.058C269.743 464.912 269.866 465.818 269.807 466.722C269.747 467.625 269.505 468.507 269.095 469.314C268.686 470.122 268.117 470.838 267.423 471.42C266.73 472.001 265.926 472.437 265.059 472.7C264.193 472.963 263.283 473.047 262.383 472.949C261.483 472.851 260.612 472.572 259.823 472.128C243.273 463.334 227.63 452.932 213.119 441.073C196.759 465.7 184.627 476.329 173.246 476.329Z" fill="#2E3B48"/>
<path d="M214.77 424.765H214.193C213.138 424.612 212.187 424.048 211.548 423.195C210.909 422.342 210.635 421.271 210.784 420.216C211.737 413.505 210.556 388.503 202.088 369.043C201.712 368.183 201.649 367.219 201.908 366.317C202.168 365.415 202.735 364.632 203.51 364.104C221.896 351.582 261.058 350.079 262.722 350.026C263.251 350.008 263.778 350.095 264.273 350.281C264.768 350.467 265.222 350.749 265.608 351.11C265.995 351.471 266.306 351.905 266.525 352.387C266.743 352.869 266.865 353.389 266.882 353.918C266.9 354.446 266.813 354.973 266.627 355.469C266.441 355.964 266.16 356.418 265.798 356.804C265.437 357.19 265.003 357.502 264.521 357.72C264.039 357.939 263.519 358.06 262.991 358.078C262.628 358.078 228.392 359.42 210.811 369.083C218.3 388.462 220.004 412.606 218.756 421.343C218.611 422.296 218.13 423.166 217.398 423.794C216.667 424.422 215.734 424.766 214.77 424.765Z" fill="#2E3B48"/>
<path d="M221.534 419.562C218.85 413.241 206.772 413.952 199.699 419.374C195.914 422.26 190.788 430.97 190.305 434.137C190.143 434.89 190.167 435.67 190.375 436.411C190.582 437.152 190.966 437.832 191.494 438.392C192.022 438.952 192.679 439.375 193.407 439.625C194.134 439.875 194.912 439.944 195.673 439.827C200.303 439.425 206.651 432.701 206.651 432.701C202.423 436.848 207.886 439.774 216.045 433.775C220.501 430.433 224.527 426.635 221.534 419.562Z" fill="#7539FF"/>
<path d="M452.369 337.081C452.307 337.095 452.243 337.095 452.181 337.081C452.095 337.058 452.015 337.018 451.946 336.963C451.876 336.908 451.818 336.84 451.775 336.762C451.733 336.685 451.706 336.599 451.698 336.511C451.689 336.423 451.698 336.334 451.725 336.249C453.51 330.022 455.456 326.224 458.019 324.171C457.617 322.727 457.692 321.193 458.234 319.795C458.859 318.165 459.963 316.761 461.401 315.769C461.01 315.347 460.732 314.833 460.594 314.274C460.456 313.716 460.461 313.131 460.609 312.575C461.095 310.894 462.1 309.409 463.481 308.334C462.983 307.777 462.71 307.055 462.716 306.308C462.716 302.282 470.111 296.215 478.499 295.061C478.677 295.036 478.857 295.083 479.001 295.191C479.144 295.3 479.239 295.46 479.264 295.638C479.289 295.816 479.242 295.997 479.134 296.14C479.025 296.284 478.865 296.378 478.687 296.403C470.715 297.49 464.031 303.261 464.058 306.308C464.055 306.762 464.229 307.2 464.541 307.529C466.347 306.305 468.378 305.452 470.516 305.021C472.654 304.591 474.857 304.59 476.996 305.019C481.116 305.811 482.793 306.683 482.605 307.932C482.23 310.28 473.466 310.777 467.588 310.079C466.535 309.983 465.51 309.687 464.568 309.207C463.303 310.107 462.361 311.392 461.884 312.87C461.769 313.262 461.77 313.678 461.887 314.068C462.003 314.459 462.231 314.807 462.542 315.071C465.038 313.729 468.541 313.246 473.171 314.266C479.25 315.608 479.478 316.346 479.626 316.789C479.673 316.946 479.677 317.112 479.637 317.271C479.597 317.429 479.514 317.573 479.398 317.688C478.123 319.03 468.796 318.4 464.112 317.246C463.546 317.117 463 316.913 462.488 316.642C461.102 317.484 460.035 318.763 459.455 320.279C459.067 321.259 458.961 322.328 459.146 323.365C459.385 323.222 459.631 323.092 459.884 322.976C462.662 321.634 466.018 321.876 470.165 323.647C472.849 324.815 474.191 325.862 474.325 326.922C474.331 327.194 474.263 327.462 474.128 327.699C473.993 327.935 473.797 328.13 473.56 328.264C471.507 329.606 464.34 329.418 460.609 327.432C459.751 326.966 459.037 326.274 458.542 325.432C456.355 327.445 454.583 331.028 452.973 336.652C452.924 336.774 452.841 336.879 452.734 336.955C452.627 337.031 452.5 337.075 452.369 337.081ZM459.643 324.56C460.016 325.254 460.586 325.823 461.28 326.197C464.313 327.808 470.272 328.17 472.5 327.271C472.956 327.083 473.023 326.935 473.023 326.935C473.023 326.935 472.956 326.184 469.668 324.774C465.91 323.164 462.958 322.936 460.502 324.077C460.205 324.219 459.919 324.381 459.643 324.56ZM464.125 315.742L464.461 315.836C468.831 316.844 473.329 317.183 477.801 316.843C476.215 316.254 474.58 315.805 472.916 315.501C470.025 314.718 466.968 314.802 464.125 315.742ZM465.816 308.2C466.436 308.422 467.08 308.566 467.735 308.629C474.446 309.421 480.337 308.495 481.156 307.65C480.928 307.448 480.029 306.871 476.7 306.241C472.955 305.494 469.066 306.194 465.816 308.2Z" fill="#2E3B48"/>
<path d="M277.66 474.094C278.545 473.812 278.25 472.953 277.257 472.953H259.085C224.487 469.289 200.316 474.201 215.549 475.355C230.781 476.509 214.475 476.268 203.349 480.482C192.224 484.696 286.088 485.756 294.61 480.482C302.448 475.624 265.393 478.026 277.66 474.094Z" fill="#2E3B48"/>
<path d="M407.759 479.436L249.663 474.189L243.101 320.898L429.795 325.072L407.759 479.436Z" fill="#7539FF"/>
<path d="M299.025 476.5C298.856 476.5 298.693 476.437 298.569 476.322C298.444 476.208 298.368 476.051 298.354 475.882L285.685 321.921C285.674 321.743 285.732 321.569 285.847 321.433C285.962 321.298 286.125 321.213 286.302 321.196C286.479 321.188 286.652 321.247 286.786 321.362C286.921 321.477 287.007 321.638 287.027 321.813L299.763 475.775C299.771 475.863 299.76 475.952 299.733 476.036C299.706 476.12 299.663 476.198 299.605 476.266C299.548 476.333 299.478 476.388 299.399 476.428C299.32 476.469 299.234 476.493 299.146 476.5H299.025Z" fill="#2E3B48"/>
<path d="M407.76 479.442L450.25 472.973L463.63 330.433L429.797 325.078L407.76 479.442Z" fill="#7539FF"/>
<path opacity="0.2" d="M407.76 479.442L450.25 472.973L463.63 330.433L429.797 325.078L407.76 479.442Z" fill="#051321"/>
<path d="M263.165 444.653L259.273 353.567C259.177 351.317 259.543 349.071 260.35 346.968C261.156 344.866 262.386 342.951 263.962 341.342C265.538 339.733 267.428 338.464 269.513 337.615C271.599 336.765 273.837 336.353 276.089 336.402L394.271 339.087C396.598 339.139 398.888 339.684 400.989 340.687C403.09 341.689 404.954 343.125 406.46 344.9C407.965 346.676 409.077 348.75 409.722 350.987C410.367 353.223 410.53 355.571 410.201 357.875L397.103 449.592C396.536 453.609 394.507 457.275 391.403 459.888C388.3 462.501 384.342 463.877 380.287 463.751L279.109 460.396C274.955 460.267 271.003 458.574 268.046 455.654C265.089 452.734 263.346 448.805 263.165 444.653Z" fill="#2E3B48"/>
<path d="M275.941 364.359L294.22 364.936L294.072 369.647L282.624 369.285L282.517 372.801L293.133 373.136L292.985 377.646L282.369 377.297L282.235 381.659L294.005 382.034L293.844 387.027L275.229 386.436L275.941 364.359Z" fill="white"/>
<path d="M297.616 387.147L298.314 365.07L309.695 365.433C311.327 365.424 312.95 365.66 314.513 366.131C315.62 366.501 316.568 367.24 317.197 368.224C317.663 368.941 317.977 369.746 318.119 370.589C318.261 371.432 318.227 372.295 318.021 373.125C317.814 373.955 317.439 374.733 316.919 375.412C316.398 376.09 315.744 376.654 314.996 377.068C314.233 377.461 313.413 377.733 312.567 377.874C313.191 378.075 313.783 378.364 314.325 378.733C314.716 379.096 315.067 379.501 315.372 379.94C315.717 380.358 316.023 380.807 316.284 381.282L319.385 387.791L311.681 387.536L308.245 380.679C307.973 380.024 307.571 379.43 307.064 378.934C306.583 378.585 306.008 378.389 305.414 378.37H304.81L304.528 387.322L297.616 387.147ZM304.89 374.237L307.762 374.331C308.372 374.293 308.978 374.208 309.574 374.076C310.023 374.007 310.43 373.772 310.715 373.418C311.005 373.06 311.17 372.617 311.184 372.156C311.21 371.85 311.167 371.541 311.057 371.253C310.948 370.965 310.776 370.705 310.554 370.492C309.805 370.008 308.92 369.778 308.031 369.835L305.024 369.741L304.89 374.237Z" fill="white"/>
<path d="M321.611 387.858L322.309 365.781L333.677 366.144C335.308 366.134 336.932 366.369 338.495 366.841C339.604 367.208 340.553 367.948 341.179 368.935C341.86 370.01 342.18 371.275 342.091 372.545C342.095 373.616 341.809 374.668 341.263 375.59C340.717 376.511 339.932 377.268 338.991 377.779C338.227 378.17 337.408 378.442 336.562 378.585C337.182 378.785 337.77 379.074 338.307 379.443C338.708 379.796 339.064 380.198 339.367 380.638C339.71 381.058 340.015 381.507 340.279 381.98L343.38 388.476L335.676 388.234L332.24 381.376C331.966 380.722 331.565 380.129 331.059 379.631C330.58 379.269 329.996 379.072 329.395 379.068H328.805L328.51 388.033L321.611 387.858ZM328.872 374.948L331.757 375.028C332.368 375.005 332.974 374.924 333.569 374.787C334.015 374.72 334.419 374.485 334.696 374.129C334.997 373.777 335.164 373.33 335.166 372.867C335.195 372.561 335.155 372.253 335.048 371.965C334.941 371.676 334.77 371.416 334.549 371.203C333.8 370.707 332.908 370.476 332.012 370.546L329.02 370.452L328.872 374.948Z" fill="white"/>
<path d="M344.481 377.602C344.377 376.061 344.616 374.517 345.181 373.079C345.745 371.642 346.62 370.348 347.744 369.289C348.868 368.231 350.213 367.434 351.681 366.957C353.15 366.48 354.706 366.334 356.237 366.53C357.783 366.478 359.323 366.738 360.767 367.294C362.21 367.85 363.527 368.69 364.639 369.764C365.632 370.907 366.381 372.24 366.843 373.682C367.304 375.124 367.468 376.645 367.323 378.152C367.334 380.344 366.818 382.508 365.82 384.46C364.915 386.057 363.562 387.354 361.928 388.191C360.002 389.111 357.871 389.518 355.741 389.372C353.617 389.39 351.517 388.931 349.594 388.03C347.957 387.141 346.621 385.787 345.756 384.138C344.741 382.117 344.3 379.856 344.481 377.602ZM351.299 377.843C351.097 379.535 351.481 381.245 352.386 382.688C352.809 383.16 353.323 383.543 353.897 383.812C354.471 384.082 355.093 384.233 355.727 384.257C356.361 384.28 356.993 384.176 357.585 383.951C358.178 383.725 358.719 383.382 359.177 382.943C360.171 381.436 360.643 379.644 360.519 377.843C360.699 376.226 360.305 374.596 359.405 373.24C358.998 372.771 358.495 372.395 357.93 372.138C357.365 371.881 356.751 371.749 356.13 371.75C355.504 371.705 354.875 371.803 354.292 372.035C353.709 372.267 353.185 372.629 352.762 373.092C351.745 374.462 351.229 376.139 351.299 377.843Z" fill="white"/>
<path d="M370.771 389.489L371.469 367.398L382.837 367.761C384.468 367.758 386.091 367.993 387.655 368.459C388.759 368.835 389.705 369.573 390.339 370.552C391.017 371.629 391.336 372.893 391.251 374.162C391.258 375.236 390.973 376.291 390.427 377.215C389.881 378.139 389.094 378.898 388.151 379.41C387.384 379.79 386.566 380.056 385.722 380.202C386.343 380.406 386.931 380.7 387.467 381.074C387.868 381.427 388.224 381.828 388.527 382.268C388.873 382.686 389.178 383.136 389.44 383.611L392.54 390.12L384.836 389.878L381.401 383.007C381.127 382.356 380.726 381.767 380.22 381.275C379.738 380.915 379.157 380.713 378.555 380.698H377.965L377.67 389.663L370.771 389.489ZM378.032 376.565L380.917 376.659C381.528 376.635 382.134 376.555 382.729 376.417C383.174 376.346 383.576 376.111 383.857 375.76C384.173 375.385 384.341 374.907 384.326 374.417C384.355 374.113 384.315 373.807 384.208 373.521C384.101 373.235 383.93 372.977 383.709 372.767C382.96 372.271 382.068 372.039 381.172 372.109L378.18 372.015L378.032 376.565Z" fill="white"/>
<path d="M381.63 426.987C381.378 426.992 381.128 426.943 380.897 426.844C380.665 426.744 380.458 426.596 380.288 426.41L368.8 413.835L356.399 425.162C356.056 425.477 355.601 425.643 355.136 425.622C354.67 425.602 354.232 425.398 353.916 425.055L342.428 412.48L330.028 423.807C329.684 424.122 329.23 424.287 328.764 424.267C328.298 424.247 327.86 424.043 327.545 423.699L316.043 411.124L303.656 422.451C303.475 422.615 303.263 422.74 303.032 422.818C302.801 422.897 302.557 422.927 302.314 422.908C301.848 422.88 301.41 422.673 301.093 422.331L289.605 409.769L277.217 421.082C276.872 421.398 276.415 421.564 275.947 421.544C275.479 421.524 275.039 421.319 274.721 420.975C274.564 420.805 274.443 420.605 274.364 420.388C274.285 420.17 274.251 419.939 274.262 419.708C274.273 419.477 274.33 419.251 274.43 419.042C274.529 418.833 274.669 418.646 274.842 418.492L288.531 405.971C288.877 405.655 289.333 405.489 289.801 405.509C290.269 405.53 290.71 405.734 291.027 406.078L302.515 418.653L314.903 407.326C315.254 407.018 315.71 406.854 316.178 406.87C316.644 406.895 317.083 407.102 317.399 407.447L328.887 420.022L341.288 408.695C341.457 408.538 341.656 408.415 341.873 408.335C342.09 408.255 342.32 408.219 342.551 408.229C342.782 408.239 343.009 408.295 343.218 408.394C343.428 408.492 343.615 408.631 343.77 408.803L355.258 421.378L367.659 410.051C368.003 409.736 368.457 409.57 368.923 409.59C369.388 409.611 369.827 409.815 370.142 410.158L382.972 424.089C383.201 424.345 383.351 424.662 383.403 425.002C383.455 425.342 383.407 425.69 383.265 426.003C383.122 426.316 382.892 426.581 382.602 426.765C382.312 426.949 381.974 427.045 381.63 427.041V426.987Z" fill="white"/>
<path d="M169.247 482.704L160.846 478.691L153.357 442.227L157.424 437.758L169.247 482.704Z" fill="#7539FF"/>
<path d="M169.247 482.704L180.4 476.181L170.844 446.146L157.424 437.758L169.247 482.704Z" fill="#7539FF"/>
<path opacity="0.2" d="M169.247 482.704L180.4 476.181L170.844 446.146L157.424 437.758L169.247 482.704Z" fill="#051321"/>
<path d="M352.104 489.331H351.178C349.398 489.283 347.711 488.53 346.486 487.237C345.262 485.945 344.601 484.219 344.649 482.439C344.697 480.66 345.45 478.972 346.742 477.747C348.035 476.523 349.761 475.862 351.54 475.91C361.874 476.246 383.75 469.898 396.258 457.766C397.013 457.025 397.933 456.473 398.942 456.155C420.133 449.794 428.011 462.637 428.333 463.187L416.792 470.019C416.832 470.104 416.882 470.185 416.939 470.26C416.818 470.086 413.812 466.234 404.257 468.596C388.568 482.902 364.491 489.331 352.104 489.331Z" fill="#2E3B48"/>
<path d="M351.286 498.237L326.847 496.707L324.928 451.641L357.768 452.862L351.286 498.237Z" fill="#7539FF"/>
<path d="M351.286 498.242L357.003 492.552L360.546 464.463L357.768 452.867L351.286 498.242Z" fill="#7539FF"/>
<path opacity="0.2" d="M351.286 498.242L357.003 492.552L360.546 464.463L357.768 452.867L351.286 498.242Z" fill="#051321"/>
<path d="M492.9 481.191C492.023 481.19 491.17 480.902 490.471 480.372C476.514 469.77 457.658 450.94 450.424 432.782C450.315 432.52 450.239 432.245 450.196 431.964C446.666 410.974 443.298 366.807 443.15 364.941C443.11 364.412 443.175 363.881 443.341 363.377C443.507 362.874 443.77 362.408 444.116 362.006C444.814 361.194 445.806 360.693 446.874 360.613C447.942 360.533 448.998 360.88 449.81 361.579C450.621 362.277 451.122 363.269 451.202 364.337C451.202 364.78 454.651 409.377 458.087 430.192C465.307 447.854 484.928 465.985 495.37 473.957C496.042 474.467 496.537 475.175 496.785 475.982C497.033 476.789 497.021 477.653 496.751 478.452C496.481 479.252 495.967 479.946 495.28 480.438C494.594 480.929 493.771 481.192 492.927 481.191H492.9Z" fill="#2E3B48"/>
<path d="M511.514 483.217C508.401 483.217 504.871 481.808 501.019 479.03C500.154 478.404 499.574 477.459 499.405 476.405C499.236 475.35 499.494 474.272 500.12 473.407C500.746 472.542 501.691 471.961 502.745 471.793C503.8 471.624 504.878 471.881 505.743 472.508C509.072 474.91 510.883 475.192 511.514 475.192C512.582 475.192 513.606 475.616 514.361 476.371C515.116 477.126 515.54 478.15 515.54 479.218C515.54 480.286 515.116 481.31 514.361 482.065C513.606 482.82 512.582 483.244 511.514 483.244V483.217Z" fill="#2E3B48"/>
<path d="M502.147 478.904C506.455 466.114 524.116 468.637 530.209 470.543C535.414 472.054 540.406 474.218 545.066 476.985C548.354 479.132 548.408 482.743 544.019 484.796C538.651 487.319 525.015 485.078 525.015 485.078C532.048 488.151 525.015 493.13 512.655 488.245C508.642 486.661 500.63 483.601 502.147 478.904Z" fill="#7539FF"/>
<path d="M459.282 370.407C457.685 381.278 448.679 389.29 441.352 388.216C434.024 387.143 433.729 377.48 435.326 366.555C436.923 355.631 439.822 347.767 447.149 348.84C454.477 349.914 460.879 359.577 459.282 370.407Z" fill="#2E3B48"/>
<path d="M282.155 327.068C282.763 327.068 283.256 326.575 283.256 325.968C283.256 325.36 282.763 324.867 282.155 324.867C281.547 324.867 281.055 325.36 281.055 325.968C281.055 326.575 281.547 327.068 282.155 327.068Z" fill="#2E3B48"/>
<path d="M293.334 333.874C293.334 334.092 293.269 334.304 293.148 334.485C293.027 334.666 292.856 334.807 292.654 334.891C292.453 334.974 292.232 334.996 292.019 334.953C291.805 334.911 291.609 334.806 291.455 334.652C291.301 334.498 291.196 334.302 291.154 334.089C291.111 333.875 291.133 333.654 291.217 333.453C291.3 333.252 291.441 333.08 291.622 332.959C291.803 332.838 292.016 332.773 292.233 332.773C292.525 332.773 292.805 332.889 293.011 333.096C293.218 333.302 293.334 333.582 293.334 333.874Z" fill="#2E3B48"/>
<path d="M294.57 463.929C294.57 464.146 294.506 464.359 294.385 464.54C294.264 464.721 294.092 464.862 293.891 464.945C293.69 465.029 293.468 465.05 293.255 465.008C293.041 464.966 292.845 464.861 292.691 464.707C292.538 464.553 292.433 464.357 292.39 464.143C292.348 463.93 292.37 463.709 292.453 463.508C292.536 463.306 292.677 463.135 292.858 463.014C293.039 462.893 293.252 462.828 293.47 462.828C293.762 462.828 294.041 462.944 294.248 463.15C294.454 463.357 294.57 463.637 294.57 463.929Z" fill="#2E3B48"/>
<path d="M304.649 471.858C304.649 472.076 304.585 472.289 304.464 472.47C304.343 472.651 304.171 472.792 303.97 472.875C303.769 472.958 303.547 472.98 303.334 472.938C303.121 472.895 302.924 472.79 302.771 472.636C302.617 472.483 302.512 472.286 302.469 472.073C302.427 471.86 302.449 471.638 302.532 471.437C302.615 471.236 302.756 471.064 302.937 470.943C303.118 470.822 303.331 470.758 303.549 470.758C303.841 470.758 304.121 470.874 304.327 471.08C304.533 471.287 304.649 471.566 304.649 471.858Z" fill="#2E3B48"/>
<path d="M111.216 485.049C109.284 484.959 107.397 484.436 105.694 483.518C103.992 482.6 102.517 481.312 101.379 479.748C101.323 479.676 101.283 479.593 101.26 479.505C101.237 479.417 101.232 479.325 101.246 479.235C101.26 479.145 101.292 479.059 101.34 478.982C101.388 478.904 101.452 478.838 101.526 478.786C101.601 478.734 101.686 478.698 101.775 478.679C101.864 478.661 101.956 478.661 102.045 478.68C102.134 478.698 102.219 478.735 102.294 478.787C102.368 478.839 102.431 478.906 102.479 478.983C104.989 482.606 110.532 484.526 112.948 483.385C113.19 483.282 113.405 483.126 113.578 482.929C112.358 482.391 111.288 481.562 110.464 480.513C109.64 479.465 109.087 478.229 108.854 476.916C108.546 475.212 108.304 472.89 109.7 472.595C111.632 472.165 114.155 476.822 115.068 480.352C115.233 480.936 115.292 481.545 115.243 482.15C116.017 482.381 116.831 482.445 117.631 482.338C117.992 482.31 118.343 482.208 118.662 482.037C118.981 481.866 119.261 481.63 119.483 481.345C118.6 480.678 117.868 479.833 117.333 478.864C116.799 477.895 116.475 476.824 116.383 475.722C115.873 472.044 116.262 471.414 116.665 471.092C116.796 470.992 116.951 470.93 117.115 470.913C117.278 470.897 117.443 470.926 117.591 470.998C119.027 471.602 120.758 476.809 121.094 479.761C121.134 480.069 121.134 480.38 121.094 480.687C121.672 480.91 122.286 481.028 122.906 481.036C124.044 481.081 125.169 480.786 126.14 480.191C125.952 480.07 125.778 479.936 125.603 479.802C124.261 478.607 123.644 476.701 123.885 473.99C124.073 471.883 124.543 470.729 125.389 470.367C125.661 470.257 125.96 470.23 126.248 470.287C126.537 470.344 126.802 470.484 127.012 470.689C127.918 471.689 128.595 472.875 128.996 474.164C129.397 475.452 129.513 476.813 129.334 478.151C129.218 478.708 128.984 479.234 128.65 479.694C131.119 480.124 134.582 479.426 137.574 478.688C137.663 478.667 137.754 478.663 137.844 478.677C137.933 478.691 138.019 478.723 138.096 478.77C138.173 478.818 138.241 478.88 138.294 478.953C138.347 479.026 138.385 479.11 138.407 479.198C138.428 479.286 138.431 479.377 138.417 479.467C138.403 479.556 138.371 479.642 138.324 479.719C138.277 479.797 138.214 479.864 138.141 479.917C138.068 479.97 137.985 480.009 137.897 480.03C134.26 480.929 130.341 481.667 127.576 480.862C126.227 481.888 124.574 482.435 122.879 482.419C122.127 482.409 121.382 482.268 120.678 482.003C120.366 482.485 119.947 482.89 119.453 483.186C118.96 483.481 118.406 483.66 117.833 483.707C116.824 483.837 115.799 483.75 114.826 483.452C114.513 483.979 114.044 484.397 113.484 484.646C112.765 484.937 111.992 485.074 111.216 485.049ZM110.062 473.937C109.876 474.849 109.913 475.793 110.17 476.688C110.359 477.761 110.804 478.773 111.468 479.637C112.131 480.502 112.993 481.193 113.981 481.654C113.962 481.336 113.908 481.02 113.82 480.714C112.773 476.876 110.76 474.232 110.062 473.937ZM117.537 472.769C117.546 473.695 117.622 474.619 117.766 475.534C117.914 477.17 118.636 478.701 119.806 479.855C119.475 477.378 118.707 474.978 117.537 472.769ZM125.979 471.602C125.979 471.602 125.469 471.857 125.281 474.098C125.093 476.339 125.482 477.882 126.529 478.782C126.777 478.982 127.047 479.153 127.335 479.292C127.687 478.914 127.937 478.452 128.059 477.95C128.298 475.837 127.728 473.713 126.462 472.004C126.18 471.655 126.019 471.602 125.979 471.602Z" fill="#2E3B48"/>
<path d="M307.641 495.194L311.278 488.886L307.641 482.578H303.749L305.95 488.886L303.749 495.194H307.641Z" fill="#2E3B48"/>
<path d="M304.004 492.172C303.555 492.201 303.106 492.137 302.683 491.986C302.26 491.834 301.872 491.597 301.544 491.289C301.217 490.982 300.955 490.61 300.777 490.198C300.598 489.785 300.506 489.341 300.506 488.891C300.506 488.442 300.598 487.997 300.777 487.584C300.955 487.172 301.217 486.8 301.544 486.493C301.872 486.185 302.26 485.948 302.683 485.796C303.106 485.645 303.555 485.581 304.004 485.61L297.83 484.375L296.18 489.367L298.944 493.582L304.004 492.172Z" fill="#2E3B48"/>
<path d="M304.541 482.578H297.253L293.616 488.886L297.253 495.194H304.541L308.178 488.886L304.541 482.578ZM300.904 492.174C300.253 492.177 299.616 491.986 299.073 491.626C298.531 491.267 298.107 490.754 297.856 490.153C297.605 489.553 297.538 488.891 297.664 488.253C297.789 487.614 298.101 487.027 298.56 486.566C299.02 486.104 299.606 485.79 300.244 485.662C300.882 485.534 301.544 485.598 302.145 485.847C302.747 486.095 303.261 486.517 303.623 487.058C303.985 487.599 304.178 488.235 304.178 488.886C304.178 489.756 303.834 490.59 303.22 491.206C302.606 491.822 301.773 492.17 300.904 492.174Z" fill="#7539FF"/>
<path d="M561.319 482.157L558.621 477.473L561.319 472.789H564.204L562.58 477.473L564.204 482.157H561.319Z" fill="#7539FF"/>
<path d="M564.016 479.909C564.351 479.934 564.687 479.89 565.004 479.779C565.322 479.667 565.612 479.492 565.859 479.263C566.105 479.035 566.301 478.758 566.435 478.45C566.57 478.142 566.639 477.809 566.639 477.473C566.639 477.137 566.57 476.805 566.435 476.497C566.301 476.189 566.105 475.912 565.859 475.683C565.612 475.455 565.322 475.279 565.004 475.168C564.687 475.057 564.351 475.013 564.016 475.038L568.606 474.125L569.827 477.829L567.787 480.956L564.016 479.909Z" fill="#7539FF"/>
<path d="M563.627 472.789H568.995L571.679 477.473L568.995 482.157H563.627L560.942 477.473L563.627 472.789ZM566.311 479.915C566.794 479.918 567.268 479.777 567.671 479.51C568.075 479.244 568.39 478.863 568.577 478.417C568.764 477.971 568.814 477.479 568.721 477.005C568.629 476.53 568.397 476.093 568.056 475.751C567.715 475.408 567.28 475.174 566.806 475.078C566.331 474.983 565.84 475.031 565.392 475.215C564.945 475.399 564.563 475.713 564.294 476.114C564.025 476.516 563.882 476.989 563.882 477.473C563.88 477.794 563.942 478.113 564.064 478.41C564.186 478.707 564.366 478.977 564.593 479.204C564.82 479.431 565.09 479.611 565.387 479.733C565.684 479.855 566.003 479.917 566.324 479.915H566.311Z" fill="#2E3B48"/>
<path d="M460.811 488.377H466.877C467.636 488.373 468.363 488.069 468.899 487.531C469.434 486.993 469.735 486.264 469.735 485.505C469.735 484.745 469.434 484.017 468.899 483.479C468.363 482.941 467.636 482.636 466.877 482.633H460.811C460.049 482.633 459.318 482.935 458.78 483.474C458.241 484.013 457.938 484.743 457.938 485.505C457.938 486.267 458.241 486.997 458.78 487.536C459.318 488.074 460.049 488.377 460.811 488.377Z" fill="#2E3B48"/>
<path d="M451.055 482.961C451.618 481.937 452.468 481.101 453.501 480.554C454.534 480.008 455.704 479.776 456.867 479.886C458.03 479.997 459.136 480.446 460.047 481.177C460.958 481.908 461.635 482.89 461.995 484.002C462.355 485.114 462.381 486.306 462.071 487.433C461.761 488.559 461.128 489.571 460.251 490.342C459.373 491.113 458.289 491.61 457.132 491.773C455.974 491.935 454.795 491.755 453.739 491.255C452.288 490.507 451.191 489.215 450.688 487.661C450.185 486.107 450.317 484.418 451.055 482.961Z" fill="#7539FF"/>
<path d="M452.69 491.247L454.354 492.031L460.133 479.77L458.47 478.986L452.69 491.247Z" fill="#2E3B48"/>
</svg>
