<svg width="186" height="38" viewBox="0 0 186 38" fill="none" xmlns="http://www.w3.org/2000/svg">
<path d="M22.2599 0.0461806C22.0867 0.0851631 22.0434 0.124146 22.13 0.147535C22.1993 0.178721 22.7017 0.326854 23.2473 0.49058C24.4426 0.84922 26.2355 1.65226 27.3875 2.34615C30.9474 4.48239 33.234 7.25015 33.8836 10.1816C34.282 12.006 33.7883 15.5222 32.8442 17.6195C31.6316 20.3015 29.9253 21.9699 25.8977 24.3791C23.3773 25.8916 22.0087 26.9363 21.0906 28.0434C19.8954 29.4936 19.2717 31.2946 19.2717 33.2593C19.2804 34.3664 19.4103 35.1616 19.7481 36.066C19.9993 36.7443 20.6576 37.9606 20.8048 37.9996C20.8568 38.0152 21.0906 37.7033 21.3245 37.3057C21.8615 36.3701 23.0395 35.2786 24.0528 34.764C25.8977 33.8284 28.3056 33.4542 31.6229 33.5945C33.8489 33.6881 34.8796 33.4932 35.5033 32.8773C35.6592 32.7135 35.8497 32.4485 35.9104 32.2847C36.0836 31.8403 36.0489 30.9125 35.8237 30.1953C35.7198 29.86 35.6505 29.5793 35.6592 29.5715C35.6765 29.5637 35.9104 29.4312 36.1875 29.2831C37.4174 28.6282 37.5127 27.8095 36.456 26.8506L35.9797 26.414L36.3521 26.3282C37.2962 26.1099 37.8678 25.798 37.9631 25.4238C38.0844 24.9326 37.8765 24.3635 37.3395 23.732C37.1576 23.5215 37.0277 23.3421 37.045 23.3343C37.0623 23.3265 37.608 23.2252 38.2576 23.1082C39.5482 22.8821 40.4403 22.5781 40.7954 22.2272C41.1852 21.853 41.1072 21.5489 40.2757 20.052C39.1324 17.9781 38.9072 17.0426 38.76 13.6979C38.708 12.6063 38.6301 11.4135 38.5781 11.047C38.1363 7.72574 36.7072 5.40238 33.6064 2.99326C31.8222 1.59768 29.4403 0.607526 26.7985 0.163126C25.993 0.0227885 22.7017 -0.055174 22.2599 0.0461806Z" fill="url(#paint0_linear_748_2)"/>
<path d="M19.3583 1.56636C18.7953 1.66772 18.215 1.96398 17.8252 2.33042C17.5221 2.61889 17.1063 3.31278 17.1063 3.53108C17.0977 3.88972 17.0457 3.89752 15.3221 3.84294C14.4213 3.81955 13.3819 3.79616 13.0095 3.79616C12.4465 3.79616 12.3252 3.77277 12.2906 3.65583C12.0394 2.96973 11.7016 2.6033 11.0866 2.34601C10.2292 1.98737 9.33703 2.12771 8.66144 2.74363C8.01183 3.32057 7.82128 4.1548 8.1764 4.84869L8.33231 5.16835L6.98978 6.25206C6.25356 6.85239 5.48269 7.47611 5.27482 7.63984L4.90238 7.92831L4.51261 7.71001C4.29608 7.58526 3.94096 7.43713 3.72442 7.38255C3.19607 7.25001 2.18268 7.31239 1.67166 7.5151C1.10866 7.74899 0.519687 8.25576 0.24252 8.77813C0.0346458 9.15236 0 9.30829 0 9.91642C0 10.509 0.0346458 10.6883 0.225198 11.0469C0.537009 11.6472 0.892129 11.9903 1.53308 12.3022C2.0441 12.5516 2.13071 12.5672 2.90158 12.5672C3.74174 12.5672 3.98426 12.5049 4.63387 12.1228C4.87639 11.9825 4.52993 11.7174 8.46223 15.0699L9.22444 15.717L9.05121 16.0523C8.86066 16.4343 8.82601 17.0034 8.98192 17.4712C9.1205 17.9 9.8394 18.5471 10.3158 18.6719C11.104 18.8824 11.9874 18.7109 12.5331 18.2431C12.7583 18.0482 12.7756 18.0482 12.9922 18.1729C13.1134 18.2431 13.2087 18.2743 13.2087 18.2431C13.2087 18.2041 13.2433 18.2197 13.278 18.2665C13.3906 18.4068 14.1788 18.7655 14.2741 18.7109C14.3174 18.6875 14.3347 18.6953 14.3087 18.7421C14.2741 18.7888 14.6032 18.9916 15.0189 19.2021L15.7898 19.5841L15.7465 20.1298C15.6859 20.8237 15.9197 21.3617 16.4567 21.7905L16.8205 22.079L16.3268 23.3264L15.8331 24.5738L15.2355 24.6206C13.6071 24.7298 12.741 26.2033 13.5205 27.5053C13.7284 27.8406 14.2654 28.2694 14.6205 28.3785C14.7071 28.4019 14.6725 28.6046 14.3 30.3744L14.1961 30.8812L13.763 30.967C13.1914 31.0839 12.8536 31.2555 12.5418 31.5751C12.1433 31.9805 11.9701 32.4717 12.0134 33.0175C12.0741 33.61 12.2733 33.9764 12.741 34.3507C13.9189 35.2784 15.7638 34.7951 16.2056 33.4307C16.5174 32.4717 16.0843 31.6141 14.9843 31.0449C14.8371 30.967 14.8371 30.928 14.967 30.3433C15.0449 30.0002 15.1489 29.4545 15.2095 29.1192L15.3221 28.5267L15.8158 28.4409C17.063 28.2148 17.8166 27.0687 17.4528 25.946C17.3402 25.5874 16.9591 25.104 16.6646 24.9481L16.4308 24.8233L16.9158 23.5447L17.4095 22.2739H17.7646C19.1245 22.2739 20.1725 21.2759 20.0253 20.1142L19.9819 19.7712L20.6056 19.5217C20.9434 19.3736 21.8528 19.0071 22.6237 18.6953L24.0355 18.1183L24.4166 18.5082C24.6331 18.7187 25.0229 18.9916 25.3087 19.1163C25.7505 19.3268 25.8977 19.3502 26.5906 19.3502C27.3009 19.3502 27.4308 19.3268 27.9505 19.0929C28.5395 18.8356 29.1111 18.3522 29.0072 18.2041C28.9725 18.1573 28.9812 18.1417 29.0332 18.1651C29.0851 18.1963 29.215 18.0404 29.3276 17.8065C29.6221 17.2217 29.6221 16.1692 29.319 15.6079C28.9985 15.0075 28.3316 14.454 27.682 14.2435L27.1363 14.0642L27.1883 12.9649C27.2576 11.6472 27.3095 11.2808 27.4308 11.2808C27.6473 11.2808 28.4269 10.8832 28.6867 10.6415C29.0765 10.2829 29.2497 9.85405 29.2497 9.27711C29.241 8.21678 28.3056 7.38255 27.1103 7.38255C26.7206 7.38255 26.2182 7.5073 26.0709 7.63984C26.0103 7.69442 25.8111 7.77238 26.1056 7.65543C26.1922 7.60865 26.2095 7.62425 26.1662 7.68662C26.1229 7.74119 26.045 7.76458 25.9757 7.74119C25.915 7.7178 25.8371 7.7334 25.8111 7.77238C25.7158 7.92051 25.5426 7.85035 25.1182 7.4995C24.8757 7.30459 24.6591 7.14866 24.6331 7.14866C24.6072 7.14866 24.4859 7.07069 24.3646 6.96934C24.252 6.87578 23.8016 6.54053 23.3599 6.22088C22.9182 5.90122 22.5631 5.62054 22.5631 5.59716C22.5631 5.57377 22.641 5.35546 22.7449 5.12157C22.9528 4.63039 22.9875 3.81176 22.8142 3.35176C22.3465 2.04975 20.8481 1.27789 19.3583 1.56636ZM17.1756 4.94225C17.2882 5.23852 17.3835 5.52699 17.3922 5.59716C17.4008 5.66732 16.7166 6.24427 15.6772 7.02392C14.7245 7.74899 13.867 8.4039 13.763 8.48966C13.5811 8.63 13.5725 8.63 13.1567 8.43508C12.9229 8.33373 12.5244 8.21678 12.2646 8.18559L11.7882 8.12322L11.6323 7.65543C11.5457 7.39815 11.3898 6.89138 11.2945 6.53274C11.1213 5.9402 11.1213 5.87783 11.2426 5.81546C11.7016 5.58156 12.1174 5.08259 12.2906 4.55242C12.3339 4.42768 12.5244 4.41988 14.6552 4.41988H16.9764L17.1756 4.94225ZM9.14648 5.82325C9.33704 5.91681 9.70948 6.01037 9.97798 6.04156L10.4717 6.09613L10.7922 7.0707C10.974 7.60865 11.1213 8.11543 11.1213 8.20898C11.13 8.30254 11 8.45068 10.7835 8.59881C10.5929 8.72355 10.437 8.8483 10.437 8.87948C10.437 8.91067 10.3677 9.01202 10.2898 9.09779C10.2032 9.18355 10.0906 9.37066 10.0386 9.511L9.94334 9.76049L8.7827 9.75269C8.14176 9.7449 7.22364 9.7371 6.74726 9.7371L5.87246 9.72151L5.82049 9.42524C5.78584 9.26151 5.67324 8.96525 5.56065 8.76254L5.35277 8.3961L7.03309 7.03171C7.95987 6.28325 8.73073 5.66732 8.75672 5.66732C8.7827 5.66732 8.95593 5.73749 9.14648 5.82325ZM23.9489 7.42154C24.5898 7.88153 25.1355 8.27915 25.1528 8.29475C25.1788 8.31034 25.1442 8.45068 25.0749 8.6144C25.0142 8.77033 24.9623 9.12118 24.9623 9.38626C24.9623 9.65913 24.9276 9.90083 24.867 9.93981C24.815 9.97099 24.0009 10.3296 23.0568 10.7273L21.3331 11.4445L20.9694 11.1405C20.7615 10.9689 20.4497 10.7896 20.2678 10.7351L19.9386 10.6415L19.9993 9.61236C20.0253 9.05101 20.0772 8.20119 20.1119 7.71781L20.1638 6.8446L20.5016 6.79782C20.8827 6.73545 21.8008 6.34562 21.9568 6.1741C22.052 6.07274 22.1127 6.08833 22.4245 6.31443C22.615 6.45477 23.3079 6.95375 23.9489 7.42154ZM18.3363 6.36901C18.5355 6.50155 18.8646 6.64968 19.0725 6.69646C19.2804 6.74324 19.4623 6.79782 19.4796 6.829C19.4969 6.85239 19.4623 7.70221 19.393 8.70796C19.3323 9.71371 19.2804 10.5635 19.2717 10.5947C19.2717 10.6337 19.1938 10.6571 19.0985 10.6571C18.7867 10.6571 18.1457 10.9845 17.8512 11.2964L17.5567 11.6083L15.9197 11.0703L14.2914 10.5401L14.2394 10.0334C14.2134 9.75269 14.1441 9.44863 14.0922 9.35507C14.0315 9.26151 13.9882 9.16796 13.9882 9.14457C13.9882 9.12118 14.4819 8.73135 15.0969 8.27136C15.7032 7.81136 16.2748 7.36696 16.3701 7.289C16.7166 7.00832 17.8945 6.13511 17.9378 6.13511C17.9552 6.13511 18.1371 6.24426 18.3363 6.36901ZM9.70082 10.3842C9.92601 10.4154 9.98664 10.47 10.0646 10.7584C10.1945 11.1795 10.6709 11.6784 11.13 11.8655C11.4331 11.9903 11.4764 12.0371 11.4418 12.2086C11.4158 12.3177 11.3118 12.9571 11.2079 13.6354L11.0174 14.8516L10.6536 14.8984C10.463 14.9296 10.1685 15.0231 10.0126 15.1089C9.73546 15.257 9.71814 15.257 9.54491 15.1245C9.31971 14.953 5.32679 11.5849 5.32679 11.5693C5.32679 11.5615 5.42206 11.3822 5.54332 11.1717C5.66458 10.9612 5.75986 10.7351 5.75986 10.6805C5.75986 10.6181 5.79451 10.509 5.83781 10.4388C5.9071 10.3218 6.09766 10.3062 7.6827 10.3296C8.64412 10.3374 9.56223 10.3608 9.70082 10.3842ZM25.9064 10.9534C26.045 11.0391 26.2788 11.1405 26.4087 11.1717L26.6513 11.2262L26.5993 12.2476C26.504 13.9394 26.478 14.0875 26.2355 14.0875C25.8631 14.0875 25.1009 14.3994 24.7024 14.7191L24.304 15.0231L22.9095 14.2045C21.5497 13.4093 21.5064 13.3703 21.5757 13.1676C21.6103 13.0506 21.6449 12.7388 21.6449 12.4737L21.6536 11.9825L23.4725 11.2028L25.2914 10.4232L25.4646 10.6025C25.5599 10.7039 25.7591 10.8598 25.9064 10.9534ZM15.7465 11.6472L17.3662 12.1774V12.6062C17.3662 13.1364 17.6693 13.7679 18.0418 14.0096C18.189 14.1031 18.3276 14.1811 18.3536 14.1733C18.3882 14.1655 18.4922 14.2279 18.5875 14.3136L18.7693 14.4696L18.3623 16.4031C18.1371 17.4634 17.9465 18.3444 17.9465 18.3444C17.9378 18.3522 17.7646 18.3756 17.5567 18.3834L17.1843 18.4146L16.5953 17.4011C16.2749 16.8397 15.426 15.3506 14.7071 14.072L13.3993 11.7642L13.7111 11.4445C13.893 11.273 14.0489 11.1249 14.0748 11.1249C14.1008 11.1249 14.8457 11.3588 15.7465 11.6472ZM13.7024 13.6198C14.1788 14.454 15.0276 15.9431 15.5906 16.9255L16.604 18.7031L16.3874 18.898L16.1709 19.0929L14.6465 18.3288L13.1221 17.557L13.1741 17.0814C13.2693 16.2238 12.8276 15.4441 12.0481 15.1011C11.6929 14.9452 11.667 14.9218 11.7016 14.6879C11.7276 14.5475 11.8315 13.9082 11.9355 13.2689L12.126 12.0994L12.4292 12.0527C12.5937 12.0293 12.7583 12.0293 12.7843 12.0527C12.8189 12.0761 13.226 12.7855 13.7024 13.6198ZM22.8662 14.8906C23.4379 15.2258 23.9142 15.5143 23.9229 15.5221C23.9402 15.5377 23.8883 15.7092 23.8103 15.9119C23.7064 16.177 23.6804 16.4655 23.7064 16.9333L23.741 17.5882L21.7489 18.399L19.7481 19.2099L19.3237 18.8746C19.0985 18.6875 18.856 18.5316 18.7953 18.5316C18.726 18.5316 18.6567 18.5004 18.6308 18.4692C18.6048 18.4302 18.7347 17.7207 18.9166 16.8865C19.1071 16.0523 19.2804 15.218 19.315 15.0231C19.393 14.5787 19.4882 14.4774 19.8174 14.4774C20.1292 14.4774 20.7442 14.2279 20.9607 14.0096C21.1339 13.8381 21.004 13.7835 22.8662 14.8906Z" fill="url(#paint1_linear_748_2)"/>
<ellipse cx="27.1763" cy="9.29918" rx="2.70275" ry="2.43285" fill="#4286FF"/>
<ellipse cx="26.55" cy="16.8587" rx="2.99735" ry="2.69804" fill="#4286FF"/>
<path d="M46.5861 30.2086V7.48706H51.1282V17.927H51.4343L61.2164 7.48706H66.7625L57.0661 17.6829L66.8482 30.2086H61.3878L53.9074 20.4676L51.1282 23.441V30.2086H46.5861Z" fill="white"/>
<path d="M75.1336 30.5526C73.942 30.5526 72.8687 30.3603 71.9137 29.9756C70.9669 29.5836 70.216 29.0067 69.661 28.2449C69.1142 27.4831 68.8407 26.5437 68.8407 25.4269C68.8407 24.4654 69.0366 23.6703 69.4284 23.0416C69.8202 22.4129 70.3548 21.9099 71.0322 21.5327C71.7097 21.1555 72.4728 20.8707 73.3217 20.6784C74.1787 20.4787 75.0643 20.3345 75.9784 20.2458C77.0803 20.1422 77.974 20.0498 78.6596 19.9684C79.3452 19.8796 79.8431 19.7465 80.1533 19.569C80.4716 19.3841 80.6307 19.0993 80.6307 18.7147V18.6481C80.6307 17.8124 80.3573 17.1652 79.8105 16.7066C79.2636 16.248 78.476 16.0187 77.4476 16.0187C76.362 16.0187 75.5009 16.2332 74.8643 16.6622C74.2358 17.0912 73.8114 17.5979 73.591 18.1822L69.4529 17.6496C69.7794 16.6141 70.3181 15.7488 71.069 15.0535C71.8199 14.3509 72.7381 13.8257 73.8236 13.4781C74.9092 13.1231 76.109 12.9456 77.4231 12.9456C78.3291 12.9456 79.231 13.0417 80.1288 13.234C81.0266 13.4263 81.8469 13.7444 82.5896 14.1881C83.3324 14.6245 83.9282 15.2199 84.3771 15.9744C84.8342 16.7288 85.0627 17.6718 85.0627 18.8035V30.2086H80.8021V27.8677H80.6552C80.3859 28.3411 80.0063 28.7848 79.5166 29.199C79.0351 29.6058 78.427 29.935 77.6924 30.1864C76.966 30.4305 76.1131 30.5526 75.1336 30.5526ZM76.2845 27.6014C77.1741 27.6014 77.9454 27.4424 78.5984 27.1244C79.2514 26.7989 79.7533 26.3699 80.1043 25.8374C80.4634 25.3049 80.643 24.7242 80.643 24.0956V22.0874C80.5042 22.191 80.2675 22.2871 79.9329 22.3759C79.6064 22.4647 79.2391 22.5423 78.831 22.6089C78.4229 22.6755 78.0189 22.7346 77.619 22.7864C77.219 22.8382 76.8721 22.8826 76.5783 22.9195C75.9172 23.0009 75.3254 23.134 74.8031 23.3189C74.2807 23.5038 73.8685 23.7627 73.5665 24.0956C73.2645 24.421 73.1135 24.8426 73.1135 25.3603C73.1135 26.1 73.4115 26.6584 74.0073 27.0356C74.6031 27.4128 75.3622 27.6014 76.2845 27.6014Z" fill="white"/>
<path d="M93.9511 20.2236V30.2086H89.5191V13.1675H93.7552V16.0631H93.9756C94.4082 15.109 95.0979 14.3509 96.0447 13.7887C96.9996 13.2266 98.179 12.9456 99.5829 12.9456C100.881 12.9456 102.011 13.197 102.974 13.7C103.945 14.2029 104.696 14.9315 105.227 15.8856C105.766 16.8397 106.031 17.9973 106.023 19.3582V30.2086H101.591V19.9795C101.591 18.8404 101.264 17.9492 100.611 17.3057C99.9665 16.6622 99.0728 16.3405 97.9301 16.3405C97.1547 16.3405 96.465 16.4958 95.861 16.8065C95.2652 17.1097 94.7959 17.5498 94.4531 18.1267C94.1184 18.7036 93.9511 19.4026 93.9511 20.2236Z" fill="white"/>
<path d="M115.94 30.5526C114.748 30.5526 113.675 30.3603 112.72 29.9756C111.773 29.5836 111.022 29.0067 110.467 28.2449C109.92 27.4831 109.647 26.5437 109.647 25.4269C109.647 24.4654 109.842 23.6703 110.234 23.0416C110.626 22.4129 111.161 21.9099 111.838 21.5327C112.516 21.1555 113.279 20.8707 114.128 20.6784C114.985 20.4787 115.87 20.3345 116.784 20.2458C117.886 20.1422 118.78 20.0498 119.465 19.9684C120.151 19.8796 120.649 19.7465 120.959 19.569C121.277 19.3841 121.437 19.0993 121.437 18.7147V18.6481C121.437 17.8124 121.163 17.1652 120.616 16.7066C120.069 16.248 119.282 16.0187 118.253 16.0187C117.168 16.0187 116.307 16.2332 115.67 16.6622C115.042 17.0912 114.617 17.5979 114.397 18.1822L110.259 17.6496C110.585 16.6141 111.124 15.7488 111.875 15.0535C112.626 14.3509 113.544 13.8257 114.63 13.4781C115.715 13.1231 116.915 12.9456 118.229 12.9456C119.135 12.9456 120.037 13.0417 120.935 13.234C121.832 13.4263 122.653 13.7444 123.395 14.1881C124.138 14.6245 124.734 15.2199 125.183 15.9744C125.64 16.7288 125.869 17.6718 125.869 18.8035V30.2086H121.608V27.8677H121.461C121.192 28.3411 120.812 28.7848 120.323 29.199C119.841 29.6058 119.233 29.935 118.498 30.1864C117.772 30.4305 116.919 30.5526 115.94 30.5526ZM117.09 27.6014C117.98 27.6014 118.751 27.4424 119.404 27.1244C120.057 26.7989 120.559 26.3699 120.91 25.8374C121.269 25.3049 121.449 24.7242 121.449 24.0956V22.0874C121.31 22.191 121.073 22.2871 120.739 22.3759C120.412 22.4647 120.045 22.5423 119.637 22.6089C119.229 22.6755 118.825 22.7346 118.425 22.7864C118.025 22.8382 117.678 22.8826 117.384 22.9195C116.723 23.0009 116.131 23.134 115.609 23.3189C115.087 23.5038 114.674 23.7627 114.372 24.0956C114.07 24.421 113.919 24.8426 113.919 25.3603C113.919 26.1 114.217 26.6584 114.813 27.0356C115.409 27.4128 116.168 27.6014 117.09 27.6014Z" fill="white"/>
<path d="M134.365 24.8611L134.353 20.0128H135.063L141.821 13.1675H147L138.687 21.5549H137.769L134.365 24.8611ZM130.325 30.2086V7.48706H134.757V30.2086H130.325ZM142.127 30.2086L136.006 22.4536L138.993 19.6245L147.428 30.2086H142.127Z" fill="white"/>
<path d="M153.994 24.8611L153.982 20.0128H154.692L161.45 13.1675H166.629L158.316 21.5549H157.397L153.994 24.8611ZM149.954 30.2086V7.48706H154.386V30.2086H149.954ZM161.756 30.2086L155.634 22.4536L158.622 19.6245L167.057 30.2086H161.756Z" fill="white"/>
<path d="M181.568 23.0416V13.1675H186V30.2086H181.703V27.1798H181.507C181.082 28.134 180.385 28.9143 179.413 29.5208C178.45 30.1273 177.263 30.4305 175.851 30.4305C174.618 30.4305 173.528 30.1827 172.582 29.6872C171.643 29.1842 170.908 28.4557 170.378 27.5016C169.847 26.54 169.582 25.3788 169.582 24.0179V13.1675H174.014V23.3966C174.014 24.4765 174.341 25.3344 174.994 25.9705C175.647 26.6066 176.504 26.9247 177.565 26.9247C178.218 26.9247 178.85 26.7804 179.462 26.492C180.074 26.2035 180.576 25.7745 180.968 25.205C181.368 24.6281 181.568 23.9069 181.568 23.0416Z" fill="white"/>
<defs>
<linearGradient id="paint0_linear_748_2" x1="24.7095" y1="31.3133" x2="38.3308" y2="4.09606" gradientUnits="userSpaceOnUse">
<stop stop-color="#743BFF"/>
<stop offset="1" stop-color="#349BFF"/>
</linearGradient>
<linearGradient id="paint1_linear_748_2" x1="7.38727" y1="28.9652" x2="16.1177" y2="1.94026" gradientUnits="userSpaceOnUse">
<stop stop-color="#743BFF"/>
<stop offset="1" stop-color="#349BFF"/>
</linearGradient>
</defs>
</svg>
