<svg width="186" height="38" viewBox="0 0 186 38" fill="none" xmlns="http://www.w3.org/2000/svg">
<path d="M20.0383 0.472481C19.8859 0.510582 19.8478 0.548687 19.924 0.571548C19.985 0.602032 20.427 0.746822 20.9071 0.906857C21.9588 1.2574 23.5363 2.04233 24.5498 2.72057C27.6819 4.80862 29.6938 7.51395 30.2654 10.3793C30.6159 12.1625 30.1815 15.5995 29.3509 17.6494C28.284 20.2709 26.7827 21.9017 23.239 24.2565C21.0214 25.7349 19.8173 26.7561 19.0095 27.8382C17.9579 29.2556 17.4092 31.016 17.4092 32.9364C17.4168 34.0185 17.5311 34.7959 17.8283 35.6798C18.0493 36.3428 18.6285 37.5317 18.7581 37.5698C18.8038 37.585 19.0095 37.2802 19.2153 36.8915C19.6878 35.9771 20.7242 34.9102 21.6158 34.4072C23.239 33.4927 25.3576 33.1269 28.2764 33.2641C30.2349 33.3555 31.1418 33.165 31.6905 32.563C31.8276 32.403 31.9953 32.1439 32.0486 31.9838C32.201 31.5495 32.1706 30.6426 31.9724 29.9415C31.881 29.6138 31.82 29.3395 31.8276 29.3319C31.8429 29.3242 32.0486 29.1947 32.2925 29.0499C33.3746 28.4098 33.4585 27.6096 32.5287 26.6722L32.1096 26.2455L32.4373 26.1617C33.2679 25.9483 33.7709 25.6435 33.8547 25.2777C33.9614 24.7976 33.7785 24.2413 33.3061 23.624C33.146 23.4182 33.0317 23.243 33.0469 23.2353C33.0622 23.2277 33.5423 23.1286 34.1139 23.0143C35.2493 22.7933 36.0343 22.4961 36.3467 22.1532C36.6897 21.7874 36.6211 21.4902 35.8895 20.027C34.8835 18 34.6854 17.0855 34.5559 13.8162C34.5101 12.7493 34.4415 11.5834 34.3958 11.2252C34.0072 7.97881 32.7497 5.70786 30.0215 3.35308C28.4516 1.98898 26.3559 1.02116 24.0316 0.586788C23.3229 0.449615 20.427 0.373409 20.0383 0.472481Z" fill="url(#paint0_linear_202_47168)"/>
<path d="M17.4865 1.95642C16.9911 2.05548 16.4805 2.34507 16.1376 2.70324C15.8709 2.9852 15.5051 3.66344 15.5051 3.87682C15.4975 4.22737 15.4517 4.23499 13.9352 4.18165C13.1426 4.15878 12.2282 4.13592 11.9005 4.13592C11.4051 4.13592 11.2984 4.11306 11.2679 3.99875C11.0469 3.32813 10.7497 2.96996 10.2087 2.71848C9.4542 2.36793 8.66926 2.5051 8.07485 3.10713C7.50329 3.67106 7.33563 4.48647 7.64808 5.16471L7.78526 5.47716L6.60404 6.53643C5.95628 7.12322 5.27803 7.73287 5.09513 7.8929L4.76744 8.17486L4.42451 7.96148C4.23399 7.83956 3.92154 7.69476 3.73102 7.64142C3.26616 7.51187 2.37453 7.57283 1.92491 7.77097C1.42956 7.99959 0.911346 8.49493 0.667482 9.00551C0.484585 9.37131 0.454102 9.52372 0.454102 10.1181C0.454102 10.6973 0.484585 10.8726 0.652241 11.2231C0.926588 11.8099 1.23904 12.1452 1.80297 12.45C2.2526 12.6939 2.3288 12.7091 3.00705 12.7091C3.74626 12.7091 3.95964 12.6482 4.5312 12.2748C4.74458 12.1376 4.43975 11.8785 7.89957 15.1554L8.57019 15.7879L8.41778 16.1156C8.25012 16.489 8.21964 17.0453 8.35681 17.5025C8.47875 17.9217 9.11127 18.5542 9.53041 18.6761C10.2239 18.8819 11.0012 18.7142 11.4813 18.257C11.6795 18.0665 11.6947 18.0665 11.8852 18.1884C11.9919 18.257 12.0757 18.2875 12.0757 18.257C12.0757 18.2189 12.1062 18.2341 12.1367 18.2798C12.2358 18.417 12.9293 18.7676 13.0131 18.7142C13.0512 18.6914 13.0664 18.699 13.0436 18.7447C13.0131 18.7904 13.3027 18.9886 13.6685 19.1943L14.3467 19.5677L14.3086 20.1012C14.2553 20.7794 14.461 21.3052 14.9335 21.7244L15.2536 22.0063L14.8192 23.2256L14.3848 24.4449L13.859 24.4907C12.4263 24.5974 11.6642 26.0377 12.3501 27.3103C12.533 27.638 13.0055 28.0571 13.3179 28.1638C13.3941 28.1867 13.3636 28.3848 13.0359 30.1147L12.9445 30.61L12.5635 30.6939C12.0605 30.8082 11.7633 30.9758 11.4889 31.2883C11.1384 31.6845 10.986 32.1646 11.0241 32.6981C11.0774 33.2773 11.2527 33.6354 11.6642 34.0012C12.7006 34.9081 14.3239 34.4356 14.7125 33.102C14.9869 32.1646 14.6058 31.3264 13.638 30.7701C13.5084 30.6939 13.5084 30.6558 13.6227 30.0842C13.6913 29.7489 13.7828 29.2155 13.8361 28.8878L13.9352 28.3086L14.3696 28.2248C15.467 28.0038 16.13 26.8835 15.8099 25.7862C15.7108 25.4356 15.3755 24.9631 15.1164 24.8107L14.9107 24.6888L15.3374 23.439L15.7718 22.1968H16.0842C17.2807 22.1968 18.2028 21.2214 18.0733 20.0859L18.0352 19.7506L18.5839 19.5068C18.8811 19.362 19.6812 19.0038 20.3595 18.699L21.6017 18.135L21.937 18.5161C22.1275 18.7218 22.4704 18.9886 22.7219 19.1105C23.1106 19.3162 23.2401 19.3391 23.8498 19.3391C24.4747 19.3391 24.589 19.3162 25.0462 19.0876C25.5645 18.8361 26.0674 18.3637 25.976 18.2189C25.9455 18.1731 25.9531 18.1579 25.9988 18.1808C26.0446 18.2113 26.1589 18.0588 26.2579 17.8302C26.517 17.2587 26.517 16.2299 26.2503 15.6812C25.9684 15.0944 25.3816 14.5533 24.81 14.3476L24.3299 14.1723L24.3756 13.0978C24.4366 11.8099 24.4823 11.4517 24.589 11.4517C24.7795 11.4517 25.4654 11.0631 25.694 10.8268C26.0369 10.4763 26.1894 10.0572 26.1894 9.49324C26.1817 8.45683 25.3587 7.64142 24.307 7.64142C23.9641 7.64142 23.5221 7.76335 23.3925 7.8929C23.3392 7.94625 23.1639 8.02245 23.423 7.90814C23.4992 7.86242 23.5145 7.87766 23.4764 7.93862C23.4383 7.99197 23.3697 8.01483 23.3087 7.99197C23.2554 7.9691 23.1868 7.98435 23.1639 8.02245C23.0801 8.16724 22.9277 8.09866 22.5543 7.75573C22.3409 7.56521 22.1504 7.4128 22.1275 7.4128C22.1046 7.4128 21.9979 7.33659 21.8913 7.23752C21.7922 7.14608 21.3959 6.81839 21.0072 6.50594C20.6186 6.1935 20.3061 5.91915 20.3061 5.89629C20.3061 5.87343 20.3747 5.66005 20.4662 5.43143C20.6491 4.95133 20.6796 4.15116 20.5271 3.70155C20.1156 2.4289 18.7972 1.67445 17.4865 1.95642ZM15.566 5.25616C15.6651 5.54574 15.7489 5.82771 15.7566 5.89629C15.7642 5.96488 15.1621 6.5288 14.2476 7.29087C13.4094 7.99959 12.6549 8.63972 12.5635 8.72355C12.4034 8.86072 12.3958 8.86072 12.03 8.67021C11.8243 8.57114 11.4737 8.45683 11.2451 8.42635L10.8259 8.36538L10.6888 7.90814C10.6126 7.65666 10.4754 7.16132 10.3916 6.81077C10.2391 6.2316 10.2391 6.17064 10.3458 6.10967C10.7497 5.88105 11.1155 5.39333 11.2679 4.87513C11.306 4.75319 11.4737 4.74557 13.3484 4.74557H15.3908L15.566 5.25616ZM8.50161 6.11729C8.66926 6.20874 8.99696 6.30019 9.2332 6.33067L9.66758 6.38401L9.94955 7.33659C10.1096 7.86242 10.2391 8.35776 10.2391 8.44921C10.2468 8.54066 10.1324 8.68545 9.94193 8.83024C9.77427 8.95217 9.6371 9.0741 9.6371 9.10458C9.6371 9.13507 9.57613 9.23413 9.50755 9.31796C9.43134 9.40179 9.33227 9.58468 9.28654 9.72185L9.20272 9.96571L8.18154 9.9581C7.6176 9.95047 6.8098 9.94285 6.39066 9.94285L5.62097 9.92761L5.57524 9.63803C5.54476 9.47799 5.44569 9.18841 5.34662 8.99027L5.16372 8.6321L6.64215 7.29849C7.45757 6.56691 8.13581 5.96488 8.15867 5.96488C8.18154 5.96488 8.33395 6.03346 8.50161 6.11729ZM21.5255 7.67952C22.0894 8.12914 22.5695 8.51779 22.5847 8.53303C22.6076 8.54827 22.5771 8.68545 22.5162 8.84548C22.4628 8.99789 22.4171 9.34082 22.4171 9.59992C22.4171 9.86665 22.3866 10.1029 22.3333 10.141C22.2875 10.1715 21.5712 10.522 20.7405 10.9107L19.224 11.6118L18.9039 11.3146C18.721 11.1469 18.4467 10.9716 18.2866 10.9183L17.9971 10.8268L18.0504 9.82092C18.0733 9.27224 18.119 8.44159 18.1495 7.96911L18.1952 7.11559L18.4924 7.06987C18.8277 7.00891 19.6355 6.62787 19.7727 6.46022C19.8565 6.36115 19.9099 6.37639 20.1842 6.59739C20.3519 6.73456 20.9615 7.22228 21.5255 7.67952ZM16.5872 6.65073C16.7625 6.78028 17.0521 6.92508 17.235 6.9708C17.4179 7.01653 17.5779 7.06987 17.5932 7.10035C17.6084 7.12321 17.5779 7.95387 17.5169 8.93693C17.4636 9.91999 17.4179 10.7506 17.4103 10.7811C17.4103 10.8192 17.3417 10.8421 17.2578 10.8421C16.9835 10.8421 16.4196 11.1622 16.1605 11.467L15.9014 11.7718L14.461 11.246L13.0283 10.7278L12.9826 10.2324C12.9597 9.95809 12.8988 9.66089 12.8531 9.56944C12.7997 9.47799 12.7616 9.38655 12.7616 9.36369C12.7616 9.34082 13.196 8.95979 13.7371 8.51017C14.2705 8.06055 14.7735 7.62618 14.8573 7.54997C15.1621 7.27563 16.1986 6.42212 16.2367 6.42212C16.2519 6.42212 16.4119 6.5288 16.5872 6.65073ZM8.98934 10.5754C9.18747 10.6058 9.24082 10.6592 9.30941 10.9412C9.42372 11.3527 9.84286 11.8404 10.2468 12.0233C10.5135 12.1452 10.5516 12.1909 10.5211 12.3586C10.4982 12.4653 10.4068 13.0902 10.3153 13.7532L10.1477 14.942L9.82762 14.9877C9.65996 15.0182 9.40086 15.1096 9.26368 15.1935C9.01982 15.3383 9.00458 15.3383 8.85216 15.2087C8.65402 15.0411 5.14086 11.7489 5.14086 11.7337C5.14086 11.7261 5.22469 11.5508 5.33138 11.3451C5.43807 11.1393 5.5219 10.9183 5.5219 10.865C5.5219 10.804 5.55238 10.6973 5.59048 10.6287C5.65145 10.5144 5.81911 10.4992 7.2137 10.522C8.0596 10.5296 8.8674 10.5525 8.98934 10.5754ZM23.2477 11.1317C23.3697 11.2155 23.5754 11.3146 23.6898 11.3451L23.9031 11.3984L23.8574 12.3967C23.7736 14.0504 23.7507 14.1952 23.5373 14.1952C23.2096 14.1952 22.539 14.5 22.1885 14.8124L21.8379 15.1096L20.611 14.3095C19.4145 13.5322 19.3764 13.4941 19.4374 13.2959C19.4679 13.1816 19.4983 12.8768 19.4983 12.6177L19.506 12.1376L21.1063 11.3755L22.7067 10.6135L22.8591 10.7887C22.9429 10.8878 23.1182 11.0402 23.2477 11.1317ZM14.3086 11.8099L15.7337 12.3281V12.7472C15.7337 13.2655 16.0004 13.8827 16.3281 14.119C16.4577 14.2104 16.5796 14.2866 16.6025 14.279C16.6329 14.2714 16.7244 14.3323 16.8082 14.4162L16.9683 14.5686L16.6101 16.4585C16.4119 17.4949 16.2443 18.356 16.2443 18.356C16.2367 18.3637 16.0842 18.3865 15.9014 18.3941L15.5737 18.4246L15.0554 17.4339C14.7735 16.8853 14.0266 15.4297 13.3941 14.1799L12.2434 11.9242L12.5177 11.6118C12.6778 11.4441 12.8149 11.2993 12.8378 11.2993C12.8607 11.2993 13.5161 11.5279 14.3086 11.8099ZM12.5101 13.7379C12.9293 14.5533 13.6761 16.0089 14.1714 16.9691L15.0631 18.7066L14.8726 18.8971L14.682 19.0876L13.3408 18.3408L11.9995 17.5864L12.0453 17.1215C12.1291 16.2832 11.7404 15.5212 11.0546 15.1859C10.7421 15.0334 10.7192 15.0106 10.7497 14.782C10.7726 14.6448 10.864 14.0199 10.9555 13.395L11.1231 12.2519L11.3899 12.2062C11.5347 12.1833 11.6795 12.1833 11.7023 12.2062C11.7328 12.229 12.091 12.9225 12.5101 13.7379ZM20.5729 14.9801C21.0758 15.3078 21.495 15.5898 21.5026 15.5974C21.5178 15.6126 21.4721 15.7803 21.4035 15.9784C21.3121 16.2375 21.2892 16.5195 21.3121 16.9767L21.3426 17.6168L19.5898 18.4094L17.8294 19.2019L17.456 18.8742C17.2578 18.6914 17.0445 18.5389 16.9911 18.5389C16.9302 18.5389 16.8692 18.5085 16.8463 18.478C16.8235 18.4399 16.9378 17.7464 17.0978 16.931C17.2655 16.1156 17.4179 15.3002 17.4484 15.1096C17.5169 14.6753 17.6008 14.5762 17.8904 14.5762C18.1647 14.5762 18.7058 14.3323 18.8963 14.119C19.0487 13.9513 18.9344 13.898 20.5729 14.9801Z" fill="url(#paint1_linear_202_47168)"/>
<ellipse cx="24.3643" cy="9.5186" rx="2.378" ry="2.37797" fill="#4286FF"/>
<ellipse cx="23.813" cy="16.9106" rx="2.63721" ry="2.63718" fill="#4286FF"/>
<path d="M42.5459 31.6123V6H47.2049V17.7682H47.5188L57.5526 6H63.2413L53.2955 17.493L63.3292 31.6123H57.7284L50.0555 20.632L47.2049 23.9836V31.6123H42.5459Z" fill="#051321"/>
<path d="M71.8278 32C70.6055 32 69.5046 31.7832 68.5251 31.3497C67.5539 30.9078 66.7837 30.2575 66.2144 29.3988C65.6535 28.54 65.373 27.4812 65.373 26.2222C65.373 25.1384 65.574 24.2421 65.9758 23.5334C66.3777 22.8248 66.926 22.2578 67.6209 21.8326C68.3158 21.4074 69.0985 21.0864 69.9692 20.8696C70.8483 20.6445 71.7566 20.482 72.6943 20.3819C73.8245 20.2652 74.7412 20.161 75.4445 20.0693C76.1477 19.9692 76.6584 19.8191 76.9765 19.619C77.303 19.4106 77.4663 19.0896 77.4663 18.6561V18.581C77.4663 17.6389 77.1858 16.9094 76.6249 16.3925C76.064 15.8756 75.2561 15.6171 74.2012 15.6171C73.0878 15.6171 72.2045 15.8589 71.5515 16.3425C70.9069 16.826 70.4715 17.3971 70.2455 18.0558L66.0009 17.4555C66.3358 16.2883 66.8884 15.3128 67.6586 14.5291C68.4288 13.7371 69.3706 13.1451 70.4841 12.7532C71.5976 12.3531 72.8282 12.153 74.1761 12.153C75.1054 12.153 76.0305 12.2613 76.9514 12.4781C77.8723 12.6949 78.7137 13.0534 79.4756 13.5536C80.2374 14.0455 80.8486 14.7167 81.309 15.5671C81.7778 16.4175 82.0123 17.4805 82.0123 18.7561V31.6123H77.6421V28.9735H77.4914C77.2151 29.5071 76.8258 30.0074 76.3235 30.4743C75.8296 30.9328 75.2059 31.3038 74.4524 31.5873C73.7073 31.8624 72.8324 32 71.8278 32ZM73.0082 28.6734C73.9208 28.6734 74.7119 28.4942 75.3817 28.1356C76.0514 27.7688 76.5663 27.2852 76.9263 26.6849C77.2947 26.0847 77.4789 25.4302 77.4789 24.7215V22.4579C77.3365 22.5746 77.0937 22.683 76.7505 22.7831C76.4156 22.8831 76.0389 22.9707 75.6203 23.0457C75.2017 23.1207 74.7873 23.1874 74.377 23.2458C73.9668 23.3042 73.611 23.3542 73.3096 23.3959C72.6315 23.4876 72.0245 23.6376 71.4887 23.8461C70.9529 24.0545 70.5301 24.3463 70.2204 24.7215C69.9106 25.0883 69.7557 25.5636 69.7557 26.1472C69.7557 26.9809 70.0613 27.6104 70.6725 28.0356C71.2836 28.4608 72.0622 28.6734 73.0082 28.6734Z" fill="#051321"/>
<path d="M91.1293 20.3569V31.6123H86.5833V12.4031H90.9284V15.6671H91.1544C91.5981 14.5916 92.3055 13.7371 93.2767 13.1034C94.2562 12.4698 95.466 12.153 96.9059 12.153C98.2371 12.153 99.3966 12.4364 100.384 13.0034C101.381 13.5703 102.151 14.3915 102.695 15.4671C103.248 16.5426 103.52 17.8474 103.511 19.3814V31.6123H98.9654V20.0818C98.9654 18.7978 98.6305 17.7932 97.9608 17.0678C97.2994 16.3425 96.3827 15.9798 95.2106 15.9798C94.4153 15.9798 93.7079 16.1549 93.0883 16.5051C92.4772 16.8469 91.9958 17.343 91.6442 17.9933C91.3009 18.6436 91.1293 19.4315 91.1293 20.3569Z" fill="#051321"/>
<path d="M113.683 32C112.461 32 111.36 31.7832 110.381 31.3497C109.409 30.9078 108.639 30.2575 108.07 29.3988C107.509 28.54 107.229 27.4812 107.229 26.2222C107.229 25.1384 107.429 24.2421 107.831 23.5334C108.233 22.8248 108.782 22.2578 109.476 21.8326C110.171 21.4074 110.954 21.0864 111.825 20.8696C112.704 20.6445 113.612 20.482 114.55 20.3819C115.68 20.2652 116.597 20.161 117.3 20.0693C118.003 19.9692 118.514 19.8191 118.832 19.619C119.159 19.4106 119.322 19.0896 119.322 18.6561V18.581C119.322 17.6389 119.041 16.9094 118.48 16.3925C117.919 15.8756 117.112 15.6171 116.057 15.6171C114.943 15.6171 114.06 15.8589 113.407 16.3425C112.762 16.826 112.327 17.3971 112.101 18.0558L107.856 17.4555C108.191 16.2883 108.744 15.3128 109.514 14.5291C110.284 13.7371 111.226 13.1451 112.34 12.7532C113.453 12.3531 114.684 12.153 116.032 12.153C116.961 12.153 117.886 12.2613 118.807 12.4781C119.728 12.6949 120.569 13.0534 121.331 13.5536C122.093 14.0455 122.704 14.7167 123.165 15.5671C123.633 16.4175 123.868 17.4805 123.868 18.7561V31.6123H119.498V28.9735H119.347C119.071 29.5071 118.681 30.0074 118.179 30.4743C117.685 30.9328 117.061 31.3038 116.308 31.5873C115.563 31.8624 114.688 32 113.683 32ZM114.864 28.6734C115.776 28.6734 116.567 28.4942 117.237 28.1356C117.907 27.7688 118.422 27.2852 118.782 26.6849C119.15 26.0847 119.334 25.4302 119.334 24.7215V22.4579C119.192 22.5746 118.949 22.683 118.606 22.7831C118.271 22.8831 117.894 22.9707 117.476 23.0457C117.057 23.1207 116.643 23.1874 116.233 23.2458C115.822 23.3042 115.467 23.3542 115.165 23.3959C114.487 23.4876 113.88 23.6376 113.344 23.8461C112.808 24.0545 112.386 24.3463 112.076 24.7215C111.766 25.0883 111.611 25.5636 111.611 26.1472C111.611 26.9809 111.917 27.6104 112.528 28.0356C113.139 28.4608 113.918 28.6734 114.864 28.6734Z" fill="#051321"/>
<path d="M132.583 25.5844L132.57 20.1193H133.299L140.231 12.4031H145.543L137.016 21.8576H136.074L132.583 25.5844ZM128.439 31.6123V6H132.985V31.6123H128.439ZM140.545 31.6123L134.266 22.8706L137.33 19.6816L145.982 31.6123H140.545Z" fill="#051321"/>
<path d="M152.716 25.5844L152.704 20.1193H153.432L160.364 12.4031H165.676L157.149 21.8576H156.207L152.716 25.5844ZM148.572 31.6123V6H153.118V31.6123H148.572ZM160.678 31.6123L154.399 22.8706L157.463 19.6816L166.116 31.6123H160.678Z" fill="#051321"/>
<path d="M181 23.5334V12.4031H185.546V31.6123H181.138V28.1982H180.937C180.502 29.2737 179.786 30.1533 178.79 30.8369C177.802 31.5206 176.584 31.8624 175.135 31.8624C173.871 31.8624 172.754 31.5831 171.782 31.0245C170.82 30.4576 170.066 29.6364 169.522 28.5608C168.978 27.477 168.706 26.168 168.706 24.634V12.4031H173.252V23.9336C173.252 25.1509 173.587 26.118 174.256 26.835C174.926 27.552 175.805 27.9105 176.894 27.9105C177.563 27.9105 178.212 27.748 178.84 27.4228C179.468 27.0976 179.983 26.6141 180.385 25.9721C180.795 25.3218 181 24.5089 181 23.5334Z" fill="#051321"/>
<defs>
<linearGradient id="paint0_linear_202_47168" x1="22.1936" y1="31.0343" x2="36.3219" y2="5.62282" gradientUnits="userSpaceOnUse">
<stop stop-color="#743BFF"/>
<stop offset="1" stop-color="#349BFF"/>
</linearGradient>
<linearGradient id="paint1_linear_202_47168" x1="6.95377" y1="28.7372" x2="16.2286" y2="2.89373" gradientUnits="userSpaceOnUse">
<stop stop-color="#743BFF"/>
<stop offset="1" stop-color="#349BFF"/>
</linearGradient>
</defs>
</svg>
