<svg width="93" height="96" viewBox="0 0 93 96" fill="none" xmlns="http://www.w3.org/2000/svg">
<path d="M50.2319 0.115463C49.8409 0.213188 49.7432 0.310913 49.9387 0.369553C50.095 0.447739 51.2287 0.819099 52.46 1.22955C55.1573 2.12865 59.2033 4.14184 61.8028 5.88139C69.836 11.2369 74.996 18.1755 76.462 25.5247C77.3611 30.0983 76.247 38.9133 74.1165 44.1711C71.3801 50.8948 67.5297 55.0775 58.441 61.1171C52.7532 64.9089 49.665 67.528 47.5932 70.3035C44.8959 73.9389 43.4886 78.454 43.4886 83.3794C43.5082 86.1549 43.8014 88.1485 44.5637 90.4158C45.1305 92.1163 46.6159 95.1654 46.9482 95.2631C47.0655 95.3022 47.5932 94.5204 48.1209 93.5236C49.3328 91.1781 51.991 88.4417 54.2778 87.1517C58.441 84.8063 63.8746 83.8681 71.3606 84.2199C76.3838 84.4544 78.7097 83.9658 80.117 82.4217C80.4688 82.0112 80.8988 81.3467 81.0356 80.9362C81.4265 79.8222 81.3483 77.4962 80.8402 75.698C80.6056 74.8576 80.4493 74.1539 80.4688 74.1344C80.5079 74.1149 81.0356 73.7826 81.6611 73.4112C84.4365 71.7694 84.6515 69.7171 82.267 67.313L81.192 66.2185L82.0324 66.0035C84.1629 65.4562 85.4529 64.6744 85.6679 63.7362C85.9415 62.5048 85.4725 61.078 84.2606 59.4948C83.8502 58.9671 83.557 58.5175 83.5961 58.498C83.6352 58.4784 84.8665 58.2243 86.3325 57.9311C89.2447 57.3643 91.2579 56.6021 92.0593 55.7225C92.9389 54.7843 92.7629 54.022 90.8866 50.2693C88.3066 45.0702 87.7984 42.7247 87.4661 34.3397C87.3488 31.6033 87.1729 28.6129 87.0556 27.6942C86.0588 19.3678 82.8338 13.5432 75.8365 7.50367C71.8101 4.00502 66.4351 1.52274 60.4737 0.408646C58.656 0.0568237 51.2287 -0.138634 50.2319 0.115463Z" fill="url(#paint0_linear_1_16183)"/>
<path d="M43.684 3.92697C42.4136 4.18106 41.104 4.9238 40.2245 5.84244C39.5404 6.56562 38.6022 8.30518 38.6022 8.85246C38.5826 9.75155 38.4654 9.77109 34.5758 9.63427C32.5431 9.57563 30.1976 9.517 29.3571 9.517C28.0867 9.517 27.8131 9.45836 27.7349 9.16518C27.168 7.44517 26.4058 6.52653 25.018 5.88152C23.083 4.98243 21.0698 5.33425 19.5453 6.87835C18.0794 8.32471 17.6494 10.4161 18.4507 12.1556L18.8026 12.957L15.773 15.6738C14.1116 17.1788 12.3721 18.7425 11.903 19.1529L11.0625 19.8761L10.183 19.3289C9.69434 19.0161 8.89297 18.6448 8.40434 18.5079C7.21206 18.1757 4.92523 18.332 3.77204 18.8402C2.50158 19.4266 1.17249 20.697 0.547031 22.0066C0.077938 22.9448 -0.000244141 23.3357 -0.000244141 24.8602C-0.000244141 26.3457 0.077938 26.7953 0.50794 27.6943C1.21158 29.1994 2.01295 30.0594 3.45932 30.8412C4.6125 31.4666 4.80796 31.5057 6.54751 31.5057C8.44343 31.5057 8.9907 31.3494 10.4566 30.3916C11.0039 30.0398 10.2221 29.3753 19.0957 37.7798L20.8158 39.4021L20.4248 40.2426C19.9948 41.2003 19.9167 42.6271 20.2685 43.7999C20.5812 44.8749 22.2035 46.4972 23.2785 46.8099C25.0571 47.3376 27.0508 46.9076 28.2821 45.7349C28.7903 45.2462 28.8294 45.2462 29.3181 45.559C29.5917 45.7349 29.8067 45.8131 29.8067 45.7349C29.8067 45.6371 29.8849 45.6762 29.9631 45.7935C30.2172 46.1453 31.9958 47.0444 32.2108 46.9076C32.3085 46.849 32.3476 46.8685 32.289 46.9858C32.2108 47.1031 32.9535 47.6112 33.8917 48.139L35.6313 49.0967L35.5335 50.4649C35.3967 52.2044 35.9244 53.5531 37.1363 54.6281L37.9572 55.3513L36.8431 58.4786L35.729 61.6058L34.3804 61.7231C30.7058 61.9968 28.7512 65.6909 30.5103 68.955C30.9794 69.7954 32.1912 70.8704 32.9926 71.1441C33.1881 71.2027 33.1099 71.7109 32.2694 76.1477L32.0349 77.4182L31.0576 77.6332C29.7676 77.9264 29.0053 78.3564 28.3017 79.1577C27.4026 80.1741 27.0117 81.4055 27.1094 82.7737C27.2462 84.2591 27.6958 85.1778 28.7512 86.1159C31.4094 88.4419 35.5726 87.23 36.5695 83.8096C37.2731 81.4055 36.2958 79.2555 33.8135 77.8286C33.4813 77.6332 33.4813 77.5355 33.7744 76.0695C33.9503 75.2095 34.1849 73.8414 34.3217 73.0009L34.5758 71.5154L35.6899 71.3004C38.5045 70.7336 40.2049 67.8604 39.384 65.0459C39.1299 64.1468 38.2699 62.9349 37.6054 62.544L37.0776 62.2313L38.1722 59.0258L39.2863 55.8399H40.0876C43.1563 55.8399 45.5213 53.3381 45.189 50.4258L45.0913 49.5658L46.4986 48.9403C47.2609 48.569 49.3131 47.6503 51.0527 46.8685L54.2386 45.4221L55.0986 46.3994C55.5873 46.9272 56.4668 47.6112 57.1118 47.924C58.1086 48.4517 58.4409 48.5103 60.0045 48.5103C61.6073 48.5103 61.9005 48.4517 63.0732 47.8653C64.4023 47.2203 65.6923 46.0085 65.4577 45.6371C65.3796 45.5199 65.3991 45.4808 65.5164 45.5394C65.6337 45.6176 65.9268 45.2267 66.1809 44.6403C66.8455 43.1744 66.8455 40.5358 66.1614 39.1285C65.4382 37.6235 63.9332 36.2357 62.4673 35.708L61.2359 35.2585L61.3532 32.5025C61.5096 29.1994 61.6268 28.2807 61.9005 28.2807C62.3891 28.2807 64.1482 27.2839 64.7346 26.678C65.6141 25.7789 66.005 24.7039 66.005 23.2575C65.9855 20.5993 63.8746 18.5079 61.1773 18.5079C60.2977 18.5079 59.1641 18.8207 58.8318 19.1529C58.695 19.2898 58.2454 19.4852 58.91 19.192C59.1054 19.0748 59.1445 19.1139 59.0468 19.2702C58.9491 19.407 58.7732 19.4657 58.6168 19.407C58.48 19.3484 58.3041 19.3875 58.2454 19.4852C58.0304 19.8566 57.6395 19.6807 56.6818 18.8011C56.1345 18.3125 55.6459 17.9216 55.5873 17.9216C55.5286 17.9216 55.255 17.7261 54.9813 17.472C54.7273 17.2375 53.7109 16.397 52.7141 15.5957C51.7172 14.7943 50.9159 14.0907 50.9159 14.032C50.9159 13.9734 51.0918 13.4261 51.3263 12.8397C51.7954 11.6084 51.8736 9.55609 51.4827 8.4029C50.4272 5.1388 47.0459 3.20379 43.684 3.92697ZM38.7585 12.3902C39.0126 13.1329 39.2276 13.8561 39.2472 14.032C39.2667 14.2079 37.7226 15.6543 35.3772 17.6088C33.2272 19.4266 31.2922 21.0684 31.0576 21.2834C30.6472 21.6352 30.6276 21.6352 29.6894 21.1466C29.1617 20.8925 28.2626 20.5993 27.6762 20.5211L26.6012 20.3648L26.2494 19.192C26.054 18.547 25.7021 17.2766 25.4871 16.3775C25.0962 14.892 25.0962 14.7357 25.3699 14.5793C26.4058 13.9929 27.344 12.742 27.7349 11.4129C27.8326 11.1002 28.2626 11.0806 33.0708 11.0806H38.309L38.7585 12.3902ZM20.6398 14.5988C21.0698 14.8334 21.9103 15.0679 22.5162 15.1461L23.6303 15.2829L24.3535 17.7261C24.7639 19.0748 25.0962 20.3452 25.0962 20.5798C25.1158 20.8143 24.8226 21.1857 24.3339 21.557C23.9039 21.8698 23.5521 22.1825 23.5521 22.2607C23.5521 22.3389 23.3958 22.593 23.2199 22.808C23.0244 23.023 22.7703 23.4921 22.653 23.8439L22.438 24.4693L19.8189 24.4498C18.3726 24.4302 16.3007 24.4107 15.2257 24.4107L13.2516 24.3716L13.1344 23.6289C13.0562 23.2184 12.8021 22.4757 12.548 21.9675L12.0789 21.0489L15.8707 17.6284C17.9621 15.752 19.7017 14.2079 19.7603 14.2079C19.8189 14.2079 20.2098 14.3838 20.6398 14.5988ZM54.0432 18.6057C55.4895 19.7589 56.7209 20.7557 56.76 20.7948C56.8186 20.8339 56.7404 21.1857 56.5841 21.5961C56.4473 21.987 56.33 22.8666 56.33 23.5311C56.33 24.2152 56.2518 24.8212 56.115 24.9189C55.9977 24.9971 54.1604 25.8962 52.03 26.893L48.1404 28.6912L47.3195 27.9289C46.8504 27.4989 46.1468 27.0493 45.7363 26.9125L44.9936 26.678L45.1304 24.098C45.189 22.6907 45.3063 20.5602 45.3845 19.3484L45.5018 17.1593L46.264 17.042C47.124 16.8857 49.1959 15.9084 49.5477 15.4784C49.7627 15.2243 49.8995 15.2634 50.6031 15.8302C51.0331 16.182 52.5968 17.4329 54.0432 18.6057ZM41.3777 15.967C41.8272 16.2993 42.5699 16.6707 43.039 16.7879C43.5081 16.9052 43.9186 17.042 43.9577 17.1202C43.9968 17.1788 43.9186 19.3093 43.7622 21.8307C43.6254 24.3521 43.5081 26.4825 43.4886 26.5607C43.4886 26.6584 43.3127 26.7171 43.0977 26.7171C42.394 26.7171 40.9477 27.538 40.2831 28.3198L39.6186 29.1016L35.9244 27.753L32.2499 26.4239L32.1326 25.1534C32.074 24.4498 31.9176 23.6875 31.8003 23.453C31.6635 23.2184 31.5658 22.9839 31.5658 22.9252C31.5658 22.8666 32.6799 21.8893 34.0676 20.7361C35.4358 19.5829 36.7258 18.4688 36.9408 18.2734C37.7226 17.5698 40.3808 15.3807 40.4786 15.3807C40.5176 15.3807 40.9281 15.6543 41.3777 15.967ZM21.8908 26.033C22.3989 26.1112 22.5358 26.248 22.7117 26.9712C23.0049 28.0266 24.0799 29.2775 25.1158 29.7466C25.7999 30.0594 25.8976 30.1766 25.8194 30.6066C25.7608 30.8803 25.5262 32.483 25.2917 34.1835L24.8617 37.2326L24.0408 37.3498C23.6108 37.428 22.9462 37.6626 22.5944 37.8776C21.9689 38.2489 21.9298 38.2489 21.5389 37.9167C21.0308 37.4867 12.0203 29.043 12.0203 29.0039C12.0203 28.9843 12.2353 28.5348 12.5089 28.0071C12.7825 27.4793 12.9975 26.9125 12.9975 26.7757C12.9975 26.6193 13.0757 26.3457 13.1734 26.1698C13.3298 25.8766 13.7598 25.8375 17.3366 25.8962C19.5062 25.9157 21.578 25.9743 21.8908 26.033ZM58.4605 27.4598C58.7732 27.6748 59.3009 27.9289 59.5941 28.0071L60.1414 28.1439L60.0241 30.7044C59.8091 34.9457 59.7505 35.3171 59.2032 35.3171C58.3627 35.3171 56.6427 36.0989 55.7436 36.9003L54.8445 37.6626L51.6977 35.6103C48.629 33.6166 48.5313 33.5189 48.6877 33.0107C48.7659 32.7175 48.844 31.9357 48.844 31.2712L48.8636 30.0398L52.9682 28.0853L57.0727 26.1307L57.4636 26.5802C57.6786 26.8343 58.1282 27.2253 58.4605 27.4598ZM35.5335 29.1994L39.1886 30.5284V31.6035C39.1886 32.9325 39.8726 34.5157 40.7131 35.1216C41.0454 35.3562 41.3581 35.5516 41.4167 35.5321C41.4949 35.5126 41.7295 35.6689 41.9445 35.8839L42.3549 36.2748L41.4363 41.1221C40.9281 43.7803 40.4981 45.989 40.4981 45.989C40.4786 46.0085 40.0876 46.0671 39.6186 46.0867L38.7781 46.1649L37.449 43.624C36.7258 42.2167 34.8104 38.4835 33.1881 35.278L30.2367 29.4925L30.9403 28.6912C31.3508 28.2612 31.7026 27.8898 31.7613 27.8898C31.8199 27.8898 33.5008 28.4762 35.5335 29.1994ZM30.9208 34.1444C31.9958 36.2357 33.9113 39.9689 35.1817 42.4317L37.4685 46.8881L36.9799 47.3767L36.4913 47.8653L33.0513 45.9499L29.6112 44.0149L29.7285 42.8226C29.9435 40.6726 28.9467 38.718 27.1876 37.858C26.3862 37.4671 26.3276 37.4085 26.4058 36.8221C26.4644 36.4703 26.699 34.8676 26.9335 33.2648L27.3635 30.333L28.0476 30.2157C28.419 30.1571 28.7903 30.1571 28.849 30.2157C28.9271 30.2744 29.8458 32.053 30.9208 34.1444ZM51.6 37.3303C52.89 38.1708 53.965 38.8939 53.9845 38.9135C54.0236 38.9526 53.9063 39.3826 53.7304 39.8908C53.4959 40.5553 53.4372 41.2785 53.4959 42.4512L53.5741 44.093L49.0786 46.1258L44.5636 48.1585L43.6058 47.3181C43.0977 46.849 42.5504 46.4581 42.4136 46.4581C42.2572 46.4581 42.1008 46.3799 42.0422 46.3017C41.9836 46.204 42.2767 44.4253 42.6872 42.334C43.1172 40.2426 43.5081 38.1512 43.5863 37.6626C43.7622 36.5485 43.9772 36.2944 44.7199 36.2944C45.4236 36.2944 46.8113 35.6689 47.2999 35.1216C47.6909 34.6916 47.3977 34.5548 51.6 37.3303Z" fill="url(#paint1_linear_1_16183)"/>
<circle cx="61.3264" cy="23.3127" r="6.09906" fill="white"/>
<circle cx="59.9132" cy="42.2642" r="6.76387" fill="white"/>
<defs>
<linearGradient id="paint0_linear_1_16183" x1="55.7595" y1="78.5009" x2="91.9963" y2="13.3256" gradientUnits="userSpaceOnUse">
<stop stop-color="white"/>
<stop offset="1" stop-color="white"/>
</linearGradient>
<linearGradient id="paint1_linear_1_16183" x1="16.67" y1="72.6147" x2="40.4584" y2="6.33121" gradientUnits="userSpaceOnUse">
<stop stop-color="white"/>
<stop offset="1" stop-color="white"/>
</linearGradient>
</defs>
</svg>
