<svg width="20" height="24" viewBox="0 0 20 24" fill="none" xmlns="http://www.w3.org/2000/svg">
<path d="M10.8288 2.02424C10.7467 2.04476 10.7262 2.06528 10.7672 2.07759C10.8001 2.094 11.0381 2.17196 11.2966 2.25814C11.8629 2.44689 12.7123 2.86954 13.258 3.23475C14.9446 4.35909 16.0279 5.8158 16.3357 7.35869C16.5244 8.31889 16.2905 10.1695 15.8432 11.2734C15.2687 12.6849 14.4604 13.5631 12.5522 14.831C11.3581 15.6271 10.7098 16.1769 10.2748 16.7596C9.70854 17.5229 9.41309 18.4708 9.41309 19.5048C9.41719 20.0875 9.47874 20.5061 9.63878 20.9821C9.75778 21.3391 10.0696 21.9792 10.1394 21.9997C10.164 22.0079 10.2748 21.8438 10.3856 21.6345C10.64 21.1421 11.1981 20.5676 11.6782 20.2968C12.5522 19.8044 13.693 19.6074 15.2646 19.6813C16.3192 19.7305 16.8076 19.6279 17.103 19.3038C17.1769 19.2176 17.2671 19.0781 17.2959 18.9919C17.3779 18.758 17.3615 18.2697 17.2548 17.8922C17.2056 17.7157 17.1728 17.568 17.1769 17.5639C17.1851 17.5598 17.2959 17.49 17.4272 17.4121C18.0099 17.0674 18.055 16.6365 17.5544 16.1318L17.3287 15.902L17.5051 15.8569C17.9524 15.742 18.2233 15.5778 18.2684 15.3809C18.3258 15.1224 18.2274 14.8228 17.9729 14.4904C17.8868 14.3796 17.8252 14.2853 17.8334 14.2812C17.8416 14.2771 18.1001 14.2237 18.4079 14.1622C19.0193 14.0432 19.442 13.8831 19.6102 13.6985C19.7949 13.5015 19.758 13.3415 19.364 12.5536C18.8224 11.4621 18.7157 10.9697 18.6459 9.20934C18.6213 8.63486 18.5844 8.00703 18.5597 7.81417C18.3505 6.06611 17.6734 4.84329 16.2043 3.57533C15.359 2.84082 14.2306 2.31969 12.979 2.08579C12.5974 2.01193 11.0381 1.9709 10.8288 2.02424Z" fill="url(#paint0_linear_457_391170)"/>
<path d="M9.45447 2.82441C9.18775 2.87776 8.91282 3.03369 8.72816 3.22655C8.58454 3.37837 8.38757 3.74358 8.38757 3.85848C8.38347 4.04723 8.35885 4.05134 7.54225 4.02261C7.11549 4.0103 6.62308 3.99799 6.44663 3.99799C6.1799 3.99799 6.12245 3.98568 6.10604 3.92413C5.98704 3.56303 5.827 3.37017 5.53565 3.23475C5.12941 3.046 4.70675 3.11986 4.38668 3.44403C4.07892 3.74768 3.98864 4.18675 4.15689 4.55195L4.23075 4.72019L3.59471 5.29057C3.24591 5.60653 2.8807 5.93481 2.78222 6.02098L2.60577 6.17281L2.42111 6.05791C2.31853 5.99226 2.15029 5.91429 2.0477 5.88557C1.79739 5.81581 1.31728 5.84864 1.07517 5.95533C0.808448 6.07843 0.529412 6.34515 0.3981 6.62008C0.299617 6.81704 0.283203 6.89911 0.283203 7.21918C0.283203 7.53104 0.299617 7.62542 0.389894 7.81418C0.537619 8.13014 0.705861 8.31069 1.00952 8.47483C1.25162 8.60614 1.29266 8.61434 1.65787 8.61434C2.05591 8.61434 2.1708 8.58152 2.47856 8.38045C2.59346 8.30659 2.42932 8.16707 4.2923 9.93154L4.65341 10.2721L4.57134 10.4486C4.48106 10.6496 4.46465 10.9492 4.53851 11.1954C4.60416 11.4211 4.94475 11.7617 5.17044 11.8273C5.54386 11.9381 5.96242 11.8478 6.22093 11.6016C6.32762 11.4991 6.33583 11.4991 6.43842 11.5647C6.49587 11.6016 6.54101 11.6181 6.54101 11.6016C6.54101 11.5811 6.55742 11.5893 6.57383 11.6139C6.62718 11.6878 7.0006 11.8766 7.04573 11.8478C7.06625 11.8355 7.07446 11.8396 7.06215 11.8643C7.04573 11.8889 7.20167 11.9956 7.39863 12.1064L7.76384 12.3074L7.74332 12.5947C7.7146 12.9599 7.82539 13.243 8.07981 13.4687L8.25216 13.6205L8.01826 14.2771L7.78436 14.9336L7.50122 14.9582C6.72977 15.0157 6.31942 15.7912 6.68873 16.4765C6.78721 16.653 7.04163 16.8786 7.20987 16.9361C7.25091 16.9484 7.23449 17.0551 7.05804 17.9866L7.0088 18.2533L6.80363 18.2984C6.5328 18.36 6.37276 18.4503 6.22504 18.6185C6.03628 18.8319 5.95421 19.0904 5.97473 19.3776C6.00345 19.6895 6.09783 19.8823 6.31942 20.0793C6.87749 20.5676 7.75153 20.3132 7.96081 19.5951C8.10853 19.0904 7.90336 18.639 7.38222 18.3395C7.31246 18.2984 7.31246 18.2779 7.37401 17.9702C7.41094 17.7896 7.46019 17.5024 7.48891 17.3259L7.54225 17.0141L7.77615 16.9689C8.36705 16.8499 8.72406 16.2467 8.55171 15.6558C8.49836 15.4671 8.31781 15.2126 8.17829 15.1306L8.0675 15.0649L8.29729 14.392L8.53119 13.7231H8.69944C9.34368 13.7231 9.8402 13.1979 9.77044 12.5865L9.74993 12.4059L10.0454 12.2746C10.2054 12.1966 10.6363 12.0038 11.0015 11.8396L11.6704 11.536L11.8509 11.7412C11.9535 11.8519 12.1381 11.9956 12.2736 12.0612C12.4828 12.172 12.5526 12.1843 12.8809 12.1843C13.2174 12.1843 13.2789 12.172 13.5251 12.0489C13.8042 11.9135 14.075 11.6591 14.0257 11.5811C14.0093 11.5565 14.0134 11.5483 14.0381 11.5606C14.0627 11.577 14.1242 11.4949 14.1776 11.3718C14.3171 11.0641 14.3171 10.5101 14.1735 10.2147C14.0216 9.89872 13.7057 9.60737 13.3979 9.49658L13.1394 9.4022L13.164 8.82362C13.1968 8.13014 13.2215 7.93728 13.2789 7.93728C13.3815 7.93728 13.7508 7.728 13.8739 7.6008C14.0586 7.41204 14.1406 7.18635 14.1406 6.8827C14.1365 6.32463 13.6934 5.88557 13.1271 5.88557C12.9424 5.88557 12.7044 5.95122 12.6347 6.02098C12.6059 6.0497 12.5116 6.09074 12.6511 6.02919C12.6921 6.00457 12.7003 6.01277 12.6798 6.0456C12.6593 6.07432 12.6224 6.08663 12.5895 6.07432C12.5608 6.06201 12.5239 6.07022 12.5116 6.09074C12.4664 6.1687 12.3844 6.13177 12.1833 5.94712C12.0684 5.84453 11.9658 5.76246 11.9535 5.76246C11.9412 5.76246 11.8837 5.72143 11.8263 5.66809C11.7729 5.61884 11.5596 5.4424 11.3503 5.27416C11.141 5.10592 10.9728 4.95819 10.9728 4.94588C10.9728 4.93357 11.0097 4.81868 11.0589 4.69557C11.1574 4.43706 11.1738 4.0062 11.0918 3.7641C10.8702 3.07882 10.1603 2.67258 9.45447 2.82441ZM8.4204 4.6012C8.47374 4.75712 8.51888 4.90895 8.52299 4.94588C8.52709 4.98281 8.20291 5.28647 7.7105 5.69681C7.25911 6.07843 6.85287 6.42312 6.80363 6.46825C6.71746 6.54212 6.71335 6.54212 6.51639 6.43953C6.40559 6.38618 6.21683 6.32463 6.09373 6.30822L5.86804 6.27539L5.79417 6.02919C5.75314 5.89377 5.67928 5.62705 5.63414 5.43829C5.55207 5.12643 5.55207 5.09361 5.60952 5.06078C5.827 4.93768 6.02397 4.67506 6.10604 4.39602C6.12655 4.33037 6.21683 4.32627 7.22629 4.32627H8.32602L8.4204 4.6012ZM4.61648 5.06488C4.70675 5.11412 4.8832 5.16336 5.01041 5.17978L5.24431 5.2085L5.39614 5.72143C5.48231 6.00457 5.55207 6.27129 5.55207 6.32053C5.55617 6.36977 5.49462 6.44774 5.39203 6.5257C5.30176 6.59136 5.22789 6.65701 5.22789 6.67342C5.22789 6.68984 5.19507 6.74318 5.15813 6.78832C5.1171 6.83346 5.06375 6.93194 5.03913 7.0058L4.99399 7.13711L4.44413 7.13301C4.14047 7.1289 3.7055 7.1248 3.47981 7.1248L3.06536 7.11659L3.04074 6.96066C3.02433 6.87449 2.97098 6.71856 2.91764 6.61187L2.81915 6.41901L3.61523 5.70091C4.0543 5.30698 4.41951 4.98281 4.43182 4.98281C4.44413 4.98281 4.5262 5.01974 4.61648 5.06488ZM11.6293 5.90608C11.933 6.14819 12.1915 6.35746 12.1997 6.36567C12.212 6.37387 12.1956 6.44774 12.1628 6.53391C12.134 6.61598 12.1094 6.80063 12.1094 6.94015C12.1094 7.08377 12.093 7.21097 12.0643 7.23149C12.0397 7.2479 11.6539 7.43666 11.2067 7.64594L10.3901 8.02345L10.2177 7.86342C10.1192 7.77314 9.97151 7.67876 9.88534 7.65004L9.72941 7.6008L9.75813 7.05915C9.77044 6.7637 9.79506 6.31643 9.81148 6.06201L9.8361 5.60243L9.99613 5.57781C10.1767 5.54498 10.6117 5.33981 10.6855 5.24954C10.7307 5.19619 10.7594 5.2044 10.9071 5.3234C10.9974 5.39726 11.3257 5.65988 11.6293 5.90608ZM8.97026 5.35212C9.06464 5.42188 9.22058 5.49984 9.31906 5.52447C9.41754 5.54909 9.50372 5.57781 9.51192 5.59422C9.52013 5.60653 9.50372 6.05381 9.47089 6.58315C9.44216 7.11249 9.41754 7.55976 9.41344 7.57618C9.41344 7.59669 9.37651 7.609 9.33137 7.609C9.18365 7.609 8.87999 7.78135 8.74047 7.94549L8.60095 8.10962L7.82539 7.82649L7.05394 7.54745L7.02932 7.28073C7.01701 7.13301 6.98418 6.97297 6.95956 6.92373C6.93084 6.87449 6.91032 6.82525 6.91032 6.81294C6.91032 6.80063 7.14422 6.59546 7.43556 6.35336C7.72281 6.11125 7.99364 5.87736 8.03877 5.83633C8.20291 5.6886 8.76099 5.22902 8.7815 5.22902C8.78971 5.22902 8.87588 5.28647 8.97026 5.35212ZM4.8791 7.46538C4.98579 7.4818 5.01451 7.51052 5.05144 7.66235C5.113 7.88393 5.33869 8.14655 5.55617 8.24504C5.69979 8.31069 5.72031 8.33531 5.7039 8.42559C5.69159 8.48304 5.64234 8.81952 5.5931 9.17651L5.50283 9.81665L5.33048 9.84127C5.2402 9.85768 5.10069 9.90692 5.02682 9.95206C4.89551 10.03 4.8873 10.03 4.80523 9.96027C4.69854 9.86999 2.80684 8.09731 2.80684 8.08911C2.80684 8.085 2.85198 7.99062 2.90943 7.87983C2.96688 7.76904 3.01202 7.65004 3.01202 7.62132C3.01202 7.58849 3.02843 7.53104 3.04895 7.49411C3.08177 7.43256 3.17205 7.42435 3.92299 7.43666C4.37847 7.44076 4.81344 7.45307 4.8791 7.46538ZM12.5567 7.76494C12.6224 7.81007 12.7332 7.86342 12.7947 7.87983L12.9096 7.90856L12.885 8.4461C12.8398 9.33655 12.8275 9.41451 12.7126 9.41451C12.5362 9.41451 12.1751 9.57865 11.9863 9.74689L11.7976 9.90692L11.1369 9.47606C10.4927 9.05751 10.4721 9.037 10.505 8.93031C10.5214 8.86876 10.5378 8.70462 10.5378 8.5651L10.5419 8.30659L11.4036 7.89624L12.2654 7.4859L12.3474 7.58028C12.3926 7.63363 12.4869 7.71569 12.5567 7.76494ZM7.74332 8.13014L8.51068 8.40917V8.63486C8.51068 8.91389 8.6543 9.24627 8.83075 9.37348C8.90051 9.42272 8.96616 9.46375 8.97847 9.45965C8.99489 9.45555 9.04413 9.48837 9.08927 9.53351L9.17544 9.61558L8.98258 10.6332C8.87589 11.1913 8.78561 11.655 8.78561 11.655C8.7815 11.6591 8.69944 11.6714 8.60095 11.6755L8.4245 11.6919L8.14547 11.1585C7.99364 10.863 7.5915 10.0793 7.25091 9.40631L6.63128 8.19169L6.77901 8.02345C6.86518 7.93318 6.93904 7.85521 6.95135 7.85521C6.96366 7.85521 7.31656 7.97831 7.74332 8.13014ZM6.7749 9.16831C7.0006 9.60737 7.40274 10.3911 7.66946 10.9082L8.14957 11.8437L8.04698 11.9463L7.9444 12.0489L7.22218 11.6468L6.49997 11.2405L6.52459 10.9902C6.56973 10.5388 6.36045 10.1285 5.99114 9.94796C5.8229 9.86589 5.81059 9.85358 5.827 9.73047C5.83931 9.65661 5.88855 9.32013 5.93779 8.98365L6.02807 8.36814L6.17169 8.34352C6.24966 8.33121 6.32763 8.33121 6.33994 8.34352C6.35635 8.35583 6.54921 8.72924 6.7749 9.16831ZM11.1164 9.83716C11.3872 10.0136 11.6129 10.1654 11.617 10.1695C11.6252 10.1777 11.6006 10.268 11.5637 10.3747C11.5144 10.5142 11.5021 10.6661 11.5144 10.9123L11.5308 11.2569L10.587 11.6837L9.63913 12.1105L9.43806 11.934C9.33137 11.8355 9.21647 11.7535 9.18775 11.7535C9.15492 11.7535 9.12209 11.737 9.10978 11.7206C9.09747 11.7001 9.15902 11.3267 9.2452 10.8876C9.33547 10.4486 9.41754 10.0095 9.43396 9.90692C9.47089 9.67303 9.51603 9.61968 9.67196 9.61968C9.81968 9.61968 10.111 9.48837 10.2136 9.37348C10.2957 9.2832 10.2341 9.25448 11.1164 9.83716Z" fill="url(#paint1_linear_457_391170)"/>
<ellipse cx="13.1584" cy="6.89428" rx="1.28046" ry="1.28045" fill="#4286FF"/>
<ellipse cx="12.8614" cy="10.873" rx="1.42004" ry="1.42002" fill="#4286FF"/>
<defs>
<linearGradient id="paint0_linear_457_391170" x1="11.9893" y1="18.4806" x2="19.5969" y2="4.79751" gradientUnits="userSpaceOnUse">
<stop stop-color="#743BFF"/>
<stop offset="1" stop-color="#349BFF"/>
</linearGradient>
<linearGradient id="paint1_linear_457_391170" x1="3.78302" y1="17.2448" x2="8.77716" y2="3.32912" gradientUnits="userSpaceOnUse">
<stop stop-color="#743BFF"/>
<stop offset="1" stop-color="#349BFF"/>
</linearGradient>
</defs>
</svg>
