<svg width="101" height="24" viewBox="0 0 101 24" fill="none" xmlns="http://www.w3.org/2000/svg">
<path d="M10.5457 2.02424C10.4636 2.04476 10.4431 2.06528 10.4842 2.07759C10.517 2.094 10.755 2.17196 11.0135 2.25814C11.5798 2.44689 12.4292 2.86954 12.975 3.23475C14.6615 4.35909 15.7448 5.8158 16.0526 7.35869C16.2413 8.31889 16.0074 10.1695 15.5602 11.2734C14.9857 12.6849 14.1773 13.5631 12.2692 14.831C11.0751 15.6271 10.4267 16.1769 9.99174 16.7596C9.42546 17.5229 9.13 18.4708 9.13 19.5048C9.13411 20.0875 9.19566 20.5061 9.3557 20.9821C9.4747 21.3391 9.78656 21.9792 9.85632 21.9997C9.88094 22.0079 9.99174 21.8438 10.1025 21.6345C10.3569 21.1421 10.915 20.5676 11.3951 20.2968C12.2692 19.8044 13.4099 19.6074 14.9816 19.6813C16.0362 19.7305 16.5245 19.6279 16.8199 19.3038C16.8938 19.2176 16.9841 19.0781 17.0128 18.9919C17.0949 18.758 17.0784 18.2697 16.9718 17.8922C16.9225 17.7157 16.8897 17.568 16.8938 17.5639C16.902 17.5598 17.0128 17.49 17.1441 17.4121C17.7268 17.0674 17.7719 16.6365 17.2713 16.1318L17.0456 15.902L17.2221 15.8569C17.6693 15.742 17.9402 15.5778 17.9853 15.3809C18.0428 15.1224 17.9443 14.8228 17.6899 14.4904C17.6037 14.3796 17.5421 14.2853 17.5503 14.2812C17.5585 14.2771 17.8171 14.2237 18.1248 14.1622C18.7362 14.0432 19.1589 13.8831 19.3271 13.6985C19.5118 13.5015 19.4749 13.3415 19.0809 12.5536C18.5393 11.4621 18.4326 10.9697 18.3628 9.20934C18.3382 8.63486 18.3013 8.00703 18.2767 7.81417C18.0674 6.06611 17.3903 4.84329 15.9213 3.57533C15.0759 2.84082 13.9475 2.31969 12.6959 2.08579C12.3143 2.01193 10.755 1.9709 10.5457 2.02424Z" fill="url(#paint0_linear_3048_2914)"/>
<path d="M9.17127 2.82441C8.90455 2.87776 8.62961 3.03369 8.44496 3.22655C8.30133 3.37837 8.10437 3.74358 8.10437 3.85848C8.10026 4.04723 8.07564 4.05134 7.25905 4.02261C6.83229 4.0103 6.33987 3.99799 6.16342 3.99799C5.8967 3.99799 5.83925 3.98568 5.82283 3.92413C5.70383 3.56303 5.5438 3.37017 5.25245 3.23475C4.84621 3.046 4.42355 3.11986 4.10348 3.44403C3.79572 3.74768 3.70544 4.18675 3.87368 4.55195L3.94755 4.72019L3.31151 5.29057C2.96271 5.60653 2.5975 5.93481 2.49902 6.02098L2.32257 6.17281L2.13791 6.05791C2.03532 5.99226 1.86708 5.91429 1.7645 5.88557C1.51418 5.81581 1.03408 5.84864 0.791971 5.95533C0.525245 6.07843 0.246209 6.34515 0.114897 6.62008C0.0164139 6.81704 0 6.89911 0 7.21918C0 7.53104 0.0164139 7.62542 0.10669 7.81418C0.254416 8.13014 0.422658 8.31069 0.726315 8.47483C0.968421 8.60614 1.00946 8.61434 1.37466 8.61434C1.7727 8.61434 1.8876 8.58152 2.19536 8.38045C2.31026 8.30659 2.14612 8.16707 4.0091 9.93154L4.3702 10.2721L4.28813 10.4486C4.19786 10.6496 4.18144 10.9492 4.25531 11.1954C4.32096 11.4211 4.66155 11.7617 4.88724 11.8273C5.26066 11.9381 5.67921 11.8478 5.93773 11.6016C6.04442 11.4991 6.05263 11.4991 6.15522 11.5647C6.21266 11.6016 6.2578 11.6181 6.2578 11.6016C6.2578 11.5811 6.27422 11.5893 6.29063 11.6139C6.34398 11.6878 6.71739 11.8766 6.76253 11.8478C6.78305 11.8355 6.79125 11.8396 6.77894 11.8643C6.76253 11.8889 6.91846 11.9956 7.11543 12.1064L7.48064 12.3074L7.46012 12.5947C7.4314 12.9599 7.54219 13.243 7.79661 13.4687L7.96895 13.6205L7.73505 14.2771L7.50116 14.9336L7.21802 14.9582C6.44656 15.0157 6.03622 15.7912 6.40553 16.4765C6.50401 16.653 6.75843 16.8786 6.92667 16.9361C6.9677 16.9484 6.95129 17.0551 6.77484 17.9866L6.7256 18.2533L6.52043 18.2984C6.2496 18.36 6.08956 18.4503 5.94184 18.6185C5.75308 18.8319 5.67101 19.0904 5.69152 19.3776C5.72025 19.6895 5.81463 19.8823 6.03622 20.0793C6.59429 20.5676 7.46833 20.3132 7.67761 19.5951C7.82533 19.0904 7.62016 18.639 7.09902 18.3395C7.02926 18.2984 7.02926 18.2779 7.09081 17.9702C7.12774 17.7896 7.17698 17.5024 7.20571 17.3259L7.25905 17.0141L7.49295 16.9689C8.08385 16.8499 8.44085 16.2467 8.26851 15.6558C8.21516 15.4671 8.03461 15.2126 7.89509 15.1306L7.7843 15.0649L8.01409 14.392L8.24799 13.7231H8.41623C9.06048 13.7231 9.557 13.1979 9.48724 12.5865L9.46672 12.4059L9.76217 12.2746C9.92221 12.1966 10.3531 12.0038 10.7183 11.8396L11.3871 11.536L11.5677 11.7412C11.6703 11.8519 11.8549 11.9956 11.9904 12.0612C12.1996 12.172 12.2694 12.1843 12.5977 12.1843C12.9342 12.1843 12.9957 12.172 13.2419 12.0489C13.521 11.9135 13.7918 11.6591 13.7425 11.5811C13.7261 11.5565 13.7302 11.5483 13.7549 11.5606C13.7795 11.577 13.841 11.4949 13.8944 11.3718C14.0339 11.0641 14.0339 10.5101 13.8903 10.2147C13.7384 9.89872 13.4225 9.60737 13.1147 9.49658L12.8562 9.4022L12.8808 8.82362C12.9136 8.13014 12.9383 7.93728 12.9957 7.93728C13.0983 7.93728 13.4676 7.728 13.5907 7.6008C13.7754 7.41204 13.8574 7.18635 13.8574 6.8827C13.8533 6.32463 13.4102 5.88557 12.8439 5.88557C12.6592 5.88557 12.4212 5.95122 12.3515 6.02098C12.3227 6.0497 12.2284 6.09074 12.3679 6.02919C12.4089 6.00457 12.4171 6.01277 12.3966 6.0456C12.3761 6.07432 12.3392 6.08663 12.3063 6.07432C12.2776 6.06201 12.2407 6.07022 12.2284 6.09074C12.1832 6.1687 12.1012 6.13177 11.9001 5.94712C11.7852 5.84453 11.6826 5.76246 11.6703 5.76246C11.658 5.76246 11.6005 5.72143 11.5431 5.66809C11.4897 5.61884 11.2764 5.4424 11.0671 5.27416C10.8578 5.10592 10.6896 4.95819 10.6896 4.94588C10.6896 4.93357 10.7265 4.81868 10.7757 4.69557C10.8742 4.43706 10.8906 4.0062 10.8086 3.7641C10.587 3.07882 9.87707 2.67258 9.17127 2.82441ZM8.1372 4.6012C8.19054 4.75712 8.23568 4.90895 8.23978 4.94588C8.24389 4.98281 7.91971 5.28647 7.42729 5.69681C6.97591 6.07843 6.56967 6.42312 6.52043 6.46825C6.43425 6.54212 6.43015 6.54212 6.23318 6.43953C6.12239 6.38618 5.93363 6.32463 5.81052 6.30822L5.58483 6.27539L5.51097 6.02919C5.46994 5.89377 5.39607 5.62705 5.35093 5.43829C5.26887 5.12643 5.26887 5.09361 5.32631 5.06078C5.5438 4.93768 5.74076 4.67506 5.82283 4.39602C5.84335 4.33037 5.93363 4.32627 6.94308 4.32627H8.04282L8.1372 4.6012ZM4.33327 5.06488C4.42355 5.11412 4.6 5.16336 4.72721 5.17978L4.9611 5.2085L5.11293 5.72143C5.19911 6.00457 5.26887 6.27129 5.26887 6.32053C5.27297 6.36977 5.21142 6.44774 5.10883 6.5257C5.01855 6.59136 4.94469 6.65701 4.94469 6.67342C4.94469 6.68984 4.91186 6.74318 4.87493 6.78832C4.8339 6.83346 4.78055 6.93194 4.75593 7.0058L4.71079 7.13711L4.16093 7.13301C3.85727 7.1289 3.4223 7.1248 3.19661 7.1248L2.78216 7.11659L2.75754 6.96066C2.74112 6.87449 2.68778 6.71856 2.63443 6.61187L2.53595 6.41901L3.33202 5.70091C3.7711 5.30698 4.1363 4.98281 4.14862 4.98281C4.16093 4.98281 4.243 5.01974 4.33327 5.06488ZM11.3461 5.90608C11.6498 6.14819 11.9083 6.35746 11.9165 6.36567C11.9288 6.37387 11.9124 6.44774 11.8796 6.53391C11.8508 6.61598 11.8262 6.80063 11.8262 6.94015C11.8262 7.08377 11.8098 7.21097 11.7811 7.23149C11.7565 7.2479 11.3707 7.43666 10.9235 7.64594L10.1069 8.02345L9.93452 7.86342C9.83603 7.77314 9.68831 7.67876 9.60214 7.65004L9.44621 7.6008L9.47493 7.05915C9.48724 6.7637 9.51186 6.31643 9.52827 6.06201L9.55289 5.60243L9.71293 5.57781C9.89348 5.54498 10.3285 5.33981 10.4023 5.24954C10.4475 5.19619 10.4762 5.2044 10.6239 5.3234C10.7142 5.39726 11.0425 5.65988 11.3461 5.90608ZM8.68706 5.35212C8.78144 5.42188 8.93737 5.49984 9.03586 5.52447C9.13434 5.54909 9.22051 5.57781 9.22872 5.59422C9.23693 5.60653 9.22051 6.05381 9.18769 6.58315C9.15896 7.11249 9.13434 7.55976 9.13024 7.57618C9.13024 7.59669 9.09331 7.609 9.04817 7.609C8.90044 7.609 8.59678 7.78135 8.45727 7.94549L8.31775 8.10962L7.54219 7.82649L6.77074 7.54745L6.74612 7.28073C6.73381 7.13301 6.70098 6.97297 6.67636 6.92373C6.64763 6.87449 6.62712 6.82525 6.62712 6.81294C6.62712 6.80063 6.86101 6.59546 7.15236 6.35336C7.4396 6.11125 7.71043 5.87736 7.75557 5.83633C7.91971 5.6886 8.47778 5.22902 8.4983 5.22902C8.50651 5.22902 8.59268 5.28647 8.68706 5.35212ZM4.59589 7.46538C4.70258 7.4818 4.73131 7.51052 4.76824 7.66235C4.82979 7.88393 5.05548 8.14655 5.27297 8.24504C5.41659 8.31069 5.43711 8.33531 5.42069 8.42559C5.40838 8.48304 5.35914 8.81952 5.3099 9.17651L5.21962 9.81665L5.04728 9.84127C4.957 9.85768 4.81748 9.90692 4.74362 9.95206C4.61231 10.03 4.6041 10.03 4.52203 9.96027C4.41534 9.86999 2.52364 8.09731 2.52364 8.08911C2.52364 8.085 2.56878 7.99062 2.62623 7.87983C2.68367 7.76904 2.72881 7.65004 2.72881 7.62132C2.72881 7.58849 2.74523 7.53104 2.76574 7.49411C2.79857 7.43256 2.88885 7.42435 3.63978 7.43666C4.09527 7.44076 4.53024 7.45307 4.59589 7.46538ZM12.2735 7.76494C12.3392 7.81007 12.45 7.86342 12.5115 7.87983L12.6264 7.90856L12.6018 8.4461C12.5566 9.33655 12.5443 9.41451 12.4294 9.41451C12.253 9.41451 11.8919 9.57865 11.7031 9.74689L11.5144 9.90692L10.8537 9.47606C10.2095 9.05751 10.1889 9.037 10.2218 8.93031C10.2382 8.86876 10.2546 8.70462 10.2546 8.5651L10.2587 8.30659L11.1204 7.89624L11.9822 7.4859L12.0642 7.58028C12.1094 7.63363 12.2037 7.71569 12.2735 7.76494ZM7.46012 8.13014L8.22747 8.40917V8.63486C8.22747 8.91389 8.37109 9.24627 8.54754 9.37348C8.6173 9.42272 8.68296 9.46375 8.69527 9.45965C8.71168 9.45555 8.76092 9.48837 8.80606 9.53351L8.89223 9.61558L8.69937 10.6332C8.59268 11.1913 8.50241 11.655 8.50241 11.655C8.4983 11.6591 8.41623 11.6714 8.31775 11.6755L8.1413 11.6919L7.86226 11.1585C7.71043 10.863 7.30829 10.0793 6.9677 9.40631L6.34808 8.19169L6.4958 8.02345C6.58198 7.93318 6.65584 7.85521 6.66815 7.85521C6.68046 7.85521 7.03336 7.97831 7.46012 8.13014ZM6.4917 9.16831C6.71739 9.60737 7.11953 10.3911 7.38626 10.9082L7.86637 11.8437L7.76378 11.9463L7.66119 12.0489L6.93898 11.6468L6.21677 11.2405L6.24139 10.9902C6.28653 10.5388 6.07725 10.1285 5.70794 9.94796C5.53969 9.86589 5.52738 9.85358 5.5438 9.73047C5.55611 9.65661 5.60535 9.32013 5.65459 8.98365L5.74487 8.36814L5.88849 8.34352C5.96646 8.33121 6.04442 8.33121 6.05673 8.34352C6.07315 8.35583 6.26601 8.72924 6.4917 9.16831ZM10.8332 9.83716C11.104 10.0136 11.3297 10.1654 11.3338 10.1695C11.342 10.1777 11.3174 10.268 11.2805 10.3747C11.2312 10.5142 11.2189 10.6661 11.2312 10.9123L11.2476 11.2569L10.3038 11.6837L9.35593 12.1105L9.15486 11.934C9.04817 11.8355 8.93327 11.7535 8.90455 11.7535C8.87172 11.7535 8.83889 11.737 8.82658 11.7206C8.81427 11.7001 8.87582 11.3267 8.96199 10.8876C9.05227 10.4486 9.13434 10.0095 9.15075 9.90692C9.18769 9.67303 9.23282 9.61968 9.38876 9.61968C9.53648 9.61968 9.82783 9.48837 9.93042 9.37348C10.0125 9.2832 9.95093 9.25448 10.8332 9.83716Z" fill="url(#paint1_linear_3048_2914)"/>
<ellipse cx="12.8751" cy="6.89434" rx="1.28046" ry="1.28045" fill="#4286FF"/>
<ellipse cx="12.5785" cy="10.873" rx="1.42004" ry="1.42002" fill="#4286FF"/>
<path d="M23.4342 18.7912V5H25.9429V11.3367H26.1119L31.5147 5H34.5779L29.2224 11.1886L34.6252 18.7912H31.6094L27.4778 12.8788L25.9429 14.6835V18.7912H23.4342Z" fill="white"/>
<path d="M39.2014 19C38.5432 19 37.9504 18.8833 37.423 18.6498C36.9001 18.4119 36.4853 18.0617 36.1788 17.5993C35.8768 17.1369 35.7257 16.5668 35.7257 15.8889C35.7257 15.3053 35.8339 14.8227 36.0503 14.4411C36.2667 14.0595 36.562 13.7542 36.9361 13.5253C37.3103 13.2963 37.7318 13.1235 38.2006 13.0067C38.6739 12.8855 39.1631 12.798 39.668 12.7441C40.2765 12.6813 40.7702 12.6251 41.1488 12.5758C41.5275 12.5219 41.8025 12.4411 41.9738 12.3333C42.1496 12.2211 42.2375 12.0483 42.2375 11.8148V11.7744C42.2375 11.2671 42.0865 10.8743 41.7844 10.596C41.4824 10.3176 41.0474 10.1785 40.4794 10.1785C39.8798 10.1785 39.4042 10.3086 39.0526 10.569C38.7055 10.8294 38.4711 11.1369 38.3494 11.4916L36.0638 11.1683C36.2442 10.5398 36.5417 10.0146 36.9564 9.59259C37.3711 9.16611 37.8783 8.84736 38.4778 8.63636C39.0774 8.42088 39.7401 8.31313 40.4659 8.31313C40.9662 8.31313 41.4644 8.37149 41.9603 8.48822C42.4561 8.60494 42.9092 8.79798 43.3194 9.06734C43.7296 9.33221 44.0587 9.6936 44.3067 10.1515C44.5591 10.6094 44.6853 11.1818 44.6853 11.8687V18.7912H42.3322V17.3704H42.251C42.1023 17.6577 41.8926 17.927 41.6222 18.1785C41.3562 18.4254 41.0203 18.6251 40.6146 18.7778C40.2134 18.9259 39.7423 19 39.2014 19ZM39.837 17.2088C40.3284 17.2088 40.7544 17.1122 41.115 16.9192C41.4756 16.7217 41.7529 16.4613 41.9467 16.138C42.1451 15.8148 42.2443 15.4624 42.2443 15.0808V13.862C42.1676 13.9248 42.0369 13.9832 41.8521 14.037C41.6717 14.0909 41.4689 14.138 41.2435 14.1785C41.0181 14.2189 40.7949 14.2548 40.5741 14.2862C40.3532 14.3176 40.1616 14.3446 39.9993 14.367C39.6341 14.4164 39.3073 14.4972 39.0188 14.6094C38.7303 14.7217 38.5026 14.8788 38.3358 15.0808C38.1691 15.2783 38.0857 15.5342 38.0857 15.8485C38.0857 16.2974 38.2502 16.6364 38.5793 16.8653C38.9084 17.0943 39.3276 17.2088 39.837 17.2088Z" fill="white"/>
<path d="M49.5945 12.7306V18.7912H47.1467V8.44781H49.4863V10.2054H49.608C49.8469 9.62626 50.2279 9.16611 50.7508 8.82492C51.2782 8.48373 51.9296 8.31313 52.705 8.31313C53.4218 8.31313 54.0461 8.46577 54.5781 8.77104C55.1145 9.07632 55.5292 9.51852 55.8222 10.0976C56.1198 10.6768 56.2663 11.3793 56.2618 12.2054V18.7912H53.8139V12.5825C53.8139 11.8911 53.6336 11.3502 53.273 10.9596C52.9169 10.569 52.4232 10.3737 51.7921 10.3737C51.3639 10.3737 50.983 10.468 50.6494 10.6566C50.3203 10.8406 50.0611 11.1077 49.8717 11.4579C49.6869 11.8081 49.5945 12.2323 49.5945 12.7306Z" fill="white"/>
<path d="M61.739 19C61.0808 19 60.488 18.8833 59.9606 18.6498C59.4376 18.4119 59.0229 18.0617 58.7164 17.5993C58.4143 17.1369 58.2633 16.5668 58.2633 15.8889C58.2633 15.3053 58.3715 14.8227 58.5879 14.4411C58.8043 14.0595 59.0995 13.7542 59.4737 13.5253C59.8479 13.2963 60.2694 13.1235 60.7382 13.0067C61.2115 12.8855 61.7006 12.798 62.2055 12.7441C62.8141 12.6813 63.3077 12.6251 63.6864 12.5758C64.0651 12.5219 64.34 12.4411 64.5114 12.3333C64.6872 12.2211 64.7751 12.0483 64.7751 11.8148V11.7744C64.7751 11.2671 64.6241 10.8743 64.322 10.596C64.02 10.3176 63.585 10.1785 63.017 10.1785C62.4174 10.1785 61.9418 10.3086 61.5902 10.569C61.2431 10.8294 61.0087 11.1369 60.887 11.4916L58.6014 11.1683C58.7817 10.5398 59.0793 10.0146 59.494 9.59259C59.9087 9.16611 60.4159 8.84736 61.0154 8.63636C61.615 8.42088 62.2777 8.31313 63.0034 8.31313C63.5038 8.31313 64.002 8.37149 64.4978 8.48822C64.9937 8.60494 65.4468 8.79798 65.857 9.06734C66.2672 9.33221 66.5963 9.6936 66.8442 10.1515C67.0967 10.6094 67.2229 11.1818 67.2229 11.8687V18.7912H64.8697V17.3704H64.7886C64.6398 17.6577 64.4302 17.927 64.1597 18.1785C63.8938 18.4254 63.5579 18.6251 63.1522 18.7778C62.751 18.9259 62.2799 19 61.739 19ZM62.3746 17.2088C62.8659 17.2088 63.292 17.1122 63.6526 16.9192C64.0132 16.7217 64.2905 16.4613 64.4843 16.138C64.6827 15.8148 64.7818 15.4624 64.7818 15.0808V13.862C64.7052 13.9248 64.5745 13.9832 64.3896 14.037C64.2093 14.0909 64.0065 14.138 63.7811 14.1785C63.5557 14.2189 63.3325 14.2548 63.1116 14.2862C62.8907 14.3176 62.6992 14.3446 62.5369 14.367C62.1717 14.4164 61.8449 14.4972 61.5564 14.6094C61.2679 14.7217 61.0402 14.8788 60.8734 15.0808C60.7066 15.2783 60.6232 15.5342 60.6232 15.8485C60.6232 16.2974 60.7878 16.6364 61.1169 16.8653C61.4459 17.0943 61.8652 17.2088 62.3746 17.2088Z" fill="white"/>
<path d="M71.9157 15.5455L71.9089 12.6027H72.3011L76.0337 8.44781H78.894L74.3027 13.5387H73.7955L71.9157 15.5455ZM69.6842 18.7912V5H72.1321V18.7912H69.6842ZM76.2028 18.7912L72.8218 14.0842L74.4717 12.367L79.1307 18.7912H76.2028Z" fill="white"/>
<path d="M82.7568 15.5455L82.75 12.6027H83.1422L86.8748 8.44781H89.7351L85.1438 13.5387H84.6366L82.7568 15.5455ZM80.5253 18.7912V5H82.9732V18.7912H80.5253ZM87.0439 18.7912L83.6629 14.0842L85.3128 12.367L89.9718 18.7912H87.0439Z" fill="white"/>
<path d="M97.9864 14.4411V8.44781H100.434V18.7912H98.0608V16.9529H97.9526C97.7182 17.532 97.3327 18.0056 96.7963 18.3737C96.2643 18.7419 95.6084 18.9259 94.8286 18.9259C94.1479 18.9259 93.546 18.7755 93.0231 18.4747C92.5047 18.1695 92.099 17.7273 91.806 17.1481C91.5129 16.5645 91.3664 15.8597 91.3664 15.0337V8.44781H93.8143V14.6566C93.8143 15.312 93.9946 15.8328 94.3552 16.2189C94.7159 16.6049 95.1892 16.798 95.7752 16.798C96.1359 16.798 96.4852 16.7104 96.8233 16.5354C97.1614 16.3603 97.4387 16.0999 97.655 15.7542C97.8759 15.404 97.9864 14.9663 97.9864 14.4411Z" fill="white"/>
<defs>
<linearGradient id="paint0_linear_3048_2914" x1="11.7062" y1="18.4806" x2="19.3138" y2="4.79751" gradientUnits="userSpaceOnUse">
<stop stop-color="#743BFF"/>
<stop offset="1" stop-color="#349BFF"/>
</linearGradient>
<linearGradient id="paint1_linear_3048_2914" x1="3.49982" y1="17.2448" x2="8.49396" y2="3.32912" gradientUnits="userSpaceOnUse">
<stop stop-color="#743BFF"/>
<stop offset="1" stop-color="#349BFF"/>
</linearGradient>
</defs>
</svg>
