<svg width="101" height="24" viewBox="0 0 101 24" fill="none" xmlns="http://www.w3.org/2000/svg">
<path d="M10.5456 2.02424C10.4635 2.04476 10.443 2.06528 10.484 2.07759C10.5169 2.094 10.7549 2.17196 11.0134 2.25814C11.5797 2.44689 12.4291 2.86954 12.9748 3.23475C14.6614 4.35909 15.7447 5.8158 16.0524 7.35869C16.2412 8.31889 16.0073 10.1695 15.56 11.2734C14.9855 12.6849 14.1772 13.5631 12.269 14.831C11.0749 15.6271 10.4266 16.1769 9.99161 16.7596C9.42533 17.5229 9.12988 18.4708 9.12988 19.5048C9.13399 20.0875 9.19554 20.5061 9.35557 20.9821C9.47457 21.3391 9.78644 21.9792 9.8562 21.9997C9.88082 22.0079 9.99161 21.8438 10.1024 21.6345C10.3568 21.1421 10.9149 20.5676 11.395 20.2968C12.269 19.8044 13.4098 19.6074 14.9814 19.6813C16.036 19.7305 16.5243 19.6279 16.8198 19.3038C16.8937 19.2176 16.9839 19.0781 17.0127 18.9919C17.0947 18.758 17.0783 18.2697 16.9716 17.8922C16.9224 17.7157 16.8896 17.568 16.8937 17.5639C16.9019 17.5598 17.0127 17.49 17.144 17.4121C17.7267 17.0674 17.7718 16.6365 17.2712 16.1318L17.0455 15.902L17.2219 15.8569C17.6692 15.742 17.94 15.5778 17.9852 15.3809C18.0426 15.1224 17.9442 14.8228 17.6897 14.4904C17.6036 14.3796 17.542 14.2853 17.5502 14.2812C17.5584 14.2771 17.8169 14.2237 18.1247 14.1622C18.7361 14.0432 19.1588 13.8831 19.327 13.6985C19.5117 13.5015 19.4748 13.3415 19.0808 12.5536C18.5392 11.4621 18.4325 10.9697 18.3627 9.20934C18.3381 8.63486 18.3012 8.00703 18.2765 7.81417C18.0673 6.06611 17.3902 4.84329 15.9211 3.57533C15.0758 2.84082 13.9474 2.31969 12.6958 2.08579C12.3142 2.01193 10.7549 1.9709 10.5456 2.02424Z" fill="url(#paint0_linear_707_352270)"/>
<path d="M9.17127 2.82148C8.90455 2.87483 8.62961 3.03076 8.44496 3.22362C8.30133 3.37544 8.10437 3.74065 8.10437 3.85555C8.10026 4.0443 8.07564 4.04841 7.25905 4.01968C6.83229 4.00737 6.33987 3.99506 6.16342 3.99506C5.8967 3.99506 5.83925 3.98275 5.82283 3.9212C5.70383 3.5601 5.5438 3.36724 5.25245 3.23182C4.84621 3.04307 4.42355 3.11693 4.10348 3.4411C3.79572 3.74475 3.70544 4.18382 3.87368 4.54902L3.94755 4.71727L3.31151 5.28764C2.96271 5.60361 2.5975 5.93188 2.49902 6.01805L2.32257 6.16988L2.13791 6.05498C2.03532 5.98933 1.86708 5.91136 1.7645 5.88264C1.51418 5.81288 1.03408 5.84571 0.791971 5.9524C0.525245 6.0755 0.246209 6.34222 0.114897 6.61715C0.0164139 6.81411 0 6.89618 0 7.21625C0 7.52811 0.0164139 7.62249 0.10669 7.81125C0.254416 8.12721 0.422658 8.30776 0.726315 8.4719C0.968421 8.60321 1.00946 8.61141 1.37466 8.61141C1.7727 8.61141 1.8876 8.57859 2.19536 8.37752C2.31026 8.30366 2.14612 8.16414 4.0091 9.92861L4.3702 10.2692L4.28813 10.4456C4.19786 10.6467 4.18144 10.9463 4.25531 11.1925C4.32096 11.4182 4.66155 11.7587 4.88724 11.8244C5.26066 11.9352 5.67921 11.8449 5.93773 11.5987C6.04442 11.4961 6.05263 11.4961 6.15522 11.5618C6.21266 11.5987 6.2578 11.6151 6.2578 11.5987C6.2578 11.5782 6.27422 11.5864 6.29063 11.611C6.34398 11.6849 6.71739 11.8736 6.76253 11.8449C6.78305 11.8326 6.79125 11.8367 6.77894 11.8613C6.76253 11.8859 6.91846 11.9926 7.11543 12.1034L7.48064 12.3045L7.46012 12.5917C7.4314 12.9569 7.54219 13.2401 7.79661 13.4658L7.96895 13.6176L7.73505 14.2741L7.50116 14.9307L7.21802 14.9553C6.44656 15.0128 6.03622 15.7883 6.40553 16.4736C6.50401 16.65 6.75843 16.8757 6.92667 16.9332C6.9677 16.9455 6.95129 17.0522 6.77484 17.9836L6.7256 18.2504L6.52043 18.2955C6.2496 18.357 6.08956 18.4473 5.94184 18.6156C5.75308 18.8289 5.67101 19.0875 5.69152 19.3747C5.72025 19.6866 5.81463 19.8794 6.03622 20.0764C6.59429 20.5647 7.46833 20.3103 7.67761 19.5922C7.82533 19.0875 7.62016 18.6361 7.09902 18.3365C7.02926 18.2955 7.02926 18.275 7.09081 17.9672C7.12774 17.7867 7.17698 17.4994 7.20571 17.323L7.25905 17.0111L7.49295 16.966C8.08385 16.847 8.44085 16.2438 8.26851 15.6529C8.21516 15.4641 8.03461 15.2097 7.89509 15.1277L7.7843 15.062L8.01409 14.389L8.24799 13.7202H8.41623C9.06048 13.7202 9.557 13.1949 9.48724 12.5835L9.46672 12.403L9.76217 12.2717C9.92221 12.1937 10.3531 12.0008 10.7183 11.8367L11.3871 11.5331L11.5677 11.7382C11.6703 11.849 11.8549 11.9926 11.9904 12.0583C12.1996 12.1691 12.2694 12.1814 12.5977 12.1814C12.9342 12.1814 12.9957 12.1691 13.2419 12.046C13.521 11.9106 13.7918 11.6562 13.7425 11.5782C13.7261 11.5536 13.7302 11.5454 13.7549 11.5577C13.7795 11.5741 13.841 11.492 13.8944 11.3689C14.0339 11.0612 14.0339 10.5072 13.8903 10.2117C13.7384 9.89579 13.4225 9.60444 13.1147 9.49365L12.8562 9.39927L12.8808 8.82069C12.9136 8.12721 12.9383 7.93435 12.9957 7.93435C13.0983 7.93435 13.4676 7.72507 13.5907 7.59787C13.7754 7.40911 13.8574 7.18342 13.8574 6.87977C13.8533 6.3217 13.4102 5.88264 12.8439 5.88264C12.6592 5.88264 12.4212 5.94829 12.3515 6.01805C12.3227 6.04677 12.2284 6.08781 12.3679 6.02626C12.4089 6.00164 12.4171 6.00984 12.3966 6.04267C12.3761 6.07139 12.3392 6.0837 12.3063 6.07139C12.2776 6.05908 12.2407 6.06729 12.2284 6.08781C12.1832 6.16577 12.1012 6.12884 11.9001 5.94419C11.7852 5.8416 11.6826 5.75953 11.6703 5.75953C11.658 5.75953 11.6005 5.7185 11.5431 5.66516C11.4897 5.61592 11.2764 5.43947 11.0671 5.27123C10.8578 5.10299 10.6896 4.95526 10.6896 4.94295C10.6896 4.93064 10.7265 4.81575 10.7757 4.69264C10.8742 4.43413 10.8906 4.00327 10.8086 3.76117C10.587 3.0759 9.87707 2.66965 9.17127 2.82148ZM8.1372 4.59827C8.19054 4.7542 8.23568 4.90602 8.23978 4.94295C8.24389 4.97988 7.91971 5.28354 7.42729 5.69388C6.97591 6.0755 6.56967 6.42019 6.52043 6.46532C6.43425 6.53919 6.43015 6.53919 6.23318 6.4366C6.12239 6.38326 5.93363 6.3217 5.81052 6.30529L5.58483 6.27246L5.51097 6.02626C5.46994 5.89084 5.39607 5.62412 5.35093 5.43536C5.26887 5.1235 5.26887 5.09068 5.32631 5.05785C5.5438 4.93475 5.74076 4.67213 5.82283 4.3931C5.84335 4.32744 5.93363 4.32334 6.94308 4.32334H8.04282L8.1372 4.59827ZM4.33327 5.06195C4.42355 5.11119 4.6 5.16043 4.72721 5.17685L4.9611 5.20557L5.11293 5.7185C5.19911 6.00164 5.26887 6.26836 5.26887 6.3176C5.27297 6.36684 5.21142 6.44481 5.10883 6.52277C5.01855 6.58843 4.94469 6.65408 4.94469 6.6705C4.94469 6.68691 4.91186 6.74025 4.87493 6.78539C4.8339 6.83053 4.78055 6.92901 4.75593 7.00287L4.71079 7.13418L4.16093 7.13008C3.85727 7.12597 3.4223 7.12187 3.19661 7.12187L2.78216 7.11366L2.75754 6.95773C2.74112 6.87156 2.68778 6.71563 2.63443 6.60894L2.53595 6.41608L3.33202 5.69798C3.7711 5.30406 4.1363 4.97988 4.14862 4.97988C4.16093 4.97988 4.243 5.01682 4.33327 5.06195ZM11.3461 5.90315C11.6498 6.14526 11.9083 6.35453 11.9165 6.36274C11.9288 6.37094 11.9124 6.44481 11.8796 6.53098C11.8508 6.61305 11.8262 6.7977 11.8262 6.93722C11.8262 7.08084 11.8098 7.20804 11.7811 7.22856C11.7565 7.24497 11.3707 7.43373 10.9235 7.64301L10.1069 8.02052L9.93452 7.86049C9.83603 7.77021 9.68831 7.67583 9.60214 7.64711L9.44621 7.59787L9.47493 7.05622C9.48724 6.76077 9.51186 6.3135 9.52827 6.05908L9.55289 5.5995L9.71293 5.57488C9.89348 5.54205 10.3285 5.33688 10.4023 5.24661C10.4475 5.19326 10.4762 5.20147 10.6239 5.32047C10.7142 5.39433 11.0425 5.65695 11.3461 5.90315ZM8.68706 5.34919C8.78144 5.41895 8.93737 5.49691 9.03586 5.52154C9.13434 5.54616 9.22051 5.57488 9.22872 5.59129C9.23693 5.6036 9.22051 6.05088 9.18769 6.58022C9.15896 7.10956 9.13434 7.55683 9.13024 7.57325C9.13024 7.59376 9.09331 7.60608 9.04817 7.60608C8.90044 7.60608 8.59678 7.77842 8.45727 7.94256L8.31775 8.10669L7.54219 7.82356L6.77074 7.54452L6.74612 7.2778C6.73381 7.13008 6.70098 6.97005 6.67636 6.9208C6.64763 6.87156 6.62712 6.82232 6.62712 6.81001C6.62712 6.7977 6.86101 6.59253 7.15236 6.35043C7.4396 6.10833 7.71043 5.87443 7.75557 5.8334C7.91971 5.68567 8.47778 5.22609 8.4983 5.22609C8.50651 5.22609 8.59268 5.28354 8.68706 5.34919ZM4.59589 7.46245C4.70258 7.47887 4.73131 7.50759 4.76824 7.65942C4.82979 7.88101 5.05548 8.14362 5.27297 8.24211C5.41659 8.30776 5.43711 8.33238 5.42069 8.42266C5.40838 8.48011 5.35914 8.81659 5.3099 9.17358L5.21962 9.81372L5.04728 9.83834C4.957 9.85475 4.81748 9.90399 4.74362 9.94913C4.61231 10.0271 4.6041 10.0271 4.52203 9.95734C4.41534 9.86706 2.52364 8.09438 2.52364 8.08618C2.52364 8.08207 2.56878 7.98769 2.62623 7.8769C2.68367 7.76611 2.72881 7.64711 2.72881 7.61839C2.72881 7.58556 2.74523 7.52811 2.76574 7.49118C2.79857 7.42963 2.88885 7.42142 3.63978 7.43373C4.09527 7.43783 4.53024 7.45014 4.59589 7.46245ZM12.2735 7.76201C12.3392 7.80714 12.45 7.86049 12.5115 7.8769L12.6264 7.90563L12.6018 8.44317C12.5566 9.33362 12.5443 9.41158 12.4294 9.41158C12.253 9.41158 11.8919 9.57572 11.7031 9.74396L11.5144 9.90399L10.8537 9.47313C10.2095 9.05458 10.1889 9.03407 10.2218 8.92738C10.2382 8.86583 10.2546 8.70169 10.2546 8.56217L10.2587 8.30366L11.1204 7.89331L11.9822 7.48297L12.0642 7.57735C12.1094 7.6307 12.2037 7.71276 12.2735 7.76201ZM7.46012 8.12721L8.22747 8.40624V8.63193C8.22747 8.91096 8.37109 9.24334 8.54754 9.37055C8.6173 9.41979 8.68296 9.46082 8.69527 9.45672C8.71168 9.45262 8.76092 9.48544 8.80606 9.53058L8.89223 9.61265L8.69937 10.6303C8.59268 11.1884 8.50241 11.6521 8.50241 11.6521C8.4983 11.6562 8.41623 11.6685 8.31775 11.6726L8.1413 11.689L7.86226 11.1555C7.71043 10.8601 7.30829 10.0763 6.9677 9.40338L6.34808 8.18876L6.4958 8.02052C6.58198 7.93025 6.65584 7.85228 6.66815 7.85228C6.68046 7.85228 7.03336 7.97538 7.46012 8.12721ZM6.4917 9.16538C6.71739 9.60444 7.11953 10.3882 7.38626 10.9052L7.86637 11.8408L7.76378 11.9434L7.66119 12.046L6.93898 11.6438L6.21677 11.2376L6.24139 10.9873C6.28653 10.5359 6.07725 10.1256 5.70794 9.94503C5.53969 9.86296 5.52738 9.85065 5.5438 9.72754C5.55611 9.65368 5.60535 9.3172 5.65459 8.98072L5.74487 8.36521L5.88849 8.34059C5.96646 8.32828 6.04442 8.32828 6.05673 8.34059C6.07315 8.3529 6.26601 8.72631 6.4917 9.16538ZM10.8332 9.83424C11.104 10.0107 11.3297 10.1625 11.3338 10.1666C11.342 10.1748 11.3174 10.2651 11.2805 10.3718C11.2312 10.5113 11.2189 10.6631 11.2312 10.9093L11.2476 11.254L10.3038 11.6808L9.35593 12.1075L9.15486 11.9311C9.04817 11.8326 8.93327 11.7505 8.90455 11.7505C8.87172 11.7505 8.83889 11.7341 8.82658 11.7177C8.81427 11.6972 8.87582 11.3238 8.96199 10.8847C9.05227 10.4456 9.13434 10.0066 9.15075 9.90399C9.18769 9.6701 9.23282 9.61675 9.38876 9.61675C9.53648 9.61675 9.82783 9.48544 9.93042 9.37055C10.0125 9.28027 9.95093 9.25155 10.8332 9.83424Z" fill="url(#paint1_linear_707_352270)"/>
<ellipse cx="12.8752" cy="6.89763" rx="1.28046" ry="1.28045" fill="#4286FF"/>
<ellipse cx="12.5782" cy="10.8731" rx="1.42004" ry="1.42002" fill="#4286FF"/>
<path d="M23.4346 18.7912V5H25.9433V11.3367H26.1123L31.5151 5H34.5783L29.2228 11.1886L34.6256 18.7912H31.6098L27.4782 12.8788L25.9433 14.6835V18.7912H23.4346Z" fill="#051321"/>
<path d="M39.2017 19C38.5436 19 37.9508 18.8833 37.4234 18.6498C36.9004 18.4119 36.4857 18.0617 36.1792 17.5993C35.8771 17.1369 35.7261 16.5668 35.7261 15.8889C35.7261 15.3053 35.8343 14.8227 36.0507 14.4411C36.2671 14.0595 36.5623 13.7542 36.9365 13.5253C37.3107 13.2963 37.7321 13.1235 38.201 13.0067C38.6743 12.8855 39.1634 12.798 39.6683 12.7441C40.2769 12.6813 40.7705 12.6251 41.1492 12.5758C41.5279 12.5219 41.8028 12.4411 41.9741 12.3333C42.15 12.2211 42.2379 12.0483 42.2379 11.8148V11.7744C42.2379 11.2671 42.0868 10.8743 41.7848 10.596C41.4828 10.3176 41.0478 10.1785 40.4798 10.1785C39.8802 10.1785 39.4046 10.3086 39.053 10.569C38.7059 10.8294 38.4715 11.1369 38.3497 11.4916L36.0642 11.1683C36.2445 10.5398 36.542 10.0146 36.9568 9.59259C37.3715 9.16611 37.8787 8.84736 38.4782 8.63636C39.0778 8.42088 39.7404 8.31313 40.4662 8.31313C40.9666 8.31313 41.4647 8.37149 41.9606 8.48822C42.4565 8.60494 42.9095 8.79798 43.3198 9.06734C43.73 9.33221 44.0591 9.6936 44.307 10.1515C44.5595 10.6094 44.6857 11.1818 44.6857 11.8687V18.7912H42.3325V17.3704H42.2514C42.1026 17.6577 41.893 17.927 41.6225 18.1785C41.3566 18.4254 41.0207 18.6251 40.615 18.7778C40.2138 18.9259 39.7427 19 39.2017 19ZM39.8374 17.2088C40.3287 17.2088 40.7547 17.1122 41.1154 16.9192C41.476 16.7217 41.7533 16.4613 41.9471 16.138C42.1454 15.8148 42.2446 15.4624 42.2446 15.0808V13.862C42.168 13.9248 42.0373 13.9832 41.8524 14.037C41.6721 14.0909 41.4693 14.138 41.2439 14.1785C41.0185 14.2189 40.7953 14.2548 40.5744 14.2862C40.3535 14.3176 40.1619 14.3446 39.9997 14.367C39.6345 14.4164 39.3077 14.4972 39.0192 14.6094C38.7307 14.7217 38.503 14.8788 38.3362 15.0808C38.1694 15.2783 38.086 15.5342 38.086 15.8485C38.086 16.2974 38.2506 16.6364 38.5796 16.8653C38.9087 17.0943 39.328 17.2088 39.8374 17.2088Z" fill="#051321"/>
<path d="M49.5949 12.7306V18.7912H47.147V8.44781H49.4867V10.2054H49.6084C49.8473 9.62626 50.2282 9.16611 50.7512 8.82492C51.2786 8.48373 51.93 8.31313 52.7054 8.31313C53.4221 8.31313 54.0465 8.46577 54.5784 8.77104C55.1149 9.07632 55.5296 9.51852 55.8226 10.0976C56.1201 10.6768 56.2667 11.3793 56.2621 12.2054V18.7912H53.8143V12.5825C53.8143 11.8911 53.634 11.3502 53.2734 10.9596C52.9172 10.569 52.4236 10.3737 51.7925 10.3737C51.3642 10.3737 50.9833 10.468 50.6497 10.6566C50.3206 10.8406 50.0614 11.1077 49.8721 11.4579C49.6873 11.8081 49.5949 12.2323 49.5949 12.7306Z" fill="#051321"/>
<path d="M61.7393 19C61.0812 19 60.4884 18.8833 59.9609 18.6498C59.438 18.4119 59.0233 18.0617 58.7167 17.5993C58.4147 17.1369 58.2637 16.5668 58.2637 15.8889C58.2637 15.3053 58.3719 14.8227 58.5882 14.4411C58.8046 14.0595 59.0999 13.7542 59.4741 13.5253C59.8482 13.2963 60.2697 13.1235 60.7386 13.0067C61.2119 12.8855 61.701 12.798 62.2059 12.7441C62.8145 12.6813 63.3081 12.6251 63.6868 12.5758C64.0654 12.5219 64.3404 12.4411 64.5117 12.3333C64.6875 12.2211 64.7754 12.0483 64.7754 11.8148V11.7744C64.7754 11.2671 64.6244 10.8743 64.3224 10.596C64.0204 10.3176 63.5853 10.1785 63.0173 10.1785C62.4178 10.1785 61.9422 10.3086 61.5906 10.569C61.2434 10.8294 61.009 11.1369 60.8873 11.4916L58.6018 11.1683C58.7821 10.5398 59.0796 10.0146 59.4944 9.59259C59.9091 9.16611 60.4162 8.84736 61.0158 8.63636C61.6154 8.42088 62.278 8.31313 63.0038 8.31313C63.5042 8.31313 64.0023 8.37149 64.4982 8.48822C64.9941 8.60494 65.4471 8.79798 65.8573 9.06734C66.2676 9.33221 66.5966 9.6936 66.8446 10.1515C67.097 10.6094 67.2233 11.1818 67.2233 11.8687V18.7912H64.8701V17.3704H64.789C64.6402 17.6577 64.4306 17.927 64.1601 18.1785C63.8941 18.4254 63.5583 18.6251 63.1526 18.7778C62.7514 18.9259 62.2803 19 61.7393 19ZM62.3749 17.2088C62.8663 17.2088 63.2923 17.1122 63.653 16.9192C64.0136 16.7217 64.2908 16.4613 64.4847 16.138C64.683 15.8148 64.7822 15.4624 64.7822 15.0808V13.862C64.7056 13.9248 64.5748 13.9832 64.39 14.037C64.2097 14.0909 64.0068 14.138 63.7814 14.1785C63.556 14.2189 63.3329 14.2548 63.112 14.2862C62.8911 14.3176 62.6995 14.3446 62.5372 14.367C62.1721 14.4164 61.8453 14.4972 61.5568 14.6094C61.2682 14.7217 61.0406 14.8788 60.8738 15.0808C60.707 15.2783 60.6236 15.5342 60.6236 15.8485C60.6236 16.2974 60.7881 16.6364 61.1172 16.8653C61.4463 17.0943 61.8655 17.2088 62.3749 17.2088Z" fill="#051321"/>
<path d="M71.9161 15.5455L71.9093 12.6027H72.3015L76.0341 8.44781H78.8944L74.303 13.5387H73.7959L71.9161 15.5455ZM69.6846 18.7912V5H72.1324V18.7912H69.6846ZM76.2031 18.7912L72.8222 14.0842L74.4721 12.367L79.1311 18.7912H76.2031Z" fill="#051321"/>
<path d="M82.7571 15.5455L82.7504 12.6027H83.1426L86.8752 8.44781H89.7355L85.1441 13.5387H84.637L82.7571 15.5455ZM80.5257 18.7912V5H82.9735V18.7912H80.5257ZM87.0442 18.7912L83.6632 14.0842L85.3132 12.367L89.9721 18.7912H87.0442Z" fill="#051321"/>
<path d="M97.9867 14.4411V8.44781H100.435V18.7912H98.0611V16.9529H97.9529C97.7185 17.532 97.3331 18.0056 96.7966 18.3737C96.2647 18.7419 95.6088 18.9259 94.8289 18.9259C94.1482 18.9259 93.5464 18.7755 93.0235 18.4747C92.5051 18.1695 92.0993 17.7273 91.8063 17.1481C91.5133 16.5645 91.3668 15.8597 91.3668 15.0337V8.44781H93.8146V14.6566C93.8146 15.312 93.9949 15.8328 94.3556 16.2189C94.7162 16.6049 95.1896 16.798 95.7756 16.798C96.1362 16.798 96.4856 16.7104 96.8237 16.5354C97.1618 16.3603 97.439 16.0999 97.6554 15.7542C97.8763 15.404 97.9867 14.9663 97.9867 14.4411Z" fill="#051321"/>
<defs>
<linearGradient id="paint0_linear_707_352270" x1="11.7061" y1="18.4806" x2="19.3137" y2="4.79751" gradientUnits="userSpaceOnUse">
<stop stop-color="#743BFF"/>
<stop offset="1" stop-color="#349BFF"/>
</linearGradient>
<linearGradient id="paint1_linear_707_352270" x1="3.49982" y1="17.2419" x2="8.49396" y2="3.32619" gradientUnits="userSpaceOnUse">
<stop stop-color="#743BFF"/>
<stop offset="1" stop-color="#349BFF"/>
</linearGradient>
</defs>
</svg>
