<svg width="130" height="31" viewBox="0 0 130 31" fill="none" xmlns="http://www.w3.org/2000/svg">
<path d="M16.7732 0.0361538C16.6471 0.0676842 16.6156 0.0992126 16.6786 0.118132C16.7291 0.143356 17.0948 0.26317 17.4921 0.395597C18.3624 0.685675 19.6677 1.3352 20.5064 1.89643C23.0982 3.62429 24.763 5.86293 25.2359 8.234C25.526 9.70961 25.1666 12.5536 24.4792 14.25C23.5964 16.4192 22.3541 17.7687 19.4218 19.7173C17.5867 20.9407 16.5904 21.7857 15.9219 22.6811C15.0517 23.854 14.5977 25.3107 14.5977 26.8999C14.604 27.7953 14.6986 28.4385 14.9445 29.17C15.1274 29.7187 15.6066 30.7024 15.7138 30.7339C15.7517 30.7465 15.9219 30.4943 16.0922 30.1727C16.4832 29.416 17.3408 28.5331 18.0786 28.1169C19.4218 27.3602 21.1748 27.0575 23.5901 27.171C25.2107 27.2467 25.9611 27.089 26.4152 26.5909C26.5287 26.4584 26.6674 26.244 26.7115 26.1116C26.8377 25.7522 26.8124 25.0017 26.6485 24.4216C26.5728 24.1504 26.5224 23.9234 26.5287 23.9171C26.5413 23.9108 26.7115 23.8036 26.9133 23.6838C27.8088 23.1541 27.8782 22.4919 27.1088 21.7163L26.762 21.3632L27.0332 21.2938C27.7205 21.1172 28.1367 20.865 28.2061 20.5623C28.2944 20.165 28.143 19.7047 27.752 19.1939C27.6196 19.0236 27.525 18.8786 27.5376 18.8723C27.5502 18.866 27.9475 18.784 28.4205 18.6894C29.3601 18.5065 30.0096 18.2606 30.2681 17.9768C30.5519 17.6741 30.4952 17.4282 29.8898 16.2174C29.0574 14.54 28.8934 13.7833 28.7862 11.078C28.7484 10.1952 28.6916 9.23035 28.6538 8.93397C28.3322 6.24759 27.2917 4.3684 25.0341 2.41983C23.7351 1.29105 22.0009 0.490187 20.0776 0.130743C19.4911 0.0172348 17.0948 -0.045826 16.7732 0.0361538Z" fill="#051321"/>
<path d="M14.6614 1.26813C14.2515 1.35011 13.829 1.58974 13.5452 1.88612C13.3245 2.11944 13.0218 2.68068 13.0218 2.85725C13.0155 3.14733 12.9777 3.15364 11.7228 3.10949C11.0669 3.09057 10.3102 3.07166 10.039 3.07166C9.62915 3.07166 9.54087 3.05274 9.51564 2.95815C9.33277 2.40322 9.08683 2.10683 8.6391 1.89873C8.01481 1.60866 7.36529 1.72216 6.87342 2.22034C6.40046 2.68699 6.26173 3.36173 6.52028 3.92297L6.63379 4.18152L5.65635 5.05806C5.12034 5.54362 4.5591 6.04811 4.40776 6.18053L4.1366 6.41385L3.85283 6.23729C3.69518 6.13639 3.43663 6.01657 3.27898 5.97243C2.89431 5.86523 2.1565 5.91568 1.78445 6.07963C1.37456 6.26881 0.945745 6.67871 0.743952 7.10121C0.592607 7.4039 0.567383 7.53002 0.567383 8.02189C0.567383 8.50115 0.592607 8.64619 0.73134 8.93627C0.958357 9.42183 1.2169 9.6993 1.68355 9.95154C2.05561 10.1533 2.11867 10.1659 2.6799 10.1659C3.29159 10.1659 3.46816 10.1155 3.94111 9.8065C4.11768 9.69299 3.86544 9.47859 6.72838 12.1902L7.28331 12.7136L7.15719 12.9847C7.01846 13.2937 6.99323 13.7541 7.10674 14.1324C7.20764 14.4793 7.73104 15.0027 8.07787 15.1036C8.65172 15.2738 9.29493 15.1351 9.69221 14.7567C9.85617 14.5991 9.86878 14.5991 10.0264 14.7C10.1147 14.7567 10.1841 14.782 10.1841 14.7567C10.1841 14.7252 10.2093 14.7378 10.2345 14.7757C10.3165 14.8892 10.8904 15.1792 10.9597 15.1351C10.9913 15.1162 11.0039 15.1225 10.9849 15.1603C10.9597 15.1982 11.1994 15.3621 11.502 15.5324L12.0633 15.8414L12.0318 16.2828C11.9876 16.844 12.1579 17.2791 12.5488 17.626L12.8137 17.8593L12.4543 18.8683L12.0948 19.8772L11.6597 19.9151C10.4742 20.0034 9.84356 21.1952 10.4111 22.2483C10.5624 22.5195 10.9534 22.8663 11.212 22.9546C11.275 22.9735 11.2498 23.1375 10.9786 24.5689L10.903 24.9788L10.5877 25.0482C10.1715 25.1428 9.92554 25.2815 9.69852 25.5401C9.40844 25.868 9.28232 26.2652 9.31385 26.7067C9.35799 27.1859 9.50303 27.4823 9.84356 27.785C10.7012 28.5354 12.0444 28.1444 12.366 27.0409C12.593 26.2652 12.2777 25.5716 11.4768 25.1112C11.3696 25.0482 11.3696 25.0167 11.4642 24.5437C11.521 24.2662 11.5966 23.8248 11.6408 23.5537L11.7228 23.0744L12.0822 23.005C12.9903 22.8222 13.5389 21.8952 13.274 20.9871C13.1921 20.697 12.9146 20.306 12.7002 20.1799L12.5299 20.079L12.8831 19.0448L13.2425 18.017H13.5011C14.4911 18.017 15.2541 17.2098 15.1469 16.2702L15.1154 15.9927L15.5694 15.7909C15.8154 15.6711 16.4775 15.3747 17.0387 15.1225L18.0666 14.6558L18.3441 14.9711C18.5017 15.1414 18.7855 15.3621 18.9936 15.463C19.3152 15.6333 19.4224 15.6522 19.9269 15.6522C20.444 15.6522 20.5386 15.6333 20.917 15.4441C21.3458 15.236 21.762 14.845 21.6863 14.7252C21.6611 14.6874 21.6674 14.6748 21.7052 14.6937C21.743 14.7189 21.8376 14.5928 21.9196 14.4036C22.134 13.9306 22.134 13.0793 21.9133 12.6253C21.68 12.1397 21.1944 11.692 20.7215 11.5217L20.3242 11.3767L20.362 10.4876C20.4125 9.42183 20.4503 9.12545 20.5386 9.12545C20.6962 9.12545 21.2638 8.80384 21.453 8.60835C21.7367 8.31828 21.8629 7.97145 21.8629 7.5048C21.8566 6.64718 21.1755 5.97243 20.3053 5.97243C20.0215 5.97243 19.6557 6.07333 19.5485 6.18053C19.5044 6.22467 19.3594 6.28773 19.5738 6.19314C19.6368 6.15531 19.6494 6.16792 19.6179 6.21837C19.5864 6.26251 19.5296 6.28143 19.4792 6.26251C19.435 6.24359 19.3783 6.2562 19.3594 6.28773C19.29 6.40755 19.1639 6.35079 18.8549 6.06702C18.6783 5.90937 18.5207 5.78325 18.5017 5.78325C18.4828 5.78325 18.3945 5.72019 18.3063 5.63821C18.2243 5.56254 17.8964 5.29138 17.5748 5.03283C17.2531 4.77428 16.9946 4.54727 16.9946 4.52835C16.9946 4.50943 17.0514 4.33286 17.127 4.14368C17.2784 3.7464 17.3036 3.08427 17.1775 2.71221C16.8369 1.65911 15.746 1.03481 14.6614 1.26813ZM13.0722 3.99864C13.1542 4.23827 13.2236 4.4716 13.2299 4.52835C13.2362 4.5851 12.738 5.05175 11.9813 5.68235C11.2876 6.26882 10.6633 6.79852 10.5877 6.86789C10.4552 6.9814 10.4489 6.9814 10.1462 6.82375C9.97598 6.74177 9.68591 6.64718 9.49673 6.62195L9.14989 6.5715L9.03639 6.19314C8.97333 5.98504 8.85982 5.57515 8.79045 5.28507C8.66433 4.80582 8.66433 4.75537 8.75261 4.70492C9.08683 4.51574 9.38952 4.11215 9.51564 3.68334C9.54717 3.58245 9.68591 3.57614 11.2372 3.57614H12.9272L13.0722 3.99864ZM7.22655 4.71123C7.36529 4.7869 7.63645 4.86257 7.83193 4.88779L8.19138 4.93194L8.4247 5.72019C8.55713 6.15531 8.66433 6.5652 8.66433 6.64087C8.67064 6.71654 8.57605 6.83636 8.41839 6.95617C8.27966 7.05707 8.16615 7.15797 8.16615 7.18319C8.16615 7.20841 8.11571 7.29039 8.05895 7.35976C7.99589 7.42912 7.91391 7.58047 7.87608 7.69398L7.80671 7.89577L6.9617 7.88947C6.49505 7.88316 5.82661 7.87685 5.47978 7.87685L4.84287 7.86424L4.80504 7.62461C4.77981 7.49219 4.69783 7.25256 4.61586 7.0886L4.46451 6.79222L5.68788 5.68866C6.36263 5.08328 6.92386 4.5851 6.94278 4.5851C6.9617 4.5851 7.08782 4.64186 7.22655 4.71123ZM18.0036 6.00396C18.4702 6.37602 18.8675 6.69762 18.8801 6.71024C18.899 6.72285 18.8738 6.83636 18.8233 6.96878C18.7792 7.0949 18.7414 7.37868 18.7414 7.59308C18.7414 7.81379 18.7161 8.00928 18.672 8.04081C18.6342 8.06603 18.0414 8.35611 17.354 8.67772L16.0991 9.25788L15.8343 9.01194C15.6829 8.87321 15.4559 8.72817 15.3235 8.68403L15.0839 8.60835L15.128 7.77596C15.1469 7.32192 15.1848 6.63457 15.21 6.24359L15.2478 5.53732L15.4938 5.49948C15.7712 5.44903 16.4397 5.13373 16.5532 4.995C16.6225 4.91302 16.6667 4.92563 16.8937 5.10851C17.0324 5.22201 17.5369 5.6256 18.0036 6.00396ZM13.9173 5.15265C14.0623 5.25985 14.3019 5.37966 14.4533 5.4175C14.6046 5.45534 14.737 5.49948 14.7497 5.5247C14.7623 5.54362 14.737 6.23098 14.6866 7.04446C14.6424 7.85794 14.6046 8.54529 14.5983 8.57052C14.5983 8.60205 14.5416 8.62097 14.4722 8.62097C14.2452 8.62097 13.7785 8.88582 13.5641 9.13806L13.3497 9.3903L12.1579 8.95518L10.9723 8.52637L10.9345 8.11648C10.9156 7.88947 10.8651 7.64353 10.8273 7.56786C10.7832 7.49219 10.7516 7.41651 10.7516 7.3976C10.7516 7.37868 11.1111 7.06338 11.5588 6.69132C12.0002 6.31926 12.4164 5.95982 12.4858 5.89676C12.738 5.66974 13.5956 4.96347 13.6272 4.96347C13.6398 4.96347 13.7722 5.05175 13.9173 5.15265ZM7.63014 8.40025C7.7941 8.42548 7.83824 8.46962 7.89499 8.70294C7.98958 9.04347 8.33642 9.44706 8.67064 9.5984C8.89135 9.6993 8.92288 9.73713 8.89765 9.87587C8.87873 9.96415 8.80306 10.4812 8.72739 11.0299L8.58866 12.0136L8.3238 12.0514C8.18507 12.0767 7.97067 12.1523 7.85716 12.2217C7.65536 12.3415 7.64275 12.3415 7.51663 12.2343C7.35267 12.0956 4.44559 9.37138 4.44559 9.35877C4.44559 9.35246 4.51496 9.20743 4.60324 9.03716C4.69153 8.8669 4.76089 8.68403 4.76089 8.63988C4.76089 8.58944 4.78612 8.50115 4.81765 8.4444C4.8681 8.34981 5.00683 8.33719 6.16083 8.35611C6.8608 8.36242 7.52924 8.38134 7.63014 8.40025ZM19.4287 8.8606C19.5296 8.92996 19.6999 9.01194 19.7945 9.03716L19.971 9.08131L19.9332 9.9074C19.8638 11.2758 19.8449 11.3956 19.6684 11.3956C19.3972 11.3956 18.8423 11.6479 18.5522 11.9064L18.2621 12.1523L17.2468 11.4902C16.2568 10.847 16.2253 10.8155 16.2757 10.6515C16.3009 10.5569 16.3262 10.3047 16.3262 10.0903L16.3325 9.69299L17.6567 9.06239L18.981 8.43178L19.1071 8.57682C19.1765 8.6588 19.3215 8.78492 19.4287 8.8606ZM12.0318 9.42183L13.211 9.85064V10.1975C13.211 10.6263 13.4317 11.1371 13.7028 11.3326C13.8101 11.4082 13.9109 11.4713 13.9299 11.465C13.9551 11.4587 14.0308 11.5091 14.1001 11.5785L14.2326 11.7046L13.9362 13.2685C13.7722 14.1261 13.6335 14.8387 13.6335 14.8387C13.6272 14.845 13.5011 14.8639 13.3497 14.8702L13.0786 14.8955L12.6497 14.0757C12.4164 13.6217 11.7984 12.4172 11.275 11.383L10.3228 9.51642L10.5498 9.25788C10.6823 9.11914 10.7958 8.99933 10.8147 8.99933C10.8336 8.99933 11.3759 9.18851 12.0318 9.42183ZM10.5435 11.0173C10.8904 11.692 11.5084 12.8965 11.9182 13.691L12.656 15.1288L12.4984 15.2864L12.3407 15.4441L11.2309 14.8261L10.121 14.2018L10.1589 13.8171C10.2282 13.1235 9.90662 12.4929 9.33908 12.2154C9.08053 12.0893 9.06161 12.0704 9.08683 11.8812C9.10575 11.7677 9.18142 11.2506 9.2571 10.7335L9.39583 9.78758L9.61654 9.74975C9.73635 9.73083 9.85617 9.73083 9.87509 9.74975C9.90031 9.76866 10.1967 10.3425 10.5435 11.0173ZM17.2153 12.0451C17.6315 12.3163 17.9783 12.5496 17.9846 12.5559C17.9973 12.5685 17.9594 12.7073 17.9027 12.8712C17.827 13.0856 17.8081 13.319 17.827 13.6973L17.8522 14.227L16.4018 14.8829L14.9451 15.5387L14.6361 15.2675C14.4722 15.1162 14.2956 14.9901 14.2515 14.9901C14.201 14.9901 14.1506 14.9648 14.1317 14.9396C14.1127 14.9081 14.2073 14.3342 14.3398 13.6595C14.4785 12.9847 14.6046 12.31 14.6298 12.1523C14.6866 11.7929 14.756 11.7109 14.9956 11.7109C15.2226 11.7109 15.6703 11.5091 15.828 11.3326C15.9541 11.1938 15.8595 11.1497 17.2153 12.0451Z" fill="#051321"/>
<circle cx="20.3525" cy="7.52244" r="1.96776" fill="#051321"/>
<circle cx="19.8971" cy="13.6354" r="2.18225" fill="#051321"/>
<path d="M38.4336 23.6137V6.86719H41.3984V14.5618H41.5982L47.9833 6.86719H51.6034L45.2742 14.3819L51.6594 23.6137H48.0952L43.2124 16.4343L41.3984 18.6257V23.6137H38.4336Z" fill="#051321"/>
<path d="M57.0675 23.8672C56.2897 23.8672 55.5891 23.7255 54.9658 23.442C54.3478 23.1531 53.8577 22.7279 53.4954 22.1664C53.1384 21.6049 52.96 20.9126 52.96 20.0894C52.96 19.3807 53.0878 18.7947 53.3435 18.3314C53.5993 17.868 53.9482 17.4973 54.3904 17.2193C54.8326 16.9413 55.3307 16.7314 55.8848 16.5897C56.4442 16.4425 57.0222 16.3362 57.6189 16.2707C58.3382 16.1944 58.9215 16.1263 59.369 16.0663C59.8166 16.0009 60.1416 15.9028 60.344 15.7719C60.5518 15.6357 60.6557 15.4258 60.6557 15.1423V15.0933C60.6557 14.4773 60.4772 14.0003 60.1202 13.6623C59.7633 13.3243 59.2492 13.1553 58.5779 13.1553C57.8693 13.1553 57.3073 13.3134 56.8917 13.6296C56.4815 13.9458 56.2045 14.3192 56.0606 14.7498L53.3595 14.3573C53.5726 13.5941 53.9242 12.9563 54.4144 12.4439C54.9045 11.926 55.5039 11.539 56.2124 11.2828C56.921 11.0211 57.7042 10.8903 58.5619 10.8903C59.1533 10.8903 59.742 10.9611 60.328 11.1029C60.9141 11.2446 61.4495 11.479 61.9343 11.8061C62.4191 12.1277 62.808 12.5666 63.101 13.1226C63.3994 13.6786 63.5485 14.3737 63.5485 15.2077V23.6137H60.7675V21.8884H60.6716C60.4958 22.2372 60.2481 22.5643 59.9284 22.8696C59.6141 23.1694 59.2172 23.412 58.7377 23.5973C58.2636 23.7772 57.7068 23.8672 57.0675 23.8672ZM57.8187 21.6921C58.3994 21.6921 58.9029 21.5749 59.3291 21.3405C59.7553 21.1006 60.0829 20.7845 60.312 20.392C60.5464 19.9995 60.6637 19.5715 60.6637 19.1082V17.6281C60.5731 17.7044 60.4186 17.7753 60.2002 17.8407C59.987 17.9061 59.7473 17.9634 59.4809 18.0124C59.2145 18.0615 58.9508 18.1051 58.6898 18.1433C58.4287 18.1814 58.2023 18.2141 58.0105 18.2414C57.579 18.3014 57.1927 18.3995 56.8518 18.5358C56.5108 18.6721 56.2418 18.8629 56.0446 19.1082C55.8475 19.348 55.7489 19.6588 55.7489 20.0403C55.7489 20.5855 55.9434 20.9971 56.3323 21.2751C56.7212 21.5531 57.2167 21.6921 57.8187 21.6921Z" fill="#051321"/>
<path d="M69.3503 16.2544V23.6137H66.4574V11.0538H69.2224V13.188H69.3663C69.6486 12.4848 70.0988 11.926 70.7168 11.5117C71.3402 11.0974 72.11 10.8903 73.0263 10.8903C73.8734 10.8903 74.6113 11.0756 75.24 11.4463C75.8739 11.817 76.3641 12.354 76.7104 13.0572C77.062 13.7604 77.2351 14.6135 77.2298 15.6166V23.6137H74.3369V16.0745C74.3369 15.235 74.1238 14.5781 73.6976 14.1038C73.2767 13.6296 72.6934 13.3924 71.9475 13.3924C71.4414 13.3924 70.9912 13.5069 70.597 13.7359C70.208 13.9594 69.9017 14.2837 69.6779 14.7089C69.4595 15.1341 69.3503 15.6493 69.3503 16.2544Z" fill="#051321"/>
<path d="M83.7028 23.8672C82.925 23.8672 82.2244 23.7255 81.6011 23.442C80.9831 23.1531 80.493 22.7279 80.1307 22.1664C79.7737 21.6049 79.5953 20.9126 79.5953 20.0894C79.5953 19.3807 79.7231 18.7947 79.9789 18.3314C80.2346 17.868 80.5835 17.4973 81.0257 17.2193C81.4679 16.9413 81.966 16.7314 82.5201 16.5897C83.0795 16.4425 83.6576 16.3362 84.2542 16.2707C84.9735 16.1944 85.5568 16.1263 86.0044 16.0663C86.4519 16.0009 86.7769 15.9028 86.9793 15.7719C87.1871 15.6357 87.291 15.4258 87.291 15.1423V15.0933C87.291 14.4773 87.1125 14.0003 86.7556 13.6623C86.3986 13.3243 85.8845 13.1553 85.2132 13.1553C84.5046 13.1553 83.9426 13.3134 83.527 13.6296C83.1168 13.9458 82.8398 14.3192 82.6959 14.7498L79.9948 14.3573C80.2079 13.5941 80.5596 12.9563 81.0497 12.4439C81.5398 11.926 82.1392 11.539 82.8478 11.2828C83.5563 11.0211 84.3395 10.8903 85.1972 10.8903C85.7886 10.8903 86.3773 10.9611 86.9633 11.1029C87.5494 11.2446 88.0848 11.479 88.5696 11.8061C89.0544 12.1277 89.4433 12.5666 89.7363 13.1226C90.0347 13.6786 90.1839 14.3737 90.1839 15.2077V23.6137H87.4029V21.8884H87.307C87.1312 22.2372 86.8834 22.5643 86.5638 22.8696C86.2494 23.1694 85.8525 23.412 85.373 23.5973C84.8989 23.7772 84.3422 23.8672 83.7028 23.8672ZM84.454 21.6921C85.0347 21.6921 85.5382 21.5749 85.9644 21.3405C86.3906 21.1006 86.7183 20.7845 86.9474 20.392C87.1818 19.9995 87.299 19.5715 87.299 19.1082V17.6281C87.2084 17.7044 87.0539 17.7753 86.8355 17.8407C86.6224 17.9061 86.3826 17.9634 86.1162 18.0124C85.8499 18.0615 85.5862 18.1051 85.3251 18.1433C85.064 18.1814 84.8376 18.2141 84.6458 18.2414C84.2143 18.3014 83.828 18.3995 83.4871 18.5358C83.1461 18.6721 82.8771 18.8629 82.6799 19.1082C82.4828 19.348 82.3843 19.6588 82.3843 20.0403C82.3843 20.5855 82.5787 20.9971 82.9676 21.2751C83.3566 21.5531 83.852 21.6921 84.454 21.6921Z" fill="#051321"/>
<path d="M95.7299 19.6724L95.7219 16.099H96.1854L100.597 11.0538H103.977L98.5509 17.2356H97.9515L95.7299 19.6724ZM93.0927 23.6137V6.86719H95.9856V23.6137H93.0927ZM100.796 23.6137L96.8007 17.898L98.7506 15.8128L104.257 23.6137H100.796Z" fill="#051321"/>
<path d="M108.542 19.6724L108.534 16.099H108.998L113.409 11.0538H116.789L111.363 17.2356H110.764L108.542 19.6724ZM105.905 23.6137V6.86719H108.798V23.6137H105.905ZM113.609 23.6137L109.613 17.898L111.563 15.8128L117.069 23.6137H113.609Z" fill="#051321"/>
<path d="M126.541 18.3314V11.0538H129.434V23.6137H126.629V21.3814H126.501C126.224 22.0846 125.768 22.6597 125.134 23.1067C124.506 23.5537 123.73 23.7772 122.809 23.7772C122.004 23.7772 121.293 23.5946 120.675 23.2294C120.062 22.8587 119.583 22.3217 119.237 21.6185C118.89 20.9098 118.717 20.054 118.717 19.0509V11.0538H121.61V18.593C121.61 19.3889 121.823 20.0213 122.249 20.4901C122.676 20.9589 123.235 21.1933 123.928 21.1933C124.354 21.1933 124.767 21.087 125.166 20.8744C125.566 20.6618 125.893 20.3456 126.149 19.9259C126.41 19.5007 126.541 18.9692 126.541 18.3314Z" fill="#051321"/>
</svg>
