<svg width="97" height="46" viewBox="0 0 97 46" fill="none" xmlns="http://www.w3.org/2000/svg">
<g opacity="0.2" clip-path="url(#clip0_532_301655)">
<path d="M114.807 45.5566L55.5507 104.813C56.0395 104.623 56.5403 104.422 57.0357 104.215L114.21 47.0417C114.42 46.5375 114.617 46.0454 114.807 45.5566Z" fill="#27AE60"/>
<path d="M116.57 40.3242L50.3175 106.577C50.7336 106.461 51.153 106.335 51.5785 106.204L116.203 41.5792C116.335 41.1537 116.454 40.7403 116.57 40.3242Z" fill="#27AE60"/>
<path d="M117.586 35.832L45.8251 107.593C46.1868 107.531 46.5457 107.466 46.9107 107.395L117.388 36.9176C117.462 36.5553 117.53 36.1876 117.586 35.832Z" fill="#27AE60"/>
<path d="M118.018 31.9297L41.9291 108.018C42.2423 108.005 42.5589 107.982 42.8754 107.96L117.959 32.876C117.982 32.5595 118.004 32.2429 118.018 31.9297Z" fill="#27AE60"/>
<path d="M117.96 28.5176L38.5183 107.959C38.7924 107.979 39.0694 108.002 39.3496 108.016L118.017 29.3489C118.003 29.0687 117.983 28.7945 117.96 28.5176Z" fill="#27AE60"/>
<path d="M117.466 25.543L35.5425 107.466C35.7831 107.525 36.021 107.582 36.2649 107.632L117.631 26.2654C117.578 26.0187 117.522 25.7808 117.466 25.543Z" fill="#27AE60"/>
<path d="M116.578 22.9609L32.954 106.585C33.1556 106.678 33.3659 106.767 33.5796 106.847L116.847 23.5804C116.757 23.3701 116.671 23.1625 116.578 22.9609Z" fill="#27AE60"/>
<path d="M115.324 20.7383L30.7377 105.325C30.909 105.448 31.0891 105.567 31.2664 105.684L115.683 21.267C115.567 21.0896 115.45 20.9123 115.324 20.7383Z" fill="#27AE60"/>
<path d="M113.946 19.0925C113.872 19.0189 113.793 18.9515 113.717 18.8752L28.8759 103.716C28.9494 103.789 29.0169 103.869 29.0932 103.945C29.1667 104.019 29.2463 104.086 29.3199 104.16L114.161 19.3192C114.087 19.2456 114.02 19.166 113.946 19.0925Z" fill="#27AE60"/>
<path d="M111.77 17.3523L27.3588 101.763C27.4696 101.947 27.5924 102.118 27.718 102.292L112.298 17.7115C112.124 17.586 111.947 17.4691 111.77 17.3523Z" fill="#27AE60"/>
<path d="M109.459 16.1931L26.1983 99.454C26.2788 99.6677 26.3681 99.878 26.4607 100.08L110.079 16.4615C109.874 16.3662 109.667 16.2797 109.459 16.1931Z" fill="#27AE60"/>
<path d="M106.771 15.4054L25.4049 96.7718C25.4552 97.0158 25.5114 97.2536 25.5705 97.4942L107.494 15.5709C107.256 15.5146 107.018 15.4583 106.771 15.4054Z" fill="#27AE60"/>
<path d="M103.687 15.0202L25.0138 93.6932C25.0278 93.9734 25.0477 94.2476 25.0704 94.5245L104.518 15.0768C104.241 15.0541 103.967 15.0341 103.687 15.0202Z" fill="#27AE60"/>
<path d="M100.16 15.0766L25.082 90.1543C25.0536 90.4769 25.0372 90.7874 25.0236 91.1006L101.106 15.0182C100.793 15.0318 100.476 15.0542 100.16 15.0766Z" fill="#27AE60"/>
<path d="M96.1192 15.6474L25.6415 86.1251C25.5707 86.4901 25.5059 86.849 25.4439 87.2107L97.2047 15.4498C96.8491 15.5058 96.4814 15.5739 96.1192 15.6474Z" fill="#27AE60"/>
<path d="M91.4604 16.8365L26.8357 81.4611C26.7017 81.8839 26.5852 82.3 26.4626 82.7222L92.7154 16.4694C92.2966 16.5831 91.8832 16.7024 91.4604 16.8365Z" fill="#27AE60"/>
<path d="M85.9941 18.8262L28.8203 76C28.6136 76.4954 28.4123 76.9963 28.2232 77.4851L87.4791 18.2291C86.9904 18.4183 86.4956 18.6135 85.9941 18.8262Z" fill="#27AE60"/>
<path d="M79.3567 21.9939L31.9883 69.3623C31.6605 69.9788 31.3415 70.5919 31.0341 71.2045L81.1988 21.0397C80.5863 21.3471 79.9792 21.6601 79.3567 21.9939Z" fill="#27AE60"/>
<path d="M70.5222 27.3596L37.3594 60.5224C36.772 61.3876 36.2049 62.2489 35.6547 63.1151L73.1149 25.6549C72.2487 26.2051 71.3874 26.7722 70.5222 27.3596Z" fill="#27AE60"/>
<path d="M52.4226 42.4299C50.2195 44.6331 48.1289 46.8762 46.1548 49.139L59.1318 36.162C56.875 38.1301 54.6319 40.2207 52.4226 42.4299Z" fill="#27AE60"/>
</g>
<defs>
<clipPath id="clip0_532_301655">
<rect width="54" height="120" fill="white" transform="translate(85.1836) rotate(45)"/>
</clipPath>
</defs>
</svg>
