<svg width="23" height="50" viewBox="0 0 23 50" fill="none" xmlns="http://www.w3.org/2000/svg">
<path d="M6.46053 41.583C7.13012 39.084 6.79117 36.5541 5.70678 34.4126L5.71918 34.4159C1.38664 25.8314 1.49124 18.5953 14.0139 12.2774L13.9891 12.2707C17.6075 10.4489 20.4751 7.16321 21.6043 2.9365C23.7072 -4.92391 19.0453 -12.9986 11.1865 -15.1076C3.33003 -17.2128 -4.74855 -12.5486 -6.85762 -4.68985C-7.98911 -0.467067 -7.15478 3.81058 -4.92974 7.20145L-4.95455 7.1948C2.73988 18.9332 -0.783657 25.2499 -8.83195 30.5203L-8.81955 30.5236C-10.8294 31.836 -12.3879 33.8575 -13.0575 36.3565C-14.5013 41.745 -11.3034 47.284 -5.91484 48.7279C-0.522364 50.1695 5.01668 46.9715 6.46053 41.583Z" fill="#7539FF"/>
</svg>
