<svg width="116" height="93" viewBox="0 0 116 93" fill="none" xmlns="http://www.w3.org/2000/svg">
<path d="M98.6362 77.518C82.5387 94.9768 42.179 104.601 42.179 104.601L42.7277 111.355C42.7277 111.355 88.9937 100.972 107.222 83.7117C123.675 68.1325 142.674 31.0007 142.674 31.0007L125.794 34.8336C125.794 34.8336 110.387 64.7737 98.6362 77.518Z" fill="#FCF8EB"/>
<path d="M93.9897 54.7794C73.6442 81.345 20.0651 99.189 20.0651 99.189L14.8064 109.167C14.8064 109.167 71.7625 93.5741 97.447 69.2538C120.63 47.3017 137.221 0.999475 137.221 0.999475L117.558 5.37179C117.558 5.37179 108.948 35.2477 93.9897 54.7794Z" fill="#FCF8EB"/>
</svg>
