<svg width="97" height="46" viewBox="0 0 97 46" fill="none" xmlns="http://www.w3.org/2000/svg">
<g opacity="0.2" clip-path="url(#clip0_532_301692)">
<path d="M114.473 45.5566L55.2167 104.813C55.7055 104.623 56.2063 104.422 56.7017 104.215L113.876 47.0417C114.086 46.5375 114.284 46.0454 114.473 45.5566Z" fill="#E2B93B"/>
<path d="M116.236 40.3242L49.9835 106.577C50.3996 106.461 50.819 106.335 51.2446 106.204L115.869 41.5792C116.001 41.1537 116.12 40.7403 116.236 40.3242Z" fill="#E2B93B"/>
<path d="M117.252 35.832L45.4911 107.593C45.8528 107.531 46.2117 107.466 46.5767 107.395L117.054 36.9176C117.128 36.5553 117.196 36.1876 117.252 35.832Z" fill="#E2B93B"/>
<path d="M117.684 31.9297L41.5951 108.018C41.9083 108.005 42.2249 107.982 42.5414 107.96L117.625 32.876C117.648 32.5595 117.67 32.2429 117.684 31.9297Z" fill="#E2B93B"/>
<path d="M117.626 28.5176L38.1843 107.959C38.4585 107.979 38.7354 108.002 39.0156 108.016L117.683 29.3489C117.669 29.0687 117.649 28.7945 117.626 28.5176Z" fill="#E2B93B"/>
<path d="M117.132 25.543L35.2085 107.466C35.4491 107.525 35.687 107.582 35.9309 107.632L117.297 26.2654C117.244 26.0187 117.188 25.7808 117.132 25.543Z" fill="#E2B93B"/>
<path d="M116.244 22.9609L32.62 106.585C32.8216 106.678 33.0319 106.767 33.2456 106.847L116.513 23.5804C116.423 23.3701 116.337 23.1625 116.244 22.9609Z" fill="#E2B93B"/>
<path d="M114.99 20.7383L30.4037 105.325C30.575 105.448 30.7551 105.567 30.9324 105.684L115.349 21.267C115.233 21.0896 115.116 20.9123 114.99 20.7383Z" fill="#E2B93B"/>
<path d="M113.612 19.0925C113.538 19.0189 113.459 18.9515 113.383 18.8752L28.5419 103.716C28.6155 103.789 28.6829 103.869 28.7592 103.945C28.8327 104.019 28.9123 104.086 28.9859 104.16L113.827 19.3192C113.753 19.2456 113.686 19.166 113.612 19.0925Z" fill="#E2B93B"/>
<path d="M111.436 17.3523L27.0248 101.763C27.1356 101.947 27.2584 102.118 27.384 102.292L111.964 17.7115C111.79 17.586 111.613 17.4691 111.436 17.3523Z" fill="#E2B93B"/>
<path d="M109.125 16.1931L25.8643 99.454C25.9448 99.6677 26.0341 99.878 26.1267 100.08L109.745 16.4615C109.54 16.3662 109.333 16.2797 109.125 16.1931Z" fill="#E2B93B"/>
<path d="M106.437 15.4054L25.0709 96.7718C25.1212 97.0158 25.1775 97.2536 25.2365 97.4942L107.16 15.5709C106.922 15.5146 106.684 15.4583 106.437 15.4054Z" fill="#E2B93B"/>
<path d="M103.353 15.0202L24.6799 93.6932C24.6938 93.9734 24.7138 94.2476 24.7364 94.5245L104.184 15.0768C103.907 15.0541 103.633 15.0341 103.353 15.0202Z" fill="#E2B93B"/>
<path d="M99.8258 15.0766L24.7481 90.1543C24.7196 90.4769 24.7033 90.7874 24.6896 91.1006L100.772 15.0182C100.459 15.0318 100.142 15.0542 99.8258 15.0766Z" fill="#E2B93B"/>
<path d="M95.7852 15.6474L25.3075 86.1251C25.2367 86.4901 25.1719 86.849 25.1099 87.2107L96.8707 15.4498C96.5151 15.5058 96.1474 15.5739 95.7852 15.6474Z" fill="#E2B93B"/>
<path d="M91.1264 16.8365L26.5018 81.4611C26.3677 81.8839 26.2512 82.3 26.1286 82.7222L92.3815 16.4694C91.9626 16.5831 91.5492 16.7024 91.1264 16.8365Z" fill="#E2B93B"/>
<path d="M85.6601 18.8262L28.4863 76C28.2796 76.4954 28.0783 76.9963 27.8892 77.4851L87.1451 18.2291C86.6564 18.4183 86.1616 18.6135 85.6601 18.8262Z" fill="#E2B93B"/>
<path d="M79.0227 21.9939L31.6543 69.3623C31.3265 69.9788 31.0076 70.5919 30.7001 71.2045L80.8649 21.0397C80.2523 21.3471 79.6452 21.6601 79.0227 21.9939Z" fill="#E2B93B"/>
<path d="M70.1882 27.3596L37.0255 60.5224C36.438 61.3876 35.8709 62.2489 35.3207 63.1151L72.7809 25.6549C71.9147 26.2051 71.0534 26.7722 70.1882 27.3596Z" fill="#E2B93B"/>
<path d="M52.0887 42.4299C49.8855 44.6331 47.7949 46.8762 45.8208 49.139L58.7978 36.162C56.541 38.1301 54.2979 40.2207 52.0887 42.4299Z" fill="#E2B93B"/>
</g>
<defs>
<clipPath id="clip0_532_301692">
<rect width="54" height="120" fill="white" transform="translate(84.8496) rotate(45)"/>
</clipPath>
</defs>
</svg>
