<svg width="24" height="50" viewBox="0 0 24 50" fill="none" xmlns="http://www.w3.org/2000/svg">
<path d="M7.46151 41.583C8.1311 39.084 7.79214 36.5541 6.70776 34.4126L6.72016 34.4159C2.38762 25.8314 2.49222 18.5953 15.0148 12.2774L14.99 12.2707C18.6085 10.4489 21.4761 7.16321 22.6053 2.9365C24.7081 -4.92391 20.0462 -12.9986 12.1875 -15.1076C4.33101 -17.2128 -3.74757 -12.5486 -5.85664 -4.68985C-6.98813 -0.467067 -6.1538 3.81058 -3.92877 7.20145L-3.95357 7.1948C3.74086 18.9332 0.217319 25.2499 -7.83098 30.5203L-7.81857 30.5236C-9.82842 31.836 -11.3869 33.8575 -12.0565 36.3565C-13.5004 41.745 -10.3024 47.284 -4.91386 48.7279C0.478612 50.1695 6.01765 46.9715 7.46151 41.583Z" fill="#0E9384"/>
</svg>
