<svg width="46" height="40" viewBox="0 0 46 40" fill="none" xmlns="http://www.w3.org/2000/svg">
<path d="M49.1936 40.2356C59.0269 40.2356 66.9984 31.4441 66.9984 20.5993C66.9984 9.75439 59.0269 0.962891 49.1936 0.962891C39.3602 0.962891 31.3887 9.75439 31.3887 20.5993C31.3887 31.4441 39.3602 40.2356 49.1936 40.2356Z" fill="#F9F1D8"/>
<path d="M19.7613 24.712C22.9437 24.712 25.5236 21.8667 25.5236 18.357C25.5236 14.8472 22.9437 12.002 19.7613 12.002C16.5789 12.002 13.999 14.8472 13.999 18.357C13.999 21.8667 16.5789 24.712 19.7613 24.712Z" fill="#F9F1D8"/>
<path d="M11.8036 52.9999C18.1953 52.9999 23.3768 47.2855 23.3768 40.2363C23.3768 33.1871 18.1953 27.4727 11.8036 27.4727C5.41195 27.4727 0.230469 33.1871 0.230469 40.2363C0.230469 47.2855 5.41195 52.9999 11.8036 52.9999Z" fill="#F9F1D8"/>
</svg>
