<svg width="44" height="40" viewBox="0 0 44 40" fill="none" xmlns="http://www.w3.org/2000/svg">
<path d="M49.1945 40.2356C59.0279 40.2356 66.9994 31.4441 66.9994 20.5993C66.9994 9.75439 59.0279 0.962891 49.1945 0.962891C39.3612 0.962891 31.3896 9.75439 31.3896 20.5993C31.3896 31.4441 39.3612 40.2356 49.1945 40.2356Z" fill="#DFDCFF"/>
<path d="M19.7623 24.712C22.9447 24.712 25.5245 21.8667 25.5245 18.357C25.5245 14.8472 22.9447 12.002 19.7623 12.002C16.5799 12.002 14 14.8472 14 18.357C14 21.8667 16.5799 24.712 19.7623 24.712Z" fill="#DFDCFF"/>
<path d="M11.8046 52.9999C18.1963 52.9999 23.3778 47.2855 23.3778 40.2363C23.3778 33.1871 18.1963 27.4727 11.8046 27.4727C5.41293 27.4727 0.231445 33.1871 0.231445 40.2363C0.231445 47.2855 5.41293 52.9999 11.8046 52.9999Z" fill="#DFDCFF"/>
</svg>
