<svg width="97" height="46" viewBox="0 0 97 46" fill="none" xmlns="http://www.w3.org/2000/svg">
<g opacity="0.2" clip-path="url(#clip0_532_301729)">
<path d="M115.141 45.5566L55.8847 104.813C56.3734 104.623 56.8743 104.422 57.3697 104.215L114.544 47.0417C114.754 46.5375 114.951 46.0454 115.141 45.5566Z" fill="#EF1E1E"/>
<path d="M116.904 40.3242L50.6514 106.577C51.0676 106.461 51.487 106.335 51.9125 106.204L116.537 41.5792C116.669 41.1537 116.788 40.7403 116.904 40.3242Z" fill="#EF1E1E"/>
<path d="M117.92 35.832L46.1591 107.593C46.5207 107.531 46.8797 107.466 47.2446 107.395L117.722 36.9176C117.796 36.5553 117.864 36.1876 117.92 35.832Z" fill="#EF1E1E"/>
<path d="M118.352 31.9297L42.2631 108.018C42.5763 108.005 42.8929 107.982 43.2094 107.96L118.293 32.876C118.316 32.5595 118.338 32.2429 118.352 31.9297Z" fill="#EF1E1E"/>
<path d="M118.294 28.5176L38.8522 107.959C39.1264 107.979 39.4033 108.002 39.6836 108.016L118.351 29.3489C118.337 29.0687 118.317 28.7945 118.294 28.5176Z" fill="#EF1E1E"/>
<path d="M117.8 25.543L35.8765 107.466C36.1171 107.525 36.355 107.582 36.5989 107.632L117.965 26.2654C117.912 26.0187 117.856 25.7808 117.8 25.543Z" fill="#EF1E1E"/>
<path d="M116.912 22.9609L33.288 106.585C33.4896 106.678 33.6999 106.767 33.9135 106.847L117.181 23.5804C117.091 23.3701 117.005 23.1625 116.912 22.9609Z" fill="#EF1E1E"/>
<path d="M115.658 20.7383L31.0717 105.325C31.243 105.448 31.4231 105.567 31.6004 105.684L116.017 21.267C115.901 21.0896 115.784 20.9123 115.658 20.7383Z" fill="#EF1E1E"/>
<path d="M114.28 19.0925C114.206 19.0189 114.127 18.9515 114.051 18.8752L29.2099 103.716C29.2834 103.789 29.3509 103.869 29.4272 103.945C29.5007 104.019 29.5803 104.086 29.6539 104.16L114.495 19.3192C114.421 19.2456 114.354 19.166 114.28 19.0925Z" fill="#EF1E1E"/>
<path d="M112.104 17.3523L27.6928 101.763C27.8035 101.947 27.9264 102.118 28.052 102.292L112.632 17.7115C112.458 17.586 112.281 17.4691 112.104 17.3523Z" fill="#EF1E1E"/>
<path d="M109.793 16.1931L26.5323 99.454C26.6128 99.6677 26.7021 99.878 26.7947 100.08L110.413 16.4615C110.208 16.3662 110.001 16.2797 109.793 16.1931Z" fill="#EF1E1E"/>
<path d="M107.105 15.4054L25.7389 96.7718C25.7891 97.0158 25.8454 97.2536 25.9044 97.4942L107.828 15.5709C107.59 15.5146 107.352 15.4583 107.105 15.4054Z" fill="#EF1E1E"/>
<path d="M104.021 15.0202L25.3478 93.6932C25.3617 93.9734 25.3817 94.2476 25.4044 94.5245L104.852 15.0768C104.575 15.0541 104.301 15.0341 104.021 15.0202Z" fill="#EF1E1E"/>
<path d="M100.494 15.0766L25.416 90.1543C25.3876 90.4769 25.3712 90.7874 25.3576 91.1006L101.44 15.0182C101.127 15.0318 100.81 15.0542 100.494 15.0766Z" fill="#EF1E1E"/>
<path d="M96.4531 15.6474L25.9755 86.1251C25.9047 86.4901 25.8399 86.849 25.7779 87.2107L97.5387 15.4498C97.1831 15.5058 96.8154 15.5739 96.4531 15.6474Z" fill="#EF1E1E"/>
<path d="M91.7944 16.8365L27.1697 81.4611C27.0357 81.8839 26.9191 82.3 26.7966 82.7222L93.0494 16.4694C92.6306 16.5831 92.2172 16.7024 91.7944 16.8365Z" fill="#EF1E1E"/>
<path d="M86.3281 18.8262L29.1543 76C28.9476 76.4954 28.7463 76.9963 28.5572 77.4851L87.8131 18.2291C87.3244 18.4183 86.8295 18.6135 86.3281 18.8262Z" fill="#EF1E1E"/>
<path d="M79.6907 21.9939L32.3223 69.3623C31.9945 69.9788 31.6755 70.5919 31.368 71.2045L81.5328 21.0397C80.9203 21.3471 80.3132 21.6601 79.6907 21.9939Z" fill="#EF1E1E"/>
<path d="M70.8562 27.3596L37.6934 60.5224C37.106 61.3876 36.5389 62.2489 35.9887 63.1151L73.4488 25.6549C72.5827 26.2051 71.7214 26.7722 70.8562 27.3596Z" fill="#EF1E1E"/>
<path d="M52.7566 42.4299C50.5534 44.6331 48.4628 46.8762 46.4887 49.139L59.4657 36.162C57.209 38.1301 54.9659 40.2207 52.7566 42.4299Z" fill="#EF1E1E"/>
</g>
<defs>
<clipPath id="clip0_532_301729">
<rect width="54" height="120" fill="white" transform="translate(85.5176) rotate(45)"/>
</clipPath>
</defs>
</svg>
