<svg width="45" height="40" viewBox="0 0 45 40" fill="none" xmlns="http://www.w3.org/2000/svg">
<path d="M49.1955 40.2356C59.0289 40.2356 67.0004 31.4441 67.0004 20.5993C67.0004 9.75439 59.0289 0.962891 49.1955 0.962891C39.3621 0.962891 31.3906 9.75439 31.3906 20.5993C31.3906 31.4441 39.3621 40.2356 49.1955 40.2356Z" fill="#FCD2D2"/>
<path d="M19.7632 24.712C22.9457 24.712 25.5255 21.8667 25.5255 18.357C25.5255 14.8472 22.9457 12.002 19.7632 12.002C16.5808 12.002 14.001 14.8472 14.001 18.357C14.001 21.8667 16.5808 24.712 19.7632 24.712Z" fill="#FCD2D2"/>
<path d="M11.8056 52.9999C18.1973 52.9999 23.3788 47.2855 23.3788 40.2363C23.3788 33.1871 18.1973 27.4727 11.8056 27.4727C5.41391 27.4727 0.232422 33.1871 0.232422 40.2363C0.232422 47.2855 5.41391 52.9999 11.8056 52.9999Z" fill="#FCD2D2"/>
</svg>
