<svg width="23" height="50" viewBox="0 0 23 50" fill="none" xmlns="http://www.w3.org/2000/svg">
<path d="M6.45955 41.583C7.12915 39.084 6.79019 36.5541 5.70581 34.4126L5.71821 34.4159C1.38567 25.8314 1.49026 18.5953 14.0129 12.2774L13.9881 12.2707C17.6065 10.4489 20.4741 7.16321 21.6033 2.9365C23.7062 -4.92391 19.0443 -12.9986 11.1855 -15.1076C3.32906 -17.2128 -4.74953 -12.5486 -6.8586 -4.68985C-7.99009 -0.467067 -7.15576 3.81058 -4.93072 7.20145L-4.95552 7.1948C2.73891 18.9332 -0.784634 25.2499 -8.83293 30.5203L-8.82053 30.5236C-10.8304 31.836 -12.3889 33.8575 -13.0585 36.3565C-14.5023 41.745 -11.3044 47.284 -5.91581 48.7279C-0.523341 50.1695 5.0157 46.9715 6.45955 41.583Z" fill="#E2B93B"/>
</svg>
