<svg width="48" height="10" viewBox="0 0 48 10" fill="none" xmlns="http://www.w3.org/2000/svg">
<path d="M5.42731 0.273978C5.38844 0.283695 5.37873 0.293412 5.39816 0.299242C5.41371 0.307015 5.52643 0.343939 5.64886 0.384749C5.91705 0.474144 6.31934 0.674309 6.57781 0.847268C7.37656 1.37975 7.88962 2.06964 8.03537 2.80034C8.12477 3.25509 8.01399 4.13154 7.80216 4.6543C7.53009 5.32282 7.14723 5.7387 6.24355 6.33919C5.67801 6.7162 5.37095 6.97661 5.16495 7.25257C4.89676 7.61403 4.75684 8.06295 4.75684 8.55267C4.75878 8.82863 4.78793 9.02685 4.86372 9.25228C4.92008 9.42136 5.06778 9.72452 5.10082 9.73424C5.11248 9.73812 5.16495 9.66039 5.21742 9.56128C5.33792 9.32807 5.60222 9.056 5.8296 8.92774C6.24355 8.69454 6.78381 8.60126 7.52814 8.63624C8.0276 8.65956 8.25886 8.61098 8.39879 8.45745C8.43377 8.41664 8.47653 8.35057 8.49013 8.30976C8.529 8.19898 8.52123 7.96772 8.4707 7.78894C8.44738 7.70537 8.43183 7.63541 8.43377 7.63347C8.43766 7.63152 8.49013 7.59849 8.55232 7.56156C8.82828 7.39832 8.84966 7.19427 8.61257 6.95524L8.50568 6.84641L8.58924 6.82503C8.80108 6.77062 8.92934 6.69288 8.95072 6.5996C8.97793 6.47717 8.93128 6.33531 8.81079 6.17789C8.76998 6.12542 8.74083 6.08073 8.74472 6.07878C8.7486 6.07684 8.87104 6.05158 9.0168 6.02242C9.30636 5.96607 9.50654 5.89028 9.58622 5.80283C9.67367 5.70954 9.65618 5.63375 9.46961 5.26063C9.21308 4.7437 9.16255 4.51049 9.12951 3.6768C9.11785 3.40473 9.10036 3.10739 9.0887 3.01605C8.98959 2.18818 8.66892 1.60906 7.97318 1.00857C7.57284 0.660706 7.0384 0.413899 6.44566 0.303128C6.26492 0.268147 5.52643 0.248714 5.42731 0.273978Z" fill="url(#paint0_linear_521_519141)"/>
<path d="M4.77614 0.650367C4.64982 0.675631 4.51961 0.749478 4.43216 0.840816C4.36414 0.91272 4.27086 1.08568 4.27086 1.14009C4.26891 1.22949 4.25725 1.23143 3.87051 1.21783C3.6684 1.212 3.43519 1.20617 3.35162 1.20617C3.2253 1.20617 3.19809 1.20034 3.19032 1.17119C3.13396 1.00017 3.05817 0.908834 2.92018 0.844703C2.72779 0.755308 2.52762 0.790288 2.37603 0.943814C2.23027 1.08762 2.18752 1.29556 2.2672 1.46852L2.30218 1.5482L2.00095 1.81832C1.83576 1.96796 1.6628 2.12343 1.61616 2.16424L1.53259 2.23615L1.44513 2.18173C1.39655 2.15064 1.31687 2.11371 1.26828 2.10011C1.14974 2.06707 0.922357 2.08262 0.807696 2.13315C0.681374 2.19145 0.549222 2.31777 0.487033 2.44797C0.440391 2.54125 0.432617 2.58012 0.432617 2.7317C0.432617 2.8794 0.440391 2.92409 0.483146 3.01349C0.553109 3.16313 0.632789 3.24864 0.776601 3.32637C0.891262 3.38856 0.910697 3.39244 1.08366 3.39244C1.27217 3.39244 1.32659 3.3769 1.47234 3.28167C1.52676 3.24669 1.44902 3.18062 2.33133 4.01626L2.50235 4.17756L2.46348 4.26112C2.42073 4.35635 2.41295 4.49821 2.44794 4.61481C2.47903 4.7217 2.64033 4.883 2.74722 4.91409C2.92407 4.96656 3.1223 4.92381 3.24473 4.80721C3.29526 4.75862 3.29915 4.75862 3.34774 4.78972C3.37494 4.80721 3.39632 4.81498 3.39632 4.80721C3.39632 4.79749 3.40409 4.80138 3.41187 4.81304C3.43713 4.84802 3.61398 4.93741 3.63536 4.92381C3.64508 4.91798 3.64896 4.91992 3.64313 4.93158C3.63536 4.94324 3.70921 4.99377 3.80249 5.04624L3.97546 5.14146L3.96574 5.2775C3.95214 5.45046 4.00461 5.58455 4.1251 5.69143L4.20672 5.76334L4.09595 6.07428L3.98517 6.38521L3.85108 6.39687C3.48572 6.42408 3.29138 6.79137 3.46628 7.11591C3.51293 7.19948 3.63342 7.30636 3.7131 7.33357C3.73253 7.3394 3.72476 7.38993 3.64119 7.83107L3.61787 7.95739L3.5207 7.97876C3.39243 8.00792 3.31664 8.05067 3.24668 8.13035C3.15728 8.2314 3.11841 8.35383 3.12813 8.48987C3.14173 8.63756 3.18643 8.7289 3.29138 8.82218C3.55568 9.05344 3.96963 8.93295 4.06874 8.59287C4.1387 8.35383 4.04153 8.14006 3.79472 7.9982C3.76168 7.97876 3.76168 7.96905 3.79083 7.8233C3.80832 7.73779 3.83164 7.60175 3.84525 7.51819L3.87051 7.37049L3.98129 7.34912C4.26114 7.29276 4.43022 7.00709 4.34859 6.72724C4.32333 6.63785 4.23782 6.51736 4.17174 6.47849L4.11927 6.4474L4.2281 6.12869L4.33888 5.81192H4.41856C4.72367 5.81192 4.95882 5.56317 4.92579 5.27361L4.91607 5.1881L5.05599 5.12592C5.13179 5.08899 5.33585 4.99766 5.50881 4.91992L5.82559 4.77611L5.9111 4.87328C5.95968 4.92575 6.04713 4.99377 6.11127 5.02486C6.21038 5.07733 6.24342 5.08316 6.39889 5.08316C6.55825 5.08316 6.5874 5.07733 6.70401 5.01903C6.83616 4.9549 6.96443 4.83441 6.9411 4.79749C6.93333 4.78583 6.93527 4.78194 6.94693 4.78777C6.95859 4.79555 6.98775 4.75668 7.01301 4.69838C7.07909 4.55263 7.07909 4.29027 7.01107 4.15035C6.93916 4.00071 6.78952 3.86274 6.64376 3.81027L6.52133 3.76557L6.53299 3.49155C6.54853 3.16313 6.5602 3.07179 6.5874 3.07179C6.63599 3.07179 6.8109 2.97268 6.8692 2.91243C6.95665 2.82304 6.99552 2.71616 6.99552 2.57235C6.99358 2.30805 6.78369 2.10011 6.5155 2.10011C6.42804 2.10011 6.31533 2.13121 6.28229 2.16424C6.26868 2.17785 6.22398 2.19728 6.29006 2.16813C6.30949 2.15647 6.31338 2.16036 6.30366 2.1759C6.29395 2.18951 6.27646 2.19534 6.26091 2.18951C6.24731 2.18368 6.22982 2.18756 6.22398 2.19728C6.20261 2.2342 6.16374 2.21671 6.06851 2.12926C6.0141 2.08068 5.96551 2.04181 5.95968 2.04181C5.95385 2.04181 5.92664 2.02238 5.89944 1.99711C5.87417 1.97379 5.77311 1.89023 5.674 1.81055C5.57489 1.73087 5.49521 1.66091 5.49521 1.65508C5.49521 1.64925 5.5127 1.59484 5.53602 1.53654C5.58266 1.41411 5.59043 1.21005 5.55156 1.0954C5.44662 0.770855 5.11041 0.578463 4.77614 0.650367ZM4.2864 1.49184C4.31167 1.56569 4.33305 1.63759 4.33499 1.65508C4.33693 1.67257 4.1834 1.81638 3.95019 2.01072C3.73642 2.19145 3.54402 2.35469 3.5207 2.37607C3.47989 2.41105 3.47794 2.41105 3.38466 2.36246C3.33219 2.3372 3.24279 2.30805 3.18449 2.30028L3.0776 2.28473L3.04262 2.16813C3.02319 2.104 2.9882 1.97768 2.96683 1.88829C2.92796 1.74059 2.92796 1.72504 2.95517 1.7095C3.05817 1.6512 3.15145 1.52682 3.19032 1.39467C3.20004 1.36358 3.24279 1.36164 3.72087 1.36164H4.2417L4.2864 1.49184ZM2.48486 1.71144C2.52762 1.73476 2.61118 1.75808 2.67143 1.76585L2.7822 1.77946L2.85411 2.02238C2.89492 2.15647 2.92796 2.28279 2.92796 2.30611C2.9299 2.32943 2.90075 2.36635 2.85217 2.40327C2.80941 2.43437 2.77443 2.46546 2.77443 2.47324C2.77443 2.48101 2.75888 2.50627 2.74139 2.52765C2.72196 2.54903 2.69669 2.59567 2.68503 2.63065L2.66365 2.69283L2.40324 2.69089C2.25942 2.68895 2.05342 2.687 1.94654 2.687L1.75025 2.68312L1.73859 2.60927C1.73082 2.56846 1.70555 2.49461 1.68029 2.44409L1.63365 2.35275L2.01067 2.01266C2.21861 1.8261 2.39158 1.67257 2.39741 1.67257C2.40324 1.67257 2.44211 1.69006 2.48486 1.71144ZM5.80615 2.10983C5.94996 2.22449 6.0724 2.3236 6.07629 2.32748C6.08212 2.33137 6.07434 2.36635 6.05879 2.40716C6.04519 2.44603 6.03353 2.53348 6.03353 2.59955C6.03353 2.66757 6.02576 2.72782 6.01215 2.73753C6.00049 2.74531 5.81781 2.8347 5.60598 2.93381L5.21924 3.1126L5.13762 3.03681C5.09098 2.99406 5.02101 2.94936 4.9802 2.93575L4.90635 2.91243L4.91996 2.65591C4.92579 2.51599 4.93745 2.30416 4.94522 2.18368L4.95688 1.96602L5.03267 1.95436C5.11818 1.93881 5.32418 1.84164 5.35917 1.79889C5.38054 1.77363 5.39415 1.77751 5.46411 1.83387C5.50687 1.86885 5.66234 1.99323 5.80615 2.10983ZM4.54682 1.84747C4.59152 1.88051 4.66537 1.91744 4.71201 1.9291C4.75865 1.94076 4.79946 1.95436 4.80335 1.96213C4.80724 1.96796 4.79946 2.17979 4.78392 2.43048C4.77031 2.68118 4.75865 2.893 4.75671 2.90077C4.75671 2.91049 4.73922 2.91632 4.71784 2.91632C4.64788 2.91632 4.50407 2.99794 4.43799 3.07568L4.37191 3.15341L4.00461 3.01932L3.63925 2.88717L3.62759 2.76085C3.62176 2.69089 3.60621 2.6151 3.59455 2.59178C3.58094 2.56846 3.57123 2.54514 3.57123 2.53931C3.57123 2.53348 3.682 2.43631 3.81998 2.32165C3.95602 2.207 4.08429 2.09622 4.10567 2.07679C4.1834 2.00683 4.44771 1.78917 4.45742 1.78917C4.46131 1.78917 4.50212 1.81638 4.54682 1.84747ZM2.60924 2.8483C2.65977 2.85608 2.67337 2.86968 2.69086 2.94158C2.72001 3.04653 2.8269 3.1709 2.9299 3.21754C2.99792 3.24864 3.00764 3.2603 2.99986 3.30305C2.99403 3.33026 2.97071 3.48961 2.94739 3.65868L2.90464 3.96185L2.82301 3.97351C2.78026 3.98128 2.71418 4.0046 2.6792 4.02598C2.61701 4.0629 2.61313 4.0629 2.57426 4.02986C2.52373 3.98711 1.62782 3.14758 1.62782 3.14369C1.62782 3.14175 1.64919 3.09705 1.6764 3.04458C1.70361 2.99211 1.72499 2.93575 1.72499 2.92215C1.72499 2.9066 1.73276 2.8794 1.74248 2.86191C1.75802 2.83276 1.80078 2.82887 2.15642 2.8347C2.37214 2.83664 2.57814 2.84247 2.60924 2.8483ZM6.24536 2.99017C6.27646 3.01155 6.32893 3.03681 6.35808 3.04458L6.4125 3.05819L6.40084 3.31277C6.37946 3.73447 6.37363 3.7714 6.31921 3.7714C6.23565 3.7714 6.06463 3.84913 5.97523 3.92881L5.88583 4.0046L5.57294 3.80055C5.26783 3.60233 5.25811 3.59261 5.27366 3.54208C5.28143 3.51293 5.2892 3.4352 5.2892 3.36912L5.29115 3.24669L5.69926 3.05236L6.10738 2.85802L6.14625 2.90272C6.16763 2.92798 6.21232 2.96685 6.24536 2.99017ZM3.96574 3.16313L4.32916 3.29528V3.40216C4.32916 3.53431 4.39718 3.69172 4.48074 3.75196C4.51378 3.77528 4.54488 3.79472 4.55071 3.79277C4.55848 3.79083 4.5818 3.80638 4.60318 3.82775L4.64399 3.86662L4.55265 4.34857C4.50212 4.61287 4.45937 4.83247 4.45937 4.83247C4.45742 4.83441 4.41856 4.84024 4.37191 4.84219L4.28835 4.84996L4.15619 4.59732C4.08429 4.4574 3.89383 4.08622 3.73253 3.76751L3.43908 3.19228L3.50904 3.1126C3.54985 3.06985 3.58483 3.03292 3.59066 3.03292C3.59649 3.03292 3.76363 3.09122 3.96574 3.16313ZM3.5071 3.6548C3.61398 3.86274 3.80444 4.23392 3.93076 4.47878L4.15814 4.92186L4.10955 4.97045L4.06097 5.01903L3.71893 4.82858L3.37689 4.63619L3.38855 4.51765C3.40992 4.30388 3.31081 4.10954 3.1359 4.02403C3.05622 3.98517 3.05039 3.97934 3.05817 3.92104C3.064 3.88606 3.08732 3.7267 3.11064 3.56735L3.15339 3.27584L3.22141 3.26418C3.25834 3.25835 3.29526 3.25835 3.30109 3.26418C3.30887 3.27001 3.40021 3.44686 3.5071 3.6548ZM5.56322 3.97156C5.69149 4.05513 5.79838 4.12703 5.80032 4.12898C5.80421 4.13286 5.79255 4.17562 5.77506 4.22614C5.75174 4.29222 5.74591 4.36412 5.75174 4.48072L5.75951 4.64396L5.31252 4.84607L4.8636 5.04818L4.76837 4.96462C4.71784 4.91798 4.66342 4.87911 4.64982 4.87911C4.63427 4.87911 4.61873 4.87134 4.6129 4.86356C4.60707 4.85385 4.63622 4.677 4.67703 4.46906C4.71978 4.26112 4.75865 4.05318 4.76643 4.0046C4.78392 3.89383 4.80529 3.86857 4.87914 3.86857C4.94911 3.86857 5.08709 3.80638 5.13567 3.75196C5.17454 3.70921 5.14539 3.69561 5.56322 3.97156Z" fill="url(#paint1_linear_521_519141)"/>
<ellipse cx="6.53123" cy="2.58786" rx="0.606429" ry="0.606412" fill="#4286FF"/>
<ellipse cx="6.39031" cy="4.46841" rx="0.672531" ry="0.672512" fill="#4286FF"/>
<path d="M11.5322 8.21797V1.68652H12.7203V4.68755H12.8004L15.3592 1.68652H16.8099L14.2735 4.61738L16.8323 8.21797H15.404L13.4473 5.41787L12.7203 6.27257V8.21797H11.5322Z" fill="#051321"/>
<path d="M18.9996 8.31684C18.6879 8.31684 18.4071 8.26156 18.1573 8.151C17.9097 8.03832 17.7133 7.87248 17.5681 7.65349C17.425 7.4345 17.3535 7.16448 17.3535 6.84343C17.3535 6.56704 17.4048 6.33848 17.5072 6.15776C17.6097 5.97704 17.7496 5.83246 17.9268 5.72403C18.104 5.6156 18.3036 5.53374 18.5256 5.47846C18.7498 5.42106 18.9814 5.3796 19.2206 5.35409C19.5088 5.32432 19.7426 5.29774 19.9219 5.27436C20.1012 5.24884 20.2315 5.21057 20.3126 5.15954C20.3959 5.10639 20.4375 5.02454 20.4375 4.91398V4.89484C20.4375 4.65459 20.366 4.46856 20.2229 4.33674C20.0799 4.20492 19.8739 4.13901 19.6048 4.13901C19.3209 4.13901 19.0957 4.20066 18.9291 4.32398C18.7647 4.44729 18.6537 4.59293 18.5961 4.7609L17.5136 4.60782C17.599 4.31016 17.7399 4.0614 17.9364 3.86155C18.1328 3.65957 18.373 3.50861 18.6569 3.40868C18.9409 3.30663 19.2547 3.2556 19.5984 3.2556C19.8354 3.2556 20.0713 3.28324 20.3062 3.33852C20.541 3.3938 20.7556 3.48522 20.9499 3.61279C21.1442 3.73823 21.3 3.90938 21.4174 4.12625C21.537 4.34311 21.5968 4.61419 21.5968 4.93949V8.21797H20.4823V7.54505H20.4439C20.3734 7.68113 20.2742 7.80869 20.1461 7.92776C20.0201 8.04469 19.861 8.13931 19.6689 8.21159C19.4789 8.28176 19.2558 8.31684 18.9996 8.31684ZM19.3006 7.46851C19.5333 7.46851 19.7351 7.4228 19.9059 7.33138C20.0767 7.23783 20.208 7.11452 20.2998 6.96143C20.3937 6.80835 20.4407 6.64145 20.4407 6.46073V5.88349C20.4044 5.91326 20.3425 5.9409 20.2549 5.96641C20.1695 5.99192 20.0735 6.01425 19.9667 6.03338C19.86 6.05252 19.7543 6.06953 19.6497 6.08441C19.5451 6.09929 19.4543 6.11205 19.3775 6.12268C19.2045 6.14607 19.0498 6.18434 18.9131 6.23749C18.7765 6.29064 18.6687 6.36506 18.5897 6.46073C18.5107 6.55428 18.4712 6.67547 18.4712 6.8243C18.4712 7.03691 18.5491 7.19743 18.705 7.30587C18.8608 7.4143 19.0594 7.46851 19.3006 7.46851Z" fill="#051321"/>
<path d="M23.9218 5.34771V8.21797H22.7625V3.31939H23.8705V4.15176H23.9282C24.0413 3.87749 24.2217 3.65957 24.4694 3.49798C24.7192 3.3364 25.0277 3.2556 25.3949 3.2556C25.7344 3.2556 26.0301 3.32789 26.282 3.47247C26.5361 3.61704 26.7325 3.82647 26.8712 4.10074C27.0122 4.37501 27.0815 4.70774 27.0794 5.09895V8.21797H25.9201V5.27754C25.9201 4.95012 25.8347 4.69392 25.6639 4.50895C25.4953 4.32398 25.2615 4.23149 24.9626 4.23149C24.7598 4.23149 24.5793 4.27614 24.4214 4.36544C24.2655 4.45261 24.1427 4.57911 24.0531 4.74495C23.9655 4.91079 23.9218 5.11171 23.9218 5.34771Z" fill="#051321"/>
<path d="M29.6734 8.31684C29.3617 8.31684 29.0809 8.26156 28.8312 8.151C28.5835 8.03832 28.3871 7.87248 28.2419 7.65349C28.0989 7.4345 28.0273 7.16448 28.0273 6.84343C28.0273 6.56704 28.0786 6.33848 28.1811 6.15776C28.2835 5.97704 28.4234 5.83246 28.6006 5.72403C28.7778 5.6156 28.9774 5.53374 29.1994 5.47846C29.4236 5.42106 29.6553 5.3796 29.8944 5.35409C30.1826 5.32432 30.4164 5.29774 30.5957 5.27436C30.7751 5.24884 30.9053 5.21057 30.9864 5.15954C31.0697 5.10639 31.1113 5.02454 31.1113 4.91398V4.89484C31.1113 4.65459 31.0398 4.46856 30.8967 4.33674C30.7537 4.20492 30.5477 4.13901 30.2787 4.13901C29.9947 4.13901 29.7695 4.20066 29.6029 4.32398C29.4386 4.44729 29.3275 4.59293 29.2699 4.7609L28.1875 4.60782C28.2729 4.31016 28.4138 4.0614 28.6102 3.86155C28.8066 3.65957 29.0468 3.50861 29.3307 3.40868C29.6147 3.30663 29.9285 3.2556 30.2723 3.2556C30.5092 3.2556 30.7452 3.28324 30.98 3.33852C31.2149 3.3938 31.4294 3.48522 31.6237 3.61279C31.818 3.73823 31.9738 3.90938 32.0913 4.12625C32.2108 4.34311 32.2706 4.61419 32.2706 4.93949V8.21797H31.1561V7.54505H31.1177C31.0473 7.68113 30.948 7.80869 30.8199 7.92776C30.6939 8.04469 30.5349 8.13931 30.3427 8.21159C30.1527 8.28176 29.9296 8.31684 29.6734 8.31684ZM29.9744 7.46851C30.2071 7.46851 30.4089 7.4228 30.5797 7.33138C30.7505 7.23783 30.8818 7.11452 30.9736 6.96143C31.0675 6.80835 31.1145 6.64145 31.1145 6.46073V5.88349C31.0782 5.91326 31.0163 5.9409 30.9288 5.96641C30.8434 5.99192 30.7473 6.01425 30.6406 6.03338C30.5338 6.05252 30.4281 6.06953 30.3235 6.08441C30.2189 6.09929 30.1282 6.11205 30.0513 6.12268C29.8784 6.14607 29.7236 6.18434 29.5869 6.23749C29.4503 6.29064 29.3425 6.36506 29.2635 6.46073C29.1845 6.55428 29.145 6.67547 29.145 6.8243C29.145 7.03691 29.2229 7.19743 29.3788 7.30587C29.5346 7.4143 29.7332 7.46851 29.9744 7.46851Z" fill="#051321"/>
<path d="M34.4931 6.68079L34.4899 5.28711H34.6757L36.4434 3.31939H37.7981L35.6236 5.73041H35.3834L34.4931 6.68079ZM33.4363 8.21797V1.68652H34.5956V8.21797H33.4363ZM36.5235 8.21797L34.9222 5.98873L35.7037 5.17549L37.9102 8.21797H36.5235Z" fill="#051321"/>
<path d="M39.6275 6.68079L39.6243 5.28711H39.81L41.5778 3.31939H42.9324L40.7579 5.73041H40.5178L39.6275 6.68079ZM38.5707 8.21797V1.68652H39.73V8.21797H38.5707ZM41.6578 8.21797L40.0566 5.98873L40.838 5.17549L43.0445 8.21797H41.6578Z" fill="#051321"/>
<path d="M46.8402 6.15776V3.31939H47.9995V8.21797H46.8755V7.34733H46.8242C46.7132 7.6216 46.5307 7.8459 46.2766 8.02024C46.0247 8.19459 45.714 8.28176 45.3447 8.28176C45.0223 8.28176 44.7373 8.21053 44.4896 8.06808C44.2441 7.9235 44.052 7.71408 43.9132 7.43981C43.7744 7.16342 43.705 6.82961 43.705 6.43841V3.31939H44.8643V6.25981C44.8643 6.57023 44.9497 6.81686 45.1205 6.9997C45.2913 7.18255 45.5155 7.27397 45.793 7.27397C45.9638 7.27397 46.1293 7.23252 46.2894 7.1496C46.4495 7.06668 46.5808 6.94336 46.6833 6.77965C46.7879 6.61381 46.8402 6.40652 46.8402 6.15776Z" fill="#051321"/>
<defs>
<linearGradient id="paint0_linear_521_519141" x1="5.97693" y1="8.06762" x2="9.5798" y2="1.58733" gradientUnits="userSpaceOnUse">
<stop stop-color="#743BFF"/>
<stop offset="1" stop-color="#349BFF"/>
</linearGradient>
<linearGradient id="paint1_linear_521_519141" x1="2.09014" y1="7.47979" x2="4.4553" y2="0.889371" gradientUnits="userSpaceOnUse">
<stop stop-color="#743BFF"/>
<stop offset="1" stop-color="#349BFF"/>
</linearGradient>
</defs>
</svg>
