<svg width="38" height="40" viewBox="0 0 38 40" fill="none" xmlns="http://www.w3.org/2000/svg">
<path d="M20.6197 0.194134C20.4592 0.234249 20.4191 0.274368 20.4993 0.298439C20.5635 0.330532 21.0289 0.482975 21.5344 0.65147C22.6416 1.02055 24.3025 1.84696 25.3696 2.56105C28.6673 4.75948 30.7856 7.60781 31.3873 10.6246C31.7564 12.5021 31.2991 16.1207 30.4245 18.279C29.3012 21.0391 27.7206 22.7561 23.9896 25.2354C21.6547 26.7919 20.387 27.8671 19.5365 29.0064C18.4293 30.4988 17.8516 32.3522 17.8516 34.3741C17.8596 35.5134 17.9799 36.3318 18.2929 37.2625C18.5255 37.9606 19.1353 39.2122 19.2717 39.2524C19.3199 39.2684 19.5365 38.9475 19.7531 38.5383C20.2506 37.5754 21.3418 36.4522 22.2806 35.9226C23.9896 34.9598 26.2201 34.5747 29.2932 34.7191C31.3552 34.8154 32.31 34.6148 32.8877 33.9809C33.0322 33.8124 33.2087 33.5396 33.2648 33.3712C33.4253 32.9138 33.3932 31.959 33.1846 31.2209C33.0883 30.8759 33.0241 30.587 33.0322 30.579C33.0482 30.571 33.2648 30.4346 33.5216 30.2821C34.6609 29.6081 34.7492 28.7657 33.7703 27.7788L33.329 27.3295L33.674 27.2412C34.5486 27.0166 35.0782 26.6956 35.1664 26.3105C35.2788 25.805 35.0862 25.2193 34.5887 24.5694C34.4202 24.3528 34.2999 24.1682 34.3159 24.1602C34.332 24.1522 34.8375 24.0479 35.4392 23.9275C36.6347 23.6949 37.4612 23.3819 37.7901 23.0209C38.1512 22.6358 38.079 22.3228 37.3087 20.7823C36.2496 18.6481 36.041 17.6853 35.9046 14.2432C35.8565 13.1199 35.7842 11.8923 35.7361 11.5152C35.3269 8.09724 34.003 5.70625 31.1306 3.227C29.4777 1.7908 27.2712 0.77182 24.824 0.31448C24.0779 0.170059 21.0289 0.0898285 20.6197 0.194134Z" fill="white"/>
<path d="M17.9327 1.75639C17.4111 1.8607 16.8736 2.16559 16.5125 2.54269C16.2317 2.83956 15.8465 3.55365 15.8465 3.77831C15.8385 4.14739 15.7904 4.15541 14.1937 4.09925C13.3592 4.07518 12.3964 4.05111 12.0514 4.05111C11.5299 4.05111 11.4175 4.02703 11.3854 3.90668C11.1528 3.20062 10.8398 2.82351 10.2702 2.55874C9.47584 2.18966 8.64941 2.33408 8.02357 2.96794C7.4218 3.56167 7.24528 4.42019 7.57425 5.13427L7.71867 5.46324L6.47502 6.5785C5.79302 7.1963 5.07892 7.83818 4.88635 8.00667L4.54134 8.30354L4.18028 8.07889C3.97969 7.95051 3.65072 7.79806 3.45013 7.7419C2.9607 7.6055 2.02194 7.66969 1.54855 7.8783C1.02702 8.119 0.481414 8.64053 0.22466 9.1781C0.0320943 9.56323 0 9.7237 0 10.3495C0 10.9593 0.0320943 11.1439 0.208613 11.5129C0.497461 12.1307 0.826428 12.4838 1.42017 12.8047C1.89356 13.0615 1.9738 13.0775 2.6879 13.0775C3.46618 13.0775 3.69084 13.0133 4.29261 12.6202C4.51727 12.4757 4.19633 12.2029 7.83903 15.653L8.5451 16.319L8.38463 16.664C8.20811 17.0571 8.17602 17.6429 8.32044 18.1243C8.44882 18.5656 9.11477 19.2315 9.55607 19.3599C10.2862 19.5765 11.1046 19.4 11.6101 18.9186C11.8187 18.718 11.8348 18.718 12.0354 18.8464C12.1477 18.9186 12.2359 18.9507 12.2359 18.9186C12.2359 18.8785 12.268 18.8945 12.3001 18.9427C12.4044 19.0871 13.1346 19.4562 13.2228 19.4C13.263 19.3759 13.279 19.3839 13.2549 19.4321C13.2228 19.4802 13.5277 19.6888 13.9129 19.9055L14.627 20.2986L14.5868 20.8603C14.5307 21.5744 14.7473 22.128 15.2448 22.5693L15.5818 22.8661L15.1244 24.1499L14.6671 25.4336L14.1135 25.4818C12.605 25.5941 11.8027 27.1105 12.5248 28.4505C12.7174 28.7955 13.2148 29.2368 13.5438 29.3491C13.624 29.3732 13.5919 29.5818 13.2469 31.4031L13.1506 31.9246L12.7495 32.0129C12.2199 32.1332 11.907 32.3098 11.6181 32.6387C11.249 33.0559 11.0886 33.5614 11.1287 34.1231C11.1849 34.7328 11.3694 35.1099 11.8027 35.4951C12.8939 36.4499 14.6029 35.9524 15.0121 34.5483C15.3009 33.5614 14.8998 32.6788 13.8808 32.0931C13.7444 32.0129 13.7444 31.9728 13.8647 31.371C13.9369 31.018 14.0332 30.4563 14.0894 30.1113L14.1937 29.5015L14.651 29.4133C15.8064 29.1806 16.5045 28.0012 16.1675 26.8458C16.0632 26.4767 15.7101 25.9792 15.4373 25.8188L15.2207 25.6904L15.67 24.3745L16.1274 23.0667H16.4563C17.716 23.0667 18.6869 22.0397 18.5505 20.8442L18.5104 20.4912L19.0881 20.2344C19.401 20.082 20.2435 19.7049 20.9576 19.3839L22.2654 18.7902L22.6184 19.1914C22.819 19.408 23.1801 19.6888 23.4449 19.8172C23.8541 20.0338 23.9905 20.0579 24.6324 20.0579C25.2903 20.0579 25.4106 20.0338 25.8921 19.7931C26.4377 19.5284 26.9672 19.0309 26.8709 18.8785C26.8388 18.8303 26.8469 18.8143 26.895 18.8384C26.9431 18.8704 27.0635 18.71 27.1678 18.4693C27.4406 17.8675 27.4406 16.7843 27.1598 16.2067C26.8629 15.5888 26.2451 15.0192 25.6433 14.8025L25.1378 14.618L25.186 13.4867C25.2502 12.1307 25.2983 11.7536 25.4106 11.7536C25.6112 11.7536 26.3334 11.3444 26.5741 11.0957C26.9351 10.7266 27.0956 10.2853 27.0956 9.6916C27.0876 8.60041 26.221 7.7419 25.1138 7.7419C24.7527 7.7419 24.2873 7.87028 24.1509 8.00667C24.0948 8.06284 23.9102 8.14307 24.183 8.02272C24.2633 7.97458 24.2793 7.99063 24.2392 8.05481C24.1991 8.11098 24.1269 8.13505 24.0627 8.11098C24.0065 8.08691 23.9343 8.10296 23.9102 8.14307C23.822 8.29552 23.6615 8.22331 23.2684 7.86225C23.0437 7.66166 22.8431 7.50119 22.819 7.50119C22.795 7.50119 22.6826 7.42096 22.5703 7.31666C22.466 7.22038 22.0488 6.87536 21.6396 6.5464C21.2304 6.21744 20.9014 5.9286 20.9014 5.90453C20.9014 5.88046 20.9736 5.6558 21.0699 5.41509C21.2625 4.90962 21.2946 4.06715 21.1341 3.59377C20.7008 2.25385 19.3127 1.45953 17.9327 1.75639ZM15.9107 5.23055C16.015 5.53545 16.1033 5.83232 16.1113 5.90453C16.1194 5.97674 15.4855 6.57047 14.5227 7.37282C13.6401 8.119 12.8457 8.79297 12.7495 8.88123C12.581 9.02565 12.5729 9.02565 12.1878 8.82507C11.9712 8.72076 11.6021 8.60041 11.3614 8.56832L10.9201 8.50413L10.7757 8.02272C10.6954 7.75795 10.551 7.23642 10.4627 6.86734C10.3023 6.25756 10.3023 6.19337 10.4146 6.12918C10.8398 5.88848 11.225 5.37498 11.3854 4.82938C11.4256 4.70101 11.6021 4.69298 13.5759 4.69298H15.7262L15.9107 5.23055ZM8.47289 6.13721C8.64941 6.23349 8.99442 6.32977 9.24315 6.36186L9.70049 6.41803L9.99737 7.42096C10.1659 7.97458 10.3023 8.49611 10.3023 8.59239C10.3103 8.68867 10.1899 8.84111 9.98934 8.99356C9.81283 9.12193 9.6684 9.25031 9.6684 9.28241C9.6684 9.3145 9.60421 9.4188 9.532 9.50706C9.45177 9.59532 9.34746 9.78788 9.29932 9.9323L9.21106 10.1891L8.1359 10.181C7.54216 10.173 6.69166 10.165 6.25036 10.165L5.43998 10.1489L5.39184 9.84405C5.35974 9.67555 5.25544 9.37066 5.15113 9.16205L4.95857 8.78495L6.51514 7.38084C7.37366 6.61059 8.08776 5.97674 8.11183 5.97674C8.1359 5.97674 8.29637 6.04895 8.47289 6.13721ZM22.1852 7.78202C22.7789 8.2554 23.2844 8.6646 23.3004 8.68064C23.3245 8.69669 23.2924 8.84111 23.2282 9.00961C23.1721 9.17008 23.1239 9.53113 23.1239 9.80393C23.1239 10.0848 23.0918 10.3335 23.0357 10.3736C22.9875 10.4057 22.2333 10.7748 21.3587 11.184L19.7621 11.9221L19.4251 11.6092C19.2325 11.4327 18.9436 11.2482 18.7752 11.192L18.4703 11.0957L18.5264 10.0366C18.5505 9.45892 18.5986 8.58436 18.6307 8.08691L18.6789 7.18828L18.9918 7.14014C19.3448 7.07595 20.1953 6.67478 20.3397 6.49826C20.428 6.39396 20.4842 6.41 20.773 6.64268C20.9495 6.78711 21.5914 7.30061 22.1852 7.78202ZM16.9859 6.69885C17.1704 6.83525 17.4753 6.98769 17.6679 7.03583C17.8605 7.08397 18.029 7.14014 18.045 7.17223C18.0611 7.1963 18.029 8.07086 17.9648 9.10589C17.9086 10.1409 17.8605 11.0155 17.8524 11.0476C17.8524 11.0877 17.7802 11.1118 17.692 11.1118C17.4031 11.1118 16.8094 11.4487 16.5366 11.7697L16.2638 12.0906L14.7473 11.537L13.2389 10.9914L13.1907 10.4699C13.1667 10.181 13.1025 9.86812 13.0543 9.77184C12.9982 9.67556 12.9581 9.57927 12.9581 9.5552C12.9581 9.53113 13.4154 9.12996 13.9851 8.65657C14.5467 8.18319 15.0763 7.72585 15.1645 7.64562C15.4855 7.35677 16.5767 6.45815 16.6168 6.45815C16.6329 6.45815 16.8014 6.57047 16.9859 6.69885ZM8.9864 10.8309C9.19501 10.863 9.25118 10.9192 9.32339 11.2161C9.44374 11.6493 9.88504 12.1628 10.3103 12.3554C10.5911 12.4838 10.6312 12.5319 10.5991 12.7084C10.5751 12.8208 10.4788 13.4787 10.3825 14.1767L10.206 15.4284L9.86899 15.4765C9.69247 15.5086 9.41967 15.6049 9.27525 15.6932C9.01849 15.8456 9.00245 15.8456 8.84197 15.7092C8.63336 15.5327 4.93449 12.0665 4.93449 12.0505C4.93449 12.0425 5.02275 11.8579 5.13508 11.6413C5.24741 11.4247 5.33567 11.192 5.33567 11.1358C5.33567 11.0716 5.36777 10.9593 5.40789 10.8871C5.47207 10.7667 5.64859 10.7507 7.11691 10.7748C8.00752 10.7828 8.85802 10.8069 8.9864 10.8309ZM23.9985 11.4166C24.1269 11.5049 24.3435 11.6092 24.4639 11.6413L24.6885 11.6975L24.6404 12.7485C24.5521 14.4896 24.5281 14.6421 24.3034 14.6421C23.9584 14.6421 23.2523 14.963 22.8832 15.292L22.5141 15.6049L21.2223 14.7624C19.9626 13.944 19.9225 13.9039 19.9867 13.6953C20.0188 13.575 20.0509 13.254 20.0509 12.9812L20.0589 12.4757L21.7439 11.6734L23.4288 10.871L23.5893 11.0556C23.6776 11.1599 23.8621 11.3204 23.9985 11.4166ZM14.5868 12.1307L16.0873 12.6763V13.1176C16.0873 13.6632 16.3681 14.3131 16.7131 14.5618C16.8495 14.6581 16.9779 14.7384 17.0019 14.7303C17.034 14.7223 17.1303 14.7865 17.2186 14.8748L17.3871 15.0352L17.01 17.025C16.8014 18.1162 16.6248 19.0229 16.6248 19.0229C16.6168 19.0309 16.4563 19.055 16.2638 19.063L15.9188 19.0951L15.3732 18.0521C15.0763 17.4744 14.29 15.9419 13.624 14.626L12.4125 12.2511L12.7013 11.9221C12.8698 11.7456 13.0142 11.5932 13.0383 11.5932C13.0624 11.5932 13.7524 11.8339 14.5868 12.1307ZM12.6933 14.1607C13.1346 15.0192 13.9209 16.5517 14.4424 17.5626L15.3812 19.392L15.1806 19.5926L14.98 19.7931L13.5679 19.0068L12.1557 18.2125L12.2038 17.7231C12.2921 16.8405 11.8829 16.0382 11.1608 15.6851C10.8318 15.5247 10.8077 15.5006 10.8398 15.2599C10.8639 15.1155 10.9602 14.4575 11.0565 13.7996L11.233 12.5961L11.5138 12.548C11.6663 12.5239 11.8187 12.5239 11.8428 12.548C11.8749 12.572 12.252 13.3022 12.6933 14.1607ZM21.1822 15.4685C21.7118 15.8135 22.1531 16.1104 22.1611 16.1184C22.1771 16.1344 22.129 16.311 22.0568 16.5196C21.9605 16.7924 21.9364 17.0892 21.9605 17.5706L21.9926 18.2446L20.1472 19.0791L18.2937 19.9135L17.9006 19.5685C17.692 19.3759 17.4673 19.2155 17.4111 19.2155C17.347 19.2155 17.2828 19.1834 17.2587 19.1513C17.2346 19.1111 17.355 18.381 17.5235 17.5225C17.7 16.664 17.8605 15.8055 17.8926 15.6049C17.9648 15.1476 18.053 15.0433 18.3579 15.0433C18.6468 15.0433 19.2164 14.7865 19.417 14.5618C19.5775 14.3853 19.4572 14.3292 21.1822 15.4685Z" fill="white"/>
<ellipse cx="25.1746" cy="9.73121" rx="2.5037" ry="2.50367" fill="white"/>
<ellipse cx="24.595" cy="17.5061" rx="2.77661" ry="2.77658" fill="white"/>
</svg>
