<svg width="70" height="44" viewBox="0 0 70 44" fill="none" xmlns="http://www.w3.org/2000/svg">
<rect x="0.5" y="0.5" width="69" height="42.1809" rx="9.5" fill="white"/>
<rect x="0.5" y="0.5" width="69" height="42.1809" rx="9.5" stroke="#E2E4E6"/>
<path fill-rule="evenodd" clip-rule="evenodd" d="M24.675 28.0797H21.1008L18.4205 17.8544C18.2933 17.384 18.0232 16.9682 17.6259 16.7722C16.6343 16.2797 15.5416 15.8877 14.3496 15.69V15.2963H20.1075C20.9021 15.2963 21.4981 15.8877 21.5975 16.5745L22.9881 23.9504L26.5606 15.2963H30.0356L24.675 28.0797ZM32.0225 28.0797H28.6469L31.4265 15.2963H34.8021L32.0225 28.0797ZM39.1693 18.8362C39.2687 18.1477 39.8647 17.754 40.56 17.754C41.6527 17.6552 42.8429 17.8529 43.8362 18.3437L44.4322 15.5914C43.4389 15.1977 42.3462 15 41.3547 15C38.0784 15 35.6944 16.7707 35.6944 19.2282C35.6944 21.0977 37.3831 22.0793 38.5751 22.6707C39.8647 23.2604 40.3613 23.654 40.262 24.2437C40.262 25.1282 39.2687 25.5219 38.2771 25.5219C37.0851 25.5219 35.8931 25.227 34.8021 24.7345L34.2061 27.4885C35.3981 27.9794 36.6877 28.177 37.8797 28.177C41.5533 28.2742 43.8362 26.5052 43.8362 23.85C43.8362 20.5063 39.1693 20.3104 39.1693 18.8362ZM55.6499 28.0797L52.9696 15.2963H50.0907C49.4947 15.2963 48.8987 15.69 48.7 16.2797L43.7368 28.0797H47.2118L47.9054 26.2119H52.1749L52.5723 28.0797H55.6499ZM50.5869 18.7369L51.5785 23.5547H48.7989L50.5869 18.7369Z" fill="#172B85"/>
</svg>
