<svg width="71" height="44" viewBox="0 0 71 44" fill="none" xmlns="http://www.w3.org/2000/svg">
<rect x="1" y="0.5" width="69" height="42.806" rx="9.5" fill="white"/>
<rect x="1" y="0.5" width="69" height="42.806" rx="9.5" stroke="#E2E4E6"/>
<path fill-rule="evenodd" clip-rule="evenodd" d="M35.5 27.1569C34.3084 28.1852 32.7628 28.806 31.0738 28.806C27.3051 28.806 24.25 25.7154 24.25 21.903C24.25 18.0906 27.3051 15 31.0738 15C32.7628 15 34.3084 15.6208 35.5 16.649C36.6916 15.6208 38.2372 15 39.9262 15C43.6949 15 46.75 18.0906 46.75 21.903C46.75 25.7154 43.6949 28.806 39.9262 28.806C38.2372 28.806 36.6916 28.1852 35.5 27.1569Z" fill="#ED0006"/>
<path fill-rule="evenodd" clip-rule="evenodd" d="M35.5 27.1569C36.9672 25.8908 37.8975 24.0068 37.8975 21.903C37.8975 19.7992 36.9672 17.9152 35.5 16.649C36.6916 15.6208 38.2372 15 39.9262 15C43.6949 15 46.75 18.0906 46.75 21.903C46.75 25.7154 43.6949 28.806 39.9262 28.806C38.2372 28.806 36.6916 28.1852 35.5 27.1569Z" fill="#F9A000"/>
<path fill-rule="evenodd" clip-rule="evenodd" d="M35.4991 27.1573C36.9663 25.8911 37.8966 24.0071 37.8966 21.9033C37.8966 19.7995 36.9663 17.9155 35.4991 16.6494C34.0319 17.9155 33.1016 19.7995 33.1016 21.9033C33.1016 24.0071 34.0319 25.8911 35.4991 27.1573Z" fill="#FF5E00"/>
</svg>
